<?xml version="1.0" encoding="UTF-8"?>
<svg width="512pt" height="512pt" version="1.1" viewBox="0 0 512 512" xmlns="http://www.w3.org/2000/svg">
 <defs>
  <clipPath id="h">
   <path d="m94.781 121h281.22v296.22h-281.22z"/>
  </clipPath>
  <clipPath id="g">
   <path d="m94.781 94.781h103.22v103.22h-103.22z"/>
  </clipPath>
  <clipPath id="f">
   <path d="m321 314h96.219v96h-96.219z"/>
  </clipPath>
  <clipPath id="e">
   <path d="m314 392h26v25.219h-26z"/>
  </clipPath>
  <clipPath id="d">
   <path d="m204 94.781h146v34.219h-146z"/>
  </clipPath>
  <clipPath id="c">
   <path d="m371 147h46.219v103h-46.219z"/>
  </clipPath>
  <clipPath id="b">
   <path d="m410 265h7.2188v18h-7.2188z"/>
  </clipPath>
  <clipPath id="a">
   <path d="m186 397h119v20.219h-119z"/>
  </clipPath>
 </defs>
 <rect width="512" height="512"/>
 <g clip-path="url(#h)">
  <path d="m321.9 314.16c3.3438-2.2539 5.3242-6.043 5.2656-10.074-0.48047-6.0703-24.383-27.305-24.637-27.508-5.3281-3.8867-10.945-7.3555-16.801-10.379l87.914-131.7c2.6211-3.8984 1.5898-9.1797-2.3047-11.805-3.8984-2.6211-9.1797-1.5898-11.805 2.3086l-89.625 134.39h-0.32812c-10.758-2.8711-71.844-2.293-77.762-1.8125-5.2383 0.42969-12.418 6.1953-22.672 18.188-4.7109 5.5391-46.098 44.105-50.988 48.664l-21.484 5.4688c-1.3906 0.17188-2.3789 1.4414-2.207 2.832 0.17578 1.3906 1.4453 2.3789 2.8359 2.2031 0.20703 0.027344 0.42188 0.027344 0.62891 0l22.043-5.8945c0.40625-0.10547 0.77734-0.3125 1.082-0.60156 1.9141-1.7617 46.68-43.43 51.941-49.625 12.242-14.41 17.508-16.273 19.172-16.426 6.2461-0.50391 66.504-0.88281 76.051 1.6641 9.5469 2.543 27.711 13.578 30.961 16.324 5.8438 5.0391 22.043 20.883 22.871 24.082v-0.003906c-0.070312 2.2383-1.2148 4.3008-3.0742 5.543-2.8203 1.9414-6.9023 1.7148-11.84-0.65625v0.003907c-4.6836-2.457-9.1484-5.3047-13.352-8.5156-4.0898-3.0508-8.3828-5.8164-12.848-8.2891-4.6562-2.5352-9.7188-4.2383-14.961-5.0391-17.078-2.5195-48.969-6.8516-48.969-6.8516l-0.70703 5.0391s31.891 4.4336 48.969 6.8516c4.5625 0.68359 8.9766 2.1406 13.051 4.3086 1.5859 1.9141 9.3945 12.016 7.8359 22.496h-0.003906c-0.84375 3.7148-2.5703 7.1719-5.0391 10.074-3.4648-5.75-7.7891-10.941-12.82-15.391-7.0039-5.9453-41.715-7.1289-48.617-7.3047-1.3906-0.035156-2.5469 1.0625-2.582 2.457-0.035156 1.3906 1.0664 2.5469 2.457 2.582 15.266 0.37891 41.109 2.3945 45.492 6.0977v-0.003906c5.4219 4.668 9.8633 10.363 13.074 16.754 1.2109 4.3086-0.67969 9.8008-5.4922 16.297-1.5117-7.0273-5.8164-14.055-14.105-15.871-11.715-2.5195-38.77-4.4102-39.902-4.5078-0.66797-0.046874-1.3281 0.17188-1.8359 0.60938-0.50391 0.44141-0.8125 1.0664-0.85938 1.7344-0.10156 1.3711 0.92188 2.5742 2.293 2.6953 0.27734 0 27.711 1.8906 39.172 4.3828 10.078 2.2148 11.664 15.543 10.855 21.637-0.75391 5.6914-1.9414 9.4219-15.77 13.68-8.3125 2.5195-16.652-4.2578-21.109-8.8672 8.8906-0.48047 17.633-1.5625 19.547-3.9531 0.45703-0.50391 0.69141-1.1719 0.64844-1.8516-0.042969-0.67578-0.35938-1.3086-0.875-1.7539-1.0312-0.86719-2.5625-0.76562-3.4766 0.22656-1.8125 1.3086-13.777 2.3945-23.781 2.5195h0.003907c-0.3125 0.003906-0.61719 0.0625-0.90625 0.17578l-10.809 4.3828c-6.4727 2.5195-14.836 9.8242-23.68 17.457v0.003907c-6.3438 5.7148-13.023 11.047-20 15.969-13.176 8.7148-22.469 3.5-22.848 3.2734-0.54688-0.32422-1.1914-0.43359-1.8125-0.30078l-46.578 9.6211c-0.66797 0.070312-1.2812 0.39844-1.707 0.91797-0.42578 0.51953-0.62891 1.1875-0.55859 1.8555 0.13672 1.3906 1.3789 2.4062 2.7695 2.2656h0.50391l45.723-9.4961c3.1484 1.4609 13.703 5.0391 27.281-3.8789h-0.003906c7.1367-5.0195 13.969-10.465 20.457-16.297 8.5391-7.3555 16.602-14.281 22.293-16.602l10.352-4.207h0.83203c2.8203 3.4766 12.594 14.234 23.906 14.234v-0.003906c1.7773 0.007812 3.543-0.25781 5.2383-0.78125 14.965-4.6094 18.137-9.4219 19.27-17.836l0.003906 0.003907c0.17188-1.3789 0.24609-2.7695 0.22656-4.1562 7.5586-8.8672 10.906-16.652 9.8008-23.227h-0.003906c3.8984-4.1367 6.5977-9.2578 7.8086-14.812 0.67969-5.918-0.41016-11.902-3.1211-17.203l2.9219 2.0664v-0.003907c4.4805 3.3711 9.2422 6.3555 14.23 8.918 8.3906 3.9805 13.805 2.3203 16.879 0.22656zm41.84-186.26c1.1719-1.1797 3.0156-1.3594 4.3906-0.42969 1.375 0.93359 1.8906 2.7109 1.2305 4.2344l-88.168 132.25c-2.1914-1.0586-4.332-2.0391-6.375-2.8477z" fill="#00bac2"/>
 </g>
 <g clip-path="url(#g)">
  <path d="m99.09 105.96 2.5195-2.5195v84.793c0 0.66797 0.26562 1.3086 0.73438 1.7812 0.47266 0.47266 1.1133 0.73828 1.7812 0.73828h85.07l-2.5195 2.5195c-0.53125 0.45703-0.85156 1.1133-0.87891 1.8164-0.027344 0.69922 0.24219 1.3789 0.73828 1.875 0.49609 0.5 1.1758 0.76562 1.875 0.73828 0.70312-0.027343 1.3594-0.34766 1.8164-0.87891l6.9023-6.9023c0.97656-0.98438 0.97656-2.5703 0-3.5508l-6.9023-6.9023c-1-0.85547-2.4883-0.80078-3.418 0.13281-0.92969 0.92969-0.98828 2.418-0.13281 3.418l2.5195 2.5195h-82.473v-14.688l26.422-33.25c2.5039 0.83594 5.2656 0.070312 6.9805-1.9414l19.121 8.3633h-0.003906c0.21875 3.5508 3.1602 6.3164 6.7148 6.3164 3.5547 0 6.4961-2.7656 6.7148-6.3164-0.011719-1.1211-0.30469-2.2227-0.85938-3.1992l17.383-29.32 2.8477 12.27c0.27344 1.1602 1.3242 1.9688 2.5195 1.9375h0.57812c0.65234-0.14844 1.2148-0.55078 1.5703-1.1211 0.35547-0.56641 0.46875-1.25 0.32031-1.9023l-4.2852-18.137c-0.046875-0.81641-0.48828-1.5586-1.1836-1.9883-0.42969-0.20703-0.91016-0.28516-1.3867-0.22656-0.18359-0.023438-0.36719-0.023438-0.55078 0l-18.465 4.2812c-1.3594 0.3125-2.2031 1.668-1.8906 3.0234s1.668 2.2031 3.0234 1.8867l12.82-2.9727-17.281 29.047c-2.3633-0.75781-4.9531-0.10547-6.6758 1.6875l-19.348-8.4648h0.003906c-0.085938-3.6992-3.1523-6.6328-6.8516-6.5469-3.7031 0.082031-6.6328 3.1484-6.5508 6.8516 0.003906 1.0977 0.28125 2.1797 0.80469 3.1484l-22.492 28.516v-59.426l2.5195 2.5195c0.98047 1 2.5859 1.0195 3.5898 0.039063 1-0.98438 1.0156-2.5898 0.035157-3.5898l-6.9023-6.8281c-0.47266-0.49219-1.1289-0.76953-1.8125-0.76953s-1.3398 0.27734-1.8125 0.76953l-6.8281 6.8281c-0.48047 0.47266-0.75391 1.1172-0.75781 1.793-0.003906 0.67578 0.25781 1.3281 0.73438 1.8086 0.98438 1 2.5977 1.0117 3.6016 0.023438zm66.879 36.426c0.68359 0 1.3008 0.41016 1.5586 1.043 0.26172 0.62891 0.11719 1.3555-0.36328 1.8398-0.48437 0.48047-1.2109 0.625-1.8398 0.36328-0.63281-0.25781-1.043-0.875-1.043-1.5586 0-0.44531 0.17969-0.875 0.49609-1.1914 0.31641-0.31641 0.74609-0.49609 1.1914-0.49609zm-30.883-12.871c0.68359 0 1.2969 0.41016 1.5586 1.043 0.26172 0.62891 0.11719 1.3555-0.36328 1.8359-0.48438 0.48437-1.2109 0.62891-1.8398 0.36719-0.63281-0.26172-1.043-0.875-1.043-1.5586 0-0.93359 0.75391-1.6875 1.6875-1.6875z" fill="#00bac2"/>
 </g>
 <g clip-path="url(#f)">
  <path d="m415.71 315.88c-2.9727-2.9727-11.262-1.1328-17.938 1.0586h0.003907c-0.20313 0.035156-0.39844 0.10547-0.58203 0.19922-2.5195 0.80469-4.5586 1.6367-6.1211 2.2656v0.003906c-11.996 4.6562-22.992 11.562-32.395 20.352l-1.3594 1.4102c-9.8242-1.5117-14.258 0-27.156 12.848-3.4375 3.3828-6.2617 7.3359-8.3359 11.688-0.32031 0.74609-0.26172 1.6016 0.16016 2.2969 0.41797 0.69141 1.1445 1.1406 1.9531 1.207l15.719 1.3359c-0.45312 1.7812-0.74609 3.6016-0.87891 5.4414-0.046875 0.71875 0.21875 1.4258 0.73047 1.9375l5.3164 5.3164-2.0664 2.0664c-0.53516 0.45312-0.85156 1.1133-0.87891 1.8125-0.027344 0.70312 0.23828 1.3828 0.73438 1.8789 0.49609 0.49609 1.1758 0.76562 1.8789 0.73828 0.70312-0.027344 1.3594-0.34766 1.8164-0.87891l2.0664-2.0664 5.3164 5.3164h-0.003906c0.47656 0.46875 1.1211 0.73438 1.7891 0.73047h0.15234c1.8359-0.13281 3.6562-0.42969 5.4414-0.88281l1.3359 15.719c0.0625 0.80859 0.51172 1.5352 1.207 1.957 0.69531 0.41797 1.5469 0.47656 2.293 0.16016 4.3516-2.0781 8.3086-4.8984 11.688-8.3398 12.898-12.898 14.332-17.305 12.848-27.156l1.4102-1.3594c8.7344-9.4336 15.574-20.457 20.152-32.469 0.60547-1.5352 1.4102-3.6016 2.1914-5.8945 0.125-0.23828 0.21094-0.49219 0.25391-0.75781 2.293-6.6992 4.1562-15.012 1.2578-17.934zm-3.5273 3.6016c0.26562 2.6289-0.042969 5.2852-0.90625 7.7852-0.95703-1.1328-2.0664-2.3438-3.2734-3.5508-1.2109-1.2109-2.5195-2.5195-3.6289-3.375v-0.003906c2.5039-0.875 5.1758-1.168 7.8086-0.85547zm-84.035 45.016c1.6133-2.4961 3.4766-4.8164 5.5703-6.9297 10.078-10.078 13.805-12.219 19.496-11.84v0.003907c-5.0742 5.9102-9.1406 12.617-12.043 19.848zm45.898 33.379c-2.1094 2.0898-4.4297 3.9531-6.9258 5.5664l-1.1094-13.023c7.2305-2.8984 13.938-6.9688 19.848-12.043 0.37891 5.6953-1.6602 9.3203-11.836 19.5zm14.234-28.516c-10.379 10.379-22.445 17.305-31.84 18.34l-4.4844-4.4844 22.797-22.797v-0.003907c0.85547-1 0.79688-2.4883-0.13281-3.418-0.92969-0.92969-2.4219-0.98828-3.4219-0.13281l-22.797 22.797-4.4844-4.4844c1.0312-9.3945 7.9609-21.488 18.34-31.84 10.379-10.352 24.988-17.406 35.996-21.184 2.2305 1.4336 4.2852 3.125 6.1211 5.0352 1.9023 1.8047 3.5898 3.8164 5.0391 5.9961-3.8047 11.133-11.16 26.098-21.133 36.176z" fill="#00bac2"/>
 </g>
 <g clip-path="url(#e)">
  <path d="m338.75 392.84c-0.98047-0.97656-2.5664-0.97656-3.5508 0l-20.152 20.152c-0.53125 0.45703-0.85156 1.1133-0.87891 1.8164-0.027344 0.69922 0.23828 1.3828 0.73438 1.8789s1.1797 0.76172 1.8789 0.73438c0.70312-0.027344 1.3594-0.34375 1.8164-0.87891l20.152-20.152c0.97656-0.98047 0.97656-2.5703 0-3.5508z" fill="#00bac2"/>
 </g>
 <path d="m320.89 395.78c0.66797 0.003906 1.3125-0.25781 1.7891-0.73047l11.285-11.285c0.85547-1 0.79688-2.4883-0.13281-3.418-0.92969-0.92969-2.418-0.98828-3.418-0.13281l-11.438 11.285c-0.72656 0.71875-0.94531 1.8086-0.55078 2.7539 0.39062 0.94531 1.3164 1.5586 2.3398 1.5547z" fill="#00bac2"/>
 <path d="m347.82 397.64-11.211 11.289c-0.53125 0.45312-0.85156 1.1133-0.87891 1.8125-0.027344 0.70312 0.24219 1.3828 0.73828 1.8789s1.1758 0.76562 1.875 0.73828c0.70312-0.027343 1.3633-0.34766 1.8164-0.87891l11.285-11.285c0.85938-1 0.80078-2.4922-0.12891-3.4219-0.93359-0.92969-2.4219-0.98828-3.4219-0.13281z" fill="#00bac2"/>
 <path d="m387.77 331.95c-4.7891 0-9.1094 2.8867-10.941 7.3086-1.832 4.4258-0.81641 9.5156 2.5664 12.902 3.3867 3.3867 8.4805 4.3984 12.902 2.5664 4.4258-1.832 7.3086-6.1484 7.3086-10.938-0.011719-6.5312-5.3047-11.824-11.836-11.84zm0 18.641c-2.7539 0-5.2344-1.6562-6.2852-4.1992-1.0547-2.5391-0.47266-5.4648 1.4727-7.4102 1.9453-1.9453 4.8711-2.5273 7.4141-1.4766 2.5391 1.0547 4.1992 3.5352 4.1992 6.2852 0.003906 1.8086-0.70703 3.543-1.9844 4.8242s-3.0117 2.0039-4.8164 2.0039z" fill="#00bac2"/>
 <g clip-path="url(#d)">
  <path d="m207.84 107.5c8.082-2.6211 16.363-4.582 24.762-5.8711 39.672-6.1484 80.18 3.2852 113.05 26.324 0.54688 0.42188 1.2422 0.60547 1.9258 0.5s1.293-0.48438 1.6875-1.0547c0.39453-0.56641 0.53906-1.2695 0.39844-1.9453-0.14062-0.67578-0.55078-1.2656-1.1406-1.6328-33.938-23.773-75.758-33.504-116.71-27.152-8.6602 1.3242-17.203 3.3438-25.543 6.043-0.65625 0.1875-1.2109 0.63672-1.5312 1.2422-0.32031 0.60156-0.38281 1.3125-0.17188 1.9648 0.21094 0.64844 0.67969 1.1836 1.2969 1.4844 0.61719 0.29688 1.3281 0.33203 1.9688 0.097656z" fill="#00bac2"/>
 </g>
 <g clip-path="url(#c)">
  <path d="m372.79 148.18c-1.0352 0.92578-1.125 2.5156-0.20312 3.5547 20.27 22.582 33.492 50.602 38.039 80.609 0.73047 4.8125 1.2578 9.7227 1.5625 14.609h-0.003906c0.082031 1.332 1.1875 2.3711 2.5195 2.3672h0.15234c0.66797-0.039063 1.293-0.34375 1.7383-0.84375 0.44531-0.5 0.67188-1.1562 0.62891-1.8242-0.30078-5.0391-0.83203-10.078-1.6133-15.113v-0.003907c-4.707-30.945-18.355-59.84-39.27-83.129-0.91797-1.0391-2.5078-1.1406-3.5508-0.22656z" fill="#00bac2"/>
 </g>
 <g clip-path="url(#b)">
  <path d="m414.7 265.55c-1.3828-0.10156-2.5859 0.93359-2.6953 2.3164-0.30078 3.8281-0.73047 7.707-1.3086 11.539-0.10156 0.66016 0.066407 1.3359 0.46094 1.875 0.39844 0.53906 0.99219 0.89844 1.6562 0.99609h0.37891-0.003906c1.2578 0.015624 2.332-0.89844 2.5195-2.1406 0.60547-3.9531 1.0586-7.9609 1.3594-11.914 0.042969-0.66797-0.18359-1.3281-0.62891-1.8281-0.44141-0.5-1.0703-0.80469-1.7383-0.84375z" fill="#00bac2"/>
 </g>
 <g clip-path="url(#a)">
  <path d="m301.04 405.61c-6.918 2.0586-13.973 3.6406-21.109 4.7383-30.387 4.7344-61.5 0.34766-89.398-12.598-0.61328-0.33594-1.3359-0.40234-2-0.18359-0.66016 0.21484-1.2031 0.69922-1.5 1.332-0.29297 0.63281-0.30859 1.3594-0.046875 2.0078 0.26172 0.64453 0.77734 1.1523 1.4297 1.4023 21.172 9.8398 44.238 14.93 67.586 14.914 15.723-0.007812 31.359-2.2891 46.426-6.7773 1.3359-0.39453 2.0977-1.8008 1.6992-3.1328-0.39453-1.3359-1.8008-2.0977-3.1328-1.7031z" fill="#00bac2"/>
 </g>
 <path d="m95.008 254.84c-0.11719 22.027 4.2344 43.844 12.797 64.137 0.60156 1.1992 2.0352 1.7148 3.2617 1.1797 1.2266-0.53906 1.8203-1.9414 1.3477-3.1953-8.2773-19.648-12.488-40.773-12.367-62.094 0-0.66797-0.26562-1.3086-0.73828-1.7812-0.47266-0.47266-1.1133-0.73828-1.7812-0.73828-1.3828 0-2.5039 1.1133-2.5195 2.4922z" fill="#00bac2"/>
 <path d="m99.316 234.61c1.2539 0.015625 2.3281-0.89844 2.5195-2.1406 0.62891-4.1055 1.4102-8.2383 2.3672-12.27 0.32031-1.3555-0.51953-2.7148-1.8789-3.0352-1.3555-0.32031-2.7148 0.51953-3.0352 1.8789-0.98437 4.1797-1.8125 8.4375-2.5195 12.594-0.097656 0.66016 0.066407 1.3359 0.46484 1.875 0.39453 0.53906 0.99219 0.89844 1.6523 0.99609z" fill="#00bac2"/>
 <path d="m286.68 142.29c-1.3125-4.2695-2.3086-8.6289-2.9727-13.047 0-1.3906-1.1289-2.5195-2.5195-2.5195s-2.5195 1.1289-2.5195 2.5195c-0.69141 4.3984-1.6914 8.7422-2.9961 12.996-3.4844 1.2461-7.0547 2.2227-10.684 2.9258-1.3906 0-2.5195 1.125-2.5195 2.5156 0 1.3945 1.1289 2.5195 2.5195 2.5195 3.6328 0.71875 7.2109 1.6875 10.707 2.8984 1.3086 4.2383 2.3008 8.5625 2.9727 12.949 0 1.3906 1.1289 2.5156 2.5195 2.5156s2.5195-1.125 2.5195-2.5156c0.6875-4.3984 1.6914-8.7422 2.9961-13 3.4922-1.2188 7.0703-2.1719 10.707-2.8477 1.3906 0 2.5195-1.125 2.5195-2.5195 0-1.3906-1.1289-2.5156-2.5195-2.5156-3.6406-0.71094-7.2266-1.668-10.73-2.875zm-3.6523 7.1797c-0.30078 0.30078-0.90625 0.90625-1.8398 4.1328-0.93359-3.2227-1.5352-3.8281-1.8398-4.1328-1.1211-0.83594-2.3984-1.4414-3.7539-1.7891 1.3594-0.35938 2.6367-0.98438 3.7539-1.8359 0.30078-0.30078 0.90625-0.90625 1.8398-4.1328 0.93359 3.2227 1.5352 3.8281 1.8398 4.1328 1.1172 0.85156 2.3906 1.4766 3.75 1.8359-1.3555 0.34766-2.6289 0.95312-3.75 1.7891z" fill="#00bac2"/>
 <path d="m365.93 262.4c-0.90234-3.8125-1.5977-7.6719-2.0898-11.562 0-1.3906-1.125-2.5195-2.5195-2.5195-1.3906 0-2.5195 1.1289-2.5195 2.5195-0.48828 3.8906-1.1875 7.75-2.0898 11.562-2.4258 0.81641-4.8984 1.4805-7.4062 1.9922-1.3906 0-2.5195 1.125-2.5195 2.5156 0 1.3945 1.1289 2.5195 2.5195 2.5195 2.5078 0.50391 4.9805 1.1602 7.4062 1.9648 0.90234 3.8164 1.6016 7.6758 2.0898 11.562 0 1.3906 1.1289 2.5195 2.5195 2.5195 1.3945 0 2.5195-1.1289 2.5195-2.5195 0.49219-3.8867 1.1875-7.7461 2.0898-11.562 2.4297-0.80469 4.9023-1.4609 7.4062-1.9648 1.3945 0 2.5195-1.125 2.5195-2.5195 0-1.3906-1.125-2.5156-2.5195-2.5156-2.5078-0.51172-4.9805-1.1758-7.4062-1.9922zm-3.7266 5.3164c-0.41016 0.42188-0.70312 0.94141-0.85547 1.5117-0.15625-0.57031-0.44922-1.0898-0.85547-1.5117-0.38672-0.37109-0.83984-0.66406-1.3359-0.85938 0.50391-0.19141 0.96875-0.48047 1.3594-0.85547 0.40625-0.42188 0.70312-0.94141 0.85547-1.5117 0.15234 0.57031 0.44922 1.0898 0.85938 1.5117 0.38672 0.38281 0.84766 0.68359 1.3594 0.88281-0.51562 0.17969-0.98438 0.46484-1.3867 0.83203z" fill="#00bac2"/>
 <path d="m233.15 231.89c-0.30078-1.0312-0.73047-3.0469-1.0078-4.7344v-0.003906c0-1.3906-1.1289-2.5195-2.5195-2.5195s-2.5195 1.1289-2.5195 2.5195c-0.27734 1.6367-0.73047 3.7031-1.0078 4.7344-0.83203 0.27734-2.3438 0.65625-3.7773 0.95703v0.003906c-1.3906 0-2.5195 1.125-2.5195 2.5195 0 1.3906 1.1289 2.5156 2.5195 2.5156 1.2852 0.27734 2.8984 0.67969 3.7773 0.95703 0.30078 1.0312 0.73047 3.0469 1.0078 4.7344v0.003906c0 1.3906 1.1289 2.5195 2.5195 2.5195s2.5195-1.1289 2.5195-2.5195c0.30078-1.6641 0.73047-3.7031 1.0078-4.7344 0.83203-0.27734 2.3438-0.65625 3.7773-0.95703v-0.003906c1.3945 0 2.5195-1.125 2.5195-2.5156 0-1.3945-1.125-2.5195-2.5195-2.5195-1.2852-0.27734-2.8945-0.67969-3.7773-0.95703z" fill="#00bac2"/>
</svg>
