<?xml version="1.0" encoding="UTF-8"?>
<svg width="512pt" height="512pt" version="1.1" viewBox="0 0 512 512" xmlns="http://www.w3.org/2000/svg">
 <defs>
  <clipPath id="a">
   <path d="m94.781 119h322.44v274h-322.44z"/>
  </clipPath>
 </defs>
 <rect width="512" height="512"/>
 <g clip-path="url(#a)">
  <path d="m159.15 315.05h67.355v9.9766l-67.355-0.003907zm82.531-15.184h-97.711v52.559h10.078l2.3477-12.219h72.859l2.3477 12.219h10.078zm11.059-30.348 34.203 41.641-33.754 33 8.2656 8.2656 36.617-37.461 36.934 37.461 8.2617-8.2656-37.332-37.195 3.9609-4.0898 3.0508 3.043h10.75l24.93-27.285-5.0742-5.0742-20.012 20.012-2.7969-2.8047 19.605-20.422-5.0742-5.0742-20.418 19.59-2.8047-2.793 20.012-20.012-5.0742-5.082-27.285 24.93v10.75l3.0508 3.0508-4.0703 3.9922-38.062-38.062zm105.14-52.684v-56.129h20.547v13.051l38.789-22.398-38.789-22.391v13.051l-264.96 0.003906v-22.598h-18.684v63.867h18.684v-22.598h21.254v56.129l-19.953 0.003907v175.75h263.08v-175.74zm-24.039 0c-19.875-25.871-55.977-37.191-87.543-37.191-31.566 0-67.66 11.316-87.535 37.191h-8.7969v-56.129h192.66v56.129zm-87.543-18.508c31.32 0 60.141 10.164 77.734 37.191h35.125v138.38h-225.71v-138.39h35.121c17.617-27.031 46.383-37.188 77.73-37.188zm-77.902 78.344c17.734-6.0625 31.102-5.8477 48.867-0.03125v15.246h15.418v-27.879c-27.922-9.1641-51.828-9.5195-79.707 0.03125v27.848h15.418z" fill="#00bac2" fill-rule="evenodd"/>
 </g>
</svg>
