<?xml version="1.0" encoding="UTF-8"?>
<svg width="512pt" height="512pt" version="1.1" viewBox="0 0 512 512" xmlns="http://www.w3.org/2000/svg">
 <defs>
  <clipPath id="a">
   <path d="m94.781 115h322.44v282h-322.44z"/>
  </clipPath>
 </defs>
 <rect width="512" height="512"/>
 <g clip-path="url(#a)">
  <path d="m416.54 388.73-76.656-132.73c-0.83984-1.5625-1.7305-3.0977-2.6719-4.6094l-76.852-133.16c-0.90234-1.5547-2.5625-2.5117-4.3594-2.5117s-3.457 0.95703-4.3594 2.5117l-76.855 133.08c-0.92188 1.4414-1.8125 3.0039-2.668 4.6836l-76.656 132.73c-0.89844 1.5547-0.89844 3.4766 0 5.0352 0.89844 1.5586 2.5586 2.5195 4.3594 2.5195h312.36c1.8008 0 3.4609-0.96094 4.3594-2.5195 0.89844-1.5586 0.89844-3.4805 0-5.0352zm-85.496-127.92c5.9844 11.059 9.4258 23.312 10.074 35.871l-2.6719-0.57812h0.003907c-1.3164-0.3125-2.7031-0.078125-3.8477 0.64453-1.1445 0.72266-1.9492 1.875-2.2344 3.1992-0.28516 1.3242-0.023438 2.707 0.72266 3.8359s1.9141 1.9102 3.2422 2.168l4.6602 1.0078c-0.95703 13.938-5.3555 27.422-12.797 39.246l-9.2188-4.207v-12.469c0.027344-2.5195-1.8125-4.6719-4.3086-5.0391l-12.594-1.8906v0.003907c-2.7812-0.41016-5.3711 1.5117-5.7812 4.293-0.41016 2.7812 1.5117 5.3711 4.293 5.7812l8.3867 1.2578v11.336h0.003906c-0.003906 1.9688 1.1367 3.7617 2.9219 4.5859l10.352 4.7852c-11.207 13.797-26.441 23.746-43.578 28.469l4.6367-10.078c0.60156-1.3086 0.61719-2.8125 0.039062-4.1289-0.57812-1.3203-1.6953-2.3281-3.0625-2.7734l-7.0039-2.2422 4.082-11.234c0.67969-1.2852 0.76953-2.8008 0.25-4.1562-0.51953-1.3594-1.6016-2.4258-2.9648-2.9258-1.3633-0.50391-2.875-0.39453-4.1523 0.30469-1.2773 0.69531-2.1875 1.9062-2.5039 3.3242l-5.8711 16.148c-0.46875 1.2852-0.39844 2.707 0.19922 3.9375 0.60156 1.2305 1.6719 2.1641 2.9766 2.5859l6.5508 2.1172-4.207 9.1172-0.003906 0.003906c-0.32422 0.72656-0.46875 1.5195-0.42578 2.3164-11.816 1.6094-23.836 0.6875-35.266-2.6953l3.9023-4.7617c1.6836-2.2266 1.2422-5.3945-0.98047-7.0781-2.2266-1.6836-5.3984-1.2422-7.082 0.98047l-5.7422 7.3555c-9.4766-4.1406-18.121-9.9727-25.516-17.203l5.5156-9.6211 16.902-4.7344v-0.003906c2.1797-0.60938 3.6836-2.5977 3.6758-4.8594v-15.117c0-2.7812-2.2539-5.0352-5.0352-5.0352-2.7852 0-5.0391 2.2539-5.0391 5.0352v11.262l-15.113 4.2578c-1.2773 0.35156-2.3633 1.1953-3.0234 2.3398l-4.8867 8.5664c-9.7109-12.133-15.898-26.703-17.887-42.117l5.5156-5.0391 5.5664 2.5195h0.003906c2.543 1.125 5.5234-0.023438 6.6484-2.5703 1.1289-2.5469-0.023438-5.5234-2.5703-6.6484l-8.5391-3.7773v-0.003906c-1.8164-0.80859-3.9375-0.47266-5.4141 0.85547l-1.8398 1.6641c0.30078-13.336 3.7539-26.414 10.074-38.164l2.5195-4.332c15.48-25.227 42.953-40.602 72.551-40.602s57.066 15.375 72.547 40.602zm-75.043-129.98 52.371 90.688c-15.539-10.277-33.754-15.754-52.383-15.754-18.629 0-36.848 5.4766-52.383 15.754zm-95.07 164.67c0 1.8398-0.17578 3.6797-0.17578 5.543v-0.003907c-0.015625 24.016 9.0781 47.141 25.445 64.715 0.23828 0.32812 0.51953 0.625 0.82812 0.88281 7.6055 7.9961 16.539 14.621 26.402 19.574h-104.89zm137.64 90.688v-0.003906c14.059-7.0312 26.168-17.414 35.27-30.227 0 0 0.15234-0.20312 0.22656-0.30078v-0.003906c11.273-15.984 17.32-35.074 17.305-54.637 0-1.8633 0-3.7031-0.17578-5.543l52.371 90.688z" fill="#00bac2"/>
 </g>
 <path d="m256 229.32c-12.602 0-24.684 5.0039-33.594 13.914-8.9102 8.9102-13.914 20.996-13.914 33.594 0 12.602 5.0039 24.684 13.914 33.594 8.9102 8.9102 20.992 13.918 33.594 13.918s24.684-5.0078 33.594-13.918c8.9102-8.9102 13.914-20.992 13.914-33.594-0.011718-12.594-5.0195-24.672-13.93-33.578-8.9062-8.9062-20.98-13.918-33.578-13.93zm0 84.941c-9.9258 0-19.449-3.9453-26.469-10.965s-10.965-16.539-10.965-26.469c0-9.9258 3.9453-19.449 10.965-26.469s16.543-10.965 26.469-10.965c9.9297 0 19.449 3.9453 26.469 10.965s10.965 16.543 10.965 26.469c-0.011719 9.9258-3.9609 19.438-10.98 26.457-7.0156 7.0156-16.527 10.965-26.453 10.977z" fill="#00bac2"/>
 <path d="m256 261.04c-4.207 0-8.2461 1.6719-11.223 4.6484-2.9766 2.9766-4.6484 7.0117-4.6484 11.223 0 4.207 1.6719 8.2422 4.6484 11.219 2.9766 2.9766 7.0156 4.6484 11.223 4.6484 4.2109 0 8.2461-1.6719 11.223-4.6484 2.9766-2.9766 4.6484-7.0117 4.6484-11.219-0.007813-4.207-1.6797-8.2422-4.6562-11.215-2.9766-2.9766-7.0078-4.6484-11.215-4.6562zm0 21.664c-2.3438 0-4.457-1.4141-5.3516-3.5781-0.89844-2.1641-0.40234-4.6562 1.2539-6.3125s4.1484-2.1523 6.3164-1.2578c2.1641 0.89844 3.5742 3.0117 3.5742 5.3555-0.039063 3.168-2.6211 5.7148-5.793 5.7148z" fill="#00bac2"/>
</svg>
