<?xml version="1.0" encoding="UTF-8"?>
<svg width="512pt" height="512pt" version="1.1" viewBox="0 0 512 512" xmlns="http://www.w3.org/2000/svg">
 <g>
  <rect width="512" height="512"/>
  <path d="m246.55 259.7c1.1133-0.28516 1.8867-1.2891 1.8867-2.4375v-1.2617c0-0.95312-0.53906-1.8242-1.3906-2.2539l-18.199-9.0977 9.3867-28.156c0.25391-0.76953 0.125-1.6133-0.34766-2.2695s-1.2344-1.0469-2.043-1.0469c-21.984 0-43.078 8.7109-58.656 24.227-15.578 15.512-24.379 36.566-24.469 58.555-0.09375 21.984 8.5273 43.113 23.977 58.758 15.449 15.645 36.465 24.531 58.449 24.715 21.988 0.1875 43.148-8.3477 58.859-23.727 15.711-15.383 24.688-36.363 24.965-58.348l19.418-19.422c0.71875-0.71875 0.9375-1.8047 0.54688-2.7461s-1.3086-1.5547-2.3281-1.5547h-20.152c-0.66797 0-1.3086 0.26563-1.7812 0.73828l-8.293 8.2969-8.2969-8.2969c-0.47266-0.47266-1.1133-0.73828-1.7812-0.73828h-20.152c-1.0195 0-1.9375 0.61328-2.3281 1.5547-0.38672 0.94141-0.17188 2.0273 0.54688 2.7461l19.398 19.402c-0.25781 9.4062-4.0234 18.379-10.551 25.156-6.5273 6.7812-15.348 10.879-24.738 11.5-9.3906 0.61719-18.672-2.293-26.031-8.1602-7.3594-5.8633-12.266-14.266-13.758-23.555-1.4922-9.293 0.53906-18.809 5.6914-26.684 5.1523-7.8711 13.059-13.539 22.172-15.895zm-33.379 36.605c0 15.301 8.1641 29.438 21.414 37.086 13.25 7.6523 29.574 7.6523 42.824 0 13.246-7.6484 21.41-21.785 21.41-37.086 0-0.66797-0.26562-1.3086-0.73828-1.7812l-15.852-15.852h13.027l9.3398 9.3398c0.47266 0.46875 1.1133 0.73438 1.7812 0.73438 0.66797 0 1.3086-0.26562 1.7812-0.73438l9.3359-9.3398h13.027l-15.852 15.852c-0.47266 0.47266-0.73828 1.1133-0.73828 1.7812 0 20.508-8.0664 40.191-22.457 54.801s-33.953 22.973-54.457 23.281c-20.508 0.30859-40.309-7.4609-55.133-21.633s-23.48-33.602-24.098-54.102c-0.61719-20.496 6.8555-40.414 20.801-55.453 13.945-15.035 33.246-23.98 53.73-24.906l-8.9453 26.836c-0.39453 1.1875 0.14453 2.4883 1.2656 3.0469l16.148 8.0742c-8.125 3.0898-15.113 8.5742-20.047 15.727-4.9336 7.1523-7.5742 15.641-7.5703 24.328z" fill="#00bac2"/>
  <path d="m195.54 268.59c5.0938 0 9.6875-3.0664 11.637-7.7734 1.9492-4.707 0.87109-10.125-2.7305-13.727-3.6016-3.6016-9.0195-4.6797-13.727-2.7305-4.707 1.9492-7.7734 6.543-7.7734 11.637 0.007812 6.9531 5.6406 12.59 12.594 12.594zm0-20.152c3.0586 0 5.8125 1.8438 6.9805 4.668 1.1719 2.8242 0.52344 6.0742-1.6367 8.2344-2.1602 2.1602-5.4102 2.8086-8.2344 1.6367-2.8242-1.168-4.668-3.9219-4.668-6.9805 0.007813-4.1719 3.3867-7.5508 7.5586-7.5586z" fill="#00bac2"/>
  <path d="m225.39 358.42c3.4531 0.57422 6.9492 0.86328 10.453 0.86328 1.3906 0 2.5195-1.1289 2.5195-2.5195s-1.1289-2.5195-2.5195-2.5195c-3.2227 0-6.4414-0.26563-9.6172-0.79297-0.66016-0.12109-1.3438 0.03125-1.8906 0.42188-0.54297 0.39062-0.91016 0.98438-1.0117 1.6445-0.23047 1.375 0.69531 2.6719 2.0664 2.9023z" fill="#00bac2"/>
  <path d="m181.29 315.84c-0.46875-1.3086-1.9102-1.9922-3.2188-1.5234-1.3086 0.46875-1.9922 1.9141-1.5234 3.2227 2.5078 7.0039 6.2383 13.504 11.027 19.199 0.89062 1.0664 2.4805 1.2031 3.5469 0.30859 1.0625-0.89062 1.2031-2.4805 0.30859-3.5469-4.3984-5.2383-7.832-11.219-10.141-17.66z" fill="#00bac2"/>
  <path d="m195.11 341.05c-0.42969 0.51172-0.63672 1.1719-0.57812 1.8359 0.058594 0.66797 0.37891 1.2812 0.89062 1.7109 5.6953 4.7891 12.199 8.5195 19.207 11.023 0.26953 0.097656 0.55859 0.14453 0.84766 0.14453 1.2227 0 2.2695-0.87891 2.4805-2.0859 0.20703-1.207-0.48047-2.3906-1.6367-2.8047-6.4414-2.3008-12.422-5.7344-17.66-10.137-1.0703-0.89062-2.6562-0.75391-3.5508 0.3125z" fill="#00bac2"/>
  <path d="m178.71 305.93c-0.53125-3.1797-0.79688-6.3984-0.79688-9.625 0-1.3906-1.1289-2.5195-2.5195-2.5195s-2.5195 1.1289-2.5195 2.5195c0 3.5039 0.28906 7 0.86719 10.457 0.20312 1.2109 1.25 2.0977 2.4805 2.1016 0.14062 0 0.27734-0.011719 0.41797-0.035156 0.66016-0.10938 1.2461-0.47656 1.6367-1.0195 0.38672-0.54297 0.54297-1.2188 0.43359-1.8789z" fill="#00bac2"/>
  <path d="m296.3 147.68c4.6133-0.078126 8.9531-2.1914 11.859-5.7734 1.8984-2.6992 4.9922-4.3008 8.293-4.3008s6.3945 1.6016 8.2969 4.3008c2.8516 3.6445 7.2266 5.7734 11.855 5.7734s9.0039-2.1289 11.859-5.7734c1.8984-2.6992 4.9922-4.3008 8.293-4.3008s6.3945 1.6016 8.2969 4.3008c2.9023 3.582 7.2461 5.6953 11.855 5.7734 1.3906 0 2.5195-1.125 2.5195-2.5156 0-1.3945-1.1289-2.5195-2.5195-2.5195-3.2773-0.085937-6.3359-1.6719-8.293-4.3008-2.8555-3.6484-7.2305-5.7773-11.859-5.7773-4.6289 0-9.0039 2.1289-11.855 5.7773-1.9023 2.6953-4.9961 4.3008-8.2969 4.3008s-6.3945-1.6055-8.293-4.3008c-2.8555-3.6484-7.2305-5.7773-11.859-5.7773-4.6289 0-9.0039 2.1289-11.855 5.7773-1.9609 2.6289-5.0195 4.2148-8.2969 4.3008-2.9258-0.015625-5.6953-1.3281-7.5586-3.5898v-3.9688c0.003906-0.66797-0.26172-1.3086-0.73438-1.7812-0.47266-0.47266-1.1133-0.73828-1.7812-0.73828-1.25 0.007813-2.2969 0.94141-2.4531 2.1797-2.2695-1.4648-4.9219-2.2227-7.625-2.1797-4.6133 0.078125-8.9531 2.1914-11.855 5.7773-1.9023 2.6953-4.9961 4.3008-8.2969 4.3008s-6.3945-1.6055-8.2969-4.3008c-2.8516-3.6484-7.2266-5.7773-11.855-5.7773s-9.0039 2.1289-11.855 5.7773c-1.9023 2.6953-4.9961 4.3008-8.2969 4.3008-3.3008 0-6.3945-1.6055-8.2969-4.3008-2.8516-3.6484-7.2266-5.7773-11.855-5.7773-4.6289 0-9.0039 2.1289-11.855 5.7773-1.9023 2.6953-4.9961 4.3008-8.2969 4.3008s-6.3945-1.6055-8.2969-4.3008c-2.8516-3.6484-7.2266-5.7773-11.855-5.7773-4.6289 0-9.0039 2.1289-11.855 5.7773-1.9609 2.6289-5.0195 4.2148-8.2969 4.3008-1.3906 0-2.5195 1.125-2.5195 2.5195 0 1.3906 1.1289 2.5156 2.5195 2.5156 4.6133-0.078126 8.9531-2.1914 11.855-5.7734 1.9023-2.6992 4.9961-4.3008 8.2969-4.3008s6.3945 1.6016 8.2969 4.3008c2.8516 3.6445 7.2266 5.7734 11.855 5.7734s9.0039-2.1289 11.855-5.7734c1.9023-2.6992 4.9961-4.3008 8.2969-4.3008s6.3945 1.6016 8.2969 4.3008c2.8516 3.6445 7.2266 5.7734 11.855 5.7734 4.6289 0 9.0039-2.1289 11.859-5.7734 1.8984-2.6992 4.9922-4.3008 8.293-4.3008 3.3008 0 6.3945 1.6016 8.2969 4.3008 2.8516 3.6445 7.2266 5.7734 11.855 5.7734s9.0039-2.1289 11.859-5.7734c1.957-2.6328 5.0156-4.2188 8.293-4.3008 2.9258 0.011719 5.6992 1.3281 7.5586 3.5859v3.5859c-2.2578-1.4375-4.8828-2.1797-7.5586-2.1328-4.6133 0.078125-8.9531 2.1914-11.855 5.7734-1.9023 2.6992-4.9961 4.3008-8.2969 4.3008s-6.3945-1.6016-8.2969-4.3008c-2.8516-3.6445-7.2266-5.7734-11.855-5.7734s-9.0039 2.1289-11.855 5.7734c-1.9023 2.6992-4.9961 4.3008-8.2969 4.3008-3.3008 0-6.3945-1.6016-8.2969-4.3008-2.8516-3.6445-7.2266-5.7734-11.855-5.7734-4.6289 0-9.0039 2.1289-11.855 5.7734-1.9023 2.6992-4.9961 4.3008-8.2969 4.3008s-6.3945-1.6016-8.2969-4.3008c-2.8516-3.6445-7.2266-5.7734-11.855-5.7734-4.6289 0-9.0039 2.1289-11.855 5.7734-1.9609 2.6328-5.0195 4.2188-8.2969 4.3008-1.3906 0-2.5195 1.1289-2.5195 2.5195s1.1289 2.5195 2.5195 2.5195c4.6133-0.078124 8.9531-2.1914 11.855-5.7773 1.9023-2.6953 4.9961-4.3008 8.2969-4.3008s6.3945 1.6055 8.2969 4.3008c2.8516 3.6484 7.2266 5.7773 11.855 5.7773s9.0039-2.1289 11.855-5.7773c1.9023-2.6953 4.9961-4.3008 8.2969-4.3008s6.3945 1.6055 8.2969 4.3008c2.8516 3.6484 7.2266 5.7773 11.855 5.7773 4.6289 0 9.0039-2.1289 11.859-5.7773 1.8984-2.6953 4.9922-4.3008 8.293-4.3008 3.3008 0 6.3945 1.6055 8.2969 4.3008 2.8516 3.6484 7.2266 5.7773 11.855 5.7773s9.0039-2.1289 11.859-5.7773c1.957-2.6289 5.0156-4.2148 8.293-4.3008 2.9258 0.015624 5.6992 1.3281 7.5586 3.5898v3.582c-2.2578-1.4336-4.8828-2.1758-7.5586-2.1328-4.6133 0.078125-8.9531 2.1914-11.855 5.7773-1.9023 2.6953-4.9961 4.3008-8.2969 4.3008s-6.3945-1.6055-8.2969-4.3008c-2.8516-3.6484-7.2266-5.7773-11.855-5.7773s-9.0039 2.1289-11.855 5.7773c-1.9023 2.6953-4.9961 4.3008-8.2969 4.3008-3.3008 0-6.3945-1.6055-8.2969-4.3008-2.8516-3.6484-7.2266-5.7773-11.855-5.7773-4.6289 0-9.0039 2.1289-11.855 5.7773-1.9023 2.6953-4.9961 4.3008-8.2969 4.3008s-6.3945-1.6055-8.2969-4.3008c-2.8516-3.6484-7.2266-5.7773-11.855-5.7773-4.6289 0-9.0039 2.1289-11.855 5.7773-1.9609 2.6289-5.0195 4.2148-8.2969 4.3008-1.3906 0-2.5195 1.125-2.5195 2.5195 0 1.3906 1.1289 2.5156 2.5195 2.5156 4.6133-0.078125 8.9531-2.1914 11.855-5.7734 1.9023-2.6992 4.9961-4.3008 8.2969-4.3008s6.3945 1.6016 8.2969 4.3008c2.8516 3.6445 7.2266 5.7734 11.855 5.7734s9.0039-2.1289 11.855-5.7734c1.9023-2.6992 4.9961-4.3008 8.2969-4.3008s6.3945 1.6016 8.2969 4.3008c2.8516 3.6445 7.2266 5.7734 11.855 5.7734 4.6289 0 9.0039-2.1289 11.859-5.7734 1.8984-2.6992 4.9922-4.3008 8.293-4.3008 3.3008 0 6.3945 1.6016 8.2969 4.3008 2.8516 3.6445 7.2266 5.7734 11.855 5.7734s9.0039-2.1289 11.859-5.7734c1.957-2.6328 5.0156-4.2188 8.293-4.3008 2.9258 0.011719 5.6992 1.3281 7.5586 3.5859v11.781c-5.8672 1.1992-10.078 6.3555-10.078 12.344 0 5.9844 4.2109 11.141 10.078 12.34v7.8125c0 0.66797 0.26562 1.3086 0.73437 1.7812 0.47266 0.47266 1.1172 0.73828 1.7852 0.73438 4.5273 0.003906 8.8867 1.7461 12.164 4.875 3.2773 3.125 5.2266 7.3945 5.4453 11.922 0.21484 4.5234-1.3203 8.957-4.2852 12.383-2.9688 3.4258-7.1367 5.5781-11.648 6.0078-4.5078 0.43359-9.0117-0.88672-12.574-3.6875-3.5625-2.7969-5.9141-6.8633-6.5586-11.348h7.3789c3.3789 0.12891 6.6562-1.1562 9.0469-3.5469 2.3906-2.3906 3.6758-5.668 3.5469-9.0469 0.003906-1.3828-1.1172-2.5078-2.5039-2.5117h-0.011719c-1.3828 0.003906-2.5039 1.1172-2.5195 2.4961 0.10937 2.0391-0.64844 4.0273-2.0898 5.4727-1.4414 1.4453-3.4297 2.207-5.4688 2.1016h-7.5586v-5.0391h7.5586c1.3906 0 2.5195-1.1289 2.5195-2.5195 0-1.3906-1.1289-2.5195-2.5195-2.5195h-10.074c-0.66797 0-1.3125 0.26562-1.7852 0.73828-0.46875 0.47266-0.73438 1.1133-0.73438 1.7812v7.8242c-5.9414 1.043-10.227 6.2773-10.074 12.305l-0.003906 0.007812c0.003906 4.1758-3.375 7.5625-7.5508 7.5664-4.1719 0.003906-7.5586-3.375-7.5625-7.5508 0-1.3906-1.1289-2.5195-2.5195-2.5195s-2.5195 1.1289-2.5195 2.5195c0.007813 6.9453 5.6367 12.578 12.582 12.582 6.9492 0.007812 12.59-5.6133 12.609-12.559v-0.007813c-0.13281-3.375 2.0664-6.4023 5.3203-7.3125 0.71094 5.6484 3.5234 10.82 7.8828 14.484 4.3555 3.6641 9.9336 5.5508 15.621 5.2852 5.6875-0.26953 11.062-2.6719 15.059-6.7266 3.9922-4.0586 6.3086-9.4727 6.4883-15.164 0.17578-5.6914-1.8008-11.238-5.5312-15.539-3.7344-4.2969-8.9531-7.0273-14.613-7.6484v-5.4336c5.8672-1.1992 10.078-6.3555 10.078-12.34 0-5.9883-4.2109-11.145-10.078-12.344v-7.4258c2.2578 1.4375 4.8867 2.1797 7.5586 2.1328 4.6133-0.078125 8.9531-2.1914 11.859-5.7734 1.8984-2.6992 4.9922-4.3008 8.293-4.3008s6.3945 1.6016 8.2969 4.3008c2.8516 3.6445 7.2266 5.7734 11.855 5.7734s9.0039-2.1289 11.859-5.7734c1.8984-2.6992 4.9922-4.3008 8.293-4.3008s6.3945 1.6016 8.2969 4.3008c2.9023 3.582 7.2461 5.6953 11.855 5.7734 1.3906 0 2.5195-1.125 2.5195-2.5156 0-1.3945-1.1289-2.5195-2.5195-2.5195-3.2773-0.085937-6.3359-1.6719-8.293-4.3008-2.8555-3.6484-7.2305-5.7773-11.859-5.7773-4.6289 0-9.0039 2.1289-11.855 5.7773-1.9023 2.6953-4.9961 4.3008-8.2969 4.3008s-6.3945-1.6055-8.293-4.3008c-2.8555-3.6484-7.2305-5.7773-11.859-5.7773-4.6289 0-9.0039 2.1289-11.855 5.7773-1.9609 2.6289-5.0195 4.2148-8.2969 4.3008-2.9258-0.015625-5.6953-1.3281-7.5586-3.5898v-3.582c2.2578 1.4336 4.8867 2.1758 7.5586 2.1328 4.6133-0.078124 8.9531-2.1914 11.859-5.7773 1.8984-2.6953 4.9922-4.3008 8.293-4.3008s6.3945 1.6055 8.2969 4.3008c2.8516 3.6484 7.2266 5.7773 11.855 5.7773s9.0039-2.1289 11.859-5.7773c1.8984-2.6953 4.9922-4.3008 8.293-4.3008s6.3945 1.6055 8.2969 4.3008c2.9023 3.5859 7.2461 5.6992 11.855 5.7773 1.3906 0 2.5195-1.1289 2.5195-2.5195s-1.1289-2.5195-2.5195-2.5195c-3.2773-0.082031-6.3359-1.668-8.293-4.3008-2.8555-3.6445-7.2305-5.7734-11.859-5.7734-4.6289 0-9.0039 2.1289-11.855 5.7734-1.9023 2.6992-4.9961 4.3008-8.2969 4.3008s-6.3945-1.6016-8.293-4.3008c-2.8555-3.6445-7.2305-5.7734-11.859-5.7734-4.6289 0-9.0039 2.1289-11.855 5.7734-1.9609 2.6328-5.0195 4.2188-8.2969 4.3008-2.9258-0.011719-5.6953-1.3281-7.5586-3.5859v-3.5859c2.2578 1.4375 4.8867 2.1797 7.5586 2.1328zm-2.5195 37.789c-0.007812 3.1914-2.0273 6.0312-5.0391 7.0898-1.6211 0.62109-3.4141 0.62109-5.0352 0-3.0195-1.0508-5.0391-3.8945-5.0391-7.0898s2.0195-6.043 5.0391-7.0938c1.6211-0.62109 3.4141-0.62109 5.0352 0 3.0117 1.0586 5.0312 3.8984 5.0391 7.0938z" fill="#00bac2"/>
 </g>
</svg>
