<?xml version="1.0" encoding="UTF-8"?>
<svg width="512pt" height="512pt" version="1.1" viewBox="0 0 512 512" xmlns="http://www.w3.org/2000/svg">
 <defs>
  <clipPath id="a">
   <path d="m251 417h17v0.21875h-17z"/>
  </clipPath>
 </defs>
 <rect width="512" height="512"/>
 <g clip-path="url(#a)">
  <path d="m267.84 417.22v20.605 4.4336h-2.7695v-2.9727c-1.1484 2.1445-3.4141 3.4531-5.8438 3.375-2.1523-0.12109-4.1523-1.1289-5.5391-2.7773-1.3828-1.6523-2.0234-3.8008-1.7695-5.9375-0.28125-2.2383 0.375-4.4961 1.8164-6.2344 1.4414-1.7344 3.5391-2.8008 5.793-2.9336 2.0273-0.085938 3.9453 0.91016 5.0391 2.6172v-10.176zm-3.0742 15.113c0.050781-0.43359 0.050781-0.875 0-1.3086-0.47266-2.0938-2.3359-3.582-4.4844-3.5781-3.2227 0-5.0391 2.8203-5.0391 6.6016 0 3.7773 1.7148 6.2969 5.0391 6.2969 2.207-0.003906 4.1055-1.5625 4.5352-3.7266 0.058594-0.4375 0.058594-0.875 0-1.3125z" fill="#00bac2"/>
 </g>
 <path d="m322.45 318.27c-6.3008 0.26172-12.262-2.8555-15.637-8.1836-3.375-5.3242-3.6523-12.047-0.73047-17.633 2.9258-5.5859 8.6055-9.1875 14.906-9.4492 5.6211-0.49219 10.82-3.1914 14.457-7.5078 3.6133-4.1719 5.4258-9.6055 5.0391-15.113-0.70312-8.1562-4.6055-15.707-10.855-21-6.2461-5.293-14.332-7.9062-22.496-7.2617-11.371 0.94922-21.898 6.375-29.27 15.086-7.3672 8.7109-10.977 19.992-10.027 31.363 0.41016 4.918-1.2617 9.7773-4.6016 13.406-3.3398 3.6289-8.0508 5.6914-12.98 5.6875h-105.8c-6.3008 0-12.121-3.3594-15.27-8.8164-3.1523-5.4531-3.1523-12.176 0-17.633 3.1484-5.457 8.9688-8.8164 15.27-8.8164h88.82c2.7969-17.25 11.285-33.07 24.113-44.941 12.828-11.867 29.258-19.102 46.672-20.555 17.488-1.4336 34.828 4.125 48.223 15.457 13.395 11.336 21.742 27.52 23.219 45 1.2266 14.922-3.5156 29.723-13.188 41.152-9.6719 11.426-23.484 18.551-38.402 19.809zm-12.898-96.477c10.273 0.011719 20.168 3.8828 27.727 10.844 7.5547 6.957 12.223 16.5 13.082 26.738 0.75781 8.2344-1.8398 16.43-7.2031 22.723-5.3555 6.3633-13.023 10.336-21.312 11.035-2.0156 0.15234-3.8867 1.1055-5.1914 2.6523-1.3086 1.543-1.9414 3.543-1.7617 5.5586 0.375 4.1445 4.0117 7.2227 8.1641 6.9023 12.25-1.0391 23.594-6.8945 31.535-16.281 7.9414-9.3906 11.84-21.543 10.832-33.797-1.2305-14.809-8.2891-28.523-19.625-38.129-11.336-9.6094-26.02-14.324-40.832-13.109-15.848 1.3242-30.734 8.1367-42.094 19.266-11.359 11.129-18.477 25.879-20.125 41.695l-0.45312 4.4844h-97.992c-4.1719 0-7.5547 3.3828-7.5547 7.5547 0 4.1758 3.3828 7.5586 7.5547 7.5586h105.8c2.1055 0.011719 4.1211-0.86719 5.543-2.418 1.4453-1.5469 2.1758-3.6328 2.0156-5.7422-1.1719-14.074 3.3086-28.039 12.449-38.805 9.1406-10.766 22.191-17.449 36.27-18.582z" fill="#00bac2"/>
 <path d="m320.64 295c-8.0195 0-15.707-3.1875-21.375-8.8555-5.6719-5.668-8.8555-13.355-8.8555-21.375 0-8.0156 3.1836-15.703 8.8555-21.375 5.668-5.668 13.355-8.8516 21.375-8.8516 8.0156 0 15.703 3.1836 21.375 8.8516 5.668 5.6719 8.8516 13.359 8.8516 21.375 0 8.0195-3.1836 15.707-8.8516 21.375-5.6719 5.668-13.359 8.8555-21.375 8.8555zm0-50.383c-5.3477 0-10.473 2.125-14.25 5.9023-3.7812 3.7812-5.9023 8.9062-5.9023 14.25s2.1211 10.473 5.9023 14.25c3.7773 3.7812 8.9023 5.9023 14.25 5.9023 5.3438 0 10.469-2.1211 14.25-5.9023 3.7773-3.7773 5.9023-8.9062 5.9023-14.25s-2.125-10.469-5.9023-14.25c-3.7812-3.7773-8.9062-5.9023-14.25-5.9023z" fill="#00bac2"/>
 <path d="m214.84 269.8c-8.0195 0-15.707-3.1836-21.375-8.8555-5.668-5.668-8.8555-13.355-8.8555-21.375 0-8.0156 3.1875-15.703 8.8555-21.371 5.668-5.6719 13.355-8.8555 21.375-8.8555 8.0156 0 15.707 3.1836 21.375 8.8555 5.668 5.668 8.8516 13.355 8.8516 21.371 0 8.0195-3.1836 15.707-8.8516 21.375-5.668 5.6719-13.359 8.8555-21.375 8.8555zm0-50.383c-5.3438 0-10.473 2.125-14.25 5.9062-3.7812 3.7773-5.9023 8.9023-5.9023 14.246 0 5.3477 2.1211 10.473 5.9023 14.25 3.7773 3.7812 8.9062 5.9023 14.25 5.9023s10.469-2.1211 14.25-5.9023c3.7773-3.7773 5.9023-8.9023 5.9023-14.25 0-5.3438-2.125-10.469-5.9023-14.246-3.7812-3.7812-8.9062-5.9062-14.25-5.9062z" fill="#00bac2"/>
 <path d="m258.32 191.36c0.0625-0.28516 0.0625-0.57422 0-0.85938h-10.078 0.003907c0.19141-2.2188 1.1523-4.3047 2.7188-5.8945 2.2695-3.1445 3.2461-7.0391 2.7227-10.883 0.078125-2.082-0.5625-4.125-1.8164-5.793-2.1602-3.2695-3.2852-7.1133-3.2227-11.031 0.13672-4.3555 1.0977-8.6445 2.8203-12.648 1.2422-2.9023 1.9258-6.0117 2.0156-9.168h10.078c-0.14062 4.3711-1.0977 8.6797-2.8242 12.695-1.3164 2.8672-2.0703 5.9648-2.2148 9.1211-0.078125 2.0977 0.5625 4.1562 1.8125 5.8438 2.1602 3.25 3.2852 7.0781 3.2266 10.98 0.5 5.9844-1.1836 11.941-4.7383 16.777z" fill="#00bac2"/>
 <path d="m303.66 191.36c0.058594-0.28516 0.058594-0.57422 0-0.85938h-10.078 0.003907c0.19141-2.2188 1.1523-4.3047 2.7188-5.8945 2.2695-3.1445 3.2422-7.0391 2.7227-10.883 0.078125-2.082-0.5625-4.125-1.8164-5.793-2.1602-3.2695-3.2852-7.1133-3.2227-11.031 0.13672-4.3555 1.0938-8.6445 2.8203-12.648 1.2422-2.9023 1.9258-6.0117 2.0156-9.168h10.078-0.003906c-0.13672 4.3711-1.0938 8.6797-2.8203 12.695-1.3203 2.8672-2.0703 5.9648-2.2148 9.1211-0.078125 2.0977 0.55859 4.1562 1.8125 5.8438 2.1602 3.25 3.2852 7.0781 3.2227 10.98 0.50391 5.9844-1.1797 11.941-4.7344 16.777z" fill="#00bac2"/>
 <path d="m349 191.36c0.058594-0.28516 0.058594-0.57422 0-0.85938h-10.078c0.19531-2.2188 1.1562-4.3047 2.7227-5.8945 2.2695-3.1445 3.2422-7.0391 2.7188-10.883 0.082031-2.082-0.55859-4.125-1.8125-5.793-2.1602-3.2695-3.2852-7.1133-3.2227-11.031 0.13672-4.3555 1.0938-8.6445 2.8203-12.648 1.2383-2.9023 1.9219-6.0117 2.0156-9.168h10.078-0.003906c-0.13672 4.3711-1.0938 8.6797-2.8203 12.695-1.3203 2.8672-2.0742 5.9648-2.2188 9.1211-0.078125 2.0977 0.5625 4.1562 1.8164 5.8438 2.1602 3.25 3.2852 7.0781 3.2227 10.98 0.5 5.9844-1.1797 11.941-4.7344 16.777z" fill="#00bac2"/>
</svg>
