<?xml version="1.0" encoding="UTF-8"?>
<svg width="512pt" height="512pt" version="1.1" viewBox="0 0 512 512" xmlns="http://www.w3.org/2000/svg">
 <g>
  <rect width="512" height="512"/>
  <path d="m144.11 382.34c3.0469 2.0898 6.3125 3.8789 9.7031 5.3203l3.9336-9.2734c-2.7773-1.1797-5.4453-2.6406-7.9414-4.3516z" fill="#00bac2"/>
  <path d="m128.77 366.55c2 3.0977 4.3125 6.0117 6.8828 8.6523l7.2305-7.0234c-2.1016-2.168-4-4.5508-5.6445-7.0938z" fill="#00bac2"/>
  <path d="m164.38 390.93c3.6016 0.73047 7.3086 1.0977 11.008 1.0977v-10.078c-3.0312 0-6.0664-0.30078-9.0117-0.89844z" fill="#00bac2"/>
  <path d="m398.26 175.39-6.2305-3.1133v-12h5.0391c8.332 0 15.113-6.7812 15.113-15.113 0-6.5586-4.2266-12.102-10.078-14.188l0.003907-16.043c0-8.332-6.7812-15.113-15.113-15.113h-90.688c-8.332 0-15.113 6.7812-15.113 15.113v16.043c-5.8516 2.0859-10.078 7.625-10.078 14.188 0 8.332 6.7812 15.113 15.113 15.113h5.0391v12l-6.2266 3.1133c-8.5898 4.293-13.926 12.93-13.926 22.531v78.785c-5.9453 1.2383-11.301 4.6016-15.008 9.5234-0.20312 0-0.40625 0-0.61328 0.003906-1.7734-8.707-8.0625-15.773-16.293-18.695l-2.2422-38.066c5.2734-2.3672 8.9688-7.6367 8.9688-13.777 0-3.8828-1.5156-7.3945-3.9297-10.078 2.418-2.6797 3.9297-6.1914 3.9297-10.078 0-3.8828-1.5156-7.3945-3.9297-10.078 2.418-2.6797 3.9297-6.1914 3.9297-10.078 0-1.7734-0.36328-3.457-0.92578-5.0391l5.9609 0.007812c8.332 0 15.113-6.7812 15.113-15.113s-6.7812-15.113-15.113-15.113h-12.879c1.7344-2.9766 2.8047-6.3906 2.8047-10.078 0-2.5703-0.99609-4.8906-2.5859-6.6719 1.6328-2.4102 2.5859-5.3164 2.5859-8.4414 0-8.332-6.7812-15.113-15.113-15.113h-40.305c-8.332 0-15.113 6.7812-15.113 15.113 0 1.7734 0.36328 3.457 0.92578 5.0391h-0.40234c-7.9766 0-15.801 2.7461-22.031 7.7266l-15.523 12.426h-33.504v70.535h33.504l15.527 12.426c6.2266 4.9766 14.051 7.7227 22.023 7.7227h3.3203l-2.4922 42.367c-4.4727-7.3359-12.566-12.137-21.504-12.137-12.898 0-23.559 9.7383-25.02 22.25-9.1641 3.9023-15.285 12.922-15.285 23.094 0 1.7031 0.22656 3.3867 0.5625 5.0391l-10.637-0.003906v25.191c0 41.672 33.902 75.57 75.57 75.57h60.457c41.672 0 75.57-33.902 75.57-75.57v-5.0391h75.57c13.891 0 25.191-11.301 25.191-25.191v-108.46c0-9.6016-5.332-18.238-13.922-22.531zm-101.95-65.496h90.688c2.7773 0 5.0391 2.2617 5.0391 5.0391v15.113h-100.77v-15.113c0-2.7773 2.2617-5.0391 5.0391-5.0391zm-15.113 35.27c0-2.7773 2.2617-5.0391 5.0391-5.0391h110.84c2.7773 0 5.0391 2.2617 5.0391 5.0391 0 2.7773-2.2617 5.0391-5.0391 5.0391l-110.84-0.003906c-2.7773 0-5.0391-2.2617-5.0391-5.0352zm8.3516 39.238 11.801-5.8984v-18.227h80.609v18.227l11.801 5.8984c5.1523 2.5742 8.3516 7.7539 8.3516 13.52v90.387c-3.7422-1.6523-7.8828-2.4023-12.148-1.9805-3.918-9.0469-12.98-15.215-23.117-15.215-12.168 0-22.348 8.6719-24.688 20.156-2.4805-0.023437-4.9375 0.28125-7.332 0.97656-3.6523-9.5078-12.801-16.094-23.402-16.094-6.6914 0-12.988 2.6797-17.637 7.2461-3.4062-3.3438-7.7383-5.7422-12.59-6.7344v-78.742c0-5.7656 3.1992-10.945 8.3516-13.52zm-100.52-34.203h33.184l0.59375 10.078h-2.0703c-8.332 0-15.113 6.7812-15.113 15.113 0 3.8828 1.5156 7.3945 3.9297 10.078-2.418 2.6797-3.9297 6.1914-3.9297 10.078 0 3.8828 1.5156 7.3945 3.9297 10.078-2.418 2.6797-3.9297 6.1914-3.9297 10.078 0 8.332 6.7812 15.113 15.113 15.113h6.2188l2.082 35.402c-9.4023 0.67969-17.652 6.5703-21.34 15.078-4.8867-0.48828-9.6484 0.62891-13.898 2.9336-3.3086-3.6016-7.5234-6.1602-12.211-7.3438zm46.82 45.344c0 2.7773-2.2617 5.0391-5.0391 5.0391h-10.078c-2.7773 0-5.0391-2.2617-5.0391-5.0391 0-2.7773 2.2617-5.0391 5.0391-5.0391h10.078c2.7773 0 5.0391 2.2617 5.0391 5.0391zm0 20.152c0 2.7773-2.2617 5.0391-5.0391 5.0391h-10.078c-2.7773 0-5.0391-2.2617-5.0391-5.0391 0-2.7773 2.2617-5.0391 5.0391-5.0391h10.078c2.7773 0 5.0391 2.2617 5.0391 5.0391zm0-40.305c0 2.7773-2.2617 5.0391-5.0391 5.0391h-10.078c-2.7773 0-5.0391-2.2617-5.0391-5.0391s2.2617-5.0391 5.0391-5.0391h10.078c2.7773 0 5.0391 2.2617 5.0391 5.0391zm20.152-20.152c0 2.7773-2.2617 5.0391-5.0391 5.0391h-18.07l-0.59375-10.078h18.664c2.7773 0 5.0391 2.2617 5.0391 5.0391zm-75.57-40.305c0-2.7773 2.2617-5.0391 5.0391-5.0391h40.305c2.7773 0 5.0391 2.2617 5.0391 5.0391s-2.2617 5.0391-5.0391 5.0391h-40.305c-2.7773 0-5.0391-2.2617-5.0391-5.0391zm-50.383 85.648h-20.152v-50.383h20.152zm40.828 20.152c-5.6992 0-11.285-1.9609-15.738-5.5234l-15.012-12.012v-55.617l15.02-12.016c4.4531-3.5586 10.039-5.5195 15.73-5.5195h59.938c0 5.5586-4.5195 10.078-10.078 10.078h-37.352l-7.7383 7.7383c-4.7578 4.7539-11.086 7.375-17.812 7.375h-7.6328v10.078h7.6328c7.5117 0 14.645-2.3672 20.609-6.6914l-3.6484 62.109zm-50.902 85.648c0-6.8711 4.6836-12.867 11.391-14.582l3.918-1.0039-0.125-4.0391c-0.015625-0.29687-0.035156-0.57812-0.070312-0.52734 0-8.332 6.7812-15.113 15.113-15.113 7.0938 0 13.312 5.0312 14.777 11.969l1.1172 5.2812 5.1953-1.4766c1.5742-0.44922 2.8789-0.66016 4.1016-0.66016 5.3203 0 10.156 2.7773 12.93 7.4297l3.0469 5.1133 4.5391-3.8477c1.9609-1.6719 5.2461-3.6602 9.7148-3.6602 1.2227 0 2.5273 0.21094 4.1055 0.66016l5.1953 1.4766 1.1172-5.2812c1.4609-6.9336 7.6758-11.969 14.77-11.969 8.332 0 15.113 6.7812 15.125 14.801l-0.35156 7.6562 6.5898-1.7383c2.1094-0.55859 3.7148-0.63672 5.2852-0.41797l3.9102 0.51953 1.6719-2.9727c2.6992-4.793 7.7227-7.7695 13.113-7.7695 8.332 0 15.113 6.7812 15.113 15.113 0 3.7578-1.4727 7.3086-3.9648 10.078l-166.35-0.003906c-0.57422-1.6211-0.97656-3.2969-0.97656-5.0352zm181.37 15.113v10.078l-191.45-0.003907v-10.078zm-65.496 80.609h-60.457c-34.414 0-62.652-26.699-65.238-60.457h190.94c-2.5898 33.758-30.828 60.457-65.242 60.457zm151.14-80.609h-75.574v-10.078h-12.195c1.375-3.1406 2.1211-6.5664 2.1211-10.074 0-3.2344-0.66406-6.3086-1.7852-9.1523 2.8438-3.6719 7.1445-5.9609 11.859-5.9609 7.6875 0 14.105 5.8125 14.93 13.523l0.83594 7.8398 6.7617-4.0508c2.4375-1.4609 5.0273-2.1992 7.7031-2.1992 1.1367 0 2.3594 0.17969 3.8242 0.57031l6.5898 1.7383-0.27344-6.8125c-0.007812-0.29688-0.039062-0.58203-0.066406-0.53516 0-8.332 6.7812-15.113 15.113-15.113 7.0938 0 13.312 5.0312 14.777 11.969l1.1172 5.2812 5.1953-1.4766c1.5742-0.44922 2.8789-0.66016 4.1016-0.66016 3.7578 0 7.3086 1.4727 10.078 3.9648v6.1133c0 8.332-6.7812 15.113-15.113 15.113z" fill="#00bac2"/>
  <path d="m301.34 261.04h80.609c5.5586 0 10.078-4.5195 10.078-10.078l-0.003906-50.379c0-5.5586-4.5195-10.078-10.078-10.078h-80.605c-5.5586 0-10.078 4.5195-10.078 10.078v50.383c0 5.5547 4.5195 10.074 10.078 10.074zm0-60.457h80.609l0.003906 50.383-80.613-0.003906z" fill="#00bac2"/>
  <path d="m311.42 210.66h60.457v10.078h-60.457z" fill="#00bac2"/>
  <path d="m311.42 230.81h60.457v10.078h-60.457z" fill="#00bac2"/>
 </g>
</svg>
