<?xml version="1.0" encoding="UTF-8"?>
<svg width="512pt" height="512pt" version="1.1" viewBox="0 0 512 512" xmlns="http://www.w3.org/2000/svg">
 <g>
  <rect width="512" height="512"/>
  <path d="m202.8 214.08c-1.9531 0-3.7188-1.1758-4.4688-2.9844-0.74609-1.8086-0.33203-3.8867 1.0508-5.2695 1.3828-1.3828 3.4609-1.7969 5.2695-1.0508 1.8086 0.75 2.9844 2.5117 2.9844 4.4688 0 2.6719-2.1641 4.8359-4.8359 4.8359zm0-6.4492c-0.65234 0-1.2383 0.39453-1.4883 0.99609-0.25 0.60156-0.11328 1.2969 0.34766 1.7578 0.46094 0.46094 1.1562 0.59766 1.7578 0.34766 0.60156-0.24609 0.99609-0.83594 0.99609-1.4883 0-0.42578-0.16797-0.83594-0.47266-1.1406-0.30078-0.30078-0.71094-0.47266-1.1406-0.47266z" fill="#00bac2"/>
  <path d="m339.84 230.21c-1.3047 0-2.4805-0.78906-2.9805-1.9922s-0.22266-2.5898 0.69922-3.5156c0.92187-0.92188 2.3086-1.1953 3.5117-0.69922 1.207 0.5 1.9922 1.6758 1.9922 2.9805 0 0.85547-0.33984 1.6758-0.94531 2.2812s-1.4258 0.94531-2.2773 0.94531z" fill="#00bac2"/>
  <path d="m201.19 235.04c-1.957 0-3.7227-1.1797-4.4688-2.9883-0.75-1.8047-0.33594-3.8867 1.0469-5.2695 1.3828-1.3828 3.4648-1.7969 5.2695-1.0469 1.8086 0.74609 2.9883 2.5117 2.9883 4.4688 0 2.668-2.168 4.8359-4.8359 4.8359zm0-6.4492c-0.65234 0-1.2422 0.39062-1.4922 0.99609-0.25 0.60156-0.10937 1.293 0.35156 1.7539s1.1523 0.60156 1.7578 0.35156c0.60156-0.25 0.99219-0.83984 0.99219-1.4883 0-0.42969-0.16797-0.83984-0.47266-1.1406-0.30078-0.30469-0.71094-0.47266-1.1367-0.47266z" fill="#00bac2"/>
  <path d="m328.55 256c-0.89062 0-1.6133-0.72266-1.6133-1.6133v-12.898 0.003907c0-0.89063 0.72266-1.6133 1.6133-1.6133 0.88672 0 1.6094 0.72266 1.6094 1.6133v12.898-0.003906c0 0.42969-0.16797 0.83984-0.47266 1.1406-0.30078 0.30469-0.71094 0.47266-1.1367 0.47266z" fill="#00bac2"/>
  <path d="m335 249.55h-12.898 0.003906c-0.89062 0-1.6133-0.72266-1.6133-1.6133 0-0.88672 0.72266-1.6094 1.6133-1.6094h12.898-0.003906c0.89062 0 1.6133 0.72266 1.6133 1.6094 0 0.89062-0.72266 1.6133-1.6133 1.6133z" fill="#00bac2"/>
  <path d="m180.23 233.43c-0.89062 0-1.6133-0.72266-1.6133-1.6133v-6.4492c0-0.89063 0.72266-1.6094 1.6133-1.6094 0.89063 0 1.6133 0.71875 1.6133 1.6094v6.4492c0 0.42969-0.17188 0.83984-0.47266 1.1406-0.30078 0.30469-0.71094 0.47266-1.1406 0.47266z" fill="#00bac2"/>
  <path d="m183.45 230.21h-6.4492c-0.89062 0-1.6133-0.72266-1.6133-1.6133s0.72266-1.6133 1.6133-1.6133h6.4492c0.89062 0 1.6094 0.72266 1.6094 1.6133s-0.71875 1.6133-1.6094 1.6133z" fill="#00bac2"/>
  <path d="m172.55 184.42c-0.78516 0-1.543-0.28516-2.1289-0.80469-0.64453-0.57031-1.0352-1.375-1.0859-2.2344-0.046875-0.86328 0.25-1.707 0.82812-2.3438 1.1289-1.2578 2.3203-2.4844 3.5156-3.707 0.57812-0.6875 1.418-1.1016 2.3164-1.1406 0.89453-0.042969 1.7695 0.29297 2.4102 0.92188 0.63672 0.63281 0.98438 1.5 0.95703 2.3984-0.027344 0.89844-0.42969 1.7422-1.1055 2.332-1.1289 1.1602-2.2266 2.3203-3.2227 3.5156h-0.003906c-0.63281 0.69922-1.5391 1.0898-2.4805 1.0625z" fill="#00bac2"/>
  <path d="m297.21 318.88h-82.414c-1.7812 0-3.2266-1.4414-3.2266-3.2227v-62.652c0-1.7773 1.4453-3.2227 3.2266-3.2227s3.2227 1.4453 3.2227 3.2227v59.426h75.969v-59.426c0-1.7773 1.4414-3.2227 3.2227-3.2227s3.2266 1.4453 3.2266 3.2227v62.652c0 0.85547-0.33984 1.6758-0.94531 2.2773-0.60547 0.60547-1.4258 0.94531-2.2812 0.94531z" fill="#00bac2"/>
  <path d="m203.25 264.48c-0.97656 0.003906-1.9023-0.43359-2.5156-1.1914-0.54297-0.66406-0.80469-1.5156-0.71875-2.3672 0.085937-0.85547 0.50781-1.6406 1.1719-2.1797l52.75-42.883v-0.003906c0.66797-0.53906 1.5195-0.78906 2.3711-0.69922 0.85547 0.089844 1.6367 0.51562 2.1758 1.1836 1.1211 1.3906 0.90234 3.4258-0.48438 4.5469l-52.719 42.852c-0.57031 0.47266-1.2891 0.73438-2.0312 0.74219z" fill="#00bac2"/>
  <path d="m308.79 264.41c-0.73047-0.003906-1.4336-0.25391-2-0.70703l-52.848-42.789c-0.71094-0.51953-1.1797-1.3125-1.293-2.1875s0.14062-1.7617 0.69531-2.4453c0.55859-0.68359 1.3711-1.1133 2.2539-1.1797 0.87891-0.070313 1.75 0.22656 2.4062 0.81641l52.816 42.754c1.0664 0.85938 1.4766 2.3008 1.0195 3.5898-0.45703 1.293-1.6797 2.1562-3.0508 2.1484z" fill="#00bac2"/>
  <path d="m216.44 300.88h79.16v6.4492h-79.16z" fill="#00bac2"/>
  <path d="m252.78 221.66h6.4492v79.125h-6.4492z" fill="#00bac2"/>
  <path d="m216.44 304.04c-0.76953 0-1.5117-0.27344-2.0977-0.77344-1.3242-1.1836-1.4375-3.2188-0.25781-4.5469l39.469-46.172c1.1562-1.3555 3.1914-1.5117 4.5469-0.35547 1.3516 1.1562 1.5117 3.1914 0.35156 4.5469l-39.562 46.172c-0.61328 0.71875-1.5078 1.1289-2.4492 1.1289z" fill="#00bac2"/>
  <path d="m265.9 264.48c-1.7812 0-3.2227-1.4453-3.2227-3.2227v-3.2266c0-1.7812 1.4414-3.2227 3.2227-3.2227s3.2266 1.4414 3.2266 3.2227v3.2266c0 0.85156-0.33984 1.6719-0.94531 2.2773-0.60547 0.60547-1.4258 0.94531-2.2812 0.94531z" fill="#00bac2"/>
  <path d="m265.93 274.35c-1.7773 0-3.2227-1.4453-3.2227-3.2266 0-1.7773 1.4453-3.2227 3.2227-3.2227 1.7812 0 3.2266 1.4453 3.2266 3.2227 0 1.7812-1.4453 3.2266-3.2266 3.2266z" fill="#00bac2"/>
  <path d="m265.9 294.14c-1.7812 0-3.2227-1.4453-3.2227-3.2227v-9.8984c0-1.7812 1.4414-3.2266 3.2227-3.2266s3.2266 1.4453 3.2266 3.2266v9.8984c0 0.85547-0.33984 1.6719-0.94531 2.2773-0.60547 0.60547-1.4258 0.94531-2.2812 0.94531z" fill="#00bac2"/>
  <path d="m183.45 317.26c-0.80078 0-1.5703-0.30078-2.1602-0.83594-1.3164-1.1953-1.418-3.2266-0.22656-4.5469l29.793-33.02c1.1914-1.3242 3.2344-1.4336 4.5625-0.23828 1.3281 1.1914 1.4336 3.2344 0.24219 4.5625l-29.828 32.984c-0.60156 0.6875-1.4688 1.0859-2.3828 1.0938z" fill="#00bac2"/>
  <path d="m328.55 317.26c-0.91016 0-1.7773-0.38672-2.3867-1.0625l-29.699-33.016c-0.875-1.3203-0.66016-3.0781 0.5-4.1523s2.9297-1.1445 4.1758-0.17188l29.664 32.984v0.003906c1.1914 1.3164 1.0898 3.3516-0.22266 4.5469-0.55469 0.51953-1.2734 0.82812-2.0312 0.86719z" fill="#00bac2"/>
  <path d="m294.69 219.63c-5.4062-0.023437-10.445-2.7539-13.414-7.2773-2.9648-4.5234-3.4648-10.234-1.332-15.207 2.1328-4.9688 6.6211-8.5391 11.941-9.5 2.0195-0.58594 4.1953-0.042969 5.707 1.418 2 2.1914 1.1289 5.1914 0.22656 8.3203-0.85547 2.3047-1.2188 4.7656-1.0625 7.2227 0.61328 2.1016 1.8086 3.9922 3.4492 5.4492 1.5469 1.6445 3.2227 3.4805 2.4492 5.9961s-3.8047 3.2227-5.0625 3.2227c-0.95312 0.21484-1.9258 0.33594-2.9023 0.35547zm-2.6758-25.406c-2.1641 0.58594-4.0547 1.9102-5.3516 3.7383-1.4922 2.1016-2.0859 4.7148-1.6445 7.2539 0.46875 2.5273 1.9023 4.7734 4 6.2578 1.5117 1.043 3.2891 1.6367 5.125 1.707-1.9727-2.0586-3.3359-4.625-3.9336-7.4141-0.36328-3.4375 0.066406-6.9141 1.2578-10.156 0.16016-0.42188 0.28906-0.87109 0.41797-1.3867z" fill="#00bac2"/>
  <path d="m328.58 344.61c-0.94531 0-1.8398-0.41016-2.4531-1.1289-0.5625-0.65234-0.84375-1.5-0.77734-2.3633 0.066407-0.85938 0.47266-1.6562 1.1328-2.2148 22.773-18.5 37.109-45.41 39.758-74.629 2.6523-29.219-6.6094-58.27-25.676-80.566-19.07-22.293-46.336-35.945-75.613-37.855-29.273-1.9141-58.082 8.0781-79.891 27.707-1.3516 1.1641-3.3945 1.0117-4.5625-0.33984-1.1641-1.3555-1.0117-3.3984 0.33984-4.5625 23.16-20.391 53.531-30.641 84.309-28.461 30.781 2.1758 59.402 16.605 79.457 40.055 20.059 23.449 29.875 53.961 27.258 84.707-2.6172 30.746-17.453 59.16-41.188 78.879-0.58203 0.5-1.3242 0.77344-2.0938 0.77344z" fill="#00bac2"/>
  <path d="m256 371.27c-28.258-0.011719-55.527-10.398-76.629-29.188-21.105-18.793-34.574-44.676-37.852-72.742-3.2773-28.066 3.8633-56.359 20.07-79.508 0.49609-0.70313 1.25-1.1836 2.0977-1.3281 0.84766-0.14453 1.7188 0.054688 2.418 0.55469 1.4453 1.0273 1.793 3.0273 0.77344 4.4805-19.57 27.914-24.926 63.379-14.477 95.828 10.445 32.445 35.496 58.121 67.676 69.371 32.176 11.246 67.766 6.7656 96.152-12.105 0.71484-0.47656 1.5898-0.64844 2.4297-0.48047 0.83984 0.17188 1.582 0.66797 2.0547 1.3828 0.96875 1.4805 0.56641 3.4688-0.90234 4.4492-18.895 12.602-41.102 19.312-63.812 19.285z" fill="#00bac2"/>
  <path d="m365.63 318.88h-219.26c-1.7812 0-3.2227-1.4414-3.2227-3.2227s1.4414-3.2266 3.2227-3.2266h219.26c1.7812 0 3.2266 1.4453 3.2266 3.2266s-1.4453 3.2227-3.2266 3.2227z" fill="#00bac2"/>
  <path d="m314.04 331.77h-76.031c-0.89062 0-1.6133-0.72266-1.6133-1.6133s0.72266-1.6094 1.6133-1.6094h76.031c0.89063 0 1.6133 0.71875 1.6133 1.6094s-0.72266 1.6133-1.6133 1.6133z" fill="#00bac2"/>
  <path d="m272.12 344.67h-54.812c-0.89062 0-1.6133-0.72266-1.6133-1.6133s0.72266-1.6133 1.6133-1.6133h54.812c0.89062 0 1.6133 0.72266 1.6133 1.6133s-0.72266 1.6133-1.6133 1.6133z" fill="#00bac2"/>
  <path d="m226.43 331.77h-15.574c-0.89062 0-1.6133-0.72266-1.6133-1.6133s0.72266-1.6094 1.6133-1.6094h15.574c0.89062 0 1.6094 0.71875 1.6094 1.6094s-0.71875 1.6133-1.6094 1.6133z" fill="#00bac2"/>
  <path d="m261.9 357.57h-15.574c-0.89062 0-1.6133-0.71875-1.6133-1.6094s0.72266-1.6133 1.6133-1.6133h15.574c0.89062 0 1.6094 0.72266 1.6094 1.6133s-0.71875 1.6094-1.6094 1.6094z" fill="#00bac2"/>
  <path d="m287.18 344.67h-5.125c-0.89063 0-1.6133-0.72266-1.6133-1.6133s0.72266-1.6133 1.6133-1.6133h5.125c0.89062 0 1.6133 0.72266 1.6133 1.6133s-0.72266 1.6133-1.6133 1.6133z" fill="#00bac2"/>
 </g>
</svg>
