<?xml version="1.0" encoding="UTF-8"?>
<svg width="512pt" height="512pt" version="1.1" viewBox="0 0 512 512" xmlns="http://www.w3.org/2000/svg">
 <g>
  <rect width="512" height="512"/>
  <path d="m335.54 115.92-89.207 70.578 43.348 20.062 34.035-26.867 7.168 8.957-48.367 38.691-9.6719 19.344 34.391 15.051 88.133-69.863 11.824-70.578z" fill="#00bac2"/>
  <path d="m148.52 250.62 35.109 37.977-45.496 42.633-9.3164-10.031-24.004 22.215 49.441 52.664 23.645-22.57-9.3164-10.031 45.5-42.633 35.469 37.617 23.645-22.215-101.03-107.84z" fill="#00bac2"/>
  <path d="m234.5 279.29 29.379 30.809 42.992-40.484-45.859-15.406z" fill="#00bac2"/>
  <path d="m226.62 270.69 43.711-40.84 6.4492-16.48-36.543-13.613-42.637 39.766z" fill="#00bac2"/>
  <path d="m193.66 181.48-12.184 8.957 42.277 5.7344z" fill="#00bac2"/>
  <path d="m233.07 127.02-7.5234 12.539 16.84 29.02z" fill="#00bac2"/>
  <path d="m191.16 126.67-2.8672 21.496 40.125 29.734z" fill="#00bac2"/>
  <path d="m361.69 293.26 13.613-7.168-40.84-12.898z" fill="#00bac2"/>
  <path d="m312.96 339.84 9.6719-11.109-11.465-31.527z" fill="#00bac2"/>
  <path d="m354.52 347.36 6.4492-20.781-34.395-35.824z" fill="#00bac2"/>
 </g>
</svg>
