<?xml version="1.0" encoding="UTF-8"?>
<svg width="512pt" height="512pt" version="1.1" viewBox="0 0 512 512" xmlns="http://www.w3.org/2000/svg">
 <g>
  <rect width="512" height="512"/>
  <path d="m376.91 341.65h0.003906v-211.6c0-2.7812-2.2539-5.0352-5.0391-5.0352h-158.24c-7.4609-12.543-20.992-20.207-35.586-20.152-11.391 0.011719-22.312 4.543-30.367 12.598-8.0547 8.0547-12.586 18.973-12.598 30.363v213.98h0.058593c0.625 12.223 5.918 23.742 14.785 32.18 8.8711 8.4375 20.637 13.148 32.879 13.164h189.07c1.957 0 3.7344-1.1328 4.5625-2.9023 0.83203-1.7695 0.5625-3.8594-0.69141-5.3633-6.3164-7.5781-9.7773-17.133-9.7773-27.004 0-9.8672 3.4609-19.422 9.7773-27 0.75391-0.90625 1.168-2.0508 1.1641-3.2266zm-10.07-176.33h-5.0391c-2.7812-0.003906-5.0352-2.2578-5.0391-5.0391v-10.078c0-2.7812-2.2539-5.0352-5.0391-5.0352h-10.074c-2.7812-0.003906-5.0352-2.2578-5.0391-5.0391v-5.0391h30.23zm-151.14-30.23h30.23v5.0391c-0.003906 2.7812-2.2578 5.0352-5.0391 5.0391h-10.078c-2.7812 0-5.0352 2.2539-5.0352 5.0352v10.078c-0.003907 2.7812-2.2578 5.0352-5.0391 5.0391h-5.0391zm-37.645-20.152c5.6445-0.019532 11.188 1.4922 16.043 4.3711 4.8516 2.8789 8.8359 7.0156 11.527 11.98v4.168-0.003906c-7.5938-6.7539-17.41-10.469-27.57-10.438-12.051-0.007813-23.547 5.0625-31.672 13.965 1.9414-6.9102 6.082-13 11.801-17.34 5.7148-4.3398 12.691-6.6914 19.871-6.7031zm-32.887 55.418v-2.3789c0.007813-8.7188 3.4766-17.078 9.6406-23.242 6.168-6.168 14.527-9.6328 23.246-9.6445 5.6445-0.019532 11.188 1.4883 16.043 4.3672 4.8516 2.8789 8.8359 7.0195 11.527 11.984v54.184h10.078l-0.003907-30.23h5.0391c4.0078-0.003906 7.8477-1.5977 10.68-4.4336 2.8359-2.832 4.4297-6.6719 4.4336-10.68v-5.0391h5.0391c4.0078-0.003906 7.8477-1.5977 10.684-4.4336 2.832-2.832 4.4258-6.6719 4.4297-10.68v-5.0391h70.535v5.0391c0.003906 4.0078 1.5977 7.8477 4.4297 10.68 2.8359 2.8359 6.6758 4.4297 10.684 4.4336h5.0391v5.0391c0.003906 4.0078 1.5977 7.8477 4.4297 10.68 2.8359 2.8359 6.6758 4.4297 10.684 4.4336h5.0391v120.91h-5.0391c-4.0078 0.003906-7.8477 1.5977-10.684 4.4336-2.832 2.832-4.4258 6.6758-4.4297 10.68v5.0391h-5.0391c-4.0078 0.003907-7.8477 1.5977-10.684 4.4336-2.832 2.832-4.4258 6.6758-4.4297 10.68v5.0391h-70.535v-5.0391c-0.003906-4.0039-1.5977-7.8477-4.4297-10.68-2.8359-2.8359-6.6758-4.4297-10.684-4.4336h-5.0391v-5.0391c-0.003906-4.0039-1.5977-7.8477-4.4336-10.68-2.832-2.8359-6.6719-4.4297-10.68-4.4336h-5.0391v-75.57h-10.074v80.973c-7.5938-6.7539-17.41-10.469-27.57-10.441-12.695 0-24.738 5.625-32.887 15.359zm60.457 156.55c-7.5938-6.7539-17.41-10.473-27.57-10.445-12.637 0-24.633 5.5742-32.781 15.234 0.64844-8.2539 4.3828-15.961 10.457-21.582 6.0742-5.625 14.043-8.7539 22.324-8.7656 5.6445-0.019531 11.188 1.4883 16.043 4.3672 4.8516 2.8789 8.8359 7.0195 11.527 11.98zm10.074-20.52h5.0391c2.7812 0 5.0352 2.2539 5.0391 5.0352v10.078c0 2.7812 2.2539 5.0391 5.0352 5.0391h10.078c2.7812 0 5.0352 2.2539 5.0391 5.0352v5.0391h-30.23zm142.43 50.383-132.35-0.003906v10.078h130.36c-0.32422 3.3477-0.32422 6.7227 0 10.074h-64.871v10.078h66.859c1.0547 3.4961 2.4727 6.875 4.2344 10.074h-179.55c-9.9805-0.011718-19.551-3.9805-26.609-11.039-7.0547-7.0547-11.027-16.625-11.035-26.605 0.007813-8.7188 3.4766-17.078 9.6406-23.246 6.168-6.1641 14.527-9.6328 23.246-9.6406 5.8398-0.019531 11.566 1.5938 16.531 4.6641 4.9688 3.0703 8.9766 7.4688 11.57 12.703 0.85156 1.707 2.5977 2.7852 4.5039 2.7852h151.7c-1.7617 3.1992-3.1797 6.5781-4.2344 10.074zm-21.516-20.156v-5.0391c0.003906-2.7812 2.2578-5.0352 5.0391-5.0352h10.078-0.003906c2.7852 0 5.0391-2.2578 5.0391-5.0391v-10.078c0.003906-2.7812 2.2578-5.0352 5.0391-5.0352h5.0391v30.23z" fill="#00bac2"/>
  <path d="m180.43 356.76h30.23v10.078h-30.23z" fill="#00bac2"/>
  <path d="m180.43 376.91h65.496v10.078h-65.496z" fill="#00bac2"/>
  <path d="m261.04 376.91h15.113v10.078h-15.113z" fill="#00bac2"/>
  <path d="m258.53 228.78-9.1055 5.2578 5.0391 8.7266 9.1094-5.2578v-0.003906c1.7227 2.1914 3.6953 4.1719 5.8828 5.8984l-15.297 26.496 8.7266 5.0391 13.992-24.234-5.7383 60.242v-0.003906c-0.089844 0.94141 0.085937 1.8867 0.51172 2.7305l5.0391 10.078h-0.003906c0.85547 1.707 2.5977 2.7852 4.5078 2.7852h20.152c1.9062 0 3.6523-1.0781 4.5039-2.7852l5.0391-10.078c0.42188-0.84375 0.60156-1.7891 0.51172-2.7305l-5.7383-60.242 13.992 24.234 8.7266-5.0391-15.297-26.496-0.003906 0.003906c2.1875-1.7266 4.1641-3.707 5.8867-5.8984l9.1094 5.2578 5.0391-8.7266-9.1055-5.2578v0.003906c1.0352-2.5898 1.7578-5.2891 2.1562-8.0469h30.598v-10.078h-30.594c-0.39844-2.7578-1.1211-5.457-2.1602-8.0469l10.082-5.8203-5.0391-8.7266-10.098 5.8281h0.003906c-1.7266-2.1836-3.7031-4.1602-5.8867-5.8828l15.309-26.512-8.7266-5.0391-15.301 26.5c-2.5859-1.0391-5.2891-1.7656-8.0469-2.1641v-10.441h-10.074v10.441c-2.7617 0.39844-5.4609 1.125-8.0469 2.1641l-15.301-26.5-8.7266 5.0391 15.309 26.512c-2.1875 1.7227-4.1602 3.6992-5.8867 5.8828l-10.098-5.8281-5.0391 8.7266 10.086 5.8203c-1.0391 2.5898-1.7656 5.2891-2.1602 8.0469h-30.594v10.078h30.598-0.003906c0.39844 2.7578 1.125 5.457 2.1602 8.0469zm45.848 8.4297-3.0547-32.066v-0.003906c-0.24609-2.5859-2.418-4.5586-5.0156-4.5586h-10.074c-2.5977 0-4.7695 1.9727-5.0156 4.5586l-3.0547 32.066v0.003907c-6.3008-3.8398-10.602-10.246-11.766-17.531-1.168-7.2812 0.91797-14.711 5.7031-20.324s11.793-8.8477 19.168-8.8477c7.3789 0 14.383 3.2344 19.172 8.8477 4.7852 5.6133 6.8711 13.043 5.7031 20.324-1.168 7.2852-5.4648 13.691-11.766 17.531zm-6.4141 38.941h-13.387l6.2383-65.496h0.91406zm0.26953 40.305h-13.926l-3-6 2.3086-24.227h15.309l2.3086 24.23z" fill="#00bac2"/>
  <path d="m286.23 150.2h10.078v10.078h-10.078z" fill="#00bac2"/>
  <path d="m232.03 187.31 5.0391-8.7266 8.8594 5.1133-5.0391 8.7266z" fill="#00bac2"/>
  <path d="m232.03 244.08 8.8594-5.1133 5.0391 8.7266-8.8594 5.1133z" fill="#00bac2"/>
  <path d="m336.61 183.7 8.8594-5.1133 5.0391 8.7266-8.8594 5.1133z" fill="#00bac2"/>
  <path d="m336.61 247.69 5.0391-8.7266 8.8594 5.1133-5.0391 8.7266z" fill="#00bac2"/>
 </g>
</svg>
