<?xml version="1.0" encoding="UTF-8"?>
<svg width="512pt" height="512pt" version="1.1" viewBox="0 0 512 512" xmlns="http://www.w3.org/2000/svg">
 <g>
  <rect width="512" height="512"/>
  <path d="m242 362.54c1.3594 0.003906 2.6484-0.58594 3.5352-1.6172l5.2656-6.0703h-0.003906c3.7852 0.96094 7.7852 0.51953 11.27-1.2422 3.6367-1.9023 6.4922-5.0234 8.0586-8.8164 3.9531-9.1562 3.8398-21.215 3.1484-29.309-0.11719-1.418-1.0547-2.6367-2.3945-3.1133s-2.8359-0.125-3.8281 0.89453c-7.0859 7.3242-17.805 14.043-17.805 14.043-7.8984 4.832-8.6484 12.594-8.0547 17.91l0.003906 0.003906c0.18359 1.6094 0.74609 3.1523 1.6367 4.5078l-4.3398 5.0391c-1.1953 1.3828-1.4766 3.3359-0.71875 5 0.75781 1.6641 2.418 2.7344 4.2461 2.7383z" fill="#00bac2"/>
  <path d="m400.78 186.43c1.7305-3.7188 2.0977-7.9258 1.0391-11.887-2.4375-9.668-9.875-19.164-15.367-25.152h0.003906c-0.96094-1.0547-2.4492-1.4492-3.8086-1.0078-1.3555 0.4375-2.332 1.6328-2.4922 3.0508-1.1641 10.121-5.5625 21.98-5.5625 21.98-3.3242 8.6406 0.82422 15.277 4.5156 19.113l0.003906-0.003907c1.1289 1.1641 2.5156 2.043 4.0469 2.5781l-0.39062 6.625c-0.070312 1.2383 0.35547 2.457 1.1797 3.3828 0.82812 0.92578 1.9922 1.4844 3.2305 1.5547h0.28516c2.4727-0.003906 4.5195-1.9375 4.6602-4.4102l0.47266-8.0234h-0.003906c3.582-1.5273 6.4922-4.2969 8.1875-7.8008z" fill="#00bac2"/>
  <path d="m219.39 107.09c-23.547 7.3789-53.387 24.895-68.438 66.23l-17.398 0.41406v0.003907c-1.75 0.046874-3.2969 1.1484-3.9141 2.7852-0.62109 1.6367-0.18359 3.4844 1.0977 4.6758l14.34 13.227c-0.17578 0.86719-0.36719 1.7188-0.52734 2.6055-3.4297 18.918-3.6406 38.277-0.63281 57.266 1.8398 11.895 4.7422 27.582 8.9922 42.508h0.003906c2.875 10.004 4.8125 20.25 5.7812 30.613l-14.441 3.0039c-0.98047 0.22656-1.7344 1.0117-1.9141 2.0039-0.18359 0.98828 0.24219 1.9922 1.082 2.5508 0 0 21.832 12.973 31.066 22.855v-0.003907c2.4062 2.4844 2.5234 6.3906 0.26953 9.0117-1.1641 1.2891-2.7969 2.0625-4.5312 2.1445-1.7344 0.085938-3.4336-0.52344-4.7188-1.6914-1.3867-1.2578-2.7539-2.4648-4.1055-3.6133-0.64453-0.53906-1.5273-0.6875-2.3125-0.38672-0.78125 0.29688-1.3438 0.99219-1.4688 1.8242-1.2578 8.4648-3.3047 16.914-6.543 24.527-1.4844 3.4727-1.125 7.4609 0.95703 10.617 2.082 3.1523 5.6055 5.0508 9.3867 5.0508h44.586c5.8164 0.007813 10.676-4.4219 11.203-10.215 1.5352-17.074 1.8906-55.066-14.516-110.39l14.832-13.598c0.72266-0.69531 0.96484-1.7539 0.61328-2.6953-0.35156-0.94141-1.2305-1.5859-2.2344-1.6367l-18.176-0.51562c-3.4141-15.742-7.3867-42.793-3.332-71.703h0.003907c0.12891-1.0352-0.33203-2.0547-1.1914-2.6445-0.85938-0.58594-1.9727-0.64844-2.8906-0.15234-1.7266 0.91016-3.3828 1.9453-4.9609 3.0898-2.8477 2.2148-6.9492 1.7148-9.1758-1.1211-2.2227-2.8398-1.9531-7.2227 1.082-9.1641 14.086-9.0117 32.508-11.531 32.508-11.531v0.003907c0.91406-0.12891 1.6562-0.80078 1.8789-1.6914 0.22266-0.89453-0.12109-1.8359-0.86328-2.3789l-8.3867-6.1016h-0.003907c5.7266-15.379 14.539-29.426 25.895-41.273 6.3008-6.543-0.22656-17.227-8.9023-14.504z" fill="#00bac2"/>
  <path d="m393.65 266.64c0.59375-13.344-2.2734-26.613-8.3203-38.523-5.7734-11.234-14.348-20.789-24.887-27.746-8.9961-5.9453-19.148-9.9141-29.789-11.641-0.6875-0.125-1.3945 0.089844-1.8945 0.57812s-0.73437 1.1875-0.625 1.8789c0.35547 1.9141-0.16016 3.8867-1.4023 5.3828-1.2461 1.5-3.0938 2.3633-5.0391 2.3633-2.125-0.003906-4.1172-1.0391-5.3398-2.7773l-5.7695-26.387c-0.21875-0.98047-1.0078-1.7344-1.9961-1.9023-0.99219-0.17188-1.9883 0.27344-2.5195 1.1289l-14.27 22.527v-0.003906c-4.5547 1.4258-8.9492 3.3281-13.105 5.668-7.6797 4.3672-13.941 10.855-18.027 18.688-4.0859 7.832-5.8242 16.676-5.0117 25.473 0.25 2.7188 0.73047 5.4102 1.4297 8.0508l-12.23 12.191c-0.71094 0.71094-0.92578 1.7812-0.53125 2.7109 0.39063 0.92578 1.3086 1.5234 2.3164 1.5078l18.031-0.25-0.003907-0.003906c1.9922 2.8398 4.2344 5.4883 6.707 7.918 3.5664 3.5391 7.8086 6.3242 12.477 8.1875 11.16 4.3438 19.988 1.4375 26.336-3.1094v-0.003907c1.4922-1.0586 2.0664-3.0039 1.3828-4.7031-0.68359-1.6992-2.4414-2.7109-4.2539-2.4453l-0.53516 0.074218c-12.992 1.6094-23.066-11.066-19.289-23.613 0.8125-2.6211 1.9961-5.1133 3.5156-7.3984 2.3828-3.5742 5.9102-6.2383 10-7.5586 27.344-9.0234 42.535 16.281 42.535 16.281 3.1211 5.4609 4.9844 11.551 5.4453 17.828l-13.27 5.668c-0.76172 0.32812-1.25 1.0859-1.2305 1.9141 0.015625 0.82812 0.53125 1.5664 1.3086 1.8633l0.62891 0.25v0.003906c7.5195 2.9766 14.672 6.8047 21.324 11.402 1.4922 1.0039 2.5195 2.5625 2.8516 4.332 0.33203 1.7656-0.058594 3.5938-1.082 5.0703-2.0938 2.8477-6.0703 3.5195-8.9805 1.5195l-4.4102-3.0117c-0.72656-0.49609-1.6289-0.66016-2.4844-0.45312-0.85547 0.21094-1.5781 0.77344-1.9922 1.5508-2.7188 5.0586-5.9727 9.8086-9.7109 14.168-0.82422 0.94922-1.6445 1.8906-2.4375 2.8789-14.773 18.32-21.871 38.195-25.191 54.699l-17.449 4.1953c-0.80859 0.19141-1.4219 0.85547-1.543 1.6797-0.125 0.82031 0.26562 1.6367 0.98047 2.0547l15.648 9.4844c-0.85547 11.582 0.042969 19.055 0.042969 19.055h60.902l0.003906 0.003906c-3.3008-8.7812-4.8281-18.129-4.4883-27.504 0.23828-8.4336 1.7656-16.777 4.5273-24.75l20.863 1.0781c0.82812 0.039062 1.5977-0.42578 1.9492-1.1797 0.34766-0.75 0.21094-1.6406-0.35547-2.2461l-14.074-15.391c0.83594-1.3789 1.707-2.7383 2.6133-4.0664 15.473-22.66 19.113-48.684 19.719-64.641z" fill="#00bac2"/>
  <path d="m114.96 295.76c2.5742 2.2109 5.8594 3.4102 9.25 3.3789l3.1484 6.2227v-0.003906c1.0586 1.9219 3.4492 2.6602 5.4062 1.6641 1.9531-0.99609 2.7656-3.3633 1.832-5.3477l-2.6133-5.1406v0.003906c1.0312-0.95703 1.8242-2.1445 2.3164-3.4648 1.6055-4.332 2.6016-11.066-3.0547-16.781 0 0-7.6328-7.9023-12.078-15.562-0.61719-1.0742-1.8086-1.6836-3.0391-1.5625-1.2305 0.125-2.2773 0.95703-2.6719 2.1289-2.2852 6.6836-4.8984 16.828-3.4766 25.375v-0.003906c0.53906 3.5234 2.3047 6.7422 4.9805 9.0938z" fill="#00bac2"/>
 </g>
</svg>
