<?xml version="1.0" encoding="UTF-8"?>
<svg width="512pt" height="512pt" version="1.1" viewBox="0 0 512 512" xmlns="http://www.w3.org/2000/svg">
 <g>
  <rect width="512" height="512"/>
  <path d="m256 96.395c-88.023 0-159.61 71.582-159.61 159.61 0 88.027 71.582 159.61 159.61 159.61 88.027 0 159.61-71.578 159.61-159.61 0-88.023-71.578-159.61-159.61-159.61zm0 9.6719c82.543 0 149.93 67.391 149.93 149.93 0 6.125-0.32422 12.574-1.2891 18.379l-82.867-79.965c-0.96875-0.96875-2.5781-1.6133-3.8711-1.2891-1.2891 0-2.5781 0.96875-3.5469 1.9336l-14.508 21.281-36.113-83.188c-0.96484-1.6133-2.5781-2.9023-4.5117-2.9023-1.9336 0-3.5469 1.2891-4.5156 2.9023l-28.695 69.648-25.473-32.242c-0.96875-0.96875-2.2578-1.6133-3.5469-1.9336-1.2891 0-2.5781 0.32422-3.5469 1.2891l-87.383 87.699v-1.6133c0-82.543 67.391-149.93 149.93-149.93zm19.023 77.707-3.8711 6.125-7.0898-14.508c-0.64453-1.2891-1.9336-2.2578-3.2227-2.5781-1.2891-0.32422-2.9023 0-3.8711 0.96875l-11.93 8.707 14.188-34.828zm-87.379 198.62c0-4.5156 3.5469-8.0625 8.0625-8.0625s8.0625 3.5469 8.0625 8.0625-3.5469 8.0625-8.0625 8.0625-8.0625-3.5469-8.0625-8.0625zm111.89 4.1914c0-4.5156 3.5469-8.0625 8.0625-8.0625s8.0625 3.5469 8.0625 8.0625c-0.003906 4.5156-3.5508 8.0625-8.0664 8.0625-4.5117 0-8.0586-3.5469-8.0586-8.0625zm54.488-17.086-18.379-29.344c0.96875-2.2578 1.6133-4.8359 1.6133-7.418 0-9.6719-7.7383-17.41-17.41-17.734l-37.082-60.293c-1.2891-2.2578-4.5156-2.9023-6.7695-1.6133-2.2578 1.2891-2.9023 4.5156-1.6133 6.7695l35.789 57.715c-5.1602 3.2227-8.3828 8.707-8.3828 15.156 0 9.6719 8.0625 17.734 17.734 17.734 3.5469 0 6.7695-0.96875 9.3516-2.5781l17.41 28.051c-6.7695 5.1602-13.863 9.6719-21.281 13.543 0-0.64453 0.32422-1.6133 0.32422-2.2578 0-9.6719-8.0625-17.734-17.734-17.734s-17.734 8.0625-17.734 17.734c0 5.4805 2.5781 10.641 6.4492 13.863-12.898 3.5469-26.441 5.4805-40.305 5.4805-17.734 0-34.824-3.2227-50.301-8.707 4.5156-3.2227 7.7383-8.707 7.7383-14.508 0-9.6719-8.0625-17.734-17.734-17.734s-17.734 8.0625-17.734 17.734v1.2891c-4.1914-2.5781-8.3828-5.4805-12.254-8.3828l71.902-115.75c1.2891-2.2578 0.64453-5.1602-1.6133-6.7695-2.2578-1.2891-5.1602-0.64453-6.7695 1.6133l-71.254 114.14c-28.375-24.828-47.398-59.652-51.27-98.988 0.32422 0 0.32422-0.32422 0.64453-0.32422l88.992-88.992 27.41 34.18c0.96875 1.2891 2.9023 1.9336 4.5156 1.9336 1.6133-0.32422 3.2227-1.2891 3.8711-2.9023l6.125-14.832c0.64453 0 0.96875-0.32422 1.2891-0.64453l18.379-13.863 8.0625 16.766c0.64453 1.6133 2.2578 2.5781 3.8711 2.5781h0.32422c1.6133 0 3.2227-0.64453 3.8711-2.2578l5.1602-7.7383 15.465 33.855c0.64453 1.6133 2.2578 2.5781 3.8711 2.9023 1.9336 0.32422 3.5469-0.64453 4.5156-2.2578l16.121-23.859 83.832 80.609c-6.7695 33.535-24.504 62.555-49.012 83.836zm-34.176-45.145c4.5156 0 8.0625 3.5469 8.0625 8.0625s-3.5469 8.0625-8.0625 8.0625-8.0625-3.5469-8.0625-8.0625 3.5469-8.0625 8.0625-8.0625z" fill="#00bac2"/>
  <path d="m238.91 312.43c0 6.4492-9.6719 6.4492-9.6719 0s9.6719-6.4492 9.6719 0" fill="#00bac2"/>
  <path d="m274.38 277.28c0 6.4492-9.6719 6.4492-9.6719 0s9.6719-6.4492 9.6719 0" fill="#00bac2"/>
  <path d="m249.88 287.92c0 6.4492-9.6758 6.4492-9.6758 0s9.6758-6.4492 9.6758 0" fill="#00bac2"/>
  <path d="m234.72 354.67c0 6.4453-9.6719 6.4453-9.6719 0 0-6.4492 9.6719-6.4492 9.6719 0" fill="#00bac2"/>
  <path d="m282.12 315.97c0 6.4492-9.6719 6.4492-9.6719 0 0-6.4492 9.6719-6.4492 9.6719 0" fill="#00bac2"/>
  <path d="m261.48 393.36c0 6.4492-9.6719 6.4492-9.6719 0s9.6719-6.4492 9.6719 0" fill="#00bac2"/>
  <path d="m255.36 354.67c0 9.6719 8.0625 17.734 17.734 17.734s17.734-8.0625 17.734-17.734-8.0625-17.734-17.734-17.734-17.734 8.0586-17.734 17.734zm25.797 0c0 4.5156-3.5469 8.0625-8.0625 8.0625s-8.0625-3.5469-8.0625-8.0625 3.5469-8.0625 8.0625-8.0625 8.0625 3.5469 8.0625 8.0625z" fill="#00bac2"/>
 </g>
</svg>
