<?xml version="1.0" encoding="UTF-8"?>
<svg width="512pt" height="512pt" version="1.1" viewBox="0 0 512 512" xmlns="http://www.w3.org/2000/svg">
 <g>
  <rect width="512" height="512"/>
  <path d="m130.77 384.98c1.7812 0 3.2227-1.4453 3.2227-3.2227 0-10.375 8.4453-18.82 18.82-18.82s18.82 8.4453 18.82 18.82c0 1.7812 1.4453 3.2227 3.2227 3.2227 1.7812 0 3.2227-1.4453 3.2227-3.2227 0-13.934-11.336-25.27-25.27-25.27-13.926-0.003906-25.266 11.336-25.266 25.266 0 1.7812 1.4414 3.2266 3.2266 3.2266z" fill="#00bac2"/>
  <path d="m236.05 279.8c-8.6953 4-14.766 12.773-14.766 22.949 0 1.7812 1.4453 3.2227 3.2227 3.2227 1.7812 0 3.2227-1.4453 3.2227-3.2227 0-10.375 8.4453-18.82 18.82-18.82 10.168 0 18.457 8.1133 18.789 18.199h-18.789c-1.7812 0-3.2227 1.4453-3.2227 3.2227 0 1.7812 1.4453 3.2227 3.2227 3.2227h39.199c1.7812 0 3.2227-1.4453 3.2227-3.2227 0-1.7812-1.4453-3.2227-3.2227-3.2227h-13.961c-0.33594-13.645-11.516-24.648-25.238-24.648-1.3516 0-2.6641 0.13672-3.957 0.33984 1.0234-14.805 13.359-26.539 28.418-26.539 15.727 0 28.516 12.793 28.516 28.516 0 1.7812 1.4453 3.2227 3.2227 3.2227 1.7812 0 3.2227-1.4453 3.2227-3.2227 0-18.086-13.801-33.004-31.426-34.789l0.011719-43.441 27.828 27.969c1.2578 1.2617 3.2969 1.2656 4.5625 0.007813 1.2617-1.2578 1.2656-3.2969 0.007813-4.5625l-32.398-32.559v-11.652l27.828 27.969c1.2578 1.2617 3.2969 1.2656 4.5625 0.007813 1.2617-1.2578 1.2656-3.2969 0.007813-4.5625l-32.398-32.555v-12.211l27.828 27.969c1.2578 1.2617 3.2969 1.2656 4.5625 0.007812 1.2617-1.2578 1.2656-3.2969 0.007813-4.5625l-32.398-32.559v-12.211l27.828 27.969c1.2578 1.2617 3.2969 1.2656 4.5625 0.007812 1.2617-1.2578 1.2656-3.2969 0.007813-4.5625l-33.34-33.504s-0.003906-0.003906-0.007812-0.003906c-0.57422-0.58203-1.3789-0.94531-2.2734-0.94531s-1.6953 0.35937-2.2812 0.94531c0 0-0.003906 0.003906-0.007812 0.003906l-33.34 33.504c-1.2578 1.2656-1.25 3.3047 0.007813 4.5625 0.62891 0.625 1.4531 0.9375 2.2773 0.9375 0.82812 0 1.6562-0.31641 2.2852-0.94922l27.828-27.969v12.211l-32.391 32.562c-1.2578 1.2656-1.25 3.3047 0.007812 4.5625 0.62891 0.625 1.4531 0.9375 2.2773 0.9375 0.82812 0 1.6562-0.31641 2.2852-0.94922l27.828-27.969v12.211l-32.398 32.562c-1.2578 1.2656-1.25 3.3047 0.007812 4.5625 0.62891 0.625 1.4531 0.9375 2.2773 0.9375 0.82812 0 1.6562-0.31641 2.2852-0.94922l27.828-27.969v11.652l-32.398 32.559c-1.2578 1.2656-1.25 3.3047 0.007812 4.5625 0.62891 0.625 1.4531 0.9375 2.2773 0.9375 0.82812 0 1.6562-0.31641 2.2852-0.94922l27.828-27.969v43.418c-17.922 1.4883-32.059 16.52-32.062 34.82z" fill="#00bac2"/>
  <path d="m379.78 224.98c0.63281 0.63281 1.457 0.94922 2.2852 0.94922 0.82031 0 1.6445-0.3125 2.2773-0.9375 1.2617-1.2578 1.2656-3.2969 0.007812-4.5625l-26.266-26.398c-1.2109-1.2148-3.3594-1.2148-4.5703 0l-26.27 26.398c-1.2578 1.2656-1.25 3.3047 0.007812 4.5625 1.2656 1.2578 3.3086 1.25 4.5625-0.007812l20.758-20.863v7.6836l-25.332 25.457c-1.2578 1.2656-1.25 3.3047 0.007812 4.5625 1.2656 1.2539 3.3047 1.25 4.5625-0.007812l20.758-20.863v7.6836l-25.332 25.457c-1.2578 1.2656-1.25 3.3047 0.007813 4.5625 1.2656 1.2578 3.3086 1.25 4.5625-0.007813l20.758-20.863v7.2422l-25.332 25.453c-1.2578 1.2656-1.25 3.3047 0.007813 4.5625 1.2656 1.2539 3.3008 1.25 4.5625-0.007812l20.758-20.863v39.273c-8.6719 1.3359-15.629 7.9219-17.473 16.422-5.9609-3.0469-12.688-4.8008-19.828-4.8008-23.855 0-43.281 19.203-43.715 42.957l-90.91-0.003906c-1.7812 0-3.2227 1.4453-3.2227 3.2227 0 1.7812 1.4453 3.2227 3.2227 3.2227l117.28 0.003906c1.7812 0 3.2227-1.4453 3.2227-3.2227 0-1.7812-1.4453-3.2227-3.2227-3.2227h-19.918c0.43359-20.199 16.965-36.508 37.266-36.508 20.566 0 37.305 16.734 37.305 37.305 0 1.7812 1.4453 3.2227 3.2227 3.2227 1.7812 0 3.2227-1.4453 3.2227-3.2227 0-14.445-7.0664-27.238-17.891-35.211 0.40234-7.7695 6.793-13.984 14.664-13.984 8.1289 0 14.738 6.6133 14.738 14.738 0 1.7812 1.4453 3.2227 3.2227 3.2227 1.7812 0 3.2227-1.4453 3.2227-3.2227 0-10.586-7.8086-19.355-17.965-20.918v-39.273l20.758 20.863c0.63281 0.63281 1.457 0.94922 2.2852 0.94922 0.82031 0 1.6445-0.3125 2.2773-0.9375 1.2617-1.2578 1.2656-3.2969 0.007813-4.5625l-25.332-25.453v-7.2422l20.758 20.863c0.63281 0.63281 1.457 0.94922 2.2852 0.94922 0.82031 0 1.6445-0.3125 2.2773-0.9375 1.2617-1.2578 1.2656-3.2969 0.007812-4.5625l-25.332-25.457v-7.6836l20.758 20.863c0.63281 0.63281 1.457 0.94922 2.2852 0.94922 0.82031 0 1.6445-0.3125 2.2773-0.9375 1.2617-1.2578 1.2656-3.2969 0.007813-4.5625l-25.332-25.457v-7.6836z" fill="#00bac2"/>
  <path d="m128.48 305.99c-1.2578 1.2656-1.25 3.3047 0.007813 4.5625 1.2656 1.2539 3.3047 1.25 4.5625-0.007812l31.453-31.613v59.047c0 1.7812 1.4453 3.2227 3.2227 3.2227 1.7812 0 3.2227-1.4453 3.2227-3.2227l0.003906-59.047 31.453 31.613c0.63281 0.63281 1.457 0.94922 2.2852 0.94922 0.82031 0 1.6445-0.3125 2.2773-0.9375 1.2617-1.2578 1.2656-3.2969 0.007813-4.5625l-36.023-36.207v-13.914l31.453 31.613c0.63281 0.63281 1.457 0.94922 2.2852 0.94922 0.82031 0 1.6445-0.3125 2.2773-0.9375 1.2617-1.2578 1.2656-3.2969 0.007813-4.5625l-36.023-36.203v-14.531l31.453 31.613c0.63281 0.63281 1.457 0.94922 2.2852 0.94922 0.82031 0 1.6445-0.3125 2.2773-0.9375 1.2617-1.2578 1.2656-3.2969 0.007813-4.5625l-36.023-36.207v-14.535l31.453 31.613c0.63281 0.63281 1.457 0.94922 2.2852 0.94922 0.82031 0 1.6445-0.3125 2.2773-0.9375 1.2617-1.2578 1.2656-3.2969 0.007813-4.5625l-36.961-37.148c-1.2109-1.2148-3.3594-1.2148-4.5703 0l-36.965 37.148c-1.2578 1.2656-1.25 3.3047 0.007813 4.5625 1.2656 1.2539 3.3047 1.25 4.5625-0.007812l31.453-31.613v14.535l-36.023 36.199c-1.2578 1.2656-1.25 3.3047 0.007813 4.5625 1.2656 1.2539 3.3047 1.25 4.5625-0.007812l31.453-31.613v14.531l-36.023 36.203c-1.2578 1.2656-1.25 3.3047 0.007813 4.5625 1.2656 1.2539 3.3047 1.25 4.5625-0.007813l31.453-31.613v13.914z" fill="#00bac2"/>
  <path d="m254.3 378.64c-1.7812 0-3.2227 1.4453-3.2227 3.2227 0 1.7812 1.4453 3.2227 3.2227 3.2227h50.371c1.7812 0 3.2227-1.4453 3.2227-3.2227 0-1.7812-1.4453-3.2227-3.2227-3.2227z" fill="#00bac2"/>
  <path d="m245.86 366.54c0-1.7812-1.4453-3.2227-3.2227-3.2227l-50.371-0.003906c-1.7812 0-3.2227 1.4453-3.2227 3.2227 0 1.7812 1.4453 3.2227 3.2227 3.2227h50.371c1.7812 0.003906 3.2227-1.4414 3.2227-3.2188z" fill="#00bac2"/>
  <path d="m330.61 363.32c-1.7812 0-3.2227 1.4453-3.2227 3.2227 0 1.7812 1.4453 3.2227 3.2227 3.2227h50.371c1.7812 0 3.2227-1.4453 3.2227-3.2227 0-1.7812-1.4453-3.2227-3.2227-3.2227z" fill="#00bac2"/>
  <path d="m222.21 378.64c-1.7812 0-3.2227 1.4453-3.2227 3.2227 0 1.7812 1.4453 3.2227 3.2227 3.2227h13.168c1.7812 0 3.2227-1.4453 3.2227-3.2227 0-1.7812-1.4453-3.2227-3.2227-3.2227z" fill="#00bac2"/>
  <path d="m237.32 314.93c-1.7812 0-3.2227 1.4453-3.2227 3.2227 0 1.7812 1.4453 3.2227 3.2227 3.2227h13.172c1.7812 0 3.2227-1.4453 3.2227-3.2227 0-1.7812-1.4453-3.2227-3.2227-3.2227z" fill="#00bac2"/>
 </g>
</svg>
