<?xml version="1.0" encoding="UTF-8"?>
<svg width="512pt" height="512pt" version="1.1" viewBox="0 0 512 512" xmlns="http://www.w3.org/2000/svg">
 <g>
  <rect width="512" height="512"/>
  <path d="m251.34 146.73-36.902 36.543-44.066-44.066 9.6719-9.6758-22.926-23.285-50.875 50.875 23.285 22.926 9.6758-9.6719 44.066 44.066-36.543 36.902 22.93 22.93 104.61-104.61z" fill="#00bac2"/>
  <path d="m402.53 334.1-138.65-138.65-30.094 30.094 104.25 104.26-8.2383 8.2383-104.26-104.25-30.094 30.094 138.65 138.65 71.652 3.2227z" fill="#00bac2"/>
  <path d="m148.88 349.15 102.11 22.215-144.74 4.6562 208.87 24.004-50.516-50.875z" fill="#00bac2"/>
  <path d="m349.87 148.88 22.211 102.11 4.6562-144.74 24.004 208.87-50.871-50.516z" fill="#00bac2"/>
 </g>
</svg>
