<?xml version="1.0" encoding="UTF-8"?>
<svg width="512pt" height="512pt" version="1.1" viewBox="0 0 512 512" xmlns="http://www.w3.org/2000/svg">
 <defs>
  <clipPath id="b">
   <path d="m94.781 94.781h256.22v322.44h-256.22z"/>
  </clipPath>
  <clipPath id="a">
   <path d="m175 94.781h242.22v322.44h-242.22z"/>
  </clipPath>
 </defs>
 <rect width="512" height="512"/>
 <g clip-path="url(#b)">
  <path d="m215.7 376.91h-80.609v-13.434h208.24c1.7812 0 3.4883-0.70703 4.75-1.9688 1.2578-1.2578 1.9648-2.9688 1.9648-4.75v-94.043c0-1.7812-0.70703-3.4922-1.9648-4.75-1.2617-1.2617-2.9688-1.9688-4.75-1.9688h-80.609c-3.7109 0-6.7188 3.0078-6.7188 6.7188v26.871-0.003906c0 1.7852 0.70703 3.4922 1.9688 4.75 1.2578 1.2617 2.9688 1.9688 4.75 1.9688h33.586v13.434h-147.79v-161.22h127.63c1.7812 0 3.4922-0.70703 4.75-1.9648 1.2617-1.2617 1.9688-2.9688 1.9688-4.75v-40.305c0-1.7812-0.70703-3.4922-1.9688-4.75-1.2578-1.2617-2.9688-1.9688-4.75-1.9688h-174.65c-3.7109 0-6.7188 3.0078-6.7188 6.7188v309c0 1.7852 0.70703 3.4922 1.9688 4.75 1.2578 1.2617 2.9688 1.9688 4.75 1.9688h114.2c1.7812 0 3.4922-0.70703 4.75-1.9688 1.2617-1.2578 1.9688-2.9648 1.9688-4.75v-26.867c0-1.7812-0.70703-3.4922-1.9688-4.75-1.2578-1.2617-2.9688-1.9688-4.75-1.9688zm-6.7188 26.871h-100.76v-295.57h161.22v26.871h-127.63c-3.7109 0-6.7188 3.0078-6.7188 6.7188v174.65c0 1.7812 0.70703 3.4922 1.9688 4.75 1.2578 1.2617 2.9688 1.9688 4.75 1.9688h161.22c1.7812 0 3.4883-0.70703 4.75-1.9688 1.2578-1.2578 1.9648-2.9688 1.9648-4.75v-26.871c0-1.7812-0.70703-3.4883-1.9648-4.75-1.2617-1.2578-2.9688-1.9648-4.75-1.9648h-33.59v-13.438h67.176v80.609h-208.24c-3.707 0-6.7148 3.0078-6.7148 6.7188v26.871c0 1.7812 0.70703 3.4883 1.9648 4.75 1.2617 1.2578 2.9688 1.9648 4.75 1.9648h80.609z" fill="#00bac2"/>
 </g>
 <g clip-path="url(#a)">
  <path d="m410.5 94.781h-94.043c-3.7109 0-6.7188 3.0078-6.7188 6.7188v73.891h-127.63c-3.7109 0-6.7188 3.0078-6.7188 6.7188v94.043c0 1.7812 0.70703 3.4922 1.9688 4.75 1.2578 1.2617 2.9688 1.9688 4.75 1.9688h40.305c1.7812 0 3.4883-0.70703 4.75-1.9688 1.2578-1.2578 1.9648-2.9688 1.9648-4.75v-47.023h127.63c1.7812 0 3.4922-0.70703 4.75-1.9648 1.2617-1.2617 1.9688-2.9688 1.9688-4.75v-73.895h13.434v228.39h-120.91c-3.7109 0-6.7188 3.0078-6.7188 6.7188v26.871-0.003906c0 1.7852 0.71094 3.4922 1.9688 4.75 1.2617 1.2617 2.9688 1.9688 4.75 1.9688h154.5c1.7852 0 3.4922-0.70703 4.75-1.9688 1.2617-1.2578 1.9688-2.9648 1.9688-4.75v-309c0-1.7812-0.70703-3.4922-1.9688-4.75-1.2578-1.2617-2.9648-1.9688-4.75-1.9688zm-6.7148 309h-141.07v-13.438h120.91c1.7812 0 3.4883-0.70703 4.75-1.9648 1.2578-1.2617 1.9648-2.9688 1.9648-4.75v-241.83c0-1.7812-0.70703-3.4922-1.9648-4.75-1.2617-1.2617-2.9688-1.9688-4.75-1.9688h-26.871c-3.7109 0-6.7188 3.0078-6.7188 6.7188v73.891h-127.63c-3.7109 0-6.7188 3.0078-6.7188 6.7188v47.023l-26.871-0.003906v-80.609h127.63c1.7812 0 3.4922-0.70703 4.75-1.9648 1.2617-1.2617 1.9688-2.9688 1.9688-4.75v-73.895h80.609z" fill="#00bac2"/>
 </g>
</svg>
