<?xml version="1.0" encoding="UTF-8"?>
<svg width="512pt" height="512pt" version="1.1" viewBox="0 0 512 512" xmlns="http://www.w3.org/2000/svg">
 <defs>
  <clipPath id="a">
   <path d="m137 94.781h243v322.44h-243z"/>
  </clipPath>
 </defs>
 <rect width="512" height="512"/>
 <g clip-path="url(#a)">
  <path d="m164.64 417.22h182.71c4.2734 0 8.375-1.6992 11.398-4.7227 3.0234-3.0234 4.7227-7.1211 4.7227-11.398v-21.496c4.2734 0 8.375-1.6992 11.398-4.7227 3.0234-3.0234 4.7227-7.125 4.7227-11.398v-37.617c-0.011718-3.8242-2.0586-7.3516-5.375-9.2539v-158.84c3.3164-1.9023 5.3633-5.4297 5.375-9.2539v-37.617c0-4.2734-1.6992-8.375-4.7227-11.398-3.0234-3.0234-7.125-4.7227-11.398-4.7227h-37.617c-3.8242 0.011719-7.3516 2.0586-9.2539 5.375h-151.96c-7.125 0.007812-13.953 2.8398-18.992 7.8789-5.0391 5.0352-7.8711 11.867-7.8789 18.988v263.32c0.007812 7.125 2.8398 13.953 7.8789 18.992 5.0391 5.0391 11.867 7.8711 18.992 7.8789zm204.21-53.738c0 1.4258-0.56641 2.793-1.5742 3.8008s-2.375 1.5742-3.8008 1.5742h-37.617v-8.5234l34.469-34.469h8.5234zm-50.59-10.746-0.003906-0.003906c-2.0078 2.0195-3.1367 4.75-3.1484 7.6016v3.1484h-145.1v-252.58h145.1v3.1484c0.011719 2.8516 1.1406 5.582 3.1484 7.6016l34.469 34.469c2.0195 2.0078 4.75 3.1367 7.6016 3.1484h3.1484v155.84h-3.1484c-2.8516 0.011719-5.582 1.1406-7.6016 3.1484zm7.5977-247.21h37.617c1.4258 0 2.793 0.56641 3.8008 1.5742 1.0078 1.0078 1.5742 2.375 1.5742 3.8008v37.617h-8.5234l-34.469-34.469zm-166.59 6.3633v252.12c-3.9062 0.83594-7.5781 2.5312-10.75 4.9609v-241.95c0.015625-3.3203 1.0547-6.5586 2.9805-9.2656 1.9219-2.7109 4.6367-4.7578 7.7695-5.8672zm-6.0625 267.09c3.0352-3.0312 7.1445-4.7422 11.438-4.75h151.96c1.9023 3.3164 5.4297 5.3633 9.2539 5.375h26.871v21.496h-0.003906c0 1.4258-0.56641 2.793-1.5742 3.8008-1.0078 1.0078-2.375 1.5742-3.7969 1.5742h-182.71c-4.2773 0.003906-8.3789-1.6914-11.406-4.707-3.0273-3.0195-4.7305-7.1172-4.7344-11.395-0.007812-4.2734 1.6836-8.375 4.7031-11.402z" fill="#00bac2"/>
 </g>
 <path d="m293.62 395.72h26.871c2.9688 0 5.375-2.4062 5.375-5.375 0-2.9648-2.4062-5.3711-5.375-5.3711h-26.871c-2.9688 0-5.375 2.4062-5.375 5.3711 0 2.9688 2.4062 5.375 5.375 5.375z" fill="#00bac2"/>
 <path d="m186.14 395.72h85.98c2.9688 0 5.375-2.4062 5.375-5.375 0-2.9648-2.4062-5.3711-5.375-5.3711h-85.98c-2.9688 0-5.375 2.4062-5.375 5.3711 0 2.9688 2.4062 5.375 5.375 5.375z" fill="#00bac2"/>
 <path d="m266.75 148.52c-22.805 0-44.676 9.0586-60.801 25.184s-25.184 37.996-25.184 60.801c0 22.805 9.0586 44.676 25.184 60.801s37.996 25.184 60.801 25.184c22.801 0 44.672-9.0586 60.797-25.184s25.184-37.996 25.184-60.801c-0.027344-22.797-9.0938-44.648-25.211-60.77-16.121-16.117-37.977-25.188-60.77-25.215zm0 161.22c-19.957 0-39.094-7.9258-53.203-22.035s-22.035-33.246-22.035-53.199 7.9258-39.09 22.035-53.199c14.109-14.109 33.246-22.035 53.203-22.035 19.953 0 39.09 7.9258 53.199 22.035 14.109 14.109 22.035 33.246 22.035 53.199-0.023437 19.949-7.957 39.07-22.059 53.176-14.105 14.105-33.23 22.039-53.176 22.059z" fill="#00bac2"/>
 <path d="m325.22 210.45c-1.6211-4.9258-6.2383-8.2383-11.426-8.1875h-27.164l-8.4961-24.184c-1.7031-4.8203-6.2617-8.0469-11.371-8.0469-5.1133 0-9.6719 3.2266-11.371 8.0469l-8.5312 24.184h-27.164c-5.1562-0.015625-9.75 3.2656-11.41 8.1484-1.6641 4.8828-0.027343 10.281 4.0703 13.418l21.195 16.379-11.242 31.996c-1.7617 5.0312-0.003906 10.617 4.3164 13.738 4.3203 3.1211 10.176 3.0273 14.398-0.22266l25.723-19.867 25.746 19.883c4.2344 3.2578 10.113 3.3242 14.418 0.15625 4.3242-3.0977 6.0742-8.6797 4.2969-13.691l-11.242-32.004 21.164-16.352c4.1328-3.0977 5.7891-8.5156 4.0898-13.395zm-59.711-28.82c0.1875-0.51953 0.67969-0.86328 1.2344-0.86328 0.55078 0 1.0469 0.34375 1.2344 0.86328l7.2461 20.633h-16.957zm-46.594 33.668c-0.46484-0.30078-0.64844-0.89453-0.43359-1.4062 0.14844-0.55078 0.66797-0.92188 1.2344-0.88281h23.383l-5.8047 16.508zm15.586 61.898c-0.44922 0.39844-1.125 0.39844-1.5742 0-0.49219-0.30078-0.6875-0.91797-0.45703-1.4453l10.059-28.637 15.445 11.93zm11.781-40.758 8.2109-23.43h24.504l8.2344 23.43-20.484 15.832zm54.781 39.332c0.22656 0.52734 0.03125 1.1406-0.45703 1.4414-0.44531 0.38672-1.1016 0.38672-1.5469 0l-23.5-18.16 15.445-11.93zm13.512-60.445-18.375 14.191-5.8086-16.508h23.402c0.57031-0.039062 1.0898 0.33203 1.2383 0.88281 0.21094 0.52344 0.019532 1.1289-0.45703 1.4336z" fill="#00bac2"/>
</svg>
