<?xml version="1.0" encoding="UTF-8"?>
<svg width="512pt" height="512pt" version="1.1" viewBox="0 0 512 512" xmlns="http://www.w3.org/2000/svg">
 <g>
  <rect width="512" height="512"/>
  <path d="m256 154.11 30.309 50.301c9.3516 1.9336 17.734 4.8359 25.797 8.3828l-48.367-80.609c-1.6133-2.5781-4.5156-4.1914-7.7383-4.1914s-6.125 1.6133-7.7383 4.1914l-48.367 80.289c8.0625-3.5469 16.445-6.4492 25.797-8.3828z" fill="#00bac2"/>
  <path d="m407.87 370.46-38.367-63.52c-3.2227 3.8711-7.7383 8.3828-12.898 12.898l28.051 46.109h-257.3l28.051-46.109c-5.1602-4.8359-9.3516-9.3516-12.898-12.898l-38.367 63.52c-1.6133 2.5781-1.6133 6.125 0 9.0273 1.6133 2.9023 4.5156 4.5156 7.7383 4.5156h288.58c3.2227 0 6.125-1.6133 7.7383-4.5156 1.2891-2.8984 1.2891-6.125-0.32422-9.0273z" fill="#00bac2"/>
  <path d="m256 344.35c59.973 0 96.73-41.594 106.73-54.492 4.1914-5.4805 4.1914-12.898 0-18.379-9.9961-12.574-46.754-54.168-106.73-54.168s-96.73 41.594-106.73 54.492c-4.1914 5.4805-4.1914 12.898 0 18.379 9.9961 12.574 46.754 54.168 106.73 54.168zm54.816-96.086c19.344 10.965 32.242 25.473 37.723 32.566-5.4805 7.0938-18.379 21.281-37.723 32.242 5.8047-9.3516 9.0273-20.637 9.0273-32.566-0.32422-11.605-3.5469-22.57-9.0273-32.242zm-54.816-14.508c25.797 0 47.074 20.957 47.074 47.074 0.003906 26.117-21.277 47.074-47.074 47.074s-47.074-20.957-47.074-47.074 21.281-47.074 47.074-47.074zm-54.812 14.508c-5.8047 9.3516-9.0273 20.637-9.0273 32.566s3.2227 22.895 9.0273 32.566c-19.348-11.285-32.246-25.473-37.727-32.566 5.4805-7.0938 18.379-21.602 37.727-32.566z" fill="#00bac2"/>
  <path d="m256 312.75c17.734 0 31.922-14.188 31.922-31.922s-14.188-31.922-31.922-31.922c-4.5156 0-8.707 0.96875-12.574 2.5781 5.4805 1.6133 9.3516 6.7695 9.3516 12.898 0 7.418-6.125 13.543-13.543 13.543-6.125 0-10.965-3.8711-12.898-9.3516-1.6133 3.8711-2.5781 8.0625-2.5781 12.574 0.32031 17.414 14.508 31.602 32.242 31.602z" fill="#00bac2"/>
 </g>
</svg>
