<?xml version="1.0" encoding="UTF-8"?>
<svg width="512pt" height="512pt" version="1.1" viewBox="0 0 512 512" xmlns="http://www.w3.org/2000/svg">
 <g>
  <rect width="512" height="512"/>
  <path d="m154.53 150.72c-3.3867-3.3867-7.8984-5.2539-12.703-5.2539h-0.03125c-4.8047 0-9.3203 1.8711-12.703 5.2891-3.418 3.418-5.2891 7.9648-5.2891 12.801 0 4.7734 1.8711 9.2852 5.2539 12.641 3.418 3.4492 7.9336 5.3203 12.605 5.3203 0.71094 0 1.418-0.03125 2.0977-0.12891l27.633 30.855v12.254l-10.867 19.539c-2.1914 4-1.4844 9.0273 1.7422 12.254l2.4492 2.4492c2.1602 2.1602 5.0312 3.3203 8.0938 3.3203 0.45312 0 0.90234-0.097656 1.3555-0.16016 3.3516 17.668 9.707 34.402 18.895 49.883l-12.477 11.414c-0.41797 0.38672-0.71094 0.83984-0.87109 1.3555l-12.414 37.727c-0.38672 1.1602-0.066406 2.418 0.77344 3.2891 0.61328 0.61328 1.4492 0.93359 2.2891 0.93359 0.32422 0 0.67578-0.066406 1-0.16016l37.727-12.414c0.51562-0.16016 1-0.48438 1.3555-0.87109l8.2539-8.9961c8.6719 8.3828 18.316 15.801 28.891 21.992l6.7695 3.9648c0.51562 0.28906 1.0625 0.45312 1.6445 0.45312s1.1289-0.16016 1.6445-0.45312l6.7695-3.9648c10.445-6.1602 20.121-13.574 28.891-21.992l8.2539 8.9961c0.38672 0.41797 0.83984 0.71094 1.3555 0.90234l37.727 12.414c0.32422 0.097656 0.67578 0.16016 1 0.16016 0.83984 0 1.6758-0.32422 2.2891-0.93359 0.87109-0.87109 1.1602-2.1289 0.77344-3.2891l-12.414-37.727c-0.16016-0.51563-0.48437-1-0.87109-1.3555l-12.477-11.414c9.1914-15.477 15.508-32.242 18.895-49.883 0.45312 0.066406 0.90234 0.16016 1.3555 0.16016 2.9648 0 5.9023-1.1602 8.0938-3.3203l2.4492-2.4492c3.2227-3.2227 3.9336-8.2539 1.7422-12.254l-10.832-19.539v-12.254l27.633-30.855c0.71094 0.097656 1.3867 0.12891 2.0977 0.12891 4.6758 0 9.1914-1.8711 12.605-5.2891 3.3477-3.4492 5.2188-7.9336 5.2188-12.703 0-4.8359-1.8711-9.3516-5.2891-12.77-3.3867-3.418-7.8984-5.2891-12.703-5.2891h-0.03125c-4.8047 0-9.2852 1.8711-12.703 5.2539-3.9336 3.9336-5.7734 9.3203-5.1602 14.703l-11.738 10.48v-1.1914c0-1.4492-0.93359-2.707-2.3203-3.0938-14.027-4.0312-25.535-14.508-30.855-28.02-0.48438-1.2266-1.6758-2.0312-3-2.0312l-96.828-0.003906c-1.3203 0-2.5156 0.80469-3 2.0312-5.2891 13.512-16.832 23.988-30.855 28.02-1.3867 0.38672-2.3203 1.6758-2.3203 3.0938v1.1914l-11.738-10.48c0.64453-5.4102-1.1953-10.797-5.1289-14.73zm-20.926 20.895c-2.1602-2.1602-3.3516-5.0273-3.3516-8.0938 0-3.0938 1.1914-5.9961 3.418-8.2227 2.1602-2.1914 5.0625-3.3867 8.1562-3.3867 3.0625 0 5.9648 1.1914 8.125 3.3516 2.8359 2.8359 4 6.8047 3.0938 10.641v0.03125c-0.48438 2.1602-1.5469 4.1289-3.0938 5.6758-1.5156 1.5469-3.4805 2.6133-5.6758 3.0938-3.8672 0.91016-7.832-0.25-10.672-3.0898zm18.059 6.8672c0.32422-0.19531 0.64453-0.38672 0.96875-0.61328 0.67578-0.51562 1.2891-1.0625 1.9023-1.6445 0.61328-0.61328 1.1602-1.2266 1.6758-1.9023 0.28906-0.38672 0.51562-0.77344 0.77344-1.1602 0.19531-0.32422 0.41797-0.61328 0.61328-0.93359l14.93 13.348 17.637 15.801-10.445 10.445-2.6445-2.9336-26.504-29.602c0.35156-0.28516 0.70703-0.57812 1.0938-0.80469zm160.54 16.254-22.539-12.477c-3.9648-2.2266-8.9961-1.5469-12.285 1.707l-2.418 2.418c-2.1602 2.1602-3.3516 5.0312-3.3516 8.0938 0 3.0312 1.2266 5.9648 3.3203 7.9961 2.7422 2.8359 7.8047 2.9023 10.641 0.03125 0.41797-0.41797 1.0312-0.41797 1.4844 0l12.027 12.027-43.082 39.5-43.047-39.469 12.027-12.027c0.28906-0.28906 0.58203-0.32422 0.71094-0.32422 0.19531 0 0.48438 0.066406 0.74219 0.32422 2.8359 2.8359 7.8672 2.8047 10.609 0 2.1602-2.1602 3.3516-4.9961 3.3516-8.0625 0-3.0625-1.1914-5.9336-3.3516-8.0625l-2.4492-2.4844c-3.2578-3.2227-8.3203-3.9023-12.254-1.6758l-22.57 12.512v-4.0938c9.0586-5.5156 16.961-12.996 23.023-21.766h66.359c6.0625 8.7695 13.961 16.25 23.023 21.766l-0.007812 4.0664zm-14.609 97.441-16.992-15.605 31.375-34.211c-1 17.473-5.9336 34.5-14.383 49.816zm-21.762-19.93-9.9297-9.125-5.125-4.707 42.852-39.305 10.93 10.93zm-106.54-18.086-2.4492-2.4492c-1.1914-1.1914-1.4844-3.0938-0.64453-4.5781l15.93-28.73 14.641-14.641 0.25781-0.12891 1.1289-0.61328c0.03125 0 0.03125-0.03125 0.066406-0.03125l27.309-15.121c1.4844-0.83984 3.3203-0.58203 4.5469 0.61328l2.4492 2.4844c0.93359 0.93359 1.4492 2.1602 1.4492 3.4805-0.003907 1.3203-0.55078 2.5781-1.4844 3.5117 0 0.03125-0.03125 0.03125-0.066406 0.066406-0.51563 0.54688-0.96875 0.41797-1.418-0.03125-2.8047-2.8047-7.7695-2.8359-10.574 0l-44.113 44.113c-1.418 1.418-2.2266 3.3203-2.1914 5.3516 0 2 0.80469 3.8711 2.1914 5.2539 0.25781 0.25781 0.32422 0.58203 0.32422 0.74219 0 0.19531-0.066407 0.48438-0.32422 0.74219-0.35547 0.35547-0.74219 0.64453-1.1289 0.83984-0.74219 0.38672-1.5469 0.58203-2.3867 0.58203-0.93359-0.007813-2.3203-0.26562-3.5117-1.457zm45.109 38.047c-8.4492-15.348-13.383-32.371-14.379-49.816l31.406 34.242zm-34.211-32.855c0.22656-0.19531 0.45313-0.38672 0.64453-0.61328 1.418-1.418 2.1914-3.2891 2.1914-5.3203s-0.77344-3.9023-2.2266-5.3516c-0.22656-0.22656-0.28906-0.51562-0.28906-0.67578 0-0.16016 0.03125-0.48438 0.32422-0.74219l12.027-12.027 0.45312 0.48438v0.61328c0 21.41 5.5781 42.434 16.121 61.004l-11.574 10.609c-8.6445-14.898-14.578-31.023-17.672-47.98zm26.086 88.734-30.855 10.156 10.156-30.855 16.348-14.992 13.832-12.672c0.03125-0.03125 0.03125-0.03125 0.03125-0.066406l19.992-18.316 5.9961 6.5117 9.8672 10.77zm49.719-44.66 17.605 19.184c-5.418 4.9023-11.285 9.3516-17.605 13.219-6.2891-3.8359-12.156-8.2852-17.605-13.188zm5.1289 57.074-5.1289 2.9961-5.125-3c-10.156-5.9648-19.508-13.059-27.828-21.121l10.965-11.961c6.2539 5.6445 13.09 10.641 20.348 14.93 1 0.61328 2.2578 0.61328 3.2891 0 7.3203-4.3203 14.156-9.3203 20.348-14.961l10.996 11.996c-8.4531 8.0938-17.805 15.188-27.863 21.121zm75.449-2.2578-30.855-10.156-9.8359-10.738c-0.03125-0.03125-0.03125-0.03125-0.03125-0.066406l-15.285-16.672c-0.03125-0.03125-0.03125-0.03125-0.066406-0.03125l-33.562-36.594-8.5781-9.3828s-0.03125 0-0.03125-0.03125l-40.887-44.531 10.93-10.93 54.332 49.848 11.125 10.223s0.03125 0 0.03125 0.03125l22.121 20.281c0.097656 0.097656 0.16016 0.19531 0.25781 0.28906l30.18 27.633zm-22.473-50.883-9.4805-8.6719-2.1289-1.9336c10.574-18.574 16.121-39.629 16.121-61.004v-0.61328l0.45312-0.48438 12.027 12.027c0.28906 0.28906 0.32422 0.58203 0.32422 0.74219 0 0.25781-0.097656 0.51562-0.32422 0.71094-1.418 1.418-2.1914 3.3203-2.1914 5.3203s0.77344 3.9023 2.1914 5.3203c0.22656 0.22656 0.41797 0.41797 0.64453 0.61328-3.0312 16.922-8.9648 33.047-17.637 47.973zm31.051-55.652-2.4492 2.4492c-1.5469 1.5469-3.9336 1.9023-5.9023 0.83984-0.38672-0.19531-0.77344-0.48438-1.1289-0.83984-0.25781-0.25781-0.32422-0.54688-0.32422-0.74219 0-0.16016 0.03125-0.48438 0.32422-0.74219 1.418-1.418 2.1914-3.2891 2.1914-5.2891s-0.77344-3.9023-2.1914-5.3203l-29.699-29.699-14.379-14.406c-1.418-1.418-3.2891-2.1914-5.2891-2.1914s-3.8711 0.77344-5.2891 2.1914c-0.45312 0.45312-0.83984 0.67578-1.4844-0.03125-0.93359-0.90234-1.4492-2.1602-1.4492-3.4805 0-1.3555 0.51562-2.5469 1.4844-3.5469l2.3867-2.418c1.2578-1.2266 3.0625-1.4844 4.5781-0.64453l27.375 15.156 1.3555 0.74219 14.641 14.641 15.93 28.73c0.80078 1.5078 0.54297 3.4102-0.67969 4.6016zm-10.16-42.883-2.6445 2.9336-10.445-10.445 32.535-29.148c0.25781 0.45312 0.54688 0.87109 0.83984 1.2891 0.16016 0.25781 0.32422 0.54688 0.51562 0.80469 0.51562 0.67578 1.0625 1.2891 1.6445 1.9023 0.61328 0.61328 1.2266 1.1602 1.9023 1.6758 0.28906 0.22656 0.61328 0.38672 0.90234 0.58203 0.41797 0.25781 0.80469 0.54688 1.2266 0.80469zm27.055-53.523c2.1602-2.1602 5.0625-3.3516 8.125-3.3516 3.0938 0 5.9648 1.2266 8.1562 3.3867 2.1914 2.1914 3.418 5.125 3.3867 8.2227 0 3.0625-1.1914 5.9336-3.3516 8.0938-2.8047 2.8359-6.8047 4-10.672 3.0938-2.1602-0.48438-4.1289-1.5469-5.6758-3.0938-1.5469-1.5156-2.6133-3.4805-3.0938-5.6758-0.875-3.875 0.28516-7.8711 3.125-10.676zm-184.21 21.762c14.188-4.8047 25.859-15.477 31.891-29.082h92.57c6.0312 13.641 17.703 24.281 31.891 29.082v4.6094l-15.508 13.863v-6.7695c0-1.1602-0.61328-2.2266-1.6133-2.8047-9.3516-5.3828-17.477-13.027-23.441-22.121-0.61328-0.90234-1.6133-1.4492-2.707-1.4492l-69.809 0.003907c-1.0977 0-2.0977 0.54687-2.707 1.4492-5.9648 9.0938-14.09 16.734-23.441 22.121-1 0.58203-1.6133 1.6445-1.6133 2.8047v6.7695l-15.508-13.863z" fill="#00bac2"/>
 </g>
</svg>
