<?xml version="1.0" encoding="UTF-8"?>
<svg width="512pt" height="512pt" version="1.1" viewBox="0 0 512 512" xmlns="http://www.w3.org/2000/svg">
 <g>
  <rect width="512" height="512"/>
  <path d="m386.97 290.81-10.035 0.91406 0.80469 8.8477-20.422-3.4023-0.57812-6.3594-10.035 0.91406 0.57812 6.3789h0.003906c-13.969 8.1367-29.125 14.047-44.918 17.512l-14.477-20.684 8.4141-14.023 10.793 17.992c0.91016 1.5156 2.5508 2.4453 4.3203 2.4453h0.054687c1.7891-0.019531 3.4336-0.98438 4.3203-2.5391l15.883-27.797 10.688 17.812h0.003907c0.91016 1.5195 2.5508 2.4453 4.3203 2.4453s3.4062-0.92578 4.3203-2.4453l9.8867-16.48 6.3047 15.762 9.3555-3.7422-10.078-25.191c-0.71094-1.7773-2.3672-3-4.2734-3.1523-1.9102-0.15234-3.7383 0.78906-4.7227 2.4297l-10.793 17.992-10.793-17.992h-0.003906c-0.91797-1.5312-2.582-2.4648-4.3711-2.4453-1.7891 0.019531-3.4336 0.98438-4.3203 2.5391l-15.887 27.797-10.688-17.812c-0.91016-1.5195-2.5508-2.4453-4.3203-2.4453-1.7695 0-3.4102 0.92578-4.3203 2.4453l-10.422 17.371-26.473-37.82-0.007813 0.007812v-0.003906c-0.96094-1.3828-2.5547-2.1953-4.2383-2.1562-1.6875 0.039063-3.2422 0.91797-4.1406 2.3477l-21.215 33.496-5.6055-8.4062h0.003907c-0.96875-1.4531-2.6211-2.3008-4.3672-2.2383-1.7422 0.058594-3.332 1.0195-4.1992 2.5352l-15.133 26.48-11.129-25.969c-0.78906-1.8398-2.5938-3.0391-4.5977-3.0547-2.0039-0.011719-3.8242 1.1641-4.6367 2.9922l-16.109 36.25-15.215-26.625c-0.88281-1.5391-2.5039-2.5039-4.2773-2.5391-1.7695-0.035156-3.4297 0.86328-4.3711 2.3672l-25.191 40.305c-0.96875 1.5547-1.0195 3.5117-0.13281 5.1133 0.88672 1.6016 2.5742 2.5938 4.4062 2.5938h6.2148l-10.535 17.562c-0.93359 1.5547-0.95703 3.4922-0.0625 5.0742 0.89453 1.5781 2.5664 2.5547 4.3828 2.5547h6.2148l-10.535 17.562c-0.93359 1.5547-0.95703 3.4922-0.0625 5.0742 0.89453 1.5781 2.5664 2.5547 4.3828 2.5547h2.6367l-6.0469 15.113h-6.6641v10.078h302.29v-10.078h-10.516zm-0.45703 106.26h-20.109l-6.4453-70.906c6.7109-3.0859 13.105-6.8203 19.094-11.152zm-190.21-50.379h11.242l-11.469 22.938c-0.78125 1.5586-0.69922 3.4141 0.21875 4.9023 0.91797 1.4844 2.543 2.3867 4.2891 2.3867h25.191c2.4609 0 4.5625-1.7812 4.9688-4.2109l4.3359-26.016h10.848v50.383l-81.531-0.003906zm22.508 0h6.0547l-3.3594 20.152h-12.77zm37.191-79.742 35.527 50.758-21.316 3.875h0.003906c-2.3359 0.42578-4.0586 2.4219-4.1367 4.793-0.007813 0.27734 0.007813 0.55469 0.042969 0.83203l0.003906 0.039063v0.011718l9.3125 69.812h-19.438zm21.09 66.273 10.531 2.6367 26.234 61.211h-28.258zm21.816 3.3906h5.8555l42.32 60.457h-22.27zm18.09-0.097656c11.324-0.46875 22.516-2.625 33.199-6.3984l5.625 61.859zm52.445-27.109c-3.3672 2.2148-6.8594 4.2305-10.461 6.0391l-0.71875-7.8984zm-20.191 10.332h0.003906c-11.777 4.4883-24.273 6.793-36.879 6.8008h-13.105c17.156-3.1914 33.699-9.0742 49.016-17.434zm-103.32 16.875h-43.242l43.242-68.277zm-116.74 37.48c-0.9375-1.3828-2.5-2.2148-4.1719-2.2148h-1.1797l10.535-17.559c0.93359-1.5547 0.96094-3.4961 0.066406-5.0742-0.89453-1.5781-2.5703-2.5547-4.3867-2.5547h-6.2148l10.535-17.562c0.93359-1.5547 0.96094-3.4961 0.066406-5.0742-0.89453-1.5781-2.5703-2.5547-4.3867-2.5547h-6.0234l15.906-25.453 15.973 27.949v0.003906c0.94141 1.6484 2.7305 2.6289 4.6289 2.5312 1.8945-0.09375 3.5781-1.25 4.3477-2.9844l15.465-34.797 10.566 24.656 0.003906 0.003906c0.75 1.7539 2.4336 2.9336 4.3398 3.043 1.9102 0.10938 3.7148-0.87109 4.6641-2.5273l16.109-28.188 3.5664 5.3477-67.125 105.98h-30.094l7.3125-18.281c0.62109-1.5508 0.42969-3.3125-0.50391-4.6953z" fill="#00bac2"/>
  <path d="m397.07 205.62c-0.003906-4.0078-1.5977-7.8516-4.4297-10.684-2.8359-2.8359-6.6758-4.4297-10.684-4.4336h-35.266c-2.7852 0-5.0391-2.2539-5.0391-5.0352 0-2.7852 2.2539-5.0391 5.0391-5.0391h5.0391-0.003906c5.4023 0 10.391-2.8828 13.09-7.5586 2.6992-4.6758 2.6992-10.438 0-15.113-2.6992-4.6758-7.6875-7.5586-13.09-7.5586h-30.227c-2.7812 0-5.0391-2.2539-5.0391-5.0352 0-2.7852 2.2578-5.0391 5.0391-5.0391h10.078-0.003907c5.4023 0 10.391-2.8828 13.09-7.5586 2.6992-4.6758 2.6992-10.438 0-15.113-2.6992-4.6758-7.6875-7.5586-13.09-7.5586h-45.34c-4.0078 0.003907-7.8516 1.5977-10.684 4.4336-2.832 2.832-4.4297 6.6758-4.4336 10.684v5.0391l-10.664-0.003906c-3.3438 0-6.6641 0.56641-9.8164 1.6797-1.5391-11.184-8.3398-20.949-18.293-26.27-1.7695-0.94922-3.9336-0.75781-5.5078 0.48828-1.5742 1.2461-2.2578 3.3086-1.7422 5.2461 1.6133 6.0273 0.34375 12.461-3.4375 17.422-3.7812 4.9609-9.6445 7.8906-15.883 7.9375-6.2383 0.042969-12.145-2.8047-15.996-7.7109-1.2422-1.5781-3.3008-2.2656-5.2422-1.7578-1.9414 0.51172-3.3945 2.1289-3.6953 4.1133-0.99219 6.4688-0.16016 13.086 2.3945 19.109 2.5586 6.0234 6.7422 11.219 12.082 15h-5.0938c-3.9336 0-7.7031 1.5586-10.484 4.3398-2.7812 2.7773-4.3438 6.5508-4.3438 10.48v0.25391c0 4.0156 1.5898 7.8672 4.4258 10.711 2.8359 2.8438 6.6836 4.4453 10.699 4.4531h0.29688c2.6133 0 4.7305 2.1172 4.7305 4.7305v0.25781-0.003906c0.007812 2.7969-2.2461 5.0742-5.043 5.0938h-20.148c-5.3984 0-10.387 2.8789-13.09 7.5547-2.6992 4.6758-2.6992 10.438 0 15.113 2.7031 4.6797 7.6914 7.5586 13.09 7.5586h40.305c4.4688-0.003906 8.8047-1.4922 12.336-4.2266s6.0586-6.5625 7.1797-10.887h20.789c5.3438-0.007813 10.465-2.1328 14.246-5.9102 3.7773-3.7773 5.9023-8.8984 5.9062-14.242h15.621c1.168 5.6836 4.2617 10.793 8.7578 14.465 4.4961 3.6719 10.121 5.6797 15.926 5.6875h70.535c4.0078-0.003906 7.8477-1.5977 10.684-4.4336 2.832-2.832 4.4258-6.6758 4.4297-10.68zm-191.45-58.992c7.2188-0.011718 14.199-2.6016 19.68-7.3047s9.0977-11.207 10.199-18.344c3.4922 4.4375 5.3906 9.9219 5.3867 15.57 0 0.30859-0.015625 0.61328-0.027344 0.92188-5.5742 4.8984-9.1016 11.719-9.8867 19.102-6.6797 5.0977-15.457 6.5312-23.41 3.8164-7.9531-2.7109-14.027-9.207-16.203-17.324 4.3867 2.3477 9.2852 3.5703 14.262 3.5625zm90.684 48.914c0-1.3359-0.53125-2.6172-1.4766-3.5625-0.94531-0.94531-2.2266-1.4766-3.5625-1.4766h-25.188c-2.7852 0-5.0391 2.2578-5.0391 5.0391v5.0391c-0.007812 5.5625-4.5156 10.07-10.078 10.074h-25.188c-2.7852 0-5.0391 2.2578-5.0391 5.0391-0.007813 5.5625-4.5156 10.07-10.078 10.078h-40.305c-2.7812 0-5.0352-2.2578-5.0352-5.0391 0-2.7852 2.2539-5.0391 5.0352-5.0391h20.152c4.0117-0.011718 7.8555-1.6133 10.688-4.457 2.8359-2.8398 4.4258-6.6875 4.4297-10.699v-0.25781c0-3.9297-1.5586-7.6953-4.3359-10.477-2.7773-2.7773-6.5469-4.3398-10.473-4.3359h-0.30859c-2.793-0.019531-5.0469-2.293-5.0352-5.0898v-0.25c0-1.2617 0.5-2.4688 1.3906-3.3594s2.0977-1.3906 3.3555-1.3906l45.633 0.011719c1.3359 0 2.6172-0.53125 3.5625-1.4766 0.94531-0.94531 1.4766-2.2266 1.4766-3.5625v-10.664c0.003906-5.1875 2.0703-10.16 5.7344-13.828 3.668-3.668 8.6406-5.7305 13.828-5.7344h15.703c1.3359 0 2.6172-0.53125 3.5625-1.4766 0.94531-0.94531 1.4766-2.2266 1.4766-3.5625v-10.074c0.003906-2.7812 2.2578-5.0352 5.0391-5.0391h45.344-0.003907c2.7852 0 5.0391 2.2539 5.0391 5.0391 0 2.7812-2.2539 5.0352-5.0391 5.0352h-10.074c-5.3984 0-10.391 2.8828-13.09 7.5586s-2.6992 10.438 0 15.113 7.6914 7.5586 13.09 7.5586h30.23-0.003906c2.7852 0 5.0391 2.2539 5.0391 5.0391 0 2.7812-2.2539 5.0352-5.0391 5.0352h-5.0391 0.003906c-5.4023 0-10.391 2.8828-13.09 7.5586-2.6992 4.6758-2.6992 10.438 0 15.113 2.6992 4.6758 7.6875 7.5586 13.09 7.5586h35.266c2.7812 0 5.0391 2.2539 5.0391 5.0391 0 2.7812-2.2578 5.0352-5.0391 5.0352h-70.535c-4.0039-0.003906-7.8477-1.5977-10.68-4.4297-2.8359-2.8359-4.4297-6.6758-4.4336-10.684z" fill="#00bac2"/>
  <path d="m109.89 180.43h10.078v10.078h-10.078z" fill="#00bac2"/>
  <path d="m140.12 119.97h10.078v10.078h-10.078z" fill="#00bac2"/>
  <path d="m125.01 130.05h10.078v10.078h-10.078z" fill="#00bac2"/>
  <path d="m130.05 230.81h10.078v10.078h-10.078z" fill="#00bac2"/>
  <path d="m155.24 165.32h10.078v10.078h-10.078z" fill="#00bac2"/>
  <path d="m180.43 109.89h10.078v10.078h-10.078z" fill="#00bac2"/>
  <path d="m356.76 130.05h10.078v10.078h-10.078z" fill="#00bac2"/>
  <path d="m386.99 165.32h10.078v10.078h-10.078z" fill="#00bac2"/>
  <path d="m371.88 119.97h10.078v10.078h-10.078z" fill="#00bac2"/>
  <path d="m321.5 235.85h10.078v10.078h-10.078z" fill="#00bac2"/>
  <path d="m336.61 225.77h10.078v10.078h-10.078z" fill="#00bac2"/>
 </g>
</svg>
