<?xml version="1.0" encoding="UTF-8"?>
<svg width="512pt" height="512pt" version="1.1" viewBox="0 0 512 512" xmlns="http://www.w3.org/2000/svg">
 <g>
  <rect width="512" height="512"/>
  <path d="m228.29 311.42c-4.6758 0-9.1602 1.8594-12.469 5.168-3.3047 3.3047-5.1641 7.7891-5.1641 12.465 0 4.6797 1.8594 9.1641 5.1641 12.469 3.3086 3.3086 7.793 5.168 12.469 5.168 4.6797 0 9.1641-1.8594 12.469-5.168 3.3086-3.3047 5.168-7.7891 5.168-12.469 0-4.6758-1.8594-9.1602-5.168-12.465-3.3047-3.3086-7.7891-5.168-12.469-5.168zm0 25.191c-3.0547 0-5.8086-1.8398-6.9805-4.6641-1.168-2.8242-0.52344-6.0742 1.6367-8.2383 2.1641-2.1602 5.4141-2.8047 8.2383-1.6367 2.8242 1.1719 4.6641 3.9258 4.6641 6.9805 0 4.1758-3.3828 7.5586-7.5586 7.5586z" fill="#00bac2"/>
  <path d="m210.66 296.3v-10.074h-10.074v-10.078h-10.078v10.078h-10.074v10.074h10.074v10.078h10.078v-10.078z" fill="#00bac2"/>
  <path d="m251.57 227.94 4.4336-8.9688c-15.496-8.0117-33.129-10.922-50.379-8.3125l1.4609 10.078c15.215-2.293 30.77 0.22656 44.484 7.2031z" fill="#00bac2"/>
  <path d="m269.86 241.24c7.0859 7.0859 12.656 15.535 16.375 24.84-16.426-7.457-48.418-18.238-75.57-5.0391-15.113-7.2031-36.375-9.3711-53.051-9.4219h-0.003906c8.8047-12.965 21.566-22.738 36.375-27.859l-3.2734-9.5234c-22.926 7.9297-41.25 25.465-50.18 48.02-8.9297 22.555-7.5781 47.879 3.707 69.355 11.285 21.473 31.375 36.953 55.016 42.395 23.637 5.4375 48.473 0.29297 68.008-14.09 19.535-14.383 31.82-36.57 33.648-60.758 1.8242-24.191-6.9961-47.973-24.148-65.121zm20.152 38.137v0.003906c1.7891 9.6719 1.6367 19.605-0.45312 29.219-44.738-5.8945-46.352-24.887-67.762-40.91 27.406-8.6641 60.152 7.3555 68.164 11.691zm-20.152 65.496c-16.336 16.535-39.562 24.309-62.559 20.941-23-3.3711-43.02-17.484-53.922-38.012-10.906-20.523-11.391-45.016-1.3125-65.957 14.211-0.54688 28.43 0.82812 42.273 4.082 41.109 10.078 31.789 43.832 92.297 52.445-3.5938 9.8945-9.3203 18.871-16.777 26.301z" fill="#00bac2"/>
  <path d="m165.62 286.23-10.078-1.3086v-0.003906c-1.4375 10.996 0.0625 22.176 4.3477 32.406 4.2812 10.23 11.195 19.145 20.039 25.836l6.0977-8.0117h-0.003907c-7.3984-5.6406-13.18-13.133-16.762-21.723-3.582-8.5898-4.8398-17.969-3.6406-27.195z" fill="#00bac2"/>
  <path d="m364.17 111.3c-1.0156-0.97656-2.3945-1.4844-3.8008-1.3984-1.4102 0.085938-2.7148 0.75781-3.6055 1.8516l-21.562 27.559-13.703-13.805c-1.9648-1.9531-5.1406-1.9531-7.1055 0l-14.309 14.258c-0.95312 0.94922-1.4883 2.2344-1.4883 3.5781s0.53516 2.6328 1.4883 3.5781l7.1055 7.1055-43.43 43.48v-0.003907c-30.273-14.457-65.605-13.699-95.234 2.0391-29.625 15.742-50.031 44.598-54.992 77.777-4.9648 33.18 6.1016 66.746 29.82 90.469 23.723 23.719 57.289 34.785 90.469 29.82 33.18-4.9609 62.035-25.367 77.777-54.992 15.738-29.629 16.496-64.965 2.0391-95.234l43.43-43.48 7.1523 7.1523c1.9648 1.957 5.1367 1.957 7.1055 0l14.258-14.258c0.95312-0.94531 1.4883-2.2305 1.4883-3.5742s-0.53516-2.6328-1.4883-3.5781l-13.707-13.754 27.559-21.461c1.1367-0.88281 1.8398-2.207 1.9375-3.6406 0.09375-1.4336-0.42578-2.8398-1.4336-3.8672zm-60.457 131.5c-1.5586 1.5547-1.9258 3.9414-0.90625 5.8945 14.219 27.262 14.477 59.699 0.69141 87.184s-39.938 46.672-70.293 51.578c-30.352 4.9102-61.219-5.0664-82.961-26.809-21.742-21.742-31.715-52.605-26.809-82.961s24.094-56.504 51.582-70.289c27.484-13.785 59.918-13.531 87.18 0.69141 1.9531 1.0156 4.3398 0.64844 5.8945-0.91016l46.047-45.996 7.3594 7.1016-14.258 14.258c-1.9531 1.9688-1.9531 5.1406 0 7.1055l14.258 14.258c1.9648 1.9531 5.1367 1.9531 7.1016 0l14.258-14.258 7.1523 7.1523zm31.789-60.457-10.477 10.883-7.1523-7.1055 10.68-10.73zm32.246 18.238-56.98-57.234 7.1055-7.1055 57.027 56.984zm-3.125-31.641-22.219-22.219 18.691-24.031 27.559 27.508z" fill="#00bac2"/>
 </g>
</svg>
