<?xml version="1.0" encoding="UTF-8"?>
<svg width="512pt" height="512pt" version="1.1" viewBox="0 0 512 512" xmlns="http://www.w3.org/2000/svg">
 <g>
  <rect width="512" height="512"/>
  <path d="m328.98 176.57v-16.77c0-0.10938-0.027344-0.21484-0.027344-0.34766 0-0.1875-0.027344-0.375-0.054687-0.5625-0.027344-0.1875-0.082032-0.34766-0.13281-0.51172-0.054687-0.16016-0.082031-0.32422-0.16016-0.48437-0.082031-0.1875-0.16016-0.34766-0.24219-0.53906-0.054687-0.10938-0.082031-0.21484-0.13281-0.29688l-3.0352-5.0781c2.8477-0.13281 5.1055-2.4727 5.1055-5.3477v-10.828c0-2.957-2.418-5.375-5.375-5.375s-5.375 2.418-5.375 5.375v5.4531h-0.75391l-6.2891-10.559c-0.96875-1.6133-2.7148-2.6328-4.6211-2.6328s-3.6562 0.99609-4.6211 2.6328l-6.2891 10.559h-0.75391v-10.828c0-2.957-2.418-5.375-5.375-5.375-2.957 0-5.375 2.418-5.375 5.375v16.203c0 2.875 2.2852 5.2109 5.1055 5.3477l-3.0352 5.0781c-0.054688 0.10938-0.082031 0.21484-0.13281 0.29688-0.082031 0.1875-0.1875 0.34766-0.24219 0.53906-0.054688 0.16016-0.10938 0.32422-0.16016 0.48437-0.054687 0.16016-0.082031 0.34766-0.13281 0.51172-0.027344 0.1875-0.054688 0.375-0.054688 0.5625 0 0.10938-0.027343 0.21484-0.027343 0.34766v14.672l-24.801-27.758v-1.1289h3.3047c0.72656 2.0977 2.7148 3.6016 5.0508 3.6016 2.3906 0 4.3789-1.5586 5.0781-3.707 2.4453-0.51172 4.2734-2.6602 4.2734-5.2656 0-2.5508-1.7734-4.6758-4.1641-5.2383-0.58984-2.3125-2.6875-4.0312-5.1875-4.0312-2.4453 0-4.4883 1.6406-5.1328 3.8945h-3.2227v-0.53906c0-2.957-2.418-5.375-5.375-5.375-2.957 0-5.375 2.418-5.375 5.375v0.53906h-4.5391c-0.64453-2.2305-2.6875-3.8945-5.1328-3.8945-2.4727 0-4.5391 1.6914-5.1602 3.9766-2.5273 0.45703-4.4336 2.6328-4.4336 5.2656 0 2.6875 1.9609 4.8633 4.5156 5.293 0.69922 2.1211 2.7148 3.6797 5.0781 3.6797 2.3359 0 4.3242-1.5039 5.0508-3.6016h4.6211v1.1289l-26.117 29.234v-16.121c0-0.10938-0.027344-0.21484-0.027344-0.34766 0-0.1875-0.027344-0.375-0.054687-0.5625-0.027344-0.1875-0.082031-0.34766-0.13281-0.51172-0.054687-0.16016-0.082031-0.32422-0.16016-0.48437-0.082031-0.1875-0.16016-0.34766-0.24219-0.53906-0.054687-0.10938-0.082031-0.21484-0.13281-0.29688l-3.0352-5.0781c2.8477-0.13281 5.1055-2.4727 5.1055-5.3477v-10.828c0-2.957-2.418-5.375-5.375-5.375-2.957 0-5.375 2.418-5.375 5.375v5.4531h-0.75391l-6.2891-10.559c-0.96875-1.6133-2.7148-2.6328-4.6211-2.6328s-3.6562 0.99609-4.6211 2.6328l-6.2891 10.559h-0.75391v-10.828c0-2.957-2.418-5.375-5.375-5.375-2.957 0-5.375 2.418-5.375 5.375v16.203c0 2.875 2.2578 5.2109 5.1055 5.3477l-3.0352 5.0781c-0.054688 0.10938-0.082031 0.21484-0.13281 0.29688-0.082032 0.1875-0.1875 0.34766-0.24219 0.53906-0.054688 0.16016-0.10938 0.32422-0.16016 0.48437-0.054688 0.16016-0.082032 0.34766-0.13281 0.51172-0.027343 0.1875-0.054687 0.375-0.054687 0.5625 0 0.10938-0.027344 0.21484-0.027344 0.34766v16.848c-37.105 21.309-59.27 56.887-59.27 95.605 0 63.227 59.355 114.68 132.33 114.68s132.33-51.457 132.33-114.68c0.003907-38.586-22.191-74.352-59.352-95.684zm22.141 160.3-12.496-26.117c-0.88672-1.8555-2.7695-3.0352-4.8359-3.0352h-155.63c-2.0703 0-3.9492 1.1836-4.8359 3.0352l-12.547 25.984c-10.051-10.828-17.625-23.375-22.008-37.055h234.49c-4.4336 13.758-12.039 26.359-22.141 37.188zm-167.59-47.91v-34.77l20.582-19.238 22.273 20.824c0.082031 0.082032 0.1875 0.13281 0.29688 0.21484 0.13281 0.10938 0.26953 0.21484 0.42969 0.32422 0.16016 0.10938 0.29688 0.1875 0.45703 0.26953 0.16016 0.082031 0.29688 0.16016 0.45703 0.21484 0.16016 0.054687 0.32422 0.10938 0.51172 0.16016 0.16016 0.054688 0.32422 0.10938 0.48438 0.13281 0.16016 0.027344 0.34766 0.054688 0.51172 0.082032 0.16016 0.027344 0.32422 0.027344 0.51172 0.027344 0.16016 0 0.34766-0.027344 0.51172-0.027344 0.16016-0.027344 0.34766-0.027344 0.51172-0.054688 0.16016-0.027344 0.32422-0.082031 0.51172-0.13281 0.16016-0.054688 0.32422-0.10938 0.48438-0.16016 0.16016-0.054688 0.32422-0.13281 0.48438-0.24219 0.16016-0.082031 0.29688-0.16016 0.45703-0.26953 0.16016-0.10938 0.29688-0.21484 0.42969-0.32422 0.10938-0.082031 0.1875-0.13281 0.29688-0.21484l22.266-20.824 22.273 20.824c0.10937 0.082032 0.21484 0.16016 0.32422 0.24219 0.13281 0.10938 0.24219 0.21484 0.375 0.29688 0.16016 0.10938 0.32422 0.1875 0.48438 0.26953 0.13281 0.082031 0.26953 0.16016 0.42969 0.21484 0.1875 0.082031 0.375 0.13281 0.53906 0.1875 0.13281 0.054687 0.26953 0.082031 0.42969 0.10938 0.1875 0.054687 0.40234 0.054687 0.58984 0.082031 0.13281 0 0.26953 0.027344 0.40234 0.027344h0.10938c0.13281 0 0.26953-0.027344 0.42969-0.054688 0.1875-0.027344 0.34766-0.027344 0.53906-0.054687 0.16016-0.027344 0.34766-0.082031 0.51172-0.13281 0.16016-0.054687 0.34766-0.082031 0.51172-0.16016 0.16016-0.082031 0.32422-0.16016 0.48438-0.24219 0.16016-0.082031 0.32422-0.16016 0.48438-0.26953 0.13281-0.10938 0.26953-0.21484 0.42969-0.32422 0.10938-0.082031 0.21484-0.16016 0.32422-0.24219l22.273-20.824 20.582 19.238v34.77l-145-0.003907zm10.238-123.79h20.664v64.73l-6.6641-6.2344c-2.0703-1.9336-5.2656-1.9336-7.3359 0l-6.6641 6.2344zm62.902-8.3281 23.16 25.93h-6.5547c-0.91406-8.3555-8.0078-14.914-16.605-14.914s-15.719 6.5312-16.605 14.914h-6.5547zm25.285 87.648-5.1875-4.8359v-21.094c0-10.695-9.3242-19.375-20.77-19.375s-20.77 8.6797-20.77 19.375v21.094l-5.1875 4.8359-4.8906-4.5664c0-0.082032 0.027344-0.13281 0.027344-0.1875v-46.219h61.641v46.402zm-15.934-14.887-6.3672-5.9375c-2.0703-1.9336-5.2656-1.9336-7.3359 0l-6.3672 5.9375v-11.043c0-4.7578 4.4883-8.625 10.023-8.625 5.5352 0 10.023 3.8711 10.023 8.625l-0.003906 11.043zm-15.02-46.832c0.77734-2.3906 3.0078-4.1641 5.6445-4.1641 2.6328 0 4.8906 1.7461 5.6445 4.1641zm60.562 40.895c-2.0703-1.9336-5.2656-1.9336-7.3359 0l-6.6641 6.2344v-64.73h20.664v64.73zm-3.6523-79.723 6.2344 10.48h-12.496zm-103.83 0 6.2344 10.48h-12.496zm-21.062 45.223v50.543c0 0.082031 0.027343 0.13281 0.027343 0.21484l-8.5742 8.0039c-1.0742 1.0195-1.6914 2.4453-1.6914 3.9219v37.105l-36.758 0.003906c-1.0195-5.4258-1.5859-11.016-1.5859-16.688-0.027344-32.969 18.004-63.492 48.582-83.105zm-14.137 155.5 12.629-26.172h148.89l12.574 26.305c-22.086 19.375-52.906 31.41-86.977 31.41-34.125-0.027344-64.996-12.117-87.113-31.543zm207.09-55.703h-36.758v-37.105c0-1.4766-0.61719-2.9023-1.6914-3.9219l-8.543-7.9805v-50.785c30.523 19.613 48.582 50.273 48.582 83.082 0.023438 5.6953-0.53906 11.258-1.5898 16.711z" fill="#00bac2"/>
  <path d="m194.93 252.91c-2.957 0-5.375 2.418-5.375 5.375v2.6328c0 2.957 2.418 5.375 5.375 5.375s5.375-2.418 5.375-5.375v-2.6328c0-2.9844-2.4219-5.375-5.375-5.375z" fill="#00bac2"/>
  <path d="m212.42 252.91c-2.957 0-5.375 2.418-5.375 5.375v2.6328c0 2.957 2.418 5.375 5.375 5.375s5.375-2.418 5.375-5.375v-2.6328c0-2.9844-2.418-5.375-5.375-5.375z" fill="#00bac2"/>
  <path d="m247.27 252.91c-2.957 0-5.375 2.418-5.375 5.375v2.6328c0 2.957 2.418 5.375 5.375 5.375s5.375-2.418 5.375-5.375v-2.6328c-0.003906-2.9844-2.4219-5.375-5.375-5.375z" fill="#00bac2"/>
  <path d="m264.73 252.91c-2.957 0-5.375 2.418-5.375 5.375v2.6328c0 2.957 2.418 5.375 5.375 5.375s5.375-2.418 5.375-5.375v-2.6328c-0.003906-2.9844-2.3945-5.375-5.375-5.375z" fill="#00bac2"/>
  <path d="m299.15 252.91c-2.957 0-5.375 2.418-5.375 5.375v2.6328c0 2.957 2.418 5.375 5.375 5.375 2.957 0 5.375-2.418 5.375-5.375v-2.6328c0-2.9844-2.3906-5.375-5.375-5.375z" fill="#00bac2"/>
  <path d="m316.64 252.91c-2.957 0-5.375 2.418-5.375 5.375v2.6328c0 2.957 2.418 5.375 5.375 5.375s5.375-2.418 5.375-5.375v-2.6328c0-2.9844-2.418-5.375-5.375-5.375z" fill="#00bac2"/>
  <path d="m194.93 270.73c-2.957 0-5.375 2.418-5.375 5.375v2.6328c0 2.957 2.418 5.375 5.375 5.375s5.375-2.418 5.375-5.375v-2.6328c0-2.957-2.4219-5.375-5.375-5.375z" fill="#00bac2"/>
  <path d="m212.42 270.73c-2.957 0-5.375 2.418-5.375 5.375v2.6328c0 2.957 2.418 5.375 5.375 5.375s5.375-2.418 5.375-5.375v-2.6328c0-2.957-2.418-5.375-5.375-5.375z" fill="#00bac2"/>
  <path d="m247.27 270.73c-2.957 0-5.375 2.418-5.375 5.375v2.6328c0 2.957 2.418 5.375 5.375 5.375s5.375-2.418 5.375-5.375v-2.6328c-0.003906-2.957-2.4219-5.375-5.375-5.375z" fill="#00bac2"/>
  <path d="m264.73 270.73c-2.957 0-5.375 2.418-5.375 5.375v2.6328c0 2.957 2.418 5.375 5.375 5.375s5.375-2.418 5.375-5.375v-2.6328c-0.003906-2.957-2.3945-5.375-5.375-5.375z" fill="#00bac2"/>
  <path d="m299.15 270.73c-2.957 0-5.375 2.418-5.375 5.375v2.6328c0 2.957 2.418 5.375 5.375 5.375 2.957 0 5.375-2.418 5.375-5.375v-2.6328c0-2.957-2.3906-5.375-5.375-5.375z" fill="#00bac2"/>
  <path d="m316.64 270.73c-2.957 0-5.375 2.418-5.375 5.375v2.6328c0 2.957 2.418 5.375 5.375 5.375s5.375-2.418 5.375-5.375v-2.6328c0-2.957-2.418-5.375-5.375-5.375z" fill="#00bac2"/>
  <path d="m230.04 270.73c-2.957 0-5.375 2.418-5.375 5.375v2.6328c0 2.957 2.418 5.375 5.375 5.375s5.375-2.418 5.375-5.375v-2.6328c0-2.957-2.3906-5.375-5.375-5.375z" fill="#00bac2"/>
  <path d="m281.96 270.73c-2.957 0-5.375 2.418-5.375 5.375v2.6328c0 2.957 2.418 5.375 5.375 5.375s5.375-2.418 5.375-5.375v-2.6328c0-2.957-2.418-5.375-5.375-5.375z" fill="#00bac2"/>
 </g>
</svg>
