<?xml version="1.0" encoding="UTF-8"?>
<svg width="512pt" height="512pt" version="1.1" viewBox="0 0 512 512" xmlns="http://www.w3.org/2000/svg">
 <g>
  <rect width="512" height="512"/>
  <path d="m214.64 242.52v14.852c0 9.0938 7.4141 16.488 16.523 16.488h50.16c9.0898 0 16.484-7.3984 16.484-16.488v-14.852c21.945-14.203 34.98-38.074 34.98-64.289 0-42.219-34.348-76.566-76.566-76.566-20.453 0-39.68 7.9648-54.141 22.426s-22.426 33.691-22.426 54.141c0 13.367 3.5078 26.531 10.141 38.07 6.0703 10.555 14.633 19.582 24.844 26.219zm-7.2109-113.08c13.035-13.035 30.363-20.211 48.797-20.211 38.051 0 69.008 30.957 69.008 69.012 0 24.27-12.398 46.316-33.168 58.973-1.125 0.6875-1.8125 1.9102-1.8125 3.2266v16.938c0 4.9258-4.0039 8.9336-8.9297 8.9336h-50.16c-4.9453 0-8.9648-4.0078-8.9648-8.9336v-16.938c0-1.3164-0.68359-2.5391-1.8086-3.2266-20.77-12.684-33.172-34.73-33.172-58.977 0-18.434 7.1758-35.766 20.211-48.797z" fill="#00bac2"/>
  <path d="m233.99 242.62c-2.0859 0-3.7773 1.6914-3.7773 3.7773v12.742c0 2.0859 1.6914 3.7773 3.7773 3.7773 2.0859 0 3.7773-1.6914 3.7773-3.7773v-12.742c0-2.0859-1.6914-3.7773-3.7773-3.7773z" fill="#00bac2"/>
  <path d="m245.09 262.92c2.0859 0 3.7773-1.6914 3.7773-3.7773v-12.742c0-2.0859-1.6914-3.7773-3.7773-3.7773-2.0859 0-3.7773 1.6914-3.7773 3.7773v12.742c-0.003906 2.0859 1.6875 3.7773 3.7773 3.7773z" fill="#00bac2"/>
  <path d="m256.22 242.62c-2.0859 0-3.7773 1.6914-3.7773 3.7773v12.742c0 2.0859 1.6914 3.7773 3.7773 3.7773 2.0859 0 3.7773-1.6914 3.7773-3.7773v-12.742c0-2.0859-1.6914-3.7773-3.7773-3.7773z" fill="#00bac2"/>
  <path d="m267.36 242.62c-2.0859 0-3.7773 1.6914-3.7773 3.7773v12.742c0 2.0859 1.6914 3.7773 3.7773 3.7773s3.7773-1.6914 3.7773-3.7773v-12.742c0-2.0859-1.6914-3.7773-3.7773-3.7773z" fill="#00bac2"/>
  <path d="m278.5 262.92c2.0859 0 3.7773-1.6914 3.7773-3.7773v-12.742c0-2.0859-1.6914-3.7773-3.7773-3.7773s-3.7773 1.6914-3.7773 3.7773v12.742c-0.003906 2.0859 1.6875 3.7773 3.7773 3.7773z" fill="#00bac2"/>
  <path d="m348.7 344.5c-4.1406-2.3945-8.8477-3.6602-13.613-3.6602-4.9141 0-9.793 1.3594-13.984 3.8633l-20.523-11.859 20.523-11.852c4.2031 2.5156 9.0859 3.8789 14 3.8789 4.7695 0 9.4766-1.2734 13.594-3.6758 6.3008-3.6328 10.805-9.4961 12.688-16.512 1.8828-7.0156 0.92188-14.348-2.7031-20.633-1.5234-2.6641-3.4609-5.0195-5.7812-7.0156-0.5625-2.9414-1.625-5.7891-3.168-8.4922-4.8477-8.4023-13.895-13.621-23.613-13.621-4.7539 0-9.4492 1.2578-13.59 3.6484-8.6016 4.9766-13.758 14.207-13.59 24.004l-2.9531 1.7227-11.684 6.7422c-0.3125 0.10156-0.61719 0.24609-0.90625 0.43359-0.15625 0.10156-0.29688 0.21875-0.42969 0.33594l-10.629 6.1367c-0.46094 0.09375-0.91016 0.26953-1.3281 0.54297-0.28516 0.1875-0.53516 0.41016-0.75 0.65625l-14.035 8.1016-42.715-24.68c0.16406-9.793-4.9883-19.02-13.598-24-4.1367-2.3828-8.832-3.6445-13.586-3.6445-9.7188 0-18.766 5.2188-23.621 13.633-1.5352 2.6875-2.5938 5.5312-3.1602 8.4805-2.2578 1.9492-4.1914 4.293-5.7734 6.9961-3.6328 6.3008-4.5977 13.633-2.7148 20.648 1.8828 7.0156 6.3906 12.879 12.672 16.5 4.1328 2.4102 8.8398 3.6836 13.609 3.6836 4.9141 0 9.8008-1.3633 14-3.8789l20.551 11.848-20.555 11.863c-4.1914-2.5039-9.0703-3.8672-13.984-3.8672-4.7656 0-9.4727 1.2656-13.609 3.6602-12.992 7.5-17.469 24.172-9.9609 37.184 1.5742 2.6836 3.5078 5.0234 5.7617 6.9727 0.5625 2.9492 1.625 5.7969 3.168 8.5 4.8477 8.4023 13.895 13.621 23.613 13.621 4.7539 0 9.4531-1.2617 13.594-3.6484 8.6016-4.9766 13.754-14.203 13.59-23.996l5.1055-2.9492c0.41016-0.10156 0.80859-0.26562 1.1797-0.51172 0.24219-0.16016 0.45703-0.34375 0.64844-0.54688l10.289-5.9414c0.50391-0.085937 1-0.26953 1.457-0.57031 0.32422-0.21484 0.60156-0.46875 0.83594-0.75391l9.8125-5.6641c0.58594-0.058594 1.1719-0.25 1.6992-0.59375 0.39844-0.26172 0.73047-0.58984 0.99219-0.95703l10.707-6.1836 42.703 24.672c-0.16016 9.7969 4.9922 19.02 13.594 24 4.1367 2.3867 8.8359 3.6484 13.59 3.6484 9.7148 0 18.766-5.2188 23.621-13.637 1.5391-2.6953 2.5977-5.543 3.1602-8.4805 2.3203-1.9961 4.2578-4.3438 5.7734-6.9961 7.4922-12.988 3.0195-29.656-9.9727-37.156zm-157.5-31.727c-0.78906 0-1.5781 0.24609-2.2383 0.73437-3.3398 2.457-7.4688 3.8086-11.625 3.8086-3.4336 0-6.8242-0.91797-9.8203-2.6641-4.5508-2.625-7.8047-6.8594-9.1641-11.926-1.3594-5.0664-0.66406-10.363 1.9492-14.891 1.3477-2.3008 3.043-4.2461 5.0391-5.7773 0.79688-0.60938 1.3164-1.5117 1.4453-2.5039 0.33203-2.5156 1.1641-4.957 2.4688-7.2344 3.5039-6.0703 10.043-9.8398 17.07-9.8398 3.4297 0 6.8242 0.91016 9.8086 2.6328 6.7422 3.9023 10.555 11.418 9.707 19.145-0.16406 1.4883 0.57031 2.9336 1.8672 3.6836l40.961 23.668-29.23 16.859-26.348-15.188c-0.58984-0.33984-1.2383-0.50781-1.8906-0.50781zm14.637 68.664c0.84766 7.7305-2.9609 15.242-9.6992 19.141-2.9883 1.7266-6.3828 2.6367-9.8125 2.6367-7.0234 0-13.562-3.7695-17.059-9.8242-1.3125-2.2969-2.1445-4.7383-2.4766-7.2539-0.13281-0.99219-0.65234-1.8945-1.4453-2.5039-1.9961-1.5312-3.6914-3.4727-5.0273-5.75-5.4141-9.3828-2.1797-21.426 7.207-26.844 2.9922-1.7305 6.3906-2.6445 9.8281-2.6445 4.1602 0 8.2852 1.3477 11.609 3.793 1.207 0.88672 2.8281 0.98047 4.1289 0.23047l78.906-45.547 4.7188 7.1719c0.72656 1.1016 1.9297 1.7031 3.1602 1.7031 0.71094 0 1.4336-0.20312 2.0742-0.62109 1.7422-1.1484 2.2266-3.4883 1.0781-5.2344l-4.4766-6.8047 5.7773-3.3359 4.7773 7.2383c0.72656 1.1016 1.9297 1.6953 3.1562 1.6953 0.71484 0 1.4375-0.20312 2.0781-0.625 1.7422-1.1484 2.2188-3.4922 1.0703-5.2344l-4.5273-6.8594 5.7852-3.3398 4.8281 7.3359c0.72656 1.1016 1.9297 1.7031 3.1602 1.7031 0.71094 0 1.4336-0.20312 2.0742-0.62109 1.7422-1.1484 2.2266-3.4883 1.0781-5.2344l-4.5938-6.9805 1.5352-0.89453c1.2891-0.75 2.0156-2.1914 1.8516-3.6758-0.84766-7.7266 2.9609-15.242 9.6992-19.141 2.9883-1.7227 6.3828-2.6328 9.8125-2.6328 7.0273 0 13.566 3.7695 17.062 9.8242 1.3125 2.3008 2.1484 4.7383 2.4766 7.2461 0.13281 0.99609 0.65234 1.8984 1.4492 2.5078 2.0547 1.5742 3.7422 3.5039 5.0234 5.7539 2.625 4.5508 3.3203 9.8477 1.9609 14.914-1.3594 5.0664-4.6133 9.3008-9.1797 11.934-2.9805 1.7383-6.3711 2.6562-9.8047 2.6562-4.1562 0-8.2852-1.3516-11.625-3.8086-1.207-0.88672-2.8281-0.98047-4.1289-0.22656l-27.902 16.113c-0.11328 0.050781-0.22656 0.10156-0.33203 0.16406l-36.785 21.254c-0.050781 0.03125-0.097656 0.066406-0.14844 0.097656l-10.715 6.1875-4.6367-7.0508c-1.1484-1.7422-3.4883-2.2266-5.2344-1.082-1.7422 1.1484-2.2266 3.4883-1.082 5.2344l4.3945 6.6875-5.7539 3.3203-4.7266-7.1484c-1.1523-1.7422-3.4961-2.2188-5.2344-1.0664-1.7422 1.1523-2.2188 3.4961-1.0664 5.2344l4.4727 6.7656-5.7891 3.3438-4.7773-7.2188c-1.1523-1.7422-3.4961-2.2188-5.2344-1.0664-1.7422 1.1523-2.2188 3.4961-1.0664 5.2344l4.5234 6.8359-4.5547 2.6289c-1.293 0.75-2.0273 2.1953-1.8633 3.6836zm146.29-3.5391c-1.2773 2.2344-2.9648 4.1641-5.0195 5.7344-0.79687 0.60938-1.3203 1.5117-1.4492 2.5078-0.32812 2.5039-1.1602 4.9453-2.4688 7.2344-3.5039 6.0703-10.043 9.8398-17.066 9.8398-3.4297 0-6.8242-0.91016-9.8086-2.6328-6.7422-3.8984-10.551-11.414-9.7031-19.145 0.16406-1.4883-0.56641-2.9336-1.8672-3.6836l-40.953-23.66 29.246-16.887 26.32 15.211c1.3008 0.75 2.9219 0.66016 4.1289-0.22656 3.3242-2.4453 7.4492-3.793 11.609-3.793 3.4375 0 6.8398 0.91406 9.832 2.6445 9.3867 5.418 12.621 17.457 7.1992 26.855z" fill="#00bac2"/>
  <path d="m324.43 276.57c1.6992-0.98047 3.8906-0.39844 4.8828 1.3008 0.70312 1.2031 1.9688 1.875 3.2656 1.875 0.64844 0 1.3008-0.16797 1.9023-0.51562 1.8008-1.0508 2.4102-3.3672 1.3594-5.168-3.0859-5.2852-9.8984-7.0898-15.191-4.0352-1.8047 1.043-2.4258 3.3555-1.3789 5.1641 1.043 1.8047 3.3555 2.4219 5.1602 1.3789z" fill="#00bac2"/>
  <path d="m190.24 390.17c-1.7383 0.98438-3.9336 0.41016-4.8906-1.2812-1.0273-1.8164-3.3359-2.4531-5.1484-1.4258-1.8164 1.0273-2.4531 3.332-1.4258 5.1484 2.0273 3.582 5.7852 5.5938 9.6641 5.5938 1.8711 0 3.7734-0.46875 5.5234-1.457 1.8164-1.0273 2.457-3.332 1.4297-5.1484-1.0312-1.8164-3.3359-2.4531-5.1523-1.4297z" fill="#00bac2"/>
  <path d="m225.55 177.31c6.1484 0 11.152-5.0039 11.152-11.156 0-6.1484-5.0039-11.148-11.152-11.148-6.1484 0-11.152 5-11.152 11.148 0 6.1523 5.0039 11.156 11.152 11.156zm0-14.746c1.9805 0 3.5938 1.6133 3.5938 3.5898 0 1.9844-1.6133 3.5977-3.5938 3.5977-1.9805 0-3.5938-1.6133-3.5938-3.5977 0-1.9805 1.6094-3.5898 3.5938-3.5898z" fill="#00bac2"/>
  <path d="m286.89 177.31c6.1484 0 11.152-5.0039 11.152-11.156 0-6.1484-5.0039-11.148-11.152-11.148s-11.148 5-11.148 11.148c-0.003907 6.1523 5 11.156 11.148 11.156zm0-14.746c1.9805 0 3.5938 1.6133 3.5938 3.5898 0 1.9844-1.6133 3.5977-3.5938 3.5977s-3.5938-1.6133-3.5938-3.5977c0-1.9805 1.6133-3.5898 3.5938-3.5898z" fill="#00bac2"/>
  <path d="m246.42 213.86h22.195 0.011719c2.0859 0 3.7773-1.6914 3.7773-3.7773 0-0.79688-0.24609-1.5312-0.66406-2.1406l-5.418-9.3516-5.5273-9.6055c-0.67578-1.1719-1.9219-1.8945-3.2734-1.8945-1.3516 0-2.6016 0.72266-3.2734 1.8945l-5.5234 9.5977-5.5703 9.6055c-0.67578 1.168-0.67969 2.6094-0.003906 3.7812 0.66797 1.168 1.918 1.8906 3.2695 1.8906zm11.098-15.418 4.5391 7.8594h-9.082z" fill="#00bac2"/>
  <path d="m301.6 150.34c0.4375 1.8906 0.64844 3.6758 0.64844 5.4609 0 2.0859 1.6914 3.7773 3.7773 3.7773 2.0859 0 3.7773-1.6914 3.7773-3.7773 0-2.3633-0.27734-4.707-0.84375-7.1641-0.46875-2.0312-2.5-3.3008-4.5312-2.832-2.0312 0.47266-3.3008 2.5-2.8281 4.5352z" fill="#00bac2"/>
  <path d="m279.99 133.5c7.2188 0 14.027 3.5352 18.207 9.4609 0.73438 1.043 1.9023 1.5977 3.0898 1.5977 0.75391 0 1.5156-0.22656 2.1758-0.69141 1.7031-1.2031 2.1094-3.5625 0.90625-5.2656-5.5977-7.9258-14.711-12.66-24.383-12.66-2.0859 0-3.7773 1.6914-3.7773 3.7773 0 2.0898 1.6914 3.7812 3.7812 3.7812z" fill="#00bac2"/>
 </g>
</svg>
