<?xml version="1.0" encoding="UTF-8"?>
<svg width="512pt" height="512pt" version="1.1" viewBox="0 0 512 512" xmlns="http://www.w3.org/2000/svg">
 <g>
  <rect width="512" height="512"/>
  <path d="m381.95 366.84h-10.078v-15.117c-0.003906-4.0039-1.5977-7.8477-4.4297-10.68-2.8359-2.8359-6.6758-4.4297-10.684-4.4336h-201.52c-4.0078 0.003906-7.8477 1.5977-10.684 4.4336-2.832 2.832-4.4258 6.6758-4.4297 10.68v15.113l-10.078 0.003906c-4.0078 0.003906-7.8477 1.5977-10.68 4.4297-2.8359 2.8359-4.4297 6.6758-4.4336 10.684v20.152c0 1.3359 0.53125 2.6172 1.4766 3.5625 0.94531 0.94531 2.2266 1.4766 3.5625 1.4766h272.05c1.3359 0 2.6211-0.53125 3.5625-1.4766 0.94531-0.94531 1.4766-2.2266 1.4766-3.5625v-20.152c-0.003906-4.0078-1.5977-7.8477-4.4297-10.684-2.8359-2.832-6.6758-4.4258-10.684-4.4297zm-231.75-15.117c0.003906-2.7812 2.2578-5.0352 5.0391-5.0352h201.52c2.7812 0 5.0352 2.2539 5.0391 5.0352v15.113l-211.6 0.003906zm236.79 45.344h-261.98v-15.113c0-2.7812 2.2539-5.0352 5.0352-5.0391h251.91c2.7812 0.003907 5.0352 2.2578 5.0391 5.0391z" fill="#00bac2"/>
  <path d="m160.2 330.35c2.1016-1.8242 2.332-5.0039 0.51562-7.1094-21.156-24.473-32.086-56.148-30.52-88.461 1.5664-32.312 15.504-62.785 38.926-85.098 23.418-22.316 54.527-34.762 86.879-34.762s63.461 12.445 86.883 34.762c23.422 22.312 37.359 52.785 38.922 85.098 1.5664 32.312-9.3633 63.988-30.52 88.461-1.8203 2.1055-1.5898 5.2891 0.51953 7.1094 2.1055 1.8203 5.2891 1.5898 7.1094-0.51953 22.844-26.43 34.645-60.641 32.957-95.535-1.6914-34.898-16.746-67.805-42.039-91.902-25.297-24.102-58.895-37.543-93.832-37.543s-68.535 13.441-93.832 37.543c-25.293 24.098-40.348 57.004-42.035 91.902-1.6914 34.895 10.109 69.105 32.957 95.535 1.8203 2.1055 5 2.3359 7.1094 0.51953z" fill="#00bac2"/>
  <path d="m160.79 194.71c-4.6523 9.5703-7.8242 19.793-9.4023 30.312-0.41406 2.7539 1.4805 5.3203 4.2344 5.7344 0.25 0.03125 0.5 0.050782 0.75391 0.050782 2.4922-0.003906 4.6055-1.8242 4.9766-4.2891 1.4297-9.5117 4.293-18.75 8.5-27.398 1.2148-2.5039 0.17188-5.5195-2.3281-6.7344-2.5039-1.2188-5.5195-0.17578-6.7344 2.3242z" fill="#00bac2"/>
  <path d="m245.87 140.5c-0.42969-2.7422-2.9844-4.6289-5.7344-4.2383-24.574 3.7344-47.051 15.996-63.488 34.641-0.91406 0.99609-1.3906 2.3203-1.3203 3.6758 0.070313 1.3516 0.68359 2.6172 1.6992 3.5156 1.0156 0.89453 2.3516 1.3438 3.6992 1.2461 1.3516-0.10156 2.6055-0.74219 3.4805-1.7773 14.867-16.863 35.199-27.957 57.426-31.336 2.75-0.41406 4.6445-2.9766 4.2383-5.7266z" fill="#00bac2"/>
  <path d="m348.32 210.93-8.5508-2.9492c-7.3359-2.5039-13.102-8.2656-15.609-15.602l-2.9492-8.5547h0.003906c-0.70312-2.0312-2.6133-3.3945-4.7617-3.3945-2.1484 0-4.0625 1.3633-4.7617 3.3945l-2.9492 8.5508c-2.5039 7.3359-8.2656 13.102-15.602 15.609l-8.5547 2.9492v-0.003906c-2.0312 0.70312-3.3945 2.6133-3.3945 4.7617 0 2.1523 1.3633 4.0625 3.3945 4.7656l8.5508 2.9492v-0.003906c7.3359 2.5039 13.102 8.2656 15.609 15.602l2.9492 8.5547h-0.003907c0.70313 2.0312 2.6133 3.3945 4.7617 3.3945 2.1523 0 4.0625-1.3633 4.7656-3.3945l2.9492-8.5508h-0.003906c2.5039-7.3359 8.2656-13.098 15.602-15.609l8.5547-2.9492v0.003906c2.0312-0.70312 3.3945-2.6133 3.3945-4.7617 0-2.1484-1.3633-4.0625-3.3945-4.7656zm-31.867 20.465c-3.3867-6.8008-8.9023-12.316-15.703-15.703 6.8008-3.3867 12.316-8.9023 15.703-15.703 3.3906 6.8008 8.9023 12.316 15.707 15.703-6.8047 3.3867-12.32 8.9023-15.707 15.703z" fill="#00bac2"/>
  <path d="m230.81 321.5c5.3477 0 10.473-2.125 14.25-5.9023 3.7812-3.7812 5.9023-8.9062 5.9023-14.25s-2.1211-10.473-5.9023-14.25c-3.7773-3.7812-8.9023-5.9023-14.25-5.9023-5.3438 0-10.469 2.1211-14.25 5.9023-3.7773 3.7773-5.9023 8.9062-5.9023 14.25 0.007812 5.3438 2.1328 10.465 5.9102 14.242 3.7773 3.7812 8.8984 5.9062 14.242 5.9102zm0-30.23c4.0781 0 7.75 2.457 9.3086 6.2227 1.5625 3.7656 0.69922 8.0977-2.1836 10.98-2.8789 2.8828-7.2148 3.7422-10.98 2.1836s-6.2188-5.2344-6.2188-9.3086c0.007813-5.5625 4.5117-10.07 10.074-10.078z" fill="#00bac2"/>
  <path d="m225.77 205.62c1.3359 0 2.6172-0.53125 3.5625-1.4766 0.94141-0.94531 1.4727-2.2266 1.4727-3.5625v-5.0391h5.0391c2.7812 0 5.0391-2.2539 5.0391-5.0391 0-2.7812-2.2578-5.0352-5.0391-5.0352h-5.0391v-5.0391c0-2.7852-2.2539-5.0391-5.0352-5.0391-2.7852 0-5.0391 2.2539-5.0391 5.0391v5.0391h-5.0391c-2.7812 0-5.0391 2.2539-5.0391 5.0352 0 2.7852 2.2578 5.0391 5.0391 5.0391h5.0391v5.0391c0 1.3359 0.53125 2.6172 1.4766 3.5625 0.94141 0.94531 2.2227 1.4766 3.5625 1.4766z" fill="#00bac2"/>
 </g>
</svg>
