<?xml version="1.0" encoding="UTF-8"?>
<svg width="512pt" height="512pt" version="1.1" viewBox="0 0 512 512" xmlns="http://www.w3.org/2000/svg">
 <g>
  <rect width="512" height="512"/>
  <path d="m192.9 151.45c-0.72656 0-1.3867-0.25-1.8398-0.71094-0.45312-0.45703-0.69922-1.0977-0.69922-1.8047 0.003906-0.84766 0.35547-1.6758 0.96484-2.2773 1.1992-1.1836 2.8125-1.2383 3.9141-0.12891 1.0391 1.0312 1.0547 2.5312 0.046875 3.8125-0.49609 0.63672-1.3164 1.0469-2.1914 1.0977-0.070312 0.007812-0.13281 0.011718-0.19531 0.011718zm79.797 73.781c-1.5938 0.27734-3.1875 0.41406-4.7617 0.41406-12.734 0-24.375-8.7578-27.152-21.203-0.40625-1.8281-0.48828-3.2461-0.35938-6.3203 0.17578-4.2734 0.75-6.6797 2.3906-9.9219 0.20312-0.40234 0.39453-0.78906 0.53516-1.0938-0.36719-0.19531-0.93359-0.47266-1.6602-0.81641-3.1484-1.4883-3.9297-1.4375-7.6211 0.42969-2.7109 1.375-3.5391 1.6328-5.5195 1.7617-2.6523 0.16797-4.8672-0.37109-7.9297-1.9258-2.9727-1.5039-5.0078-1.8242-5.8555-1.6797-0.41016 0.078125-2.2617 0.86719-4.3672 1.9727-3.9609 2.0859-6.4297 2.8438-8.8945 1.1719-0.19922-0.13672-0.40234-0.27344-0.53125-0.34766-0.066406 0.050781-0.15625 0.12109-0.23047 0.18359-3.3516 2.707-8.8008 3.3008-12.145 1.3477-1.875-1.0938-3.8203-3.3008-4.7383-5.3711-0.59766-1.3398-0.60156-1.3281-2.5742-0.73047-4.5664 1.3984-8.4102-0.18359-10.316-4.2227-0.875-1.8555-0.96875-3.9453-0.26172-5.8828 0.83984-2.3047 2.6875-4.2227 5.2148-5.3828 2.1719-1.0078 5.4258-0.94531 8.6953 0.18359 3.207 1.1016 3.9258 0.99609 6.7734-2.7305 2.2461-2.9453 3.2812-3.8242 6.1523-5.207 2.1602-1.0391 2.6133-1.1367 5.332-1.1367 2.6992 0 3.1719 0.097656 5.0781 1.0312 1.1289 0.55469 2.625 1.5859 3.3398 2.3008l0.65625 0.65625 0.92188-0.82812c2.1719-1.9492 4.5-2.7891 7.7852-2.8008 2.4648 0.042969 2.8398 0.097656 5.168 1.2891 0.41406 0.21094 1.293 0.66406 1.7266 0.82031 0.95312-1.1992 4.1484-3.1914 5.6602-3.7578 0.96875-0.35938 2.582-0.75391 3.6055-0.87891 3.3711-0.40625 6.0898 0.066407 9.1133 1.5742 1.8633 0.93359 2.8086 1.6484 3.7422 2.8242 1.2969 1.6406 2.582 4.1602 2.9219 5.7383l0.066406 0.30469 1.9688 0.10937c2.1758 0.12109 3.1562 0.34766 4.7578 1.1016 2.2109 1.0391 4.5352 2.9766 5.5312 4.6094l0.37891 0.62109 3.2812 0.125c6.4961 0.25391 11.582 2.1172 16.492 6.0508 4.3984 3.5156 7.8398 8.8242 9.2031 14.211 0.85938 3.3906 0.86328 8.6953 0.003907 12.09-2.4883 9.8906-10.961 17.473-21.578 19.316zm-39.949-43.793 3.082-1.5859 2.7148 0.11328c2.4297 0.10156 2.9844 0.25781 6.5664 1.8555 8.4414 3.7734 11.777 3.6914 14.898-0.38672 1.9453-2.5391 1.7812-4.1445-0.67969-6.6016-1.2461-1.2461-1.8398-1.6328-3.043-1.9844-1.9102-0.55469-4.4375-0.39062-5.7383 0.37891-0.99219 0.57812-1.5859 0.76562-2.5039 0.28516-0.39844-0.20703-0.94141-0.57812-1.1836-0.9375-0.5625-0.83203-0.45312-2.4062 0.22266-3.3008 0.44922-0.60156 0.30469-1.8164-0.37891-3.2617-0.78516-1.6523-2.0234-2.8359-3.793-3.6289-0.84375-0.37891-1.9453-0.56641-3.6758-0.62891-2.707-0.10156-3.9453 0.17578-5.9727 1.3594-1.8555 1.082-2.1133 1.9258-2.1133 2.668 0 1.8164-0.77344 2.5898-2.5938 2.5898-1.2656 0-1.7734-0.375-2.7539-1.5781-1.9297-2.3633-5.3828-3.2617-8.0273-2.082-1.5977 0.71094-3 2.4648-3 3.1484 0 0.71094-0.33594 1.543-0.82031 2.0312-0.79297 0.79297-1.9844 1.0234-3.0391 0.58594-0.95703-0.39844-1.5508-1.2539-1.5508-2.2344 0-0.67578-1.5312-2.7031-3.0977-3.582-1.1992-0.67578-1.5781-0.77734-3.1133-0.77734h-0.14062c-3.2305 0.015625-4.9375 1.0234-7.6055 4.5-4.0898 5.3164-6.9258 6.3281-12.637 4.5078-2.6797-0.84766-3.4492-0.84375-4.5352-0.39062-1.1562 0.48438-2.6133 2.3438-2.6328 2.8477 0 0.9375 0.73047 2.1719 1.5 2.5391 0.66797 0.3125 0.73828 0.34766 2.1211 0.007813 0.99609-0.24219 2.7109-0.4375 3.9062-0.44531h0.078125c2.9844 0 4.0938 0.78906 5.5859 3.9531 1.2539 2.6406 2.3438 3.4883 4.4805 3.4883 0.89453 0 2.0039-0.19141 2.3984-0.35547 1.3945-0.58984 2.9453-2.0039 3.1953-2.707 0.37891-1.0703 1.0977-2.4922 3-2.4922 0.80078 0 1.4688 0.28906 1.9453 0.83594 0.64844 0.75 0.88281 1.9258 0.69531 3.4844 0.066407 0.003906 0.13672 0.011718 0.23047 0.015625 0.55078 0 1.4844-0.41406 3.5391-1.5586 1.543-0.86328 3.6328-1.9062 4.4609-2.1328 2.8281-0.78516 5.5312-0.3125 9.9648 1.7148 4.6211 2.1211 5.4688 2.0938 10.043-0.25781zm13.102 16.75c-0.1875 3.9805 0.33984 6.5117 2.0938 10.039 1.0742 2.1641 1.707 3 3.9883 5.2695 1.9766 1.9688 3.2617 2.9883 4.7422 3.7578 7.707 4 15.883 3.8867 23.023-0.30469 3.5742-2.0938 7.0703-6.2148 8.5117-10.02 1.0391-2.7539 1.293-4.1484 1.293-7.1133 0-9.5938-6.6758-17.727-16.613-20.238-1.6133-0.40625-3.4922-0.67578-4.6836-0.67578h-1.4062l-0.082031 0.61719c-0.44922 3.2383-3.9844 7.8242-7.2812 9.4414-2.2383 1.0898-6.1055 1.3516-9.1953 0.62109-0.76953-0.18359-1.4102-0.32422-1.7773-0.39844-0.41016 0.60547-1.2812 2.3477-1.8633 4.0781-0.41016 1.2109-0.65625 2.8242-0.75 4.9258zm66.527-35.312c-0.96094 1.0547-0.90625 2.4648 0.13672 3.5078 0.51172 0.51172 1.1602 0.78516 1.8203 0.78516 0.3125 0 0.62109-0.0625 0.92578-0.1875 0.95703-0.39453 1.5508-1.3203 1.5508-2.4258 0-1.0195-0.63672-1.9297-1.6289-2.3125-0.99609-0.38672-2.1055-0.13672-2.8047 0.63281zm37.898 19.621c1.543 0 2.793-1.3203 2.793-2.9375 0-1.0625-0.625-1.9688-1.6367-2.3672-1.1172-0.44531-2.3789-0.16016-3.2227 0.73438-0.80078 0.85156-1.0391 1.9844-0.61719 2.9492 0.42969 1 1.457 1.6211 2.6836 1.6211zm51.449 171.19c0.5 3.082 0.007813 4.2383-2.3906 5.6484-2.3555 1.3828-5.1602 1.7188-14.266 1.7188-10.488 0-11.887 0.18359-18.691 2.4414-6.1758 2.0469-9.5977 2.7773-13.59 2.7773-0.60156 0-1.2109-0.015625-1.8477-0.046875-5.8281-0.28516-8.5938-1.0234-14.094-3.7695-2.6328-1.3125-5.7695-2.6328-7.2891-3.0703-3.832-1.1055-5.0586-0.9375-10.875 1.4141-2.75 1.1172-5.7344 2.1328-6.8008 2.3164-2.1992 0.38672-9.8906 0.20703-12.48-0.28516-1.0234-0.19531-3.2344-1.0586-5.0352-1.9609-6.5117-3.2695-8.1484-3.2344-15.887 0.25391-7.8867 3.5586-10.383 4.1133-16.609 3.7305-4.4023-0.27344-5.0938-0.44531-10.594-2.6094-3.7383-1.4688-4.1875-1.582-6.8867-1.6953l-2.6875-0.12109-0.6875 0.65234c-1.9922 1.8867-3.5977 2.4648-6.8711 2.4648-2.7266 0-3.1523-0.089844-5.0547-1.1016-1.543-0.82031-1.9102-0.91406-3.5664-0.91406-1.5625 0-2.1992 0.14062-3.7656 0.83984l-4.5352 2.0156c-2.125 0.95313-3.0977 1.1953-5.1914 1.3086-3.4102 0.1875-5.6406-0.46484-9.8867-2.8633-2.0898-1.1875-3.9219-1.957-4.6445-2.1055-2.4297-0.49609-5.5898 0.17188-12.965 2.7461-3.9336 1.375-6.4297 1.7812-9.8633 1.6328-3.5195-0.16016-5.0312-0.82031-8.9727-3.9375-3.3086-2.6211-4.832-3.3867-7.0703-3.5547-2.1484-0.13672-5.0156 0.28906-6.6523 1.043-2.7422 1.2461-6.1133 0.73047-9.2734-1.4414-3.125-2.1445-4.2227-2.375-11.094-0.29297-8.8242 2.668-12.977 3.3906-15.922 2.7812-2.4492-0.51172-4.2578-1.5898-5.0898-3.0312-0.53125-0.92969-0.63281-1.9609-0.28906-2.9844 0.5625-1.6641 1.793-2.4336 6.8125-5.0117 5.8359-2.9883 12.297-7.1562 17.289-11.148 9.5625-7.6484 12.223-9.8711 15.801-13.199 0.25-0.23047 0.48828-0.46094 0.72266-0.67578-3.7891 1.4219-7.0469 1.0547-8.918-1.0781-0.84766-0.97266-1.0664-1.582-1.0664-2.9727 0-0.15625-0.007812-0.29688-0.011718-0.42188-0.35547 0.13672-0.86719 0.33594-1.4805 0.58984-2.9648 1.2227-5.0234 1.5469-7.3281 1.1914-2.7812-0.44922-4.5547-1.4297-5.2734-2.9258-1.6914-3.5078 2.707-5.7734 4.1523-6.5156 0.61719-0.31641 2.793-1.6719 4.75-2.9648 7.1016-4.6719 15.84-12.863 19.445-18.184-1.6328-0.082032-4.0195-1.043-5.1133-2.0781-0.48828-0.46875-1.1172-1.5312-1.4492-2.3008-0.1875-0.42188-0.37109-0.73047-0.49609-0.89844-0.25391 0.066406-0.68359 0.19531-1.168 0.36719-0.83203 0.30469-2.4297 0.52734-3.8867 0.55078-0.085938 0-0.17578 0.003907-0.25781 0.003907-3.0156 0-5.6016-0.78906-6.9609-2.1328-0.69141-0.67969-1.0547-1.4883-1.0547-2.3398 0-2.043 1.1367-2.8438 4.1367-4.4492 3.6172-1.9297 5.3477-3.1562 11.598-8.1836 4.293-3.4531 7.9883-6.7773 9.293-8.1328-0.039063-0.011719-0.082032-0.027344-0.125-0.042969-0.6875-0.22266-1.6602-0.66406-2.2617-1.0273-0.70703-0.42188-0.70703-0.42188-2.6055 0.050781-3.0234 0.76562-7.0391 0.89844-8.5156-0.19531-1.3945-1.0352-1.8477-2.4844-1.2461-3.9609 0.38281-0.94531 2.9336-3.2227 4.418-4.4961 5.9258-5.0742 9.1797-8.5195 12-12.699 0.78516-1.1719 1.5977-2.5312 2.0938-3.4336-0.14453 0.007812-0.30469 0.011719-0.47656 0.027344-3.3047 0.17188-5.3633-0.25-6.4922-1.3672-0.39453-0.39062-1.0586-1.2305-1.0586-1.9102 0-0.77344 1.125-1.8789 1.7969-2.4648 5.9219-5.1992 10.871-11.25 13.934-17.035 1.6836-3.1797 2.3516-3.832 4.9023-3.0469 1.3125 0.41016 1.6836 1.0703 3.6875 4.9883 3.5586 6.9609 7.3594 12.348 10.434 14.77 0.6875 0.54297 1.6016 1.4453 1.9492 2.0234 0.75781 1.2695 0.76953 2.5977 0.035156 3.6484-1.0273 1.4688-3.3281 2.1172-5.918 1.6797 1.375 2.1328 4.0352 6.0977 4.9258 7.2578 0.58984 0.76563 2.9727 3.3438 5.2031 5.6289 5.7891 5.9297 6.7148 7.0156 6.6562 8.8633-0.035156 1.1523-0.33984 1.8047-1.2109 2.5859-1.5859 1.4141-4.0352 1.3945-9.0391-0.074219-1.3789-0.40625-3.6445-1.0703-4.918-1.375 1.0078 2.0312 4.0742 6.8789 7.125 10.832 3.5195 4.5547 6.707 7.5859 11.008 10.457 0.66016 0.44531 3.9805 2.6719 4.3711 3.1484 0.72656 0.875 0.26953 3.2969-0.25 4.2773-1.1992 2.2461-5.4414 2.8164-10.297 1.3594l-2.1719-0.64844-1.4492 0.63672c-1.5625 0.69531-2.2695 0.81641-3.957 0.67969l-0.58203-0.046875 0.23437 0.625c1.7617 4.6914 5.4766 10.133 11.055 16.168l1.707 1.8516 1.3477-0.73047c1.3789-0.74219 2.4844-1.4609 3.1875-1.9844-0.27344-0.03125-0.58594-0.0625-0.93359-0.082031-5.125-0.35156-8.9922-3.2305-8.9922-6.6953 0-1.2773 0.38281-1.8516 1.543-2.9297 0.73438-0.68359 2.5391-2.0977 4.0352-3.1562 4.2617-3.0273 11.352-10.645 13.07-14.043l0.14453-0.28516-1.6367-0.0625c-2.8711-0.11719-3.25-0.21094-5.8008-1.5039-1.9414-0.98438-2.918-1.6094-3.2383-2.5195-0.57422-1.6523 0.28516-3.2969 2.2383-4.3125 2.1875-1.125 4.6641-3 8.543-6.4727l2.4727-2.2148-0.80078-0.12109c-1.4492-0.21875-3.3125-0.73047-4.2461-1.1523-1.4844-0.67969-2.3008-1.5586-2.4297-2.6133-0.15625-1.2617 0.69141-2.6094 2.582-4.1211 4.0664-3.2539 9.7812-10.004 12-14.164 0.38281-0.71875 1.0898-1.9219 1.4648-2.2969 0.65234-0.66406 1.707-0.71094 2.2188-0.69922 0.42188 0.007813 1.4688 0.10547 2.0586 0.76172 0.55078 0.60547 2.1797 4.293 2.2461 4.4492 2.543 5.7539 4.5273 8.9883 7.582 12.355 1.9492 2.1523 2.7812 3.7812 1.2578 5.7422-1.043 1.3477-2.7773 1.8398-5.7188 1.5977l-0.83203-0.066406c0.60547 1.0781 1.5625 2.3086 3.8125 4.9609 2.9453 3.4766 6.4023 6.4258 9.0078 7.6992 1.375 0.66797 1.9102 1.043 2.0391 2.3633 0.11719 1.2461-0.30469 2.3984-1.2109 3.3477-1.7109 1.7852-4.9961 2.6797-9 2.4648-0.60156-0.035157-1.1133-0.054688-1.5234-0.066407 1.0195 1.4141 3.3828 4.3672 5.2695 6.3164 2.4062 2.4883 5.2188 4.9609 6.125 5.5742 0.85938-0.55469 3.3398-2.6328 4.5156-3.9258 1.8164-1.9883 2.4648-2.9961 2.6953-3.4453-0.50781-0.042968-1.1367-0.5625-1.5781-1.0078-0.73828-0.73828-1.0078-1.4219-1.0078-2.5156 0-1.5 0.51953-2.0234 3.8867-5.4219 1.9844-2 4.2969-4.6797 5.1641-5.9766 1.2852-1.9297 1.9531-2.7695 2.9844-2.7695 1.6992 0 2.3359 0.6875 3.1094 2.2266 0.92188 1.8359 3.707 4.7266 6.4883 6.7227 2.8867 2.0781 3.668 2.8906 3.668 4.6367 0 1.1445-0.63672 2.7969-3.6914 4.1641-0.46094 0.20312-0.81641 0.37891-1.0664 0.51172 0.55078 0.71875 2.0273 2.4766 3.25 3.6289 2.2188 2.0977 4.375 3.6797 6.7852 4.9766 0.80469 0.42969 2.1094 1.168 2.5859 1.5352 0.78125-0.32422 3.6562-2.5039 9.5586-6.9766 2.6992-2.043 7.4492-6.6094 10.371-9.9766l0.23828-0.27734-0.73828 0.035157c-2.5273 0.10937-3.0039 0.039062-4.6133-0.73828-1.3711-0.66016-2.0586-1.2773-2.7305-2.4297l-0.51562-0.88672-1.6289 0.14062c-4.4336 0.37109-8.6719-0.91406-10.836-3.3125-0.76172-0.84766-1.2656-1.6211-1.2578-2.6523 0.027344-2.7344 2.1328-4.3477 6.8438-6.9297 6.2695-3.4453 9.3242-5.7539 17.176-13.02 2.2852-2.1133 4.4688-4.4414 5.6797-5.8828-2.3906 0.60156-5.3438 0.375-8.3438-0.65234-4.7969-1.6328-7.0352-3.4805-7.0352-5.8125 0-2.0781 1.2539-3.3359 3.5625-4.9297 2.5-1.7266 6.7773-5.7734 9.332-8.832 1.5312-1.832 3.3672-4.4922 4.082-5.7148-0.10156-0.015625-0.20703-0.03125-0.33203-0.046875-2.0664-0.23047-4.0664-1.3281-5.0898-2.7969-0.60547-0.87109-0.81641-1.7812-0.60547-2.6328 0.19922-0.80078 1.3242-2.0586 2.2305-2.8906 3.4414-3.1797 11.27-13.051 13.082-16.504 0.19531-0.36719 1.1914-2.2148 1.8477-2.6016 0.73047-0.43359 1.3906-0.54297 2.0156-0.32422 1.0469 0.35156 1.8555 1.5156 2.9805 4.2812 2.0977 5.168 6.5273 12.312 9.875 15.922 2.0625 2.2266 2.8828 3.5195 2.2617 5.2578-0.49219 1.4102-2.8359 2.6211-4.4102 2.6289-0.69531 0.003907-1.3281 0.082032-1.7695 0.17188 0.35938 0.59375 0.96875 1.543 1.75 2.7148 2.8477 4.2656 6.5781 8.5391 9.2812 10.637 4.3828 3.3906 5.1289 4.0195 5.6797 5.1641 0.41406 0.87109 0.48047 1.7031 0.19531 2.4805-0.40625 1.1133-1.4805 2.0273-3.3789 2.8828-2.8516 1.2773-4.5039 1.4766-9.8555 1.125-2.082-0.13672-3.3203-0.24219-4.0742-0.33203 1.0938 2.2383 5.957 8.8555 9.3828 12.102 2.7695 2.625 6.0312 5.0195 15.156 11.145 0.62109 0.42188 6.1172 4.1133 6.5664 4.7031 0.88281 1.1484 0.68359 3.0312-0.46875 4.2773-1.2578 1.375-6.5117 3.582-9.3672 4.1719-2.5742 0.52734-4.2773 0.57812-6.3125 0.18359-0.89844-0.17188-0.90234-0.16797-1.9609 0.75-0.71094 0.61719-1.8398 1.4297-2.5391 1.7266l-0.10547 0.046875 0.17578 0.28906c4.5898 7.5938 11.645 15.027 18.871 19.875 2.4141 1.625 6.6055 3.9062 8.6172 4.6953 1.668 0.65234 3.875 1.7656 3.875 3.8828 0 1.0156-0.33594 1.6211-1.1875 2.1523-0.34766 0.21094-1.2891 0.95703-2.0859 1.6875-3.3594 3.0664-9.3242 4.9258-14.438 4.5156-2.5781-0.20313-6.0039-0.94141-8.7656-1.8867 0.99219 1.5781 2.793 4.2773 4.0586 5.8984 2.4844 3.1836 7.625 8.418 10.59 10.777 6.1953 4.9219 14.305 9.4922 23.457 13.227 4.918 2.0078 6.4219 3.0352 6.9023 5.9883zm-255.73-18.801c-1.6719 1.3438-4.4375 3.6094-6.2188 5.0938-6.2773 5.2227-13.535 10.102-19.914 13.383-0.52734 0.26953-1.3633 0.70312-2.0703 1.0938 0.082032 0 0.14844 0.007813 0.25391 0.003906 1.4453 0 6.9492-1.2266 12.938-3.0703 2.6445-0.81641 4.168-1.1016 6.5195-1.2305 2.7617-0.14062 3.2773-0.12109 5 0.67188 0.94531 0.4375 2.3242 1.2305 3.0742 1.7734 1.3008 0.95313 2.8867 1.3281 4.332 1.0117 5.1797-1.0781 6.4062-1.2266 8.8203-1.1445 2.4375 0.097656 2.9844 0.24219 5.3281 1.4141 1.4023 0.69922 3.7305 2.207 5.1992 3.3633 1.543 1.2148 3.0312 2.1523 3.4258 2.293 2.4922 0.875 6.8828 0.19141 12.363-1.9492 4.1758-1.6328 7.4492-2.332 10.938-2.332 3.5156 0 4.4453 0.28125 8.2969 2.5 5.6719 3.2656 7.2461 3.3438 13 0.65625 4.7852-2.2344 7.6211-2.8906 10.719-2.1641-7.7266-3.9688-17.285-10.957-23.93-17.664-3.8906-3.9258-7.8555-9.7266-9.8555-14.434-0.375-0.88281-0.71875-1.6445-0.92969-2.082-0.45312 0.19922-1.3594 0.71484-2.8477 1.8164-4.0156 2.957-7.1602 2.7109-12.961-1.0195-4.25-2.7344-5.4688-2.832-6.6055-2.0078-0.85938 0.62891-1.4336 0.83984-2.418 0.39844-0.93359-0.42578-1.4688-1.2695-1.4336-2.2578 0.046875-1.3555 1.1133-2.6562 2.6523-3.2422 2.9062-1.1055 5.6641-0.34766 10.926 2.9766 4.0234 2.5391 4.7852 2.418 7.2695 0.55078 4.5039-3.4062 6.457-3.5117 14.945-0.77344 3.8125 1.2305 6.0859 1.8164 7.1406 1.8398 0.25 0.003907 0.45312 0.003907 0.61328 0.007813-0.71484-0.64453-1.9336-1.5742-2.5547-2.0469-7.6523-5.832-16.031-15.43-19.492-22.328-1.1523-2.293-3.1367-7.4531-3.1367-8.6914 0-0.20703-0.85156-0.71094-1.4883-1.0664-1.043-0.58594-2.3008-1.0664-2.7812-1.1328-0.77734-0.10156-0.76562-0.10547-1.5039 0.65234-1.6523 1.707-3.207 1.9492-5.5352 0.875-1.0508-0.48438-2.1484-1.3125-2.7266-2.0625-0.47266-0.60547-1.1914-1.5039-1.6445-2.0391-0.74609-0.87891-1.0625-1.832-0.88672-2.668 0.13281-0.65234 0.5625-1.1875 1.1992-1.5078 0.83203-0.41797 2.5039-0.71094 4.4062 1.8945 0.57031 0.78516 1.2773 1.5039 1.5078 1.6562 0.027344 0.019531 0.078125 0.050781 0.13281 0.082031 0.074218-0.078124 0.16406-0.17578 0.21484-0.23047 1.375-1.4805 2.6211-1.9297 4.9727-1.7656 1.1914 0.082031 2.6523 0.42969 3.4023 0.80078 0.65234 0.32422 2.7148 1.3945 4.625 2.3906 1.9297 1.0117 3.4297 1.6562 3.7305 1.7109 0.082032-0.019531 0.8125-0.25 1.5898-0.65234 2.1367-1.0859 3.6836-0.96875 7.2695-0.035157 0.16797 0.046876 0.32812 0.082032 0.48438 0.125-5.2734-3.625-11.43-10.52-16.07-18.008-3.7383-6.0391-4.6094-7.9531-3.5859-9.918 1.5938-3.0742 4.4609-2.8555 10.281-1.1836 0.93359 0.26953 1.7656 0.5 2.4648 0.69141-0.64844-0.69141-1.4883-1.5664-2.5117-2.6133-4.8711-4.9531-6.2656-6.7031-9.9648-12.496-2.3281-3.6484-3.4102-6.0117-3.4102-7.4531 0-1.3125 0.83594-2.6133 1.9844-3.0898 0.87891-0.35938 1.3867-0.37109 2.707-0.007812-2.4844-2.7461-5.2617-6.875-7.6602-11.375-0.64453-1.2109-1.1641-2.1523-1.5273-2.7812-0.03125 0.054687-0.066407 0.10937-0.097657 0.17187-0.95703 1.7109-5.082 7.6094-6.7852 9.707-0.71484 0.87109-1.9922 2.3008-2.9375 3.2891 0.23828-0.070312 0.48047-0.14453 0.72266-0.22266 1.3867-0.44531 2.2109-0.60156 3.1094-0.25 1.2969 0.5 2.0312 2.082 1.7109 3.6797-0.3125 1.5547-4.293 8.3828-6.3984 11.203-1.9727 2.6406-6.3242 7.1953-10.039 10.531 2.5898-0.60156 3.8477-0.42187 5.7148 0.64453 0.85156 0.48438 1.5898 0.78516 1.7656 0.8125 0.082032-0.019532 0.89844-0.26562 1.8516-0.66406 0.88281-0.37109 3.5742-1.5078 4.6094 0.72266 0.72266 1.582-0.074219 2.8359-2.2188 5.5195-2.5938 3.2617-5.168 5.9062-7.8594 8.0859-1.1328 0.91406-3.6172 2.9648-5.5742 4.5938-4.0586 3.3711-6.5117 5.168-9.2891 6.8125 0.52734-0.070312 1.1914-0.21094 2.0156-0.46484 2.8398-0.875 4.3867-1.043 5.5234-0.60547 1.2422 0.47266 2.5039 2.3281 2.5039 3.6758 0.015626 0.12109 0.25 0.58594 0.61328 0.95312 0.80078 0.79688 2.0664 0.83984 3.4805 0.11719 1.6289-0.83984 2.3633-0.90234 3.7773 0.27734 0.83984 0.69922 1.1953 1.3945 1.1953 2.3125 0 2.3516-4.9766 9.4453-9.0508 13.605-2.3438 2.3906-8.2031 7.6016-11 9.7812-1.4727 1.1445-5.4375 3.7852-7.9102 5.293 0.73047-0.15625 1.8086-0.52734 3.6797-1.2344 3.4883-1.3203 5.9609-1.8086 7.5547-0.21094 0.92578 0.92578 0.99219 1.4492 0.89453 3.4766l-0.066407 1.3203 0.27344 0.023438c1.2852 0.058593 3.043-0.70703 7.3828-3.3125 3.8867-2.3203 5.9727-3.4414 7.3438-1.4883 1.4375 2.043 0.28516 5.4023-3.1562 9.2188-2.4102 2.6367-8.6641 8.4102-12.402 11.422zm56.305-6.6641c6.0078 8.9883 20.195 20.008 32.297 25.094 4.5898 1.9297 5.2188 2.0703 9.6133 2.1406l4.1094 0.12109 4.6758 1.8164c5.375 2.0859 7.2656 2.4609 11.961 2.2773 3.875-0.14453 5.1992-0.55078 11.793-3.6328 4.5273-2.1133 6.3672-2.6875 9.375-2.9102 3.1289-0.23438 5.3828 0.33984 10.516 2.6914 2.4453 1.1172 4.6328 2.0234 5.1445 2.1641 1.4453 0.40625 7.8594 0.35156 9.6523-0.082031 0.75391-0.18359 3.2383-1.0781 5.7227-2.1172 3.8906-1.6289 6.8438-2.4102 9.1367-2.4102 0.47266 0 0.91016 0.03125 1.3281 0.097656 2.7852 0.4375 6.5664 1.7891 11.238 4.0195 4.207 2.0039 5.1016 2.3242 7.9531 2.8359 6.2344 1.125 9.5742 0.74609 17.875-2.0352 6.9297-2.3164 9.1602-2.6133 19.875-2.6289 5.4766-0.007812 10.684-0.12891 11.961-0.95703-0.027344-0.027344-0.058594-0.050781-0.085938-0.078125-0.31641-0.27344-1.4414-0.89453-2.5586-1.3594-13.645-5.6406-24.254-12.359-31.523-19.969-5.5703-5.8242-8.6289-10.027-11.297-15.523-0.77734-1.5977-1.418-2.7539-1.5664-2.9414-0.007813 0.007813-0.027344 0-0.074219 0-0.23047 0-1.0234 0.039063-2.5195 0.72266-1.5977 0.73047-2.1758 0.8125-4.4219 0.71484-2.082-0.10156-3.0664-0.35547-5.5312-1.4141-3.1211-1.3398-3.8125-1.3945-6.6445-0.55078-1.9336 0.58203-2.5391 0.71875-3.5508 0.14453-0.71094-0.39844-1.2109-1.2617-1.2852-2.1875-0.058594-0.71094 0.17578-1.3203 0.62109-1.6797 1.3477-1.0625 4.8555-1.8203 7.1602-1.8438 2.375-0.003906 2.9375 0.10156 5.3086 1.1758 1.5859 0.71875 2.8906 1.1133 3.9844 1.2031 1.418 0.11328 1.6641 0.0625 3.1602-0.71484 1.6328-0.85547 2.2461-1.0352 3.7109-0.85938 0.85938 0.10156 2.4727 0.61328 3.6719 1.1602 3.293 1.5039 6.4297 2.5586 9.332 3.1523 3.2305 0.66016 5.3008 0.69922 7.918 0.14062 1.5234-0.32422 4.1094-1.5156 5.2188-2.2148-0.28516-0.1875-0.68359-0.42578-1.2031-0.6875-10.547-5.3203-21.602-15.863-26.879-25.633l-1.0234-1.8945-1.0625-0.15234c-1.7656-0.25-5.8477-2.1523-7.3906-3.4453-1.0117-0.84766-1.4141-2.1016-1.0117-3.1992 0.33984-0.94531 1.2227-1.5312 2.293-1.5312 0.88672 0 3.5352 1.3633 3.6484 1.4219 4.0156 2.082 5.7383 1.9453 8.7695-0.75 1.9297-1.7031 2.4531-1.7383 5.6719-1.1914 2.2617 0.37891 4.9023-0.089844 7.8711-1.4023l0.53906-0.23828-0.67188-0.41797c-3.6055-2.2578-13.738-9.457-15.711-11.164-4.9062-4.2383-10.207-10.941-12.875-16.297-1.1719-2.3555-1.5078-3.6094-0.53906-5.2695 1.0273-1.7461 3.0391-1.8672 5.7344-1.543 4.043 0.49219 8.832 0.4375 10.109 0.066406 0.066407-0.023437 0.13672-0.042969 0.19922-0.0625-0.34375-0.30078-0.80469-0.67969-1.375-1.1289-4.0469-3.207-8.0078-7.6367-11.168-12.477-3.4883-5.3555-4.2344-6.6523-4.168-8.2227 0.10547-2.7422 1.4883-3.0234 4.6094-3.0234h1.0781c-1.7266-2.1328-3.1094-4.0586-4.4375-6.1914l0.007812-0.003906c-0.83203-1.3359-2.3789-4.1094-3.4492-6.1797l-1.3242-2.5586-0.21875 0.32031c-2.8242 4.1289-7.6602 10.141-10.562 13.121-0.35156 0.35938-0.65625 0.69141-0.89453 0.96875 0.73047-0.003906 1.7344-0.039063 2.5781-0.17969 1.4062-0.25 1.9219-0.19531 2.8047 0.63281 0.60938 0.57812 0.97266 1.3633 0.97266 2.1094 0 1.2656-2.1055 5.3945-3.5586 7.6836-2.5781 4.0625-8.5938 10.445-12.621 13.398l-1.2578 0.91797 0.32422 0.14844c1.75 0.79688 4.5 1.5469 5.6602 1.5469 1.0781 0 3.3008-0.69531 5.418-1.6914 2.2031-1.043 3.6328-1.3516 4.8906-0.011719 1.957 2.0977-0.011719 5.6836-1.9492 8.5742-1.5625 2.3242-5.6758 6.5977-10.484 10.887-6.4492 5.7539-9.4297 7.8867-15.938 11.426-1.1719 0.63672-2.082 1.1641-2.6719 1.5273 0.71094 0.33594 1.8008 0.74609 2.6836 0.89453 0.85938 0.14062 2.2227 0.10938 3.6484-0.089844 3.4727-0.47656 4.7695 0.054688 6.0234 2.5234 0.53516 1.0547 0.73438 1.1992 1.4219 1.4102 1.3477 0.41016 3.5078-0.066406 5.9219-1.293 1.2422-0.63281 4.1562-2.1133 5.5234-0.015626 1.043 1.5977 0.23828 3.3906-1.3945 5.7539-4.0469 5.8633-10.379 12.109-18.309 18.059-6.125 4.5898-8.2812 6-12.141 7.9414l-0.81641 0.41016c2.207 0.80859 4.9414 0.80469 8.1445-0.019531 3.8125-0.97656 5.3477-1.082 7.5391 0.19531l0.62891 0.36328c3.4805 2.0234 3.4961 2.0234 6.2305 2.0195h0.51172c3.6719 0 5.7461 0.14062 5.7461 3.0273 0 1.8789-0.96094 3.4883-4.2578 8.043-5.4609 7.5547-15.262 17.488-22.785 23.109-5.1055 3.8125-14.371 10.148-16.93 9.5078-1.3008-0.3125-2.0781-1.3125-2.0781-2.6836 0-1.6055 0.94141-2.1328 4.543-3.9141 10.539-5.1992 24.023-16.969 32.789-28.617 0.90234-1.1992 1.625-2.1797 2.1133-2.8555-0.089844-0.003906-0.19141-0.003906-0.28906-0.007812-2.4219-0.042969-5.4258-1.0312-7.6602-2.5273-0.96094-0.64844-1.7148-1.0078-1.8906-1.0469-0.12109 0.023437-1.4297 0.30078-3.2031 0.75391-2.6797 0.69922-3.5508 0.78906-6.1953 0.63672-2.5117-0.13672-3.5312-0.34766-5.4414-1.1367-2.4375-1.0078-3.6133-1.7969-4.1484-3.8047-0.63672-2.3789 0.50781-3.5352 3.3125-5.2227 0.74609-0.45313 1.3711-0.84766 1.8086-1.1367-0.12109-0.078125-0.26953-0.16406-0.43359-0.25-5.1133-2.7891-13.254-10.898-13.254-13.941 0-2.2422 1.3281-3.0703 3.6211-3.7461 0.3125-0.089844 0.60156-0.17578 0.84766-0.25391-0.26172-0.19922-0.5625-0.43359-0.91406-0.6875-1.1562-0.85937-3.0547-2.5781-4.2305-3.8359l-1.418-1.5234-0.0625 0.082031c-0.84766 1.168-4.0312 4.6445-5.3945 5.9023 1.0625 0.32031 1.7422 0.78906 2.1094 1.4688 0.39453 0.71484 0.38672 1.5781-0.019531 2.6484-1.0859 2.875-6.6992 9.7422-8.9648 10.965-0.058594 0.027344-0.10547 0.0625-0.15625 0.082031 0.082032 0.0625 0.17578 0.12109 0.26953 0.1875 2.3164 1.543 4.9414 3.7969 5.2266 5.1211 0.23047 1.043-0.058594 2.0312-0.80859 2.7773-1.3242 1.3164-3.8945 1.7266-6.7109 1.0703-0.80469-0.18359-0.80859-0.19141-1.6172 0.64844-1.4844 1.543-3.1016 2.0977-6.1797 2.1133-0.20703 0-0.39844 0.003906-0.57422 0.007812 1.0586 1.293 3.2305 3.668 5.4844 5.8594 5.6406 5.4766 11.027 9 18.012 11.773 1.9766 0.78125 2.9648 1.4766 3.2383 3.3086 0.35156 2.3594-1.7266 4.5-5.8594 6.0195-1.6055 0.59766-3.0117 0.83203-6.0117 1.0156-3.3164 0.20312-4.5156 0.55078-4.875 0.69141-3.625 1.4102-9.8594 0.26953-12.613-1.6133-1.3594-0.92969-1.6445-1.8672-1.6445-2.4844 0-0.98047 0.38672-1.7578 1.0938-2.1914 0.97656-0.60156 2.4414-0.46875 4.1094 0.38281 1.5234 0.76562 4.4062 1.3594 5.668 1.1367 0.54297-0.09375 1.5469-0.36328 2.2461-0.60547 0.91797-0.32031 3.4297-0.61328 5.3281-0.73047 2.6875-0.16406 4.0742-0.37891 5.2695-0.82422l-0.87891-0.41406c-3.8555-1.8164-7.6562-4.0898-10.699-6.3945-3.625-2.75-9.293-8.3945-11.887-11.836-1.7344-2.3047-5.8008-8.3594-5.8008-9.6328 0-1.1133 1.6523-2.7617 2.7617-2.7617 0.70312 0 2.6328 1.2461 3.4258 1.7773 3.1953 2.1328 3.8555 2.3086 5.0781 2.1328 0.73828-0.10938 1.3359-0.45312 2.2031-1.25 1.1367-1.043 1.8164-1.4375 3.0156-1.5117-0.19531-0.14844-0.39844-0.30469-0.61328-0.47266-8.5352-6.4844-14.207-12.586-17.336-18.656-1.0039-1.9492-1.5352-3.2227-0.47266-4.5312l0.84766-1.043 3.625 0.39844c3.0156 0.32812 4.9844 0.34375 6.0664 0.26953-0.43359-0.37891-1.0234-0.87891-1.7578-1.4883-4.2422-3.5195-8.9062-9.0703-10.605-12.629-1.4492-3.0234-0.87109-4.7383-0.13281-5.6445 0.73438-0.89063 2.2383-1.7656 5.3359-1.3008-2.3008-2.8359-3.7617-5.2188-5.7383-9.3359l-1.3398-2.7852-1.5898 2.2812c-3.0039 4.3203-5.3828 7.1328-7.9531 9.4062-0.39062 0.34375-0.67578 0.60547-0.87891 0.80859 0.97266 0.050782 2.5586-0.066406 3.6445-0.39844 1.9336-0.59766 2.9688-0.74219 4.1016 0.45312 1.8906 2.0039 0.24609 4.2695-1.9258 6.8086-1.7695 2.0742-8.25 8-10.508 9.6133-0.13672 0.10156-0.26172 0.19141-0.36719 0.26953 1.5117 0.097656 4.0742 0.070312 5.1367-0.16406 1.2148-0.26953 1.7383-0.10938 2.5859 0.73828 1.625 1.625 1.0664 3.7891-0.26953 6.5352-1.9688 4.0586-6.0781 9.0938-11.562 14.176-1.5117 1.3945-3.5117 3.0391-4.4609 3.6719-0.67578 0.45312-1.543 1.0312-1.9688 1.375 1.1562 0.95703 4.3125 1.5742 8.1445 1.0742 2.4844-0.32422 3.1758-0.37891 4.1094 0.23438 1.3164 0.86719 1.6914 2.4297 0.96094 3.9844-0.76562 1.6289-4.582 4.8203-7.5234 6.668l-1.6641 1.043 3.0352 2.3906c1.9453 1.5312 4.2383 3.4492 4.6641 3.9922 1.2266 1.5625 1.043 3.4258-0.47266 4.8633-2.832 2.6641-7.0977 2.7773-14.289 0.37891-1.2266-0.41016-2.2188-0.73047-2.9414-0.95313 0.63281 1.293 1.8086 3.3555 3.0742 5.2422zm-55.871-134.38c-1.8359 1.4297-1.3203 2.8438-0.85547 3.5547 0.46484 0.70312 1.1914 1.0938 2.0117 1.0938 0.15234 0 0.30469-0.011719 0.45312-0.042969 1.2109-0.20312 2.2344-1.1953 2.5508-2.4688 0.17187-0.67578 0.003906-1.3984-0.45313-1.9844-0.45703-0.58203-1.1172-0.91797-1.8125-0.91797-0.58984 0-1.4219 0.39453-1.8945 0.76563zm56.609 18.738c-0.46484 0.50781-0.71094 1.2148-0.67578 1.9297 0.035156 0.67578 0.30469 1.2773 0.76562 1.6914 0.49219 0.44922 1.1133 0.67969 1.7383 0.67969 0.35547 0 0.71875-0.074219 1.0625-0.23047 0.94531-0.41797 1.5312-1.3203 1.5312-2.3555 0-1.0156-0.64844-1.9258-1.6523-2.3125-0.99609-0.37891-2.0859-0.14844-2.7695 0.59766zm78.73 20.457c-0.9375 0.73828-1.2891 1.8477-0.92969 2.8984 0.38281 1.1094 1.4609 1.8203 2.7422 1.8203 1.1289 0 2.1367-0.67969 2.5742-1.7266 0.43359-1.0391 0.21094-2.1719-0.57031-2.9492-1.0312-1.0391-2.5352-1.0586-3.8164-0.042969zm-41.984-66.348c1.4453 0.84766 2.0781 2.1406 2.0117 4.1289-0.046875 1.4297 0.035156 1.7461 0.53125 2.0117 0.76562 0.41406 1.6875-0.082031 1.9336-1.0469 0.36719-1.4297-0.042968-3.8398-0.86719-5.0898-1.2539-1.8984-3.3359-2.8789-4.2266-1.9883-0.61719 0.62109-0.37891 1.3984 0.61719 1.9844zm108.91 101.52c2.8672 2.6523 3.7188 3.2188 4.6484 3.1094 0.69141-0.082031 0.83203-0.24609 0.90625-1.0312 0.066406-0.73047-0.054688-1.0117-0.57031-1.2852-0.35938-0.19531-2.3242-1.9688-4.3711-3.9609-2.0469-1.9883-3.8516-3.6094-4.0195-3.6094-0.17578 0-0.49609 0.19141-0.76172 0.45312-0.26562 0.26562-0.45312 0.625-0.45312 0.86328 0 0.55469 2.457 3.4648 4.6211 5.4609zm-112.47 46.637c2.3164 3.0391 6.4766 7.1016 7.2812 7.1016 0.99219 0 1.4609-0.35547 1.4609-1.1133 0-0.54297-0.64062-1.3359-2.5156-3.0859-3.2188-3.0117-5.6875-6.2695-7.3242-9.6641-2.5977-5.3789-2.543-5.293-3.4062-5.3828-0.52734-0.058593-0.85156 0.070313-0.97266 0.38281-0.30859 0.78906 0.10156 2.0781 1.8008 5.6445 0.98828 2.0781 2.4336 4.4805 3.6758 6.1172zm119.13 20.551c0.76172 0 1.4531-0.96484 1.1133-1.5508-0.11328-0.19531-0.94531-1.1992-1.8672-2.25-2.6484-3.0312-4.2031-5.293-5.8633-8.5391-0.85156-1.668-1.7422-3.2461-1.9883-3.5391-0.49609-0.58203-1.2461-0.64844-1.7461-0.14453-0.61328 0.61328-0.38281 1.4023 1.4141 4.8828 2.7344 5.2969 7.4258 11.141 8.9375 11.141zm-157.9 7.1953c2.0586 2.5156 2.9883 3.1172 3.7812 2.457 0.76953-0.64062 0.44922-1.5781-1.2148-3.5078-2.2266-2.582-4.9219-6.7266-7.1367-10.965-2.1836-4.1836-2.793-4.8164-3.7227-3.8867-0.67188 0.67188-0.35156 1.7812 1.5312 5.3203 2.5977 4.8789 4.3828 7.6797 6.7617 10.582zm165.21-0.3125c1.8398 1.3359 3.207 1.6719 3.5195 0.86719 0.29688-0.77344-0.15625-1.7461-1.0625-2.2852-0.48828-0.28906-1.668-1.1602-2.6602-1.9648-1.8398-1.4883-2.5039-1.7227-3.1289-1.1016-0.91406 0.91406-0.11719 1.9844 3.332 4.4844zm-155.4 10.473c2.6328 2.207 3.5664 2.6211 4.2969 1.8906 0.71484-0.71484 0.26562-1.3945-2.457-3.6953-2.6602-2.25-3.2461-2.5586-4.1523-2.1836-0.19141 0.082032-0.35156 0.51172-0.35156 0.95313 0.003907 0.64844 0.5 1.2148 2.6641 3.0352z" fill="#00bac2"/>
 </g>
</svg>
