<?xml version="1.0" encoding="UTF-8"?>
<svg width="512pt" height="512pt" version="1.1" viewBox="0 0 512 512" xmlns="http://www.w3.org/2000/svg">
 <defs>
  <clipPath id="c">
   <path d="m400 94.781h17.219v39.219h-17.219z"/>
  </clipPath>
  <clipPath id="b">
   <path d="m378 94.781h39.219v17.219h-39.219z"/>
  </clipPath>
  <clipPath id="a">
   <path d="m94.781 377h41.219v40.219h-41.219z"/>
  </clipPath>
 </defs>
 <rect width="512" height="512"/>
 <path d="m214.84 359.35c-2.7852 0-5.0625-2.2539-5.0625-5.0391s2.2266-5.0391 5.0078-5.0391h0.054688c2.7812 0 5.0391 2.2539 5.0391 5.0391-0.003906 2.7891-2.2617 5.0391-5.0391 5.0391z" fill="#00bac2"/>
 <g clip-path="url(#c)">
  <path d="m405.06 133.35c-0.40234 0-0.81641-0.050781-1.2227-0.15234-2.6992-0.67578-4.3438-3.4102-3.668-6.1055l7.125-28.496c0.67578-2.707 3.4062-4.3633 6.1055-3.668 2.6992 0.67578 4.3438 3.4102 3.668 6.1055l-7.125 28.496c-0.57422 2.3008-2.625 3.8203-4.8828 3.8203z" fill="#00bac2"/>
 </g>
 <g clip-path="url(#b)">
  <path d="m383.68 111.98c-2.2578 0-4.3086-1.5273-4.8828-3.8203-0.67969-2.6953 0.96094-5.4297 3.668-6.1055l28.496-7.125c2.6953-0.69531 5.4297 0.95703 6.1055 3.668 0.67969 2.6953-0.96094 5.4297-3.668 6.1055l-28.496 7.125c-0.40625 0.10156-0.82031 0.15234-1.2227 0.15234z" fill="#00bac2"/>
 </g>
 <path d="m200.43 337.98c-1.2891 0-2.5781-0.49219-3.5625-1.4766-1.9688-1.9688-1.9688-5.1523 0-7.125l204.62-204.62c1.9688-1.9688 5.1523-1.9688 7.125 0 1.9688 1.9688 1.9688 5.1523 0 7.125l-204.62 204.62c-0.98828 0.98438-2.2695 1.4727-3.5625 1.4727z" fill="#00bac2"/>
 <path d="m179.06 316.61c-1.2891 0-2.5781-0.49219-3.5625-1.4766-1.9688-1.9688-1.9688-5.1523 0-7.125l204.62-204.62c1.9688-1.9688 5.1523-1.9688 7.125 0 1.9688 1.9688 1.9688 5.1523 0 7.125l-204.62 204.62c-0.98828 0.98438-2.2773 1.4766-3.5625 1.4766z" fill="#00bac2"/>
 <path d="m208.17 345.71c-1.2891 0-2.5781-0.49219-3.5625-1.4766l-36.859-36.859c-1.9688-1.9688-1.9688-5.1523 0-7.125 1.9688-1.9688 5.1523-1.9688 7.125 0l36.859 36.859c1.9688 1.9688 1.9688 5.1523 0 7.125-0.98047 0.98047-2.2734 1.4766-3.5625 1.4766z" fill="#00bac2"/>
 <path d="m203.99 370.04c-1.2891 0-2.5781-0.49219-3.5625-1.4766l-56.996-56.996c-1.9688-1.9688-1.9688-5.1523 0-7.125 1.9688-1.9688 5.1523-1.9688 7.125 0l56.996 56.996c1.9688 1.9688 1.9688 5.1523 0 7.125-0.98438 0.98047-2.2734 1.4766-3.5625 1.4766z" fill="#00bac2"/>
 <path d="m214.69 374.46c-5.3867 0-10.449-2.0977-14.258-5.8984-1.9766-1.9688-1.9766-5.1523-0.011719-7.125 1.9688-1.9805 5.1641-1.9688 7.125-0.011718 3.8203 3.8125 10.461 3.8125 14.258 0.011718 3.9297-3.9297 3.9258-10.324 0-14.258-3.9297-3.918-10.324-3.9141-14.242 0.003906-1.9688 1.9688-5.1523 1.9688-7.125 0-1.9688-1.9688-1.9688-5.1523 0-7.125 7.8555-7.8555 20.641-7.8477 28.492-0.003906 7.8594 7.8711 7.8594 20.656 0.003907 28.5-3.7969 3.8125-8.8594 5.9062-14.242 5.9062z" fill="#00bac2"/>
 <path d="m157.83 302.36c-2.7852 0-5.0625-2.2539-5.0625-5.0391s2.2266-5.0391 5.0078-5.0391h0.054687c2.7812 0 5.0391 2.2539 5.0391 5.0391 0 2.7891-2.2617 5.0391-5.0391 5.0391z" fill="#00bac2"/>
 <path d="m168.37 313.04c-1.2891 0-2.5781-0.49219-3.5586-1.4727-1.9766-1.9688-1.9766-5.1523-0.011719-7.125 3.9258-3.9336 3.9258-10.332 0-14.27-3.9297-3.9141-10.328-3.9141-14.246 0.011719-3.9297 3.9297-3.9258 10.324 0 14.258 1.9648 1.9688 1.9648 5.1523-0.011719 7.125-1.9609 1.9609-5.1523 1.9688-7.125-0.011718-7.8477-7.8594-7.8477-20.645 0.003906-28.492 7.8438-7.8633 20.633-7.8594 28.5-0.015625 7.8555 7.8711 7.8555 20.652 0.011719 28.504-0.97656 1-2.2695 1.4883-3.5625 1.4883z" fill="#00bac2"/>
 <path d="m115.77 387.02c-1.2891 0-2.5781-0.49219-3.5625-1.4766-1.9688-1.9688-1.9688-5.1523 0-7.125l52.594-52.594c1.9688-1.9688 5.1523-1.9688 7.125 0 1.9688 1.9688 1.9688 5.1523 0 7.125l-52.594 52.594c-0.98438 0.98438-2.2734 1.4766-3.5625 1.4766z" fill="#00bac2"/>
 <path d="m130.01 401.28c-1.2891 0-2.5781-0.49219-3.5625-1.4766-1.9688-1.9688-1.9688-5.1523 0-7.125l52.602-52.602c1.9688-1.9688 5.1523-1.9688 7.125 0 1.9688 1.9688 1.9688 5.1523 0 7.125l-52.602 52.602c-0.98437 0.98438-2.2734 1.4766-3.5625 1.4766z" fill="#00bac2"/>
 <g clip-path="url(#a)">
  <path d="m114.93 417.22c-5.3789 0-10.445-2.0977-14.246-5.9102-3.8047-3.793-5.9023-8.8555-5.9023-14.238 0-5.3867 2.0977-10.445 5.9062-14.254 7.6094-7.6094 20.887-7.6016 28.492-0.003906 7.8594 7.8711 7.8594 20.656 0.003906 28.5-3.8125 3.8125-8.8711 5.9062-14.254 5.9062zm0-30.219c-2.6914 0-5.2188 1.043-7.1172 2.9414-1.9062 1.9062-2.9531 4.4414-2.9531 7.1289 0 2.6914 1.0469 5.2148 2.9492 7.1133 3.8203 3.8203 10.445 3.8125 14.254 0.003906 3.9258-3.9258 3.918-10.316-0.003906-14.254-1.9062-1.8906-4.4336-2.9336-7.1289-2.9336z" fill="#00bac2"/>
 </g>
 <path d="m222.66 294.37c-1.2891 0-2.5781-0.49219-3.5625-1.4766-1.9688-1.9688-1.9688-5.1523 0-7.125l143.22-143.21c1.9688-1.9688 5.1523-1.9688 7.125 0 1.9688 1.9688 1.9688 5.1523 0 7.125l-143.22 143.21c-0.98437 0.98438-2.2734 1.4766-3.5625 1.4766z" fill="#00bac2"/>
 <path d="m154.37 376.91h-28.496c-2.7852 0-5.0391-2.2539-5.0391-5.0391s2.2539-5.0391 5.0391-5.0391h28.496c2.7852 0 5.0391 2.2539 5.0391 5.0391 0 2.7891-2.2539 5.0391-5.0391 5.0391z" fill="#00bac2"/>
 <path d="m174.52 356.76h-28.496c-2.7852 0-5.0391-2.2539-5.0391-5.0391s2.2539-5.0391 5.0391-5.0391h28.496c2.7852 0 5.0391 2.2539 5.0391 5.0391 0 2.7891-2.2539 5.0391-5.0391 5.0391z" fill="#00bac2"/>
 <path d="m386.99 240.89c-2.7852 0-5.0391-2.2539-5.0391-5.0391v-20.152c0-2.7852 2.2539-5.0391 5.0391-5.0391 2.7852 0 5.0391 2.2539 5.0391 5.0391v20.152c-0.003906 2.7852-2.2539 5.0391-5.0391 5.0391z" fill="#00bac2"/>
 <path d="m392.03 230.81h-10.078c-2.7852 0-5.0391-2.2539-5.0391-5.0391 0-2.7852 2.2539-5.0391 5.0391-5.0391h10.078c2.7852 0 5.0391 2.2539 5.0391 5.0391 0 2.7891-2.25 5.0391-5.0391 5.0391z" fill="#00bac2"/>
 <path d="m271.11 402.11c-2.7852 0-5.0391-2.2539-5.0391-5.0391v-30.23c0-2.7852 2.2539-5.0391 5.0391-5.0391 2.7852 0 5.0391 2.2539 5.0391 5.0391v30.23c0 2.7852-2.25 5.0391-5.0391 5.0391z" fill="#00bac2"/>
 <path d="m276.15 386.99h-10.078c-2.7852 0-5.0391-2.2539-5.0391-5.0391s2.2539-5.0391 5.0391-5.0391h10.078c2.7852 0 5.0391 2.2539 5.0391 5.0391s-2.2539 5.0391-5.0391 5.0391z" fill="#00bac2"/>
 <path d="m321.65 306.38c-2.7852 0-5.0625-2.2539-5.0625-5.0391s2.2266-5.0391 5.0078-5.0391h0.054688c2.7812 0 5.0391 2.2539 5.0391 5.0391-0.003906 2.7852-2.2617 5.0391-5.0391 5.0391z" fill="#00bac2"/>
 <path d="m372.03 361.8c-2.7852 0-5.0625-2.2539-5.0625-5.0391 0-2.7852 2.2266-5.0391 5.0078-5.0391h0.054688c2.7812 0 5.0391 2.2539 5.0391 5.0391 0 2.7852-2.2578 5.0391-5.0391 5.0391z" fill="#00bac2"/>
 <path d="m119.97 256c-2.7852 0-5.0391-2.2539-5.0391-5.0391v-20.152c0-2.7852 2.2539-5.0391 5.0391-5.0391s5.0391 2.2539 5.0391 5.0391v20.152c0 2.7891-2.2539 5.0391-5.0391 5.0391z" fill="#00bac2"/>
 <path d="m125.01 245.93h-10.078c-2.7852 0-5.0391-2.2539-5.0391-5.0391 0-2.7852 2.2539-5.0391 5.0391-5.0391h10.078c2.7852 0 5.0391 2.2539 5.0391 5.0391-0.003906 2.7852-2.2539 5.0391-5.0391 5.0391z" fill="#00bac2"/>
 <path d="m281.19 140.12c-2.7852 0-5.0391-2.2539-5.0391-5.0391v-30.227c0-2.7852 2.2539-5.0391 5.0391-5.0391s5.0391 2.2539 5.0391 5.0391v30.23c0 2.7812-2.2539 5.0352-5.0391 5.0352z" fill="#00bac2"/>
 <path d="m286.23 125.01h-10.078c-2.7852 0-5.0391-2.2539-5.0391-5.0391s2.2539-5.0391 5.0391-5.0391h10.078c2.7852 0 5.0391 2.2539 5.0391 5.0391-0.003906 2.7852-2.2539 5.0391-5.0391 5.0391z" fill="#00bac2"/>
 <path d="m190.66 140.12c-2.7852 0-5.0625-2.2539-5.0625-5.0391 0-2.7852 2.2266-5.0391 5.0078-5.0391h0.054688c2.7812 0 5.0391 2.2539 5.0391 5.0391 0 2.7852-2.2578 5.0391-5.0391 5.0391z" fill="#00bac2"/>
 <path d="m210.81 220.73c-2.7852 0-5.0625-2.2539-5.0625-5.0391 0-2.7852 2.2266-5.0391 5.0078-5.0391h0.054688c2.7812 0 5.0391 2.2539 5.0391 5.0391 0 2.7852-2.2578 5.0391-5.0391 5.0391z" fill="#00bac2"/>
</svg>
