<?xml version="1.0" encoding="UTF-8"?>
<svg width="512pt" height="512pt" version="1.1" viewBox="0 0 512 512" xmlns="http://www.w3.org/2000/svg">
 <g>
  <rect width="512" height="512"/>
  <path d="m323.84 355.84h-5.2539v-73.289c0-31.41-22.984-57.551-53.016-62.492v-23.699h18.645c2.0859 0 3.7773-1.6914 3.7773-3.7773v-13.117c0-2.0859-1.6914-3.7773-3.7773-3.7773h-18.645v-10.516c0-2.0859-1.6914-3.7773-3.7773-3.7773l-13.117-0.003907c-2.0859 0-3.7773 1.6914-3.7773 3.7773v10.516h-18.613c-2.0859 0-3.7773 1.6914-3.7773 3.7773v13.117c0 2.0859 1.6914 3.7773 3.7773 3.7773h18.613v23.707c-30.012 4.957-52.977 31.09-52.977 62.488v73.289h-5.2891c-7.8828 0-14.297 6.3984-14.297 14.266v10.516c0 2.0859 1.6914 3.7773 3.7773 3.7773h158.25c2.0859 0 3.7773-1.6914 3.7773-3.7773v-10.516c0-7.8633-6.4141-14.266-14.301-14.266zm-75.164-167.04h-18.613v-5.5625h18.613c2.0859 0 3.7773-1.6914 3.7773-3.7773v-10.516h5.5586v10.516c0 2.0859 1.6914 3.7773 3.7773 3.7773h18.645v5.5625h-18.645c-2.0859 0-3.7773 1.6914-3.7773 3.7773v26.695c-0.91797-0.039063-1.8359-0.0625-2.7617-0.0625-0.9375 0-1.8711 0.023437-2.7969 0.066406v-26.699c0-2.0859-1.6914-3.7773-3.7773-3.7773zm-38.562 61.027 10.438 3.1836c0.85547 0.26172 1.7773 0.21094 2.6016-0.14453l11.805-5.1016 8.8438 10.051c0.71875 0.81641 1.7539 1.2812 2.8359 1.2812h0.074219l12.598-0.24609c2.0859-0.039063 3.7461-1.7656 3.7031-3.8516-0.039063-2.0859-1.7734-3.7383-3.8516-3.7031l-10.844 0.21094-9.5039-10.797c-1.082-1.2305-2.832-1.6211-4.3359-0.97266l-13.051 5.6406-6.0039-1.832c9.2734-9.4688 21.887-15.656 35.91-16.637h7.8438c9.8438 0.6875 18.988 3.9414 26.773 9.0938l-2.1914 9.3555-11.418 8.4883c-1.3164 0.98047-1.8516 2.6953-1.3242 4.25l4.6211 13.594-5.6289 9.2891c-1.082 1.7852-0.51172 4.1094 1.2734 5.1914 0.61328 0.37109 1.2891 0.54688 1.9531 0.54688 1.2773 0 2.5234-0.64844 3.2344-1.8203l6.543-10.797c0.57812-0.95703 0.70312-2.1172 0.34766-3.1758l-4.3008-12.656 10.316-7.668c0.71484-0.53125 1.2188-1.3008 1.4258-2.1719l1.7188-7.3398c11.355 10.219 18.508 25.02 18.508 41.465v37.855l-5.7109-0.15234-8.8594-3.793-12.082-13.238c-0.65625-0.71875-1.5625-1.1562-2.5352-1.2227l-8.1992-0.55469c-2.082-0.15234-3.8828 1.4336-4.0234 3.5156-0.14063 2.082 1.4336 3.8828 3.5156 4.0234l6.6875 0.45312 7.7109 8.4531-6.5664 2.2227c-1.125 0.37891-2.0039 1.2695-2.375 2.3945l-1.25 3.7891-5.9805 0.41016c-2.082 0.14453-3.6523 1.9453-3.5117 4.0273 0.13672 1.9922 1.7969 3.5195 3.7656 3.5195 0.085938 0 0.17578-0.003907 0.26172-0.007813l8.5156-0.58594c1.5312-0.10547 2.8477-1.1289 3.3281-2.5859l1.4531-4.4102 8.8867-3.0078 8.9492 3.8281c0.4375 0.1875 0.91016 0.28906 1.3867 0.30469l6.6328 0.17578v10.574l-111.55-0.003906v-7.9844h8.8164c1.1367 0 2.2148-0.51172 2.9297-1.3945l7.043-8.6484 12.008-5.7617c0.76562-0.36719 1.3828-0.98047 1.7578-1.7422l4.8828-9.9336c0.92188-1.875 0.14844-4.1367-1.7266-5.0586-1.8711-0.92188-4.1367-0.14844-5.0586 1.7227l-4.3047 8.7578-11.59 5.5586c-0.5 0.24219-0.94531 0.58984-1.2969 1.0195l-6.4414 7.9102h-7.0234v-40.445c0.003906-12.203 3.9531-23.512 10.641-32.711zm-10.637 96.27h111.55v9.7461l-111.55-0.003906zm131.11 30.746h-150.7v-6.7383c0-3.6992 3.0234-6.707 6.7422-6.707h137.21c3.7188 0 6.7422 3.0078 6.7422 6.707z" fill="#00bac2"/>
  <path d="m235.59 366.36h-44.637c-2.0859 0-3.7773 1.6914-3.7773 3.7773 0 2.0859 1.6914 3.7773 3.7773 3.7773h44.637c2.0859 0 3.7773-1.6914 3.7773-3.7773 0.003906-2.082-1.6875-3.7773-3.7773-3.7773z" fill="#00bac2"/>
  <path d="m196.91 397h29.625c2.0859 0 3.7773-1.6914 3.7773-3.7773 0-2.0859-1.6914-3.7773-3.7773-3.7773h-29.625c-2.0859 0-3.7773 1.6914-3.7773 3.7773 0 2.0859 1.6914 3.7773 3.7773 3.7773z" fill="#00bac2"/>
  <path d="m313.56 389.45h-63.152c-2.0859 0-3.7773 1.6914-3.7773 3.7773 0 2.0859 1.6914 3.7773 3.7773 3.7773h63.156c2.0859 0 3.7773-1.6914 3.7773-3.7773 0-2.0859-1.6914-3.7773-3.7812-3.7773z" fill="#00bac2"/>
  <path d="m313.56 403.22h-29.586c-2.0859 0-3.7773 1.6914-3.7773 3.7773 0 2.0859 1.6914 3.7773 3.7773 3.7773h29.586c2.0859 0 3.7773-1.6914 3.7773-3.7773 0.003906-2.0859-1.6875-3.7773-3.7773-3.7773z" fill="#00bac2"/>
  <path d="m260.06 403.22h-63.156c-2.0859 0-3.7773 1.6914-3.7773 3.7773 0 2.0859 1.6914 3.7773 3.7773 3.7773h63.156c2.0859 0 3.7773-1.6914 3.7773-3.7773 0-2.0859-1.6914-3.7773-3.7773-3.7773z" fill="#00bac2"/>
  <path d="m255.25 366.36h-10.488c-2.0859 0-3.7773 1.6914-3.7773 3.7773 0 2.0859 1.6914 3.7773 3.7773 3.7773h10.488c2.0859 0 3.7773-1.6914 3.7773-3.7773 0-2.082-1.6914-3.7773-3.7773-3.7773z" fill="#00bac2"/>
  <path d="m386.17 203.64-10.484-22.844c-0.65234-1.418-2.1016-2.2891-3.6602-2.1953l-7.9727 0.48047 2.7773-6.9688c0.57812-1.4453 0.20703-3.0977-0.92969-4.1602-1.1367-1.0625-2.8125-1.3164-4.2148-0.64453l-4.9141 2.3633-1.6094-5.1641c-0.46484-1.4922-1.7969-2.543-3.3555-2.6484-1.5586-0.097656-3.0195 0.76172-3.6797 2.1758l-3.1602 6.8047-5.1094-6.1445c-0.99609-1.1992-2.6289-1.6641-4.1055-1.1641l-23.84 7.9961c-1.6211 0.54297-2.6758 2.1094-2.5703 3.8164s1.3438 3.1289 3.0156 3.4688l10.715 2.1797c0.80078 0.35156 3.043 1.6211 2.9414 4.832-0.066406 2.0703 1.5703 3.8086 3.6406 3.8945 0.29688 0.011719 7.2578 0.35938 8.5 5.3828l1.5234 6.5117c0.27344 1.168 1.082 2.1367 2.1836 2.6094 1.0977 0.47266 2.3594 0.39844 3.3984-0.20312l5.7461-3.3438c0.89844-0.49609 1.8164-0.73438 2.8008-0.73438 3.0156 0 6.0469 2.3242 6.9453 3.2031 1.4727 1.4766 3.8672 1.4766 5.3438 0 1.0469-1.043 2.1914-1.5547 3.4961-1.5547 0.96484 0 1.7656 0.27734 2.0664 0.39453l8.8867 6.3086c0.65625 0.46484 1.4219 0.69531 2.1875 0.69531 0.85938 0 1.7148-0.29297 2.4102-0.86719 1.3203-1.0859 1.7422-2.9258 1.0273-4.4805zm-16.578-9.6055c-2.1758 0-4.2422 0.5625-6.1016 1.6406-2.2148-1.5273-5.6562-3.2969-9.6836-3.2969-2.2891 0-4.4766 0.57422-6.5117 1.707-0.019531 0.011718-0.039063 0.023437-0.058594 0.035156l-1.3633 0.79297-0.37109-1.582c-1.6758-6.7734-7.5312-9.75-12.27-10.754-0.98828-4.1992-3.9336-6.8281-6.3164-8.1172l8.7852-2.9492 7.2734 8.7422c0.82813 0.99609 2.1094 1.4961 3.3906 1.3281 1.2852-0.16797 2.3945-0.98047 2.9375-2.1562l1.5508-3.3398c0.32812 1.0469 1.0938 1.8984 2.0977 2.3359 1.0078 0.4375 2.1562 0.41797 3.1445-0.058594l0.12109-0.058593-1.3906 3.4922c-0.48047 1.2031-0.30859 2.5625 0.44531 3.6133 0.75781 1.0469 2.0078 1.6406 3.2891 1.5586l11.332-0.67969 3.8594 8.4141c-1.0195-0.33203-2.4609-0.66797-4.1602-0.66797z" fill="#00bac2"/>
  <path d="m174.27 190.55c1.25-5.0469 8.4414-5.4062 8.4961-5.4102 2.0859-0.066406 3.7227-1.8086 3.6562-3.8945-0.10156-3.2422 2.1953-4.5039 2.9258-4.8203l10.73-2.1836c1.6758-0.33984 2.9141-1.7656 3.0195-3.4688 0.10547-1.707-0.94922-3.2695-2.5703-3.8164l-23.84-7.9961c-1.4766-0.49609-3.1094-0.03125-4.1055 1.168l-5.0938 6.1211-3.1836-6.7969c-0.66406-1.4102-2.125-2.2773-3.6797-2.1641-1.5547 0.10547-2.8867 1.1562-3.3516 2.6484l-1.6094 5.1641-4.918-2.3633c-1.4062-0.67578-3.0781-0.41797-4.2148 0.64453-1.1367 1.0625-1.5078 2.7148-0.92969 4.1602l2.7812 6.9688-7.9336-0.47656c-1.5547-0.089844-3.0078 0.77734-3.6602 2.1914l-10.52 22.844c-0.71484 1.5547-0.29688 3.3945 1.0156 4.4883 0.69922 0.57812 1.5547 0.87109 2.4141 0.87109 0.76172 0 1.5273-0.23047 2.1797-0.69531l8.9297-6.3164c0.30078-0.11719 1.1016-0.39453 2.0469-0.39453 1.2969 0 2.4336 0.50781 3.4805 1.5508 1.4648 1.4648 3.8477 1.4648 5.3281 0.015625 0.91797-0.89844 3.9648-3.2305 6.9688-3.2305 0.99219 0 1.9102 0.24609 2.7656 0.72656l5.7812 3.3633c1.0352 0.60156 2.2969 0.67969 3.3984 0.20312 1.1016-0.47656 1.9102-1.4453 2.1836-2.6133zm-7.3477-1.7656-0.36328 1.5586-1.4023-0.81641c-2.0312-1.1484-4.2266-1.7305-6.5234-1.7305-4.0273 0-7.4727 1.7773-9.6914 3.3086-1.8555-1.082-3.9141-1.6406-6.0859-1.6406-1.6953 0-3.1367 0.33984-4.1602 0.67969l3.875-8.4141 11.297 0.67969c1.293 0.078125 2.5312-0.51172 3.2891-1.5586 0.75781-1.0469 0.92578-2.4102 0.44531-3.6133l-1.3945-3.4961 0.125 0.058593c0.98828 0.47656 2.1367 0.49609 3.1445 0.058594 1.0078-0.4375 1.7734-1.293 2.1016-2.3398l0.011719-0.039062 1.5742 3.3594c0.55078 1.1719 1.6562 1.9805 2.9414 2.1445s2.5586-0.33594 3.3867-1.332l7.2422-8.707 8.7852 2.9492c-2.3828 1.2852-5.3281 3.9141-6.3164 8.1094-4.7383 1.0078-10.598 3.9883-12.281 10.781z" fill="#00bac2"/>
  <path d="m211.99 129.39 10.898-0.97656c0.85156 0.097656 3.3555 0.64453 4.1797 3.7539 0.53125 2.0039 2.6016 3.2031 4.6094 2.6875 0.011719-0.003906 1.3672-0.34375 3.1289-0.34375 3.1523 0 5.3711 1.0312 6.5977 3.0625l3.3008 5.7734c0.59766 1.043 1.6523 1.7422 2.8477 1.8789 0.14453 0.015625 0.28906 0.023438 0.43359 0.023438 1.043 0 2.0469-0.43359 2.7695-1.207l4.5391-4.8867c1.168-1.1992 2.6484-1.7812 4.5195-1.7812 2.875 0 5.5078 1.3633 5.5156 1.3672 1.832 0.98828 4.125 0.30469 5.1133-1.5273 0.98047-1.8125 2.5-2.7305 4.5117-2.7305 0.19922 0 0.36328 0.011719 0.46875 0.019531l10.367 3.4531c0.42578 0.14062 0.86719 0.20312 1.2891 0.19141 2.0508-0.042969 3.6953-1.7188 3.6953-3.7773 0-1.0547-0.43359-2.0117-1.1328-2.6953l-16.473-18.629c-1.0312-1.168-2.6719-1.5781-4.1367-1.043l-7.4922 2.7578 0.65625-7.4961c0.13672-1.5547-0.69922-3.0352-2.1016-3.7227s-3.082-0.44531-4.2266 0.61719l-3.9688 3.6641-3.0391-4.4883c-0.875-1.293-2.4492-1.9141-3.9727-1.5664-1.5195 0.34766-2.6719 1.5977-2.8945 3.1406l-1.082 7.4492-6.668-4.3867c-1.2969-0.85547-2.9883-0.82812-4.2578 0.070312l-20.52 14.5c-1.3945 0.98438-1.957 2.7852-1.3672 4.3906 0.59375 1.6016 2.1875 2.6094 3.8906 2.457zm20.258-13.691 9.4766 6.2344c1.0781 0.71094 2.4453 0.82031 3.625 0.28906 1.1797-0.53125 2.0039-1.625 2.1914-2.9023l0.53516-3.6758 0.035156 0.054687c0.61719 0.91016 1.6016 1.5078 2.6953 1.6367 1.0938 0.125 2.1875-0.23047 2.9961-0.97656l0.019531-0.019531-0.32422 3.6953c-0.11328 1.2891 0.44141 2.5469 1.4688 3.332 1.0273 0.78516 2.3867 0.99219 3.6016 0.54297l10.656-3.9219 6.1445 6.9453c-0.12891-0.003907-0.26563-0.007813-0.40625-0.007813-3.6094 0-6.8047 1.3828-9.1484 3.8828-1.6094-0.51953-3.707-0.99219-5.9961-0.99219-3.9297 0-7.3828 1.4219-9.9805 4.1133-0.015626 0.015625-0.035157 0.035157-0.050782 0.050781l-1.0703 1.1523-0.76953-1.3477c-0.011718-0.019531-0.023437-0.042969-0.035156-0.0625-2.6094-4.3672-7.2617-6.7734-13.102-6.7734-0.61719 0-1.1992 0.027344-1.7344 0.070313-2.1484-3.7656-5.7344-5.4336-8.3984-5.9727z" fill="#00bac2"/>
 </g>
</svg>
