<?xml version="1.0" encoding="UTF-8"?>
<svg width="512pt" height="512pt" version="1.1" viewBox="0 0 512 512" xmlns="http://www.w3.org/2000/svg">
 <g>
  <rect width="512" height="512"/>
  <path d="m402.11 104.86h-55.418c-1.3906-0.003906-2.7227 0.57031-3.6758 1.5859l-133.14 141.64-35.957-35.957c-1.1719-1.1758-2.8516-1.6992-4.4844-1.3945-1.6328 0.30078-3.0117 1.3867-3.6875 2.9062l-20.152 45.797c-0.83594 1.9023-0.42188 4.1211 1.0469 5.5938l33.91 33.91c-0.058594 0.78516-0.12109 1.5703-0.12109 2.3711 0 0.80078 0.058594 1.4766 0.10938 2.2109l-53.203 53.234h-17.438c-2.7812 0-5.0352 2.2578-5.0352 5.0391v40.305c0 1.3359 0.52734 2.6172 1.4727 3.5625 0.94531 0.94531 2.2266 1.4766 3.5625 1.4766h40.305c1.3359 0 2.6172-0.53125 3.5625-1.4766 0.94531-0.94531 1.4766-2.2266 1.4766-3.5625v-18.066l52.609-52.609c0.92578 0.085937 1.8633 0.14062 2.8125 0.14062 0.80078 0 1.5859-0.058593 2.3711-0.12109l33.902 33.914c0.94141 0.94531 2.2227 1.4766 3.5586 1.4766 0.69531 0 1.3828-0.14844 2.0156-0.42969l45.797-20.152c1.5195-0.67578 2.6055-2.0547 2.9102-3.6875 0.30078-1.6328-0.22266-3.3125-1.3984-4.4844l-35.906-35.957 141.64-133.14c1.0156-0.95312 1.5898-2.2812 1.5898-3.6719v-55.422c0-1.3359-0.53125-2.6172-1.4766-3.5625-0.94531-0.94531-2.2266-1.4727-3.5625-1.4727zm-5.0391 55.418h-45.344v-45.344h45.344zm-240.87 100.09 15.801-35.902 43.699 43.699v3.4062-0.003906c-6.6562-1.1758-13.52-0.046875-19.445 3.207l-14.492-14.492-7.1211 7.125 13.664 13.664h-0.003906c-1.8438 2.0312-3.4062 4.3086-4.6367 6.7617zm-11.031 136.7h-30.23v-30.227h30.23zm10.078-27.277-0.003907-7.9883c0-1.3359-0.53125-2.6172-1.4766-3.5625-0.94531-0.94531-2.2266-1.4766-3.5625-1.4766h-8.6172l42.023-42.023h-0.003907c2.8711 5.7773 7.5039 10.492 13.23 13.457zm35.262-68.445c0-5.3438 2.125-10.473 5.9023-14.25 3.7812-3.7812 8.9062-5.9023 14.25-5.9023 5.3477 0 10.473 2.1211 14.25 5.9023 3.7812 3.7773 5.9023 8.9062 5.9023 14.25s-2.1211 10.469-5.9023 14.25c-3.7773 3.7773-8.9023 5.9023-14.25 5.9023-5.3438 0-10.469-2.125-14.25-5.9023-3.7773-3.7812-5.9023-8.9062-5.9023-14.25zm61.129 54.461-27.461-27.461h-0.003906c2.457-1.2344 4.7305-2.793 6.7617-4.6406l13.664 13.664 7.125-7.125-14.492-14.488c3.2539-5.9297 4.3828-12.789 3.207-19.449h3.4062l43.695 43.699zm-2.1445-68.102h-0.003906c-0.94141-0.94141-2.2227-1.4727-3.5586-1.4727h-9.1289c-2.6523-4.5742-6.4531-8.3711-11.023-11.023v-9.1289c-0.003907-1.3359-0.53125-2.6172-1.4766-3.5625l-7.2969-7.2969 124.65-132.61v40.617l-104.32 104.32 7.125 7.125 104.32-104.32h40.617l-132.61 124.65z" fill="#00bac2"/>
  <path d="m220.73 301.34c0 5.5625-4.5117 10.074-10.078 10.074-5.5625 0-10.074-4.5117-10.074-10.074 0-5.5664 4.5117-10.078 10.074-10.078 5.5664 0 10.078 4.5117 10.078 10.078" fill="#00bac2"/>
  <path d="m125.01 376.91h10.078v10.078h-10.078z" fill="#00bac2"/>
  <path d="m276.91 124.25-6.418-11.73c-0.96094-1.5117-2.6289-2.4258-4.418-2.4258-1.793 0-3.4609 0.91406-4.4219 2.4258l-6.418 11.73-11.727 6.418c-1.6133 0.88281-2.6172 2.5781-2.6172 4.418 0 1.8398 1.0039 3.5352 2.6172 4.418l11.73 6.418 6.418 11.73h-0.003906c0.88672 1.6133 2.5781 2.6172 4.4219 2.6172 1.8398 0 3.5312-1.0039 4.418-2.6172l6.418-11.73 11.73-6.418h-0.003906c1.6172-0.88281 2.6172-2.5781 2.6172-4.418 0-1.8398-1-3.5352-2.6172-4.418zm-6.1289 13.543c-0.85156 0.46094-1.5508 1.1602-2.0117 2.0156l-2.6953 4.9297-2.707-4.9414c-0.46484-0.85156-1.1641-1.5508-2.0156-2.0156l-4.9336-2.6953 4.9414-2.707h0.003907c0.85156-0.46094 1.5508-1.1602 2.0156-2.0117l2.6953-4.9336 2.707 4.9414h-0.003906c0.46484 0.85156 1.1641 1.5508 2.0156 2.0156l4.9336 2.6953z" fill="#00bac2"/>
  <path d="m361.04 281.95 6.418 11.73v-0.003906c0.88672 1.6133 2.5781 2.6172 4.418 2.6172s3.5352-1.0039 4.418-2.6172l6.418-11.73 11.73-6.418c1.6133-0.88281 2.6172-2.5781 2.6172-4.418 0-1.8398-1.0039-3.5312-2.6172-4.418l-11.73-6.418-6.418-11.73v0.003906c-0.95703-1.5156-2.625-2.4297-4.418-2.4297-1.7891 0-3.457 0.91406-4.418 2.4297l-6.418 11.73-11.73 6.418 0.003906-0.003907c-1.6172 0.88672-2.6172 2.5781-2.6172 4.418 0 1.8398 1 3.5352 2.6172 4.418zm6.125-13.543c0.85156-0.46484 1.5547-1.1641 2.0156-2.0156l2.6953-4.9336 2.707 4.9414c0.46484 0.85156 1.1641 1.5547 2.0156 2.0156l4.9414 2.707-4.9414 2.707c-0.85156 0.46094-1.5508 1.1602-2.0156 2.0117l-2.707 4.9219-2.707-4.9414h0.003906c-0.46484-0.85156-1.1641-1.5508-2.0156-2.0156l-4.9336-2.6953z" fill="#00bac2"/>
  <path d="m200.58 175.39h10.078v10.078h-10.078z" fill="#00bac2"/>
  <path d="m200.58 195.54h10.078v10.078h-10.078z" fill="#00bac2"/>
  <path d="m190.5 185.47h10.078v10.078h-10.078z" fill="#00bac2"/>
  <path d="m210.66 185.47h10.078v10.078h-10.078z" fill="#00bac2"/>
 </g>
</svg>
