<?xml version="1.0" encoding="UTF-8"?>
<svg width="512pt" height="512pt" version="1.1" viewBox="0 0 512 512" xmlns="http://www.w3.org/2000/svg">
 <g>
  <rect width="512" height="512"/>
  <path d="m396.65 202.8c-0.48438-1.9023-1.7422-3.4492-3.5156-4.2891-1.7422-0.83984-3.7734-0.80469-5.5156 0-12.543 5.9648-27.828 5.418-41.625-0.58203l7.5781-7.6094c1.0625-1.0625 1.7422-2.4844 1.8711-3.9648l2.2891-25.086c0.16016-1.9023-0.51562-3.7734-1.8711-5.125-1.3555-1.3555-3.2578-2.0312-5.1602-1.8711l-25.055 2.2891c-1.5156 0.12891-2.9336 0.77344-4 1.8398l-7.5781 7.6094c-6.0312-13.801-6.5781-29.082-0.61328-41.66 0.83984-1.7422 0.83984-3.7734 0-5.5156-0.80469-1.7422-2.3867-3.0312-4.2578-3.5156-33.887-8.4141-67.617 0.03125-90.152 22.57-22.539 22.539-30.953 56.234-22.539 90.121 0.45312 1.9023 1.7422 3.4492 3.4805 4.2891 1.7422 0.83984 3.7734 0.83984 5.5469 0 12.543-5.9648 27.828-5.418 41.625 0.58203l-94.207 94.219v0.03125h-0.03125l-22.766 22.797h-0.03125l-11.383 11.414c-4.2578 4.2578-6.6094 9.8984-6.6094 15.961 0 6.0312 2.3555 11.672 6.6094 15.93 4.2578 4.2891 9.9297 6.6406 15.961 6.6406s11.703-2.3555 15.961-6.6406l11.383-11.383h0.03125l22.766-22.797h0.03125l94.215-94.25c6.0312 13.832 6.5469 29.082 0.61328 41.66-0.83984 1.7422-0.83984 3.7734-0.03125 5.5156 0.83984 1.7422 2.418 3.0312 4.2891 3.5156 8.6406 2.1289 17.281 3.1914 25.73 3.1914 24.633 0 47.625-8.9648 64.391-25.762 22.57-22.539 30.984-56.234 22.57-90.125zm-189.14 14.93c-4.5469-26.957 2.9336-52.977 20.668-70.711s43.758-25.246 70.711-20.668c-4.9336 15.895-2.8047 33.664 5.4492 49.367l-47.43 47.461c-15.734-8.2852-33.469-10.383-49.398-5.4492zm-65.969 166.41c-1.8047 1.8047-4.3203 2.7422-6.8359 2.7422s-5.0312-0.93359-6.8359-2.7422c-1.8398-1.8398-2.8359-4.2578-2.8359-6.8359 0-2.6133 1-5.0312 2.8359-6.8672l6.8359-6.8359 13.672 13.672zm15.961-15.961-13.672-13.703 13.672-13.672 13.672 13.672zm22.797-22.797-13.672-13.703 13.672-13.672 13.672 13.672zm22.797-22.828-13.672-13.672 139.71-139.71 15.059-1.3555-1.3867 15.059zm161.89-38.758c-17.734 17.734-43.754 25.215-70.711 20.668 4.9336-15.895 2.8047-33.664-5.4492-49.367l47.43-47.461c15.703 8.2852 33.469 10.383 49.367 5.4805 4.5781 26.926-2.9023 52.945-20.637 70.68z" fill="#00bac2"/>
 </g>
</svg>
