<?xml version="1.0" encoding="UTF-8"?>
<svg width="512pt" height="512pt" version="1.1" viewBox="0 0 512 512" xmlns="http://www.w3.org/2000/svg">
 <g>
  <rect width="512" height="512"/>
  <path d="m358.95 181.49-52.902-78.16c-0.81641-1.2109-2.2617-1.8398-3.7031-1.6172l-79.969 12.316-39.289 6c-1.4453 0.21875-2.6328 1.2539-3.0508 2.6523l-27.023 90.473c-0.003906 0.011719-0.003906 0.023438-0.007812 0.039062-0.054688 0.1875-0.09375 0.375-0.11719 0.57031-0.003906 0.023437-0.003906 0.050781-0.007812 0.078125-0.019531 0.19531-0.03125 0.39453-0.019531 0.59766v0.015625c0.007812 0.11719 0.019531 0.23828 0.039062 0.35938 0.007813 0.042969 0.023438 0.082032 0.03125 0.125 0.023438 0.12109 0.054688 0.23828 0.089844 0.35547 0.03125 0.10156 0.058594 0.20312 0.097656 0.30078 0.011719 0.035156 0.019531 0.070313 0.035157 0.10547l64.551 153.78c0.59766 1.418 1.9805 2.3164 3.4805 2.3164 0.19141 0 0.38281-0.015625 0.57812-0.042969l39.297-6.043 79.922-12.273c1.7148-0.26172 3.0273-1.6602 3.1875-3.3867l15.414-166.09c0.082031-0.875-0.14453-1.7461-0.63281-2.4727zm-172.36-54.355 31.031-4.7383-24.629 82.426-31.031 4.7695zm-24.598 90.102 31.598-4.8555 61.539 146.59-31.598 4.8594zm174.93 129.17-74.094 11.379-22.102-52.648-40.785-97.16 14.598-48.859 11.352-37.988 75.242-11.586 50.805 75.062z" fill="#00bac2"/>
  <path d="m177.82 195.78c0.35938 0.10938 0.72656 0.16016 1.082 0.16016 1.625 0 3.1289-1.0586 3.6211-2.6992l14.824-49.613c0.59766-2-0.53906-4.1055-2.5391-4.7031-2-0.59766-4.1055 0.53906-4.7031 2.5391l-14.824 49.613c-0.59766 2 0.54297 4.1055 2.5391 4.7031z" fill="#00bac2"/>
  <path d="m223.72 326.75-31.414-74.832c-0.80859-1.9258-3.0234-2.8281-4.9453-2.0234-1.9258 0.80859-2.8281 3.0234-2.0234 4.9453l31.414 74.832c0.60547 1.4453 2.0078 2.3164 3.4844 2.3164 0.48828 0 0.98438-0.09375 1.4609-0.29688 1.9258-0.80469 2.832-3.0195 2.0234-4.9414z" fill="#00bac2"/>
  <path d="m286.33 158.64c-0.15234-0.99219-0.69141-1.8828-1.5-2.4766-0.80859-0.59375-1.8242-0.84375-2.8125-0.6875l-24.16 3.7266c-0.99219 0.15234-1.8789 0.69531-2.4727 1.5039-0.59375 0.80859-0.83984 1.8203-0.68359 2.8125l2.5195 16.262-17.512 2.6836c-2.0625 0.31641-3.4766 2.2422-3.1641 4.3047l4.1953 27.492c0.15234 0.99219 0.69141 1.8828 1.4961 2.4727 0.80859 0.59375 1.8164 0.83984 2.8086 0.69141l17.562-2.6836 7.3086 47.684c0.15234 0.99219 0.69141 1.8828 1.5 2.4766 0.65234 0.47656 1.4336 0.73047 2.2344 0.73047 0.19141 0 0.38672-0.015625 0.57812-0.042969l24.121-3.7266c2.0625-0.32031 3.4727-2.2461 3.1602-4.3086l-7.3086-47.641 17.52-2.6875c0.99219-0.15234 1.8789-0.69141 2.4727-1.5 0.59375-0.80859 0.83984-1.8203 0.6875-2.8086l-4.2344-27.527c-0.15234-0.99219-0.69531-1.8828-1.5039-2.4727-0.80859-0.59375-1.8203-0.83984-2.8125-0.6875l-17.516 2.7148zm20.504 41.684-17.52 2.6875c-0.99219 0.15234-1.8789 0.69141-2.4727 1.5s-0.83984 1.8164-0.6875 2.8086l7.3086 47.645-16.652 2.5703-7.3086-47.676c-0.28516-1.8672-1.8945-3.207-3.7305-3.207-0.19141 0-0.38281 0.015625-0.57422 0.042969l-17.559 2.6836-3.0547-20.023 17.52-2.6836c0.99219-0.15234 1.8828-0.69141 2.4766-1.5 0.59375-0.80859 0.83984-1.8203 0.6875-2.8125l-2.5195-16.266 16.68-2.5703 2.4883 16.301c0.15234 0.99219 0.69141 1.8828 1.5 2.4766 0.80859 0.59375 1.8203 0.83984 2.8125 0.6875l17.52-2.7148z" fill="#00bac2"/>
  <path d="m322.4 305.59c0.19141 0 0.38281-0.015625 0.57422-0.042969l8.4727-1.293c2.0625-0.31641 3.4805-2.2422 3.1641-4.3047s-2.2461-3.4805-4.3047-3.1641l-8.4727 1.293c-2.0625 0.31641-3.4805 2.2422-3.1641 4.3047 0.28516 1.8711 1.8945 3.207 3.7305 3.207z" fill="#00bac2"/>
  <path d="m307.75 300.23-8.4727 1.293c-2.0625 0.31641-3.4805 2.2422-3.1641 4.3047 0.28516 1.8711 1.8945 3.207 3.7305 3.207 0.19141 0 0.38281-0.015624 0.57422-0.042968l8.4727-1.293c2.0625-0.31641 3.4805-2.2422 3.1641-4.3047s-2.2422-3.4805-4.3047-3.1641z" fill="#00bac2"/>
  <path d="m285.23 303.69-8.4727 1.332c-2.0625 0.32422-3.4688 2.2578-3.1445 4.3203 0.29297 1.8633 1.9023 3.1914 3.7266 3.1914 0.19531 0 0.39453-0.015625 0.58984-0.046875l8.4727-1.332c2.0625-0.32422 3.4688-2.2578 3.1445-4.3203-0.32031-2.0586-2.2539-3.4609-4.3164-3.1445z" fill="#00bac2"/>
  <path d="m262.73 307.18-8.4727 1.293c-2.0625 0.31641-3.4805 2.2422-3.1641 4.3047 0.28516 1.8711 1.8945 3.2109 3.7305 3.2109 0.19141 0 0.38281-0.015625 0.57422-0.042969l8.4688-1.293c2.0625-0.31641 3.4805-2.2422 3.1641-4.3047-0.30859-2.0664-2.2422-3.4844-4.3008-3.168z" fill="#00bac2"/>
  <path d="m347.6 374.76c-0.46094-1.2695-1.5625-2.1953-2.8945-2.4297-1.3281-0.23438-2.6836 0.25781-3.5508 1.2891l-14.664 17.441-12.453-14.848c-0.86719-1.0352-2.2227-1.5273-3.5508-1.293s-2.4336 1.1602-2.8945 2.4258l-6.5625 18.016-7.1992-19.781c-0.46094-1.2695-1.5664-2.1953-2.8945-2.4297-1.3281-0.23047-2.6836 0.25781-3.5508 1.293l-12.457 14.848-14.66-17.438c-0.86719-1.0312-2.2188-1.5234-3.5508-1.2891-1.3281 0.23438-2.4297 1.1602-2.8906 2.4297l-6.082 16.719-21.938-16.082c-0.92578-0.67578-2.1055-0.89844-3.2148-0.60156-1.1055 0.29688-2.0195 1.082-2.4805 2.1328l-10.191 23.238-10.164-18.773c-0.63672-1.1797-1.8516-1.9297-3.1914-1.9766-1.3516-0.058594-2.6016 0.62109-3.3203 1.7539l-10.91 17.199-10.633-18.359c-0.73438-1.2695-2.1406-2-3.6016-1.8711-1.4609 0.12891-2.7148 1.0938-3.2188 2.4727l-7.9219 21.77c-0.71484 1.9609 0.29687 4.1289 2.2578 4.8438 1.9609 0.71094 4.1289-0.29688 4.8438-2.2578l5.1562-14.164 7.4375 12.848c0.10938 0.1875 0.23438 0.36719 0.375 0.53516l2.6289 3.1328c0.71094 0.84766 1.7617 1.3438 2.8711 1.3516 1.082 0.007812 2.1641-0.47266 2.8867-1.3125l0.47266-0.54688c0.12109-0.14062 0.23047-0.28906 0.32812-0.44141l9.9609-15.703 10.777 19.91c0.66016 1.2227 1.9414 1.9805 3.3203 1.9805 0.050781 0 0.10547 0 0.15625-0.003907 1.4414-0.058593 2.7227-0.9375 3.3047-2.2578l11.402-26 22.199 16.273c0.96094 0.70312 2.1953 0.91406 3.332 0.56641 1.1367-0.34375 2.0469-1.207 2.4531-2.3242l5.5703-15.305 13.363 15.895c0.71875 0.85547 1.7773 1.3477 2.8906 1.3477h0.0625c1.1367-0.019531 2.207-0.54688 2.9102-1.4414l11.051-13.207 8.5078 23.379c0.54297 1.4922 1.9609 2.4844 3.5508 2.4844 1.5859 0 3.0078-0.99219 3.5508-2.4844l7.875-21.617 10.73 12.793 0.47266 0.54688c0.72656 0.84375 1.7695 1.3086 2.8984 1.3086 1.1133-0.011719 2.1641-0.51172 2.8711-1.3711l2.6094-3.1562 10.695-12.723 5.6836 15.625c0.71484 1.9609 2.8867 2.9727 4.8438 2.2578 1.9609-0.71484 2.9727-2.8828 2.2578-4.8438z" fill="#00bac2"/>
 </g>
</svg>
