<?xml version="1.0" encoding="UTF-8"?>
<svg width="512pt" height="512pt" version="1.1" viewBox="0 0 512 512" xmlns="http://www.w3.org/2000/svg">
 <g>
  <rect width="512" height="512"/>
  <path d="m257.93 333.58c6.1094-26.371 6.2031-43.473 5.9609-49.602-0.070313-1.7812 1.3125-3.2812 3.0938-3.3516 1.8125-0.16406 3.2812 1.3125 3.3516 3.0938 0.25391 6.3906 0.16406 24.18-6.1172 51.312-0.34375 1.4883-1.6719 2.4961-3.1406 2.4961-0.24219 0-0.48438-0.027344-0.73047-0.082031-1.7383-0.40234-2.8164-2.1328-2.418-3.8672zm15.52 2.4414c0.33984 0.11719 0.69141 0.17187 1.0312 0.17187 1.3438 0 2.6016-0.84766 3.0547-2.1914 3.0117-8.9141 5.1055-19.305 6.2266-30.887 0.86328-8.9297 0.38281-22.852-1.457-42.566-0.16797-1.7773-1.7656-3.0742-3.5117-2.9102-1.7734 0.16797-3.0742 1.7383-2.9102 3.5117 1.7812 19.039 2.2734 32.957 1.4648 41.348-1.0742 11.09-3.0664 20.996-5.918 29.445-0.57422 1.6797 0.33594 3.5117 2.0195 4.0781zm50.73-68.102c5.1562 6.1406 7.5391 15.613 6.5469 25.98-1.2109 12.586-8.9023 29.727-20.758 36.707-4.8672 2.8672-9.2617 3.6953-12.797 4.3633-3.2695 0.61719-5.2031 1.0508-6.5273 2.332-3.1797 8.8398-6.1602 13.492-7.7383 15.922-1.3438 2.0742-4.9336 2.7305-6.1445 2.7305h-46.016c-1.4844 0-5.0391-0.15625-6.9453-3.0742-7.8945-12.199-12.477-28.312-14.508-49.309-0.078124-0.78906-0.13672-1.6094-0.19531-2.4453-0.77344 0.25391-1.5977 0.42578-2.4883 0.42578-0.62109 0-1.2734-0.070313-1.9453-0.23047-2.8008-0.66016-5.0898-2.3711-6.4375-4.8203-1.3906-2.5156-1.6211-5.5859-0.64062-8.4258 1.8633-5.4023 2.8086-10.691 2.8086-15.727 0-1.2422-0.38281-3.6641-0.79297-6.2266-1.0781-6.7539-2.5469-16.004-0.39844-22.438 3.9531-11.812 14.309-13.801 19.871-14.871 1.0391-0.19922 2.4648-0.47266 2.8555-0.66797 0.12109-0.11719 0.85938-0.43359 1.4492-1.1211 3.7656-4.375 11.578-12.945 25.77-12.945h0.15625c15.609 0 23.609 7.8477 26.602 11.711 3.5117-0.33984 7.2422 0.15625 10.578 1.7266 8.0391 3.7734 11.215 11.926 8.6328 21.863 0.14062 1.2109 0.75781 6.5078 1.3828 13.645 3.0781-1.4141 6.9453-2.5273 11.492-2.5273 0.71094 0 1.4375 0.019531 2.168 0.082031 5.4688 0.41797 10.332 2.957 14.02 7.3398zm-26.629 36.555c-0.45312 4.6641-1.0547 8.8945-1.7422 12.809 0.90625 0.77734 2.1172 1.0977 2.8242 1.0977 1.2773 0 2.5234-0.34766 3.8164-1.0742 6.7578-3.7773 12.219-15.914 13.086-24.879 0.58984-6.1406-0.57812-11.77-3.0391-14.684-1.0078-1.2109-2.168-1.8438-3.5391-1.9492-3.8516-0.29688-5.7969 1.7305-7.1367 4.0352-0.15625 0.26953-0.23047 0.42578-0.32422 0.60547-0.55469 1.1289-1.6602 3.25-3.6133 4.4336 0.23438 7.0547 0.21094 13.992-0.33203 19.605zm-88.723-10.828c-0.17969-19.066 2.7812-43.289 2.9297-44.492 0.19922-1.6172 1.5703-2.8281 3.1992-2.8281h2.3555c2.7227 0 4.707 2.082 7.0117 4.4961 2.6055 2.7266 5.5586 5.8203 9.2461 5.8203 4.5352 0 8.2344-3.1953 11.5-6.0156 2.668-2.3125 4.9766-4.3008 7.7109-4.3008h36.426c1.1914-6.1523-0.6875-10.73-5.457-12.969-4.875-2.293-11.637-1.3398-13.914 1.9648-0.57031 0.75781-1.4688 1.2266-2.2617 1.332-1.0586 0.13672-1.8789-0.32422-2.7305-0.85547-0.73828-0.46094-1.5312-0.83984-2.3516-1.1289-3.0664-1.0898-6.3633-0.73047-9.0195 1.1953-1.4414 1.043-3.8867 0.9375-4.9336-0.50391-1.0469-1.4375-0.30078-3.668 1.1406-4.7109 6.1953-4.5039 12.832-3.2305 16.945-1.2383 0.72266-0.61328 1.5234-1.1484 2.3906-1.6172-3.1367-3.0898-9.2852-7.2656-19.742-7.2656h-0.11719c-11.238 0-17.508 6.7695-20.883 10.699-1.0234 1.1914-1.7617 1.7812-2.5391 2.3867-1.3047 1.0078-3.0391 1.2109-5.4375 1.6719-5.1602 0.99219-12.219 2.2812-14.977 10.52-1.6523 4.9336-0.32422 13.25 0.64844 19.344 0.48828 3.0664 0.875 5.4727 0.875 7.2227 0 5.75-1.0625 11.738-3.1602 17.82-0.38281 1.1172-0.31641 2.2812 0.19531 3.207 0.32422 0.58984 0.98047 1.3477 2.2617 1.6523 1.1758 0.27734 2.1641-0.72266 2.6875-1.4062zm6.8828 8.9336c1.4805 15.289 5.4961 34.43 11.676 44.035 1.4102 2.1914 4.3594 2.8906 7.6797 2.8906h37.086c3.3047 0 5.0352-0.35156 7.2266-3.125 2.8047-3.5469 10.074-25.211 11.754-42.527 1.4844-15.387-1.1719-42.32-2.125-51.082l-36.227 0.003906c-0.51172 0.15234-2.2344 1.6406-3.4961 2.7266-3.7031 3.2031-8.7852 7.5859-15.715 7.5859-6.4531 0-10.762-4.5156-13.91-7.8164-0.58984-0.61719-1.3047-1.3594-1.8945-1.8945-1.0039 9.1289-3.5 34.168-2.0547 49.203zm103.53-30.516c-2.5391-3.0195-5.8672-4.7695-9.6133-5.0547-0.58203-0.050781-1.1133-0.066407-1.6328-0.066407-4.6133 0-8.3125 1.5078-10.926 3.0703 0.11719 1.5703 0.22656 3.1875 0.32812 4.832 3.0039-4.0859 6.8984-5.8633 12.059-5.4766 3.1133 0.24609 5.8633 1.707 7.9766 4.2344 3.6406 4.3086 5.293 11.402 4.5195 19.449-1.0391 10.781-7.4414 24.91-16.355 29.895-2.2461 1.2578-4.5898 1.8945-6.9609 1.8945-1.2734 0-2.7227-0.34375-4.1328-0.93359-0.41797 1.8633-0.85938 3.625-1.3125 5.293 0.91016-0.21094 1.8398-0.38672 2.7852-0.5625 3.1992-0.60547 6.8242-1.2891 10.719-3.5781 9.6562-5.6875 16.543-20.621 17.617-31.766 0.82422-8.6719-1.0234-16.406-5.0703-21.23zm81.859-106.54c0 7.4961-6.4492 9.8672-9.9961 9.8672h-31.922v17.555c16.121 0.28125 25.883 1.6445 26.391 1.7227 1.6914 0.25 3.1641 1.7812 3.0078 3.4805-0.019531 0.1875-1.6914 18.91-0.027344 27.797 1.8438 9.8281 0.12109 23.441 0.050781 24.016-0.20312 1.6133-1.5703 2.8164-3.1953 2.8164h-12.023l11.184 2.3359c1.5469 0.32422 2.6328 1.7266 2.5625 3.3047-0.007812 0.12109-0.54688 12.246 1.1289 21.191 1.3945 7.4414 0.92969 30.699-3.543 35.262-1.0117 1.0391-2.3633 1.5117-3.6953 1.2812-0.28906-0.046875-0.83984-0.085938-1.6055-0.12109 1.8203 1.2695 3.2148 2.7969 3.9492 4.6328 3.2383 8.0977 3.1484 15.781 3.0547 23.914-0.019531 1.4375-0.035157 2.9102-0.035157 4.4219 0 9.8672 0.42188 24.961 0.42969 25.113 0.023438 0.85938-0.29688 1.6914-0.88672 2.3164-0.58984 0.625-1.4102 0.98437-2.2656 1.0039-2.7227 0.058594-45.789 0.96875-80.344 0.96875-17.961 0-33.621-0.24609-40.117-0.98828-11.516-1.3125-43.969-0.9375-72.586-0.60156-51.48 0.59766-51.523 0.47266-52.691-2.6484-0.71875-1.9141-1.3398-19.754-1.8516-53.02-0.027343-1.6797 1.2422-3.0938 2.9102-3.2617l8.875-0.86719-7.875-1.4023c-1.4453-0.25391-2.5391-1.457-2.6523-2.9219-0.074219-0.98828-1.875-24.383 0.027344-36.414 1.7539-11.086-0.78516-23.488-0.8125-23.613-0.17578-0.85547-0.011719-1.7461 0.47656-2.4688 0.48828-0.72266 1.2305-1.2148 2.0898-1.3633l6.9414-1.2109c-7.6406-2.582-8.6055-3.6484-9.0508-4.1992-0.88281-1.0977-2.4219-2.7461 0.3125-46.438 0.097656-1.5391 0.86328-2.7891 2.3867-2.9961 0.60156-0.078125 9.8984-1.25 22.793-1.2891v-17.309h-48.363v-6.4492h48.367v-6.4492h-48.367v-6.4492h48.367v-2.6172c0-5.9102 4.0312-12.641 11.285-12.641 7.457 0 11.285 6.7305 11.285 12.641l-0.003906 2.6172h151.55v-2.6172c0-5.9102 4.0742-11.461 9.6367-12.641 0.39453-0.17188 3.0586-0.17188 3.4492 0 5.5664 1.1836 9.4844 6.7305 9.4844 12.641v2.6172h31.922c5.6992 0 9.9961 4.0781 9.9961 9.4805zm-64.488 27.758v-17.891h-151.55v18.316c0 0.20703 4.7148 0.43359 7.1367 0.71875 25.398 2.9883 100.79 0.40234 135.84-0.84375 3.0859-0.10938 5.3477-0.20703 8.5703-0.30078zm-151.55-30.789v6.4492h151.55v-6.4492zm-16.121-9.0664v39.344c6.4492 0.074219 6.4492 0.21875 9.6719 0.44922v-39.793c0-3.0156-1.3086-5.8203-4.8359-5.8203-3.4219 0.003906-4.8359 2.8086-4.8359 5.8203zm212.97 47.262c-5.7266-0.61719-19.402-1.7656-38.355-1.1836-3.8164 0.11328-9.0898 0.30469-15.402 0.52734-37.906 1.3477-108.47 3.8516-134.37 0.80469-23.582-2.7734-42.977-1.3984-49.797-0.73828-1.0117 16.852-1.7422 34.68-1.3945 39.312 2.7266 1.2656 10.922 3.8594 18.012 5.8555 2.1562 0.066406 13.219 0.42578 18.238 0.47266 7.4336 0.074219 11.785 0.92578 11.969 0.96484 1.7461 0.34375 2.875 2.043 2.5312 3.7852-0.30469 1.5391-1.6523 2.6016-3.1602 2.6016-0.20703 0-0.41406-0.019532-0.62109-0.0625-0.042968-0.007813-4.0156-0.76953-10.777-0.83984-5.1992-0.050781-16.371-0.41406-18.445-0.48438l-16.902 2.9297c0.71094 4.7578 1.6758 13.934 0.29297 22.648-1.4375 9.1016-0.54688 26.07-0.14062 32.422l28.488 5.0625c1.5859 0.28125 2.7227 1.6914 2.6562 3.2969-0.066406 1.6094-1.3008 2.9258-2.9062 3.082l-29.262 2.8555c0.26953 16.266 0.78516 39.379 1.2852 46.332 6.4492 0.48828 27.699 0.23828 46.688 0.019531 13.227-0.15625 27.266-0.31641 39.73-0.31641 14.699 0 27.211 0.22266 33.656 0.96094 16.664 1.8984 98.938 0.38672 116.35 0.042968-0.12109-5.0352-0.33984-14.891-0.33984-22.047 0-1.5391 0.019532-3.0312 0.035156-4.4961 0.089844-7.8008 0.17188-14.539-2.5938-21.445-1.8555-4.6484-17.934-6.8164-28.211-6.8164-1.7656 0-3.2031-1.4219-3.2227-3.1875s1.3867-3.2188 3.1523-3.2617c4.3867-0.09375 24.699-0.51562 31.336-0.15234 1.6133-4.332 3.0156-20.746 1.4961-28.84-1.3281-7.0703-1.3906-15.617-1.3125-19.93l-18.008-3.7539-29.863-1.207c-1.625-0.066406-2.9453-1.3281-3.082-2.9492-0.13672-1.6172 0.95312-3.0898 2.543-3.4258l14.797-3.1367c0.19922-0.039063 0.42578-0.0625 0.65234-0.0625h34.844c0.39062-4.3516 0.90234-12.863-0.28125-19.188-1.4141-7.5195-0.73438-20.504-0.30859-26.453zm-29.184-7.793v-39.465c0-3.0156-1.8906-5.8203-4.8359-5.8203-2.9453 0-4.8359 2.8047-4.8359 5.8203v39.641c0-0.007812-0.011719-0.011718 0.14844-0.015624 3.4961-0.10547 6.3008-0.15234 9.5234-0.16016zm41.918-27.371c0-2.0938-1.7812-3.0312-3.5469-3.0312h-31.922v6.4492h31.922c0.66797 0 3.5469-0.60156 3.5469-3.418zm-199.91 151.74h-9.6719c-1.7812 0-3.2227 1.4414-3.2227 3.2227s1.4414 3.2227 3.2227 3.2227h9.6719c1.7812 0 3.2227-1.4414 3.2227-3.2227s-1.4414-3.2227-3.2227-3.2227zm119.3 35.469c0 1.7812 1.4414 3.2227 3.2227 3.2227h16.121c1.7812 0 3.2227-1.4414 3.2227-3.2227s-1.4414-3.2227-3.2227-3.2227h-16.121c-1.7812 0-3.2227 1.4414-3.2227 3.2227z" fill="#00bac2"/>
 </g>
</svg>
