<?xml version="1.0" encoding="UTF-8"?>
<svg width="512pt" height="512pt" version="1.1" viewBox="0 0 512 512" xmlns="http://www.w3.org/2000/svg">
 <defs>
  <clipPath id="e">
   <path d="m117 94.781h223v146.22h-223z"/>
  </clipPath>
  <clipPath id="d">
   <path d="m238 230h62v187.22h-62z"/>
  </clipPath>
  <clipPath id="c">
   <path d="m135 276h52v141.22h-52z"/>
  </clipPath>
  <clipPath id="b">
   <path d="m117 94.781h46v56.219h-46z"/>
  </clipPath>
  <clipPath id="a">
   <path d="m263 402h12v15.219h-12z"/>
  </clipPath>
 </defs>
 <rect width="512" height="512"/>
 <g clip-path="url(#e)">
  <path d="m313.94 240.89c-0.3125 0-0.62109-0.03125-0.93359-0.085938l-80.609-15.113c-2.7344-0.51562-4.5352-3.1484-4.0195-5.8789 0.51562-2.7305 3.1133-4.5391 5.8789-4.0273l77.996 14.625 7.2109-7.2109 7.5117-30.047-6.4023 2.1367c-1.3164 0.43359-2.7305 0.31641-3.9492-0.32812l-84.543-44.758h-13.863c-0.74609 0-1.4805-0.16797-2.1562-0.48438l-95.723-45.344c-2.5156-1.1914-3.5938-4.1953-2.3945-6.707 1.1875-2.5156 4.2031-3.582 6.707-2.3984l94.699 44.859h13.98c0.82031 0 1.6328 0.20312 2.3594 0.58594l83.742 44.336 13.07-4.3594c1.7383-0.57812 3.6719-0.16797 5.0195 1.082 1.3438 1.25 1.9102 3.1406 1.4609 4.9219l-10.078 40.305c-0.22266 0.88672-0.67969 1.6914-1.3242 2.3359l-10.078 10.078c-0.95312 0.95312-2.2383 1.4766-3.5625 1.4766z" fill="#00bac2"/>
 </g>
 <g clip-path="url(#d)">
  <path d="m288.7 417.22c-0.38672 0-0.78125-0.046875-1.1758-0.13672-2.707-0.64453-4.375-3.3672-3.7266-6.0703 24.258-101.68-43.273-170.92-43.957-171.6-1.9648-1.9688-1.9609-5.1602 0.011718-7.125 1.9766-1.9648 5.1523-1.9609 7.1172 0 0.72656 0.72656 72.23 73.77 46.629 181.06-0.55078 2.3164-2.6211 3.8711-4.8984 3.8711z" fill="#00bac2"/>
 </g>
 <path d="m167.83 150.2h-50.383c-2.7852 0-5.0391-2.2578-5.0391-5.0391s2.2539-5.0391 5.0391-5.0391h50.383c2.7852 0 5.0391 2.2578 5.0391 5.0391s-2.25 5.0391-5.0391 5.0391z" fill="#00bac2"/>
 <path d="m142.64 190.5h-40.305c-2.7852 0-5.0391-2.2578-5.0391-5.0391s2.2539-5.0391 5.0391-5.0391h40.305c2.7852 0 5.0391 2.2578 5.0391 5.0391-0.003906 2.7812-2.2539 5.0391-5.0391 5.0391z" fill="#00bac2"/>
 <path d="m152.72 225.77h-35.266c-2.7852 0-5.0391-2.2578-5.0391-5.0391s2.2539-5.0391 5.0391-5.0391h35.266c2.7852 0 5.0391 2.2578 5.0391 5.0391s-2.2539 5.0391-5.0391 5.0391z" fill="#00bac2"/>
 <path d="m157.76 256h-20.152c-2.7852 0-5.0391-2.2578-5.0391-5.0391s2.2539-5.0391 5.0391-5.0391h20.152c2.7852 0 5.0391 2.2578 5.0391 5.0391s-2.2539 5.0391-5.0391 5.0391z" fill="#00bac2"/>
 <path d="m137.61 256c-0.40234 0-0.81641-0.046875-1.2227-0.15234-2.6992-0.67578-4.3438-3.4102-3.668-6.1094 0.36328-1.5977 3.0938-16.234-17.133-24.328-2.5859-1.0391-3.8438-3.9648-2.8125-6.5508s3.9844-3.8281 6.5508-2.8047c23.16 9.2656 25.285 27.684 23.172 36.129-0.57812 2.2891-2.6289 3.8164-4.8867 3.8164z" fill="#00bac2"/>
 <path d="m117.46 225.77c-0.40234 0-0.81641-0.046876-1.2227-0.15234-2.6992-0.67578-4.3438-3.4102-3.668-6.1094 0.15234-0.66406 3.8242-17.211-13.25-30.016-2.2266-1.668-2.6797-4.8281-1.0078-7.0547 1.668-2.2148 4.8281-2.6797 7.0469-1.0078 22.57 16.922 17.219 39.562 16.977 40.516-0.56641 2.2969-2.6172 3.8242-4.875 3.8242z" fill="#00bac2"/>
 <path d="m177.91 286.23h-15.113c-2.7852 0-5.0391-2.2539-5.0391-5.0391s2.2539-5.0391 5.0391-5.0391h15.113c2.7852 0 5.0391 2.2539 5.0391 5.0391s-2.2539 5.0391-5.0391 5.0391z" fill="#00bac2"/>
 <path d="m102.34 190.5c-1.9531 0-3.8086-1.1445-4.6289-3.0469-1.0977-2.5508 0.085937-5.5117 2.6289-6.6133 4.2383-1.832 15.715-8.5234 17.91-17.336 1.1797-4.7617-0.36719-9.7305-4.7344-15.195-1.7383-2.1719-1.3789-5.3438 0.78516-7.0781 2.1797-1.7422 5.3438-1.3789 7.082 0.78516 6.3867 7.9805 8.6133 16.043 6.6289 23.961-3.8789 15.469-22.895 23.773-23.699 24.121-0.63672 0.27344-1.3125 0.40234-1.9727 0.40234z" fill="#00bac2"/>
 <path d="m243.41 240.89c-2.7852 0-5.0391-2.2578-5.0391-5.0391v-13.332c0-2.7812 2.2539-5.0391 5.0391-5.0391s5.0391 2.2578 5.0391 5.0391l-0.003906 13.332c0 2.7812-2.25 5.0391-5.0352 5.0391z" fill="#00bac2"/>
 <path d="m269.1 412.54c-0.38672 0-0.78125-0.046874-1.1758-0.13672-2.707-0.64453-4.375-3.3672-3.7266-6.0703 12.66-53.051-2.4141-95.996-17.285-122.68-1.3594-2.4297-0.48828-5.5 1.9453-6.8516 2.4219-1.3555 5.5-0.48828 6.8516 1.9453 15.75 28.25 31.699 73.719 18.289 129.93-0.55469 2.3125-2.6211 3.8633-4.8984 3.8633z" fill="#00bac2"/>
 <g clip-path="url(#c)">
  <path d="m140.49 417.22c-1.3281 0-2.6484-0.52344-3.6406-1.5586-1.9258-2.0117-1.8555-5.1992 0.15625-7.125 22.832-21.844 55.117-72.812 31.277-125.26-1.1523-2.5352-0.035156-5.5234 2.5-6.6719 2.5586-1.168 5.5273-0.023437 6.6719 2.5 26.18 57.594-8.7266 113.04-33.484 136.72-0.97656 0.93359-2.2266 1.3984-3.4805 1.3984z" fill="#00bac2"/>
 </g>
 <g clip-path="url(#b)">
  <path d="m157.75 150.2c-2.3516 0-4.457-1.6562-4.9336-4.0508-4.5664-22.812-32.844-41.945-33.129-42.137-2.3086-1.5469-2.9336-4.6758-1.3867-6.9883 1.5469-2.3086 4.6602-2.9375 6.9844-1.3945 1.3047 0.87109 32.027 21.617 37.414 48.547 0.54297 2.7305-1.2227 5.3789-3.9492 5.9297-0.33984 0.066406-0.67969 0.09375-1 0.09375z" fill="#00bac2"/>
 </g>
 <path d="m162.8 286.23c-2.7852 0-5.0391-2.2539-5.0391-5.0391 0-13.891-9.0391-25.191-20.152-25.191-2.7852 0-5.0391-2.2578-5.0391-5.0391s2.2539-5.0391 5.0391-5.0391c16.672 0 30.23 15.824 30.23 35.266-0.003907 2.7891-2.2539 5.043-5.0391 5.043z" fill="#00bac2"/>
 <path d="m248.44 180.43c-0.75391 0-1.5273-0.17188-2.2461-0.52734l-20.152-10.078c-2.4883-1.2461-3.4961-4.2734-2.2539-6.7617 1.25-2.4883 4.2773-3.5 6.7617-2.2539l20.152 10.078c2.4883 1.2461 3.4961 4.2734 2.2539 6.7617-0.88672 1.7617-2.668 2.7812-4.5156 2.7812z" fill="#00bac2"/>
 <path d="m238.52 180.43c-2.7852 0-5.0625-2.2578-5.0625-5.0391s2.2266-5.0391 5.0078-5.0391h0.054687c2.7812 0 5.0391 2.2578 5.0391 5.0391-0.003906 2.7812-2.2578 5.0391-5.0391 5.0391z" fill="#00bac2"/>
 <path d="m251.31 286.24c-1.8633 0-3.6641-1.0391-4.5273-2.832-10.254-20.988 2.1367-37.926 2.6641-38.637 1.6758-2.2227 4.8203-2.6797 7.0547-1.0117 2.2266 1.668 2.6797 4.8281 1.0117 7.0547-0.36328 0.49219-9.168 12.836-1.6836 28.18 1.2188 2.5 0.1875 5.5156-2.3164 6.7344-0.70703 0.35156-1.457 0.51172-2.2031 0.51172z" fill="#00bac2"/>
 <g clip-path="url(#a)">
  <path d="m268.21 417.22c-0.3125 0-0.62891-0.03125-0.94531-0.089844-2.7344-0.52344-4.5273-3.1602-4.0117-5.8906l0.89062-4.6797c0.51953-2.7344 3.1641-4.5234 5.8906-4.0117 2.7344 0.52344 4.5273 3.1602 4.0117 5.8906l-0.89062 4.6797c-0.46094 2.418-2.5703 4.1016-4.9453 4.1016z" fill="#00bac2"/>
 </g>
 <path d="m290.83 407.14h-20.535c-2.7852 0-5.0391-2.2539-5.0391-5.0391 0-2.7852 2.2539-5.0391 5.0391-5.0391h20.535c2.7852 0 5.0391 2.2539 5.0391 5.0391 0 2.7852-2.25 5.0391-5.0391 5.0391z" fill="#00bac2"/>
 <path d="m294.08 376.91h-20.098c-2.7852 0-5.0391-2.2539-5.0391-5.0391s2.2539-5.0391 5.0391-5.0391h20.098c2.7852 0 5.0391 2.2539 5.0391 5.0391 0 2.7891-2.2578 5.0391-5.0391 5.0391z" fill="#00bac2"/>
 <path d="m292.55 346.69h-20.43c-2.7852 0-5.0391-2.2539-5.0391-5.0391 0-2.7852 2.2539-5.0391 5.0391-5.0391h20.43c2.7852 0 5.0391 2.2539 5.0391 5.0391 0 2.7852-2.2539 5.0391-5.0391 5.0391z" fill="#00bac2"/>
 <path d="m285.93 316.46h-21.164c-2.7852 0-5.0391-2.2539-5.0391-5.0391 0-2.7852 2.2539-5.0391 5.0391-5.0391h21.164c2.7852 0 5.0391 2.2539 5.0391 5.0391 0 2.7891-2.2539 5.0391-5.0391 5.0391z" fill="#00bac2"/>
 <path d="m273.98 286.23h-22.672c-2.7852 0-5.0391-2.2539-5.0391-5.0391s2.2539-5.0391 5.0391-5.0391h22.672c2.7852 0 5.0391 2.2539 5.0391 5.0391s-2.2539 5.0391-5.0391 5.0391z" fill="#00bac2"/>
 <path d="m397.07 235.85c-2.7852 0-5.0391-2.2578-5.0391-5.0391s2.2539-5.0391 5.0391-5.0391c4.168 0 7.5586-3.3906 7.5586-7.5586 0-4.1641-3.3906-7.5547-7.5586-7.5547-2.7852 0-5.0391-2.2578-5.0391-5.0391s2.2539-5.0391 5.0391-5.0391c9.7227 0 17.633 7.9102 17.633 17.633 0 9.7266-7.9102 17.637-17.633 17.637z" fill="#00bac2"/>
 <path d="m397.07 235.85c-0.3125 0-0.62891-0.03125-0.94531-0.089844l-52.898-10.078c-2.7305-0.52344-4.5234-3.1602-4.0039-5.8906 0.51953-2.7305 3.125-4.5352 5.8945-4.0039l52.898 10.078c2.7305 0.52344 4.5234 3.1602 4.0039 5.8906-0.46484 2.418-2.5742 4.0938-4.9492 4.0938z" fill="#00bac2"/>
 <path d="m369.36 250.96c-0.32812 0-0.66016-0.03125-0.99219-0.10156l-25.191-5.0391c-2.7266-0.54297-4.5-3.1992-3.9492-5.9297 0.53906-2.7305 3.2109-4.5 5.9297-3.9492l25.191 5.0391c2.7266 0.54297 4.5 3.1992 3.9492 5.9297-0.48047 2.3945-2.5859 4.0508-4.9375 4.0508z" fill="#00bac2"/>
</svg>
