<?xml version="1.0" encoding="UTF-8"?>
<svg width="512pt" height="512pt" version="1.1" viewBox="0 0 512 512" xmlns="http://www.w3.org/2000/svg">
 <g>
  <rect width="512" height="512"/>
  <path d="m265.67 207.63h-19.348c-24.891 0-45.141 20.25-45.141 45.141v6.4492c0 14.219 11.574 25.797 25.797 25.797v12.898c0 3.5469 2.9023 6.4492 6.4492 6.4492h45.141c3.5469 0 6.4492-2.9023 6.4492-6.4492v-12.898c14.219 0 25.797-11.574 25.797-25.797v-6.4492c0-24.891-20.25-45.141-45.145-45.141zm32.246 51.594c0 7.125-5.7734 12.898-12.898 12.898h-6.4492c-3.5469 0-6.4492 2.9023-6.4492 6.4492v12.898l-32.242-0.003906v-12.898c0-3.5469-2.9023-6.4492-6.4492-6.4492h-6.4492c-7.125 0-12.898-5.7734-12.898-12.898v-6.4492c0-17.766 14.477-32.242 32.242-32.242h19.348c17.766 0 32.242 14.477 32.242 32.242z" fill="#00bac2"/>
  <path d="m359.15 357.92c25.926-26.215 41.949-62.23 41.949-101.92s-16.023-75.707-41.949-101.92c-0.16016-0.22656-0.35547-0.45312-0.54688-0.67578-0.22656-0.22656-0.45312-0.38672-0.67578-0.54688-26.219-25.926-62.234-41.953-101.93-41.953s-75.676 16.027-101.89 41.918c-0.22656 0.19531-0.48438 0.35547-0.67578 0.58203-0.22656 0.22656-0.38672 0.45312-0.58203 0.67578-25.922 26.246-41.949 62.23-41.949 101.92s16.023 75.676 41.918 101.89c0.19531 0.22656 0.35547 0.48438 0.58203 0.71094 0.22656 0.22656 0.45312 0.38672 0.71094 0.58203 26.215 25.891 62.23 41.918 101.89 41.918 39.691 0 75.707-16.023 101.92-41.949 0.22656-0.16016 0.48438-0.35547 0.67578-0.54688 0.19141-0.23047 0.38672-0.45703 0.54688-0.68359zm-235.19-95.473h19.379c1.4844 26.277 11.996 50.141 28.473 68.613l-13.703 13.703c-19.961-21.988-32.633-50.719-34.148-82.316zm34.148-95.215 13.703 13.703c-16.477 18.477-26.988 42.336-28.473 68.613h-19.379c1.5156-31.598 14.188-60.328 34.148-82.316zm229.93 82.316h-19.379c-1.4844-26.277-11.996-50.141-28.473-68.613l13.703-13.703c19.961 21.988 32.633 50.719 34.148 82.316zm-132.04 106.41c-55.105 0-99.957-44.852-99.957-99.957s44.852-99.957 99.957-99.957 99.957 44.852 99.957 99.957-44.852 99.957-99.957 99.957zm75.062-184.14c-18.477-16.477-42.336-26.988-68.613-28.473v-19.379c31.598 1.5156 60.328 14.188 82.32 34.145zm-81.512-28.473c-26.277 1.4844-50.141 11.996-68.613 28.473l-13.703-13.703c21.988-19.961 50.719-32.633 82.316-34.148zm-68.613 196.85c18.477 16.477 42.336 26.988 68.613 28.473v19.379c-31.598-1.5156-60.328-14.188-82.32-34.145zm81.512 28.473c26.277-1.4844 50.141-11.996 68.613-28.473l13.703 13.703c-21.988 19.961-50.719 32.633-82.316 34.148zm77.738-37.598c16.477-18.477 26.988-42.336 28.473-68.613h19.379c-1.5156 31.598-14.188 60.328-34.145 82.32z" fill="#00bac2"/>
  <path d="m246.33 246.33c0 3.5625-2.8867 6.4492-6.4492 6.4492s-6.4492-2.8867-6.4492-6.4492 2.8867-6.4492 6.4492-6.4492 6.4492 2.8867 6.4492 6.4492" fill="#00bac2"/>
  <path d="m278.57 246.33c0 3.5625-2.8867 6.4492-6.4492 6.4492-3.5586 0-6.4492-2.8867-6.4492-6.4492s2.8906-6.4492 6.4492-6.4492c3.5625 0 6.4492 2.8867 6.4492 6.4492" fill="#00bac2"/>
 </g>
</svg>
