<?xml version="1.0" encoding="UTF-8"?>
<svg width="512pt" height="512pt" version="1.1" viewBox="0 0 512 512" xmlns="http://www.w3.org/2000/svg">
 <g>
  <rect width="512" height="512"/>
  <path d="m318.74 246.41-40.715-58.441v-82.523c0-2.0859-1.6914-3.7773-3.7773-3.7773h-36.012c-2.0859 0-3.7773 1.6914-3.7773 3.7773v82.52l-40.746 58.441c-0.44141 0.63281-0.67969 1.3867-0.67969 2.1602v135.9c0 14.5 11.797 26.301 26.297 26.301h73.828c14.48 0 26.262-11.797 26.262-26.301l-0.003907-135.9c0-0.76953-0.23437-1.5234-0.67578-2.1562zm-118.15 133.95v-114.82h111.27v114.82zm69.879-271.13v8.3867h-28.457l0.003907-8.3867zm-29.133 82.09c0.44141-0.63281 0.67969-1.3867 0.67969-2.1602v-63.984h28.457l-0.003906 63.984c0 0.77344 0.23828 1.5273 0.67969 2.1602l40.715 58.441v8.2227h-111.27v-8.2227zm51.82 211.9h-73.828c-9.1602 0-16.801-6.6055-18.418-15.301h110.63c-1.6211 8.6914-9.2461 15.301-18.387 15.301z" fill="#00bac2"/>
  <path d="m218.36 242.73c0.67188 0.48828 1.4531 0.72656 2.2227 0.72656 1.1641 0 2.3164-0.53906 3.0547-1.5508l19.688-26.984c1.2305-1.6875 0.85938-4.0508-0.82422-5.2812-1.6875-1.2305-4.0508-0.85938-5.2812 0.82422l-19.684 26.984c-1.2305 1.6875-0.85938 4.0508 0.82422 5.2812z" fill="#00bac2"/>
  <path d="m285.64 351.26c-1.0703-0.62109-2.2383-1.0391-3.4492-1.2617 1.207-0.22266 2.3789-0.64062 3.4492-1.2617 5.168-3 6.9688-9.6641 4.0234-14.828-0.45703-0.81641-1.0312-1.5664-1.707-2.2422-0.25781-0.92187-0.625-1.7656-1.1055-2.5469-1.9375-3.3438-5.5352-5.418-9.4102-5.418-1.9023 0-3.7812 0.50391-5.4414 1.4648-0.28516 0.16406-0.55078 0.35156-0.8125 0.53906 0.1875-0.66016 0.29297-1.3555 0.29297-2.0781v-3.125c6.6914-4.8711 10.629-12.531 10.629-20.891 0-14.277-11.613-25.891-25.887-25.891-14.273 0-25.891 11.613-25.891 25.891 0 8.3594 3.9336 16.02 10.629 20.891v3.125c0 0.72266 0.10547 1.418 0.29297 2.0781-0.26562-0.19141-0.53516-0.37891-0.82031-0.54297-1.6523-0.95703-3.5312-1.4648-5.4336-1.4648-3.875 0-7.4766 2.0742-9.4141 5.4219-0.48438 0.78906-0.84766 1.6328-1.1055 2.5586-0.64844 0.65625-1.1992 1.3906-1.6445 2.1836-1.4688 2.5352-1.8555 5.4844-1.0938 8.3047 0.75781 2.8047 2.5625 5.1445 5.0586 6.5664 1.0703 0.62109 2.2422 1.0391 3.4531 1.2617-1.2109 0.22266-2.3867 0.64062-3.4531 1.2617-5.1992 3.0156-6.9766 9.7031-3.957 14.918 0.47266 0.80859 1.0234 1.5352 1.6445 2.1719 0.25391 0.90234 0.61328 1.7383 1.0859 2.5312 1.9297 3.3555 5.5391 5.4375 9.4297 5.4375 1.8945 0 3.7656-0.49609 5.4336-1.4492 2.9727-1.7227 4.9141-4.707 5.3477-8.0117l10.438-6.0234 10.445 6.0273c0.4375 3.3008 2.3789 6.2891 5.3672 8.0195 1.6484 0.94141 3.5234 1.4375 5.4141 1.4375 3.8906 0 7.4961-2.082 9.4258-5.4336 0.47266-0.79297 0.83203-1.6289 1.0898-2.5352 0.58984-0.60547 1.1328-1.2969 1.6172-2.0742 0.027343-0.042969 0.050781-0.085937 0.078124-0.12891 2.9609-5.1992 1.1602-11.875-4.0195-14.883zm-29.453-12.078-10.414-6.0078c-0.12891-0.96484-0.39844-1.8984-0.76953-2.7852 1.0703 0.57422 2.2891 0.90234 3.582 0.90234h15.262c1.293 0 2.5117-0.32812 3.582-0.90234-0.36719 0.875-0.63672 1.793-0.76562 2.7422zm-18.301-39.57c0-10.109 8.2227-18.336 18.332-18.336 10.105 0 18.332 8.2266 18.332 18.336 0 5.9609-2.8359 11.422-7.6484 14.867 0.35938-0.57812 0.57031-1.2578 0.57031-1.9883 0-0.78906-0.24219-1.5195-0.65234-2.125l-3.375-5.9023-0.65625-1.1367c0.86328 0.32031 1.793 0.50391 2.7656 0.50391 4.3594 0 7.9023-3.5469 7.9023-7.9023s-3.5469-7.8984-7.9023-7.8984c-4.375 0-7.9375 3.543-7.9375 7.8984 0 0.22266 0.015625 0.44141 0.035156 0.66016-0.32812-0.09375-0.67188-0.14453-1.0234-0.14453-0.67187 0-1.3203 0.17969-1.8828 0.50391 0.042969-0.33594 0.074219-0.67187 0.074219-1.0195 0-4.3555-3.5469-7.8984-7.9023-7.8984s-7.8984 3.543-7.8984 7.8984c0 4.3594 3.543 7.9023 7.8984 7.9023 1.3945 0 2.7031-0.36719 3.8438-1.0039l-4.4883 7.7695c-0.67578 1.168-0.67578 2.6094 0 3.7773 0.67578 1.168 1.9219 1.8906 3.2734 1.8906h14.141 0.011719c0.375 0 0.73438-0.058594 1.0781-0.15625-0.53516 0.66406-0.84766 1.4961-0.84766 2.375v5.1445c0 0.039062-0.050782 0.09375-0.078125 0.10547h-15.25c-0.027344-0.007813-0.078125-0.066407-0.078125-0.10547v-5.1445c0-1.3164-0.6875-2.5391-1.8125-3.2266-5.5273-3.3633-8.8242-9.2109-8.8242-15.645zm27.285-3.6797c0-0.18359 0.17188-0.34375 0.37891-0.34375 0.16406 0 0.34766 0.14453 0.34766 0.34375 0 0.19922-0.18359 0.34766-0.34766 0.34766-0.20313-0.003906-0.37891-0.16016-0.37891-0.34766zm-8.0039 12.781h-1.0781l0.54297-0.9375zm-9.9062-12.781c0 0.19531-0.14844 0.34766-0.34375 0.34766s-0.34375-0.14844-0.34375-0.34766c0-0.19531 0.14844-0.34375 0.34375-0.34375s0.34375 0.14844 0.34375 0.34375zm-18.23 44.27c-0.23438-0.86328-0.11328-1.7695 0.36328-2.5938 0.20703-0.36719 0.46484-0.66406 0.79297-0.91406 0.78906-0.59766 1.3125-1.4805 1.457-2.457 0.074218-0.5 0.19922-0.875 0.38672-1.1836 0.027344-0.042969 0.050782-0.085937 0.078125-0.12891 0.58594-1.0273 1.6914-1.668 2.8828-1.668 0.58203 0 1.1367 0.14844 1.6406 0.44141 1.1523 0.66797 1.8008 1.9492 1.6562 3.2617-0.16797 1.4922 0.56641 2.9453 1.8672 3.6953l8.4727 4.8906-3.6055 2.082-6.6836-3.8438c-0.58594-0.33594-1.2344-0.50391-1.8828-0.50391-0.78906 0-1.5781 0.24609-2.2383 0.73438-1.0117 0.74609-2.4844 0.85156-3.6562 0.17188-0.75781-0.42969-1.3008-1.1367-1.5312-1.9844zm8.4297 9.7969-1.0625 0.61328c-0.69141-0.28125-1.4141-0.47656-2.1484-0.60938 0.73828-0.13281 1.4609-0.32812 2.1523-0.61328zm2.6953 11.379c-1.3008 0.75-2.0352 2.2031-1.8672 3.6953 0.14844 1.3125-0.5 2.5938-1.6289 3.2461-0.51562 0.29688-1.0781 0.44531-1.668 0.44531-1.1953 0-2.3008-0.63672-2.8828-1.6562-0.015625-0.023438-0.027343-0.050781-0.042969-0.074219-0.21094-0.35547-0.34766-0.75391-0.42578-1.2578-0.14844-0.96875-0.67188-1.8438-1.4531-2.4336-0.30078-0.23047-0.58594-0.5625-0.81641-0.95703-0.92578-1.5977-0.37891-3.6562 1.2188-4.582 0.50391-0.29297 1.0781-0.44922 1.6641-0.44922 0.71094 0 1.4141 0.22656 1.9727 0.63672 1.207 0.88672 2.8281 0.97656 4.125 0.22656l8.3828-4.8398c0.066407-0.035156 0.13672-0.0625 0.19922-0.097656l11.176-6.4375c0.12109-0.070313 0.23438-0.14844 0.34766-0.23047l12.266-7.082 1.5039-0.83203c1.3359-0.73828 2.0977-2.2109 1.9258-3.7266-0.14844-1.3086 0.50391-2.5898 1.6484-3.2578 0.51172-0.29688 1.0625-0.44531 1.6484-0.44531 1.1914 0 2.2969 0.64062 2.8867 1.668 0.027344 0.046875 0.054687 0.09375 0.082031 0.13672 0.1875 0.29688 0.30859 0.67188 0.38281 1.1758 0.14453 0.97656 0.66797 1.8594 1.457 2.457 0.35938 0.27344 0.63672 0.57812 0.83984 0.93359 0.92578 1.6211 0.38281 3.6328-1.2383 4.5703-1.1367 0.65625-2.5977 0.5625-3.6602-0.20312-1.207-0.87109-2.8125-0.95703-4.1055-0.21094l-8.375 4.8359c-0.070312 0.035156-0.14453 0.066406-0.21484 0.10547l-7.9297 4.5977zm38.047-11.379c-0.73828 0.13281-1.4648 0.33203-2.1641 0.61719l-1.0664-0.61328 1.0664-0.61719c0.69922 0.28516 1.4297 0.48047 2.1641 0.61328zm4.918 12.34c-0.27734 0.43359-0.57812 0.77344-0.87109 1-0.78125 0.59375-1.3047 1.4648-1.4531 2.4375-0.078125 0.50391-0.21094 0.90234-0.42188 1.25-0.015625 0.027343-0.03125 0.054687-0.046875 0.082031-0.58203 1.0195-1.6875 1.6562-2.8828 1.6562-0.58984 0-1.1523-0.14844-1.6445-0.42969-1.1523-0.66797-1.8008-1.9492-1.6523-3.2617 0.16797-1.4922-0.56641-2.9453-1.8672-3.6953l-8.5078-4.9062 3.6406-2.1016 6.6836 3.8438c1.2891 0.74219 2.8906 0.65625 4.0977-0.21094 1.0625-0.76953 2.5273-0.86328 3.6602-0.20703 1.5742 0.92188 2.1367 2.9453 1.2656 4.543z" fill="#00bac2"/>
 </g>
</svg>
