<?xml version="1.0" encoding="UTF-8"?>
<svg width="512pt" height="512pt" version="1.1" viewBox="0 0 512 512" xmlns="http://www.w3.org/2000/svg">
 <g>
  <rect width="512" height="512"/>
  <path d="m332.09 166.04c-1.2891-0.32422-2.2578 0.32422-3.2227 1.2891-2.9023 3.8711-6.125 6.125-9.0273 8.707-4.1914 3.2227-8.3828 6.7695-12.574 13.863-2.2578 3.8711-6.4492 6.4492-10.965 6.4492-3.5469 0-6.4492-1.6133-7.418-3.8711-1.2891-3.2227 1.2891-7.7383 6.7695-12.574 14.188-12.898 12.898-33.855 7.418-48.043-2.9023-7.0938-5.8047-10.965-8.707-10.965-1.2891 0-3.2227 0.64453-3.8711 2.9023-0.32422 0.64453-0.32422 1.2891-0.64453 1.6133-1.6133 5.8047-3.2227 10.965-22.25 19.023-13.543 5.8047-17.41 13.863-20.637 20.312-2.2578 4.8359-3.8711 8.3828-9.0273 11.285-0.96875 0.64453-1.6133 0.64453-1.6133 0.64453-0.32422-0.64453-1.2891-3.2227 0.32422-11.93 0.96875-5.8047 2.5781-10.965 2.5781-11.285 0.32422-1.2891 0-2.5781-1.2891-3.5469-0.96875-0.96875-2.5781-0.96875-3.8711 0-2.5781 1.6133-4.8359 2.9023-6.7695 4.1914-8.0625 4.5156-12.254 7.7383-14.832 23.539-1.2891 7.7383-4.1914 10.965-8.0625 15.156-5.4805 6.125-12.254 13.543-17.41 33.855-6.4492 25.473 5.8047 52.234 28.695 62.23 10.316 4.5156 20.957 6.7695 31.598 6.7695 18.055 0 35.145-6.4492 49.656-18.703 17.734-14.832 21.602-32.242 24.504-44.82 1.6133-7.7383 3.2227-13.863 6.7695-17.09 15.801-14.188 6.125-45.465 5.8047-47.074 0.33203-0.64062-0.63281-1.6055-1.9258-1.9297zm-66.422 103.82c-10.965 0-8.0625 18.379-29.664 12.898-14.508-3.8711-9.3516-16.445-19.023-19.668-8.3828-2.9023-13.219-14.508-13.219-22.895 0-23.539 19.023-42.562 42.562-42.562s42.562 19.023 42.562 42.562c0 11.609-13.543 29.664-23.219 29.664z" fill="#00bac2"/>
  <path d="m340.48 115.42c-0.64453-1.9336-2.5781-2.9023-4.5156-2.5781-1.9336 0.32422-3.2227 1.9336-3.2227 3.8711 0 0.64453-0.64453 5.1602-7.0938 9.3516-9.3516 5.8047-7.418 17.41-4.8359 22.895 0.64453 1.2891 1.9336 2.2578 3.5469 2.2578h0.96875c6.7695-1.6133 11.609-4.8359 14.508-10.316 6.125-10.648 0.96484-24.836 0.64453-25.48z" fill="#00bac2"/>
  <path d="m194.09 167.65c0.64453 0.32422 0.96875 0.32422 1.6133 0.32422 1.2891 0 2.5781-0.64453 3.2227-1.9336 0.32422-0.64453 8.707-15.477 0.64453-24.828-2.9023-3.2227-3.5469-9.0273-3.5469-10.965 0-1.6133-1.2891-3.2227-2.9023-3.5469s-3.5469 0.32422-4.1914 1.9336c-5.8047 9.9961-7.7383 19.023-5.4805 26.762 2.9023 8.707 10.316 11.93 10.641 12.254z" fill="#00bac2"/>
  <path d="m230.85 240.2c0 5.6992-4.6211 10.32-10.32 10.32s-10.316-4.6211-10.316-10.32c0-5.6953 4.6172-10.316 10.316-10.316s10.32 4.6211 10.32 10.316" fill="#00bac2"/>
  <path d="m272.12 244.39c0 5.6992-4.6172 10.32-10.316 10.32-5.6992 0-10.32-4.6211-10.32-10.32 0-5.6953 4.6211-10.316 10.32-10.316 5.6992 0 10.316 4.6211 10.316 10.316" fill="#00bac2"/>
  <path d="m242.46 252.78c-0.64453-2.9023-4.5156-2.9023-5.8047-0.32422l-5.1602 11.609c-0.96875 1.9336 0.32422 4.1914 2.5781 4.1914l8.707 0.96875c2.2578 0.32422 3.8711-1.9336 3.2227-3.8711z" fill="#00bac2"/>
  <path d="m330.16 316.62c-3.5469-6.7695-11.93-9.6719-19.023-6.4492l-20.637 9.0273c-4.1914 1.9336-9.0273 3.5469-13.543 4.5156 1.2891-2.2578 1.9336-4.5156 1.9336-7.418 0-8.3828-6.7695-15.156-15.156-15.156l-39.656 0.003906c-10.641 0-20.637 3.8711-28.375 10.965l-22.895 21.281c-1.2891 1.2891-1.6133 3.5469-0.32422 4.8359 1.2891 1.2891 3.5469 1.6133 4.8359 0.32422l22.895-21.281c6.4492-6.125 14.832-9.3516 23.539-9.3516h39.336c4.5156 0 8.3828 3.5469 8.3828 8.3828 0 4.5156-3.5469 8.3828-8.3828 8.3828h-27.406c-1.9336 0-3.5469 1.6133-3.5469 3.5469 0 1.9336 1.6133 3.5469 3.5469 3.5469h30.309c9.3516 0 18.703-1.9336 26.762-6.125l20.637-9.0273c3.5469-1.6133 8.0625-0.32422 9.9961 3.5469v0.32422c0.96875 1.9336 0.96875 4.1914 0.32422 6.125-0.64453 1.9336-1.9336 3.5469-3.8711 4.5156-3.5469 1.9336-9.9961 4.8359-16.766 7.7383-7.0938 3.2227-14.188 6.4492-18.379 8.707-8.0625 3.8711-17.41 6.125-26.441 5.8047l-39.98-0.96875c-5.4805 0-10.316 1.9336-14.188 6.125l-31.273 34.82c-1.2891 1.2891-1.2891 3.5469 0.32422 4.8359 0.64453 0.64453 1.6133 0.96875 2.2578 0.96875 0.96875 0 1.9336-0.32422 2.5781-0.96875l32.242-35.789c2.2578-2.5781 5.4805-3.8711 8.707-3.8711l39.98 0.96875c10.316 0.32422 20.312-1.9336 29.664-6.4492 4.1914-1.9336 11.285-5.4805 18.055-8.3828 6.7695-3.2227 13.219-6.125 16.766-8.0625 3.5469-1.6133 6.125-4.8359 7.418-8.3828 1.2891-3.8711 0.96875-7.7383-0.64453-11.609z" fill="#00bac2"/>
 </g>
</svg>
