<?xml version="1.0" encoding="UTF-8"?>
<svg width="512pt" height="512pt" version="1.1" viewBox="0 0 512 512" xmlns="http://www.w3.org/2000/svg">
 <g>
  <rect width="512" height="512"/>
  <path d="m230.01 289.08c1.1914-1.5156 43.141-78.805 48.367-88.445 0.88672-2.5781 3.3008-4.3242 6.0273-4.3516 2.5156 0 4.0938 2.1602 5.2539 4.0938 3.2227 5.1914 71.098 145.1 76.289 154.77 4.5156 8.2227 2.5156 17.961-4.5156 17.895h-200.95c-10.125 0-11.672-8.4492-7.3828-16.637 11.418-21.988 49.047-89.699 49.691-90.734 4.2578-7.1914 6.6406-12.477 10.414-12.348 3.7734 0.12891 5.9648 4.7734 7.2539 8.3828 2.4531 6.7383 8.1602 23.473 9.5469 27.375zm4.7383 14.863c5.5781 17.219 10.188 31.695 16.121 50.105 1.9688 6.0938 2.4844 9.2852 7.4805 9.2852l91.445 0.003906c2.1211 0.26953 4.1875-0.78125 5.2266-2.6484 1.0352-1.8672 0.83203-4.1758-0.51953-5.832-3.8672-6.707-60.586-121.43-70.066-140.1-3.0938 5.1914-44.977 80.898-49.688 89.184zm-22.57-33.277c-15.445 26.535-30.566 52.266-46.754 81.027-4.0625 7.2539-5.2539 11.672-0.45312 11.641h69.777c4.1602 0 5.9336-2.5156 5.0938-5.3516-2.8047-9.9922-21.762-69.742-27.664-87.312z" fill="#00bac2"/>
  <path d="m163.3 205.93c0.5-4.332 1.2227-8.6367 2.1602-12.898 1.0898-3.3828 0.83203-7.0547-0.71094-10.254-3.4805-5.7734-5.707-4.9648-12.605-4.1289-4.1602 0.51562-8.9648 3-13.477-0.51562l-0.003907 0.003906c-1.4609-1.3828-1.9219-3.5234-1.1602-5.3867 2.1602-3.4805 12.156-4.1914 16.508-4.6445 8.3516-0.87109 8.7695-4.3203 9.1562-7.2227 0.67578-5.2227-2.2266-11.543-7.5117-17.926-3.2227-3.8711-2.5156-8.707 0.48438-9.9961 2.5156-1.0977 5.5469-0.45312 8.2227 3.707 2.0391 2.9727 3.8398 6.0977 5.3867 9.3516 1 2.1602 4.6445 6.707 8.7383 5.5469 6.4492-1.7734 6.125-6.2227 7.5781-11.574 1.2578-4.6445 4-10.965 6.707-12.605 1.8711-1.0977 6.4492-1.5781 8.3203 1.4492h-0.003906c0.83594 2.0664 0.83594 4.3789 0 6.4492-2.1289 4.7734-5.0938 9.125-7.3203 13.863-0.73047 1.7891-0.78516 3.7812-0.16016 5.6094 0.96875 2.5781 3.0312 3.2227 6.1914 2.8047 6.2734-0.86719 12.594-1.3594 18.926-1.4805 3 0 5.6758 1.5156 5.5156 5.1602l-0.003907-0.003906c0.16797 1.5-0.33984 2.9961-1.3867 4.082-1.0469 1.082-2.5234 1.6445-4.0273 1.5312-3.793 0.14453-7.5703 0.51172-11.32 1.0938-8.125 1.4492-13.156 6.4492-9.8672 13.898 1.9688 4.4492 10.223 12.605 14.027 17.508 1.1289 1.4492 2.9336 6.4492 0 8.707-2.9336 2.2578-7.7695-1.2266-8.9961-2.2578-4.7383-3.8047-11.445-14.219-14.672-15.895h0.003906c-2.7969-0.91797-5.8594-0.45312-8.2578 1.2539-1.6445 1.8633-2.8555 4.0625-3.5469 6.4492-1.0977 3.7891-1.9375 7.6445-2.5117 11.543-0.13281 1.8711-1.1211 3.5703-2.6797 4.6055-1.5625 1.0391-3.5156 1.2891-5.2852 0.68359-2.8711-0.83594-3-4.8672-2.418-8.5117zm4.418-35.855h-0.003906c0.66406 3.4531 2 6.7383 3.9375 9.6719 2.9023 4.6758 9.1914 4.9023 14.09 2.4492 4.9023-2.4492 5.9648-9.1914 4.3203-16.801v0.003906c-0.45312-2.8125-2.0039-5.332-4.3125-7.0039-2.3125-1.668-5.1914-2.3516-8.0039-1.8945-7.5156 1.5469-11.254 5.2539-10.031 13.574z" fill="#00bac2"/>
 </g>
</svg>
