<?xml version="1.0" encoding="UTF-8"?>
<svg width="512pt" height="512pt" version="1.1" viewBox="0 0 512 512" xmlns="http://www.w3.org/2000/svg">
 <defs>
  <clipPath id="c">
   <path d="m175 94.781h81v121.22h-81z"/>
  </clipPath>
  <clipPath id="b">
   <path d="m161 356h122v61.219h-122z"/>
  </clipPath>
  <clipPath id="a">
   <path d="m148 403h149v14.219h-149z"/>
  </clipPath>
 </defs>
 <rect width="512" height="512"/>
 <path d="m336.61 370.2h-228.39c-3.707 0-6.7188-3.0039-6.7188-6.7188l0.003906-67.172c0-3.7148 3.0078-6.7188 6.7188-6.7188h228.39c3.707 0 6.7188 3.0039 6.7188 6.7188v67.176c-0.003906 3.7148-3.0156 6.7148-6.7227 6.7148zm-221.68-13.434h214.96v-53.738h-214.96z" fill="#00bac2"/>
 <path d="m350.04 356.76h-13.434c-3.707 0-6.7188-3.0039-6.7188-6.7188v-53.738c0-3.7148 3.0078-6.7188 6.7188-6.7188h67.176c3.707 0 6.7188 3.0039 6.7188 6.7188-0.003906 33.34-27.129 60.457-60.461 60.457zm-6.7148-13.434h6.7188c23.652 0 43.273-17.547 46.547-40.305h-53.266z" fill="#00bac2"/>
 <g clip-path="url(#c)">
  <path d="m249.28 215.7h-67.172c-3.707 0-6.7188-3.0039-6.7188-6.7188v-87.332c0-2.1094 0.99609-4.1055 2.6875-5.375l26.871-20.145c1.1602-0.875 2.5781-1.3438 4.0273-1.3438h40.305c3.707 0 6.7188 3.0039 6.7188 6.7188v107.48c0 3.7109-3.0078 6.7148-6.7188 6.7148zm-60.457-13.434h53.738l0.003906-94.047h-31.352l-22.391 16.789z" fill="#00bac2"/>
 </g>
 <path d="m370.2 175.39h-120.91c-3.707 0-6.7188-3.0039-6.7188-6.7188l0.003906-26.867c0-3.7148 3.0078-6.7188 6.7188-6.7188h120.91c3.707 0 6.7188 3.0039 6.7188 6.7188v26.871c-0.003907 3.7109-3.0117 6.7148-6.7227 6.7148zm-114.2-13.434h107.48v-13.438h-107.48z" fill="#00bac2"/>
 <path d="m182.11 175.39h-26.871c-3.707 0-6.7188-3.0039-6.7188-6.7188v-26.867c0-3.7148 3.0078-6.7188 6.7188-6.7188h26.871c3.707 0 6.7188 3.0039 6.7188 6.7188v26.871c-0.003906 3.7109-3.0117 6.7148-6.7188 6.7148zm-20.152-13.434h13.434v-13.438h-13.434z" fill="#00bac2"/>
 <path d="m155.24 208.98c-1.7188 0-3.4375-0.66016-4.75-1.9688l-13.434-13.434c-2.625-2.625-2.625-6.8711 0-9.5 2.625-2.625 6.8711-2.625 9.5 0l13.434 13.434c2.625 2.625 2.625 6.8711 0 9.5-1.3125 1.3125-3.0312 1.9688-4.75 1.9688z" fill="#00bac2"/>
 <path d="m121.65 208.98c-1.7188 0-3.4375-0.66016-4.75-1.9688l-13.434-13.434c-2.625-2.625-2.625-6.8711 0-9.5 2.625-2.625 6.8711-2.625 9.5 0l13.434 13.434c2.625 2.625 2.625 6.8711 0 9.5-1.3125 1.3125-3.0312 1.9688-4.75 1.9688z" fill="#00bac2"/>
 <path d="m276.15 208.98c-1.7188 0-3.4375-0.66016-4.75-1.9688-2.625-2.625-2.625-6.8711 0-9.5l13.434-13.434c2.625-2.625 6.8711-2.625 9.5 0 2.625 2.625 2.625 6.8711 0 9.5l-13.434 13.434c-1.3086 1.3125-3.0312 1.9688-4.75 1.9688z" fill="#00bac2"/>
 <path d="m309.74 208.98c-1.7188 0-3.4375-0.66016-4.75-1.9688-2.625-2.625-2.625-6.8711 0-9.5l13.434-13.434c2.625-2.625 6.8711-2.625 9.5 0 2.625 2.625 2.625 6.8711 0 9.5l-13.434 13.434c-1.3086 1.3125-3.0273 1.9688-4.75 1.9688z" fill="#00bac2"/>
 <g clip-path="url(#b)">
  <path d="m276.15 417.22h-107.48c-3.0352 0-5.6953-2.0352-6.4805-4.9648-0.79297-2.9297 0.47656-6.0195 3.0977-7.5586 0.76563-0.45703 19.703-12.18 19.688-41.219 0-1.7812 0.70703-3.4922 1.9688-4.75 1.2617-1.2539 2.9688-1.9648 4.75-1.9648h61.438c1.7812 0 3.4922 0.70703 4.75 1.9688 1.2578 1.2617 1.9688 2.9688 1.9688 4.75-0.007812 29.039 18.922 40.754 19.73 41.246 2.5859 1.5508 3.8359 4.6562 3.0312 7.5625-0.8125 2.9102-3.4453 4.9297-6.4609 4.9297zm-90.691-13.434h73.914c-5.7109-7.4375-11.359-18.418-12.668-33.586h-48.566c-1.3281 15.164-6.9766 26.148-12.68 33.586z" fill="#00bac2"/>
 </g>
 <g clip-path="url(#a)">
  <path d="m289.59 417.22h-134.35c-3.707 0-6.7188-3.0039-6.7188-6.7188s3.0078-6.7188 6.7188-6.7188h134.35c3.707 0 6.7188 3.0039 6.7188 6.7188s-3.0078 6.7188-6.7188 6.7188z" fill="#00bac2"/>
 </g>
 <path d="m336.61 269.43h-194.8c-1.7812 0-3.4922-0.70703-4.75-1.9688l-13.434-13.434c-2.625-2.625-2.625-6.8711 0-9.5l13.434-13.434c1.2539-1.2617 2.9688-1.9688 4.75-1.9688h194.8c3.707 0 6.7188 3.0039 6.7188 6.7188v26.871c0 3.7148-3.0117 6.7148-6.7188 6.7148zm-192.02-13.434h185.3v-13.434h-185.3l-6.7188 6.7188z" fill="#00bac2"/>
 <path d="m336.61 276.15c-3.707 0-6.7188-3.0039-6.7188-6.7188v-40.305c0-3.7148 3.0078-6.7188 6.7188-6.7188 3.707 0 6.7188 3.0039 6.7188 6.7188v40.305c0 3.7148-3.0117 6.7188-6.7188 6.7188z" fill="#00bac2"/>
 <path d="m370.2 256h-33.586c-3.707 0-6.7188-3.0039-6.7188-6.7188s3.0078-6.7188 6.7188-6.7188h33.586c3.707 0 6.7188 3.0039 6.7188 6.7188s-3.0078 6.7188-6.7188 6.7188z" fill="#00bac2"/>
</svg>
