<?xml version="1.0" encoding="UTF-8"?>
<svg width="512pt" height="512pt" version="1.1" viewBox="0 0 512 512" xmlns="http://www.w3.org/2000/svg">
 <g>
  <rect width="512" height="512"/>
  <path d="m405.49 254.52-14.695-25.445v-0.003906l-7.3438-12.723-7.3438-12.719v-0.003906l-22.043-38.168v-0.003906l-7.3438-12.719v-0.003907l-7.3477-12.723v-0.003906l-7.3438-12.719c-0.015625-0.027344-0.039063-0.050781-0.054688-0.078125-0.058594-0.089844-0.12109-0.17578-0.1875-0.26172-0.054687-0.070312-0.10938-0.14453-0.17188-0.21094-0.066406-0.070313-0.13672-0.13281-0.21094-0.19531-0.074219-0.0625-0.14453-0.12891-0.22266-0.18359-0.078126-0.054687-0.16016-0.10156-0.24219-0.14844s-0.16406-0.097656-0.25-0.13672c-0.085938-0.039062-0.17578-0.070312-0.26562-0.10156-0.09375-0.03125-0.18359-0.0625-0.27734-0.085938-0.085937-0.019531-0.17578-0.03125-0.26562-0.042968-0.10938-0.015626-0.21484-0.027344-0.32422-0.03125-0.03125 0-0.0625-0.007813-0.09375-0.007813h-58.77c-1.6406 0-2.9688 1.3281-2.9688 2.9688s1.3281 2.9688 2.9688 2.9688h24.242l-3.918 6.7852h-12.977c-1.6406 0-2.9688 1.3281-2.9688 2.9688s1.3281 2.9688 2.9688 2.9688h12.977l6.4883 11.238 7.3477 12.723c0.55078 0.95312 1.5469 1.4844 2.5742 1.4844 0.50391 0 1.0156-0.12891 1.4805-0.39844 1.418-0.82031 1.9062-2.6328 1.0859-4.0547l-7.3477-12.723-6.4883-11.238 5.6328-9.7539h25.957l6.4883 11.234v0.003906l7.3477 12.723s0 0.003907 0.003907 0.003907l7.3438 12.719v0.003906l6.4883 11.238-6.4883 11.238v0.003906l-6.4883 11.238h-22.527l4.7773-8.2734c0.82031-1.418 0.33203-3.2344-1.0859-4.0547s-3.2344-0.33594-4.0547 1.0859l-7.3477 12.723v0.003906l-7.3438 12.719v0.003906l-7.3477 12.723c-0.82031 1.418-0.33203 3.2344 1.0859 4.0547 0.46875 0.26953 0.97656 0.39844 1.4805 0.39844 1.0273 0 2.0234-0.53125 2.5742-1.4844l6.4883-11.238h40.648l5.6328 9.7539-6.4883 11.238v0.003906l-6.4883 11.238h-25.957l-5.6328-9.7539 5.6328-9.7539h22.527l-3.918 6.7891-12.984-0.007812c-1.6406 0-2.9688 1.3281-2.9688 2.9688s1.3281 2.9688 2.9688 2.9688h14.676 0.011719c0.17969 0 0.35938-0.023438 0.53125-0.054688 0.042969-0.007812 0.082031-0.015625 0.125-0.023437 0.16406-0.039063 0.32812-0.085938 0.48438-0.14844 0.023438-0.011719 0.046875-0.023437 0.070313-0.035156 0.13672-0.058594 0.26562-0.13281 0.39062-0.21094 0.035156-0.023438 0.066406-0.042969 0.097656-0.066407 0.14062-0.097656 0.27344-0.20312 0.39453-0.32812 0.007813-0.007812 0.011719-0.015625 0.019531-0.019531 0.10938-0.11328 0.21094-0.23828 0.30469-0.36719 0.027344-0.039063 0.054688-0.078126 0.078125-0.11719s0.050781-0.070312 0.074219-0.10938l7.3477-12.723c0.027344-0.050781 0.042969-0.10156 0.070312-0.15234 0.046876-0.09375 0.09375-0.19141 0.12891-0.28906 0.035156-0.089843 0.0625-0.18359 0.085937-0.27734 0.023438-0.089844 0.046875-0.17969 0.0625-0.27734 0.019532-0.10938 0.027344-0.21484 0.03125-0.32422 0.003906-0.054687 0.015625-0.10938 0.015625-0.16406 0-0.03125-0.007812-0.0625-0.011719-0.097656-0.003906-0.10938-0.015624-0.21484-0.03125-0.32031-0.011718-0.089844-0.023437-0.17969-0.042968-0.26953-0.023438-0.09375-0.054688-0.18359-0.085938-0.27344s-0.0625-0.18359-0.10156-0.26953c-0.039063-0.085937-0.085938-0.16797-0.13672-0.25-0.046875-0.082031-0.09375-0.16406-0.14844-0.24219-0.054688-0.078126-0.12109-0.14844-0.18359-0.22266s-0.125-0.14453-0.19531-0.21094c-0.066406-0.0625-0.13672-0.11719-0.21094-0.17188-0.085938-0.066407-0.16797-0.12891-0.26172-0.1875-0.027344-0.015625-0.050781-0.039063-0.078125-0.054688-0.050781-0.027343-0.10156-0.042969-0.15234-0.070312-0.09375-0.046875-0.19141-0.09375-0.29297-0.13281-0.09375-0.035156-0.1875-0.0625-0.28125-0.085937-0.085938-0.023438-0.17578-0.046875-0.26563-0.058594-0.11328-0.019531-0.22656-0.027344-0.33984-0.035156-0.050781-0.003907-0.10156-0.015625-0.15234-0.015625h-29.383c-0.03125 0-0.058593 0.007812-0.089843 0.007812-0.11328 0.003906-0.22656 0.015625-0.33984 0.035156-0.082031 0.011719-0.16797 0.023438-0.24609 0.042969-0.10156 0.023438-0.19922 0.058594-0.29688 0.089844-0.085937 0.03125-0.16797 0.058594-0.25 0.09375-0.09375 0.042969-0.17578 0.09375-0.26562 0.14453-0.078125 0.046875-0.15625 0.089844-0.22656 0.14062-0.082031 0.058594-0.15625 0.125-0.23047 0.19141-0.070312 0.0625-0.14062 0.12109-0.20312 0.1875-0.0625 0.066406-0.12109 0.14062-0.17578 0.21484-0.066406 0.082031-0.12891 0.16797-0.1875 0.25781-0.015625 0.027344-0.039063 0.050781-0.054688 0.078125l-6.4883 11.238h-11.266l-5.6328-9.7539 6.4883-11.238v-0.003906l7.3438-12.719c0.82031-1.418 0.33203-3.2344-1.0859-4.0547-1.418-0.82031-3.2344-0.33203-4.0547 1.0859l-7.3438 12.719v0.003906l-6.4883 11.238h-22.527l4.7773-8.2734c0.82031-1.418 0.33203-3.2344-1.0859-4.0547-1.418-0.82031-3.2344-0.33203-4.0547 1.0859l-6.4883 11.238h-7.8359l4.7773-8.2734c0.82031-1.418 0.33203-3.2344-1.0859-4.0547-1.418-0.82031-3.2344-0.33203-4.0547 1.0859l-7.3477 12.723v0.003906l-7.3438 12.719v0.003907l-6.4883 11.238h-12.977c-1.6406 0-2.9688 1.3281-2.9688 2.9688s1.3281 2.9688 2.9688 2.9688h12.977l6.4883 11.238s0 0.003907 0.003907 0.003907l7.3438 12.719v0.003906l7.3477 12.723c0.55078 0.95312 1.5469 1.4844 2.5742 1.4844 0.50391 0 1.0156-0.12891 1.4805-0.39844 1.418-0.82031 1.9062-2.6328 1.0859-4.0547l-7.3477-12.723v-0.003906l-7.3438-12.719v-0.003907l-6.4883-11.238 6.4883-11.238v-0.003907l6.4883-11.238h12.965 0.011718 0.011719 12.969l6.4883 11.238v0.003907l6.4883 11.238-6.4883 11.238v0.003907l-6.4883 11.238h-12.984c-0.054688 0-0.10156 0.011719-0.15625 0.015625-0.11328 0.003906-0.22266 0.015625-0.33594 0.035156-0.089843 0.015625-0.17969 0.039062-0.26953 0.0625-0.09375 0.023438-0.1875 0.050781-0.28125 0.085938-0.10156 0.039062-0.19531 0.082031-0.29297 0.13281-0.050781 0.023438-0.10156 0.039062-0.15234 0.070312-0.027344 0.015626-0.050781 0.039063-0.078125 0.054688-0.089844 0.058594-0.17578 0.12109-0.26172 0.1875-0.070313 0.054688-0.14453 0.11328-0.21094 0.17188-0.070313 0.066406-0.13281 0.13672-0.19531 0.21094-0.0625 0.074219-0.12891 0.14453-0.18359 0.22266-0.054687 0.078125-0.10156 0.16016-0.14844 0.24219-0.046875 0.082032-0.097656 0.16406-0.13672 0.25-0.039063 0.085938-0.070313 0.17969-0.10156 0.26953-0.03125 0.089843-0.0625 0.17969-0.085937 0.27344-0.019531 0.085937-0.03125 0.17578-0.046875 0.26953-0.015625 0.10547-0.027344 0.21094-0.03125 0.32031 0 0.03125-0.011719 0.0625-0.011719 0.097656 0 0.054687 0.011719 0.10938 0.015625 0.16406 0.007813 0.10937 0.015625 0.21484 0.03125 0.32422 0.015625 0.09375 0.039063 0.18359 0.0625 0.27734 0.023438 0.09375 0.050782 0.18359 0.085938 0.27734 0.039062 0.10156 0.082031 0.19531 0.12891 0.28906 0.027344 0.050782 0.039062 0.10547 0.070312 0.15625l6.4883 11.238-5.6328 9.7539h-11.266l-6.4883-11.234v-0.003907l-14.695-25.445c-0.015624-0.027344-0.039062-0.050781-0.058593-0.082031-0.054688-0.089844-0.11719-0.17188-0.18359-0.25391-0.058594-0.074218-0.11328-0.14844-0.17578-0.21484-0.066406-0.066407-0.13672-0.12891-0.20703-0.19141-0.074218-0.066406-0.14844-0.13281-0.23047-0.1875-0.074219-0.050781-0.15234-0.097656-0.23047-0.14062-0.085937-0.050782-0.17188-0.10156-0.26172-0.14063-0.082031-0.039062-0.16797-0.066406-0.25781-0.097656-0.097656-0.035156-0.19141-0.066406-0.28906-0.089844-0.082031-0.019531-0.16797-0.03125-0.25391-0.042968-0.11328-0.015625-0.22266-0.03125-0.33594-0.035156-0.03125 0-0.058594-0.007813-0.089844-0.007813h-12.977l-5.6328-9.7539 5.6328-9.7539h12.965 0.011719c0.17969 0 0.35938-0.023437 0.53125-0.054687 0.042968-0.007813 0.082031-0.015625 0.125-0.023437 0.16406-0.039063 0.32812-0.085938 0.48438-0.14844 0.023437-0.011719 0.046875-0.023438 0.070312-0.035156 0.13672-0.058594 0.26562-0.13281 0.39062-0.21094 0.035156-0.023437 0.066406-0.042968 0.097656-0.066406 0.14063-0.097656 0.27344-0.20312 0.39453-0.32812 0.007812-0.007813 0.011718-0.015625 0.019531-0.019531 0.10938-0.11328 0.21094-0.23828 0.30469-0.36719 0.027344-0.039062 0.054688-0.078125 0.078126-0.11719 0.023437-0.039063 0.050781-0.070313 0.074218-0.10938l14.695-25.445v-0.003906l6.4883-11.234h25.957l6.4883 11.238c0.050782 0.085938 0.10938 0.16797 0.16406 0.24609 0.015625 0.023437 0.03125 0.050781 0.050781 0.074219 0.10547 0.13672 0.22266 0.26172 0.34766 0.37891 0.027344 0.027344 0.058594 0.050781 0.089844 0.074219 0.13281 0.11328 0.26953 0.21484 0.41797 0.30078 0.003906 0.003906 0.007813 0.007812 0.015625 0.011719 0.003906 0 0.003906 0 0.007812 0.003906 0.085938 0.050781 0.17578 0.089844 0.26563 0.13281 0.03125 0.015624 0.058593 0.03125 0.089843 0.042968 0.039063 0.015625 0.078125 0.027344 0.12109 0.039063 0.32812 0.11719 0.66406 0.17969 1 0.17969h0.003906 0.003907c0.33594 0 0.67578-0.0625 1.0039-0.18359 0.039062-0.011718 0.078125-0.023437 0.11328-0.039062 0.03125-0.011719 0.0625-0.03125 0.097656-0.046875 0.089844-0.039063 0.17578-0.082031 0.26172-0.12891 0.003906 0 0.003906-0.003907 0.007812-0.003907 0.003907-0.003906 0.011719-0.007812 0.015626-0.011718 0.14844-0.085938 0.28516-0.1875 0.41797-0.30078 0.03125-0.023437 0.058594-0.050781 0.089844-0.078124 0.125-0.11328 0.24219-0.23828 0.34766-0.37891 0.019532-0.023437 0.03125-0.050781 0.050782-0.074219 0.058593-0.078124 0.11328-0.16016 0.16406-0.24609l7.3438-12.719s0-0.003907 0.003906-0.003907l6.4883-11.238h12.965 0.011719c0.17969 0 0.35547-0.023437 0.53125-0.054687 0.042969-0.007813 0.082031-0.015625 0.125-0.023438 0.16406-0.039062 0.32812-0.085937 0.48438-0.14844 0.023437-0.011719 0.046875-0.023438 0.070313-0.035157 0.13672-0.058593 0.26562-0.13281 0.39062-0.21094 0.035157-0.019531 0.066407-0.042969 0.10156-0.066406 0.14062-0.097657 0.27344-0.20312 0.39453-0.32422 0.007813-0.007812 0.011719-0.015625 0.019532-0.023438 0.10937-0.10937 0.20703-0.23437 0.30078-0.36328 0.027343-0.039062 0.054687-0.082031 0.082031-0.125 0.023438-0.035156 0.050781-0.070312 0.074219-0.10938l7.3438-12.719s0-0.003906 0.003906-0.003906l4.7734-8.2695 4.7734 8.2695 7.3477 12.723c0.050782 0.089844 0.10938 0.17188 0.16797 0.25 0.015625 0.023438 0.027344 0.046875 0.046875 0.066406 0.10547 0.14063 0.22656 0.26172 0.35156 0.37891 0.027344 0.027343 0.058594 0.050781 0.085938 0.074219 0.13281 0.11328 0.27344 0.21484 0.42188 0.30469 0.003906 0.003906 0.007813 0.007813 0.015625 0.011719 0 0 0.003906 0 0.003906 0.003906 0.085938 0.050781 0.17578 0.089844 0.26953 0.13281 0.03125 0.011719 0.058593 0.03125 0.089843 0.042969 0.039063 0.015625 0.082031 0.027344 0.12109 0.042969 0.32422 0.11719 0.66016 0.17969 0.99609 0.17969h0.003906 0.003906c0.33594 0 0.67578-0.0625 1.0039-0.18359 0.039062-0.011719 0.078124-0.023438 0.11328-0.039063 0.03125-0.011719 0.0625-0.03125 0.097656-0.046875 0.089844-0.039062 0.17578-0.082031 0.26172-0.12891 0.003906 0 0.003906 0 0.007812-0.003906s0.011719-0.007813 0.015625-0.011719c0.14844-0.085937 0.28516-0.1875 0.41797-0.30078 0.03125-0.023438 0.058594-0.050782 0.085938-0.074219 0.125-0.11719 0.24219-0.23828 0.35156-0.37891 0.015625-0.023438 0.03125-0.046875 0.046875-0.066407 0.058594-0.082031 0.11719-0.16406 0.16797-0.25l7.3477-12.723c0.015625-0.03125 0.023438-0.0625 0.039062-0.089844 0.050782-0.09375 0.089844-0.19141 0.12891-0.28906 0.035156-0.085938 0.070312-0.17188 0.097656-0.26172 0.027344-0.089843 0.042969-0.18359 0.0625-0.27734 0.019531-0.097657 0.039063-0.19141 0.046875-0.28516s0.007812-0.1875 0.007812-0.28125 0-0.1875-0.007812-0.28516-0.03125-0.19141-0.046875-0.28516c-0.019531-0.09375-0.035156-0.1875-0.0625-0.27734s-0.0625-0.17188-0.097656-0.26172c-0.039063-0.097656-0.078125-0.19531-0.12891-0.28906-0.015624-0.03125-0.023437-0.0625-0.039062-0.089844l-22.043-38.168c-0.82031-1.418-2.6328-1.9062-4.0547-1.0859-1.418 0.82031-1.9062 2.6328-1.0859 4.0547l14.695 25.445 6.4883 11.238-3.918 6.7891-4.7734-8.2695-14.695-25.445v-0.003906l-7.3438-12.723c-0.82031-1.418-2.6328-1.9062-4.0547-1.0859-1.418 0.82031-1.9062 2.6328-1.0859 4.0547l7.3438 12.719v0.003907l6.4883 11.238-6.4883 11.238v0.003906l-6.4883 11.238h-11.266l-6.4883-11.238-4.7773-8.2734h7.8359l6.4883 11.238c0.55078 0.95312 1.5469 1.4844 2.5742 1.4844 0.50391 0 1.0156-0.12891 1.4805-0.39844 1.418-0.82031 1.9062-2.6328 1.0859-4.0547l-7.3477-12.723c-0.015624-0.027344-0.039062-0.050782-0.058593-0.082032-0.054688-0.089843-0.12109-0.17187-0.18359-0.25781-0.058594-0.074219-0.11328-0.14844-0.17578-0.21484-0.066406-0.070312-0.13672-0.12891-0.20703-0.19141-0.074218-0.0625-0.14453-0.12891-0.22656-0.18359-0.078125-0.054687-0.15625-0.097656-0.23828-0.14844-0.082031-0.046875-0.16406-0.097657-0.25391-0.13672-0.085937-0.039062-0.17578-0.070312-0.26562-0.097656-0.09375-0.03125-0.18359-0.0625-0.27734-0.085938-0.085938-0.019531-0.17578-0.03125-0.26172-0.042968-0.10938-0.015626-0.21484-0.027344-0.32422-0.03125-0.03125 0-0.0625-0.007813-0.09375-0.007813l-42.355-0.015625-5.6328-9.7539 6.4883-11.238c0.82031-1.418 0.33203-3.2344-1.0859-4.0547s-3.2344-0.33594-4.0547 1.0859l-7.3477 12.723c-0.53125 0.91797-0.53125 2.0508 0 2.9688l14.695 25.445c0.023437 0.039063 0.050781 0.074219 0.074218 0.10938 0.027344 0.039063 0.050782 0.078125 0.078125 0.11719 0.09375 0.13281 0.19531 0.25781 0.30469 0.36719 0.007812 0.007813 0.011719 0.011719 0.015625 0.019531 0.12109 0.12109 0.25781 0.23047 0.39844 0.32813 0.03125 0.023437 0.066407 0.042968 0.097657 0.0625 0.125 0.082031 0.25781 0.15234 0.39453 0.21484 0.023437 0.011719 0.046875 0.023438 0.070312 0.03125 0.15625 0.066407 0.32031 0.11328 0.48438 0.14844 0.039063 0.007812 0.082032 0.015625 0.125 0.023437 0.17578 0.03125 0.35156 0.054688 0.53516 0.054688h0.011719 14.676c1.6406 0 2.9688-1.3281 2.9688-2.9688s-1.3281-2.9688-2.9688-2.9688h-12.977l-3.918-6.7891h22.527l12.977 22.477-3.918 6.7891-4.7734-8.2695c-0.015625-0.03125-0.039062-0.050781-0.058593-0.082031-0.054688-0.089844-0.11719-0.17188-0.18359-0.25391-0.058594-0.074219-0.11328-0.14844-0.17969-0.21484-0.0625-0.066406-0.13281-0.12891-0.20312-0.1875-0.074219-0.066406-0.14844-0.13281-0.23047-0.19141-0.074218-0.050782-0.15234-0.09375-0.23047-0.14063-0.085938-0.050781-0.17188-0.10156-0.26172-0.14062-0.082031-0.039063-0.16797-0.066407-0.25391-0.09375-0.097657-0.035157-0.19141-0.066407-0.29297-0.089844-0.082031-0.019532-0.16797-0.03125-0.25-0.042969-0.11328-0.015625-0.22266-0.03125-0.33594-0.035156-0.03125 0-0.058593-0.007813-0.089843-0.007813l-42.367 0.003906-6.4883-11.238-7.3477-12.723c-0.015625-0.027344-0.039063-0.050781-0.058594-0.082031-0.054688-0.089844-0.12109-0.17188-0.18359-0.25781-0.058594-0.074219-0.11328-0.14453-0.17578-0.21094-0.066406-0.070313-0.13672-0.13281-0.21094-0.19531-0.074219-0.0625-0.14453-0.12891-0.22266-0.18359-0.078125-0.054688-0.16016-0.10156-0.24219-0.14844-0.082032-0.046875-0.16406-0.097656-0.25-0.13672-0.085938-0.039062-0.17578-0.070312-0.26562-0.10156-0.09375-0.03125-0.18359-0.0625-0.27734-0.085938-0.085937-0.019531-0.17578-0.03125-0.26562-0.042969-0.10938-0.015624-0.21484-0.027343-0.32422-0.03125-0.03125 0-0.0625-0.007812-0.09375-0.007812h-27.668l-6.4883-11.238c-0.82031-1.418-2.6328-1.9062-4.0547-1.0859-1.418 0.82031-1.9062 2.6328-1.0859 4.0547l7.3477 12.723 6.4883 11.238-6.4883 11.238-7.3477 12.723v0.003906l-7.3438 12.719c-0.82031 1.418-0.33203 3.2344 1.0859 4.0547 0.46875 0.26953 0.97656 0.39844 1.4805 0.39844 1.0273 0 2.0234-0.53125 2.5742-1.4844l7.3438-12.719s0-0.003906 0.003907-0.003906l7.3477-12.723 6.4883-11.238h12.977c1.6406 0 2.9688-1.3281 2.9688-2.9688s-1.3281-2.9688-2.9688-2.9688h-12.977l-3.918-6.7891h22.527l5.6328 9.7539-5.6328 9.7539h-12.977c-1.6406 0-2.9688 1.3281-2.9688 2.9688s1.3281 2.9688 2.9688 2.9688h9.5508l-3.918 6.7891h-12.977c-0.03125 0-0.0625 0.007812-0.09375 0.007812-0.10938 0.003907-0.21875 0.015625-0.32813 0.03125-0.085937 0.011719-0.17578 0.023438-0.25781 0.042969-0.097656 0.023438-0.1875 0.054688-0.28516 0.085938-0.089844 0.03125-0.17578 0.058593-0.26172 0.097656-0.089844 0.039062-0.17188 0.089844-0.25391 0.14062-0.082031 0.046875-0.16016 0.089843-0.23828 0.14453-0.078126 0.054688-0.15234 0.12109-0.22656 0.1875-0.070313 0.0625-0.14453 0.125-0.20703 0.19141s-0.11719 0.14062-0.17578 0.21094c-0.066406 0.085937-0.12891 0.16797-0.1875 0.25781-0.015624 0.027344-0.039062 0.050782-0.054687 0.078125l-7.3477 12.723c-0.82031 1.418-0.33203 3.2344 1.0859 4.0547 0.46875 0.26953 0.97656 0.39844 1.4805 0.39844 1.0273 0 2.0234-0.53125 2.5742-1.4844l6.4883-11.238h12.965 0.011719c0.17969 0 0.35547-0.023437 0.53125-0.054687 0.042968-0.007813 0.082031-0.015625 0.125-0.023438 0.16406-0.039062 0.32812-0.085937 0.48437-0.14844 0.023438-0.011719 0.046876-0.023438 0.070313-0.035156 0.13672-0.058594 0.26562-0.13281 0.39062-0.21094 0.035156-0.023438 0.066406-0.042969 0.097656-0.066406 0.14062-0.097656 0.27344-0.20312 0.39453-0.32812 0.007812-0.007813 0.011718-0.015625 0.019531-0.019531 0.10938-0.11328 0.21094-0.23828 0.30469-0.36719 0.027344-0.039062 0.054688-0.078125 0.078125-0.11719 0.023438-0.039062 0.050781-0.070312 0.074219-0.10937l7.3477-12.723 4.7734-8.2695 3.918 6.7891-6.4883 11.238v0.003906l-6.4883 11.234h-12.984c-1.6406 0-2.9688 1.3281-2.9688 2.9688s1.3281 2.9688 2.9688 2.9688h14.676 0.011719c0.17969 0 0.35938-0.023437 0.53125-0.054687 0.042969-0.007813 0.082031-0.015626 0.125-0.023438 0.16406-0.039062 0.32812-0.085938 0.48438-0.14844 0.023438-0.011718 0.046875-0.023437 0.070312-0.035156 0.13672-0.058594 0.26563-0.13281 0.39063-0.21094 0.035156-0.019531 0.066406-0.042969 0.10156-0.066407 0.14062-0.097656 0.27344-0.20312 0.39453-0.32422 0.007813-0.007813 0.011719-0.015625 0.019531-0.023438 0.10938-0.10938 0.20703-0.23438 0.30078-0.36328 0.027344-0.039063 0.054687-0.082031 0.082031-0.125 0.023437-0.035156 0.050781-0.070313 0.074219-0.10938l7.3438-12.719s0-0.003906 0.003906-0.003906l6.4883-11.238h40.648l5.6328 9.7539-3.918 6.7891-4.7773-8.2695c-0.015625-0.027344-0.039063-0.050781-0.054688-0.078125-0.058593-0.089844-0.12109-0.17578-0.1875-0.26172-0.054687-0.070312-0.10938-0.14453-0.17188-0.21094-0.066406-0.070313-0.13672-0.13281-0.21094-0.19531s-0.14453-0.12891-0.22266-0.18359c-0.078124-0.054687-0.16016-0.10156-0.24219-0.14844s-0.16406-0.097656-0.25-0.13672c-0.085937-0.039062-0.17578-0.070312-0.26562-0.10156-0.09375-0.03125-0.18359-0.0625-0.27734-0.085938-0.085937-0.019531-0.17578-0.03125-0.26562-0.042968-0.10938-0.015626-0.21484-0.027344-0.32422-0.03125-0.03125 0-0.0625-0.007813-0.09375-0.007813h-29.383c-0.03125 0-0.0625 0.007813-0.09375 0.007813-0.10938 0.003906-0.21875 0.015624-0.32812 0.03125-0.085937 0.011718-0.17578 0.023437-0.26172 0.042968-0.097656 0.023438-0.1875 0.054688-0.28125 0.085938-0.089844 0.03125-0.17969 0.058594-0.26172 0.097656-0.085938 0.039062-0.17188 0.089844-0.25391 0.13672s-0.16406 0.09375-0.23828 0.14453c-0.078125 0.054688-0.14844 0.12109-0.22266 0.18359-0.070313 0.0625-0.14453 0.125-0.21094 0.19531-0.0625 0.066406-0.11719 0.13672-0.17188 0.21094-0.066406 0.085937-0.12891 0.16797-0.1875 0.26172-0.015625 0.027344-0.039062 0.050782-0.054687 0.078126l-7.3438 12.719v0.003906l-6.4883 11.238-55.352 0.007813-5.6328-9.7539 6.4883-11.234s0-0.003906 0.003906-0.003906l14.695-25.445c0.015624-0.03125 0.023437-0.0625 0.039062-0.089844 0.050781-0.09375 0.089844-0.19141 0.12891-0.28906 0.035156-0.085937 0.070313-0.17188 0.097656-0.26172 0.027344-0.089843 0.042969-0.18359 0.0625-0.27734 0.019532-0.097657 0.039063-0.19141 0.046876-0.28516 0.007812-0.09375 0.007812-0.1875 0.007812-0.28125s0-0.1875-0.007812-0.28516c-0.007813-0.097656-0.03125-0.19141-0.046876-0.28516-0.019531-0.09375-0.035156-0.1875-0.0625-0.27734-0.027343-0.089844-0.0625-0.17188-0.097656-0.26172-0.039062-0.097657-0.078125-0.19531-0.12891-0.28906-0.015625-0.03125-0.023438-0.0625-0.039062-0.089844l-7.3477-12.723c-0.027343-0.050781-0.066406-0.089844-0.097656-0.13672-0.058594-0.089844-0.11719-0.17578-0.1875-0.25781-0.0625-0.074219-0.12891-0.14453-0.19531-0.21094-0.066406-0.066406-0.13281-0.13281-0.20703-0.19141-0.085937-0.070312-0.17188-0.13281-0.26562-0.19141-0.046875-0.03125-0.085937-0.066406-0.13281-0.09375-0.027344-0.015625-0.058594-0.023438-0.085938-0.039063-0.09375-0.050781-0.19141-0.089843-0.29297-0.13281-0.085938-0.035157-0.17188-0.070313-0.25781-0.097657-0.089844-0.027343-0.17969-0.042968-0.26953-0.0625-0.097656-0.019531-0.19531-0.039062-0.29688-0.050781-0.089844-0.007812-0.17969-0.007812-0.26562-0.007812-0.10156 0-0.19922-0.003907-0.30078 0.007812-0.089843 0.007813-0.17969 0.027344-0.26562 0.046875-0.10156 0.019532-0.19922 0.039063-0.29688 0.066406-0.082031 0.023438-0.16016 0.058594-0.23828 0.089844-0.10547 0.042969-0.20703 0.085938-0.30859 0.14062-0.027344 0.015625-0.054688 0.023438-0.082032 0.039063-0.046875 0.027344-0.082031 0.0625-0.12891 0.089844-0.09375 0.0625-0.18359 0.125-0.27344 0.19531-0.070312 0.058594-0.13672 0.12109-0.20312 0.1875-0.070313 0.070312-0.13672 0.14062-0.19922 0.21484-0.066407 0.082031-0.12891 0.16797-0.18359 0.25781-0.03125 0.046875-0.070313 0.085938-0.097656 0.13672l-7.3477 12.723c-0.82031 1.418-0.33203 3.2344 1.0859 4.0547 0.46875 0.26953 0.97656 0.39844 1.4805 0.39844 1.0273 0 2.0234-0.53125 2.5742-1.4844l4.7734-8.2695 3.918 6.7891-6.4883 11.238-7.3477 12.723v0.003906l-7.3438 12.719v0.003906l-6.4883 11.238h-12.977c-0.03125 0-0.058593 0.007812-0.089843 0.007812-0.11328 0.003906-0.22656 0.015625-0.33984 0.035156-0.082031 0.011719-0.16797 0.023438-0.25 0.042969-0.10156 0.023438-0.19531 0.058594-0.29297 0.089844-0.085937 0.03125-0.17188 0.058594-0.25 0.09375-0.089844 0.042969-0.17578 0.09375-0.26562 0.14453-0.078125 0.046875-0.15625 0.089844-0.22656 0.14062-0.082031 0.058594-0.15625 0.125-0.23047 0.19141-0.070312 0.0625-0.14062 0.12109-0.20312 0.1875-0.0625 0.066406-0.12109 0.14062-0.17969 0.21484-0.066407 0.082031-0.12891 0.16406-0.18359 0.25391-0.019532 0.027343-0.042969 0.050781-0.058594 0.082031l-7.3477 12.723c-0.82031 1.418-0.33203 3.2344 1.0859 4.0547 0.46875 0.26953 0.97656 0.39844 1.4805 0.39844 1.0273 0 2.0234-0.53125 2.5742-1.4844l6.4883-11.238h11.266l6.4883 11.238s0 0.003906 0.003906 0.003906l7.3438 12.719c0.55078 0.95312 1.5469 1.4844 2.5742 1.4844 0.50391 0 1.0156-0.12891 1.4805-0.39844 1.418-0.82031 1.9062-2.6328 1.0859-4.0547l-7.3438-12.719v-0.003906l-6.4883-11.238 3.918-6.7891 4.7773 8.2734c0.023437 0.039062 0.050781 0.070312 0.074219 0.10938 0.027343 0.042968 0.054687 0.082031 0.082031 0.12109 0.09375 0.12891 0.19141 0.25391 0.30078 0.36328 0.007812 0.007812 0.011719 0.015625 0.019531 0.023437 0.12109 0.12109 0.25781 0.23047 0.39453 0.32812 0.03125 0.023438 0.066407 0.042969 0.097657 0.066407 0.125 0.082031 0.25781 0.15234 0.39453 0.21484 0.023438 0.011719 0.046875 0.023438 0.070312 0.035157 0.15625 0.066406 0.32031 0.11328 0.48438 0.14844 0.039062 0.007813 0.082031 0.015625 0.125 0.023437 0.17578 0.03125 0.35156 0.054688 0.53516 0.054688h0.011718 24.227l-3.918 6.7891h-12.977c-0.054688 0-0.10547 0.011719-0.16016 0.015626-0.10938 0.003906-0.21875 0.015624-0.32813 0.03125-0.09375 0.015624-0.18359 0.039062-0.27344 0.0625-0.09375 0.023437-0.18359 0.050781-0.27734 0.085937-0.10156 0.039063-0.19922 0.085937-0.29297 0.13281-0.050781 0.023437-0.10156 0.039062-0.15234 0.066406-0.027344 0.015625-0.050781 0.039062-0.078125 0.054687-0.089844 0.058594-0.17578 0.12109-0.26172 0.1875-0.070313 0.054688-0.14453 0.11328-0.21094 0.17188-0.070313 0.066406-0.13281 0.13672-0.19531 0.21094-0.0625 0.074218-0.12891 0.14453-0.18359 0.22266-0.054687 0.078125-0.10156 0.16016-0.14844 0.24219-0.046875 0.082031-0.097656 0.16406-0.13672 0.25-0.039063 0.085937-0.070313 0.17969-0.10156 0.26953-0.03125 0.089843-0.0625 0.17969-0.085937 0.27344-0.019531 0.085938-0.03125 0.17578-0.046875 0.26953-0.015625 0.10547-0.027344 0.21094-0.03125 0.32031 0 0.03125-0.011719 0.0625-0.011719 0.097656 0 0.054688 0.011719 0.10938 0.015625 0.16406 0.007813 0.10938 0.015625 0.21484 0.03125 0.32422 0.015625 0.09375 0.039063 0.18359 0.0625 0.27734 0.023438 0.09375 0.050782 0.18359 0.085938 0.27734 0.039062 0.10156 0.082031 0.19531 0.12891 0.28906 0.027344 0.050781 0.039062 0.10547 0.070312 0.15625l22.043 38.168c0.023438 0.039063 0.050781 0.074219 0.074219 0.10938 0.027344 0.039063 0.050781 0.078125 0.078125 0.11719 0.09375 0.13281 0.19531 0.25781 0.30469 0.36719 0.007813 0.007813 0.011719 0.011719 0.015626 0.019532 0.12109 0.12109 0.25781 0.23047 0.39844 0.32812 0.03125 0.023438 0.066406 0.042969 0.097656 0.0625 0.125 0.082032 0.25781 0.15234 0.39453 0.21484 0.023438 0.011719 0.046876 0.023438 0.070313 0.03125 0.15625 0.066406 0.32031 0.11328 0.48438 0.14844 0.039062 0.007812 0.082031 0.015625 0.125 0.023437 0.17578 0.03125 0.35156 0.054688 0.53516 0.054688h0.011719 9.5352l-3.918 6.7891h-12.977c-0.03125 0-0.0625 0.007813-0.09375 0.007813-0.11328 0.003906-0.22266 0.015625-0.33203 0.035156-0.085938 0.011719-0.17188 0.023438-0.25391 0.042969-0.097656 0.023437-0.19531 0.058593-0.28906 0.089843-0.085938 0.03125-0.17188 0.058594-0.25391 0.09375-0.089844 0.042969-0.17578 0.09375-0.26172 0.14063-0.078125 0.046874-0.15625 0.089843-0.23047 0.14062-0.082031 0.058594-0.15625 0.125-0.23047 0.19141-0.070313 0.0625-0.14063 0.12109-0.20313 0.1875-0.0625 0.066406-0.11719 0.14062-0.17578 0.21484-0.066406 0.082032-0.12891 0.16797-0.1875 0.25781-0.015625 0.027344-0.039062 0.050781-0.054687 0.078125l-4.7773 8.2695-3.918-6.7852 6.4883-11.238c0.015626-0.03125 0.023438-0.0625 0.039063-0.089844 0.050781-0.09375 0.089844-0.19141 0.12891-0.28906 0.035157-0.085938 0.070313-0.17188 0.097657-0.26172 0.027343-0.089844 0.042968-0.18359 0.0625-0.27734 0.019531-0.097656 0.039062-0.19141 0.046874-0.28516 0.007813-0.09375 0.007813-0.1875 0.007813-0.28125s0-0.1875-0.007813-0.28516c-0.007812-0.097656-0.03125-0.19141-0.046874-0.28516-0.019532-0.09375-0.035157-0.1875-0.0625-0.27734-0.027344-0.089843-0.0625-0.17187-0.097657-0.26172-0.039062-0.097656-0.078125-0.19531-0.12891-0.28906-0.015625-0.03125-0.023437-0.0625-0.039063-0.089843l-7.3477-12.723c-0.82031-1.418-2.6328-1.9062-4.0547-1.0859-1.418 0.82031-1.9062 2.6328-1.0859 4.0547l6.4883 11.238-6.4883 11.238c-0.015625 0.03125-0.023437 0.0625-0.039062 0.089844-0.050781 0.09375-0.089844 0.1875-0.12891 0.28516-0.035156 0.085937-0.070312 0.17188-0.097656 0.26172-0.027344 0.089844-0.042968 0.18359-0.0625 0.27344-0.019531 0.097656-0.039062 0.19141-0.046875 0.28906-0.007812 0.09375-0.007812 0.1875-0.007812 0.28125 0 0.097657 0 0.19141 0.007812 0.28516 0.007813 0.09375 0.027344 0.1875 0.046875 0.28125 0.019532 0.09375 0.035156 0.1875 0.0625 0.28125 0.027344 0.085937 0.0625 0.17188 0.09375 0.25391 0.039063 0.10156 0.082032 0.19922 0.13281 0.29297 0.015625 0.027344 0.023437 0.058594 0.039062 0.089844l7.3477 12.723c0.050781 0.085937 0.10937 0.16797 0.16406 0.24609 0.015625 0.023437 0.03125 0.050781 0.050781 0.074218 0.10547 0.13672 0.22266 0.26172 0.34766 0.37891 0.027343 0.027344 0.058593 0.050782 0.089843 0.074219 0.13281 0.11328 0.26953 0.21484 0.41797 0.30078 0.003906 0.003907 0.007812 0.007813 0.015625 0.011719 0.003906 0 0.003906 0 0.007813 0.003907 0.085937 0.050781 0.17578 0.089843 0.26562 0.13281 0.03125 0.015625 0.058594 0.03125 0.089844 0.042969 0.039063 0.015625 0.078125 0.027343 0.12109 0.039062 0.32812 0.11719 0.66406 0.17969 1 0.17969h0.003906 0.003906c0.33594 0 0.67578-0.0625 1.0039-0.18359 0.039062-0.011719 0.078125-0.023437 0.11328-0.039063 0.03125-0.011718 0.0625-0.03125 0.097656-0.046874 0.089844-0.039063 0.17578-0.082032 0.26172-0.12891 0.003906 0 0.003906-0.003906 0.007813-0.003906 0.003906-0.003906 0.011718-0.007813 0.015624-0.011719 0.14844-0.085937 0.28516-0.1875 0.41797-0.30078 0.03125-0.023437 0.058594-0.050781 0.089844-0.078125 0.125-0.11328 0.24219-0.23828 0.34766-0.37891 0.019531-0.023438 0.03125-0.050782 0.050781-0.074219 0.058594-0.078125 0.11328-0.16016 0.16406-0.24609l6.4883-11.238h12.965 0.011719c0.17969 0 0.35938-0.023438 0.53125-0.054688 0.042969-0.007812 0.082031-0.015624 0.125-0.023437 0.16406-0.039063 0.32812-0.085937 0.48438-0.14844 0.023437-0.011719 0.046875-0.023438 0.070312-0.035157 0.13672-0.058593 0.26562-0.13281 0.39062-0.21094 0.035157-0.023438 0.066407-0.042969 0.097657-0.066406 0.14062-0.097657 0.27344-0.20313 0.39453-0.32813 0.007812-0.007812 0.011719-0.015624 0.019531-0.019531 0.10938-0.11328 0.21094-0.23828 0.30469-0.36719 0.027343-0.039063 0.054687-0.078125 0.078124-0.11719 0.023438-0.039062 0.050782-0.070312 0.074219-0.10938l7.3477-12.723c0.027343-0.050781 0.042968-0.10156 0.070312-0.15234 0.046875-0.09375 0.09375-0.19141 0.12891-0.28906 0.035156-0.089844 0.0625-0.18359 0.085938-0.27734 0.023437-0.089844 0.046875-0.17969 0.0625-0.27734 0.019531-0.10938 0.027344-0.21484 0.03125-0.32422 0.003906-0.054687 0.015625-0.10937 0.015625-0.16406 0-0.03125-0.007813-0.0625-0.011719-0.097656-0.003906-0.10938-0.015625-0.21484-0.03125-0.32031-0.011719-0.089843-0.023438-0.17969-0.042969-0.26953-0.023437-0.09375-0.054687-0.18359-0.085937-0.27344-0.03125-0.089843-0.0625-0.18359-0.10156-0.26953-0.039062-0.085937-0.085937-0.16797-0.13672-0.25-0.046874-0.082031-0.09375-0.16406-0.14844-0.24219s-0.12109-0.14844-0.18359-0.22266c-0.0625-0.074219-0.125-0.14453-0.19531-0.21094-0.066407-0.0625-0.13672-0.11719-0.21094-0.17188-0.085937-0.066406-0.16797-0.12891-0.26172-0.1875-0.027343-0.015625-0.050781-0.039063-0.078124-0.054687-0.050782-0.027344-0.10156-0.042969-0.15234-0.070313-0.09375-0.046875-0.19141-0.09375-0.29297-0.13281-0.09375-0.035156-0.1875-0.0625-0.28125-0.085937-0.089844-0.023437-0.17578-0.046875-0.26562-0.058594-0.11328-0.019531-0.22266-0.027343-0.33594-0.035156-0.050781-0.003906-0.10156-0.015625-0.15625-0.015625h-12.977l-6.4883-11.238-7.3477-12.723-4.7773-8.2734h9.5352 0.011719c0.17969 0 0.35547-0.023437 0.53125-0.054687 0.042968-0.007813 0.082031-0.015626 0.125-0.023438 0.16406-0.039062 0.32812-0.085938 0.48438-0.14844 0.023437-0.011718 0.046875-0.023437 0.070312-0.035156 0.13672-0.058594 0.26562-0.13281 0.39062-0.21094 0.035156-0.023438 0.066406-0.042969 0.097656-0.066407 0.14063-0.097656 0.27344-0.20312 0.39453-0.32812 0.007812-0.007813 0.011718-0.015626 0.019531-0.019532 0.10938-0.11328 0.21094-0.23828 0.30469-0.36719 0.027344-0.039063 0.054688-0.078125 0.078126-0.11719 0.023437-0.039062 0.050781-0.070312 0.074218-0.10938l6.4883-11.238h22.527l-3.918 6.7891h-12.977c-0.03125 0-0.0625 0.007812-0.09375 0.007812-0.11328 0.003906-0.22266 0.015625-0.33203 0.035156-0.085938 0.011719-0.17188 0.023438-0.25391 0.042969-0.097656 0.023437-0.19531 0.058594-0.28906 0.089844-0.085938 0.03125-0.17188 0.058593-0.25391 0.09375-0.089844 0.039062-0.17578 0.09375-0.26172 0.14062-0.078125 0.046875-0.15625 0.089844-0.23047 0.14062-0.082031 0.058593-0.15625 0.125-0.23047 0.19141-0.070313 0.0625-0.14063 0.12109-0.20313 0.1875s-0.11719 0.14062-0.17578 0.21484c-0.066406 0.082031-0.12891 0.16797-0.1875 0.25781-0.015625 0.027344-0.039062 0.050781-0.054687 0.078125l-7.3477 12.723c-0.53125 0.91797-0.53125 2.0508 0 2.9688l7.3477 12.723c0.023437 0.039062 0.050781 0.070312 0.074218 0.10938 0.027344 0.042968 0.054688 0.082031 0.082032 0.12109 0.09375 0.12891 0.19141 0.25391 0.30078 0.36328 0.007813 0.007812 0.011719 0.015625 0.019531 0.023437 0.12109 0.12109 0.25781 0.23047 0.39453 0.32812 0.03125 0.023438 0.066406 0.042969 0.097656 0.066407 0.125 0.082031 0.25781 0.15234 0.39453 0.21484 0.023437 0.011719 0.046875 0.023438 0.070313 0.035157 0.15625 0.066406 0.32031 0.11328 0.48437 0.14844 0.039063 0.007813 0.082032 0.015625 0.125 0.023437 0.17578 0.03125 0.35156 0.054688 0.53516 0.054688h0.011719 12.965l5.6328 9.7539-6.4883 11.238c-0.82031 1.418-0.33203 3.2344 1.0859 4.0547 0.46875 0.26953 0.97656 0.39844 1.4805 0.39844 1.0273 0 2.0234-0.53125 2.5742-1.4844l4.7734-8.2695 3.918 6.7891-6.4883 11.238c-0.82031 1.418-0.33203 3.2344 1.0859 4.0547 0.46875 0.26953 0.97656 0.39844 1.4805 0.39844 1.0273 0 2.0234-0.53125 2.5742-1.4844l4.7773-8.2695 4.7773 8.2695c0.023437 0.039062 0.050781 0.070312 0.074219 0.10938 0.027344 0.042969 0.054687 0.082031 0.082031 0.12109 0.09375 0.12891 0.19141 0.25391 0.30078 0.36328 0.007813 0.007812 0.011719 0.015625 0.019532 0.023438 0.12109 0.12109 0.25781 0.23047 0.39453 0.32812 0.03125 0.023438 0.066406 0.042969 0.097656 0.066407 0.125 0.082031 0.25781 0.15234 0.39453 0.21484 0.023438 0.011719 0.046875 0.023438 0.070313 0.035157 0.15625 0.066406 0.32031 0.11328 0.48438 0.14844 0.039062 0.007813 0.082031 0.015625 0.125 0.023438 0.17578 0.03125 0.35156 0.054687 0.53516 0.054687h0.011719 12.965l3.918 6.7891-37.254-0.003906-6.4883-11.238c-0.015625-0.027344-0.039063-0.050781-0.058594-0.082031-0.054688-0.089844-0.11719-0.17188-0.18359-0.25391-0.058594-0.074219-0.11328-0.14844-0.17578-0.21484-0.066406-0.066406-0.13672-0.12891-0.20703-0.19141-0.074219-0.066407-0.14844-0.13281-0.22656-0.1875-0.074219-0.054688-0.15234-0.097657-0.23438-0.14453-0.085937-0.050782-0.16797-0.10156-0.25781-0.14063-0.082032-0.039062-0.17188-0.066406-0.25781-0.097656-0.097656-0.03125-0.19141-0.066406-0.28906-0.089844-0.082031-0.019531-0.16797-0.03125-0.25391-0.042968-0.11328-0.015625-0.22266-0.03125-0.33594-0.035156-0.03125 0-0.058594-0.007813-0.089844-0.007813h-14.691c-1.6406 0-2.9688 1.3281-2.9688 2.9688s1.3281 2.9688 2.9688 2.9688h12.977l6.4883 11.238c0.023437 0.039063 0.050781 0.074219 0.074219 0.10938 0.027343 0.039063 0.050781 0.078125 0.078124 0.11719 0.09375 0.13281 0.19531 0.25781 0.30469 0.36719 0.007812 0.007813 0.011719 0.011719 0.015625 0.019532 0.12109 0.12109 0.25781 0.23047 0.39844 0.32812 0.03125 0.023438 0.066407 0.042969 0.097657 0.0625 0.125 0.082032 0.25781 0.15234 0.39453 0.21484 0.023438 0.011719 0.046875 0.023438 0.070312 0.03125 0.15625 0.066406 0.32031 0.11328 0.48438 0.14844 0.039062 0.007812 0.082031 0.015625 0.125 0.023437 0.17578 0.03125 0.35156 0.054688 0.53516 0.054688h0.011718 42.348l6.4883 11.238c0.55078 0.95312 1.5469 1.4844 2.5742 1.4844 0.50391 0 1.0156-0.12891 1.4805-0.39844 1.418-0.82031 1.9062-2.6328 1.0859-4.0547l-13.836-23.965 6.4883-11.238c0.015625-0.027344 0.023437-0.058594 0.039062-0.089844 0.050781-0.09375 0.09375-0.19141 0.13281-0.29297 0.035156-0.085937 0.070312-0.16797 0.09375-0.25391 0.027344-0.09375 0.046875-0.1875 0.0625-0.28125 0.019531-0.09375 0.039062-0.1875 0.046875-0.28125 0.007812-0.09375 0.007812-0.19141 0.007812-0.28516s0-0.1875-0.007812-0.28125c-0.007813-0.097656-0.03125-0.19141-0.046875-0.28906-0.019532-0.09375-0.035156-0.18359-0.0625-0.27344s-0.0625-0.17578-0.097656-0.26172c-0.039063-0.097656-0.078126-0.19531-0.12891-0.28516-0.015625-0.03125-0.023437-0.0625-0.039062-0.089844l-4.7773-8.2734h7.8359l6.4883 11.238c0.55078 0.95312 1.5469 1.4844 2.5742 1.4844 0.50391 0 1.0156-0.12891 1.4805-0.39844 1.418-0.82031 1.9062-2.6328 1.0859-4.0547l-6.4883-11.227 6.4883-11.234s0-0.003907 0.003906-0.003907l7.3477-12.723c0.53125-0.91797 0.53125-2.0508 0-2.9688l-7.3477-12.723v-0.003907l-4.7734-8.2695h7.8359l6.4883 11.238 7.3477 12.723 6.4883 11.238-6.4883 11.238c-0.82031 1.418-0.33203 3.2344 1.0859 4.0547 0.46875 0.26953 0.97656 0.39844 1.4805 0.39844 1.0273 0 2.0234-0.53125 2.5742-1.4844l7.3477-12.723c0.015625-0.03125 0.023437-0.0625 0.039062-0.089844 0.050782-0.09375 0.089844-0.19141 0.12891-0.28906 0.035157-0.085938 0.070313-0.17188 0.097657-0.25781 0.027343-0.089844 0.042969-0.18359 0.0625-0.27734 0.019531-0.097656 0.039062-0.19141 0.046875-0.28516 0.007812-0.09375 0.007812-0.1875 0.007812-0.28125s0-0.1875-0.007812-0.28516c-0.007813-0.097656-0.03125-0.19141-0.046875-0.28516-0.019531-0.09375-0.035157-0.1875-0.0625-0.27734-0.027344-0.089844-0.0625-0.17188-0.097657-0.26172-0.039062-0.097656-0.078124-0.19531-0.12891-0.28906-0.015625-0.03125-0.023437-0.0625-0.039062-0.089844l-7.3477-12.723-4.7773-8.2734h7.8359l6.4883 11.238c0.023438 0.039063 0.050782 0.070313 0.074219 0.10938 0.027344 0.042968 0.054688 0.082031 0.082031 0.12109 0.09375 0.12891 0.19141 0.25391 0.30078 0.36328 0.007812 0.007813 0.011718 0.015626 0.019531 0.023438 0.12109 0.12109 0.25781 0.23047 0.39453 0.32812 0.03125 0.023437 0.066406 0.042969 0.097656 0.066406 0.125 0.082031 0.25781 0.15234 0.39453 0.21484 0.023437 0.011719 0.046875 0.023437 0.070312 0.035156 0.15625 0.066407 0.32031 0.11328 0.48438 0.14844 0.039063 0.007812 0.082031 0.015625 0.125 0.023437 0.17578 0.03125 0.35156 0.054688 0.53516 0.054688h0.011718 27.656l5.6328 9.7539-5.6328 9.7539h-22.527l3.918-6.7891h12.977c1.6406 0 2.9688-1.3281 2.9688-2.9688s-1.3281-2.9688-2.9688-2.9688l-14.695 0.007812c-0.03125 0-0.0625 0.007813-0.09375 0.007813-0.10938 0.003906-0.21875 0.015625-0.32812 0.03125-0.085937 0.011719-0.17578 0.023437-0.25781 0.042969-0.097656 0.023437-0.19141 0.054687-0.28516 0.089843-0.089844 0.03125-0.17578 0.058594-0.26172 0.097657-0.089844 0.039062-0.17188 0.089843-0.25781 0.14062-0.078125 0.046876-0.16016 0.089844-0.23438 0.14453-0.078125 0.054687-0.15234 0.12109-0.22656 0.1875-0.070313 0.0625-0.14062 0.12109-0.20703 0.19141-0.0625 0.066406-0.11719 0.14062-0.17578 0.21484-0.066406 0.082031-0.12891 0.16797-0.18359 0.25391-0.019531 0.027344-0.042968 0.050781-0.058593 0.082031l-7.3477 12.723v0.003906l-6.4883 11.238h-11.266l-5.6328-9.7539 6.4883-11.238c0.82031-1.418 0.33203-3.2344-1.0859-4.0547-1.418-0.82031-3.2344-0.33203-4.0547 1.0859l-7.3477 12.723c-0.015625 0.027344-0.023438 0.0625-0.039063 0.089844-0.050781 0.09375-0.089843 0.19141-0.12891 0.28906-0.035156 0.085938-0.070313 0.17188-0.097656 0.26172-0.027344 0.089843-0.042969 0.18359-0.0625 0.27734s-0.039063 0.19141-0.046875 0.28516c-0.007813 0.09375-0.007813 0.1875-0.007813 0.28516 0 0.09375 0 0.1875 0.007813 0.28125 0.007812 0.097656 0.03125 0.19141 0.046875 0.28516 0.019531 0.09375 0.035156 0.1875 0.0625 0.27734 0.027343 0.089844 0.0625 0.17188 0.097656 0.26172 0.039063 0.097656 0.078125 0.19531 0.12891 0.28906 0.015625 0.03125 0.023438 0.0625 0.039063 0.089844l7.3477 12.723c0.023438 0.039063 0.050781 0.074219 0.074219 0.10938 0.027343 0.039063 0.050781 0.078125 0.078125 0.11719 0.09375 0.13281 0.19531 0.25781 0.30469 0.36719 0.007813 0.007813 0.011719 0.011719 0.015625 0.019532 0.12109 0.12109 0.25781 0.23047 0.39844 0.32812 0.03125 0.023438 0.066406 0.042969 0.097656 0.0625 0.125 0.082032 0.25781 0.15234 0.39453 0.21484 0.023438 0.011719 0.046875 0.023438 0.070313 0.03125 0.15625 0.066406 0.32031 0.11328 0.48438 0.14844 0.039062 0.007812 0.082031 0.015625 0.125 0.023437 0.17578 0.03125 0.35156 0.054688 0.53516 0.054688h0.011719 12.965l5.6328 9.7539-6.4883 11.238c-0.82031 1.418-0.33203 3.2344 1.0859 4.0547 0.46875 0.26953 0.97656 0.39844 1.4805 0.39844 1.0273 0 2.0234-0.53125 2.5742-1.4844l7.3477-12.723c0.53125-0.91797 0.53125-2.0508 0-2.9688l-6.4883-11.238 5.6328-9.7539h25.957l6.4883 11.238c0.050781 0.085937 0.10938 0.16797 0.16406 0.24609 0.015625 0.023437 0.03125 0.050781 0.050782 0.074218 0.10547 0.13672 0.22266 0.26172 0.34766 0.37891 0.027344 0.027344 0.058594 0.050782 0.089844 0.074219 0.13281 0.11328 0.26953 0.21484 0.41797 0.30078 0.003906 0.003907 0.007813 0.007813 0.015625 0.011719 0.003907 0 0.003907 0 0.007813 0.003907 0.085937 0.050781 0.17578 0.089843 0.26562 0.13281 0.03125 0.015625 0.058593 0.03125 0.089843 0.042969 0.039063 0.015625 0.078126 0.027343 0.12109 0.039062 0.32812 0.11719 0.66406 0.17969 1 0.17969h0.003906 0.003907c0.33594 0 0.67578-0.0625 1.0039-0.18359 0.039063-0.011719 0.078125-0.023437 0.11328-0.039063 0.03125-0.011718 0.0625-0.03125 0.097656-0.046874 0.089844-0.039063 0.17578-0.082032 0.26172-0.12891 0.003907 0 0.003907 0 0.007813-0.003906s0.011718-0.007813 0.015625-0.011719c0.14844-0.085937 0.28516-0.1875 0.41797-0.30078 0.03125-0.023437 0.058593-0.050781 0.085937-0.074219 0.125-0.11719 0.24219-0.23828 0.35156-0.37891 0.015624-0.023438 0.03125-0.046875 0.046874-0.066406 0.058594-0.082032 0.11719-0.16406 0.16797-0.25l6.4883-11.238h12.969 0.011719c0.17969 0 0.35547-0.023437 0.53516-0.054687 0.039062-0.007813 0.074218-0.011719 0.10937-0.023437 0.16797-0.039063 0.33203-0.085938 0.49219-0.15234 0.023438-0.007813 0.042969-0.023438 0.066406-0.03125 0.09375-0.042969 0.1875-0.085938 0.27734-0.13672 0.027344-0.015625 0.050781-0.039063 0.078125-0.054687 0.089844-0.058594 0.17578-0.12109 0.26172-0.1875 0.070312-0.054688 0.14453-0.10938 0.21094-0.17188 0.070313-0.066406 0.13281-0.13672 0.19531-0.21094s0.12891-0.14453 0.18359-0.22266c0.054687-0.078125 0.10156-0.16016 0.14844-0.24219s0.097656-0.16406 0.13672-0.25c0.039062-0.085937 0.070312-0.17969 0.10156-0.26953s0.0625-0.17969 0.085938-0.27344c0.019531-0.085937 0.03125-0.17578 0.042968-0.26953 0.015626-0.10547 0.027344-0.21094 0.03125-0.32031 0-0.03125 0.011719-0.0625 0.011719-0.097657 0-0.054687-0.011719-0.10937-0.015625-0.16406-0.007812-0.10938-0.015625-0.21484-0.03125-0.32422-0.015625-0.09375-0.039062-0.18359-0.0625-0.27344-0.023437-0.09375-0.050781-0.18359-0.085937-0.27734-0.039063-0.10156-0.082031-0.19531-0.12891-0.28906-0.023437-0.050782-0.039062-0.10547-0.070312-0.15234l-7.3477-12.723c-0.82031-1.418-2.6328-1.9062-4.0547-1.0859-1.418 0.82031-1.9062 2.6328-1.0859 4.0547l4.7773 8.2734h-9.5508c-0.03125 0-0.058593 0.007813-0.089843 0.007813-0.11328 0.003906-0.22266 0.015624-0.33594 0.035156-0.085938 0.011718-0.17188 0.023437-0.25391 0.042968-0.097656 0.023438-0.19141 0.054688-0.28906 0.089844-0.085937 0.03125-0.17578 0.058594-0.25781 0.097656-0.089844 0.039063-0.17188 0.089844-0.25781 0.14063-0.078125 0.046874-0.16016 0.089843-0.23438 0.14453-0.078125 0.058593-0.15234 0.12109-0.22656 0.1875-0.070313 0.0625-0.14062 0.12109-0.20703 0.19141-0.0625 0.066406-0.12109 0.14062-0.17578 0.21484-0.066406 0.082031-0.12891 0.16406-0.18359 0.25391-0.019531 0.027344-0.042968 0.050781-0.058593 0.082031l-4.7773 8.2734-3.918-6.7891 6.4883-11.238c0.015624-0.027344 0.023437-0.058594 0.039062-0.089844 0.050781-0.09375 0.089844-0.19141 0.13281-0.29297 0.035157-0.085938 0.070313-0.16797 0.09375-0.25391 0.027344-0.09375 0.042969-0.1875 0.0625-0.28125 0.019532-0.09375 0.039063-0.1875 0.046876-0.28516 0.007812-0.09375 0.007812-0.1875 0.007812-0.28516 0-0.09375 0-0.1875-0.007812-0.28516-0.007813-0.09375-0.027344-0.19141-0.046876-0.28516-0.019531-0.09375-0.035156-0.1875-0.0625-0.28125-0.027343-0.085937-0.0625-0.17188-0.09375-0.25391-0.039062-0.097656-0.082031-0.19531-0.13281-0.29297-0.015625-0.027343-0.023438-0.058593-0.039062-0.089843l-6.4883-11.238 6.4883-11.234s0-0.003906 0.003906-0.003906l14.695-25.445c0.82031-1.418 0.33203-3.2344-1.0859-4.0547s-3.2344-0.33203-4.0547 1.0859l-4.7734 8.2695-3.918-6.7891 6.4883-11.238c0.82031-1.418 0.33203-3.2344-1.0859-4.0547-1.418-0.82031-3.2344-0.33203-4.0547 1.0859l-6.4883 11.238-37.25-0.003906 3.918-6.7852h27.656 0.011719c0.17969 0 0.35547-0.023438 0.53125-0.054688 0.042968-0.007812 0.082031-0.015625 0.125-0.023437 0.16406-0.039063 0.32812-0.085938 0.48437-0.14844 0.023438-0.011718 0.046876-0.023437 0.070313-0.035156 0.13672-0.058594 0.26562-0.13281 0.39062-0.21094 0.035156-0.019531 0.066406-0.042968 0.10156-0.066406 0.14063-0.097656 0.27344-0.20312 0.39453-0.32422 0.007812-0.007813 0.011718-0.015626 0.019531-0.023438 0.10938-0.10938 0.20703-0.23438 0.30078-0.36328 0.027344-0.039063 0.054688-0.082031 0.082032-0.125 0.023437-0.035157 0.050781-0.070313 0.074218-0.10938l7.3438-12.719s0-0.003906 0.003906-0.003906l4.7734-8.2695 4.7734 8.2695 7.3477 12.723s0 0.003906 0.003906 0.003906l7.3438 12.719 4.7773 8.2734h-9.5508c-1.6406 0-2.9688 1.3281-2.9688 2.9688 0 1.6406 1.3281 2.9688 2.9688 2.9688h12.977l12.977 22.477-5.6328 9.7539h-11.266l-6.4883-11.238c-0.015625-0.03125-0.039063-0.050781-0.058594-0.082031-0.054687-0.089844-0.11719-0.17188-0.18359-0.25391-0.058593-0.074219-0.11328-0.14844-0.17578-0.21484s-0.13281-0.12891-0.20312-0.1875c-0.074219-0.066406-0.14844-0.13281-0.23047-0.1875-0.074218-0.054688-0.15234-0.097656-0.23438-0.14062-0.085937-0.050781-0.16797-0.10156-0.25781-0.14062-0.082031-0.039063-0.17188-0.066406-0.25781-0.097656-0.09375-0.03125-0.1875-0.066407-0.28516-0.089844-0.085938-0.019532-0.17188-0.03125-0.25781-0.042969-0.10938-0.015625-0.21875-0.03125-0.32813-0.03125-0.03125 0-0.0625-0.007813-0.09375-0.007813h-9.5508l3.918-6.7891h11.266l6.4883 11.238c0.55078 0.95312 1.5469 1.4844 2.5742 1.4844 0.50391 0 1.0156-0.12891 1.4805-0.39844 1.418-0.82031 1.9062-2.6328 1.0859-4.0547l-7.3477-12.723c-0.015625-0.027344-0.039063-0.050781-0.054687-0.078125-0.058594-0.089844-0.12109-0.17578-0.1875-0.26172-0.054688-0.070312-0.10938-0.14453-0.17188-0.21094-0.066406-0.070313-0.13672-0.13281-0.21094-0.19531s-0.14453-0.12891-0.22266-0.18359c-0.078125-0.054688-0.16016-0.10156-0.24219-0.14844s-0.16406-0.097656-0.25-0.13672c-0.085937-0.039062-0.17578-0.070312-0.26562-0.10156-0.09375-0.03125-0.18359-0.0625-0.27734-0.085938-0.085937-0.019531-0.17578-0.03125-0.26562-0.042969-0.10938-0.015624-0.21484-0.027343-0.32422-0.03125-0.03125 0-0.0625-0.007812-0.09375-0.007812h-14.691c-0.03125 0-0.0625 0.007812-0.09375 0.007812-0.11328 0.003907-0.22266 0.015626-0.33203 0.035157-0.085937 0.011719-0.17188 0.023437-0.25391 0.042969-0.097656 0.023437-0.19141 0.054687-0.28906 0.089843-0.085937 0.03125-0.17187 0.058594-0.25781 0.09375-0.089844 0.039063-0.17578 0.09375-0.26172 0.14062-0.078125 0.046875-0.15625 0.089844-0.23047 0.14062-0.082031 0.058594-0.15625 0.125-0.23047 0.19141-0.070313 0.0625-0.14062 0.12109-0.20312 0.1875-0.0625 0.066406-0.12109 0.14062-0.17969 0.21484-0.066406 0.082031-0.12891 0.16406-0.18359 0.25391-0.019532 0.027343-0.042969 0.050781-0.058594 0.082031l-7.3477 12.723c-0.027344 0.050781-0.042969 0.10156-0.070313 0.15625-0.046875 0.09375-0.09375 0.19141-0.12891 0.28906-0.035157 0.089843-0.0625 0.18359-0.085938 0.27734-0.023437 0.089844-0.046875 0.17969-0.0625 0.27344-0.019531 0.10938-0.027343 0.21484-0.03125 0.32422-0.003906 0.054687-0.015625 0.10937-0.015625 0.16406 0 0.03125 0.007813 0.0625 0.011719 0.097656 0.003906 0.10938 0.015625 0.21484 0.03125 0.32031 0.011719 0.089843 0.023437 0.17969 0.042969 0.26953 0.023437 0.09375 0.054687 0.18359 0.085937 0.27344 0.03125 0.089843 0.0625 0.18359 0.10156 0.26953 0.039062 0.085937 0.085937 0.16797 0.13672 0.25 0.046876 0.082031 0.09375 0.16406 0.14844 0.24219s0.12109 0.14844 0.18359 0.22266c0.0625 0.074219 0.125 0.14453 0.19531 0.21094 0.066406 0.0625 0.13672 0.11719 0.21094 0.17188 0.085937 0.066406 0.16797 0.12891 0.26172 0.1875 0.027344 0.015625 0.050782 0.039063 0.078126 0.054687 0.089843 0.050782 0.18359 0.09375 0.27734 0.13672 0.023438 0.011719 0.042969 0.023438 0.0625 0.03125 0.16016 0.066407 0.32812 0.11719 0.49219 0.15234 0.035156 0.007813 0.074219 0.015625 0.10938 0.023437 0.17969 0.03125 0.35547 0.054688 0.53516 0.054688h0.011719 12.969l6.4883 11.238c0.023438 0.039063 0.050781 0.074219 0.074219 0.10938 0.027343 0.039063 0.050781 0.078125 0.078125 0.11719 0.09375 0.13281 0.19531 0.25781 0.30469 0.36719 0.007813 0.007813 0.011719 0.011719 0.015625 0.019531 0.12109 0.12109 0.25781 0.23047 0.39844 0.32813 0.03125 0.023437 0.066406 0.042968 0.097656 0.0625 0.125 0.082031 0.25781 0.15234 0.39453 0.21484 0.023438 0.011719 0.042969 0.023438 0.070313 0.03125 0.15625 0.066407 0.32031 0.11328 0.48438 0.14844 0.039062 0.007812 0.082031 0.015625 0.125 0.023437 0.17578 0.03125 0.35156 0.054688 0.53516 0.054688h0.011719 9.5352l-4.7773 8.2734v0.003907l-14.688 25.438v0.003906l-6.4883 11.238h-27.668c-0.03125 0-0.058594 0.007813-0.089844 0.007813-0.11328 0.003906-0.22266 0.015624-0.33594 0.035156-0.085937 0.011718-0.17188 0.023437-0.25391 0.042968-0.097657 0.023438-0.19141 0.054688-0.28906 0.089844-0.085937 0.03125-0.17578 0.058594-0.25781 0.097656-0.089844 0.039063-0.17188 0.089844-0.25781 0.14063-0.078125 0.046874-0.16016 0.089843-0.23438 0.14453-0.078125 0.058593-0.15234 0.12109-0.22656 0.1875-0.070313 0.0625-0.14062 0.12109-0.20703 0.19141-0.0625 0.066406-0.12109 0.14062-0.17578 0.21484-0.066406 0.082031-0.12891 0.16406-0.18359 0.25391-0.019532 0.027344-0.042969 0.050781-0.058594 0.082031l-7.3477 12.723c-0.015626 0.027344-0.023438 0.0625-0.039063 0.089844-0.050781 0.09375-0.089844 0.19141-0.12891 0.28906-0.035157 0.085937-0.070313 0.17188-0.097657 0.26172-0.027343 0.089843-0.042968 0.18359-0.0625 0.27734-0.019531 0.09375-0.039062 0.19141-0.046874 0.28516-0.007813 0.09375-0.007813 0.1875-0.007813 0.28516 0 0.09375 0 0.1875 0.007813 0.28125 0.007812 0.097656 0.03125 0.19141 0.046874 0.28516 0.019532 0.09375 0.035157 0.1875 0.0625 0.27734 0.027344 0.089844 0.0625 0.17188 0.097657 0.26172 0.039062 0.097657 0.078125 0.19531 0.12891 0.28516 0.015625 0.03125 0.023437 0.0625 0.039063 0.089843l6.4883 11.238-5.6328 9.7539h-12.977c-0.054688 0-0.10547 0.011719-0.15625 0.015625-0.11328 0.003906-0.22266 0.015625-0.33203 0.035156-0.089843 0.015625-0.17969 0.039063-0.26953 0.0625-0.09375 0.023438-0.1875 0.050781-0.28125 0.085938-0.10156 0.039062-0.19531 0.082031-0.29297 0.13281-0.050781 0.023438-0.10156 0.039063-0.15234 0.070313-0.027344 0.015625-0.050781 0.039062-0.078125 0.054687-0.089844 0.058594-0.17578 0.12109-0.26172 0.1875-0.070313 0.054688-0.14453 0.11328-0.21094 0.17188-0.070313 0.066406-0.13281 0.13672-0.19531 0.21094-0.0625 0.074218-0.12891 0.14453-0.18359 0.22266-0.054687 0.078125-0.10156 0.16016-0.14844 0.24219-0.046875 0.082031-0.097656 0.16406-0.13672 0.25-0.039063 0.085937-0.070313 0.17969-0.10156 0.26953-0.03125 0.089843-0.0625 0.17969-0.085937 0.27344-0.019531 0.085938-0.03125 0.17578-0.042969 0.26953-0.015625 0.10547-0.027344 0.21094-0.03125 0.32031 0 0.03125-0.011718 0.0625-0.011718 0.097656 0 0.054688 0.011718 0.10938 0.015624 0.16406 0.007813 0.10938 0.015626 0.21484 0.03125 0.32422 0.015626 0.09375 0.039063 0.18359 0.0625 0.27734 0.023438 0.09375 0.050782 0.18359 0.085938 0.27734 0.039062 0.10156 0.082031 0.19531 0.12891 0.28906 0.027344 0.050781 0.039063 0.10547 0.070313 0.15625l7.3477 12.723c0.55078 0.95312 1.5469 1.4844 2.5742 1.4844 0.50391 0 1.0156-0.12891 1.4805-0.39844 1.418-0.82031 1.9062-2.6328 1.0859-4.0547l-4.7773-8.2734h9.5352 0.011719c0.17969 0 0.35547-0.023437 0.53125-0.054687 0.042969-0.007813 0.082031-0.015625 0.125-0.023438 0.16406-0.039062 0.32812-0.085937 0.48438-0.14844 0.023438-0.011719 0.046875-0.023438 0.070313-0.035156 0.13672-0.058594 0.26562-0.13281 0.39062-0.21094 0.035156-0.023438 0.066406-0.042969 0.097656-0.066406 0.14062-0.097656 0.27344-0.20312 0.39453-0.32812 0.007813-0.007813 0.011719-0.015625 0.019531-0.019531 0.10938-0.11328 0.21094-0.23828 0.30469-0.36719 0.027344-0.039062 0.054688-0.078125 0.078125-0.11719 0.023437-0.039062 0.050781-0.070312 0.074219-0.10937l7.3477-12.723c0.53125-0.91797 0.53125-2.0508 0-2.9688l-6.4883-11.238 5.6328-9.7539h22.527l-9.5547 16.547-4.7773-8.2734c-0.82031-1.418-2.6328-1.9062-4.0547-1.0859-1.418 0.82031-1.9062 2.6328-1.0859 4.0547l6.4883 11.238-6.4883 11.238v0.003906l-7.3477 12.723v0.003906l-6.4883 11.234h-11.266l-6.4883-11.238c-0.82031-1.418-2.6328-1.9062-4.0547-1.0859-1.418 0.82031-1.9062 2.6328-1.0859 4.0547l4.7773 8.2695h-19.102l4.7734-8.2656s0-0.003906 0.003906-0.003906l7.3477-12.723c0.027344-0.050781 0.042969-0.10156 0.070313-0.15234 0.046875-0.09375 0.09375-0.19141 0.12891-0.28906 0.035156-0.089844 0.0625-0.18359 0.085938-0.27734 0.023437-0.089844 0.046874-0.17969 0.0625-0.27734 0.019531-0.10938 0.027343-0.21484 0.03125-0.32422 0.003906-0.054688 0.015624-0.10938 0.015624-0.16406 0-0.03125-0.007812-0.0625-0.011718-0.097656-0.003906-0.10938-0.015625-0.21484-0.03125-0.32031-0.011719-0.089844-0.023438-0.17969-0.042969-0.26953-0.023437-0.09375-0.054687-0.18359-0.085937-0.27344-0.03125-0.089844-0.0625-0.18359-0.10156-0.26953-0.039063-0.085937-0.085937-0.16797-0.13672-0.25-0.046875-0.082031-0.09375-0.16406-0.14844-0.24219-0.054688-0.078125-0.12109-0.14844-0.18359-0.22266-0.0625-0.074218-0.125-0.14453-0.19531-0.21094-0.066406-0.0625-0.13672-0.11719-0.21094-0.17188-0.085937-0.066406-0.16797-0.12891-0.26172-0.1875-0.027344-0.015625-0.050781-0.039062-0.078125-0.054688-0.050781-0.027343-0.10156-0.042968-0.15234-0.070312-0.09375-0.046875-0.19141-0.09375-0.29297-0.13281-0.09375-0.035157-0.1875-0.0625-0.28125-0.085938-0.085938-0.023438-0.17578-0.046875-0.26562-0.058594-0.11328-0.019531-0.22656-0.027344-0.33984-0.035156-0.050781-0.003906-0.10156-0.015625-0.15234-0.015625h-12.977l-5.6328-9.7539 6.4883-11.238c0.015626-0.03125 0.023438-0.0625 0.039063-0.089844 0.050781-0.09375 0.089844-0.19141 0.12891-0.28516 0.035157-0.085938 0.070313-0.17188 0.097657-0.26172 0.027343-0.089844 0.042968-0.18359 0.0625-0.27734 0.019531-0.097656 0.039062-0.19141 0.046874-0.28516 0.007813-0.09375 0.007813-0.1875 0.007813-0.28125s0-0.1875-0.007813-0.28516c-0.007812-0.097656-0.03125-0.19141-0.046874-0.28516-0.019532-0.09375-0.035157-0.1875-0.0625-0.27734-0.027344-0.089843-0.0625-0.17187-0.097657-0.26172-0.039062-0.097656-0.078125-0.19531-0.12891-0.28906-0.015625-0.03125-0.023437-0.0625-0.039063-0.089843l-4.7773-8.2734h7.8359l5.6328 9.7539-6.4883 11.238c-0.82031 1.418-0.33203 3.2344 1.0859 4.0547 0.46875 0.26953 0.97656 0.39844 1.4805 0.39844 1.0273 0 2.0234-0.53125 2.5742-1.4844l4.7734-8.2695 4.7734 8.2695c0.023437 0.039062 0.050781 0.074218 0.074218 0.10937 0.027344 0.039063 0.050782 0.078126 0.078125 0.11719 0.09375 0.13281 0.19531 0.25781 0.30469 0.36719 0.007812 0.007812 0.011719 0.011718 0.015625 0.019531 0.12109 0.12109 0.25781 0.23047 0.39844 0.32812 0.03125 0.023437 0.066407 0.042968 0.097657 0.0625 0.125 0.082031 0.25781 0.15234 0.39453 0.21484 0.023437 0.011718 0.042969 0.023437 0.070312 0.03125 0.15625 0.066406 0.32031 0.11328 0.48438 0.14844 0.039063 0.007813 0.082032 0.015625 0.125 0.023437 0.17578 0.03125 0.35156 0.054688 0.53516 0.054688h0.011719 14.668 0.011719c0.17969 0 0.35547-0.023438 0.53516-0.054688 0.039063-0.007812 0.074219-0.011718 0.10938-0.023437 0.16797-0.039063 0.33203-0.085937 0.49219-0.15234 0.023437-0.007812 0.042968-0.023437 0.066406-0.03125 0.09375-0.042969 0.1875-0.085937 0.27734-0.13672 0.027343-0.015624 0.050781-0.039062 0.078124-0.054687 0.089844-0.058594 0.17578-0.12109 0.26172-0.1875 0.070313-0.054687 0.14453-0.10938 0.21094-0.17188 0.070312-0.066406 0.13281-0.13672 0.19531-0.21094 0.0625-0.074218 0.12891-0.14453 0.18359-0.22266s0.10156-0.16016 0.14844-0.24219c0.046876-0.082031 0.097657-0.16406 0.13672-0.25 0.039063-0.085938 0.070313-0.17969 0.10156-0.26953 0.03125-0.089844 0.0625-0.17969 0.085937-0.27344 0.019531-0.085938 0.03125-0.17578 0.046875-0.26953 0.015625-0.10547 0.027344-0.21094 0.03125-0.32031 0-0.03125 0.011719-0.0625 0.011719-0.097656 0-0.054688-0.011719-0.10938-0.015625-0.16406-0.007812-0.10938-0.015625-0.21484-0.03125-0.32422-0.015625-0.09375-0.039062-0.18359-0.0625-0.27344-0.023438-0.09375-0.050781-0.18359-0.085938-0.27734-0.039062-0.10156-0.082031-0.19531-0.12891-0.28906-0.023437-0.050781-0.039062-0.10547-0.070312-0.15234l-6.4883-11.238 6.4883-11.238 7.3477-12.723c0.53125-0.91797 0.53125-2.0508 0-2.9688l-4.7734-8.2695h7.8359l6.4883 11.238c0.023438 0.039063 0.050781 0.070313 0.074219 0.10938 0.027344 0.042968 0.054688 0.082031 0.082031 0.12109 0.09375 0.12891 0.19141 0.25391 0.30078 0.36328 0.007813 0.007813 0.011719 0.015626 0.019532 0.023438 0.12109 0.12109 0.25781 0.23047 0.39453 0.32812 0.03125 0.023437 0.066406 0.042969 0.097656 0.066406 0.125 0.082031 0.25781 0.15234 0.39453 0.21484 0.023438 0.011719 0.046876 0.023437 0.070313 0.035156 0.15625 0.066407 0.32031 0.11328 0.48438 0.14844 0.039062 0.007812 0.082031 0.015625 0.125 0.023437 0.17578 0.03125 0.35156 0.054688 0.53516 0.054688h0.011719 14.664 0.011718c0.17969 0 0.35547-0.023438 0.53125-0.054688 0.042969-0.007812 0.082032-0.015625 0.125-0.023437 0.16406-0.039063 0.32812-0.085938 0.48438-0.14844 0.023438-0.011719 0.046875-0.023437 0.070313-0.035156 0.13672-0.058594 0.26562-0.13281 0.39062-0.21094 0.035156-0.019532 0.066406-0.042969 0.10156-0.066407 0.14062-0.097656 0.27344-0.20312 0.39453-0.32422 0.007813-0.007812 0.011719-0.015624 0.019532-0.023437 0.10938-0.10938 0.20703-0.23438 0.30078-0.36328 0.027344-0.039063 0.054687-0.082032 0.082031-0.125 0.023438-0.035156 0.050782-0.070313 0.074219-0.10938l7.3477-12.723c0.82031-1.418 0.33203-3.2344-1.0859-4.0547-1.418-0.82031-3.2344-0.33594-4.0547 1.0859l-6.4883 11.238h-11.266l-6.4883-11.238c-0.015625-0.027343-0.039063-0.050781-0.054688-0.078124-0.058593-0.089844-0.12109-0.17578-0.1875-0.26172-0.054687-0.070313-0.10938-0.14453-0.17188-0.21094-0.066406-0.070312-0.13672-0.13281-0.21094-0.19531s-0.14453-0.12891-0.22266-0.18359c-0.078124-0.054687-0.16016-0.10156-0.24219-0.14844-0.082031-0.046876-0.16406-0.097657-0.25-0.13672-0.085937-0.039063-0.17578-0.070313-0.26562-0.10156-0.09375-0.03125-0.18359-0.0625-0.27734-0.085937-0.085937-0.019531-0.17578-0.03125-0.26562-0.042969-0.10938-0.015625-0.21484-0.027344-0.32422-0.03125-0.03125 0-0.0625-0.007812-0.09375-0.007812l-14.707-0.007813c-0.054687 0-0.10547 0.011719-0.16016 0.015625-0.10938 0.003906-0.21875 0.015625-0.32812 0.03125-0.09375 0.015625-0.18359 0.039062-0.27344 0.0625-0.09375 0.023438-0.18359 0.050781-0.27734 0.085938-0.10156 0.039062-0.19922 0.085937-0.29297 0.13281-0.050781 0.023438-0.10156 0.039062-0.15234 0.066406-0.027344 0.015625-0.050781 0.039063-0.078125 0.054688-0.089843 0.058594-0.17578 0.12109-0.26172 0.1875-0.070312 0.054687-0.14453 0.11328-0.21094 0.17188-0.070313 0.066406-0.13281 0.13672-0.19531 0.21094-0.0625 0.074219-0.12891 0.14453-0.18359 0.22266-0.054688 0.078126-0.10156 0.16016-0.14844 0.24219s-0.097656 0.16406-0.13672 0.25c-0.039062 0.085938-0.070312 0.17969-0.10156 0.26953-0.03125 0.089844-0.0625 0.17969-0.085938 0.27344-0.019531 0.089843-0.03125 0.17969-0.046874 0.26953-0.015626 0.10547-0.027344 0.21094-0.03125 0.31641 0 0.03125-0.011719 0.0625-0.011719 0.097656 0 0.058594 0.011719 0.10938 0.015625 0.16406 0.007812 0.10938 0.015625 0.21484 0.03125 0.32031 0.015625 0.09375 0.039062 0.1875 0.0625 0.27734 0.023437 0.09375 0.050781 0.18359 0.085937 0.27344 0.039063 0.10156 0.085938 0.19922 0.13281 0.29688 0.023437 0.050781 0.039062 0.10156 0.066406 0.15234l6.4883 11.238-6.4883 11.238-7.3477 12.723c-0.015625 0.027344-0.023438 0.0625-0.039063 0.089844-0.050781 0.09375-0.089843 0.19141-0.12891 0.28906-0.035156 0.085938-0.070313 0.17188-0.097656 0.26172-0.027344 0.089844-0.042969 0.18359-0.0625 0.27734s-0.039063 0.19141-0.046875 0.28516c-0.007813 0.09375-0.007813 0.1875-0.007813 0.28516 0 0.09375 0 0.1875 0.007813 0.28125 0.007812 0.097656 0.03125 0.19141 0.046875 0.28516 0.019531 0.09375 0.035156 0.1875 0.0625 0.27734 0.027343 0.089843 0.0625 0.17187 0.097656 0.26172 0.039063 0.097656 0.078125 0.19531 0.12891 0.28516 0.015625 0.03125 0.023438 0.0625 0.039063 0.089844l4.7773 8.2734h-7.8359l-12.977-22.477 6.4883-11.238c0.82031-1.418 0.33203-3.2344-1.0859-4.0547-1.418-0.82031-3.2344-0.33594-4.0547 1.0859l-6.4883 11.238h-11.266l-3.918-6.7891h9.5508c1.6406 0 2.9688-1.3281 2.9688-2.9688s-1.3281-2.9688-2.9688-2.9688h-14.691c-0.054688 0-0.10156 0.011719-0.15625 0.015625-0.11328 0.003906-0.22266 0.015625-0.33594 0.035156-0.089844 0.015625-0.17969 0.039062-0.26953 0.0625-0.09375 0.023438-0.1875 0.050781-0.28125 0.085938-0.10156 0.039062-0.19531 0.082031-0.29297 0.13281-0.050781 0.023438-0.10156 0.039062-0.15234 0.070312-0.027343 0.015626-0.050781 0.039063-0.078124 0.054688-0.089844 0.058594-0.17578 0.12109-0.26172 0.1875-0.070313 0.054688-0.14453 0.11328-0.21094 0.17188-0.070312 0.066406-0.13281 0.13672-0.19531 0.21094-0.0625 0.074219-0.12891 0.14453-0.18359 0.22266s-0.10156 0.16016-0.14844 0.24219c-0.046876 0.082032-0.097657 0.16406-0.13672 0.25-0.039063 0.085938-0.070313 0.17969-0.10156 0.26953-0.03125 0.089843-0.0625 0.17969-0.085937 0.27344-0.019531 0.089844-0.03125 0.17969-0.046875 0.26953-0.015625 0.10547-0.027344 0.21094-0.03125 0.31641 0 0.03125-0.011719 0.0625-0.011719 0.097657 0 0.058593 0.011719 0.10938 0.015625 0.16406 0.007812 0.10547 0.015625 0.21484 0.03125 0.32031 0.015625 0.09375 0.039062 0.1875 0.0625 0.27734 0.023438 0.09375 0.050781 0.18359 0.085938 0.27344 0.039062 0.10156 0.085937 0.19922 0.13281 0.29688 0.023438 0.050781 0.039062 0.10156 0.066406 0.15234l7.3438 12.719v0.003906l6.4883 11.238-5.6328 9.7539h-22.527l4.7773-8.2734c0.82031-1.418 0.33203-3.2344-1.0859-4.0547-1.418-0.82031-3.2344-0.33594-4.0547 1.0859l-14.695 25.445v0.003907l-6.4883 11.238h-7.8359l4.7773-8.2734 7.3477-12.723v-0.003906l7.3438-12.719c0.82031-1.418 0.33203-3.2344-1.0859-4.0547-1.418-0.82031-3.2344-0.33594-4.0547 1.0859l-7.3438 12.723v0.003906l-7.3477 12.723-7.3242 12.734c-0.027344 0.050781-0.042969 0.10156-0.070313 0.15625-0.046875 0.09375-0.09375 0.19141-0.12891 0.28906-0.035156 0.089844-0.0625 0.18359-0.085938 0.27734-0.023437 0.089844-0.046874 0.17969-0.0625 0.27344-0.019531 0.10937-0.027343 0.21484-0.03125 0.32422-0.003906 0.054688-0.015624 0.10938-0.015624 0.16406 0 0.03125 0.007812 0.0625 0.011718 0.097656 0.003906 0.10938 0.015625 0.21484 0.03125 0.32031 0.011719 0.089843 0.023438 0.17969 0.046875 0.26953 0.023438 0.09375 0.054688 0.18359 0.085938 0.27344s0.0625 0.18359 0.10156 0.26953c0.039063 0.085937 0.085938 0.16797 0.13672 0.25 0.046875 0.082031 0.09375 0.16406 0.14844 0.24219 0.054687 0.078125 0.12109 0.14844 0.18359 0.22266s0.125 0.14453 0.19531 0.21094c0.066406 0.0625 0.13672 0.11719 0.21094 0.17188 0.085938 0.066406 0.16797 0.12891 0.26172 0.1875 0.027344 0.015625 0.050781 0.039062 0.078125 0.054687 0.089844 0.050781 0.18359 0.09375 0.27734 0.13672 0.023437 0.011719 0.042969 0.023438 0.0625 0.03125 0.16016 0.066406 0.32812 0.11719 0.49219 0.15234 0.035156 0.007812 0.074219 0.015625 0.10938 0.023437 0.17578 0.03125 0.35547 0.054688 0.53516 0.054688h0.011718 14.668 0.011719c0.17969 0 0.35938-0.023438 0.53125-0.054688 0.042968-0.007812 0.082031-0.015625 0.125-0.023437 0.16406-0.039063 0.32812-0.085938 0.48438-0.14844 0.023437-0.011718 0.046875-0.023437 0.070312-0.035156 0.13672-0.058594 0.26562-0.13281 0.39062-0.21094 0.035156-0.019531 0.066406-0.042968 0.10156-0.066406 0.14062-0.097656 0.27344-0.20312 0.39453-0.32422 0.007812-0.007813 0.011719-0.015626 0.019531-0.023438 0.10938-0.10938 0.20703-0.23438 0.30078-0.36328 0.027344-0.039063 0.054688-0.082031 0.082032-0.125 0.023437-0.035157 0.050781-0.070313 0.074218-0.10938l7.3438-12.719s0-0.003906 0.003907-0.003906l6.4883-11.238h11.266l6.4883 11.238c0.55078 0.95312 1.5469 1.4844 2.5742 1.4844 0.50391 0 1.0156-0.12891 1.4805-0.39844 1.418-0.82031 1.9062-2.6328 1.0859-4.0547l-4.7773-8.2734h7.8359l5.6328 9.7539-5.6328 9.7539h-12.977c-1.6406 0-2.9688 1.3281-2.9688 2.9688 0 1.6406 1.3281 2.9688 2.9688 2.9688h14.68 0.011719c0.17969 0 0.35938-0.023437 0.53125-0.054687 0.042969-0.007813 0.082031-0.015625 0.125-0.023437 0.16406-0.039063 0.32812-0.085938 0.48438-0.14844 0.023437-0.011719 0.046875-0.023438 0.070312-0.035156 0.13672-0.058594 0.26562-0.13281 0.39062-0.21094 0.035157-0.023437 0.066407-0.042968 0.097657-0.066406 0.14062-0.097656 0.27344-0.20312 0.39453-0.32812 0.007812-0.007813 0.011719-0.015625 0.019531-0.019531 0.10938-0.11328 0.21094-0.23828 0.30469-0.36719 0.027343-0.039062 0.054687-0.078125 0.078124-0.11719 0.023438-0.039063 0.050782-0.070313 0.074219-0.10938l6.4883-11.238h7.8359l-4.7773 8.2734v0.003906l-6.4883 11.234h-25.957l-5.6328-9.7539 6.4883-11.238c0.82031-1.418 0.33203-3.2344-1.0859-4.0547-1.418-0.82031-3.2344-0.33594-4.0547 1.0859l-7.3477 12.723c-0.015625 0.03125-0.023437 0.0625-0.039062 0.089844-0.050781 0.09375-0.089844 0.1875-0.12891 0.28516-0.035156 0.085938-0.070312 0.17188-0.097656 0.26172-0.027344 0.089843-0.042968 0.18359-0.0625 0.27344-0.019531 0.097656-0.039062 0.19141-0.046875 0.28906-0.007812 0.09375-0.007812 0.1875-0.007812 0.28125 0 0.097656 0 0.19141 0.007812 0.28516 0.007813 0.09375 0.027344 0.1875 0.046875 0.28125 0.019532 0.09375 0.035156 0.1875 0.0625 0.28125 0.027344 0.085937 0.0625 0.17188 0.09375 0.25391 0.039063 0.10156 0.082032 0.19922 0.13281 0.29297 0.015625 0.027344 0.023437 0.058594 0.039062 0.089844l4.7734 8.2695h-51.91l-6.4883-11.238c-0.82031-1.418-2.6328-1.9062-4.0547-1.0859-1.418 0.82031-1.9062 2.6328-1.0859 4.0547l4.7734 8.2695h-7.8359l-6.4883-11.234v-0.003906l-4.7773-8.2734h22.527l6.4883 11.238c0.55078 0.95312 1.5469 1.4844 2.5742 1.4844 0.50391 0 1.0156-0.12891 1.4805-0.39844 1.418-0.82031 1.9062-2.6328 1.0859-4.0547l-4.7773-8.2734h9.5352 0.011718c0.17969 0 0.35547-0.023438 0.53125-0.054688 0.042969-0.007812 0.082032-0.015624 0.125-0.023437 0.16406-0.039063 0.32813-0.085937 0.48438-0.14844 0.023437-0.011719 0.046874-0.023438 0.070312-0.035157 0.13672-0.058593 0.26562-0.13281 0.39062-0.21094 0.035156-0.023438 0.066406-0.042969 0.097656-0.066406 0.14062-0.097657 0.27344-0.20313 0.39453-0.32813 0.007813-0.007812 0.011719-0.015624 0.019532-0.019531 0.10938-0.11328 0.21094-0.23828 0.30469-0.36719 0.027344-0.039063 0.054688-0.078125 0.078125-0.11719 0.023438-0.039062 0.050782-0.070312 0.074219-0.10938l7.3477-12.723c0.82031-1.418 0.33203-3.2344-1.0859-4.0547-1.418-0.82031-3.2344-0.33594-4.0547 1.0859l-6.4883 11.238-40.641 0.003906-5.6328-9.7539 6.4883-11.238c0.82031-1.418 0.33203-3.2344-1.0859-4.0547-1.418-0.82031-3.2344-0.33594-4.0547 1.0859l-4.7773 8.2734-9.5547-16.547h9.5508c1.6406 0 2.9688-1.3281 2.9688-2.9688 0-1.6406-1.3281-2.9688-2.9688-2.9688h-12.977l-6.4883-11.238v-0.003906l-4.7734-8.2695h9.5508c1.6406 0 2.9688-1.3281 2.9688-2.9688s-1.3281-2.9688-2.9688-2.9688l-12.977 0.003906-6.4883-11.238v-0.003906l-4.7773-8.2734h9.5352 0.011719c0.17969 0 0.35547-0.023438 0.53125-0.054688 0.042969-0.007812 0.082031-0.015624 0.125-0.023437 0.16406-0.039063 0.32812-0.085937 0.48438-0.14844 0.023438-0.011719 0.046875-0.023438 0.070313-0.035157 0.13672-0.058593 0.26562-0.13281 0.39062-0.21094 0.035156-0.023438 0.066406-0.042969 0.097656-0.066406 0.14062-0.097657 0.27344-0.20313 0.39453-0.32813 0.007813-0.007812 0.011719-0.015624 0.019531-0.019531 0.10938-0.11328 0.21094-0.23828 0.30469-0.36719 0.027344-0.039063 0.054688-0.078125 0.078125-0.11719 0.023437-0.039062 0.050781-0.070312 0.074219-0.10938l7.3477-12.723 4.7734-8.2695 3.918 6.7891-6.4883 11.238-7.3477 12.723c-0.82031 1.418-0.33203 3.2344 1.0859 4.0547 0.46875 0.26953 0.97656 0.39844 1.4805 0.39844 1.0273 0 2.0234-0.53125 2.5742-1.4844l6.4883-11.238h11.266l5.6328 9.7539-3.918 6.7891-4.7773-8.2734c-0.82031-1.418-2.6328-1.9062-4.0547-1.0859-1.418 0.82031-1.9062 2.6328-1.0859 4.0547l6.4883 11.238-6.4883 11.238c-0.027344 0.046875-0.042969 0.10156-0.066406 0.15234-0.050781 0.097656-0.09375 0.19141-0.13281 0.29688-0.035156 0.089844-0.058594 0.17969-0.085937 0.27344-0.023438 0.09375-0.046875 0.18359-0.0625 0.27734-0.019531 0.10547-0.027344 0.21484-0.03125 0.32031-0.003907 0.054687-0.015625 0.10938-0.015625 0.16406 0 0.03125 0.007812 0.0625 0.011718 0.097657 0.003907 0.10547 0.015626 0.21094 0.03125 0.31641 0.011719 0.089844 0.023438 0.17969 0.046876 0.26953 0.023437 0.09375 0.054687 0.18359 0.085937 0.27344 0.03125 0.089844 0.0625 0.18359 0.10156 0.26953 0.039062 0.085937 0.085937 0.16797 0.13672 0.25 0.046875 0.082031 0.09375 0.16406 0.14844 0.24219 0.054687 0.078125 0.12109 0.14844 0.18359 0.22266 0.0625 0.074218 0.125 0.14453 0.19531 0.21094 0.066406 0.0625 0.13672 0.11719 0.21094 0.17188 0.085937 0.066406 0.16797 0.12891 0.26172 0.1875 0.027344 0.015625 0.050782 0.039062 0.078125 0.054688 0.089844 0.050781 0.18359 0.09375 0.27734 0.13672 0.023437 0.011719 0.042969 0.023438 0.0625 0.03125 0.16016 0.066406 0.32812 0.11719 0.49219 0.15234 0.035157 0.007812 0.074219 0.015625 0.10938 0.023438 0.17578 0.03125 0.35547 0.054687 0.53516 0.054687h0.011718 12.969l6.4883 11.238 7.3477 12.723 4.7773 8.2734h-9.5508c-1.6406 0-2.9688 1.3281-2.9688 2.9688s1.3281 2.9688 2.9688 2.9688h14.684 0.011719c0.17969 0 0.35547-0.023438 0.53516-0.054688 0.039063-0.007812 0.074219-0.011718 0.10938-0.023437 0.16797-0.039063 0.33203-0.085937 0.49219-0.15234 0.023437-0.007812 0.042968-0.023437 0.066406-0.03125 0.09375-0.042969 0.1875-0.085937 0.27734-0.13672 0.027344-0.015624 0.050781-0.039062 0.078125-0.054687 0.089843-0.058594 0.17578-0.12109 0.26172-0.1875 0.070312-0.054687 0.14453-0.10938 0.21094-0.17188 0.070313-0.066406 0.13281-0.13672 0.19531-0.21094 0.0625-0.074218 0.12891-0.14453 0.18359-0.22266 0.054688-0.078125 0.10156-0.16016 0.14844-0.24219s0.097656-0.16406 0.13672-0.25c0.039062-0.085938 0.070312-0.17969 0.10156-0.26953 0.03125-0.089844 0.0625-0.17969 0.085938-0.27344 0.019531-0.085938 0.03125-0.17578 0.046874-0.26953 0.015626-0.10547 0.027344-0.21094 0.03125-0.32031 0-0.03125 0.011719-0.0625 0.011719-0.097656 0-0.054688-0.011719-0.10938-0.015625-0.16406-0.007812-0.10938-0.015625-0.21484-0.03125-0.32422-0.015625-0.09375-0.039062-0.18359-0.0625-0.27344-0.023437-0.09375-0.050781-0.18359-0.085937-0.27734-0.039063-0.10156-0.082031-0.19531-0.12891-0.28906-0.023437-0.050781-0.039062-0.10547-0.070312-0.15234l-7.3477-12.723-4.7773-8.2734h7.8359l6.4883 11.238s0 0.003906 0.003906 0.003906l7.3438 12.719c0.55078 0.95312 1.5469 1.4844 2.5742 1.4844 0.50391 0 1.0156-0.12891 1.4805-0.39844 1.418-0.82031 1.9062-2.6328 1.0859-4.0547l-7.3438-12.719v-0.003906l-4.7773-8.2734h7.8359l6.4883 11.238c0.023437 0.039063 0.050781 0.074219 0.074219 0.10938 0.027344 0.039062 0.050781 0.078124 0.078125 0.11719 0.09375 0.13281 0.19531 0.25781 0.30469 0.36719 0.007813 0.007813 0.011719 0.011719 0.015625 0.019532 0.12109 0.12109 0.25781 0.23047 0.39844 0.32812 0.03125 0.023437 0.066406 0.042969 0.097656 0.0625 0.125 0.082031 0.25781 0.15234 0.39453 0.21484 0.023438 0.011719 0.042969 0.023438 0.070313 0.03125 0.15625 0.066407 0.32031 0.11328 0.48438 0.14844 0.039062 0.007812 0.082031 0.015625 0.125 0.023438 0.17578 0.03125 0.35156 0.054687 0.53516 0.054687h0.011719 14.676c1.6406 0 2.9688-1.3281 2.9688-2.9688s-1.3281-2.9688-2.9688-2.9688h-12.977l-6.4883-11.238c-0.015625-0.027344-0.039062-0.050782-0.058594-0.082032-0.054687-0.089843-0.11719-0.17187-0.18359-0.25391-0.058594-0.074218-0.11328-0.14844-0.17578-0.21484-0.0625-0.066406-0.13672-0.12891-0.20703-0.19141-0.074218-0.066406-0.14844-0.13281-0.23047-0.1875-0.074219-0.050781-0.15234-0.097656-0.23047-0.14062-0.085938-0.050781-0.17188-0.10156-0.26172-0.14062-0.082031-0.039062-0.16797-0.066406-0.25391-0.09375-0.097656-0.035156-0.19141-0.066406-0.28906-0.089844-0.082031-0.019531-0.16797-0.03125-0.25391-0.042968-0.11328-0.015625-0.22266-0.03125-0.33594-0.035156-0.03125 0-0.058594-0.007813-0.089844-0.007813h-27.668l-6.4883-11.238c-0.015625-0.03125-0.039063-0.050782-0.058594-0.082032-0.054688-0.089843-0.11719-0.17187-0.18359-0.25391-0.058594-0.074218-0.11328-0.14844-0.17969-0.21484-0.0625-0.066406-0.13281-0.12891-0.20312-0.1875-0.074219-0.066406-0.14844-0.13281-0.23047-0.19141-0.074219-0.050781-0.15234-0.097656-0.23047-0.14062-0.085937-0.050781-0.17188-0.10156-0.26172-0.14062-0.082032-0.039062-0.16797-0.066406-0.25391-0.09375-0.097656-0.035156-0.19141-0.066406-0.28906-0.089844-0.082031-0.019531-0.16797-0.03125-0.25391-0.042968-0.11328-0.015625-0.22266-0.03125-0.33594-0.035156-0.03125 0-0.058594-0.007813-0.089844-0.007813h-9.5508l4.7734-8.2695 7.3477-12.723c0.015625-0.027344 0.023437-0.058594 0.039062-0.089844 0.050782-0.09375 0.089844-0.19141 0.13281-0.29297 0.035156-0.085937 0.070312-0.16797 0.09375-0.25391 0.027343-0.09375 0.046875-0.1875 0.0625-0.28125 0.019531-0.09375 0.039062-0.1875 0.046875-0.28516 0.007812-0.09375 0.007812-0.1875 0.007812-0.28516 0-0.09375 0-0.1875-0.007812-0.28516-0.007813-0.09375-0.027344-0.19141-0.046875-0.28516s-0.035157-0.1875-0.0625-0.28125c-0.027344-0.085938-0.0625-0.17188-0.09375-0.25391-0.039063-0.097657-0.082031-0.19531-0.13281-0.29297-0.015625-0.027344-0.023437-0.058594-0.039062-0.089844l-7.3477-12.723c-0.015626-0.027344-0.039063-0.050781-0.054688-0.078125-0.058594-0.089844-0.12109-0.17578-0.1875-0.25781-0.058594-0.074219-0.11328-0.14453-0.17578-0.21094-0.066407-0.070313-0.13672-0.12891-0.20703-0.19141-0.074219-0.066407-0.14844-0.13281-0.22656-0.1875-0.074219-0.050782-0.15234-0.097657-0.23047-0.14063-0.085937-0.050781-0.17188-0.10156-0.26172-0.14062-0.082032-0.039063-0.16797-0.066407-0.25391-0.09375-0.097656-0.035157-0.19141-0.066407-0.28906-0.089844-0.082031-0.019532-0.16797-0.03125-0.25391-0.042969-0.11328-0.015625-0.22266-0.03125-0.33594-0.035156-0.03125 0-0.058594-0.007813-0.089844-0.007813h-9.5508l4.7773-8.2734c0.53125-0.91797 0.53125-2.0508 0-2.9688l-7.3477-12.723c-0.027344-0.050781-0.066407-0.089843-0.097657-0.13672-0.058593-0.089844-0.11719-0.17578-0.1875-0.25781-0.0625-0.074219-0.12891-0.14453-0.19531-0.21094-0.066407-0.066406-0.13281-0.13281-0.20703-0.19141-0.085938-0.070313-0.17188-0.12891-0.26563-0.19141-0.046874-0.03125-0.085937-0.066406-0.13281-0.097656-0.027344-0.015625-0.058594-0.023437-0.085938-0.039063-0.09375-0.050781-0.19141-0.09375-0.29297-0.13281-0.085938-0.035156-0.16797-0.070312-0.25781-0.097656-0.089843-0.027344-0.18359-0.042969-0.27734-0.0625-0.097657-0.019532-0.19141-0.039063-0.28906-0.046875-0.089844-0.007813-0.18359-0.007813-0.27734-0.007813-0.097656 0-0.19531 0-0.29297 0.007813-0.09375 0.007812-0.18359 0.027343-0.27344 0.046875-0.097656 0.019531-0.19531 0.039062-0.28906 0.066406-0.082031 0.023438-0.16406 0.058594-0.24609 0.089844-0.10156 0.042968-0.20312 0.085937-0.30469 0.13672-0.027343 0.015626-0.058593 0.023438-0.085937 0.039063-0.046875 0.027344-0.082032 0.0625-0.12891 0.09375-0.09375 0.0625-0.18359 0.125-0.26953 0.19531-0.074218 0.058593-0.13672 0.125-0.20312 0.1875-0.070312 0.070312-0.13672 0.14062-0.19922 0.21484-0.066406 0.082031-0.12891 0.16797-0.18359 0.25781-0.03125 0.046875-0.070313 0.085937-0.097657 0.13672l-7.3477 12.723-6.4883 11.238-11.281 0.003906-5.6328-9.7539 3.918-6.7891 4.7734 8.2695c0.55078 0.95312 1.5469 1.4844 2.5742 1.4844 0.50391 0 1.0156-0.12891 1.4805-0.39844 1.418-0.82031 1.9062-2.6328 1.0859-4.0547l-6.4883-11.238 6.4883-11.238v-0.003906l6.4883-11.238h12.977c1.6406 0 2.9688-1.3281 2.9688-2.9688s-1.3281-2.9688-2.9688-2.9688h-9.5508l4.7734-8.2656s0-0.003906 0.003906-0.003906l4.7734-8.2695 4.7734 8.2695c0.55078 0.95312 1.5469 1.4844 2.5742 1.4844 0.50391 0 1.0156-0.12891 1.4805-0.39844 1.418-0.82031 1.9062-2.6328 1.0859-4.0547l-6.4883-11.238 3.918-6.7891 4.7734 8.2695c0.55078 0.95312 1.5469 1.4844 2.5742 1.4844 0.50391 0 1.0156-0.12891 1.4805-0.39844 1.418-0.82031 1.9062-2.6328 1.0859-4.0547l-6.4883-11.238 6.4883-11.238v-0.003906l7.3438-12.719s0-0.003906 0.003906-0.003906l7.3477-12.723v-0.003906l6.4883-11.234h7.8359l-4.7734 8.2695c-0.53125 0.91797-0.53125 2.0508 0 2.9688l7.3477 12.723c0.023438 0.039062 0.050781 0.074219 0.074219 0.10938 0.027343 0.039063 0.050781 0.078125 0.078125 0.11719 0.09375 0.13281 0.19531 0.25781 0.30469 0.36719 0.007813 0.007812 0.011719 0.011719 0.015625 0.019531 0.12109 0.12109 0.25781 0.23047 0.39844 0.32812 0.03125 0.023438 0.066406 0.042969 0.097656 0.0625 0.125 0.082032 0.25781 0.15234 0.39453 0.21484 0.023438 0.011719 0.046875 0.023438 0.070313 0.03125 0.15625 0.066406 0.32031 0.11328 0.48438 0.14844 0.039062 0.007812 0.082031 0.015624 0.125 0.023437 0.17578 0.03125 0.35156 0.054687 0.53516 0.054687h0.011719 27.656l6.4883 11.238s0 0.003906 0.003906 0.003906l7.3438 12.719c0.55078 0.95312 1.5469 1.4844 2.5742 1.4844 0.50391 0 1.0156-0.12891 1.4805-0.39844 1.418-0.82031 1.9062-2.6328 1.0859-4.0547l-7.3438-12.719v-0.003906l-6.4883-11.238 6.4883-11.238c0.82031-1.418 0.33203-3.2344-1.0859-4.0547-1.418-0.82031-3.2344-0.33594-4.0547 1.0859l-6.4922 11.258h-25.957l-5.6328-9.7539 5.6328-9.7539h22.531l-3.918 6.7852-12.98-0.003907c-1.6406 0-2.9688 1.3281-2.9688 2.9688s1.3281 2.9688 2.9688 2.9688h14.676 0.011719c0.17969 0 0.35938-0.023437 0.53125-0.054687 0.042969-0.007813 0.082031-0.015625 0.125-0.023438 0.16406-0.039062 0.32812-0.085937 0.48438-0.14844 0.023438-0.011719 0.046875-0.023438 0.070312-0.035157 0.13672-0.058593 0.26563-0.13281 0.39063-0.21094 0.035156-0.019531 0.066406-0.042969 0.10156-0.066406 0.14062-0.097657 0.27344-0.20312 0.39453-0.32422 0.007813-0.007812 0.011719-0.015625 0.019531-0.023438 0.10938-0.10937 0.20703-0.23437 0.30078-0.36328 0.027344-0.039062 0.054687-0.082031 0.082031-0.125 0.023437-0.035156 0.050781-0.070312 0.074219-0.10938l6.4883-11.238h25.957l5.6328 9.7539-6.4883 11.238c-0.027344 0.050782-0.042969 0.10156-0.070313 0.15625-0.046875 0.09375-0.09375 0.19141-0.12891 0.28906-0.035157 0.089844-0.0625 0.18359-0.085938 0.27734-0.023437 0.089843-0.046875 0.17969-0.0625 0.27344-0.019531 0.10938-0.027343 0.21484-0.03125 0.32422-0.003906 0.054687-0.015625 0.10938-0.015625 0.16406 0 0.03125 0.007813 0.0625 0.011719 0.097656 0.003906 0.10938 0.015625 0.21484 0.03125 0.32031 0.011719 0.089844 0.023437 0.17969 0.046875 0.26953 0.023438 0.09375 0.054688 0.18359 0.085938 0.27344s0.0625 0.18359 0.10156 0.26953c0.039062 0.085938 0.085938 0.16797 0.13672 0.25 0.046875 0.082032 0.09375 0.16406 0.14844 0.24219 0.054688 0.078125 0.12109 0.14844 0.18359 0.22266s0.125 0.14453 0.19531 0.21094c0.066407 0.0625 0.13672 0.11719 0.21094 0.17187 0.085938 0.066407 0.16797 0.12891 0.26172 0.1875 0.027343 0.015626 0.050781 0.039063 0.078125 0.054688 0.089844 0.050781 0.18359 0.09375 0.27734 0.13672 0.023437 0.011719 0.042968 0.023437 0.0625 0.03125 0.16016 0.066406 0.32812 0.11719 0.49219 0.15234 0.035156 0.007813 0.074219 0.015626 0.10938 0.023438 0.17578 0.03125 0.35547 0.054688 0.53516 0.054688h0.011719 29.375c1.6406 0 2.9688-1.3281 2.9688-2.9688 0-1.6406-1.3281-2.9688-2.9688-2.9688h-24.242l4.7773-8.2734c0.53125-0.91797 0.53125-2.0508 0-2.9688l-7.3477-12.723c-0.015625-0.027344-0.039063-0.050782-0.054687-0.078125-0.058594-0.089844-0.12109-0.17578-0.1875-0.26172-0.054688-0.070312-0.11328-0.14453-0.17188-0.21094-0.066406-0.070312-0.13672-0.13281-0.21094-0.19531s-0.14453-0.12891-0.22266-0.18359c-0.078125-0.054687-0.16016-0.10156-0.23828-0.14844-0.082032-0.046875-0.16406-0.097657-0.25-0.13672-0.085938-0.039062-0.17578-0.070312-0.26563-0.097656-0.09375-0.03125-0.18359-0.0625-0.27734-0.085938-0.085938-0.019531-0.17578-0.03125-0.26172-0.042968-0.10938-0.015626-0.21484-0.027344-0.32422-0.03125-0.050781 0-0.082031-0.007813-0.11328-0.007813h-73.457c-0.03125 0-0.0625 0.007813-0.09375 0.007813-0.11328 0.003906-0.22266 0.015624-0.33203 0.035156-0.085938 0.011718-0.17188 0.023437-0.25391 0.042968-0.097656 0.023438-0.19141 0.054688-0.28906 0.089844-0.085938 0.03125-0.17578 0.058594-0.25781 0.097656-0.089844 0.039063-0.17578 0.089844-0.26172 0.14063-0.078126 0.046874-0.16016 0.089843-0.23047 0.14062-0.082031 0.058594-0.15234 0.12109-0.22656 0.1875-0.070312 0.0625-0.14062 0.12109-0.20703 0.19141-0.0625 0.066406-0.11719 0.14062-0.17578 0.21094-0.066406 0.085938-0.12891 0.16797-0.1875 0.25781-0.015625 0.027343-0.039063 0.050781-0.054688 0.078125l-7.3438 12.719v0.003906l-7.3477 12.723v0.003906l-7.3438 12.719v0.003907l-22.043 38.168v0.003906l-7.3438 12.719-7.3438 12.727v0.003906l-14.695 25.445c-0.53125 0.91797-0.53125 2.0508 0 2.9688l14.695 25.445s0 0.003906 0.003907 0.003906l14.688 25.438v0.003906l22.043 38.168s0 0.003906 0.003906 0.003906l7.3438 12.719v0.003906l7.3477 12.723s0 0.003906 0.003906 0.003906l7.3438 12.719c0.023437 0.039062 0.050781 0.070312 0.074219 0.10938 0.027344 0.042969 0.054687 0.082031 0.082031 0.12109 0.09375 0.12891 0.19141 0.25391 0.30078 0.36328 0.007813 0.007812 0.011719 0.015625 0.019532 0.023437 0.12109 0.12109 0.25781 0.23047 0.39453 0.32812 0.03125 0.023438 0.066406 0.042969 0.097656 0.066406 0.125 0.082032 0.25781 0.15234 0.39453 0.21484 0.023438 0.011719 0.046875 0.023438 0.070313 0.035156 0.15625 0.066407 0.32031 0.11328 0.48438 0.14844 0.039062 0.007812 0.082031 0.015625 0.125 0.023438 0.17578 0.03125 0.35156 0.054687 0.53516 0.054687h0.011719 14.668 0.011718 0.011719 58.746 0.011719 0.011718 29.355 0.011719 0.011718 29.367 0.011719 0.011719 14.664 0.011719c0.17969 0 0.35547-0.023437 0.53125-0.054687 0.042969-0.007813 0.082031-0.015626 0.125-0.023438 0.16406-0.039062 0.32812-0.085938 0.48438-0.14844 0.023437-0.011718 0.046875-0.023437 0.070312-0.035156 0.13672-0.058594 0.26562-0.13281 0.39062-0.21094 0.035157-0.019531 0.066407-0.042969 0.10156-0.066407 0.14062-0.097656 0.27344-0.20312 0.39453-0.32422 0.007813-0.007813 0.011719-0.015625 0.019531-0.023438 0.10938-0.10938 0.20703-0.23438 0.30078-0.36328 0.027343-0.039063 0.054687-0.082031 0.082031-0.125 0.023437-0.035156 0.050781-0.070313 0.074219-0.10938l7.3438-12.719s0-0.003906 0.003906-0.003906l7.3477-12.723v-0.003907l7.3438-12.719s0-0.003906 0.003906-0.003906l22.043-38.168v-0.003906l14.688-25.438s0-0.003906 0.003906-0.003906l14.695-25.445c0.49219-0.92188 0.49219-2.0547-0.039063-2.9727z" fill="#00bac2"/>
 </g>
</svg>
