<?xml version="1.0" encoding="UTF-8"?>
<svg width="512pt" height="512pt" version="1.1" viewBox="0 0 512 512" xmlns="http://www.w3.org/2000/svg">
 <g>
  <rect width="512" height="512"/>
  <path d="m401.75 120.21-4.6992-4.6992c-0.089844-0.085938-0.17969-0.17188-0.26953-0.25781-0.082032-0.089844-0.16797-0.17969-0.25781-0.26953l-4.6992-4.6992c-5.8789-5.8789-14.324-7.1445-20.082-3.0078l-21.828 15.691c-3.0234 2.1719-4.8594 5.5-5.1719 9.3711-0.10547 1.3008-0.011719 2.625 0.23047 3.9453l-3.4336 3.4336-6.9141-6.9141c-2.5742-2.5781-6-3.9961-9.6445-3.9961-3.6445 0-7.0703 1.4219-9.6445 3.9961-2.5742 2.5742-3.9961 6-3.9961 9.6445s1.418 7.0664 3.9961 9.6445l6.9141 6.9141-2.8516 2.8516-6.918-6.918c-2.5742-2.5742-6-3.9961-9.6445-3.9961-3.6406 0-7.0703 1.418-9.6484 3.9961-5.3125 5.3164-5.3125 13.969 0.003906 19.289l6.918 6.918-17.039 17.039c-0.78906-0.30469-1.6406-0.48828-2.5391-0.48828-69.902 0-117.29 13.406-144.88 40.988-54.938 54.938-24.422 114.49-0.60938 138.3 16.164 16.164 37.902 26.926 59.648 29.539 3.2031 0.38281 6.6641 0.62109 10.348 0.62109 19.023 0 43.836-6.2891 68.309-30.766 27.586-27.582 40.992-74.973 40.992-144.88 0-0.89844-0.18359-1.75-0.48828-2.5391l17.039-17.035 6.9141 6.9141c2.6562 2.6602 6.1523 3.9883 9.6445 3.9883 3.4922 0 6.9844-1.3281 9.6445-3.9883 2.5742-2.5742 3.9961-6 3.9961-9.6445s-1.418-7.0664-3.9961-9.6445l-6.9141-6.9141 2.8516-2.8516 6.9141 6.9141c2.6562 2.6602 6.1523 3.9883 9.6445 3.9883 3.4922 0 6.9883-1.3281 9.6445-3.9883 5.3164-5.3164 5.3164-13.973 0-19.289l-6.9141-6.9141 3.4336-3.4336c0.92969 0.17188 1.8633 0.28125 2.793 0.28125 0.38672 0 0.77344-0.015625 1.1523-0.046875 3.8711-0.3125 7.1953-2.1523 9.3672-5.1758l15.684-21.832c4.1406-5.7656 2.875-14.211-3.0039-20.09zm-28.594 66.848c0 0.95312-0.37109 1.8477-1.043 2.5195-1.3477 1.3477-3.6953 1.3438-5.0391 0l-8.3398-8.3398 5.0391-5.0391 8.3398 8.3398c0.67578 0.67188 1.043 1.5664 1.043 2.5195zm-22.137 22.137c0 0.95313-0.37109 1.8477-1.043 2.5195-1.3906 1.3906-3.6523 1.3867-5.0391 0l-8.3398-8.3398 5.0391-5.0391 8.3398 8.3398c0.67188 0.67578 1.043 1.5703 1.043 2.5195zm-50.699-47.133c0.67188-0.67188 1.5664-1.043 2.5195-1.043 0.95312 0 1.8477 0.37109 2.5195 1.043l8.3398 8.3398-5.0391 5.0391-8.3398-8.3398c-1.3867-1.3867-1.3867-3.6523 0-5.0391zm21.098-19.617c0-0.95312 0.37109-1.8477 1.0469-2.5195 0.67187-0.67188 1.5664-1.043 2.5156-1.043 0.95313 0 1.8477 0.37109 2.5195 1.043l8.3398 8.3398-5.0391 5.0391-8.3398-8.3398c-0.67188-0.67578-1.043-1.5703-1.043-2.5195zm25.152 33.859-10.832-10.832 16.996-16.996 10.832 10.832zm-38.52 38.52-10.832-10.832 12.137-12.137 10.832 10.832zm-19.262 19.258-10.832-10.832 12.137-12.137 10.832 10.832zm-17.957-3.7109 10.832 10.832-13.184 13.184-10.832-10.832zm56.477-34.805-10.832-10.832 12.137-12.137 10.832 10.832zm-63.926 170.84c-20.234 20.234-42.781 29.02-67.004 26.113-18.391-2.207-37.59-11.742-51.352-25.504-21.867-21.871-46.348-71.402 0.60547-118.36 23.031-23.027 64.617-35.363 123.7-36.73l-26.641 26.641c-1.3203 1.3242-2.0664 3.1172-2.0664 4.9883 0 1.8711 0.74219 3.6641 2.0664 4.9883l20.809 20.809c1.3789 1.3789 3.1836 2.0664 4.9883 2.0664 1.8047 0 3.6094-0.6875 4.9883-2.0664l26.645-26.645c-1.3711 59.082-13.703 100.67-36.734 123.7zm114.75-213.22c-0.48047-0.12891-1.2188-0.48438-1.957-1.2148l-16.086-16.086c-0.73438-0.73828-1.0938-1.4844-1.2227-1.9609l20.781-14.93c0.44141 0.0625 1.3359 0.39844 2.2188 1.2812l4.6992 4.6992c0.085937 0.085938 0.17578 0.17188 0.26953 0.25391 0.082031 0.089844 0.16797 0.17969 0.25391 0.26953l4.6992 4.6992c0.88281 0.88281 1.2188 1.7773 1.2812 2.2148z" fill="#00bac2"/>
  <path d="m164.5 314.61c-2.5898-2.5898-6.0391-4.0195-9.707-4.0195-3.6641 0-7.1133 1.4258-9.7031 4.0195-2.5898 2.5898-4.0195 6.0391-4.0195 9.7031s1.4258 7.1133 4.0195 9.7031l32.93 32.93c2.6758 2.6758 6.1875 4.0117 9.7031 4.0117s7.0273-1.3398 9.7031-4.0117c2.5938-2.5898 4.0195-6.0391 4.0195-9.7031 0-3.668-1.4258-7.1133-4.0195-9.7031zm25.805 45.211c-1.4219 1.4219-3.7344 1.4219-5.1602 0l-32.93-32.93c-0.6875-0.6875-1.0664-1.6055-1.0664-2.5781 0-0.97656 0.37891-1.8906 1.0664-2.5781 1.3789-1.3789 3.7812-1.3789 5.1602 0l32.93 32.93c0.6875 0.6875 1.0664 1.6055 1.0664 2.5781 0.003906 0.97266-0.37891 1.8906-1.0664 2.5781z" fill="#00bac2"/>
  <path d="m162.12 286.74c4.3984 0 8.5312-1.7148 11.637-4.8203 1.5859-1.582 2.8125-3.4453 3.6445-5.5273l0.97266-2.4258c2.7969-6.9922 8.0117-12.766 14.684-16.254l11.453-5.9883c3.2656-1.707 5.4609-4.7812 6.0156-8.4219 0.55859-3.6445-0.61719-7.2305-3.2227-9.8398-3.3711-3.3711-8.3633-4.3008-12.723-2.3867l-24.375 10.73c-6.5273 2.8711-12.395 6.8867-17.438 11.93l-2.2891 2.2891c-7.1367 7.1406-7.1367 18.762 0 25.898 3.1133 3.1055 7.2422 4.8164 11.641 4.8164zm-4.5117-23.598 2.2891-2.2891c4.1562-4.1562 8.9922-7.4609 14.371-9.832l24.375-10.727c0.17578-0.078125 0.36719-0.11719 0.55469-0.11719 0.36328 0 0.71875 0.14062 0.98438 0.40234 0.42969 0.42969 0.42969 0.92969 0.39062 1.1914-0.039063 0.25781-0.18359 0.73437-0.72656 1.0195l-11.457 5.9883c-8.8008 4.6016-15.68 12.219-19.367 21.441l-0.97266 2.4258c-0.32422 0.80859-0.79688 1.5312-1.4141 2.1406-2.4102 2.4141-6.6133 2.4141-9.0273 0-3.2148-3.2031-3.2109-8.4297 0-11.645z" fill="#00bac2"/>
  <path d="m268.73 301.5c-3.6445 0.55469-6.7148 2.75-8.4219 6.0156l-0.003906 0.003906-5.9883 11.453c-3.4922 6.6758-9.2656 11.887-16.254 14.684l-2.4297 0.96875c-2.082 0.83594-3.9453 2.0586-5.5234 3.6445-3.1094 3.1094-4.8242 7.2422-4.8242 11.637 0 4.3984 1.7148 8.5273 4.8242 11.637 3.457 3.4609 8.0586 5.3633 12.949 5.3633s9.4883-1.9062 12.949-5.3633l2.2891-2.2891c5.043-5.043 9.0547-10.91 11.93-17.438l10.73-24.375c1.9141-4.3594 0.97656-9.3516-2.3906-12.719-2.6055-2.6055-6.1875-3.793-9.8359-3.2227zm2.7109 10.352c0.40625 0.40625 0.51953 1.0117 0.28906 1.5391l-10.73 24.375c-2.3672 5.3789-5.6758 10.215-9.832 14.371l-2.2891 2.2891c-3.2109 3.2109-8.4375 3.2148-11.648 0-1.207-1.207-1.8711-2.8086-1.8711-4.5117 0-1.7031 0.66406-3.3086 1.875-4.5156 0.61328-0.61328 1.3281-1.0898 2.1367-1.4102l2.4297-0.96875c9.2188-3.6875 16.836-10.566 21.441-19.371l5.9883-11.457c0.28125-0.53906 0.75781-0.6875 1.0195-0.72656 0.26953-0.046875 0.76172-0.046875 1.1914 0.38672z" fill="#00bac2"/>
  <path d="m242.61 269.43c-6.6445-6.6445-15.477-10.301-24.871-10.301s-18.227 3.6562-24.867 10.301c-13.715 13.711-13.715 36.023 0 49.734 6.8555 6.8555 15.859 10.285 24.867 10.285s18.012-3.4297 24.871-10.285c13.715-13.711 13.715-36.023 0-49.734zm-42.613 42.613c-9.7812-9.7852-9.7812-25.703 0-35.484 4.7383-4.7422 11.039-7.3477 17.742-7.3477s13.004 2.6133 17.746 7.3477c9.7812 9.7852 9.7812 25.703 0 35.484s-25.703 9.7812-35.488 0z" fill="#00bac2"/>
 </g>
</svg>
