<?xml version="1.0" encoding="UTF-8"?>
<svg width="512pt" height="512pt" version="1.1" viewBox="0 0 512 512" xmlns="http://www.w3.org/2000/svg">
 <g>
  <rect width="512" height="512"/>
  <path d="m382.69 214.66c-3.0625-7.8984-3.707-16.348-4.3516-24.539-0.16016-2.2578-0.35547-4.4805-0.54688-6.707-0.28906-2.9336-1.707-5.418-3.0938-7.8047-2-3.418-3.707-6.3828-1.8711-10.254 0.25781-0.54688 0.87109-1.8047-3-4.3516l-2-1.3203c-7.8984-5.2891-16.832-11.285-27.535-2.2891-0.32422 0-1.0312-0.16016-1.5156-0.25781 0.22656-0.45312 0.45312-0.87109 0.67578-1.2891 1.1289-2.1602 2.1914-4.1914 2.9336-6.3516 1.3555-3.9023-0.64453-8.6719-3.3203-11.352-2.2578-2.2578-4.9336-3.0938-7.3203-2.2891-2.9648 1.0312-5.9648 0.41797-9.1562-0.19531-4.1914-0.83984-8.543-1.6758-12.961 1.1289-1.0625 0.67578-1.7734 0.32422-3.5469-0.80469-0.35547-0.22656-0.71094-0.45312-1.0625-0.67578-5.1914-3.0312-9.1562-3.9023-12.445-2.7734-3.1289 1.0625-5.4805 3.8711-7.4492 8.7383-7.707 19.312-19.219 38.5-30.598 56.395-6.5781 0.16016-13.348 1.9023-19.539 5.2227-10.094 5.4492-17.059 14.156-19.57 24.504-0.48437 2.0312-0.90234 4.1602-1.1914 6.2891-7.1914 1.0977-10.672-3.418-14.477-9.3828-4.7383-7.4805-11.93-12.027-19.25-12.09h-0.22656c-9.3203 0-18.41 6.5781-27.02 19.57-7.8984 12.254-16.992 17.992-23.023 21.766-5.418 3.3867-9.3203 5.8359-7.707 10.48 0.90234 2.8047 2.3867 4.6094 4.4492 5.3516 0.71094 0.25781 1.4844 0.38672 2.2266 0.38672 3.4492 0 7.2539-2.3867 10.672-4.5469 0.77344-0.48438 1.5469-0.96875 2.3555-1.4492 10.512-7.0938 18.992-16.445 25.246-27.762 3.3516-6.0625 7.4492-9.3203 11.867-9.4805 4.2227-0.097656 8.4141 2.6133 11.574 7.5117 4.1289 6.418 8.8359 10.285 14.477 11.738-11.77 9.1914-31.695 19.441-41.66 24.57-6.7383 3.4805-12.574 7.4492-17.508 11.867-0.03125 0.03125-0.097656 0.066406-0.16016 0.097656-0.19531 0.12891-0.32422 0.28906-0.45312 0.48438-13.898 12.77-20.348 29.375-19.09 49.625 0.64453 10.738 5.9648 19.184 14.898 23.828 0.71094 0.35547 1.4492 0.67578 2.1914 0.96875 1.3203 0.54688 2.707 1.0977 2.9336 1.7734 0.19531 0.54688-0.19531 1.5781-0.96875 2.8711-0.45312 0.74219-0.25781 1.6758 0.45313 2.1602 3.2578 2.2578 4.8672 6.0312 6.5781 9.9961 2.4492 5.6758 5.2227 12.09 13.414 14.059 0.12891 0.03125 0.25781 0.03125 0.38672 0.03125 0.51562 0 1-0.25781 1.3203-0.67578 1.9688-2.8047 4.1914-6.0312 6.3828-9.1914 1.8047-2.6445 3.5781-5.1602 5.1914-7.4805 1.6133 1.0977 3.0312 1.7734 4.4492 1.7734 2.418 0 4.9336-1.8398 8.7383-6.3516 0.54688-0.67578 1.3203-1.1914 2.1289-1.7734 1.1914-0.83984 2.5781-1.8398 3.3516-3.3867 0.64453 0.74219 0.96875 1.6758 1.3555 2.7422 0.48438 1.418 1.0625 3 2.4844 4.2227 0.54687 0.48437 1.3867 0.54687 2 0.097656l14.961-10.801c0.12891 2.6445-1.418 5.707-3.0625 8.9297-2.0625 4.0312-4.1914 8.1914-3.0312 12.027 0.066406 0.25781 0.22656 0.48438 0.41797 0.67578 1.9688 1.9336 4.2891 2.707 6.5781 2.707 2.6758 0 5.3516-1.0977 7.3516-2.6445 1.6133-1.2578 3.2578-2.5156 4.9023-3.7422 8.4805-6.3516 17.25-12.93 21.41-24.473 4.8047-13.445 12.188-30.148 26.633-40.145 2.9336-2.0312 5.1914-4.5156 6.9961-7.2227 0.58203 0.16016 1.2578 0.28906 2 0.28906 1.707 0 3.7734-0.48438 5.707-1.6445 3.7734-2.2266 8.2227-7.4805 8.6719-19.766 0.87109 0.097656 1.7422 0.19531 2.6758 0.22656 12.832 0.41797 15.766 7.3516 17.059 14.863 1.0312 4.8047 1.7734 8.8008 2.4844 12.672 0.64453 3.4805 1.2578 6.8359 2.0312 10.574 1.9023 8.8359 4.2227 16.379 13.898 19.219 0.16016 0.03125 0.28906 0.066406 0.45312 0.066406 0.51562 0 1-0.25781 1.3203-0.67578 2.5781-3.6094 1.3867-7.125-0.25781-12.027-0.83984-2.5156-1.9023-5.6445-2.707-9.543-0.80469-3.3203-1.7422-8.0273-2.707-12.996-1.7734-8.9297-3.4492-17.379-4.7734-20.09-3.9023-8.0273-11.574-13.703-20.441-15.637 18.734-14.992 45.559-31.148 63.488-40.758 2.4375-1.3555 9.9492-5.3867 6.8242-13.512zm-164.16 13.477c2.2891-9.4492 8.6719-17.41 17.961-22.441 5.9961-3.2227 12.605-4.9023 18.895-4.9023 3.7422 0 7.418 0.58203 10.77 1.8047 4.9336 1.7734 8.8359 5.5781 10.996 10.801 3.6445 8.7695 3.3203 18.637-0.93359 27.02-4.2891 8.4805-11.93 14.445-21.508 16.766-8.0938 1.9688-15.992 3.4492-23.926-0.066406-12.348-5.5078-15.895-13.891-12.254-28.98zm66.004 19.188c5.7734 2.7422 10.898 11.316 14.25 19.539-8.0273-2.8047-14.734-9.9648-16.574-16.672 0.64844-1 1.4531-1.9336 2.3242-2.8672zm-6.8984 5.707c-0.19531 1.2891-1 2.3867-2.1914 2.9023-6.2539 2.8047-13.77 6.7695-16.574 12.605-2.2891 4.8047-8.1914 2.8047-9.9648 2.0625-6.707-2.7734-12.219-3.4492-18.41-2.2891-2.9336 0.54688-7.1914-0.03125-10.445-3.3516-0.54688-0.54688-0.64453-1.5469-0.25781-2.3867l0.32422-0.71094c0.83984-1.8047 1.8047-3.9023 2.2891-5.9648 1.9336 1.5156 4.1914 2.9023 6.9961 4.1289 3.9648 1.7734 7.8672 2.418 11.738 2.418 4.7734 0 9.4805-1 14.25-2.1602 10.512-2.5781 18.895-9.125 23.602-18.445 4.6758-9.2227 5.0625-20.055 1.0312-29.695-1.1289-2.7422-2.7734-5.1914-4.7383-7.2227 1.4492-2.0977 3-3.0625 4.6445-2.6758 3.0938 0.67578 5.7734 5.0938 5.8672 6.125 0.58203 5.9023 4.3867 8.8008 7.707 11.383 1.0625 0.80469 2.0625 1.5781 2.9336 2.418 1.0977 1.0312 1.5469 2.7422 1.1602 4.2227-1.3555 4.9961-4.1914 9.1562-8.9648 13.125l-1.3555 1.0977c-3.6758 2.9961-8.8672 7.1562-9.6406 12.414zm-84.027-20.766c-3.7734-5.9023-9.0586-9.1914-14.379-8.9961-3.9336 0.12891-9.6406 2.1602-14.574 11.156-5.9961 10.898-14.156 19.863-24.152 26.602-0.74219 0.41797-1.5156 0.93359-2.3555 1.4492-3.3867 2.1289-7.5781 4.7734-10.094 3.8711-1.0625-0.38672-1.8711-1.4844-2.4844-3.3516-0.71094-2.0625 0.96875-3.3203 6.3828-6.707 6.2539-3.9336 15.703-9.8672 23.988-22.73 7.8672-11.867 16.281-18.121 24.344-18.121h0.16016c6.2227 0.066406 12.414 4.0312 16.543 10.609 3.8359 6.0625 8.3516 11.832 16.93 10.898-0.066407 1.9688 0.03125 3.9336 0.35547 5.8672-8.7031 1.3164-15.152-1.9375-20.664-10.547zm-22.152 144.07c-1.9336 2.8359-3.9023 5.6758-5.707 8.2539-5.8047-1.8398-7.9336-6.7383-10.156-11.898-1.6445-3.7734-3.3203-7.707-6.5469-10.48 0.80469-1.6445 1-3.0625 0.58203-4.2891-0.67578-2.1289-2.8711-3-4.8047-3.7734-0.64453-0.25781-1.2891-0.51563-1.9023-0.83984-7.8984-4.0938-12.574-11.609-13.188-21.152-1.1914-19.57 4.8047-35.18 18.219-47.301 6.4805-4.6094 20.41-5.6445 28.086-3.4492 4.5469 1.2891 8.707 3.0625 12.574 5.1602-2.0977 2.1289-4.2227 4.3516-6.4492 6.707-5.1602 5.4492-10.445 11.125-15.801 15.316l-0.066406 0.066406h-0.03125c-8.125 6.4805-8.4805 15.379-7.7695 23.246 0.96875 10.414 3.707 25.406 16.121 35.211l1.707 1.3555c0.12891 0.097656 0.22656 0.16016 0.35547 0.28906-1.5781 2.3516-3.3828 4.9336-5.2227 7.5781zm20.09-62.652c2.7422 2.1289 5.0312 4.5156 6.5117 6.7695 4.7734 7.3203 6.8359 13.734 5.6094 17.25-0.45312 0.54688-0.90234 1.1289-1.3555 1.6758-3.0312 3.5781-6.3203 5.4492-9.7695 5.5781-3.8359 0.19531-7.9648-1.9023-11.93-5.9336-3.5156-3.5781-5.4492-6.8672-6.1914-10.609l1.4492-1.0977c5.1289-3.957 11.418-8.8281 15.676-13.633zm15.508 19.797c-0.71094-5.3203-3.9648-11.156-6.3203-14.77-1.8398-2.8047-4.8047-5.8359-8.3516-8.3828-0.03125-0.03125-0.03125-0.066406-0.066406-0.097656-0.03125-0.03125-0.097656-0.03125-0.12891-0.066407-3.8359-2.707-8.3203-4.8047-12.801-5.3828-1.3203-0.16016-2.5781-0.19531-3.8047-0.097656 3.0312-2.9648 6.0312-6.0938 8.9648-9.1914 2.418-2.5781 4.7383-4.9961 6.9961-7.2852 12.348 7.5117 21.184 18.508 28.406 28.953-3.0312 3.5781-6.0312 7.5117-8.9297 11.285-1.3203 1.6523-2.6445 3.3594-3.9648 5.0352zm22.957 39.145c-1.6758 1.2578-3.3203 2.4844-4.9648 3.7734-1.9688 1.5469-6.0625 3.3203-9.3516 0.48437-0.51562-2.5469 1.1289-5.8047 2.9023-9.2227 2.3555-4.6094 4.8047-9.3828 2.6133-13.801-0.03125-0.03125-0.066407-0.066406-0.097657-0.097656s-0.03125-0.097657-0.066406-0.12891c-0.03125-0.066406-0.097656-0.097656-0.12891-0.12891-0.066407-0.097656-0.16016-0.16016-0.22656-0.22656-0.097656-0.066406-0.16016-0.097656-0.25781-0.16016-0.097656-0.03125-0.19531-0.066407-0.28906-0.097657-0.097656-0.03125-0.19531-0.03125-0.28906-0.03125h-0.28906c-0.097656 0-0.19531 0.03125-0.32422 0.097657-0.066407 0.03125-0.12891 0.03125-0.19531 0.03125l-0.097656 0.097656c-0.03125 0.03125-0.097657 0.03125-0.12891 0.066406l-15.637 11.285c-0.32422-0.54688-0.54688-1.1914-0.77344-1.9023-0.71094-1.9688-1.5781-4.4492-4.7734-5.7734-0.48438-0.19531-1.0312-0.16016-1.4844 0.12891-0.45312 0.28906-0.71094 0.77344-0.74219 1.2891-0.066406 1.5469-0.93359 2.2578-2.6445 3.4492-0.90234 0.64453-1.9023 1.3555-2.707 2.3203-5.6758 6.7383-6.125 6.3828-11.641 1.9023l-1.7422-1.3867c-8.8672-6.9648-13.445-17.152-14.93-32.984-0.67578-7.3828-0.35547-14.992 6.6406-20.508 0.03125-0.03125 0.066406-0.03125 0.097656-0.066406 2.8359-2.5781 6.3828-3.5781 10.512-3.0625 3.418 0.45312 6.8359 1.9336 9.8984 3.8711-4.0312 4.4805-10.059 9.125-14.992 12.93l-2.1914 1.707c-0.45313 0.35547-0.67578 0.93359-0.61328 1.4844 0.67578 4.8359 2.9023 8.9297 7.2227 13.316 4.4805 4.5469 9.2539 6.9336 13.832 6.9336h0.51562c4.3867-0.16016 8.4805-2.418 12.09-6.707 2.9648-3.5156 5.9336-7.3828 8.7695-11.125 2.7734-3.6094 5.6094-7.3203 8.4805-10.703 0.54688 0.58203 1.1289 1.1289 1.6758 1.6445 1.8711 1.7422 3.4805 3.2891 3.9336 5.6445 0.097656 0.48438 0.38672 0.90234 0.83984 1.1289 0.22656 0.12891 0.48438 0.19531 0.74219 0.19531 0.22656 0 0.45312-0.03125 0.64453-0.12891 2.9023-1.2891 5.3828-5.5781 8.2852-10.543 1.8047-3.0625 4.0938-6.8359 6.1602-8.9648-0.80469 2.7422-1.4492 5.5156-2.0625 8.2227-1.5469 6.8359-3.0312 13.285-7.0625 18.961-0.96875 1.3555-2.2891 3.2227-1.1602 5.7734 2.2266 4.9961 6.5469 17.832-1.4492 29.117-0.83203 0.60547-1.7031 1.25-2.543 1.8945zm48.109-64.68c-15.188 10.512-22.859 27.793-27.828 41.723-2.4492 6.8359-6.6406 11.77-11.609 16.121 2.6758-7.707 2.1602-16.766-1.7422-25.473-0.35547-0.80469-0.097656-1.2891 0.87109-2.6445 4.3867-6.1602 5.9961-13.254 7.5469-20.09 0.87109-3.9023 1.8047-7.8984 3.2227-11.641 0.03125-0.066406 0.03125-0.16016 0.03125-0.22656 0.03125-0.097656 0.066407-0.16016 0.066407-0.25781v-0.066406c0-0.12891-0.03125-0.22656-0.066407-0.32422-0.03125-0.097656-0.03125-0.19531-0.066406-0.28906-0.03125-0.097656-0.097656-0.16016-0.16016-0.25781-0.066407-0.097656-0.097657-0.16016-0.16016-0.25781-0.066406-0.066407-0.16016-0.12891-0.22656-0.16016-0.097656-0.066406-0.19531-0.12891-0.28906-0.19531-0.03125 0-0.03125-0.03125-0.066407-0.03125-0.097656-0.03125-0.16016-0.03125-0.25781-0.03125-0.097657-0.03125-0.16016-0.066406-0.22656-0.066406h-0.066406c-0.066406 0-0.12891 0-0.19531 0.03125-4.3203-0.097656-7.8672 5.9336-11.543 12.188-1.7422 2.9648-3.6758 6.2539-5.3516 8.0625-0.96875-2.0625-2.5781-3.5781-4.1289-5.0312-1.1602-1.0977-2.2578-2.1289-3.1289-3.3867-10.254-14.898-23.699-30.953-45.82-37.273-5.3203-1.5156-13.188-1.6445-20.121-0.25781 2.6133-1.707 5.3828-3.3516 8.3828-4.8672 10.77-5.5469 32.984-16.992 44.594-26.859 1.707 0.066407 3.4805-0.066406 5.3516-0.35547 0.87109 2.5469 2.2266 5.0312 4.3203 7.2852 0.19531 2.0625-1.1289 4.9648-2.2266 7.3203l-0.32422 0.71094c-0.96875 2.0625-0.61328 4.4805 0.87109 5.9961 3.4492 3.5156 8.543 5.1602 13.348 4.2578 5.5469-1.0625 10.512-0.41797 16.574 2.0977 2.0625 0.87109 4.0625 1.2578 5.8672 1.2578 3.6758 0 6.6758-1.707 8.2227-4.9336 1.9023-4.0312 7.0938-7.2227 11.832-9.5781 2.4492 5.5469 7.3516 13.383 16.574 18.09 0.019532 5.4258-0.91406 21.676-12.07 29.414zm14.895-8.707c-1.707 1-3.2227 1.1914-4.2891 1.1289 3.7422-7.2539 4.5781-15.414 4.6758-20.508 2.0312 0.80469 4.2891 1.418 6.707 1.8711-0.35547 11.738-4.5469 15.992-7.0938 17.508zm36.887-13.285c1.1289 2.3203 2.9336 11.352 4.5156 19.312 1 4.9961 1.9336 9.7383 2.7422 13.059 0.83984 4.0625 1.9023 7.2852 2.8047 9.8672 1.3555 4.0312 2.0312 6.2227 1.2578 8.0938-6.9648-2.6133-8.8008-8.7383-10.445-16.379-0.80469-3.707-1.3867-7.0273-2.0312-10.48-0.71094-3.9023-1.4492-7.9336-2.4844-12.703-1.3555-7.8672-4.8359-16.961-20.09-17.477-18.25-0.87109-26.312-12.832-29.602-20.281 0.066407-0.03125 0.16016-0.066406 0.22656-0.097656 1.8047-0.80469 3.0938-2.3203 3.707-4.1602 4.1289 8.543 14.188 16.637 25.246 16.637 10.352 0.003906 19.832 5.7422 24.152 14.609zm44.402-60.648c-18.797 10.094-47.332 27.344-66.293 42.98-0.77344-0.066406-1.5156-0.16016-2.2891-0.16016-1.0312 0-2.0625-0.097656-3.0938-0.28906-1.9688-5.2539-7.4492-18.09-15.574-22.828 0.80469-0.67578 1.6133-1.3555 2.3555-1.9336l1.3867-1.1289c5.3203-4.3867 8.4805-9.0938 10.027-14.77 0.71094-2.6133-0.097657-5.5156-2.0625-7.3828-1-0.96875-2.1289-1.8047-3.2227-2.6445-3.0938-2.3867-6.0312-4.6094-6.4492-9.125-0.25781-2.5156-3.9648-7.9961-8.4141-8.9648-2.0625-0.45312-4.9961-0.097656-7.7383 3.6445-1.7422-1.3555-3.6445-2.418-5.707-3.1602-2.8359-1-5.8672-1.5781-8.9961-1.8398 11.125-17.574 22.281-36.34 29.859-55.297 1.5469-3.9023 3.3516-6.1602 5.4805-6.8984 2.3203-0.80469 5.4492 0 9.7695 2.5156 0.32422 0.19531 0.64453 0.38672 0.93359 0.58203 1.7422 1.1289 4.1602 2.707 7.0625 0.83984 3.2891-2.1289 6.6758-1.4492 10.574-0.67578 3.4805 0.67578 7.0625 1.3867 10.832 0.097657 1.6758-0.58203 3.3516 0.87109 3.9648 1.5156 2.2266 2.2266 3.3516 5.7383 2.5469 7.9961-0.67578 1.9336-1.6445 3.7734-2.7422 5.9023-0.54688 1.0312-1.0977 2.1289-1.6758 3.2891-0.22656 0.48438-0.22656 1.0312 0.03125 1.4844 0.25781 0.45312 0.71094 0.77344 1.2266 0.83984 0.61328 0.066407 1.2578 0.19531 1.8398 0.32422 1.5781 0.35547 3.0938 0.67578 4.1914-0.28906 8.9297-7.6094 15.832-2.9648 23.797 2.3867l2.0312 1.3555c0.51562 0.35547 1.0977 0.80469 1.4844 1.1602-1.9336 4.9961 0.35547 8.8984 2.3555 12.383 1.2578 2.1914 2.4492 4.2578 2.6758 6.4805 0.22656 2.1914 0.38672 4.418 0.54688 6.6406 0.64453 8.4141 1.3203 17.121 4.5469 25.441 1.6055 3.9492 0.058594 6.6875-5.2617 9.5273z" fill="#00bac2"/>
 </g>
</svg>
