<?xml version="1.0" encoding="UTF-8"?>
<svg width="512pt" height="512pt" version="1.1" viewBox="0 0 512 512" xmlns="http://www.w3.org/2000/svg">
 <g>
  <rect width="512" height="512"/>
  <path d="m377.96 334.5c-0.80469-0.17578-1.6484-0.26953-2.5195-0.26953-0.28516 0-0.56641 0.015626-0.84375 0.035157-0.28516 0.019531-0.5625 0.054687-0.83594 0.097656-6.5508 1.0234-10.406 7.9688-10.406 14.703 0 2.9688 0.75391 5.7539 2.1367 7.9609 0.19922 0.31641 0.40625 0.61719 0.63281 0.91016 2.1758 2.8359 5.4883 4.3984 9.3203 4.3984 3.7695 0 7.0625-1.7031 9.2695-4.793 1.7852-2.5 2.7695-5.7891 2.7695-9.2617-0.003907-7.1211-3.8789-12.539-9.5234-13.781zm-7.0508 14.566c0-3.2969 1.6016-6.8086 4.0312-7.2383 0.16406-0.027344 0.32812-0.042969 0.49609-0.042969 4.4297 0 4.4805 6.2305 4.4805 6.4961 0 1.8828-0.49609 3.6562-1.3594 4.8672-0.79297 1.1133-1.7852 1.6289-3.1211 1.6289-3.9375 0.003906-4.5273-3.5742-4.5273-5.7109z" fill="#00bac2"/>
  <path d="m387.96 103.08c-0.085937-0.10547-0.17578-0.20703-0.27344-0.30469-0.77734-0.77734-1.8594-1.1758-2.957-1.0977l-73.039 5.5625c-1.0273 0.078124-1.9766 0.57031-2.6289 1.3672l-106 128.78c-5.7422-1.4883-11.676-2.2422-17.664-2.2422h-0.085938c-9.1406 0-16.578 7.4336-16.578 16.551-0.023437 4.4375 1.6836 8.6094 4.8086 11.75 3.1289 3.1484 7.3086 4.8789 11.766 4.8789 3.5547 0 7.0312 0.49219 10.395 1.4531l-15.262 15.297s0 0.003906-0.003906 0.003906l-40.945 40.945-10.664 10.699c-3.3281 3.3047-5.168 7.7227-5.1758 12.438-0.007813 4.7344 1.8242 9.1797 5.1641 12.52 3.3125 3.3125 7.7383 5.1367 12.461 5.1367 1.1797 0 2.3398-0.11328 3.4727-0.33594 3.3945-0.66797 6.5117-2.3125 9.0234-4.8047l3.4961-3.5078 7.1484-7.1719c0.007812-0.007812 0.015625-0.015625 0.023437-0.023438l40.949-40.949c0.003906-0.003906 0.007813-0.011719 0.015625-0.015625l15.73-15.766v0.003906c0.67188 2.0469 1.1797 4.168 1.4961 6.3203 0.27344 1.8477 0.41016 3.7148 0.41016 5.5742 0 1.9883 0.35547 3.8984 1.0039 5.6641 2.3164 6.3125 8.3906 10.828 15.5 10.828h0.14062c4.4375 0 8.6055-1.7344 11.734-4.8789 3.1211-3.1367 4.8242-7.2969 4.7969-11.691 0-6.5391-0.89453-12.969-2.6367-19.172l71.867-59.121v103.04c0 6.6758 5.4648 12.105 12.184 12.105 6.6953 0 12.141-5.4297 12.141-12.105v-37.391c0-0.33203 0.039062-0.63672 0.10937-0.91797 0.49609-1.9609 2.6055-2.6836 4.4766-2.6836 2.4414 0 4.5859 2.2656 4.5859 4.8516v0.011719 19.855c0 6.6758 5.4453 12.105 12.141 12.105 6.6953 0 12.141-5.4297 12.141-12.105v-135.91l5.5508-72.895c0.011718-0.13672 0.011718-0.27344 0.007812-0.41016-0.023437-0.81641-0.3125-1.6055-0.82812-2.2422zm-160.78 185.69c-0.42578-1.0352-0.90234-2.043-1.4023-3.043-0.16016-0.31641-0.30859-0.63672-0.47656-0.94922-2.082-3.8945-4.7539-7.4844-7.9883-10.719-4.3047-4.3008-9.2383-7.6172-14.664-9.8633-5.5039-2.2734-11.336-3.4258-17.336-3.4258-2.4297 0-4.7031-0.94141-6.4062-2.6523-1.6953-1.7031-2.6211-3.9688-2.6094-6.3984 0-4.9688 4.0469-9.0156 9.0234-9.0156h0.066406c0.41016 0 0.81641 0.011719 1.2266 0.019531 0.33984 0.007813 0.67969 0.007813 1.0195 0.019532 0.375 0.011718 0.75 0.039062 1.1211 0.058593 0.37891 0.019531 0.75781 0.035157 1.1328 0.0625 0.35156 0.023438 0.70313 0.0625 1.0547 0.09375 0.39844 0.035157 0.79688 0.066407 1.1914 0.10547 0.33594 0.035156 0.66797 0.082031 1 0.125 0.41016 0.050781 0.82422 0.097656 1.2344 0.15625 0.32422 0.046875 0.64453 0.10156 0.96484 0.15234 0.41797 0.066406 0.83984 0.13281 1.2578 0.20703 0.31641 0.058594 0.62891 0.12109 0.94531 0.18359 0.41797 0.082031 0.83984 0.16406 1.2539 0.25391 0.32031 0.070313 0.63672 0.14844 0.95312 0.22266 0.40625 0.09375 0.81641 0.1875 1.2188 0.29297 0.33594 0.085938 0.66797 0.17969 1.0039 0.26953 0.32812 0.089844 0.65625 0.17969 0.98047 0.27344 0.13281 0.058593 0.26953 0.11328 0.41406 0.15234l0.19922 0.058594c0.81641 0.23828 1.5898 0.46484 2.3242 0.72266 0.60547 0.20703 1.2148 0.43359 1.832 0.67188 0.16016 0.0625 0.32812 0.13281 0.49219 0.19531 0.46484 0.18359 0.92578 0.36328 1.4062 0.55859l0.035156 0.011718c7.4688 3.0586 14.215 7.5352 20.086 13.289 0.14844 0.14453 0.30078 0.27734 0.44531 0.42578 5.8711 5.8359 10.469 12.727 13.664 20.48 0.53125 1.2969 0.98828 2.5 1.3867 3.6641 0.003907 0.015624 0.011719 0.03125 0.015626 0.046874 0.28125 0.82031 0.54687 1.6406 0.79297 2.4727 1.7422 5.8438 2.625 11.926 2.625 18.133 0.015625 2.3906-0.91016 4.6406-2.6016 6.3398-1.6992 1.7109-3.9648 2.6484-6.418 2.6484h-0.097656c-3.5234 0-6.5703-2.0508-8.0273-5.0195-0.58203-1.1836-0.91797-2.5117-0.91797-3.918 0-2.0859-0.15625-4.1797-0.44141-6.25-0.52734-3.832-1.5273-7.5977-2.9805-11.113zm-16.461-9.0273c2.3906 2.3945 4.4297 5.1211 6.0898 8.1367l-14.09 14.121-14.262-14.262 14.102-14.129c3.0312 1.6641 5.7656 3.7148 8.1602 6.1328zm-27.602 13.352 14.258 14.258-35.605 35.605-14.258-14.258zm197.8-183.54-5.1055 67.043-23.559 19.367-26.668 21.922-74.602 61.367c-0.027343-0.070312-0.058593-0.14062-0.085937-0.21094-0.019531-0.050781-0.039063-0.097656-0.058594-0.15234-0.6875-1.6641-1.4297-3.293-2.2305-4.8828-3.3789-6.7227-7.7656-12.785-13.086-18.074-6.6758-6.6719-14.414-11.836-23.027-15.367l-0.066406-0.027344c-0.26953-0.10938-0.55078-0.21484-0.82422-0.32422-0.26562-0.10547-0.53125-0.21094-0.80078-0.31641l103.07-125.24zm-239.63 249.71c-2.7031 0-5.2305-1.0391-7.1172-2.9219-1.9062-1.9062-2.957-4.4492-2.9531-7.1602 0.003907-2.6914 1.0508-5.207 2.957-7.1016l8-8.0312 14.258 14.258-7.9922 8.0234c-1.9023 1.8906-4.4453 2.9336-7.1523 2.9336zm234.39-44.719c0 2.5078-2.0586 4.5469-4.5859 4.5469-2.4844 0-4.5859-2.082-4.5859-4.5469v-19.867c0-0.13281-0.007812-0.26172-0.019531-0.39062-0.21094-6.5508-5.6719-12.02-12.164-12.02-6.5742 0-11.457 4.125-12.043 9.9688-0.039063 0.39062-0.058594 0.78516-0.058594 1.1914v37.391c0 0.30859-0.03125 0.60938-0.09375 0.90234-0.43359 2.0508-2.3164 3.6445-4.4883 3.6445-2.5078 0-4.625-2.082-4.625-4.5469v-108.5c0-0.23047-0.023437-0.45312-0.0625-0.66797 0-0.011719 0-0.023438-0.003906-0.03125l42.73-35.125z" fill="#00bac2"/>
  <path d="m248.92 245.32c0.96875 0 1.9336-0.36719 2.6719-1.1094l56.84-56.883c1.4766-1.4766 1.4727-3.8672 0-5.3438-1.4766-1.4766-3.8672-1.4727-5.3438 0l-56.84 56.883c-1.4766 1.4766-1.4727 3.8672 0 5.3438 0.73828 0.74219 1.707 1.1094 2.6719 1.1094z" fill="#00bac2"/>
  <path d="m321.7 172.5c0.96484 0 1.9336-0.36719 2.6719-1.1055l37.09-37.051c1.4766-1.4766 1.4766-3.8672 0.003907-5.3438-1.4766-1.4766-3.8672-1.4766-5.3438-0.003906l-37.09 37.051c-1.4766 1.4766-1.4766 3.8672-0.003906 5.3438 0.73828 0.73828 1.7031 1.1094 2.6719 1.1094z" fill="#00bac2"/>
  <path d="m134.1 387.08h36.215c2.0859 0 3.7773-1.6914 3.7773-3.7773 0-2.0859-1.6914-3.7773-3.7773-3.7773h-36.215c-2.0859 0-3.7773 1.6914-3.7773 3.7773 0 2.0859 1.6914 3.7773 3.7773 3.7773z" fill="#00bac2"/>
  <path d="m276.85 379.53h-77.277c-2.0859 0-3.7773 1.6914-3.7773 3.7773 0 2.0859 1.6914 3.7773 3.7773 3.7773h77.277c2.0859 0 3.7773-1.6914 3.7773-3.7773 0-2.0859-1.6914-3.7773-3.7773-3.7773z" fill="#00bac2"/>
  <path d="m276.85 403.22h-36.219c-2.0859 0-3.7773 1.6914-3.7773 3.7773 0 2.0859 1.6914 3.7773 3.7773 3.7773h36.219c2.0859 0 3.7773-1.6914 3.7773-3.7773 0-2.0859-1.6914-3.7773-3.7773-3.7773z" fill="#00bac2"/>
  <path d="m211.38 403.22h-77.277c-2.0859 0-3.7773 1.6914-3.7773 3.7773 0 2.0859 1.6914 3.7773 3.7773 3.7773h77.281c2.0859 0 3.7773-1.6914 3.7773-3.7773 0-2.0859-1.6914-3.7773-3.7812-3.7773z" fill="#00bac2"/>
 </g>
</svg>
