<?xml version="1.0" encoding="UTF-8"?>
<svg width="512pt" height="512pt" version="1.1" viewBox="0 0 512 512" xmlns="http://www.w3.org/2000/svg">
 <g>
  <rect width="512" height="512"/>
  <path d="m372.08 388.2h-12.898v-174.12c0-56.875-46.301-103.18-103.18-103.18-56.91 0-103.18 46.305-103.18 103.18v174.12h-12.898c-3.5469 0-6.4492 2.9023-6.4492 6.4492 0 3.5469 2.9023 6.4492 6.4492 6.4492h232.16c3.5469 0 6.4492-2.9023 6.4492-6.4492 0-3.5469-2.9023-6.4492-6.4492-6.4492zm-206.36 0v-174.12c0-49.781 40.496-90.281 90.281-90.281s90.281 40.5 90.281 90.281v174.12z" fill="#00bac2"/>
  <path d="m310.82 246.33v-58.039c0-3.5469-2.9023-6.4492-6.4492-6.4492h-96.734c-3.5469 0-6.4492 2.9023-6.4492 6.4492v58.039c0 3.5469 2.9023 6.4492 6.4492 6.4492h96.727c3.5547 0 6.457-2.9023 6.457-6.4492zm-96.734-51.59h19.348v45.141h-19.348zm32.246 0h19.348v45.141h-19.348zm51.59 45.141h-19.348v-45.141h19.348z" fill="#00bac2"/>
  <path d="m326.94 362.41c0 3.5586-2.8867 6.4492-6.4492 6.4492s-6.4492-2.8906-6.4492-6.4492c0-3.5625 2.8867-6.4492 6.4492-6.4492s6.4492 2.8867 6.4492 6.4492" fill="#00bac2"/>
  <path d="m197.96 362.41c0 3.5586-2.8867 6.4492-6.4492 6.4492s-6.4492-2.8906-6.4492-6.4492c0-3.5625 2.8867-6.4492 6.4492-6.4492s6.4492 2.8867 6.4492 6.4492" fill="#00bac2"/>
  <path d="m307.59 272.12c-12.445 0-22.57 10.125-22.57 22.57 0 10.188 6.8047 18.832 16.121 21.637v13.832c0 3.5469 2.9023 6.4492 6.4492 6.4492s6.4492-2.9023 6.4492-6.4492v-13.863c9.3203-2.7734 16.121-11.414 16.121-21.637 0-12.414-10.125-22.539-22.57-22.539zm0 32.246c-5.3203 0-9.6719-4.3516-9.6719-9.6719 0-5.3203 4.3516-9.6719 9.6719-9.6719 5.3203 0 9.6719 4.3516 9.6719 9.6719 0 5.3164-4.3516 9.6719-9.6719 9.6719z" fill="#00bac2"/>
 </g>
</svg>
