<?xml version="1.0" encoding="UTF-8"?>
<svg width="512pt" height="512pt" version="1.1" viewBox="0 0 512 512" xmlns="http://www.w3.org/2000/svg">
 <defs>
  <clipPath id="b">
   <path d="m170 188h132v229.22h-132z"/>
  </clipPath>
  <clipPath id="a">
   <path d="m215 94.781h92v180.22h-92z"/>
  </clipPath>
 </defs>
 <rect width="512" height="512"/>
 <path d="m341.64 137.61c-2.7812 0-5.0391 2.2539-5.0391 5.0391v5.0352h-5.0352c-2.7812 0-5.0352 2.2539-5.0352 5.0391 0 2.7812 2.2539 5.0352 5.0352 5.0352h5.0352v5.043c0 2.7812 2.2578 5.0352 5.0391 5.0352 2.7852 0 5.0391-2.2539 5.0391-5.0352v-5.043h5.0391c2.7852 0 5.0391-2.2539 5.0391-5.0352 0-2.7852-2.2539-5.0391-5.0391-5.0391h-5.0391v-5.0352c0-2.7852-2.2539-5.0391-5.0391-5.0391z" fill="#00bac2"/>
 <path d="m165.31 233.33h-5.0352c-2.7852 0-5.0391 2.2539-5.0391 5.0352 0 2.7852 2.2539 5.0391 5.0391 5.0391h5.0352v5.0391c0 2.7852 2.2539 5.0391 5.0391 5.0391 2.7812 0 5.0352-2.2539 5.0352-5.0391v-5.0391h5.043c2.7812 0 5.0391-2.2539 5.0391-5.0391 0-2.7812-2.2578-5.0352-5.0391-5.0352h-5.043v-5.0391c0-2.7812-2.2539-5.0352-5.0352-5.0352-2.7852 0-5.0391 2.2539-5.0391 5.0352z" fill="#00bac2"/>
 <path d="m165.32 152.72c-0.003906 2.4766 1.7969 4.5898 4.2461 4.9766 21.422 3.4023 22.676 6.3633 26.039 28.527 0.37109 2.4609 2.4883 4.2812 4.9805 4.2812 2.4922 0 4.6094-1.8203 4.9805-4.2812 3.3633-22.164 4.6172-25.125 26.039-28.527 2.4453-0.39062 4.2461-2.5 4.2461-4.9766s-1.8008-4.5859-4.2461-4.9766c-21.422-3.4023-22.676-6.3633-26.039-28.527-0.375-2.4609-2.4922-4.2812-4.9805-4.2812-2.4922 0-4.6094 1.8203-4.9805 4.2812-3.3633 22.164-4.6172 25.125-26.039 28.527-2.4492 0.39062-4.25 2.5-4.2461 4.9766zm35.266-11.629c2.1445 5.1367 6.1289 9.2812 11.176 11.629-5.0469 2.3477-9.0312 6.4961-11.176 11.629-2.1445-5.1328-6.1328-9.2812-11.18-11.629 5.0469-2.3438 9.0352-6.4922 11.18-11.629z" fill="#00bac2"/>
 <path d="m354.24 291.27c0-2.3008-1.5625-4.3125-3.793-4.8828-13.746-3.5-15.523-5.2773-19.035-19.031-0.56641-2.2344-2.5781-3.793-4.8789-3.793-2.3047 0-4.3164 1.5586-4.8828 3.793-3.5078 13.758-5.2891 15.535-19.035 19.031-2.2305 0.57031-3.793 2.582-3.793 4.8828 0 2.3047 1.5625 4.3164 3.793 4.8828 13.746 3.4961 15.523 5.2773 19.035 19.031v0.003906c0.56641 2.2305 2.5781 3.793 4.8828 3.793 2.3008 0 4.3125-1.5625 4.8789-3.793 3.5078-13.754 5.2891-15.531 19.035-19.031v-0.003906c2.2305-0.56641 3.793-2.5781 3.793-4.8828zm-27.707 8.0273c-1.8789-3.3672-4.6562-6.1445-8.0234-8.0273 3.3672-1.8789 6.1445-4.6602 8.0234-8.0273 1.8789 3.3672 4.6562 6.1484 8.0195 8.0273-3.3633 1.8828-6.1406 4.6602-8.0195 8.0273z" fill="#00bac2"/>
 <g clip-path="url(#b)">
  <path d="m284.22 404.35 16.02-45.609c5.0664-15.344-8.1289-24.281-15.625-26.801l-21.059-8.0312v-9.9688h2.5195c2.7812 0 5.0352-2.2539 5.0352-5.0391v-20.152c-0.003906-5.5625-4.5117-10.07-10.074-10.074h-25.137c5.1094-10.203 11.391-20.309 17.492-30.117 10.57-16.992 21.5-34.559 27.305-53.871 0.79688-2.6641-0.71484-5.4727-3.3789-6.2734-2.6641-0.80078-5.4727 0.71094-6.2734 3.375-5.4141 18.023-15.984 35.012-26.207 51.445-7.0156 11.273-20.062 35.285-20.141 35.441h-14.043c-5.5625 0.003906-10.07 4.5117-10.074 10.074v20.152c0 2.7852 2.2539 5.0391 5.0391 5.0391h2.5195v9.9688l-20.867 7.9648c-7.6836 2.582-20.883 11.523-15.789 26.957l15.988 45.516-0.003906 0.003906c1.4492 3.6797 3.9414 6.8555 7.168 9.1406 3.2266 2.2891 7.0508 3.5859 11.004 3.7305h60.41c3.9531-0.14844 7.7773-1.4414 11.004-3.7305 3.2266-2.2852 5.7188-5.4609 7.168-9.1406zm-73.566-115.6h50.383v15.113l-50.383 0.003906zm32.746 73.051 0.003906 0.003906c0 2.7812-2.2578 5.0391-5.0391 5.0391h-5.0391c-2.7812 0-5.0391-2.2578-5.0391-5.0391s2.2578-5.0391 5.0391-5.0391h5.0391c2.7812 0 5.0391 2.2578 5.0391 5.0391zm-46.426 39.207-1.3828-3.9375h80.508l-1.3828 3.9375c-1.5273 3.4961-4.8633 5.8594-8.668 6.1406h-60.41c-3.8047-0.28125-7.1406-2.6445-8.6641-6.1406z" fill="#00bac2"/>
 </g>
 <g clip-path="url(#a)">
  <path d="m281.15 96.824c-1.4297-1.9336-4.0312-2.5898-6.207-1.5586-2.1758 1.0312-3.3203 3.4531-2.7305 5.7891 2.2031 8.5977 2.957 17.504 2.2383 26.348-2.0391 28.75-19.961 55.98-33.301 74-1.9102 2.3164-23.988 29.742-25.449 60.664-0.13281 2.7812 2.0117 5.1406 4.793 5.2734 2.7695 0.097656 5.1094-2.0312 5.2695-4.7969 1.332-28.203 23-54.543 23.219-54.809 0.058594-0.070313 0.12109-0.14844 0.17969-0.22656 14.102-19.023 33.109-47.957 35.34-79.391 0.14062-1.9648 0.25391-4.1367 0.27734-6.5156 34.758 67.812-19.105 120.1-21.617 122.48-1.4141 1.332-1.9336 3.3594-1.3398 5.2109 0.59766 1.8477 2.2031 3.1914 4.1289 3.4492 3.625 0.39844 7.2812 0.40234 10.906 0.007812-3.4375 4.0469-8.9844 6.9453-16.383 10.582-1.7734 0.59375-3.375 1.6016-4.6758 2.9414-1.3594 1.8789-1.2578 4.4453 0.24219 6.2148 1.5 1.7734 4.0156 2.293 6.0938 1.2578l2.7812-1.3711c11.055-5.4336 22.488-11.051 25.398-24.973 0.34766-1.6758-0.17578-3.4141-1.3945-4.6133-1.2148-1.2031-2.9609-1.707-4.6289-1.3359-0.050781 0.011719-2.7617 0.60156-6.3164 1.0469 17.125-21.461 52.316-79.156 3.1758-145.68z" fill="#00bac2"/>
 </g>
</svg>
