<?xml version="1.0" encoding="UTF-8"?>
<svg width="512pt" height="512pt" version="1.1" viewBox="0 0 512 512" xmlns="http://www.w3.org/2000/svg">
 <defs>
  <clipPath id="f">
   <path d="m119 94.781h12v10.219h-12z"/>
  </clipPath>
  <clipPath id="e">
   <path d="m381 94.781h12v10.219h-12z"/>
  </clipPath>
  <clipPath id="d">
   <path d="m119 407h12v10.219h-12z"/>
  </clipPath>
  <clipPath id="c">
   <path d="m381 407h12v10.219h-12z"/>
  </clipPath>
  <clipPath id="b">
   <path d="m208 246h96v171.22h-96z"/>
  </clipPath>
  <clipPath id="a">
   <path d="m162 94.781h188v151.22h-188z"/>
  </clipPath>
 </defs>
 <rect width="512" height="512"/>
 <g clip-path="url(#f)">
  <path d="m130.05 99.82c0 6.7148-10.074 6.7148-10.074 0 0-6.7188 10.074-6.7188 10.074 0" fill="#00bac2"/>
 </g>
 <path d="m150.2 140.12c4.0078 0 7.8555-1.5938 10.688-4.4297 2.8359-2.832 4.4297-6.6758 4.4297-10.684 0-4.0117-1.5938-7.8555-4.4297-10.688-2.832-2.8359-6.6797-4.4297-10.688-4.4297-4.0078 0-7.8516 1.5938-10.688 4.4297-2.832 2.832-4.4258 6.6758-4.4258 10.688 0 4.0078 1.5938 7.8516 4.4258 10.684 2.8359 2.8359 6.6797 4.4297 10.688 4.4297zm0-20.152c2.0391 0 3.875 1.2266 4.6562 3.1094 0.77734 1.8828 0.34766 4.0508-1.0938 5.4922-1.4414 1.4375-3.6055 1.8711-5.4883 1.0898-1.8828-0.78125-3.1094-2.6172-3.1094-4.6523 0-2.7852 2.2539-5.0391 5.0352-5.0391z" fill="#00bac2"/>
 <g clip-path="url(#e)">
  <path d="m392.03 99.82c0 6.7148-10.074 6.7148-10.074 0 0-6.7188 10.074-6.7188 10.074 0" fill="#00bac2"/>
 </g>
 <path d="m361.8 109.89c-4.0078 0-7.8516 1.5938-10.688 4.4297-2.8359 2.832-4.4258 6.6758-4.4258 10.688 0 4.0078 1.5898 7.8516 4.4258 10.684 2.8359 2.8359 6.6797 4.4297 10.688 4.4297 4.0078 0 7.8516-1.5938 10.688-4.4297 2.832-2.832 4.4258-6.6758 4.4258-10.684 0-4.0117-1.5938-7.8555-4.4258-10.688-2.8359-2.8359-6.6797-4.4297-10.688-4.4297zm0 20.152c-2.0391 0-3.875-1.2266-4.6562-3.1094-0.77734-1.8828-0.34766-4.0508 1.0938-5.4883 1.4414-1.4414 3.6055-1.875 5.4883-1.0938 1.8828 0.78125 3.1133 2.6172 3.1133 4.6562 0 1.3359-0.53125 2.6172-1.4766 3.5625-0.94531 0.94141-2.2266 1.4727-3.5625 1.4727z" fill="#00bac2"/>
 <g clip-path="url(#d)">
  <path d="m130.05 412.18c0 6.7188-10.074 6.7188-10.074 0 0-6.7148 10.074-6.7148 10.074 0" fill="#00bac2"/>
 </g>
 <path d="m150.2 371.88c-4.0078 0-7.8516 1.5938-10.688 4.4297-2.832 2.832-4.4258 6.6758-4.4258 10.688 0 4.0078 1.5938 7.8516 4.4258 10.688 2.8359 2.832 6.6797 4.4258 10.688 4.4258 4.0078 0 7.8555-1.5938 10.688-4.4258 2.8359-2.8359 4.4297-6.6797 4.4297-10.688 0-4.0117-1.5938-7.8555-4.4297-10.688-2.832-2.8359-6.6797-4.4297-10.688-4.4297zm0 20.152c-2.0352 0-3.875-1.2266-4.6523-3.1094-0.78125-1.8828-0.35156-4.0469 1.0898-5.4883 1.4414-1.4414 3.6094-1.875 5.4922-1.0938 1.8828 0.78125 3.1094 2.6172 3.1094 4.6562 0 1.3359-0.53125 2.6172-1.4766 3.5625-0.94531 0.94531-2.2266 1.4727-3.5625 1.4727z" fill="#00bac2"/>
 <g clip-path="url(#c)">
  <path d="m392.03 412.18c0 6.7188-10.074 6.7188-10.074 0 0-6.7148 10.074-6.7148 10.074 0" fill="#00bac2"/>
 </g>
 <path d="m361.8 371.88c-4.0078 0-7.8516 1.5938-10.688 4.4297-2.8359 2.832-4.4258 6.6758-4.4258 10.688 0 4.0078 1.5898 7.8516 4.4258 10.688 2.8359 2.832 6.6797 4.4258 10.688 4.4258 4.0078 0 7.8516-1.5938 10.688-4.4258 2.832-2.8359 4.4258-6.6797 4.4258-10.688 0-4.0117-1.5938-7.8555-4.4258-10.688-2.8359-2.8359-6.6797-4.4297-10.688-4.4297zm0 20.152c-2.0391 0-3.875-1.2266-4.6562-3.1094-0.77734-1.8828-0.34766-4.0469 1.0938-5.4883 1.4414-1.4414 3.6055-1.875 5.4883-1.0938 1.8828 0.78125 3.1133 2.6172 3.1133 4.6562 0 1.3359-0.53125 2.6172-1.4766 3.5625-0.94531 0.94531-2.2266 1.4727-3.5625 1.4727z" fill="#00bac2"/>
 <g clip-path="url(#b)">
  <path d="m278.97 286.23h3.4258c2.5547 0.019531 4.7188-1.875 5.0391-4.4102l4.2812-34.059c-3.2734-0.92969-6.7109-1.1445-10.074-0.62891l-3.6797 29.02h-43.426l-3.957-29.02c-3.3594-0.55078-6.7969-0.35937-10.074 0.55469l4.6836 34.16c0.34375 2.5117 2.5 4.3789 5.0391 4.3555h4.0547c-2.8984 17.078-15.844 31.137-23.227 37.91v0.003907c-2.8281 2.6289-3.6133 6.7969-1.9375 10.277l43.957 80.305c0.39062 1.4531 1.707 2.4648 3.2109 2.4648 1.5039 0 2.8242-1.0117 3.2109-2.4648l43.457-80.406c1.6914-3.5117 0.94922-7.7109-1.8398-10.43-16.602-15.617-21.211-29.043-22.145-37.633zm-22.973 50.379c2.0391 0 3.875 1.2266 4.6562 3.1094 0.77734 1.8828 0.34766 4.0508-1.0938 5.4922-1.4414 1.4414-3.6094 1.8711-5.4883 1.0898-1.8828-0.77734-3.1133-2.6133-3.1133-4.6523 0-2.7812 2.2578-5.0391 5.0391-5.0391zm5.0391 54.109v-34.84c4.5195-1.5977 8.0117-5.2422 9.4141-9.8242 1.4023-4.582 0.54688-9.5586-2.3008-13.414-2.8516-3.8516-7.3594-6.125-12.152-6.125s-9.3008 2.2734-12.152 6.125c-2.8477 3.8555-3.7031 8.832-2.3008 13.414 1.4023 4.582 4.8984 8.2266 9.4141 9.8242v34.082l-32.395-59.094c8.918-8.3633 23.023-24.484 25.82-44.637h24.461c0.90625 11.008 6.2461 26.727 24.66 44.285z" fill="#00bac2"/>
 </g>
 <path d="m268.59 261.04v-8.3398c-3.2539 1.1172-6.6406 1.793-10.074 2.0156v6.3242c0 2.7812 2.2539 5.0391 5.0391 5.0391 2.7812 0 5.0352-2.2578 5.0352-5.0391z" fill="#00bac2"/>
 <g clip-path="url(#a)">
  <path d="m346.21 229.83c-0.96875 0.011719-1.9336 0.078125-2.8984 0.19922-1.2852 0.15234-2.582 0.22656-3.8789 0.22656-1.7969 0.054688-3.5938-0.14062-5.3398-0.57812-11.637-4.0039-14.785-16.727-16.5-26.953-2.7695-16.273-5.7422-32.371-8.6914-48.742-2.5156-14.535-5.7148-31.488-15.289-43.406-8.5156-10.754-23.148-15.793-36.902-15.793-1.8086 0-3.6172 0.09375-5.418 0.27734-12.168 1.2344-25.191 5.8711-32.898 15.543-9.5703 11.891-12.77 28.844-15.289 43.379-2.9492 16.371-5.9219 32.469-8.6406 48.742-1.6875 10.227-4.8633 23.051-16.551 26.953-1.7695 0.44531-3.5938 0.64062-5.418 0.57812-1.293 0-2.5898-0.074218-3.8789-0.22656-0.96094-0.12109-1.9258-0.1875-2.8945-0.19922-2.9492 0-3.8789 1.0312-2.0664 4.3086 1.3867 2.5625 3.3008 4.8047 5.6172 6.5742 4.8477 3.5703 10.758 5.4062 16.777 5.2148 9.3945 0 19.297-3.5 27.508-6.5742v-0.003906c4.2969-1.6328 8.8516-2.4883 13.453-2.5156 4.957-0.074219 9.832 1.2422 14.078 3.8008 4.5039 2.7227 9.6641 4.1641 14.926 4.1641s10.426-1.4414 14.926-4.1641c4.2461-2.5586 9.125-3.875 14.082-3.8008 4.5977 0.027344 9.1562 0.87891 13.453 2.5156 8.1602 3.0742 17.984 6.5781 27.48 6.5781 5.9883 0.19141 11.867-1.6289 16.703-5.1641 2.3164-1.7695 4.2305-4.0117 5.6172-6.5781 1.8125-3.375 0.92969-4.3555-2.0664-4.3555zm-44.234 0c-5.4258-2.1016-11.188-3.2031-17.004-3.25-6.8164-0.085937-13.52 1.7461-19.344 5.2891-2.918 1.7461-6.2539 2.668-9.6484 2.668-3.3984 0-6.7344-0.92188-9.6484-2.668-5.8242-3.543-12.531-5.375-19.348-5.2891-5.8164 0.046875-11.578 1.1484-17.004 3.25-6.9492 3-14.285 5.0234-21.789 6.0195 12.395-8.3125 15.113-24.082 16.223-31.387 1.8906-11.336 3.9297-22.871 5.918-34.031 0.875-4.8711 1.7148-9.75 2.5195-14.637 2.1172-12.016 5.0391-28.492 13.301-38.844 5.0391-6.3242 14.559-10.629 26.047-11.812v-0.003907c1.5-0.16797 3.0039-0.26172 4.5117-0.27344 11.887 0 23.098 4.6094 29.043 12.039 8.3125 10.352 11.211 26.828 13.301 38.844 0.85547 4.9023 1.6953 9.8086 2.5195 14.711 1.9883 11.133 4.0312 22.672 5.918 33.93 1.4102 7.3086 3.9297 23.027 16.273 31.465-7.4922-0.96875-14.816-2.9688-21.762-5.9453z" fill="#00bac2"/>
 </g>
 <path d="m270.99 196.1c-2.4375-1.2891-5.457-0.37891-6.7773 2.0391-1.9023 1.5352-4.2578 2.3906-6.6992 2.4453-3.8867 0.39062-7.75-0.91406-10.605-3.5781-1.9961-1.9414-5.1875-1.8945-7.1289 0.10156-1.9414 1.9961-1.8945 5.1875 0.10156 7.1289 4.3984 4.1953 10.27 6.5 16.348 6.4219 1.375 0 2.75-0.10938 4.1055-0.32812 5.918-0.93359 10.781-3.7539 12.594-7.3789h0.003907c1.3516-2.4297 0.48437-5.4961-1.9414-6.8516z" fill="#00bac2"/>
 <path d="m248.19 146.09c-0.88672-2.6328-3.7383-4.0547-6.375-3.1719l-15.113 5.0391v-0.003907c-1.3125 0.38672-2.4141 1.2891-3.0469 2.5039-0.63281 1.2148-0.74609 2.6328-0.3125 3.9336 0.4375 1.2969 1.3828 2.3633 2.6172 2.9492 1.2383 0.58594 2.6602 0.64453 3.9414 0.16016l15.113-5.0391v0.003906c2.6367-0.88672 4.0586-3.7383 3.1758-6.375z" fill="#00bac2"/>
 <path d="m245.93 165.32c-0.003906-1.6523-0.81641-3.1953-2.1719-4.1328-1.3555-0.94141-3.0859-1.1562-4.6328-0.57812l2.0156 4.7109-5.0391-1.2852h0.003906c-0.46094 1.4219-0.26562 2.9766 0.53516 4.2422 0.79688 1.2656 2.1172 2.1094 3.6016 2.3047 1.4844 0.19141 2.9805-0.28125 4.0781-1.3008 1.0977-1.0156 1.6875-2.4688 1.6094-3.9609z" fill="#00bac2"/>
 <path d="m285.3 147.93-15.113-5.0391c-2.6016-0.76172-5.3359 0.66797-6.1953 3.2344-0.86328 2.5664 0.46094 5.3555 2.9961 6.3125l15.113 5.0391c1.2812 0.48438 2.7031 0.42578 3.9414-0.16016 1.2383-0.58984 2.1797-1.6523 2.6172-2.9531 0.43359-1.2969 0.32031-2.7188-0.3125-3.9297-0.63281-1.2148-1.7344-2.1172-3.0469-2.5039z" fill="#00bac2"/>
 <path d="m270.86 165.32 2.0156-4.8125c-2.168-0.81641-4.6094-0.046875-5.9219 1.8594s-1.1562 4.4648 0.37891 6.1953c1.5352 1.7344 4.0508 2.1992 6.1055 1.125 2.0508-1.0703 3.1055-3.4023 2.5586-5.6523z" fill="#00bac2"/>
 <path d="m253.48 261.04v-6.3242c-3.4336-0.22266-6.8203-0.89844-10.074-2.0156v8.3398c0 2.7812 2.2539 5.0391 5.0352 5.0391 2.7852 0 5.0391-2.2578 5.0391-5.0391z" fill="#00bac2"/>
</svg>
