<?xml version="1.0" encoding="UTF-8"?>
<svg width="512pt" height="512pt" version="1.1" viewBox="0 0 512 512" xmlns="http://www.w3.org/2000/svg">
 <g>
  <rect width="512" height="512"/>
  <path d="m249.28 121.65c70.496 0 127.63 57.137 127.63 127.63 0 2.2539-0.058593 4.4961-0.17578 6.7305l6.8945-0.011719c3.2969 0 6.0391 2.375 6.6094 5.5117l0.10547 1.207v107.48c0 3.3008-2.375 6.043-5.5078 6.6094l-1.207 0.10937h-268.7c-3.2969 0-6.0391-2.375-6.6094-5.5078l-0.10938-1.2109v-107.48c0-3.2969 2.3789-6.043 5.5117-6.6094l1.207-0.10938 6.8906 0.011719c-0.11328-2.2344-0.17188-4.4766-0.17188-6.7305 0-70.492 57.137-127.63 127.63-127.63zm127.63 147.78h-255.26v94.047h255.26zm-208.24 6.7188c3.3008 0 6.043 2.375 6.6094 5.5117l0.10938 1.207 0.011719 0.65234c10.695 2.1211 18.957 9.2188 18.957 18.707 0 3.7109-3.0078 6.7188-6.7188 6.7188s-6.7148-3.0078-6.7148-6.7188c0-1.6523-2.0938-3.6328-5.5117-4.8359l-0.003906 12.387c15.816 4.6289 22.105 8.9453 22.105 19.32 0 10.508-9.6875 18.305-22.117 20.391l-0.007813 0.55078c0 3.7109-3.0078 6.7188-6.7188 6.7188-3.2969 0-6.0391-2.375-6.6094-5.5078l-0.10547-1.2109v-0.54688c-12.43-2.0859-22.129-9.8828-22.129-20.395 0-3.7109 3.0078-6.7188 6.7148-6.7188 3.7109 0 6.7188 3.0078 6.7188 6.7188 0 2.4414 3.3945 5.2969 8.6875 6.6758l0.003906-15.824c-13.195-3.9922-18.961-8.2305-18.961-17.723 0-9.4922 8.2656-16.594 18.965-18.707v-0.65234c0-3.7109 3.0078-6.7188 6.7148-6.7188zm87.762 6.7305 1.1953 0.1875c3.1992 0.80078 5.2852 3.7695 5.0742 6.9492l-0.1875 1.1992-1.2617 5.0742 1.4648 0.011719c3.707 0 6.7148 3.0078 6.7148 6.7188 0 3.2969-2.375 6.0391-5.5078 6.6094l-1.207 0.10547-4.8242-0.011719-3.3594 13.434 1.4648 0.015625c3.7109 0 6.7188 3.0078 6.7188 6.7148 0 3.3008-2.3789 6.043-5.5117 6.6094l-1.207 0.10938-4.8242-0.011719-2.0938 8.3594c-0.89844 3.5977-4.5469 5.7852-8.1445 4.8867-3.1992-0.80078-5.2852-3.7695-5.0781-6.9492l0.1875-1.1953 1.2656-5.1016h-13.004l-2.0977 8.3594c-0.89844 3.5977-4.5469 5.7852-8.1445 4.8867-3.1992-0.80078-5.2852-3.7695-5.0742-6.9492l0.1875-1.1953 1.2617-5.1016-1.4648 0.011719c-3.707 0-6.7148-3.0078-6.7148-6.7188 0-3.2969 2.375-6.0391 5.5078-6.6094l1.207-0.10547 4.8242-0.015625 3.3594-13.434-1.4648 0.011719c-3.7109 0-6.7188-3.0039-6.7188-6.7148 0-3.2969 2.3789-6.043 5.5117-6.6094l1.207-0.10937 4.8242-0.011719 2.0938-8.3359c0.80078-3.1992 3.7695-5.2812 6.9492-5.0742l1.1953 0.1875c3.1992 0.80078 5.2852 3.7695 5.0781 6.9492l-0.1875 1.1992-1.2656 5.0742h13.004l2.0977-8.3359c0.80078-3.1992 3.7695-5.2812 6.9492-5.0742zm96.617 0.69531c2.9492 1.4766 4.3398 4.8281 3.4453 7.8867l-0.44141 1.125-26.871 53.742c-1.6602 3.3164-5.6953 4.6641-9.0117 3.0039-2.9492-1.4766-4.3398-4.8281-3.4492-7.8828l0.44531-1.1289 26.867-53.742c1.6602-3.3164 5.6953-4.6602 9.0156-3.0039zm-63.465 46.312c3.3008 0 6.043 2.3789 6.6094 5.5117l0.10938 1.207v6.7188c0 3.7109-3.0078 6.7148-6.7188 6.7148-3.2969 0-6.0391-2.375-6.6094-5.5078l-0.10547-1.207v-6.7188c0-3.7109 3.0078-6.7188 6.7148-6.7188zm60.457-6.7148c7.4219 0 13.438 6.0156 13.438 13.434 0 7.4219-6.0156 13.434-13.438 13.434-7.418 0-13.434-6.0117-13.434-13.434 0-7.418 6.0156-13.434 13.434-13.434zm-174.65 0.68359 0.019531 11.918c5.2812-1.3828 8.6719-4.2344 8.6719-6.6758 0-1.1797-1.5742-2.4961-5.5938-4.1016zm68.641-14.133h-13.008l-3.3555 13.434h13.004zm45.555-26.855c3.3008 0 6.043 2.375 6.6094 5.5078l0.10938 1.207v26.871c0 3.7109-3.0078 6.7188-6.7188 6.7188-3.2969 0-6.0391-2.3789-6.6094-5.5117l-0.10547-1.207v-26.871c0-3.707 3.0078-6.7148 6.7148-6.7148zm33.59 0c7.418 0 13.434 6.0156 13.434 13.434 0 7.4219-6.0156 13.434-13.434 13.434-7.4219 0-13.438-6.0117-13.438-13.434 0-7.418 6.0156-13.434 13.438-13.434zm-166.75 19.359c0 0.77344 1.1836 1.7656 4.1289 2.9922l1.4023 0.52734-0.007812-8.3594c-3.4258 1.1992-5.5234 3.1875-5.5234 4.8398zm92.855-167.14c-63.074 0-114.2 51.121-114.2 114.2 0 2.25 0.066406 4.4922 0.19531 6.7266h228c0.12891-2.2344 0.19531-4.4766 0.19531-6.7266 0-63.074-51.121-114.2-114.2-114.2zm-40.305 67.176c3.3008 0 6.043 2.375 6.6094 5.5078l0.10937 1.207v26.871c0 3.7109-3.0078 6.7188-6.7188 6.7188-3.2969 0-6.0391-2.3789-6.6094-5.5117l-0.10547-1.207v-26.871c0-3.707 3.0078-6.7148 6.7148-6.7148zm80.609 0c3.3008 0 6.043 2.375 6.6094 5.5078l0.10938 1.207v26.871c0 3.7109-3.0078 6.7188-6.7188 6.7188-3.2969 0-6.0391-2.3789-6.6094-5.5117l-0.10547-1.207v-26.871c0-3.707 3.0078-6.7148 6.7148-6.7148zm-100.76-26.871c20.094 0 35.652 7.7773 45.895 23.145 2.0586 3.0859 1.2266 7.2578-1.8633 9.3125-3.0859 2.0586-7.2578 1.2266-9.3125-1.8633-7.6719-11.504-18.984-17.16-34.719-17.16-3.707 0-6.7148-3.0078-6.7148-6.7148 0-3.7109 3.0078-6.7188 6.7148-6.7188zm120.92 0c3.707 0 6.7148 3.0078 6.7148 6.7188 0 3.707-3.0078 6.7148-6.7148 6.7148-15.734 0-27.047 5.6562-34.719 17.16-2.0547 3.0898-6.2266 3.9219-9.3125 1.8633-3.0898-2.0547-3.9219-6.2266-1.8633-9.3125 10.242-15.367 25.801-23.145 45.895-23.145z" fill="#00bac2"/>
 </g>
</svg>
