<?xml version="1.0" encoding="UTF-8"?>
<svg width="512pt" height="512pt" version="1.1" viewBox="0 0 512 512" xmlns="http://www.w3.org/2000/svg">
 <g>
  <rect width="512" height="512"/>
  <path d="m274.38 229.56h0.32422c0.96875 0 1.9336-0.64453 2.2578-1.9336 0-1.2891 0.64453-2.2578 1.6133-3.2227 1.2891-1.2891 2.2578-3.2227 2.5781-5.1602 0.32422-1.9336 0.32422-3.8711-0.32422-5.4805-0.64453-2.2578-0.32422-4.8359 1.2891-6.4492 2.5781-2.9023 3.2227-7.0938 2.2578-10.641-0.32422-0.96875-0.64453-2.2578-0.32422-3.5469 0.32422-1.2891 0.64453-2.2578 1.6133-2.9023 1.2891-1.2891 2.2578-3.2227 2.5781-5.1602 0.32422-1.2891-0.32422-2.5781-1.6133-2.9023-1.2891-0.32422-2.5781 0.32422-2.9023 1.6133v0.32422c-0.32422 1.2891-0.64453 2.2578-1.6133 3.2227-2.5781 2.9023-3.2227 7.0938-2.2578 10.641 0.32422 0.96875 0.64453 2.2578 0.32422 3.5469-0.32422 1.2891-0.64453 2.2578-1.6133 2.9023-1.2891 1.2891-2.2578 3.2227-2.5781 5.1602-0.32422 1.9336-0.32422 3.8711 0.32422 5.4805 0.64453 2.2578 0.32422 4.8359-1.2891 6.4492-1.2891 1.6133-2.2578 3.2227-2.5781 5.1602 0 1.6094 0.64453 2.5781 1.9336 2.8984z" fill="#00bac2"/>
  <path d="m318.55 240.2c0.32422 0.32422 0.64453 0.32422 1.2891 0.32422s1.6133-0.32422 1.9336-0.96875c0.64453-1.2891 1.6133-2.2578 2.9023-2.9023 1.6133-0.96875 3.2227-2.5781 4.1914-4.5156 0.96875-1.6133 1.6133-3.8711 1.9336-5.8047 0-1.2891 0.64453-2.9023 1.2891-3.8711 0.64453-1.2891 1.6133-2.2578 2.9023-2.9023 1.6133-0.96875 3.2227-2.5781 4.1914-4.1914 0.96875-1.6133 1.6133-3.8711 1.9336-5.8047 0.32422-2.9023 1.6133-5.4805 4.1914-6.7695 1.9336-0.96875 3.2227-2.5781 4.1914-4.5156 0.64453-0.96875 0.32422-2.5781-0.96875-3.2227-0.96875-0.64453-2.2578-0.32422-2.9023 0.64453-0.64453 1.2891-1.6133 2.2578-2.9023 2.9023-1.9336 0.96875-3.2227 2.5781-4.1914 4.5156-0.96875 1.6133-1.6133 3.8711-1.9336 5.8047 0 1.2891-0.64453 2.9023-1.2891 3.8711-0.64453 1.2891-1.6133 2.2578-2.9023 2.9023-1.6133 0.96875-3.2227 2.5781-4.1914 4.5156-0.96875 1.6133-1.6133 3.8711-1.9336 5.8047 0 1.2891-0.64453 2.9023-1.2891 3.8711-0.64453 1.2891-1.6133 2.2578-2.9023 2.9023-1.6133 0.96875-3.2227 2.5781-4.1914 4.1914-0.64453 1.2852-0.32031 2.5742 0.64844 3.2188z" fill="#00bac2"/>
  <path d="m221.5 200.22c1.6133 1.6133 1.9336 4.1914 1.2891 6.4492-1.2891 3.5469-0.32422 7.7383 2.2578 10.641 0.64453 0.96875 1.2891 1.9336 1.6133 2.9023 0.32422 1.2891 0.32422 2.2578-0.32422 3.5469-0.64453 1.9336-0.64453 3.8711-0.32422 5.4805 0.32422 0.96875 1.2891 1.9336 2.2578 1.9336h0.32422c1.2891-0.32422 1.9336-1.2891 1.9336-2.5781-0.32422-1.2891-0.32422-2.2578 0.32422-3.5469 1.2891-3.5469 0.32422-7.7383-2.2578-10.641-1.6133-1.6133-1.9336-4.1914-1.2891-6.4492 0.64453-1.9336 0.64453-3.8711 0.32422-5.4805-0.32422-1.9336-1.2891-3.5469-2.5781-5.1602-1.6133-1.6133-1.9336-4.1914-1.2891-6.4492 0.64453-1.9336 0.64453-3.8711 0.32422-5.4805-0.32422-1.2891-1.2891-1.9336-2.5781-1.6133-1.2891 0.32422-1.9336 1.2891-1.6133 2.5781 0.32422 0.96875 0.32422 2.2578-0.32422 3.2227-1.6172 3.875-0.65234 7.7422 1.9297 10.645z" fill="#00bac2"/>
  <path d="m318.55 249.55c-19.668-9.0273-40.949-13.543-62.555-12.898-21.602-0.32422-42.883 4.1914-62.555 12.898-17.41 8.707-27.73 20.312-29.02 32.891v0.64453c1.2891 12.574 11.609 24.504 29.02 32.891 19.668 9.0273 40.949 13.543 62.555 13.219 21.602 0.32422 42.883-4.1914 62.555-13.219 17.41-8.707 27.73-20.312 29.02-32.891v-0.64453c-1.293-12.578-11.609-24.508-29.02-32.891zm-40.949-7.0938c1.6133 0.32422 3.2227 0.32422 4.8359 0.64453v38.691c0-2.2578-0.32422-4.5156-0.96875-6.7695-0.32422-0.96875-1.2891-1.6133-2.2578-1.6133-0.64453 0-0.96875 0-1.6133 0.32422zm-14.512 36.438c-2.5781-1.6133-4.5156-4.1914-4.8359-7.418v-1.2891-1.2891c0.32422-2.9023 2.2578-5.8047 4.8359-7.0938zm-9.6719-6.7734c0.32422 3.5469 1.9336 7.0938 4.8359 9.3516 1.2891 1.2891 2.9023 2.2578 4.8359 2.9023 1.6133 0.64453 3.2227 0.96875 4.8359 0.96875 1.6133 0 3.2227-0.32422 4.8359-0.96875 1.9336-0.64453 3.5469-1.6133 4.8359-2.9023v1.2891 1.6133c-0.32422 4.5156-1.9336 8.707-4.8359 12.254-1.2891 1.6133-2.9023 3.2227-4.8359 4.1914-1.6133 0.96875-3.2227 1.9336-4.8359 2.2578-1.6133 0.64453-3.2227 0.96875-4.8359 0.96875h-2.2578-2.5781c-1.6133-0.32422-3.2227-0.64453-4.8359-1.2891-1.6133-0.64453-3.2227-1.6133-4.8359-2.5781-1.9336-1.2891-3.5469-2.9023-4.8359-4.5156-7.0938-9.6719-5.4805-23.215 4.1914-30.309 0.32422 0 0.32422-0.32422 0.64453-0.32422 1.6133-0.96875 3.2227-1.9336 4.8359-2.5781 1.6133-0.64453 3.2227-0.96875 4.8359-1.2891 0.96875 0 1.9336-0.32422 2.5781-0.32422h0.64453c-1.9336 2.2578-2.9023 5.1602-3.2227 8.0625v1.6133 1.6055zm14.508-30.629c1.6133 0 3.2227 0 4.8359 0.32422v37.402c-1.6133 0.96875-3.2227 1.2891-4.8359 1.2891zm-9.6719-0.64453h4.8359v16.121c-1.6133-0.32422-3.2227-0.64453-4.8359-0.96875zm-9.6719 0h4.8359v15.477c-1.6133 0-3.2227 0.32422-4.8359 0.96875zm-9.6758 0.64453 4.8359-0.32422v18.059c-1.6133 0.96875-3.2227 1.9336-4.8359 3.2227zm-61.906 57.07c-4.1914-4.1914-6.7695-9.9961-7.7383-15.801 0.96875-5.8047 3.5469-11.609 7.7383-15.801zm9.6719 8.0625c-1.6133-1.2891-3.2227-2.2578-4.8359-3.5469v-40.305-0.32422c1.6133-1.2891 3.2227-2.5781 4.8359-3.5469zm9.6719 5.8008-0.64453-0.32422c-1.2891-0.64453-2.9023-1.2891-4.1914-2.2578v-54.164c1.2891-0.64453 2.5781-1.6133 4.1914-2.2578l0.64453-0.32422zm9.6758 3.8711c-1.6133-0.64453-3.2227-1.2891-4.8359-1.9336v-63.523c1.6133-0.64453 3.2227-1.2891 4.8359-1.9336zm9.6719 3.2227-4.8359-1.2891v-70.938c1.6133-0.64453 3.2227-0.96875 4.8359-1.2891zm9.0273 2.2578c-1.2891-0.32422-2.5781-0.64453-3.8711-0.96875l0.003907-76.094 3.8711-0.96875zm9.3516 1.2891-4.5156-0.64453v-79.32c1.6133-0.32422 2.9023-0.32422 4.5156-0.64453v25.797c-5.8047 8.707-5.8047 20.312 0 29.344zm9.6719 1.2891c-1.6133 0-3.2227-0.32422-4.8359-0.32422v-20.957c1.6133 1.2891 3.2227 2.2578 4.8359 3.2227zm9.6758 0.32422h-4.8359v-16.121c1.6133 0.32422 3.2227 0.64453 4.8359 0.96875zm9.6719 0h-4.8359v-15.477c1.6133 0 3.2227-0.32422 4.8359-0.96875zm9.6719-0.64453-4.8359 0.32422v-17.734c1.6133-0.96875 3.2227-1.9336 4.8359-3.2227zm4.8398-0.64453v-25.473c2.9023-4.1914 4.8359-9.0273 4.8359-14.188v38.691c-1.2891 0.32422-3.2266 0.64453-4.8359 0.96875zm14.508-2.9023c-1.6133 0.32422-3.2227 0.64453-4.8359 0.96875v-77.711c1.6133 0.32422 3.2227 0.64453 4.8359 0.96875zm5.1602-1.2891v-72.871c1.6133 0.32422 3.2227 0.96875 4.8359 1.6133v69.969h0.32422c-1.9375 0.32031-3.5508 0.96484-5.1602 1.2891zm14.508-4.8359c-1.6133 0.64453-3.2227 1.2891-4.8359 1.9336v-67.066c1.6133 0.64453 3.2227 1.2891 4.8359 1.9336zm9.6758-4.8398c-1.6133 0.96875-3.2227 1.6133-4.8359 2.5781l-0.003906-58.68c1.6133 0.64453 3.2227 1.6133 4.8359 2.5781zm4.8359-3.2227v-47.074c1.6133 1.2891 3.2227 2.2578 4.8359 3.8711v39.66c-1.6133 1.2852-3.2266 2.2539-4.8359 3.543zm9.6719-8.707v-29.988c3.8711 4.1914 6.4492 9.3516 7.0938 15.156-0.64453 5.4805-3.2227 10.965-7.0938 14.832z" fill="#00bac2"/>
  <path d="m167.33 200.54c0 1.9336 0.64453 4.1914 1.9336 5.8047 0.96875 1.9336 2.5781 3.2227 4.1914 4.5156 1.2891 0.64453 2.2578 1.6133 2.9023 2.9023 0.64453 1.2891 1.2891 2.5781 1.2891 3.8711 0 1.9336 0.64453 4.1914 1.9336 5.8047 0.96875 1.9336 2.5781 3.2227 4.1914 4.5156 1.2891 0.64453 2.2578 1.6133 2.9023 2.9023 0.64453 1.2891 1.2891 2.5781 1.2891 3.8711 0 1.9336 0.64453 4.1914 1.9336 5.8047 0.32422 0.64453 1.2891 0.96875 1.9336 0.96875 0.32422 0 0.96875 0 1.2891-0.32422 0.96875-0.64453 1.6133-1.9336 0.96875-3.2227-0.64453-1.2891-1.2891-2.5781-1.2891-3.8711 0-1.9336-0.64453-4.1914-1.9336-5.8047-0.96875-1.9336-2.5781-3.2227-4.1914-4.5156-1.2891-0.64453-2.2578-1.6133-2.9023-2.9023s-1.2891-2.5781-1.2891-3.8711c0-1.9336-0.64453-4.1914-1.9336-5.8047-0.96875-1.9336-2.5781-3.2227-4.1914-4.5156-1.2891-0.64453-2.2578-1.6133-2.9023-2.9023s-1.2891-2.5781-1.2891-3.8711c0-1.9336-0.64453-4.1914-1.9336-5.8047-0.64453-0.96875-1.9336-1.6133-3.2227-0.96875-0.96875 0.64453-1.6133 1.9336-0.96875 3.2227 0.64453 1.2969 1.2891 2.5859 1.2891 4.1953z" fill="#00bac2"/>
  <path d="m391.75 217.31c-0.96875-0.96875-2.2578-0.96875-3.2227 0-1.2891 1.2891-2.9023 2.2578-4.5156 2.9023-2.2578 0.96875-3.8711 2.2578-5.4805 3.8711-1.6133 1.6133-2.9023 3.5469-3.8711 5.8047-0.64453 1.6133-1.6133 3.2227-2.9023 4.5156-1.2891 1.2891-2.5781 2.2578-4.5156 2.9023-2.2578 0.96875-4.1914 2.2578-5.8047 3.8711-1.6133 1.6133-2.9023 3.5469-3.8711 5.8047-1.2891 3.2227-4.1914 6.125-7.418 7.418-2.2578 0.96875-4.1914 2.2578-5.8047 3.8711-0.96875 0.96875-0.96875 2.2578 0 3.2227 0.32422 0.32422 0.96875 0.64453 1.6133 0.64453s1.2891-0.32422 1.6133-0.64453c1.2891-1.2891 2.9023-2.2578 4.5156-2.9023 4.1914-1.9336 7.7383-5.4805 9.6719-9.6719 1.2891-3.2227 3.8711-5.8047 7.0938-7.418 2.2578-0.96875 4.1914-2.2578 5.8047-3.8711 1.6133-1.6133 2.9023-3.5469 3.8711-5.8047 1.2891-3.2227 4.1914-6.125 7.418-7.418 2.2578-0.96875 4.1914-2.2578 5.8047-3.8711 0.96875-0.96875 0.96875-2.2617 0-3.2266z" fill="#00bac2"/>
  <path d="m164.43 259.87c-1.2891-1.2891-2.2578-2.9023-2.9023-4.5156-0.96875-2.2578-2.2578-4.1914-3.8711-5.8047s-3.5469-2.9023-5.8047-3.8711c-1.6133-0.64453-3.2227-1.6133-4.5156-2.9023-1.2891-1.2891-2.2578-2.5781-2.9023-4.5156-0.96875-2.2578-2.2578-4.1914-3.8711-5.8047s-3.5469-2.9023-5.8047-3.8711c-1.6133-0.64453-3.2227-1.6133-4.5156-3.2227-1.2891-1.2891-2.2578-2.9023-2.9023-4.5156-0.96875-2.2578-2.2578-4.1914-3.8711-5.8047-0.96875-0.96875-2.2578-0.96875-3.2227 0-0.96875 0.96875-0.96875 2.2578 0 3.2227 1.2891 1.2891 2.2578 2.9023 2.9023 4.5156 0.96875 2.2578 2.2578 4.1914 3.8711 5.8047 1.6133 1.6133 3.5469 2.9023 5.8047 3.8711 1.6133 0.64453 3.2227 1.6133 4.5156 2.9023 1.2891 1.2891 2.2578 2.5781 2.9023 4.5156 0.96875 2.2578 2.2578 4.1914 3.8711 5.8047 1.6133 1.6133 3.5469 2.9023 5.8047 3.8711 3.2227 1.2891 6.125 4.1914 7.418 7.418 0.96875 2.2578 2.2578 4.1914 3.8711 5.8047 0.32422 0.32422 0.96875 0.64453 1.6133 0.64453 0.64453 0 1.2891-0.32422 1.6133-0.64453 0.96094-0.32422 0.96094-1.9375-0.003906-2.9023v0z" fill="#00bac2"/>
 </g>
</svg>
