<?xml version="1.0" encoding="UTF-8"?>
<svg width="512pt" height="512pt" version="1.1" viewBox="0 0 512 512" xmlns="http://www.w3.org/2000/svg">
 <g>
  <rect width="512" height="512"/>
  <path d="m192.66 224.61c0.070312 0.13281 0.15625 0.25781 0.23438 0.39062 0.13672 0.23438 0.26953 0.47266 0.41797 0.69922 0.15234 0.22656 0.33203 0.45313 0.50391 0.67578 0.089844 0.11719 0.16797 0.23438 0.25781 0.34766 0.27344 0.33203 0.5625 0.65234 0.87109 0.96094 0.14844 0.14844 0.28906 0.27344 0.42188 0.38281h0.003907c5.2109 4.7617 13.27 4.4922 18.152-0.60938 4.8789-5.1016 4.793-13.164-0.19531-18.16-0.3125-0.3125-0.64062-0.60938-0.98047-0.88672-0.039062-0.035156-0.082031-0.058594-0.125-0.09375-0.30469-0.24219-0.61328-0.47266-0.93359-0.68359l-0.011718-0.007812v0.003906c-4.3086-2.8359-9.8828-2.8555-14.207-0.050781-0.03125 0.019531-0.0625 0.039062-0.097656 0.058593-0.28125 0.1875-0.55078 0.39063-0.82031 0.60156-0.078126 0.0625-0.16016 0.11328-0.23828 0.17578-0.27734 0.22656-0.53906 0.47266-0.80078 0.72266-0.058594 0.054688-0.11719 0.10156-0.17578 0.15625l0.003906 0.003907c-3.5938 3.582-4.7617 8.9297-2.9961 13.688 0.058594 0.16016 0.10547 0.32422 0.17188 0.48438 0.058594 0.14062 0.13281 0.27344 0.19141 0.41016 0.11719 0.24219 0.22266 0.49219 0.35156 0.73047zm16.215-1.3828c-2.3281 2.3203-5.9922 2.6133-8.6562 0.69531-2.1562-2.6445-1.9609-6.4922 0.44922-8.9023 2.4141-2.4102 6.2617-2.6016 8.9023-0.44141 1.9258 2.6641 1.6328 6.3281-0.69531 8.6523z" fill="#00bac2"/>
  <path d="m380.68 156.43-10.75-10.75c-2.7852-2.793-6.3359-4.6992-10.199-5.4805-3.8672-0.78125-7.8789-0.40625-11.527 1.0859-2.4453 0.99609-4.2266 3.1484-4.75 5.7344-0.52344 2.5859 0.28516 5.2617 2.1523 7.1289l1.0742 1.0742c-2.582 2.8438-3.8516 6.4648-3.8945 11.051l-29.48 29.48c-1.0977-0.26172-2.2109-0.44141-3.3359-0.53906l-10.469-10.469v-0.003906c-3.7461-3.7461-9.1914-5.2344-14.32-3.9141-5.1289 1.3203-9.1797 5.25-10.652 10.34-1.4727 5.0859-0.14844 10.574 3.4844 14.43l-22.008 22.004-22.004-22.004c3.625-3.8555 4.9453-9.3398 3.4727-14.422-1.4727-5.0859-5.5195-9.0156-10.645-10.336s-10.566 0.16406-14.312 3.9023l-10.457 10.457c-1.1328 0.097656-2.2617 0.27734-3.3672 0.54297l-28.773-28.773h-0.003906c0.019532-4.3555-1.6172-8.5547-4.5742-11.75l1.0703-1.0664c1.8633-1.8672 2.668-4.543 2.1484-7.1289-0.52344-2.5859-2.3047-4.7422-4.7461-5.7383-3.6523-1.4922-7.6641-1.8711-11.531-1.0898-3.8672 0.78516-7.4141 2.6914-10.199 5.4844l-10.754 10.75c-2.793 2.7852-4.7031 6.3359-5.4844 10.203-0.78125 3.8672-0.40234 7.8789 1.0898 11.531 0.99609 2.4414 3.1484 4.2227 5.7344 4.7461 2.5859 0.51953 5.2617-0.28516 7.1289-2.1523l1.0781-1.0742c2.8438 2.5781 6.4648 3.8477 11.047 3.8945l29.473 29.473c-0.26172 1.1055-0.44531 2.2266-0.54297 3.3594l-10.461 10.457 0.003906 0.003906c-3.6953 3.7539-5.1406 9.1719-3.8164 14.27 1.3281 5.0938 5.2344 9.1211 10.289 10.598 5.0547 1.4766 10.516 0.19141 14.379-3.3867l24.777 24.777c-1.5312 1.0352-3.1172 1.9922-4.75 2.8594-5.1836 2.7578-9.9258 6.2695-14.078 10.422l-17.375 17.375c-17.23 17.273-26.5 40.934-25.59 65.316 0.066407 1.6406 1.3828 2.957 3.0234 3.0234 1.1172 0.042969 2.2344 0.0625 3.3516 0.0625h-0.003906c23.238-0.023437 45.52-9.2461 61.969-25.656l17.379-17.375c4.1484-4.1484 7.6602-8.8945 10.418-14.074l0.007813-0.015626c1.6016-3 3.4844-5.8398 5.6289-8.4766 2.1484 2.6445 4.0352 5.4922 5.6367 8.4961 2.7578 5.1836 6.2656 9.9258 10.418 14.078l17.375 17.375c16.453 16.41 38.734 25.633 61.973 25.656 1.1133 0 2.2305-0.019531 3.3477-0.0625v-0.003907c1.6406-0.0625 2.957-1.3789 3.0234-3.0195 0.91016-24.383-8.3594-48.047-25.59-65.324l-17.379-17.379c-4.1445-4.1445-8.8828-7.6523-14.055-10.406l-0.019531-0.011718c-1.6289-0.87109-3.2109-1.8281-4.7422-2.8672l24.77-24.77c3.8555 3.625 9.3398 4.9492 14.426 3.4766 5.0859-1.4727 9.0117-5.5195 10.332-10.648 1.3242-5.125-0.16016-10.566-3.9023-14.312l-10.465-10.465c-0.10156-1.1289-0.28125-2.2461-0.54297-3.3477l28.781-28.781h0.019531c4.3477 0.011718 8.5391-1.625 11.73-4.582l1.0703 1.0703c1.8672 1.8672 4.543 2.6719 7.1289 2.1523 2.5859-0.52344 4.7383-2.3047 5.7344-4.75 1.4922-3.6523 1.8711-7.6641 1.0898-11.531-0.78125-3.8672-2.6914-7.4141-5.4844-10.203zm-94.961 69.484c2.3203 6.957 7.7773 12.414 14.73 14.734l-27.422 27.422v-0.003907c-3.293 3.3047-6.8672 6.3203-10.68 9.0117-8.2031 5.8047-15.363 12.957-21.176 21.16-0.011719 0.015624-0.023438 0.035156-0.035157 0.050781-2.6914 3.8086-5.707 7.3828-9.0078 10.676l-15.324 15.324c-12.617 12.617-27.449 22.133-41.441 26.711 4.5742-13.992 14.094-28.824 26.711-41.441l15.32-15.32v-0.003907c3.2969-3.3008 6.8711-6.3164 10.68-9.0117 8.2227-5.8125 15.395-12.988 21.211-21.211 2.6953-3.8086 5.7109-7.3828 9.0117-10.68zm10.082 4.6523c-3.2031-3.2031-5.0039-7.5508-5.0039-12.078 0-4.5312 1.8008-8.8789 5.0039-12.082s7.5469-5.0039 12.078-5.0039 8.875 1.8008 12.078 5.0039 5.0039 7.5508 5.0039 12.082c0 4.5273-1.8008 8.875-5.0039 12.078-3.2031 3.1992-7.5508 4.9961-12.078 4.9961s-8.875-1.7969-12.078-4.9961zm-13.031-41.371c1.625-1.6289 3.832-2.543 6.1367-2.543 2.3008 0 4.5078 0.91406 6.1328 2.543l6.7344 6.7344c-5.8516 1.5742-10.863 5.3672-13.965 10.574l-5.0391-5.0391c-3.3906-3.3906-3.3906-8.8828 0-12.273zm-52.676 69.977-18.52-18.52c6.9414-2.3359 12.395-7.7891 14.73-14.73l15.719 15.719c-3.4805 3.7539-6.457 7.9414-8.8594 12.457-0.92969 1.7461-1.957 3.4414-3.0703 5.0742zm-38.039-28.609v-0.003906c-3.7539-3.7539-5.5508-9.043-4.8555-14.309 0.69141-5.2656 3.793-9.9102 8.3945-12.562 4.5977-2.6562 10.172-3.0234 15.078-0.98828 4.9062 2.0312 8.5898 6.2305 9.9648 11.359s0.28516 10.609-2.9492 14.82c-3.2344 4.2148-8.2422 6.6836-13.555 6.6836-4.5312 0.011719-8.8789-1.7891-12.078-5.0039zm54.391 6.5977-18.938-18.941c-0.015625-1.832-0.24609-3.6523-0.6875-5.4297l2.7344-2.7305 21.996 21.996zm-29.48-47.961v-0.003906c3.3906-3.3906 8.8828-3.3906 12.273 0 3.3906 3.3867 3.3906 8.8828 0 12.273l-5.0234 5.0234 0.003906-0.003906c-0.99219-1.6523-2.1875-3.1758-3.5508-4.5391-2.8828-2.8945-6.4727-4.9766-10.414-6.0391zm-73.375-15.922c-0.53125-0.75781-1.375-1.2461-2.3008-1.3242-0.089844-0.007812-0.17969-0.011719-0.27344-0.011719-0.83594 0-1.6367 0.33203-2.2266 0.92188l-3.4453 3.4414c-0.375 0.37891-0.91406 0.53906-1.4336 0.42969-0.51953-0.097656-0.95312-0.45312-1.1445-0.94531-2.0938-5.1211-0.90234-10.996 3.0117-14.906l10.754-10.75c3.9062-3.9141 9.7852-5.1055 14.906-3.0117 0.49219 0.19141 0.84766 0.625 0.94531 1.1445 0.10938 0.51953-0.054687 1.0586-0.42969 1.4297l-3.4453 3.4453h0.003906c-0.66016 0.65625-0.99219 1.5703-0.91406 2.5 0.082031 0.92578 0.56641 1.7695 1.3281 2.3047 2.6836 1.8789 4.3906 4.8516 4.6562 8.1172 0.26953 3.2656-0.93359 6.4766-3.2734 8.7656-1.3359 1.2422-3.0352 2.0234-4.8516 2.2305-7.4102 0.97266-10.082-1.2422-11.867-3.7812zm16.113 9.1719c1.8711-0.67578 3.582-1.7422 5.0117-3.1211 1.4922-1.4609 2.7109-3.1758 3.5898-5.0664l24.031 24.027c-3.4688 2.0391-6.3594 4.9297-8.3945 8.3984zm21.277 63.68v0.003907c-3.5078 0-6.6719-2.1172-8.0156-5.3594-1.3438-3.2422-0.60156-6.9727 1.8789-9.4531l6.7227-6.7227c1.0625 3.9414 3.1445 7.5352 6.0391 10.414 1.3633 1.3672 2.8867 2.5586 4.5391 3.5508l-5.0273 5.0273c-1.625 1.6328-3.8359 2.5508-6.1367 2.543zm14.727-2.2266 2.7383-2.7383v0.003906c1.7773 0.4375 3.5977 0.66797 5.4258 0.6875l22.324 22.324c-1.5859 1.8125-3.2969 3.5156-5.1211 5.0938zm49.105 68.223-0.007813 0.011719v0.003906c-2.4609 4.625-5.5977 8.8633-9.3047 12.57l-17.379 17.375c-15.27 15.227-35.949 23.789-57.512 23.809h-0.14453c-0.019532-21.613 8.5469-42.352 23.809-57.656l17.375-17.375v-0.003907c3.7109-3.707 7.9492-6.8477 12.582-9.3086 10.43-5.5352 18.957-14.066 24.492-24.496 2.4648-4.6289 5.6016-8.8711 9.3125-12.578l34.418-34.418 2.7539 2.7539v-0.003906c-0.44141 1.7695-0.67188 3.582-0.69531 5.4023l-30.668 30.668c-3.5586 3.5547-6.8047 7.4023-9.707 11.508-5.3984 7.6328-12.059 14.293-19.691 19.691-4.1055 2.9023-7.9531 6.1484-11.504 9.707l-15.32 15.32c-15.023 15.023-25.918 33.148-29.883 49.727h-0.003906c-0.25391 1.0664 0.0625 2.1875 0.83594 2.9609 0.77344 0.77344 1.8945 1.0898 2.9609 0.83594 16.578-3.9688 34.703-14.863 49.727-29.883l15.324-15.324h-0.003906c3.5469-3.5391 6.7812-7.3711 9.6719-11.457 0.011718-0.015625 0.023437-0.03125 0.035156-0.046875v-0.003906c5.3984-7.6328 12.059-14.289 19.691-19.688 4.1016-2.9023 7.9531-6.1484 11.504-9.707l30.668-30.668c1.8203-0.019531 3.6328-0.25391 5.4023-0.69141l2.7461 2.7461-34.418 34.418c-3.707 3.707-7.9414 6.8398-12.566 9.3047l-0.015625 0.007813c-10.426 5.5352-18.953 14.066-24.484 24.492zm39.012-26.992 0.097657 0.070312 0.023437 0.015625-0.003906 0.003906c3.8086 2.6914 7.3828 5.707 10.676 9.0078l15.32 15.324c12.617 12.617 22.133 27.449 26.711 41.441-13.992-4.5742-28.824-14.094-41.438-26.711l-15.32-15.32c-3.3047-3.2969-6.3164-6.8672-9.0117-10.68-0.71094-1.0078-1.457-2-2.2188-2.9844 1.168-0.74219 2.3633-1.4453 3.5938-2.1016l0.011719-0.007813v0.003907c4.1602-2.2188 8.0391-4.9219 11.555-8.0586zm13.938-3.5977 0.019532 0.011719v0.003907c4.6289 2.4609 8.8672 5.6016 12.578 9.3086l17.375 17.379c15.262 15.305 23.828 36.043 23.809 57.656h-0.14062c-21.566-0.019532-42.246-8.5781-57.516-23.809l-17.375-17.375c-3.7109-3.7109-6.8477-7.9492-9.3125-12.582-1.9375-3.6406-4.25-7.0664-6.9023-10.227 1.043-1.0117 2.1328-1.9805 3.2578-2.9023 0.74609 0.95703 1.4766 1.9258 2.1719 2.9141 2.9023 4.1016 6.1484 7.9531 9.707 11.504l15.32 15.32c15.023 15.023 33.148 25.918 49.727 29.887 1.0664 0.25391 2.1875-0.0625 2.9609-0.83594 0.77344-0.77344 1.0898-1.8945 0.83594-2.9609-3.9688-16.578-14.863-34.703-29.883-49.727l-15.324-15.324v0.003906c-3.3008-3.3086-6.8633-6.3477-10.648-9.0898l3.0391-3.0391c2.0156 1.4258 4.1172 2.7227 6.2969 3.8867zm39.402-37.945c-3.3906 3.3867-8.8828 3.3867-12.27 0l-5.0273-5.0273h-0.003906c5.207-3.1055 9-8.1172 10.574-13.973l6.7266 6.7266c3.3828 3.3945 3.3828 8.8828 0 12.273zm-12.754-41.637c-1.418-1.418-3.0117-2.6484-4.7422-3.6562l24.242-24.242c0.67578 1.8711 1.7422 3.5781 3.1211 5.0117 1.4609 1.4922 3.1758 2.707 5.0664 3.5898l-24.031 24.031c-1.0117-1.7266-2.2383-3.3203-3.6562-4.7344zm54.832-26.164c-0.19531 0.49219-0.62891 0.84766-1.1484 0.94531-0.51562 0.10938-1.0547-0.054687-1.4297-0.42969l-3.4414-3.4453c-0.66016-0.65625-1.5742-0.98828-2.5-0.91016-0.92578 0.082031-1.7695 0.56641-2.3047 1.3281-1.8789 2.6836-4.8555 4.3906-8.1172 4.6562-3.2656 0.26953-6.4805-0.93359-8.7695-3.2773-1.2422-1.3359-2.0234-3.0352-2.2266-4.8477-0.97656-7.418 1.2383-10.086 3.7773-11.871 0.76172-0.53516 1.25-1.3789 1.3281-2.3047 0.082031-0.92578-0.25391-1.8398-0.91016-2.4961l-3.4453-3.4414v-0.003907c-0.375-0.375-0.53516-0.91016-0.42578-1.4297 0.09375-0.51953 0.45312-0.95312 0.94531-1.1484 5.1211-2.0898 10.996-0.89844 14.902 3.0195l10.75 10.75c3.918 3.9062 5.1055 9.7852 3.0156 14.906z" fill="#00bac2"/>
  <path d="m317.07 209.3c-5.0781-5.0703-13.309-5.0703-18.387 0-0.14453 0.14453-0.26953 0.28516-0.37891 0.41797-3.5117 3.8359-4.3945 9.3984-2.2422 14.137 2.1484 4.7344 6.9141 7.7305 12.117 7.6172 5.1992-0.11719 9.8281-3.3242 11.766-8.1523 1.9336-4.8281 0.80469-10.344-2.875-14.02zm-13.934 13.93 0.003907 0.003907c-2.2539-2.2578-2.5977-5.793-0.82422-8.4414 1.7734-2.6523 5.168-3.6836 8.1172-2.4609 2.9453 1.2188 4.6211 4.3516 4 7.4805-0.62109 3.1289-3.3672 5.3828-6.5547 5.3828-1.7773 0.007813-3.4844-0.69922-4.7383-1.9609z" fill="#00bac2"/>
 </g>
</svg>
