<?xml version="1.0" encoding="UTF-8"?>
<svg width="512pt" height="512pt" version="1.1" viewBox="0 0 512 512" xmlns="http://www.w3.org/2000/svg">
 <g>
  <rect width="512" height="512"/>
  <path d="m210.66 104.86h10.078v15.113h-10.078z" fill="#00bac2"/>
  <path d="m195.54 119.97h15.113v10.078h-15.113z" fill="#00bac2"/>
  <path d="m210.66 130.05h10.078v15.113h-10.078z" fill="#00bac2"/>
  <path d="m220.73 119.97h15.113v10.078h-15.113z" fill="#00bac2"/>
  <path d="m190.5 150.2h10.078v15.113h-10.078z" fill="#00bac2"/>
  <path d="m175.39 165.32h15.113v10.078h-15.113z" fill="#00bac2"/>
  <path d="m190.5 175.39h10.078v15.113h-10.078z" fill="#00bac2"/>
  <path d="m200.58 165.32h15.113v10.078h-15.113z" fill="#00bac2"/>
  <path d="m225.77 175.39c0 8.375 6.7383 15.113 15.113 15.113s15.113-6.7383 15.113-15.113-6.7383-15.113-15.113-15.113c-8.3125 0-15.113 6.8008-15.113 15.113zm15.113-5.0391c2.7695 0 5.0391 2.2656 5.0391 5.0391 0 2.7695-2.2656 5.0391-5.0391 5.0391-2.7695 0-5.0391-2.2656-5.0391-5.0391 0-2.7695 2.2656-5.0391 5.0391-5.0391z" fill="#00bac2"/>
  <path d="m165.32 150.2c8.375 0 15.113-6.7383 15.113-15.113s-6.7383-15.113-15.113-15.113c-8.3789 0-15.117 6.7383-15.117 15.113 0 8.3125 6.8008 15.113 15.117 15.113zm0-20.152c2.7695 0 5.0391 2.2656 5.0391 5.0391 0 2.7695-2.2656 5.0391-5.0391 5.0391-2.7695 0-5.0391-2.2656-5.0391-5.0391 0-2.7695 2.2656-5.0391 5.0391-5.0391z" fill="#00bac2"/>
  <path d="m155.24 185.47h10.078v10.078h-10.078z" fill="#00bac2"/>
  <path d="m240.89 135.09h10.078v10.078h-10.078z" fill="#00bac2"/>
  <path d="m376.35 377.54-9.0703-140.38c-0.37891-5.4141-2.457-10.645-5.9844-14.801l-20.973-24.496c-2.332-2.7695-3.6523-6.2344-3.6523-9.8242l0.003906-22.73c8.375 0 15.113-6.7383 15.113-15.113s-6.7383-15.113-15.113-15.113v-15.117c0-8.3125-6.8008-15.113-15.113-15.113h-30.23c-8.3125 0-15.113 6.8008-15.113 15.113v15.113c-8.375 0-15.113 6.7383-15.113 15.113s6.7383 15.113 15.113 15.113v22.797c0 3.5898-1.3242 7.1172-3.6523 9.8242l-20.973 24.496c-3.5273 4.1562-5.668 9.3203-5.9844 14.801l-2.832 43.707-3.2109-3.2109c-2.457-2.457-4.0312-5.7305-4.3438-9.1953l-3.7773-37.723c2.582-0.25 4.5352-2.457 4.5352-5.0391v-20.152c0-2.7695-2.2656-5.0391-5.0391-5.0391h-40.305c-2.7695 0-5.0391 2.2656-5.0391 5.0391v20.152c0 2.582 1.9531 4.7227 4.5352 5.0391l-3.7773 37.723c-0.37891 3.4648-1.8906 6.7383-4.3438 9.1953l-28.34 28.34c-5.4805 5.4141-8.125 13.098-7.1797 20.781l2.8984 24.812c-2.1406 1.0703-4.0312 2.6445-5.4141 4.5977l-6.0508 8.0625c-4.9141 6.7383-3.4023 16.184 3.3359 21.098l28.527 20.719c0.88281 0.62891 1.8906 0.94531 2.9609 0.94531h70.406c3.7773 0 7.4961-0.82031 10.895-2.457l-0.125 0.1875c3.2734 1.5117 6.8633 2.2656 10.453 2.2656h84.074c6.6758 0 13.098-2.6445 17.82-7.3672l2.7695-2.7695c5.1055-5.0391 7.75-12.156 7.3086-19.398zm-90.117-257.57c0-2.7695 2.2656-5.0391 5.0391-5.0391h30.23c2.7695 0 5.0391 2.2656 5.0391 5.0391v15.113h-40.305zm-15.117 30.227c0-2.7695 2.2656-5.0391 5.0391-5.0391h60.457c2.7695 0 5.0391 2.2656 5.0391 5.0391 0 2.7695-2.2656 5.0391-5.0391 5.0391h-60.457c-2.7695 0-5.0391-2.2656-5.0391-5.0391zm-75.57 60.457h30.23v10.078h-30.23zm-34.887 102.46 28.34-28.34c4.0938-4.0938 6.6758-9.5078 7.2422-15.305l3.8398-38.668h21.098l3.8398 38.668c0.56641 5.793 3.1484 11.211 7.2422 15.305l27.711 27.711c-3.3359 1.3242-5.543 3.6523-7.3047 5.4805-2.332 2.3945-3.4648 3.4648-6.0469 3.4648-2.582 0-3.7148-1.0703-6.0469-3.4648-2.6445-2.7695-6.2969-6.6133-13.289-6.6133s-10.645 3.7773-13.289 6.6133c-2.332 2.3945-3.4648 3.4648-6.0469 3.4648-2.582 0-3.7148-1.0703-6.0469-3.4648-2.6445-2.7695-6.2969-6.6133-13.289-6.6133s-10.645 3.7773-13.289 6.6133c-2.332 2.3945-3.4648 3.4648-6.0469 3.4648-2.582 0-3.7148-1.0703-6.0469-3.4648-1.1953-1.3242-2.5195-2.5195-3.9688-3.5898 0.64063-0.44531 1.0195-0.88672 1.3984-1.2617zm10.957 81.93-24.434-17.758c-2.2656-1.6367-2.7695-4.7852-1.1328-7.0547l5.918-8.125c0.75391-1.0703 1.9531-1.8281 3.2734-2.0156 0.25-0.0625 0.50391-0.0625 0.82031-0.0625 1.0703 0 2.0781 0.31641 2.9609 0.94531l24.434 17.758zm71.477 2.0156h-60.52l11.965-16.438c1.6367-2.2656 1.1328-5.4141-1.1328-7.0547l-28.527-20.719c-1.6992-1.2578-3.6523-2.0781-5.668-2.582l-2.8984-24.75c0-0.1875 0-0.31641-0.0625-0.50391 2.6445 2.7695 6.2969 6.4883 13.227 6.4883 6.9922 0 10.645-3.7773 13.289-6.6133 2.332-2.3945 3.4648-3.4648 6.0469-3.4648 2.582 0 3.7148 1.0703 6.0469 3.4648 2.6445 2.7695 6.2969 6.6133 13.289 6.6133 6.9922 0 10.645-3.7773 13.289-6.6133 2.332-2.3945 3.4648-3.4648 6.0469-3.4648s3.7148 1.0703 6.0469 3.4648c2.6445 2.7695 6.2969 6.6133 13.289 6.6133 6.9922 0 10.645-3.7773 13.289-6.6133 1.9531-2.0156 3.0234-3.0859 4.8477-3.4023 0.1875 1.3242 0.1875 2.6445 0.0625 3.9688l-6.8633 58.129c-0.89062 7.7461-7.3789 13.477-15.062 13.477zm118.77-7.1797-2.7695 2.7695c-2.832 2.832-6.6758 4.4102-10.707 4.4102h-84.012c-0.37891 0-0.69141 0-1.0703-0.0625 2.6445-3.5273 4.3438-7.7461 4.8477-12.156l6.8633-58.129c0.94531-7.6836-1.7617-15.305-7.1797-20.781l-15.617-15.617 3.4023-52.523c0.1875-3.2734 1.5117-6.3594 3.5898-8.8789l20.973-24.496c3.9062-4.5977 6.0469-10.391 6.0469-16.375v-22.73h40.305v22.797c0 5.9844 2.1406 11.84 6.0469 16.375l20.973 24.496c2.1406 2.5195 3.4023 5.6055 3.5898 8.8789l9.0703 140.38c0.30859 4.3438-1.2656 8.5625-4.3516 11.648z" fill="#00bac2"/>
  <path d="m314.19 225.77h-15.617c-12.531-0.0625-23.176 9.0039-25.191 21.348-1.6367 9.8867 2.6445 19.902 11.02 25.441l2.6445 1.7617 4.4727 13.477c0.69141 2.0781 2.582 3.4648 4.7852 3.4648h20.152c2.1406 0 4.0938-1.3867 4.7852-3.4648l4.4727-13.477 2.6445-1.7617c11.715-7.8086 14.926-23.68 7.1172-35.457-4.7852-7.0508-12.723-11.332-21.285-11.332zm8.5625 38.414-4.0938 2.707c-0.94531 0.62891-1.6367 1.5117-2.0156 2.582l-3.9062 11.652h-12.91l-3.9062-11.652c-0.37891-1.0703-1.0703-1.9531-2.0156-2.582l-3.8984-2.707c-7.1172-4.7227-9.0039-14.359-4.2812-21.477 2.8984-4.2812 7.6836-6.8633 12.91-6.8633h15.617c8.5664 0 15.492 6.9258 15.492 15.492-0.0625 5.1641-2.6445 10.012-6.9922 12.848z" fill="#00bac2"/>
  <path d="m291.27 245.93h10.078v10.078h-10.078z" fill="#00bac2"/>
  <path d="m311.42 245.93h10.078v10.078h-10.078z" fill="#00bac2"/>
  <path d="m322.95 297.75-16.562 16.625-16.562-16.625-7.1797 7.1797 16.625 16.562-16.625 16.562 7.1797 7.1797 16.562-16.625 16.562 16.625 7.1797-7.1797-16.629-16.562 16.629-16.562z" fill="#00bac2"/>
 </g>
</svg>
