<?xml version="1.0" encoding="UTF-8"?>
<svg width="512pt" height="512pt" version="1.1" viewBox="0 0 512 512" xmlns="http://www.w3.org/2000/svg">
 <g>
  <rect width="512" height="512"/>
  <path d="m237.66 311.42h-5.9453c-10.688 0-20.938-4.2461-28.496-11.805-7.5586-7.5586-11.809-17.809-11.809-28.5 0-2.7812 2.2578-5.0352 5.0391-5.0352h41.012c1.3359 0 2.6172 0.52734 3.5625 1.4727 0.94531 0.94531 1.4766 2.2266 1.4766 3.5625v35.27c0 2.7031-2.1367 4.9297-4.8398 5.0352zm-35.566-35.266c1.1836 7.0117 4.8047 13.383 10.223 17.992 5.418 4.6055 12.289 7.1562 19.398 7.1992h0.90625l0.003906-25.191z" fill="#00bac2"/>
  <path d="m307.74 359.38h-43.781c-1.4727 0-2.8711-0.64453-3.8281-1.7656-6.4492-7.457-3.1758-15.113-0.80469-20.605 2.3672-5.4922 2.9219-7.5586 0.80469-10.078v0.003906c-1.3125-1.4922-1.625-3.6172-0.79687-5.4219 0.82812-1.8086 2.6367-2.9609 4.625-2.9414h43.781c1.9805 0.023437 3.7617 1.2031 4.5547 3.0195 0.79297 1.8125 0.44922 3.9219-0.87891 5.3945-2.168 2.4688-1.5117 4.5859 0.80469 10.078 2.3164 5.4922 5.6445 13.148-0.80469 20.605v-0.003906c-0.92969 1.0625-2.2656 1.6836-3.6758 1.7148zm-41.059-10.078h38.34c0.65625-1.9141 0-4.1328-1.9141-8.3125h-0.003906c-1.9648-3.793-2.9375-8.0234-2.8203-12.293h-28.867c0.078125 4.2734-0.91016 8.4961-2.8711 12.293-1.7656 4.1836-2.4688 6.3984-1.8672 8.3125z" fill="#00bac2"/>
  <path d="m338.42 376.91h-105.14c-1.7383 0.003907-3.3594-0.89062-4.2812-2.3672-0.98047-1.5117-1.0742-3.4336-0.25-5.0391 3.0664-6.082 7.7734-11.191 13.582-14.75 5.8125-3.5586 12.5-5.4297 19.316-5.4023h48.418-0.003906c6.8086-0.03125 13.492 1.8398 19.293 5.3984 5.8047 3.5625 10.5 8.6719 13.555 14.754 0.83594 1.5664 0.78516 3.4609-0.13672 4.9766-0.91797 1.5195-2.5703 2.4414-4.3477 2.4297zm-95.32-10.074h85.648c-4.9492-4.8125-11.586-7.4883-18.488-7.457h-48.617c-6.918-0.035156-13.574 2.6406-18.543 7.457z" fill="#00bac2"/>
  <path d="m334.04 328.7h-96.379c-2.7812 0-5.0352-2.2539-5.0352-5.0391v-52.547c0-2.7812 2.2539-5.0352 5.0352-5.0352h140.16c1.6719-0.003906 3.2344 0.82422 4.1758 2.207 0.9375 1.3828 1.1289 3.1406 0.51172 4.6953l-8.7656 21.914c-0.67969 1.6953-2.2227 2.8906-4.0312 3.125l-30.633 3.8281v21.816-0.003906c0 1.3398-0.53125 2.6211-1.4766 3.5625-0.94531 0.94531-2.2266 1.4766-3.5625 1.4766zm-91.34-10.078 86.305 0.003906v-21.211c-0.023437-2.5469 1.8594-4.707 4.3828-5.0391l32.145-4.0312 5.0391-12.242h-127.87z" fill="#00bac2"/>
  <path d="m219.42 217.26c-1.4062 0.023438-2.7578-0.54297-3.7266-1.5625l-22.922-22.922c-1.9531-1.9648-1.9531-5.1406 0-7.1055 1.9648-1.9531 5.1367-1.9531 7.1016 0l22.926 22.926c1.9531 1.9648 1.9531 5.1367 0 7.1016-0.88672 0.93359-2.0938 1.4922-3.3789 1.5625z" fill="#00bac2"/>
  <path d="m244.21 230.81c-0.84375 0.003906-1.6758-0.20312-2.418-0.60156l-24.738-13.402c-0.51172-0.28906-0.97266-0.66406-1.3594-1.1094l-22.922-22.922c-0.35938-0.33984-0.66406-0.73047-0.90625-1.1602l-13.402-24.738c-1.082-1.9648-0.73438-4.4102 0.85547-5.9922l24.383-24.383v-0.003906c1.5859-1.5898 4.0312-1.9375 5.9961-0.85547l24.738 13.402c0.53125 0.30078 1.0117 0.69141 1.4102 1.1562l22.973 22.973v0.003906c0.33594 0.34375 0.625 0.73438 0.85938 1.1562l13.402 24.738h-0.003906c1.082 1.9648 0.73438 4.4102-0.85547 5.9961l-24.383 24.383c-0.98047 0.91797-2.2852 1.4102-3.6289 1.3594zm-21.715-22.672 20.809 11.234 19.094-18.789-11.438-21.059-21.914-21.914-20.809-11.285-18.891 18.992 11.234 20.906z" fill="#00bac2"/>
  <path d="m169.75 261.04h-5.6953c-1.3203-0.007812-2.5898-0.53125-3.5273-1.4609l-11.387-11.387c-0.92969-0.9375-1.4531-2.207-1.4609-3.5273v-5.6914c-0.007813-1.3398 0.51953-2.6289 1.4609-3.5781l46.402-46.402c1.9648-1.9531 5.1406-1.9531 7.1055 0l17.027 17.027v0.003907c1.9531 1.9648 1.9531 5.1367 0 7.1016l-46.402 46.453c-0.9375 0.92969-2.2031 1.4531-3.5234 1.4609zm-3.5781-10.078h1.5117l41.363-41.363-10.078-10.078-41.211 41.367v1.5117z" fill="#00bac2"/>
 </g>
</svg>
