<?xml version="1.0" encoding="UTF-8"?>
<svg width="512pt" height="512pt" version="1.1" viewBox="0 0 512 512" xmlns="http://www.w3.org/2000/svg">
 <g>
  <rect width="512" height="512"/>
  <path d="m282.05 243.07c-0.46094-0.84375-0.44141-1.8711 0.050781-2.6992 0.49219-0.82812 1.3828-1.3359 2.3477-1.3359h6.2969c2.4648 0.003906 4.7305 1.3516 5.9062 3.5195l1.4102 2.5938 10.41-19.203-69.242 0.003907-8.0234 14.801v-0.003906c-0.48047 0.87891-1.3984 1.4258-2.4023 1.4258-1 0-1.9219-0.54688-2.4023-1.4258l-3.3008-6.0898h0.003906c-1.0898-1.9961-1.0898-4.4102 0-6.4102l1.2578-2.2969h-20.844l35.715 65.848h14.297-0.003906c0.96484 0 1.8555 0.50781 2.3477 1.3359 0.49219 0.82813 0.51172 1.8516 0.050782 2.6992l-2.9961 5.5117c-1.1758 2.1641-3.4414 3.5156-5.9062 3.5195h-0.6875l9.6602 17.836 34.637-63.828z" fill="#00bac2"/>
  <path d="m256 106.68c-82.469 0-149.32 66.855-149.32 149.32s66.855 149.32 149.32 149.32 149.32-66.824 149.32-149.32-66.824-149.32-149.32-149.32zm0 269.71c-66.383 0-120.39-54.008-120.39-120.39s54.008-120.39 120.39-120.39 120.39 54.008 120.39 120.39-54.008 120.39-120.39 120.39z" fill="#00bac2"/>
  <path d="m256 148.7c-59.164 0-107.3 48.141-107.3 107.3 0 59.168 48.141 107.3 107.3 107.3 59.168 0 107.3-48.105 107.3-107.3s-48.105-107.3-107.3-107.3zm51.207 140.75c-1.082-1.9961-1.082-4.4062 0-6.4023l3.3047-6.0898c0.48047-0.88281 1.4023-1.4297 2.4023-1.4297 1.0039 0 1.9258 0.54687 2.4023 1.4297l9.9141 18.262c1.4609 2.7148 0.84375 6.082-1.4922 8.0938-1.2344 1.0352-2.7969 1.5938-4.4102 1.5742h-38.766l-18.797 34.637h-0.003906c-1.1445 2.1094-3.3516 3.418-5.75 3.418-2.3984 0-4.6055-1.3086-5.75-3.418l-36.328-66.918-10.41 19.195h2.0586c2.4648 0.003906 4.7305 1.3516 5.9062 3.5195l3.0039 5.5352c0.45703 0.84766 0.43359 1.875-0.058594 2.6992-0.49219 0.82812-1.3828 1.3359-2.3477 1.3398h-19.559c-2.8359-0.003906-5.3477-1.8281-6.2305-4.5234-0.54297-1.7891-0.33203-3.7266 0.59375-5.3516l19.598-36.141-19.711-36.344v-0.003906c-1.4688-2.7109-0.85156-6.0781 1.4844-8.0898 1.2344-1.0352 2.8008-1.5938 4.4102-1.5742h72.988l-9.6602-17.812-0.62891 1.2109c-1.1758 2.1641-3.4453 3.5117-5.9062 3.5117h-6.3008c-0.96094 0-1.8516-0.50781-2.3438-1.3359-0.49219-0.82812-0.51562-1.8516-0.058593-2.6992l9.4453-17.363c0.89453-1.7031 2.4727-2.9492 4.3398-3.418 2.8711-0.67578 5.8438 0.65234 7.2539 3.25l18.797 34.637h38.758c1.6094-0.019531 3.1719 0.53906 4.4062 1.5742 2.3359 2.0117 2.957 5.3789 1.4922 8.0898l-37.578 69.273h20.828z" fill="#00bac2"/>
 </g>
</svg>
