<?xml version="1.0" encoding="UTF-8"?>
<svg width="512pt" height="512pt" version="1.1" viewBox="0 0 512 512" xmlns="http://www.w3.org/2000/svg">
 <g>
  <rect width="512" height="512"/>
  <path d="m256.04 116.57c-76.906 0-139.48 62.57-139.48 139.48 0 76.863 62.57 139.39 139.48 139.39 76.863 0 139.39-62.527 139.39-139.39 0-76.906-62.527-139.48-139.39-139.48zm0 272.86c-73.594 0-133.42-59.824-133.42-133.38 0-73.594 59.867-133.42 133.42-133.42s133.38 59.867 133.38 133.42c0.003906 73.504-59.867 133.38-133.38 133.38z" fill="#00bac2"/>
  <path d="m256.04 144.19c-61.656 0-111.85 50.152-111.85 111.85 0 61.656 50.152 111.81 111.85 111.81 61.656 0 111.81-50.152 111.81-111.81-0.042968-61.699-50.195-111.85-111.81-111.85zm0 217.6c-58.344 0-105.79-47.449-105.79-105.75 0-58.344 47.449-105.79 105.79-105.79 58.301 0 105.75 47.449 105.75 105.79 0 58.301-47.449 105.75-105.75 105.75z" fill="#00bac2"/>
  <path d="m349.86 243.19c-0.69531-1.8281-2.3086-3.0938-4.2695-3.3125l-8.1484-0.82812-3.9648-7.2773c-0.95703-1.6992-2.5703-2.7031-4.707-2.6562-1.9609 0.085937-3.6602 1.2617-4.4453 3.0508l-3.3555 7.5391-8.0625 1.4805c-1.918 0.34766-3.4414 1.7422-4.0078 3.6602-0.52344 1.875 0.042969 3.8789 1.5234 5.1836l6.1445 5.4883-1.0898 8.1484c-0.26172 1.9609 0.60938 3.8359 2.2227 4.9219 0.87109 0.56641 1.875 0.87109 2.832 0.87109 0.87109 0 1.7422-0.21875 2.5703-0.69531l7.1445-4.1406 7.4961 3.5312c1.7852 0.82812 3.8359 0.60938 5.3594-0.60938 1.5234-1.2188 2.2227-3.1797 1.8281-5.0977l-1.7422-8.0625 5.6641-6.0117c1.3125-1.3516 1.707-3.3555 1.0078-5.1836zm-11.461 7.4922c-1.1328 1.2188-1.6133 2.918-1.2617 4.5742l1.4375 6.7109-6.2305-2.9648c-1.4805-0.69531-3.2695-0.65234-4.75 0.17578l-5.9258 3.4414 0.91406-6.7969c0.21875-1.6562-0.39062-3.3125-1.6562-4.4883l-5.0977-4.6172 6.7109-1.2188c1.6562-0.30469 3.0508-1.3945 3.7461-2.9648l2.7891-6.3164 3.3125 6.0547c0.82813 1.4805 2.3086 2.4844 3.9648 2.6562l6.7969 0.74219z" fill="#00bac2"/>
  <path d="m317.66 220.75c1.7852 0.82812 3.8359 0.60938 5.3594-0.60938s2.2227-3.1797 1.8281-5.0547l-1.7422-8.0625 5.6641-6.0117c1.3516-1.4375 1.7422-3.4414 1.0898-5.2734-0.69531-1.8281-2.3086-3.0938-4.2695-3.3125l-8.1484-0.82812-3.9648-7.2773c-0.95703-1.6992-2.7031-2.875-4.707-2.6562-1.9609 0.085938-3.6602 1.2188-4.4883 3.0508l-3.3555 7.5391-8.0625 1.4805c-1.918 0.34766-3.4414 1.7422-3.9648 3.6602-0.52344 1.875 0.042969 3.8789 1.4805 5.1836l6.1484 5.4922-1.0898 8.1914c-0.26172 1.9609 0.60938 3.8359 2.2227 4.9219 0.87109 0.56641 1.8281 0.87109 2.832 0.87109 0.87109 0 1.7422-0.21875 2.5703-0.69531l7.1445-4.0977zm-10.066-8.9766-5.9258 3.4414 0.91406-6.7969c0.21875-1.6562-0.39062-3.3125-1.6562-4.4883l-5.0977-4.6172 6.7109-1.2188c1.6562-0.30469 3.0508-1.3945 3.7461-2.9648l2.7891-6.2734 3.3125 6.0547c0.82813 1.4805 2.3086 2.4414 3.9648 2.6133l6.7969 0.69531-4.707 4.9688c-1.1758 1.2188-1.6562 2.9648-1.3086 4.6172l1.4375 6.7109-6.2305-2.9648c-1.5195-0.69141-3.3086-0.64844-4.7461 0.22266z" fill="#00bac2"/>
  <path d="m199.09 241.19-8.0625-1.4805-3.3555-7.5391c-0.78516-1.7852-2.5273-2.9648-4.4883-3.0508-2.0039-0.042969-3.7461 0.95703-4.707 2.6562l-3.9648 7.2773-8.1484 0.82812c-1.9609 0.17578-3.5742 1.4805-4.2695 3.3125-0.69531 1.8281-0.26172 3.8789 1.0898 5.2734l5.6641 6.0117-1.7422 8.0625c-0.4375 1.918 0.26172 3.8789 1.7852 5.0977 1.5234 1.2188 3.5742 1.4805 5.3594 0.60938l7.4961-3.5312 7.1445 4.1406c0.78516 0.48047 1.6562 0.69531 2.5703 0.69531 1.0039 0 1.9609-0.30469 2.832-0.87109 1.6133-1.0898 2.4844-2.9648 2.2227-4.9219l-1.0898-8.1484 6.1445-5.5352c1.4375-1.3086 2.0469-3.3125 1.4805-5.1836-0.47266-1.9609-2-3.3555-3.9609-3.7031zm-8.0156 10.195c-1.2617 1.1328-1.875 2.7891-1.6562 4.4453l0.91406 6.7969-5.9258-3.4414c-0.78516-0.4375-1.6562-0.69531-2.5703-0.69531-0.74219 0-1.4805 0.17578-2.1797 0.48047l-6.2305 2.9648 1.4375-6.7109c0.34766-1.6562-0.12891-3.3555-1.2617-4.6172l-4.75-4.9336 6.7969-0.69531c1.6562-0.17578 3.1367-1.1328 3.9648-2.6133l3.3125-6.0547 2.7891 6.2734c0.69531 1.5703 2.0898 2.6562 3.7461 2.9648l6.7109 1.2617z" fill="#00bac2"/>
  <path d="m214.34 221.14c1.6133-1.0898 2.4844-2.9648 2.2227-4.9219l-1.0898-8.1484 6.1445-5.5352c1.4375-1.3086 2.0039-3.3125 1.4805-5.1836-0.52344-1.875-2.0469-3.2695-4.0078-3.6172l-8.0625-1.4805-3.3555-7.5391c-0.78516-1.7852-2.5273-2.9648-4.4453-3.0508-1.7852-0.085937-3.7461 0.91406-4.707 2.6562l-3.9648 7.2773-8.1484 0.82812c-1.9609 0.17578-3.5742 1.4805-4.2695 3.3125-0.69531 1.8281-0.26172 3.8789 1.0898 5.3164l5.6641 6.0117-1.7422 8.0625c-0.39062 1.918 0.30469 3.8789 1.8281 5.0977 1.5234 1.2188 3.5742 1.4375 5.3594 0.60938l7.4961-3.5312 7.1445 4.0977c0.78516 0.48047 1.6992 0.69531 2.5703 0.69531 0.96484-0.085937 1.9219-0.39062 2.793-0.95703zm-4.8789-12.766 0.91406 6.7969-5.9258-3.4414c-0.78516-0.4375-1.6562-0.69531-2.5703-0.69531-0.74219 0-1.4805 0.17578-2.1797 0.48047l-6.2305 2.9648 1.4375-6.7109c0.34766-1.6562-0.12891-3.3555-1.2617-4.6172l-4.707-5.0117 6.7969-0.69531c1.6562-0.17578 3.1367-1.1758 3.9648-2.6133l3.3125-6.0547 2.7891 6.2734c0.69531 1.5703 2.0898 2.6562 3.7461 2.9648l6.7109 1.2617-5.1406 4.6172c-1.2656 1.168-1.875 2.8242-1.6562 4.4805z" fill="#00bac2"/>
  <path d="m286.68 270.82c-4.4883 0-8.4961 2.0469-11.242 5.1836h-4.0977l4.8789-91.547c0.042968-0.65234-0.17578-1.3516-0.52344-1.875l-17.211-24.617c-0.56641-0.82813-1.4805-1.3086-2.4844-1.3086s-1.918 0.48047-2.4844 1.3086l-17.211 24.617c-0.39062 0.56641-0.56641 1.2188-0.52344 1.875l4.8789 91.547h-4.0977c-2.7461-3.1367-6.7539-5.1836-11.242-5.1836-8.2773 0-14.988 6.7109-14.988 14.988 0 8.2344 6.7109 14.988 14.988 14.988 4.4883 0 8.4531-2.0039 11.199-5.1406h5.2734v38.781c0 7.8008 6.3633 14.203 14.203 14.203 7.8438 0 14.16-6.3633 14.16-14.203v-38.781h5.2734c2.7461 3.1367 6.7539 5.1406 11.242 5.1406 8.2344 0 14.988-6.7109 14.988-14.988 0.007812-8.2812-6.7031-14.988-14.98-14.988zm-61.352 23.922c-4.9219 0-8.9336-4.0078-8.9336-8.9336 0-4.9219 4.0078-8.9336 8.9336-8.9336 4.9219 0 8.9336 4.0078 8.9336 8.9336 0 4.9219-4.0078 8.9336-8.9336 8.9336zm30.676-129.8 14.117 20.262-4.8359 90.805h-18.605l-4.8359-90.805zm8.1484 169.45c0 4.4883-3.6602 8.1484-8.1484 8.1484-4.4453 0-8.0156-3.5312-8.1484-7.9297l16.297-10.109zm0-16.992-16.297 10.152v-11.156l16.297-10.152zm0-18.258-16.297 10.152v-13.637h16.297zm3.0938-9.543h-0.085938-0.085938-22.137-0.085938-0.085937-5.0117c0.30469-1.2188 0.52344-2.4844 0.52344-3.7891 0-1.3086-0.21875-2.5273-0.52344-3.7461h32.504c-0.30469 1.2188-0.52344 2.4414-0.52344 3.7461 0 1.3086 0.21875 2.5703 0.52344 3.7891zm19.434 5.1445c-4.9219 0-8.9336-4.0078-8.9336-8.9336 0-4.9219 4.0078-8.9336 8.9336-8.9336 4.9219 0 8.9336 4.0078 8.9336 8.9336 0 4.9219-4.0117 8.9336-8.9336 8.9336z" fill="#00bac2"/>
 </g>
</svg>
