<?xml version="1.0" encoding="UTF-8"?>
<svg width="512pt" height="512pt" version="1.1" viewBox="0 0 512 512" xmlns="http://www.w3.org/2000/svg">
 <defs>
  <clipPath id="a">
   <path d="m117 94.781h278v322.44h-278z"/>
  </clipPath>
 </defs>
 <rect width="512" height="512"/>
 <g clip-path="url(#a)">
  <path d="m390.64 180.61v-0.15234c-0.066406-0.17188-0.14453-0.33984-0.22656-0.50391l-0.22656-0.40234-0.30078-0.40234-0.30078-0.37891-0.35156-0.32812-0.37891-0.30078-0.42969-0.27734-0.40234-0.22656-0.48047-0.17578-0.45312-0.15234h-4.4609c0.38672-6.5586-0.46875-13.129-2.5195-19.371-3.8164-11.234-11.137-20.945-20.883-27.711-2.4141-1.6406-4.5977-3.5977-6.5-5.8164-6.043-8.0352-19.32-13.832-30.957-18.945l-5.543-2.5195c-13.125-5.918-31.109-11.738-42.344-5.4414-17.984 10.078-15.113 24.863-13.125 34.66v0.003906c0.55078 2.3516 0.89844 4.7422 1.0312 7.1523-0.085938 5.1094-0.47266 10.207-1.1562 15.266-0.52344 3.75-0.83594 7.5273-0.93359 11.312 0.11328 3.8086 0.5625 7.6016 1.3359 11.336h-10.531c0.78516-3.7422 1.2383-7.543 1.3594-11.363-0.089844-3.7812-0.39063-7.5586-0.90625-11.309-0.68359-5.0625-1.0703-10.16-1.1562-15.266 0.13281-2.4102 0.48047-4.8047 1.0312-7.1523 1.8906-9.6484 4.8125-24.562-13.176-34.641-11.234-6.2969-29.246-0.50391-42.344 5.4922l-5.543 2.5195c-11.637 5.0391-24.836 10.906-30.91 18.941l0.003907 0.003906c-1.8398 2.1016-4.043 3.8594-6.5 5.1875-6.0977 3.8789-14.461 9.168-20.605 25.492-2.5195 6.8789-2.5195 15.695-2.293 22.219h-4.9648l-0.52734 0.20312-0.35156 0.20312-0.48047 0.30078-0.32812 0.27734-0.32422 0.57812-0.30078 0.35156-0.30078 0.40234-0.22656 0.40234-0.003906 0.003906c-0.085937 0.16016-0.16016 0.32812-0.22656 0.5v0.15234c-4.2578 12.293-5.8945 34.613-1.4609 49.172 6.2461 19.727 13.223 39.148 19.395 56.328 9.5234 26.477 17.633 49.375 17.633 59.324 0.10156 71.664 60.359 71.664 80.156 71.664h37.785c29.348 0 50.027-6.6016 63.277-20.152 11.688-11.965 17.332-29.371 16.75-51.691-0.25-10.078 8.7656-34.965 18.34-61.312 6.0469-16.676 12.898-35.57 18.715-54.133 4.4648-14.562 2.7773-36.906-1.3789-49.324zm-46-50.129c2.4414 2.9805 5.293 5.6016 8.4648 7.7852 8.2539 5.5547 14.449 13.672 17.633 23.098 1.5898 5.1133 2.2188 10.477 1.8633 15.82h-17.23c-0.16797-2.3047-0.16797-4.6211 0-6.9297 0.25-6.9766 0.55469-15.695-6.8789-22.117h0.003906c-4.8555-3.7148-10.25-6.6719-15.996-8.7656-3.375-1.4375-8.4883-3.5781-9.2969-4.7852-1.082-3.1797-0.97266-6.6406 0.30469-9.75 0.89844-2.3125 2.5586-4.25 4.7109-5.4883 6.8242 3.3984 13.426 7.1523 16.422 11.133zm-32.594-18.312 5.668 2.5195h0.17578c-1.6836 1.8828-3.0234 4.0469-3.957 6.3984-2.3086 5.6992-2.3086 12.078 0 17.781 2.1406 4.5859 7.8828 7.0039 14.508 9.8008h0.003907c4.7109 1.7266 9.1523 4.1094 13.199 7.0781 3.6016 3.125 3.6289 7.4062 3.4023 14.156h-0.003906c-0.13672 2.4336-0.13672 4.8711 0 7.3047h-27.711 0.003906c-0.38281-0.60156-0.89062-1.1172-1.4883-1.5117l-0.85547-0.57812c1.8125-3.9062 4.7852-8.793 7.9609-10.078 1.4102-0.55469 2.9492-0.88281 3.7266 0.75391v0.003907c0.46484 1.293 1.4375 2.3398 2.6914 2.9023 1.2539 0.55859 2.6836 0.58203 3.957 0.0625 1.2695-0.51953 2.2773-1.5352 2.7812-2.8125 0.50391-1.2773 0.46484-2.707-0.10938-3.957-1.3164-3.1289-3.8633-5.5742-7.043-6.7695-3.1797-1.1914-6.707-1.0195-9.7578 0.47266-5.7188 2.293-9.7734 8.1133-12.242 12.848-2.0195-1.9102-3.5156-4.3047-4.3594-6.9531-0.24609-3.3594-0.12891-6.7383 0.35547-10.074 0.93359-10.078 2.0898-22.672-5.2148-28.918-1.1328-0.98438-2.2656-2.0156-3.4023-3.0742-4.7344-4.4102-10.629-9.8516-18.188-11.613 0.8125-0.58203 1.6523-1.1211 2.5195-1.6133 5.8438-3.1992 18.289-1.0078 33.379 5.8711zm-42.27 53.703c0.10156-3.3711 0.38672-6.7344 0.85547-10.074 0.73438-5.4453 1.1484-10.93 1.2344-16.426-0.11328-3.0625-0.51562-6.1055-1.2109-9.0938-1.0898-4.1016-1.4336-8.3711-1.0078-12.594 6.0469-1.0586 10.984 2.9492 17.961 9.3438 1.2344 1.1328 2.5195 2.2422 3.6289 3.2734 3.4023 2.9492 2.5195 13.453 1.7891 20.379-0.22656 2.5195-0.40234 4.6367-0.50391 6.6758v0.003907c-2.4375-0.17969-4.7734-1.0547-6.7266-2.5195-1.6562-2.2422-4.8125-2.7148-7.0547-1.0586-2.2383 1.6562-2.7109 4.8125-1.0586 7.0547 3.6523 5.0391 11.715 6.375 16.574 6.8008h0.003906c1.7383 3.6133 4.1406 6.8672 7.0781 9.5977h-30.23c-0.76172-3.7422-1.207-7.543-1.332-11.363zm-59.703 11.387c2.9023-2.6328 5.3086-5.7617 7.1055-9.2422 5.0391 0 13.375-1.1094 17.027-7.707v-0.003907c1.2109-2.418 0.29687-5.3594-2.0742-6.668-2.3672-1.3047-5.3438-0.50781-6.7422 1.8086-0.80469 1.4609-3.5 2.1914-6.3242 2.5195 0-2.2148-0.30078-4.6367-0.52734-7.2539-0.62891-6.9531-1.6133-17.457 1.7891-20.402 1.2109-1.0312 2.5195-2.1406 3.6289-3.2734 6.9531-6.3984 11.914-10.402 17.961-9.3438l-0.003906-0.007812c0.42578 4.2227 0.085937 8.4922-1.0078 12.594-0.69141 2.9883-1.0977 6.0312-1.207 9.0938 0.070313 5.4766 0.46484 10.945 1.1836 16.375 0.46875 3.3398 0.75391 6.7031 0.85547 10.078-0.19141 3.8281-0.70313 7.6406-1.5352 11.383zm-10.578-65.09c15.113-6.8789 27.508-9.0703 33.25-5.8711 0.86719 0.49219 1.707 1.0312 2.5195 1.6133-7.3789 1.7617-13.352 7.2031-18.137 11.613-1.1602 1.0586-2.2656 2.0898-3.4023 3.0742-7.3047 6.3242-6.1445 18.867-5.2148 28.945v-0.003906c0.48438 3.3359 0.60156 6.7148 0.35156 10.078-0.84766 2.6367-2.3477 5.0195-4.3555 6.9258-2.5195-4.7344-6.5234-10.555-12.219-12.82-3.0586-1.5273-6.6133-1.7148-9.8164-0.52344-3.207 1.1953-5.7695 3.6641-7.0859 6.8203-0.52344 1.2422-0.52734 2.6406-0.011719 3.8867 0.51562 1.2422 1.5078 2.2305 2.7578 2.7383 2.5547 1.0469 5.4727-0.15625 6.5508-2.6953 0.83203-1.7617 2.3945-1.4375 3.7773-0.88281 3.1758 1.2852 6.1719 6.1719 7.9609 10.078-0.93359 0.62891-1.8906 1.2344-2.8984 1.8398l-0.40234 0.30078h-26.727c0.14062-2.4609 0.14062-4.9219 0-7.3828-0.25-6.75-0.20313-11.035 3.4023-14.156h-0.003906c4.0859-2.9766 8.5742-5.3633 13.328-7.0781 6.6484-2.7969 12.367-5.2148 14.508-9.8008 2.3125-5.7031 2.3125-12.082 0-17.781-0.92969-2.3203-2.2617-4.4609-3.9297-6.3242h0.17578zm-58.293 46.449c5.0391-13.176 10.855-16.93 16.551-20.531 3.4922-1.9297 6.5898-4.4922 9.1445-7.5547 2.9961-3.9805 9.5977-7.7344 16.602-11.109 2.1484 1.2422 3.8086 3.1797 4.707 5.4922 1.2617 3.082 1.3789 6.5117 0.32812 9.6719-0.85547 1.2852-5.9688 3.4258-9.3438 4.8633-5.7461 2.0898-11.141 5.0469-15.996 8.7656-7.4297 6.4219-7.1055 15.113-6.8789 22.117 0.17969 2.3398 0.17969 4.6875 0 7.0273h-16.75c-0.125-5.793-0.30078-13.602 1.6367-18.742zm241.1 68.266c-5.7695 18.363-12.594 37.129-18.566 53.707-10.73 29.648-19.219 53.051-18.918 65.016 0.48047 19.496-4.1797 34.434-13.906 44.387-11.258 11.562-29.57 17.156-56.07 17.156h-37.785c-32.57 0-69.953-7.0039-69.953-61.641 0-11.715-8.0859-34.234-18.34-62.723-6.1211-17.027-13.074-36.352-19.145-55.871-3.375-10.855-2.5195-28.363 0.20312-39.523h252.18c2.8906 11.078 3.6992 28.66 0.29688 39.52z" fill="#00bac2"/>
 </g>
 <path d="m205.97 284.01c1.0234 0.082031 2.0391 0.125 3.0469 0.125 8.6992-0.015625 17.078-3.2812 23.492-9.1602 6.4141-5.875 10.398-13.938 11.172-22.605l0.95703-10.984v0.003906c0.43359-5-3.2617-9.4102-8.2656-9.8516l-20.152-1.7617-41.891-3.6797c-5-0.43359-9.4102 3.2617-9.8477 8.2656l-0.95703 10.984v-0.003906c-0.82031 9.207 2.0547 18.363 7.9883 25.449 5.9336 7.0859 14.441 11.523 23.648 12.336zm-7.3828-45.645 11.766 1.0312-0.30078 3.4492v0.003906c-0.28516 3.2461-3.1523 5.6484-6.3984 5.3633-3.25-0.28516-5.6523-3.1484-5.3672-6.3984zm-25.039 7.9102 0.88281-10.078 14.133 1.2344-0.32812 3.4531c-0.37109 4.2227 0.95312 8.418 3.6797 11.664 2.7266 3.2461 6.6328 5.2773 10.855 5.6406h1.4102c3.9922-0.003906 7.8398-1.5039 10.781-4.2031s4.7656-6.4023 5.1133-10.383l0.30078-3.4492 14.133 1.2344-0.88281 10.078 0.003906-0.003906c-0.58594 6.5312-3.7344 12.566-8.7578 16.777-5.0234 4.2109-11.516 6.2617-18.047 5.6953l-10.809-0.95703h0.003907c-6.5195-0.58594-12.539-3.7227-16.75-8.7305-4.2109-5.0078-6.2656-11.48-5.7227-18z" fill="#00bac2"/>
 <path d="m347.54 234.39c-0.44141-5-4.8477-8.6992-9.8516-8.2617l-20.152 1.7617-41.891 3.6523c-5 0.44141-8.6992 4.8516-8.2617 9.8516l0.95703 10.984v-0.003906c0.76172 8.668 4.7383 16.738 11.148 22.621 6.4102 5.8828 14.789 9.1523 23.488 9.1719 1.0078 0 2.0391 0 3.0469-0.125l10.809-0.95703v-0.003906c9.207-0.8125 17.715-5.25 23.648-12.336 5.9336-7.0859 8.8086-16.242 7.9883-25.449zm-33.832 7.4062c0.14062 1.5586-0.34766 3.1133-1.3555 4.3125-1.0039 1.1992-2.4492 1.9531-4.0078 2.0859-1.5625 0.13281-3.1094-0.35547-4.3086-1.3594-1.2031-1.0039-1.957-2.4453-2.0898-4.0078l-0.30078-3.4492 11.762-1.0078zm2.2656 31.234-10.809 0.95703h0.003906c-6.5312 0.56641-13.023-1.4805-18.047-5.6914-5.0234-4.2109-8.1719-10.246-8.7539-16.777l-0.88281-10.078 14.133-1.2344 0.30078 3.4492v0.003906c0.34766 3.9805 2.1719 7.6836 5.1133 10.383 2.9414 2.6992 6.7891 4.1992 10.781 4.2031h1.4102c4.2344-0.36328 8.1484-2.4023 10.875-5.6562 2.7266-3.2578 4.0469-7.4688 3.6602-11.699l-0.30078-3.4492 14.133-1.2344 0.88281 10.078-0.003906-0.003906c0.55469 6.5273-1.5039 13.008-5.7188 18.023-4.2188 5.0117-10.25 8.1523-16.773 8.7266z" fill="#00bac2"/>
 <path d="m317.24 343.39h-16.777v-10.906c0-2.7852-2.2539-5.0391-5.0391-5.0391-2.7812 0-5.0352 2.2539-5.0352 5.0391v10.906h-29.348v-10.906c0-2.7852-2.2578-5.0391-5.0391-5.0391s-5.0391 2.2539-5.0391 5.0391v10.906h-29.344v-10.906c0-2.7852-2.2578-5.0391-5.0391-5.0391-2.7852 0-5.0391 2.2539-5.0391 5.0391v10.906h-16.777c-2.7812 0-5.0391 2.2539-5.0391 5.0391 0 2.7812 2.2578 5.0352 5.0391 5.0352h16.777v10.859c0 2.7812 2.2539 5.0391 5.0391 5.0391 2.7812 0 5.0391-2.2578 5.0391-5.0391v-10.906l29.344-0.003906v10.91c0 2.7812 2.2578 5.0391 5.0391 5.0391s5.0391-2.2578 5.0391-5.0391v-10.906l29.348-0.003906v10.91c0 2.7812 2.2539 5.0391 5.0352 5.0391 2.7852 0 5.0391-2.2578 5.0391-5.0391v-10.906h16.777v-0.003906c2.7812 0 5.0391-2.2539 5.0391-5.0352 0-2.7852-2.2578-5.0391-5.0391-5.0391z" fill="#00bac2"/>
 <path d="m235.85 308.9c0 1.3398 0.53125 2.6211 1.4766 3.5625 0.94531 0.94531 2.2266 1.4766 3.5625 1.4766h30.227c2.7852 0 5.0391-2.2539 5.0391-5.0391 0-2.7812-2.2539-5.0352-5.0391-5.0352h-30.227c-2.7812 0-5.0391 2.2539-5.0391 5.0352z" fill="#00bac2"/>
</svg>
