<?xml version="1.0" encoding="UTF-8"?>
<svg width="512pt" height="512pt" version="1.1" viewBox="0 0 512 512" xmlns="http://www.w3.org/2000/svg">
 <g>
  <rect width="512" height="512"/>
  <path d="m245.93 296.3v-20.152c0-4.0078-1.5938-7.8516-4.4297-10.688-2.832-2.8359-6.6758-4.4258-10.688-4.4258h-20.152c-4.0078 0-7.8516 1.5898-10.688 4.4258-2.832 2.8359-4.4258 6.6797-4.4258 10.688v20.152c0 4.0078 1.5938 7.8516 4.4258 10.688 2.8359 2.8359 6.6797 4.4258 10.688 4.4258h20.152c4.0117 0 7.8555-1.5898 10.688-4.4258 2.8359-2.8359 4.4297-6.6797 4.4297-10.688zm-10.078 0c0 1.3359-0.53125 2.6172-1.4766 3.5625-0.94531 0.94531-2.2266 1.4766-3.5625 1.4766h-20.152c-2.7812 0-5.0352-2.2578-5.0352-5.0391v-20.152c0-2.7812 2.2539-5.0391 5.0352-5.0391h20.152c1.3359 0 2.6172 0.53125 3.5625 1.4766 0.94531 0.94531 1.4766 2.2266 1.4766 3.5625z" fill="#00bac2"/>
  <path d="m281.19 311.42h20.152c4.0078 0 7.8516-1.5898 10.688-4.4258 2.832-2.8359 4.4258-6.6797 4.4258-10.688v-20.152c0-4.0078-1.5938-7.8516-4.4258-10.688-2.8359-2.8359-6.6797-4.4258-10.688-4.4258h-20.152c-4.0078 0-7.8555 1.5898-10.688 4.4258-2.8359 2.8359-4.4258 6.6797-4.4258 10.688v20.152c0 4.0078 1.5898 7.8516 4.4258 10.688 2.832 2.8359 6.6797 4.4258 10.688 4.4258zm-5.0391-35.266c0-2.7812 2.2578-5.0391 5.0391-5.0391h20.152c1.3359 0 2.6172 0.53125 3.5625 1.4766 0.94531 0.94531 1.4766 2.2266 1.4766 3.5625v20.152c0 1.3359-0.53125 2.6172-1.4766 3.5625-0.94531 0.94531-2.2266 1.4766-3.5625 1.4766h-20.152c-2.7812 0-5.0391-2.2578-5.0391-5.0391z" fill="#00bac2"/>
  <path d="m270.86 319.9c-0.6875-2.0586-2.6133-3.4453-4.7812-3.4453h-20.152c-2.1719 0-4.0977 1.3867-4.7812 3.4453l-4.375 13.098v0.003906c-1.8359 5.5039-0.91406 11.555 2.4766 16.262s8.8398 7.4961 14.645 7.4961h4.2227-0.003906c5.8047 0.003906 11.254-2.7812 14.648-7.4883 3.3945-4.7031 4.3203-10.758 2.4844-16.262zm-12.75 26.785h-4.2227 0.003906c-2.5625 0-4.9648-1.2305-6.4648-3.3086-1.4961-2.0781-1.9023-4.75-1.0938-7.1758l3.2227-9.668h12.887l3.2188 9.6562h0.003906c0.8125 2.4297 0.40625 5.1016-1.0898 7.1836-1.4961 2.0781-3.9023 3.3125-6.4648 3.3125z" fill="#00bac2"/>
  <path d="m256 140.12c4.0078 0 7.8516-1.5938 10.688-4.4297 2.8359-2.832 4.4258-6.6758 4.4258-10.684 0.003907-4.2812-1.2617-8.4688-3.6406-12.027l-7.2812-10.922c-0.98828-1.3242-2.543-2.1016-4.1914-2.1016s-3.2031 0.77734-4.1914 2.1016l-7.2812 10.922c-2.375 3.5586-3.6445 7.7461-3.6406 12.027 0 4.0078 1.5898 7.8516 4.4258 10.684 2.8359 2.8359 6.6797 4.4297 10.688 4.4297zm-3.0898-21.547 3.0898-4.6523 3.0898 4.6367c1.2734 1.9062 1.9531 4.1523 1.9492 6.4492 0 2.7812-2.2578 5.0352-5.0391 5.0352s-5.0391-2.2539-5.0391-5.0352c0-2.293 0.67969-4.5312 1.9492-6.4336z" fill="#00bac2"/>
  <path d="m317.75 355.95c-0.94141-2.4453-1.2188-5.0938-0.80469-7.6797 0.41797-2.5859 1.5078-5.0195 3.1641-7.0469 12.281-14.957 19.691-33.316 21.234-52.609 1.543-19.293-2.8594-38.598-12.605-55.316-0.90625-1.5391-2.5586-2.4844-4.3438-2.4844h-3.4062c-1.4805-7.2539-6.0742-13.492-12.566-17.055-6.4922-3.5625-14.227-4.0859-21.141-1.4336-0.32422-0.50391-0.69531-0.97656-1.0547-1.457l0.003906-40.754c-0.011719-3.0742-0.95312-6.0742-2.707-8.5977-1.75-2.5273-4.2266-4.4648-7.1016-5.5547l-25.645-9.6211c-3.3281-1.2383-6.9414-1.4961-10.414-0.74609-3.4727 0.75391-6.6523 2.4883-9.168 4.9922-3.4844 3.4609-5.4414 8.1758-5.4258 13.086v47.195c-0.35938 0.48047-0.73047 0.94531-1.0547 1.457-6.9141-2.6523-14.648-2.1289-21.141 1.4297-6.4922 3.5625-11.09 9.8008-12.57 17.059h-3.4102c-1.7852 0-3.4375 0.94531-4.3438 2.4844-9.7461 16.719-14.148 36.023-12.605 55.316 1.5391 19.289 8.9492 37.648 21.227 52.609 1.6602 2.0273 2.7539 4.457 3.168 7.0469 0.41406 2.5859 0.13672 5.2344-0.80469 7.6797l-2.332 6.2266c-2.3984 6.3945-1.7109 13.535 1.8594 19.352 4.2656 6.668 11.684 10.641 19.598 10.504h2.332v5.0391c0 4.0078 1.5938 7.8516 4.4258 10.688 2.8359 2.8359 6.6797 4.4258 10.688 4.4258h50.383c4.0078 0 7.8516-1.5898 10.688-4.4258 2.832-2.8359 4.4258-6.6797 4.4258-10.688v-5.0391h2.332c7.9141 0.13672 15.328-3.8398 19.594-10.504 3.5703-5.8164 4.2578-12.957 1.8594-19.352zm-66.793-198.77 10.078 3.7773v9.4023c0 2.7852-2.2578 5.0391-5.0391 5.0391s-5.0391-2.2539-5.0391-5.0391zm-12.645 0.53516c0.74609-0.71484 1.6172-1.2812 2.5703-1.6758v14.32c0 5.4023 2.8789 10.391 7.5547 13.09 4.6797 2.6992 10.441 2.6992 15.117 0 4.6758-2.6992 7.5547-7.6875 7.5547-13.09v-5.6211l1.7695 0.66406c1.9648 0.73828 3.2695 2.6172 3.2695 4.7148v32.645c-3.168-1.4219-6.6016-2.1602-10.074-2.1719-3.4766 0-6.9141 0.74219-10.078 2.1758-3.1641-1.4336-6.6016-2.1758-10.074-2.1758-3.4766 0.011719-6.9062 0.75-10.078 2.1719v-39.086c-0.003906-2.2383 0.88281-4.3828 2.4688-5.9609zm-22.621 63.027c3.0156-0.003906 5.9609 0.89844 8.4609 2.5898 1.293 0.86719 2.918 1.0859 4.3945 0.59375 1.4766-0.49609 2.6445-1.6445 3.1602-3.1133 1.5-4.2148 4.7891-7.5508 8.9844-9.1055 4.1953-1.5586 8.8633-1.1758 12.75 1.043 1.5664 0.91406 3.5039 0.91406 5.0703 0 3.8828-2.2188 8.5547-2.6016 12.75-1.043 4.1953 1.5547 7.4844 4.8906 8.9844 9.1055 0.51562 1.4688 1.6797 2.6172 3.1602 3.1133 1.4766 0.49219 3.1016 0.27344 4.3945-0.59375 3.8711-2.6367 8.7461-3.3203 13.191-1.8516 4.4453 1.4648 7.9531 4.918 9.4961 9.3359h-25.125c-7.2383-0.019532-14.188 2.8555-19.289 7.9922-3.2383 3.2188-5.0508 7.5977-5.0391 12.16 0 2.7852-2.2578 5.0391-5.0391 5.0391s-5.0391-2.2539-5.0391-5.0391c0.011718-4.5625-1.8008-8.9414-5.0352-12.16-5.1055-5.1367-12.055-8.0117-19.293-7.9922h-25.125c1.0391-2.9336 2.957-5.4805 5.5-7.2852 2.5391-1.8008 5.5742-2.7773 8.6875-2.7891zm96.691 114.02c-2.8008 3.3984-4.6523 7.4727-5.3672 11.816-0.71484 4.3438-0.26562 8.8008 1.3008 12.914l2.332 6.2266c1.3086 3.4961 0.92578 7.4023-1.0352 10.578-2.4336 3.6602-6.5859 5.8008-10.98 5.6641h-7.3711c-2.7812 0-5.0352 2.2539-5.0352 5.0391v10.078-0.003906c0 1.3359-0.53125 2.6172-1.4766 3.5625-0.94531 0.94531-2.2266 1.4766-3.5625 1.4766h-5.0391v-20.152h-10.074v20.152h-20.152v-20.152h-10.078v20.152h-5.0391c-2.7812 0-5.0352-2.2578-5.0352-5.0391v-10.074c0-1.3359-0.53125-2.6172-1.4766-3.5625-0.94531-0.94531-2.2266-1.4766-3.5625-1.4766h-7.3711c-4.3906 0.14062-8.543-1.9961-10.977-5.6523-1.9609-3.1797-2.3477-7.082-1.0391-10.582l2.332-6.2227c2.8789-7.6133 1.8633-16.156-2.7188-22.887h9.6953c0.99609 0 1.9688-0.29688 2.7969-0.84766l15.113-10.078-5.5938-8.3828-13.828 9.2344h-15.469 0.003907c-8.082-12.715-12.629-27.348-13.18-42.402-0.54688-15.051 2.9219-29.98 10.055-43.246h36.094c4.5625-0.015625 8.9453 1.8008 12.16 5.0391 1.3398 1.332 2.0898 3.1484 2.0781 5.0352 0 5.4023 2.8789 10.391 7.5547 13.09 4.6797 2.6992 10.441 2.6992 15.117 0 4.6758-2.6992 7.5547-7.6875 7.5547-13.09-0.003906-1.8906 0.74609-3.7031 2.0859-5.0352 3.2227-3.2383 7.6016-5.0508 12.168-5.0391h36.094c12.695 23.676 13.477 51.953 2.1016 76.293l-28.848 9.6172c-2.0586 0.68359-3.4453 2.6055-3.4492 4.7734v13.027l-13.637 13.637 7.125 7.125 15.113-15.113c0.94531-0.94141 1.4766-2.2227 1.4766-3.5586v-11.484l14.359-4.7852c-1.0742 1.4648-2.1445 2.9375-3.3164 4.3359z" fill="#00bac2"/>
 </g>
</svg>
