<?xml version="1.0" encoding="UTF-8"?>
<svg width="512pt" height="512pt" version="1.1" viewBox="0 0 512 512" xmlns="http://www.w3.org/2000/svg">
 <g>
  <rect width="512" height="512"/>
  <path d="m375.47 229.49-21.336-74.695h-79.703v-5.7461c0-10.164-8.2656-18.43-18.43-18.43-10.16 0-18.426 8.2656-18.426 18.43v6.4297h-79.715l-21.328 74.691 101.04 0.003906v30.207h-79.711l-21.328 74.691h101.04v39.141h-23.484v7.1641h83.82v-7.1641h-23.477v-39.82h101.04l-21.336-74.691-79.703-0.003906v-30.207zm-101.04-67.531h74.301l17.242 60.367h-91.543zm-36.859 165.95h-91.543l17.238-60.363h74.305zm0-104.9h-91.543l17.238-60.363 74.305 0.003907zm29.695 151.21h-22.531v-225.16c0-6.2148 5.0508-11.266 11.262-11.266 6.2148 0 11.266 5.0508 11.266 11.266zm81.465-107.35 17.242 60.363-91.543-0.003907v-60.359z" fill="#00bac2"/>
 </g>
</svg>
