<?xml version="1.0" encoding="UTF-8"?>
<svg width="512pt" height="512pt" version="1.1" viewBox="0 0 512 512" xmlns="http://www.w3.org/2000/svg">
 <defs>
  <clipPath id="a">
   <path d="m123 94.781h266v322.44h-266z"/>
  </clipPath>
 </defs>
 <rect width="512" height="512"/>
 <path d="m305.94 120.29h-25.379c-2.1406 0-4.2188-0.37891-6.1719-1.1953l-9.6367-3.8398c-1.0703-0.44141-2.2031-0.44141-3.2734-0.0625l-29.535 10.012c-2.332 0.82031-4.9141 1.0703-7.3672 0.75391l-44.59-5.3516c-0.56641-0.0625-1.1328-0.0625-1.6992 0.125l-32.055 8.0625c-2.0781 0.50391-3.5898 2.3945-3.5898 4.5977v260.22c0 2.582 2.1406 4.7227 4.7227 4.7227h28.402c0.44141 0 0.82031-0.0625 1.1953-0.1875l37.156-9.8867c0.62891-0.1875 1.1953-0.44141 1.6992-0.82031l25.566-19.965c4.2812-3.3359 9.8867-4.4102 15.113-2.832l60.27 18.199c0.88281 0.25 1.8906 0.25 2.7695 0l46.539-14.422c1.9531-0.62891 3.3359-2.457 3.3359-4.5352l0.007813-245.48c0-2.582-2.1406-4.7227-4.7227-4.7227h-31.363c-0.44141 0-0.82031 0.0625-1.1953 0.1875l-21.789 5.8555c-1.5156 0.37891-2.9609 0.56641-4.4102 0.56641zm27.961 2.8359h26.008v237.29l-41.816 12.973-58.883-17.758c-8.125-2.457-16.941-0.82031-23.68 4.4102l-24.812 19.398-35.578 9.4414h-23.051v-251.84l27.645-6.9922 43.707 5.2891c3.8398 0.44141 7.8711 0.0625 11.523-1.1953l27.898-9.4453 8.0625 3.2109c3.0859 1.2578 6.3594 1.8281 9.6367 1.8281h25.379c2.2656 0 4.5977-0.31641 6.8008-0.88281z" fill="#00bac2"/>
 <g clip-path="url(#a)">
  <path d="m381.01 94.781h-49.879c-0.62891 0-1.2578 0.0625-1.8906 0.25l-23.555 6.3594h-24.688l-14.863-5.918c-1.5742-0.62891-3.4023-0.69141-5.0391-0.125l-34.762 11.84-47.043-5.668c-0.88281-0.125-1.7617-0.0625-2.6445 0.1875l-47.422 11.965c-3.207 0.69531-5.4727 3.5938-5.4727 6.9297v289.38c0 3.9688 3.2734 7.2422 7.2422 7.2422h46.918c0.62891 0 1.2578-0.0625 1.8906-0.25l42.445-11.273c0.94531-0.25 1.8281-0.69141 2.582-1.3242l27.27-21.348 63.984 19.27c1.3867 0.44141 2.832 0.44141 4.2188 0l46.098-13.855c0.62891-0.1875 1.1953-0.50391 1.6992-0.94531l15.051-4.6602c3.0234-0.94531 5.1016-3.7148 5.1016-6.9258v-273.88c0-3.9688-3.2734-7.2422-7.2422-7.2422zm-2.2031 60.457v219.16l-30.418 9.3828c-0.50391 0.1875-1.0078 0.37891-1.3867 0.69141l-28.844 8.6289-64.426-19.398c-2.2656-0.69141-4.7227-0.1875-6.5508 1.1953l-27.836 21.789-41.75 11.086h-44.398v-285.47l45.344-11.398 47.168 5.668c1.0703 0.125 2.2031 0 3.2109-0.31641l34.449-11.715 14.484 5.793c0.88281 0.31641 1.7617 0.50391 2.707 0.50391h25.379c0.62891 0 1.2578-0.0625 1.8906-0.25l23.555-6.3594h47.422z" fill="#00bac2"/>
 </g>
 <path d="m334.72 188.36c2.582 0 4.7227-2.1406 4.7227-4.7227v-13.855c0-2.582-2.1406-4.7227-4.7227-4.7227s-4.7227 2.1406-4.7227 4.7227v13.855c0 2.582 2.1406 4.7227 4.7227 4.7227z" fill="#00bac2"/>
 <path d="m238.87 165.06c-2.582 0-4.7227 2.1406-4.7227 4.7227v13.855c0 2.582 2.1406 4.7227 4.7227 4.7227 2.582 0 4.7227-2.1406 4.7227-4.7227v-13.855c0-2.582-2.1406-4.7227-4.7227-4.7227z" fill="#00bac2"/>
 <path d="m297 165.06c-2.582 0-4.7227 2.1406-4.7227 4.7227v13.855c0 2.582 2.1406 4.7227 4.7227 4.7227 2.582 0 4.7227-2.1406 4.7227-4.7227v-13.855c0.003906-2.582-2.1406-4.7227-4.7227-4.7227z" fill="#00bac2"/>
 <path d="m177.28 165.06c-2.582 0-4.7227 2.1406-4.7227 4.7227v13.855c0 2.582 2.1406 4.7227 4.7227 4.7227s4.7227-2.1406 4.7227-4.7227v-13.855c0-2.582-2.1406-4.7227-4.7227-4.7227z" fill="#00bac2"/>
 <path d="m304.24 183.64c0 2.582 2.1406 4.7227 4.7227 4.7227h12.469c2.582 0 4.7227-2.1406 4.7227-4.7227v-13.855c0-2.582-2.1406-4.7227-4.7227-4.7227-2.582 0-4.7227 2.1406-4.7227 4.7227v9.1328h-7.7461c-2.5781 0-4.7227 2.1406-4.7227 4.7227z" fill="#00bac2"/>
 <path d="m282.7 165.75h-13.855c-2.582 0-4.7227 2.1406-4.7227 4.7227 0 2.582 2.1406 4.7227 4.7227 4.7227h9.1328v7.75c0 2.582 2.1406 4.7227 4.7227 4.7227s4.7227-2.1406 4.7227-4.7227v-12.469c0-2.6484-2.1406-4.7266-4.7227-4.7266z" fill="#00bac2"/>
 <path d="m253.1 187.67h15.68c2.582 0 4.7227-2.1406 4.7227-4.7227s-2.1406-4.7227-4.7227-4.7227h-10.957v-7.7461c0-2.582-2.1406-4.7227-4.7227-4.7227-2.582 0-4.7227 2.1406-4.7227 4.7227v12.469c0 2.6445 2.1406 4.7227 4.7227 4.7227z" fill="#00bac2"/>
 <path d="m222.12 165.75h-13.855c-2.582 0-4.7227 2.1406-4.7227 4.7227 0 2.582 2.1406 4.7227 4.7227 4.7227h9.1328v7.75c0 2.582 2.1406 4.7227 4.7227 4.7227 2.582 0 4.7227-2.1406 4.7227-4.7227v-12.469c0.003906-2.6484-2.0742-4.7266-4.7227-4.7266z" fill="#00bac2"/>
 <path d="m192.58 187.67h15.68c2.582 0 4.7227-2.1406 4.7227-4.7227s-2.1406-4.7227-4.7227-4.7227h-10.957v-7.7461c0-2.582-2.1406-4.7227-4.7227-4.7227s-4.7227 2.1406-4.7227 4.7227v12.469c0 2.6445 2.1406 4.7227 4.7227 4.7227z" fill="#00bac2"/>
 <path d="m334.72 230.94c2.582 0 4.7227-2.1406 4.7227-4.7227v-13.855c0-2.582-2.1406-4.7227-4.7227-4.7227s-4.7227 2.1406-4.7227 4.7227v13.855c0 2.6445 2.1406 4.7227 4.7227 4.7227z" fill="#00bac2"/>
 <path d="m238.87 207.63c-2.582 0-4.7227 2.1406-4.7227 4.7227v13.855c0 2.582 2.1406 4.7227 4.7227 4.7227 2.582 0 4.7227-2.1406 4.7227-4.7227v-13.855c0-2.5781-2.1406-4.7227-4.7227-4.7227z" fill="#00bac2"/>
 <path d="m297 207.63c-2.582 0-4.7227 2.1406-4.7227 4.7227v13.855c0 2.582 2.1406 4.7227 4.7227 4.7227 2.582 0 4.7227-2.1406 4.7227-4.7227v-13.855c0.003906-2.5781-2.1406-4.7227-4.7227-4.7227z" fill="#00bac2"/>
 <path d="m177.28 207.63c-2.582 0-4.7227 2.1406-4.7227 4.7227v13.855c0 2.582 2.1406 4.7227 4.7227 4.7227s4.7227-2.1406 4.7227-4.7227v-13.855c0-2.5781-2.1406-4.7227-4.7227-4.7227z" fill="#00bac2"/>
 <path d="m321.43 207.63c-2.582 0-4.7227 2.1406-4.7227 4.7227v9.1328h-7.7461c-2.582 0-4.7227 2.1406-4.7227 4.7227 0 2.582 2.1406 4.7227 4.7227 4.7227h12.469c2.582 0 4.7227-2.1406 4.7227-4.7227v-13.855c0-2.5781-2.0781-4.7227-4.7227-4.7227z" fill="#00bac2"/>
 <path d="m282.7 208.33h-13.855c-2.582 0-4.7227 2.1406-4.7227 4.7227s2.1406 4.7227 4.7227 4.7227h9.1328v7.7461c0 2.582 2.1406 4.7227 4.7227 4.7227s4.7227-2.1406 4.7227-4.7227v-12.469c0-2.582-2.1406-4.7227-4.7227-4.7227z" fill="#00bac2"/>
 <path d="m253.1 230.3h15.68c2.582 0 4.7227-2.1406 4.7227-4.7227s-2.1406-4.7227-4.7227-4.7227h-10.957v-7.7461c0-2.582-2.1406-4.7227-4.7227-4.7227-2.582 0-4.7227 2.1406-4.7227 4.7227v12.469c0 2.582 2.1406 4.7227 4.7227 4.7227z" fill="#00bac2"/>
 <path d="m222.12 208.33h-13.855c-2.582 0-4.7227 2.1406-4.7227 4.7227s2.1406 4.7227 4.7227 4.7227h9.1328v7.7461c0 2.582 2.1406 4.7227 4.7227 4.7227 2.582 0 4.7227-2.1406 4.7227-4.7227v-12.469c0.003906-2.582-2.0742-4.7227-4.7227-4.7227z" fill="#00bac2"/>
 <path d="m192.58 230.3h15.68c2.582 0 4.7227-2.1406 4.7227-4.7227s-2.1406-4.7227-4.7227-4.7227h-10.957v-7.7461c0-2.582-2.1406-4.7227-4.7227-4.7227s-4.7227 2.1406-4.7227 4.7227v12.469c0 2.582 2.1406 4.7227 4.7227 4.7227z" fill="#00bac2"/>
 <path d="m334.72 273.57c2.582 0 4.7227-2.1406 4.7227-4.7227v-13.855c0-2.582-2.1406-4.7227-4.7227-4.7227s-4.7227 2.1406-4.7227 4.7227v13.855c0 2.582 2.1406 4.7227 4.7227 4.7227z" fill="#00bac2"/>
 <path d="m238.87 250.27c-2.582 0-4.7227 2.1406-4.7227 4.7227v13.855c0 2.582 2.1406 4.7227 4.7227 4.7227 2.582 0 4.7227-2.1406 4.7227-4.7227v-13.855c0-2.6445-2.1406-4.7227-4.7227-4.7227z" fill="#00bac2"/>
 <path d="m297 250.27c-2.582 0-4.7227 2.1406-4.7227 4.7227v13.855c0 2.582 2.1406 4.7227 4.7227 4.7227 2.582 0 4.7227-2.1406 4.7227-4.7227v-13.855c0.003906-2.6445-2.1406-4.7227-4.7227-4.7227z" fill="#00bac2"/>
 <path d="m177.28 250.27c-2.582 0-4.7227 2.1406-4.7227 4.7227v13.855c0 2.582 2.1406 4.7227 4.7227 4.7227s4.7227-2.1406 4.7227-4.7227v-13.855c0-2.6445-2.1406-4.7227-4.7227-4.7227z" fill="#00bac2"/>
 <path d="m321.43 250.27c-2.582 0-4.7227 2.1406-4.7227 4.7227v9.1328h-7.7461c-2.582 0-4.7227 2.1406-4.7227 4.7227 0 2.582 2.1406 4.7227 4.7227 4.7227h12.469c2.582 0 4.7227-2.1406 4.7227-4.7227v-13.855c0-2.6445-2.0781-4.7227-4.7227-4.7227z" fill="#00bac2"/>
 <path d="m282.7 250.9h-13.855c-2.582 0-4.7227 2.1406-4.7227 4.7227 0 2.582 2.1406 4.7227 4.7227 4.7227h9.1328v7.7461c0 2.582 2.1406 4.7227 4.7227 4.7227s4.7227-2.1406 4.7227-4.7227v-12.469c0-2.582-2.1406-4.7227-4.7227-4.7227z" fill="#00bac2"/>
 <path d="m253.1 272.88h15.68c2.582 0 4.7227-2.1406 4.7227-4.7227s-2.1406-4.7227-4.7227-4.7227h-10.957v-7.7461c0-2.582-2.1406-4.7227-4.7227-4.7227-2.582 0-4.7227 2.1406-4.7227 4.7227v12.469c0 2.582 2.1406 4.7227 4.7227 4.7227z" fill="#00bac2"/>
 <path d="m222.12 250.9h-13.855c-2.582 0-4.7227 2.1406-4.7227 4.7227 0 2.582 2.1406 4.7227 4.7227 4.7227h9.1328v7.7461c0 2.582 2.1406 4.7227 4.7227 4.7227 2.582 0 4.7227-2.1406 4.7227-4.7227v-12.469c0.003906-2.582-2.0742-4.7227-4.7227-4.7227z" fill="#00bac2"/>
 <path d="m192.58 272.88h15.68c2.582 0 4.7227-2.1406 4.7227-4.7227s-2.1406-4.7227-4.7227-4.7227h-10.957v-7.7461c0-2.582-2.1406-4.7227-4.7227-4.7227s-4.7227 2.1406-4.7227 4.7227v12.469c0 2.582 2.1406 4.7227 4.7227 4.7227z" fill="#00bac2"/>
 <path d="m334.72 316.14c2.582 0 4.7227-2.1406 4.7227-4.7227v-13.855c0-2.582-2.1406-4.7227-4.7227-4.7227s-4.7227 2.1406-4.7227 4.7227v13.855c0 2.582 2.1406 4.7227 4.7227 4.7227z" fill="#00bac2"/>
 <path d="m238.87 292.84c-2.582 0-4.7227 2.1406-4.7227 4.7227v13.855c0 2.582 2.1406 4.7227 4.7227 4.7227 2.582 0 4.7227-2.1406 4.7227-4.7227v-13.855c0-2.5781-2.1406-4.7227-4.7227-4.7227z" fill="#00bac2"/>
 <path d="m297 292.84c-2.582 0-4.7227 2.1406-4.7227 4.7227v13.855c0 2.582 2.1406 4.7227 4.7227 4.7227 2.582 0 4.7227-2.1406 4.7227-4.7227v-13.855c0.003906-2.5781-2.1406-4.7227-4.7227-4.7227z" fill="#00bac2"/>
 <path d="m177.28 292.84c-2.582 0-4.7227 2.1406-4.7227 4.7227v13.855c0 2.582 2.1406 4.7227 4.7227 4.7227s4.7227-2.1406 4.7227-4.7227v-13.855c0-2.5781-2.1406-4.7227-4.7227-4.7227z" fill="#00bac2"/>
 <path d="m321.43 292.84c-2.582 0-4.7227 2.1406-4.7227 4.7227v9.1328h-7.7461c-2.582 0-4.7227 2.1406-4.7227 4.7227s2.1406 4.7227 4.7227 4.7227h12.469c2.582 0 4.7227-2.1406 4.7227-4.7227v-13.855c0-2.5781-2.0781-4.7227-4.7227-4.7227z" fill="#00bac2"/>
 <path d="m282.7 293.54h-13.855c-2.582 0-4.7227 2.1406-4.7227 4.7227 0 2.582 2.1406 4.7227 4.7227 4.7227h9.1328v7.7461c0 2.582 2.1406 4.7227 4.7227 4.7227s4.7227-2.1406 4.7227-4.7227v-12.469c0-2.6445-2.1406-4.7227-4.7227-4.7227z" fill="#00bac2"/>
 <path d="m268.85 306h-10.957v-7.7461c0-2.582-2.1406-4.7227-4.7227-4.7227s-4.7227 2.1406-4.7227 4.7227v12.469c0 2.582 2.1406 4.7227 4.7227 4.7227h15.68c2.582 0 4.7227-2.1406 4.7227-4.7227 0-2.582-2.1406-4.7227-4.7227-4.7227z" fill="#00bac2"/>
 <path d="m222.12 293.54h-13.855c-2.582 0-4.7227 2.1406-4.7227 4.7227 0 2.582 2.1406 4.7227 4.7227 4.7227h9.1328v7.7461c0 2.582 2.1406 4.7227 4.7227 4.7227 2.582 0 4.7227-2.1406 4.7227-4.7227v-12.469c0.003906-2.6445-2.0742-4.7227-4.7227-4.7227z" fill="#00bac2"/>
 <path d="m208.27 306h-10.957v-7.7461c0-2.582-2.1406-4.7227-4.7227-4.7227-2.582 0-4.7227 2.1406-4.7227 4.7227v12.469c0 2.582 2.1406 4.7227 4.7227 4.7227h15.68c2.582 0 4.7227-2.1406 4.7227-4.7227 0-2.582-2.0781-4.7227-4.7227-4.7227z" fill="#00bac2"/>
</svg>
