<?xml version="1.0" encoding="UTF-8"?>
<svg width="512pt" height="512pt" version="1.1" viewBox="0 0 512 512" xmlns="http://www.w3.org/2000/svg">
 <g>
  <rect width="512" height="512"/>
  <path d="m376.91 371.88h-5.0391v-30.23c0-1.5117-0.50391-3.0234-1.5117-4.0312-1.0078-1.0078-2.5195-1.5117-4.0312-1.0078l-70.535 9.5742 62.977-25.191c2.5195-1.0078 4.0312-4.0312 3.0234-6.5508s-4.0312-4.0312-6.5508-3.0234l-78.09 31.234 48.367-48.367c2.0156-2.0156 2.0156-5.0391 0-7.0547-2.0156-2.0156-5.0391-2.0156-7.0547 0l-62.469 62.48-61.969-61.965c-2.0156-2.0156-5.0391-2.0156-7.0547 0-2.0156 2.0156-2.0156 5.0391 0 7.0547l48.367 48.367-78.09-31.234c-2.5195-1.0078-5.543 0-6.5508 3.0234s0 5.543 3.0234 6.5508l62.977 25.191-70.535-9.5742c-1.5117 0-3.0234 0-4.0312 1.0078-1.5078 0.49609-2.0117 2.0078-2.0117 3.5195v30.23l-5.0391-0.003906c-3.0234 0-5.0391 2.0156-5.0391 5.0391 0 3.0234 2.0156 5.0391 5.0391 5.0391h100.76c1.5117 0 2.5195-0.50391 3.5273-1.5117l16.625-16.625 16.625 16.625c1.0078 1.0078 2.0156 1.5117 3.5273 1.5117h100.76c3.0234 0 5.0391-2.0156 5.0391-5.0391 0-3.0234-2.0156-5.0391-5.0391-5.0391zm-143.08 0h-83.633v-24.688l95.219 13.098zm32.75-11.586 95.219-13.098v24.684h-83.633z" fill="#00bac2"/>
  <path d="m301.34 256c0 3.0234 2.0156 5.0391 5.0391 5.0391 3.0234 0 5.0391-2.0156 5.0391-5.0391 0-11.586-3.5273-23.176-10.578-32.746-1.5117-2.0156-5.0391-2.5195-7.0547-1.0078-2.0156 1.5117-2.5195 5.0391-1.0078 7.0547 5.5391 8.0586 8.5625 17.129 8.5625 26.699z" fill="#00bac2"/>
  <path d="m256 200.58c-30.73 0-55.418 24.688-55.418 55.418 0 3.0234 2.0156 5.0391 5.0391 5.0391 3.0234 0 5.0391-2.0156 5.0391-5.0391 0-25.191 20.152-45.344 45.344-45.344 3.0234 0 5.0391-2.0156 5.0391-5.0391-0.003907-3.0195-2.0195-5.0352-5.043-5.0352z" fill="#00bac2"/>
  <path d="m336.61 256c0 2.5195 2.5195 5.0391 5.0391 5.0391 2.5195 0 5.0391-2.5195 5.0391-5.0391 0-13.602-3.0234-26.199-8.5664-38.289-1.0078-2.5195-4.0312-3.5273-6.5508-2.5195-1.0078 0.50391-2.0156 1.5117-2.5195 3.0234-0.50391 1.5117-0.50391 2.5195 0 4.0312 5.0391 10.074 7.5586 21.664 7.5586 33.754z" fill="#00bac2"/>
  <path d="m311.92 184.46c-16.121-12.594-35.266-19.145-55.922-19.145-49.879 0-90.688 40.809-90.688 90.688 0 2.5195 2.5195 5.0391 5.0391 5.0391 2.5195 0 5.0391-2.5195 5.0391-5.0391 0-44.336 36.273-80.609 80.609-80.609 18.137 0 35.266 6.0469 49.375 17.129 2.0156 1.5117 5.543 1.5117 7.0547-1.0078 2.0117-2.0195 1.5078-5.043-0.50781-7.0547z" fill="#00bac2"/>
  <path d="m319.98 198.57c-2.0156 1.5117-2.5195 5.0391-1.0078 7.0547 1.0078 1.0078 2.5195 2.0156 4.0312 2.0156 1.0078 0 2.5195-0.50391 3.0234-1.0078 1.0078-1.0078 1.5117-2.0156 2.0156-3.5273 0-1.5117 0-2.5195-1.0078-3.5273-1.5117-2.0156-5.0391-2.5195-7.0547-1.0078z" fill="#00bac2"/>
  <path d="m376.91 261.04c3.0234 0 5.0391-2.0156 5.0391-5.0391 0-69.527-56.426-125.95-125.95-125.95-3.0234 0-5.0391 2.0156-5.0391 5.0391 0 3.0234 2.0156 5.0391 5.0391 5.0391 63.984 0 115.88 51.891 115.88 115.88 0 3.0234 2.0156 5.0391 5.0391 5.0391z" fill="#00bac2"/>
  <path d="m135.09 261.04c3.0234 0 5.0391-2.0156 5.0391-5.0391 0-30.73 12.09-59.953 33.754-81.617 2.0156-2.0156 2.0156-5.0391 0-7.0547s-5.0391-2.0156-7.0547 0c-23.676 23.68-36.777 54.918-36.777 88.672 0 3.0234 2.0156 5.0391 5.0391 5.0391z" fill="#00bac2"/>
  <path d="m286.23 200.58c0-3.0234-2.0156-5.0391-5.0391-5.0391-3.0234 0-5.0391 2.0156-5.0391 5.0391v5.0391c0 3.0234 2.0156 5.0391 5.0391 5.0391 3.0234 0 5.0391-2.0156 5.0391-5.0391z" fill="#00bac2"/>
  <path d="m281.19 235.85c3.0234 0 5.0391-2.0156 5.0391-5.0391v-5.0391c0-3.0234-2.0156-5.0391-5.0391-5.0391-3.0234 0-5.0391 2.0156-5.0391 5.0391v5.0391c0 3.0234 2.0156 5.0391 5.0391 5.0391z" fill="#00bac2"/>
  <path d="m291.27 220.73h5.0391c3.0234 0 5.0391-2.0156 5.0391-5.0391 0-3.0234-2.0156-5.0391-5.0391-5.0391h-5.0391c-3.0234 0-5.0391 2.0156-5.0391 5.0391 0.003907 3.0234 2.0156 5.0391 5.0391 5.0391z" fill="#00bac2"/>
  <path d="m266.08 220.73h5.0391c3.0234 0 5.0391-2.0156 5.0391-5.0391 0-3.0234-2.0156-5.0391-5.0391-5.0391h-5.0391c-3.0234 0-5.0391 2.0156-5.0391 5.0391 0 3.0234 2.0156 5.0391 5.0391 5.0391z" fill="#00bac2"/>
  <path d="m190.5 135.09c0-3.0234-2.0156-5.0391-5.0391-5.0391-3.0234 0-5.0391 2.0156-5.0391 5.0391v5.0391c0 3.0234 2.0156 5.0391 5.0391 5.0391 3.0234 0 5.0391-2.0156 5.0391-5.0391z" fill="#00bac2"/>
  <path d="m185.47 155.24c-3.0234 0-5.0391 2.0156-5.0391 5.0391v5.0391c0 3.0234 2.0156 5.0391 5.0391 5.0391s5.0391-2.0156 5.0391-5.0391v-5.0391c-0.003906-3.0234-2.0195-5.0391-5.0391-5.0391z" fill="#00bac2"/>
  <path d="m195.54 155.24h5.0391c3.0234 0 5.0391-2.0156 5.0391-5.0391 0-3.0234-2.0156-5.0391-5.0391-5.0391h-5.0391c-3.0234 0-5.0391 2.0156-5.0391 5.0391 0 3.0234 2.0156 5.0391 5.0391 5.0391z" fill="#00bac2"/>
  <path d="m170.35 155.24h5.0391c3.0234 0 5.0391-2.0156 5.0391-5.0391 0-3.0234-2.0156-5.0391-5.0391-5.0391h-5.0391c-3.0234 0-5.0391 2.0156-5.0391 5.0391 0.003906 3.0234 2.0156 5.0391 5.0391 5.0391z" fill="#00bac2"/>
 </g>
</svg>
