<?xml version="1.0" encoding="UTF-8"?>
<svg width="512pt" height="512pt" version="1.1" viewBox="0 0 512 512" xmlns="http://www.w3.org/2000/svg">
 <g>
  <rect width="512" height="512"/>
  <path d="m256 96.395c-88.023 0-159.61 71.582-159.61 159.61 0 88.027 71.582 159.61 159.61 159.61 88.027 0 159.61-71.578 159.61-159.61 0-88.023-71.578-159.61-159.61-159.61zm-68.355 286c0-4.5156 3.5469-8.0625 8.0625-8.0625s8.0625 3.5469 8.0625 8.0625-3.5469 8.0625-8.0625 8.0625-8.0625-3.5469-8.0625-8.0625zm111.89 4.1914c0-4.5156 3.5469-8.0625 8.0625-8.0625s8.0625 3.5469 8.0625 8.0625c-0.003906 4.5156-3.5508 8.0625-8.0664 8.0625-4.5117 0-8.0586-3.5469-8.0586-8.0625zm49.977-13.539c-31.277-18.703-37.082-30.953-36.113-37.727 0-1.2891 0.32422-1.9336 0.64453-2.9023 0.64453-1.6133 1.2891-3.5469 1.2891-6.7695-0.64453-10.965-9.3516-16.766-18.055-22.57-7.418-4.8359-14.832-9.9961-18.703-18.379-3.2227-6.7695-3.5469-15.156-1.2891-24.828 0.64453-2.5781-0.96875-5.1602-3.5469-5.8047-2.5781-0.64453-5.1602 0.96875-5.8047 3.5469-2.9023 11.93-2.2578 22.57 1.9336 31.277 5.1602 10.641 14.188 16.766 22.25 22.25 8.3828 5.4805 13.543 9.3516 13.543 14.832 0 1.2891 0 1.6133-0.64453 2.9023-0.32422 1.2891-0.96875 2.9023-1.2891 5.1602-1.6133 13.863 10.641 28.695 37.402 45.141-5.1602 3.5469-10.316 6.7695-15.801 9.6719 0-0.64453 0.32422-1.6133 0.32422-2.2578 0-9.6719-8.0625-17.734-17.734-17.734-9.6719 0-17.734 8.0625-17.734 17.734 0 5.4805 2.5781 10.641 6.4492 13.863-12.898 3.5469-26.441 5.4805-40.305 5.4805-17.734 0-34.824-3.2227-50.301-8.707 4.5156-3.2227 7.7383-8.707 7.7383-14.508 0-9.6719-8.0625-17.734-17.734-17.734s-17.734 8.0625-17.734 17.734v1.2891c-7.0938-4.5156-14.188-9.3516-20.312-15.156 11.609-14.188 21.926-24.504 31.277-31.598 1.6133 8.0625 8.707 13.863 17.41 13.863 9.6719 0 17.734-8.0625 17.734-17.734 0-3.5469-0.96875-6.7695-2.9023-9.6719 0.96875-0.64453 1.9336-1.6133 2.5781-2.5781 4.5156-6.125 2.9023-12.898 1.2891-19.668-0.96875-4.1914-2.2578-8.3828-1.9336-12.898 0.64453-9.3516 8.0625-18.703 22.25-28.051 2.2578-1.6133 2.9023-4.5156 1.2891-6.7695-1.6133-2.2578-4.5156-2.9023-6.7695-1.2891-16.766 10.965-25.797 22.895-26.762 35.469-0.32422 5.8047 0.96875 11.285 2.2578 15.801 1.6133 5.8047 2.2578 9.0273 0.64453 11.285-0.64453 0.96875-1.6133 1.6133-2.9023 1.9336-2.2578-0.96875-4.5156-1.6133-7.0938-1.6133-6.4492 0-11.93 3.5469-15.156 8.707-0.32422 0-0.32422 0.32422-0.64453 0.32422-11.609 6.7695-24.828 19.348-39.66 37.402-27.73-26.77-44.82-64.172-44.82-105.77 0-82.543 67.391-149.93 149.93-149.93s149.93 67.391 149.93 149.93c0 47.398-22.246 89.637-56.426 117.05zm-135.43-39.34c0 4.5156-3.5469 8.0625-8.0625 8.0625-4.5117 0-8.0586-3.5469-8.0586-8.0625s3.5469-8.0625 8.0625-8.0625c4.5117 0.003907 8.0586 3.5508 8.0586 8.0625z" fill="#00bac2"/>
  <path d="m343.7 175.07c-7.418 0-12.574 10.316-16.121 22.895-0.32422-0.64453-0.32422-1.2891-0.64453-2.2578-3.5469-13.543-8.0625-19.668-14.188-19.668-5.1602 0-9.0273 4.5156-12.254 13.543-1.9336-5.8047-4.8359-10.641-9.6719-10.641-12.254 0-13.219 31.598-13.219 31.922 0 9.9961 3.8711 13.543 8.3828 14.832v17.41c0 2.5781 2.2578 4.8359 4.8359 4.8359s4.8359-2.2578 4.8359-4.8359v-7.0938c2.2578 7.418 6.7695 9.9961 12.254 10.965v31.277c0 2.5781 2.2578 4.8359 4.8359 4.8359s4.8359-2.2578 4.8359-4.8359v-31.277c0.96875 0 1.9336-0.32422 2.9023-0.64453v1.9336c0 22.25 9.0273 26.762 18.703 27.73v44.176c0 2.5781 2.2578 4.8359 4.8359 4.8359s4.8359-2.2578 4.8359-4.8359v-44.176c9.6719-0.96875 18.703-5.4805 18.703-27.73-0.64844-8.707-5.4844-73.195-23.863-73.195zm-53.203 16.125c1.6133 4.5156 3.5469 12.898 3.5469 19.668 0 4.5156-0.96875 5.1602-0.96875 5.1602s-0.64453 0.32422-2.5781 0.32422-2.5781-0.32422-2.5781-0.32422-0.96875-0.96875-0.96875-5.1602c0-7.0938 1.9375-15.477 3.5469-19.668zm22.25 46.43c-5.8047 0-8.707 0-8.707-12.254 0-15.156 5.1602-34.824 8.707-39.016 3.8711 4.1914 8.707 23.859 8.707 39.016 0 12.254-2.9023 12.254-8.707 12.254zm30.953 29.02c-8.3828 0-13.863 0-13.863-18.379 0-24.184 8.3828-59.008 13.863-63.199 5.4805 4.5156 13.863 39.016 13.863 63.199-0.32031 18.379-5.8008 18.379-13.863 18.379z" fill="#00bac2"/>
  <path d="m221.5 178.94c-4.8359 0-7.7383 4.8359-9.6719 10.641-3.2227-9.0273-7.418-13.543-12.254-13.543-6.125 0-10.641 6.125-14.188 19.668-0.32422 0.64453-0.32422 1.2891-0.64453 2.2578-3.5469-12.898-8.707-22.895-16.121-22.895-18.379 0-23.539 64.488-23.539 73.195 0 22.25 9.0273 26.762 18.703 27.73v44.176c0 2.5781 2.2578 4.8359 4.8359 4.8359s4.8359-2.2578 4.8359-4.8359v-44.176c9.6719-0.96875 18.703-5.4805 18.703-27.73v-1.9336c0.96875 0.32422 1.9336 0.32422 2.9023 0.64453v31.277c0 2.5781 2.2578 4.8359 4.8359 4.8359 2.5781 0 4.8359-2.2578 4.8359-4.8359v-31.277c5.4805-0.64453 10.316-3.5469 12.254-10.965l-0.003906 7.0938c0 2.5781 2.2578 4.8359 4.8359 4.8359 2.5781 0 4.8359-2.2578 4.8359-4.8359v-17.734c4.5156-1.2891 8.3828-4.8359 8.3828-14.832-0.32031 0-1.2852-31.598-13.539-31.598zm-53.203 87.703c-8.3828 0-13.863 0-13.863-18.379 0-24.184 8.3828-59.008 13.863-63.199 5.4805 4.5156 13.863 39.016 13.863 63.199 0 18.379-5.4805 18.379-13.863 18.379zm53.203-75.449c1.6133 4.5156 3.5469 12.898 3.5469 19.668 0 4.5156-0.96875 5.1602-0.96875 5.1602s-0.64453 0.32422-2.5781 0.32422-2.5781-0.32422-2.5781-0.32422-0.96875-0.96875-0.96875-5.1602c0-7.0938 1.9336-15.477 3.5469-19.668zm-22.25 46.43c-5.8047 0-8.707 0-8.707-12.254 0-15.156 5.1602-34.824 8.707-39.016 3.8711 4.1914 8.707 23.859 8.707 39.016 0.32422 12.254-2.5781 12.254-8.707 12.254z" fill="#00bac2"/>
  <path d="m238.91 312.43c0 6.4492-9.6719 6.4492-9.6719 0s9.6719-6.4492 9.6719 0" fill="#00bac2"/>
  <path d="m249.88 287.92c0 6.4492-9.6758 6.4492-9.6758 0s9.6758-6.4492 9.6758 0" fill="#00bac2"/>
  <path d="m234.72 354.67c0 6.4453-9.6719 6.4453-9.6719 0 0-6.4492 9.6719-6.4492 9.6719 0" fill="#00bac2"/>
  <path d="m282.12 315.97c0 6.4492-9.6719 6.4492-9.6719 0 0-6.4492 9.6719-6.4492 9.6719 0" fill="#00bac2"/>
  <path d="m261.48 393.36c0 6.4492-9.6719 6.4492-9.6719 0s9.6719-6.4492 9.6719 0" fill="#00bac2"/>
  <path d="m255.36 354.67c0 9.6719 8.0625 17.734 17.734 17.734s17.734-8.0625 17.734-17.734-8.0625-17.734-17.734-17.734-17.734 8.0586-17.734 17.734zm17.41-8.0625c4.5156 0 8.0625 3.5469 8.0625 8.0625s-3.5469 8.0625-8.0625 8.0625-8.0625-3.5469-8.0625-8.0625c0.003906-4.5156 3.8711-8.0625 8.0625-8.0625z" fill="#00bac2"/>
 </g>
</svg>
