<?xml version="1.0" encoding="UTF-8"?>
<svg width="512pt" height="512pt" version="1.1" viewBox="0 0 512 512" xmlns="http://www.w3.org/2000/svg">
 <defs>
  <clipPath id="a">
   <path d="m140 94.781h232v322.44h-232z"/>
  </clipPath>
 </defs>
 <rect width="512" height="512"/>
 <g clip-path="url(#a)">
  <path d="m291.27 190.95v-40.746h5.0391c4.0898 0 7.8906-1.5938 10.617-4.3984 2.9062-2.8242 4.4961-6.625 4.4961-10.715 0-8.332-6.7812-15.113-15.113-15.113h-10.078l0.003907-20.152c0-2.7852-2.2539-5.0391-5.0391-5.0391h-50.582c-1.3438 0-2.6289 0.53516-3.5781 1.4922-0.94531 0.95703-1.4727 2.2422-1.4609 3.5859l0.16016 20.113h-10.035c-4.0898 0-7.8906 1.5938-10.617 4.3984-2.9062 2.8242-4.4961 6.625-4.4961 10.715 0 8.332 6.7812 15.113 15.113 15.113h5.0391v40.742c-47.652 15.207-80.609 60.066-80.609 110.4 0 63.898 51.977 115.88 115.88 115.88s115.88-51.977 115.88-115.88c0-50.336-32.957-95.195-80.609-110.4zm-55.578-86.086h40.465v15.113h-40.344zm-25.031 30.227c0-1.3438 0.51953-2.5898 1.5469-3.5938 0.90234-0.92578 2.1484-1.4453 3.4922-1.4453h80.609c2.7812 0 5.0391 2.2578 5.0391 5.0391 0 1.3438-0.51953 2.5898-1.5469 3.5938-0.90234 0.92578-2.1484 1.4453-3.4922 1.4453h-80.609c-2.7812 0-5.0391-2.2578-5.0391-5.0391zm54.004 15.113-2.5234 10.078h-12.281l-2.5234-10.078zm-8.6602 256.95c-58.336 0-105.8-47.465-105.8-105.8 0-47.133 31.641-88.996 76.941-101.81 2.1719-0.61328 3.668-2.5977 3.668-4.8477v-44.488h6.1445l4.0859 16.332c0.5625 2.25 2.5742 3.8203 4.8867 3.8203h20.152c2.3125 0 4.3242-1.5781 4.8867-3.8203l4.0781-16.332h6.1484v44.488c0 2.2539 1.4961 4.2383 3.668 4.8477 45.301 12.809 76.941 54.676 76.941 101.81 0 58.336-47.465 105.8-105.8 105.8z" fill="#00bac2"/>
 </g>
 <path d="m205.88 230.81c0.95703 0 1.9258-0.27344 2.7812-0.83984 7.4609-4.9531 15.527-8.6719 23.992-11.039l5.6367-1.6055c7.4609-2.1289 12.676-9.0078 12.676-16.742 0-2.7852-2.2539-5.0391-5.0391-5.0391s-5.0391 2.2539-5.0391 5.0391c0 3.3047-2.1523 6.1367-5.3594 7.043l-5.6211 1.6016c-9.457 2.6484-18.48 6.8125-26.812 12.344-2.3242 1.543-2.9531 4.6641-1.4102 6.9844 0.96094 1.4648 2.5625 2.2539 4.1953 2.2539z" fill="#00bac2"/>
 <path d="m346.39 269.43c-0.035156-0.10156-0.89062-1.5664-1.0391-1.7266-5.3203-5.793-20.262-19.266-44.012-19.266-17.895 0-31.938 8.2227-45.344 16.711-13.406-8.4883-27.449-16.711-45.344-16.711-24.875 0-40.09 14.777-44.707 20.031-3.4805 9.4727-5.375 19.645-5.6445 30.266-1.2188 48.742 35.086 91.684 83.484 97.582 17.191 2.0977 33.926-0.22266 49.438-6.8008 2.5586-1.0898 3.7578-4.0469 2.6719-6.6094-1.0938-2.5625-4.0469-3.7383-6.6094-2.6719-12.062 5.1133-24.969 7.3555-38.254 6.6094-45.625-2.5508-81.738-42.031-80.672-87.715 0.20703-8.8867 1.6758-17.402 4.3828-25.355 4.9531-5.1211 17.113-15.258 35.91-15.258 16.168 0 29.023 8.1836 42.637 16.848 14.234 9.0586 28.949 18.418 48.051 18.418 17.699 0 29.832-6.2188 37.883-13.113 1.6016 6.6016 2.4219 13.523 2.4219 20.672 0 26.648-12.141 51.332-33.312 67.73-2.2031 1.707-2.6055 4.8711-0.90234 7.0703 0.99219 1.2852 2.4844 1.9531 3.9883 1.9531 1.0781 0 2.168-0.34375 3.0781-1.0547 23.66-18.32 37.223-45.914 37.223-75.699 0-11.207-1.7852-21.938-5.3281-31.91zm-80.902 1.6797c11.219-6.9023 22.391-12.594 35.852-12.594 16.066 0 27.234 7.3906 33.242 12.742-6.5117 6.2773-16.996 12.449-33.242 12.449-13.461 0-24.633-5.6953-35.852-12.598z" fill="#00bac2"/>
 <path d="m250.96 371.88c11.113 0 20.152-9.0391 20.152-20.152 0-11.113-9.0391-20.152-20.152-20.152-11.113 0-20.152 9.0391-20.152 20.152 0 11.117 9.0391 20.152 20.152 20.152zm0-30.227c5.5586 0 10.078 4.5195 10.078 10.078 0 5.5586-4.5195 10.078-10.078 10.078-5.5586 0-10.078-4.5195-10.078-10.078 0.003907-5.5586 4.5234-10.078 10.078-10.078z" fill="#00bac2"/>
 <path d="m230.81 308.9c0-9.7227-7.9102-17.633-17.633-17.633-9.7227 0-17.633 7.9102-17.633 17.633 0 9.7227 7.9102 17.633 17.633 17.633 9.7227 0.003906 17.633-7.9062 17.633-17.633zm-17.633 7.5586c-4.168 0-7.5586-3.3906-7.5586-7.5586 0-4.168 3.3906-7.5586 7.5586-7.5586s7.5586 3.3906 7.5586 7.5586c0 4.168-3.3906 7.5586-7.5586 7.5586z" fill="#00bac2"/>
 <path d="m311.42 321.5c0-8.332-6.7812-15.113-15.113-15.113-8.332 0-15.113 6.7812-15.113 15.113 0 8.332 6.7812 15.113 15.113 15.113 8.332 0 15.113-6.7812 15.113-15.113zm-20.152 0c0-2.7812 2.2578-5.0391 5.0391-5.0391s5.0391 2.2578 5.0391 5.0391-2.2578 5.0391-5.0391 5.0391-5.0391-2.2578-5.0391-5.0391z" fill="#00bac2"/>
 <path d="m250.96 185.47c0 6.7148-10.074 6.7148-10.074 0 0-6.7188 10.074-6.7188 10.074 0" fill="#00bac2"/>
 <path d="m261.04 306.38c0 6.7148-10.078 6.7148-10.078 0 0-6.7188 10.078-6.7188 10.078 0" fill="#00bac2"/>
 <path d="m331.57 306.38c0 6.7148-10.074 6.7148-10.074 0 0-6.7188 10.074-6.7188 10.074 0" fill="#00bac2"/>
 <path d="m296.3 354.24c0 4.1758-3.3828 7.5586-7.5586 7.5586-4.1719 0-7.5547-3.3828-7.5547-7.5586 0-4.1719 3.3828-7.5547 7.5547-7.5547 4.1758 0 7.5586 3.3828 7.5586 7.5547" fill="#00bac2"/>
 <path d="m195.54 281.19c0 6.7188-10.074 6.7188-10.074 0s10.074-6.7188 10.074 0" fill="#00bac2"/>
 <path d="m220.73 344.17c0 4.1719-3.3828 7.5547-7.5586 7.5547-4.1719 0-7.5547-3.3828-7.5547-7.5547 0-4.1758 3.3828-7.5586 7.5547-7.5586 4.1758 0 7.5586 3.3828 7.5586 7.5586" fill="#00bac2"/>
</svg>
