<?xml version="1.0" encoding="UTF-8"?>
<svg width="512pt" height="512pt" version="1.1" viewBox="0 0 512 512" xmlns="http://www.w3.org/2000/svg">
 <g>
  <rect width="512" height="512"/>
  <path d="m140.12 407.14c9.3477-0.011719 18.312-3.7305 24.926-10.344 6.6094-6.6094 10.328-15.574 10.34-24.926 0-0.94531-0.039063-1.8945-0.11328-2.8359l8.7148-8.7148c1.9648-1.9688 1.9648-5.1562 0-7.125l-0.69141-0.69141 10-6.668c0.72656-0.48438 1.3203-1.1562 1.7109-1.9375l4.2891-8.5742 5.3242-2.6641 2.4688 2.4688c0.94531 0.94531 2.2266 1.4766 3.5625 1.4766 0.058594 0 0.12109 0 0.17969-0.003906 1.3984-0.046875 2.7109-0.67578 3.6289-1.7344l102.06-117.77-15.902 59.348 9.7344 2.6094 19.523-72.863 5.9023 44.824 4.9961-0.65625-4.9961 0.65625 6.2578 47.535 9.9883-1.3164-6.2578-47.535-7.582-57.598 2.5156-2.9023c4.3477-5.0195 4.1484-12.527-0.46484-17.305-4.6133-4.7812-12.109-5.2461-17.281-1.0781l-1.9375 1.5625-104.94-28.121-2.6094 9.7344 92.328 24.738-72.203 9.5078 1.3164 9.9883 64.602-8.5039-127.29 102.65c-1.1094 0.89844-1.7891 2.2266-1.8672 3.6523-0.074219 1.4297 0.45703 2.8203 1.4688 3.832l3.1328 3.1328-4.1016 20.5-9.9414 6.6289-2.1172-2.1172v-0.003907c-1.9688-1.9648-5.1562-1.9648-7.125 0l-8.7148 8.7148c-0.94531-0.074218-1.8945-0.11328-2.8359-0.11328-12.602 0-24.242 6.7227-30.543 17.633-6.3008 10.914-6.3008 24.355 0 35.27 6.3008 10.91 17.941 17.633 30.543 17.633zm189.16-228.48c1.1094-0.89453 2.7188-0.79297 3.707 0.23047 0.98828 1.0234 1.0312 2.6367 0.097656 3.7109l-122.7 141.57-27.477-27.477zm-151.1 152.06c1.1133-0.74219 1.8867-1.8945 2.1484-3.2031l3.1914-15.961 13.59 13.59-3.8242 1.9141c-0.97266 0.48828-1.7656 1.2773-2.2539 2.2539l-4.4375 8.8789-10.566 7.043-7.8477-7.8477zm-38.059 15.961c1.3047 0 2.6094 0.10156 3.9023 0.30078 1.5898 0.24609 3.1992-0.28125 4.3359-1.418l6.875-6.875 5.4688 5.4688-9.0312 9.0312 7.125 7.125 9.0312-9.0312 5.4727 5.4727-6.875 6.875c-1.1367 1.1367-1.6641 2.75-1.418 4.3398 1.0703 6.8242-0.70703 13.789-4.918 19.262-4.2148 5.4766-10.488 8.9805-17.359 9.6953s-13.734-1.4219-18.984-5.9102c-5.25-4.4922-8.4258-10.941-8.7812-17.84-0.35938-6.8984 2.1289-13.641 6.8867-18.652 4.7578-5.0078 11.359-7.8438 18.27-7.8438z" fill="#00bac2"/>
  <path d="m140.12 361.8c0 6.7188-10.078 6.7188-10.078 0s10.078-6.7188 10.078 0" fill="#00bac2"/>
  <path d="m155.24 376.91c0 6.7188-10.074 6.7188-10.074 0s10.074-6.7188 10.074 0" fill="#00bac2"/>
  <path d="m265.5 143.71 8.8047 4.9023h-0.003906c5.6836-10.203 13.988-18.707 24.055-24.629 10.066-5.918 21.531-9.0469 33.211-9.0547v-10.074c-13.473 0.007813-26.703 3.6133-38.316 10.445-11.613 6.832-21.195 16.641-27.75 28.41z" fill="#00bac2"/>
  <path d="m347.76 106.6-2.1484 9.8438c3.1797 0.69531 6.3047 1.6289 9.3477 2.793l3.5977-9.4102 0.003906-0.003907c-3.5156-1.3438-7.125-2.4219-10.801-3.2227z" fill="#00bac2"/>
  <path d="m369.36 114.97-5.0469 8.7227 0.003906-0.003906c14.141 8.168 24.723 21.324 29.672 36.891 4.9492 15.566 3.9023 32.418-2.9258 47.25-6.832 14.836-18.957 26.586-34 32.949l3.9258 9.2812v-0.003906c17.355-7.3398 31.344-20.895 39.227-38.008 7.8789-17.117 9.0859-36.559 3.3789-54.516-5.707-17.961-17.918-33.137-34.234-42.562z" fill="#00bac2"/>
  <path d="m292.39 148.76 7.832 6.3398c8.6328-10.684 22.109-16.234 35.762-14.73 13.652 1.5 25.602 9.8477 31.707 22.152l9.0234-4.4844h-0.003906c-7.6289-15.375-22.562-25.809-39.625-27.684-17.062-1.8789-33.906 5.0586-44.695 18.406z" fill="#00bac2"/>
  <path d="m380.7 169.24-9.8281 2.2305h0.003906c0.66406 2.9414 1 5.9453 0.99609 8.9609h10.078c0-3.7656-0.41797-7.5195-1.25-11.191z" fill="#00bac2"/>
  <path d="m380.7 191.62-9.8281-2.2305h0.003906c-2.6328 11.594-10.258 21.43-20.828 26.867l4.6289 8.9492v0.003907c13.211-6.8008 22.738-19.098 26.023-33.59z" fill="#00bac2"/>
  <path d="m184.27 146.18 2.6094-9.7344 19.465 5.2148-2.6094 9.7344z" fill="#00bac2"/>
  <path d="m181.07 195.16 41.719-5.4922 1.3164 9.9883-41.719 5.4922z" fill="#00bac2"/>
  <path d="m287.59 325.12 10.434-38.93 9.7344 2.6094-10.434 38.93z" fill="#00bac2"/>
  <path d="m343.66 310.84 9.9883-1.3164 2.6445 20.094-9.9883 1.3164z" fill="#00bac2"/>
 </g>
</svg>
