<?xml version="1.0" encoding="UTF-8"?>
<svg width="512pt" height="512pt" version="1.1" viewBox="0 0 512 512" xmlns="http://www.w3.org/2000/svg">
 <g>
  <rect width="512" height="512"/>
  <path d="m346.46 118.56c-3.9219 3.9219-4.8047 8.1719-4.0625 13.336 0.45312 3.3711 2.0547 6.2148 4.8047 8.6875 4.3984 4.3984 16.801 16.875 20.605 20.68 5.8594 5.8594 15.562 5.8594 21.422 0s5.8594-15.488 0-21.348c-0.54297-0.44922-0.039063-0.074218-0.66016-0.70703 2.8555-5.5273 1.6914-12.426-2.9141-17.066-4.3359-4.3359-11.41-5.8945-17.223-2.9141-0.15234-0.15234-0.15234-0.15234-0.62891-0.66016-5.7773-6.1094-15.812-5.6758-21.344-0.003906zm7.1406 7.1406c2.0117-2.0117 5.1328-2.0117 7.1406 0 0.60156 0.63281 1.0508 1.4531 1.2656 2.3047 1.0352 4.0547 6.2734 5.1562 8.8516 1.8594 0.30469-0.39453 0.50781-0.57812 0.59375-0.67188 2.0117-1.9453 5.0781-1.9883 7.0664 0 2.0117 2.0117 2.0117 5.1289 0 7.1406-0.19141 0.19141-0.37891 0.34375-0.52344 0.44531-3.4062 2.5391-2.3359 7.8906 1.7852 8.9258 0.87109 0.22656 1.6641 0.70312 2.3047 1.3359 2.0117 2.0117 2.0117 5.1289 0 7.1406-2.0117 2.0117-5.1328 2.0117-7.1406 0-3.9336-3.9336-17.414-17.488-21.348-21.422-2.0117-2.0117-2.0117-5.0547 0-7.0664z" fill="#00bac2"/>
  <path d="m264.49 168.39-3.5703 3.5703c-4.875 4.875-4.875 12.977 0 17.852l16.586 16.512c-2.7305 3.1172 1.7461 12.324 6.6211 17.332 4.8281 5.0938 12.781 8.2617 18.699 8.0273l15.145 15.105c4.8828 4.8711 12.902 4.875 17.777 0l3.5703-3.5703c8.8125-8.8125 8.8125-23.246 0-32.059l-9.4453-9.4453c1.8203-5.1953-2.0078-12.707-6.5469-17.258-4.5742-4.5586-10.816-8.0117-17.332-6.6211l-9.4453-9.4453c-8.8125-8.8125-23.246-8.8125-32.059 0zm7.1406 7.1406c4.9609-4.9609 12.891-4.9609 17.852 0l9.4453 9.4453c0.99609 1.0078 2.375 1.5508 3.793 1.4883 5.0039-0.26562 9.9141 1.5938 13.465 5.1328 4.0273 4.0742 5.1914 9.1484 5.1328 13.391-0.11328 1.4336 0.41016 2.8359 1.4141 3.8672l9.4453 9.4453c4.9609 4.9609 4.9609 12.816 0 17.777l-3.5703 3.5703c-1.0234 1.0234-2.4688 1.0234-3.4961 0l-16.586-16.586c-1.0273-1-2.4375-1.5156-3.8672-1.4141-5.0039 0.26562-9.8398-1.5938-13.387-5.1328-3.5391-3.5508-5.4102-8.4609-5.1328-13.461 0.074219-1.418-0.48047-2.7969-1.4883-3.793l-16.586-16.586c-1.0273-1.0273-1.0273-2.5391 0-3.5703z" fill="#00bac2"/>
  <path d="m367.81 154.19-46.266 46.266 7.0664 7.1406 46.34-46.34z" fill="#00bac2"/>
  <path d="m346.46 132.77-46.34 46.34 7.1406 7.1406 46.34-46.34z" fill="#00bac2"/>
  <path d="m332.03 151.14-3.1992 9.5938 32.059 10.711 3.1992-9.5938z" fill="#00bac2"/>
  <path d="m317.75 165.42-3.1992 9.5195 32.059 10.711 3.1992-9.5195z" fill="#00bac2"/>
  <path d="m275.2 196.88-142.52 142.52v-0.003907c-0.44141 0.45312-0.79688 0.98047-1.043 1.5625l-21.348 49.91c-0.78906 1.8789-0.37109 4.0469 1.0625 5.4961s3.5977 1.8945 5.4844 1.125l49.91-21.348c0.58594-0.26953 1.1172-0.64844 1.5625-1.1172l142.52-142.52-7.1406-7.0664-141.77 141.77-37.414 15.992 15.992-37.34 141.84-141.84z" fill="#00bac2"/>
  <path d="m298.36 198.69c-2.9531 2.9531-2.9531 7.7383 0 10.688 2.9492 2.9531 7.7344 2.9531 10.688 0 1.418-1.418 2.2109-3.3398 2.2109-5.3438s-0.79297-3.9258-2.2109-5.3438c-1.418-1.418-3.3398-2.2109-5.3438-2.2109-2.0039 0-3.9258 0.79297-5.3438 2.2109z" fill="#00bac2"/>
  <path d="m253.86 246.79-138.95 138.95 7.1406 7.1406 138.87-138.95z" fill="#00bac2"/>
  <path d="m374.43 161.03v25.141h10.117v-25.141z" fill="#00bac2"/>
  <path d="m375.91 202.79c-1.9648 1.9688-1.9648 5.1562 0 7.125 1.9688 1.9688 5.1602 1.9688 7.125 0 0.94531-0.94531 1.4766-2.2266 1.4766-3.5625 0-1.3359-0.53125-2.6172-1.4766-3.5625-0.94531-0.94531-2.2266-1.4766-3.5625-1.4766-1.3359 0-2.6172 0.53125-3.5625 1.4766z" fill="#00bac2"/>
  <path d="m379.48 183.71c12.449 0 22.613 10.156 22.613 22.613s-10.164 22.688-22.613 22.688-22.688-10.23-22.688-22.688 10.238-22.613 22.688-22.613zm0 10.043c-6.9961 0-12.57 5.5508-12.57 12.57s5.5742 12.645 12.57 12.645 12.57-5.625 12.57-12.645-5.5742-12.57-12.57-12.57z" fill="#00bac2"/>
  <path d="m374.43 223.96v25.215h10.117v-25.215z" fill="#00bac2"/>
  <path d="m392.06 206.33v42.844h10.043v-42.844z" fill="#00bac2"/>
  <path d="m392.06 206.33v42.844h10.043v-42.844z" fill="#00bac2"/>
  <path d="m356.8 206.33v42.844h10.117v-42.844z" fill="#00bac2"/>
  <path d="m139.46 261.89c-2.5625 0.29688-4.4883 2.4805-4.4609 5.0586v4.9102c-0.12109 1.4023 0.35547 2.793 1.3086 3.832 0.95703 1.0391 2.3008 1.6289 3.7109 1.6289s2.7539-0.58984 3.7109-1.6289c0.95313-1.0391 1.4297-2.4297 1.3086-3.832v-4.9102c0.015625-1.4375-0.58594-2.8164-1.6523-3.7812-1.0664-0.96484-2.4961-1.4297-3.9258-1.2773z" fill="#00bac2"/>
  <path d="m139.46 236.68c-2.5898 0.29688-4.5273 2.5234-4.4609 5.1328v4.8359c-0.12109 1.4023 0.35547 2.793 1.3086 3.832 0.95703 1.0391 2.3008 1.6289 3.7109 1.6289s2.7539-0.58984 3.7109-1.6289c0.95313-1.0391 1.4297-2.4297 1.3086-3.832v-4.8359c0.035156-1.4531-0.55469-2.8477-1.625-3.832-1.0664-0.98047-2.5078-1.457-3.9531-1.3008z" fill="#00bac2"/>
  <path d="m149.65 251.77c-2.793 0.14453-4.9414 2.5273-4.7969 5.3203 0.14453 2.793 2.5234 4.9414 5.3164 4.7969h4.9102c2.793 0 5.0586-2.2656 5.0586-5.0586s-2.2656-5.0586-5.0586-5.0586h-4.9102c-0.17188-0.007813-0.34766-0.007813-0.51953 0z" fill="#00bac2"/>
  <path d="m124.43 251.77c-2.793 0.14453-4.9414 2.5273-4.7969 5.3203s2.5234 4.9414 5.3164 4.7969h4.9102c2.793 0 5.0586-2.2656 5.0586-5.0586s-2.2656-5.0586-5.0586-5.0586h-4.9102c-0.17188-0.007813-0.34766-0.007813-0.51953 0z" fill="#00bac2"/>
  <path d="m165.2 221.55c0-2.7812-2.2539-5.0391-5.0391-5.0391-1.3359 0-2.6172 0.53125-3.5625 1.4766-0.94141 0.94531-1.4727 2.2266-1.4727 3.5625 0 1.3359 0.53125 2.6172 1.4727 3.5625 0.94531 0.94531 2.2266 1.4766 3.5625 1.4766 2.7852 0 5.0391-2.2578 5.0391-5.0391z" fill="#00bac2"/>
  <path d="m184.76 137.97c-2.5938 0.29688-4.5312 2.5234-4.4648 5.1328 0 16.574 13.551 30.125 30.125 30.125 2.793 0 5.0586-2.2656 5.0586-5.0586s-2.2656-5.0586-5.0586-5.0586c-11.129 0-20.008-8.8789-20.008-20.008 0.035156-1.4688-0.56641-2.8789-1.6523-3.8633-1.0859-0.98438-2.5469-1.4492-4-1.2695z" fill="#00bac2"/>
  <path d="m184.76 137.97c-2.5938 0.29688-4.5312 2.5234-4.4648 5.1328 0 11.129-8.8789 20.008-20.008 20.008-2.793 0-5.0586 2.2656-5.0586 5.0586s2.2656 5.0586 5.0586 5.0586c16.574 0 30.125-13.551 30.125-30.125 0.035156-1.4688-0.56641-2.8789-1.6523-3.8633-1.0859-0.98438-2.5469-1.4492-4-1.2695z" fill="#00bac2"/>
  <path d="m210.34 163.19c-16.574 0-30.125 13.551-30.125 30.125 0 2.793 2.2656 5.0586 5.0586 5.0586 2.793 0 5.0586-2.2656 5.0586-5.0586 0-11.129 8.8789-20.008 20.008-20.008 2.793 0 5.0586-2.2656 5.0586-5.0586 0-2.793-2.2656-5.0586-5.0586-5.0586z" fill="#00bac2"/>
  <path d="m159.69 163.19c-2.793 0.14453-4.9375 2.5273-4.793 5.3203 0.14453 2.7891 2.5234 4.9375 5.3164 4.7969 11.129 0 20.008 8.8789 20.008 20.008 0 2.793 2.2656 5.0586 5.0586 5.0586 2.793 0 5.0586-2.2656 5.0586-5.0586 0-16.574-13.551-30.125-30.125-30.125-0.17188-0.007812-0.34766-0.007812-0.52344 0z" fill="#00bac2"/>
  <path d="m300.71 347.5c-2.5898 0.29688-4.5273 2.5234-4.4609 5.1328v4.9102c0 2.793 2.2656 5.0586 5.0586 5.0586s5.0586-2.2656 5.0586-5.0586v-4.9102c0.035156-1.4648-0.56641-2.875-1.6523-3.8633-1.0859-0.98438-2.5469-1.4492-4.0039-1.2695z" fill="#00bac2"/>
  <path d="m301.24 322.29c-1.3438 0.015626-2.625 0.5625-3.5625 1.5273-0.93359 0.96484-1.4492 2.2617-1.4219 3.6055v4.9102c0 2.793 2.2656 5.0547 5.0586 5.0547s5.0586-2.2617 5.0586-5.0547v-4.9102c0.023437-1.3711-0.50781-2.6914-1.4766-3.6602-0.96875-0.96484-2.2891-1.5-3.6562-1.4727z" fill="#00bac2"/>
  <path d="m285.77 337.46c-2.6328 0.31641-4.5742 2.6172-4.4375 5.2656 0.13672 2.6484 2.3086 4.7383 4.9609 4.7773h4.8359-0.003906c1.4062 0.11719 2.7969-0.35547 3.8359-1.3125 1.0352-0.95312 1.6289-2.2969 1.6289-3.707s-0.59375-2.7578-1.6289-3.7109c-1.0391-0.95313-2.4297-1.4297-3.8359-1.3125h-4.8359 0.003906c-0.17578-0.007813-0.35156-0.007813-0.52344 0z" fill="#00bac2"/>
  <path d="m310.98 337.46c-2.625 0.30859-4.5664 2.5898-4.4492 5.2305s2.2539 4.7422 4.8945 4.8125h4.9102c1.4062 0.11719 2.7969-0.35547 3.832-1.3125 1.0391-0.95312 1.6289-2.2969 1.6289-3.707s-0.58984-2.7578-1.6289-3.7109c-1.0352-0.95313-2.4258-1.4297-3.832-1.3125h-4.9102c-0.14844-0.003907-0.29688-0.003907-0.44531 0z" fill="#00bac2"/>
  <path d="m276.11 307.2c0-1.3359 0.53125-2.6172 1.4766-3.5625 0.94531-0.94531 2.2266-1.4766 3.5625-1.4766 2.7812 0 5.0391 2.2578 5.0391 5.0391s-2.2578 5.0391-5.0391 5.0391c-1.3359 0-2.6172-0.53125-3.5625-1.4766-0.94531-0.94531-1.4766-2.2266-1.4766-3.5625z" fill="#00bac2"/>
 </g>
</svg>
