<?xml version="1.0" encoding="UTF-8"?>
<svg width="512pt" height="512pt" version="1.1" viewBox="0 0 512 512" xmlns="http://www.w3.org/2000/svg">
 <g>
  <rect width="512" height="512"/>
  <path d="m394.65 177v0c-10.965-19.348-25.797-35.789-43.207-48.688-0.32422-0.32422-0.64453-0.32422-0.96875-0.64453-26.438-19.672-59.004-31.277-94.473-31.277-88.023 0-159.61 71.582-159.61 159.61 0 88.027 71.582 159.61 159.61 159.61 88.027 0 159.61-71.578 159.61-159.61 0-28.695-7.7383-55.781-20.957-78.996zm-9.9961 2.2578c-2.5781 3.2227-6.7695 5.1602-11.93 5.1602-4.8359 0-9.3516-2.5781-12.254-6.4492-1.9336-2.5781-6.125-2.5781-8.0625 0-2.5781 4.1914-7.0938 6.4492-12.254 6.4492-6.4492 0-12.254-4.5156-13.863-10.641-0.32422-1.2891-1.2891-2.5781-2.5781-2.9023-1.2891-0.64453-2.5781-0.64453-3.8711-0.32422-1.6133 0.64453-3.5469 0.96875-5.4805 0.96875-8.0625 0-14.508-6.4492-14.508-14.508 0-8.0625 6.4492-14.508 14.508-14.508 6.4492 0 12.254 4.5156 13.863 10.641 0.32422 1.2891 1.2891 2.5781 2.5781 3.2227 1.2891 0.64453 2.5781 0.64453 3.8711 0l0.64453-0.32422c1.9336-0.64453 3.2227-2.5781 3.2227-4.8359v-0.64844c0-5.8047 3.2227-10.641 8.3828-13.219 15.484 11.285 28.059 25.793 37.73 41.918zm-128.65-73.195c30.633 0 59.328 9.3516 82.867 25.148-2.9023 2.2578-5.4805 5.1602-7.0938 8.3828-4.5156-4.5156-10.641-7.0938-17.09-7.0938-13.219 0-24.184 10.965-24.184 24.184s10.965 24.184 24.184 24.184c1.2891 0 2.9023 0 4.1914-0.32422 4.1914 8.0625 12.254 13.219 21.602 13.219 6.125 0 11.609-2.2578 16.121-6.125 4.5156 3.8711 9.9961 6.125 16.121 6.125 6.4492 0 12.254-2.2578 16.766-5.8047 9.3516 18.379 15.156 39.016 16.121 60.941l-299.21 0.003906c3.5469-79.32 69.324-142.84 149.61-142.84zm-149.93 152.51h120.59l-68.68 110.92c-30.957-27.086-50.945-66.746-51.914-110.92zm81.578 123.82c0-4.5156 3.5469-8.0625 8.0625-8.0625s8.0625 3.5469 8.0625 8.0625-3.5469 8.0625-8.0625 8.0625-8.0625-3.5469-8.0625-8.0625zm18.055 14.832c4.5156-3.2227 7.7383-8.707 7.7383-14.508 0-9.6719-8.0625-17.734-17.734-17.734s-17.734 8.0625-17.734 17.734v1.2891c-4.1914-2.5781-8.3828-5.4805-12.254-8.3828l71.902-115.75c0.32422-0.32422 0.32422-0.64453 0.32422-0.96875h36.113c0 0.32422 0.32422 0.64453 0.32422 0.96875l35.789 57.715c-5.1602 3.2227-8.3828 8.707-8.3828 15.156 0 9.6719 8.0625 17.734 17.734 17.734 3.5469 0 6.7695-0.96875 9.3516-2.5781l17.41 28.051c-6.7695 5.1602-13.863 9.6719-21.281 13.543 0-0.64453 0.32422-1.6133 0.32422-2.2578 0-9.6719-8.0625-17.734-17.734-17.734s-17.734 8.0625-17.734 17.734c0 5.4805 2.5781 10.641 6.4492 13.863-12.898 3.5469-26.441 5.4805-40.305 5.4805-17.734-0.64453-34.824-3.8672-50.301-9.3516zm114.14-56.746c-4.5156 0-8.0625-3.5469-8.0625-8.0625s3.5469-8.0625 8.0625-8.0625 8.0625 3.5469 8.0625 8.0625c-0.003906 4.5156-3.8711 8.0625-8.0625 8.0625zm-20.312 46.105c0-4.5156 3.5469-8.0625 8.0625-8.0625s8.0625 3.5469 8.0625 8.0625c-0.003906 4.5156-3.5508 8.0625-8.0664 8.0625-4.5117 0-8.0586-3.5469-8.0586-8.0625zm54.488-17.086-18.379-29.344c0.96875-2.2578 1.6133-4.8359 1.6133-7.418 0-9.6719-7.7383-17.41-17.41-17.734l-34.5-56.426h120.59c-0.97266 44.176-20.961 83.836-51.918 110.92z" fill="#00bac2"/>
  <path d="m187.96 190.22c1.9336 11.285 11.93 19.668 23.859 19.668 9.3516 0 17.734-5.4805 21.602-13.543 4.5156 4.5156 10.641 7.0938 17.09 7.0938 13.219 0 24.184-10.965 24.184-24.184s-10.965-24.184-24.184-24.184c-1.2891 0-2.9023 0-4.1914 0.32422-4.1914-8.0625-12.254-13.219-21.602-13.219-6.125 0-11.609 2.2578-16.121 6.125-4.5156-3.8711-9.9961-6.125-16.121-6.125-13.219 0-24.184 10.965-24.184 24.184 0 11.93 8.3828 21.926 19.668 23.859zm4.1914-38.047c4.8359 0 9.3516 2.5781 12.254 6.4492 1.9336 2.5781 6.125 2.5781 8.0625 0 2.5781-4.1914 7.0938-6.4492 12.254-6.4492 6.4492 0 12.254 4.5156 13.863 10.641 0.32422 1.2891 1.2891 2.5781 2.5781 2.9023 1.2891 0.64453 2.5781 0.64453 3.8711 0.32422 1.6133-0.64453 3.5469-0.96875 5.4805-0.96875 8.0625 0 14.508 6.4492 14.508 14.508 0 8.0625-6.4492 14.508-14.508 14.508-6.4492 0-12.254-4.5156-13.863-10.641-0.32422-1.2891-1.2891-2.5781-2.5781-3.2227-1.2891-0.64453-2.5781-0.64453-3.8711 0l-0.64453 0.32422c-1.9336 0.64453-3.2227 2.5781-3.2227 4.8359v0.64844c0 8.0625-6.4492 14.508-14.508 14.508-8.0625 0-14.508-6.4492-14.508-14.508 0-2.5781-2.2578-4.8359-4.8359-4.8359-8.0625 0-14.508-6.4492-14.508-14.508-0.011719-8.0664 6.4375-14.516 14.176-14.516z" fill="#00bac2"/>
  <path d="m238.91 312.43c0 6.4492-9.6719 6.4492-9.6719 0s9.6719-6.4492 9.6719 0" fill="#00bac2"/>
  <path d="m274.38 277.28c0 6.4492-9.6719 6.4492-9.6719 0s9.6719-6.4492 9.6719 0" fill="#00bac2"/>
  <path d="m249.88 287.92c0 6.4492-9.6758 6.4492-9.6758 0s9.6758-6.4492 9.6758 0" fill="#00bac2"/>
  <path d="m234.72 354.67c0 6.4453-9.6719 6.4453-9.6719 0 0-6.4492 9.6719-6.4492 9.6719 0" fill="#00bac2"/>
  <path d="m282.12 315.97c0 6.4492-9.6719 6.4492-9.6719 0 0-6.4492 9.6719-6.4492 9.6719 0" fill="#00bac2"/>
  <path d="m261.48 393.36c0 6.4492-9.6719 6.4492-9.6719 0s9.6719-6.4492 9.6719 0" fill="#00bac2"/>
  <path d="m272.77 336.93c-9.6719 0-17.734 8.0625-17.734 17.734s8.0625 17.734 17.734 17.734 17.734-8.0625 17.734-17.734c0-9.6758-7.7383-17.734-17.734-17.734zm0 25.793c-4.5156 0-8.0625-3.5469-8.0625-8.0625 0-4.5156 3.5469-8.0625 8.0625-8.0625s8.0625 3.5469 8.0625 8.0625c0 4.5156-3.5469 8.0625-8.0625 8.0625z" fill="#00bac2"/>
 </g>
</svg>
