<?xml version="1.0" encoding="UTF-8"?>
<svg width="512pt" height="512pt" version="1.1" viewBox="0 0 512 512" xmlns="http://www.w3.org/2000/svg">
 <g>
  <rect width="512" height="512"/>
  <path d="m300.12 219.29v-79.285h25.945c4.0938 0 7.4258-3.3516 7.4258-7.4688l0.003906-23.449c0-4.0938-3.332-7.4219-7.4258-7.4219h-139.73c-4.0938 0-7.4258 3.3281-7.4258 7.4219v23.449c0 4.1172 3.332 7.4688 7.4258 7.4688h25.949v79.285c-34.605 16.809-56.828 52.145-56.828 90.711 0 3.1367 0.15234 6.2383 0.43359 9.3047-0.007813 0.17188 0 0.33984 0.015625 0.51172 0.12891 1.3164 0.29688 2.6641 0.44531 3.8125 0.019532 0.16797 0.054688 0.32813 0.097657 0.49219 6.8867 48.902 49 86.648 99.77 86.648 55.562 0 100.77-45.203 100.77-100.77 0.003906-38.555-22.238-73.891-56.863-90.711zm-113.65-110.07h139.47v23.227h-139.47zm31.164 115.9c1.3477-0.61328 2.2109-1.957 2.2109-3.4375v-81.684h72.723v81.684c0 1.4805 0.86328 2.8242 2.2109 3.4375 33.203 15.145 54.656 48.457 54.656 84.875 0 0.64453-0.011719 1.2891-0.023438 1.9297-10.531-5.4531-30.598-8.4414-48.52-10.074 0.007813-0.32812 0.015625-0.66016 0.015625-0.98828 0-24.66-20.043-44.727-44.684-44.727-11.953 0-23.188 4.6484-31.629 13.094-8.4414 8.4414-13.094 19.676-13.094 31.633 0 0.32812 0.011719 0.66016 0.015625 0.98828-17.898 1.6328-37.938 4.6172-48.48 10.055-0.011718-0.63672-0.023437-1.2695-0.023437-1.9102 0.003906-36.43 21.441-69.742 54.621-84.875zm-54.035 95.27c3.125-3.1016 17.949-8.207 48.711-11.023 0.71094 3.6953 1.8828 7.2461 3.4883 10.625 0.019531 0.039062 0.035156 0.078125 0.054687 0.11719 0.17578 0.37109 0.36328 0.74219 0.55078 1.1094 0.097656 0.1875 0.19531 0.375 0.29297 0.5625 0.15625 0.29297 0.30859 0.58594 0.47266 0.87891 0.23828 0.42969 0.48438 0.85156 0.73828 1.2734 0.039062 0.0625 0.074219 0.12891 0.11328 0.19141 0.72656 1.1953 2.0469 1.8945 3.4492 1.8047 10.5-0.61719 21.047-0.92969 31.348-0.92969l2.082 0.035157h0.10937 3.1602c0.60156 0.007812 1.1992 0.015625 1.793 0.023437l0.39844 0.007813c0.074219 0.003906 0.14844 0.007812 0.22266 0.007812h0.37109c0.66016 0.011719 1.3086 0.019531 1.9531 0.035157 0.050781 0.003906 0.097656 0.011718 0.14844 0.011718h0.48047c0.28516 0.003906 0.57031 0.011719 0.85156 0.015625 0.089843 0.007813 0.17969 0.019531 0.27344 0.019531h0.57812c0.27344 0.007813 0.55078 0.011719 0.82422 0.019532 0.10938 0.007812 0.21875 0.019531 0.32812 0.019531h0.4375c0.16016 0.003906 0.31641 0.007813 0.47266 0.011719 0.14062 0.015625 0.27734 0.03125 0.41797 0.03125h0.80469c0.03125 0 0.066406 0 0.097656 0.003906 0.14844 0.003906 0.29688 0.011719 0.44922 0.015625 0.11328 0.011719 0.22656 0.019531 0.33594 0.019531h0.27734c0.22266 0.007813 0.44531 0.015625 0.66797 0.019532 0.078126 0.003906 0.15234 0.015624 0.23047 0.015624h0.24609c0.21094 0.007813 0.42188 0.011719 0.62891 0.019532 0.11328 0.011718 0.22656 0.023437 0.34375 0.023437h0.32812c0.17578 0.023438 0.35547 0.039063 0.53516 0.039063h0.41797c0.80859 0.03125 1.6172 0.066406 2.4219 0.10156 0.51953 0.023438 1.0391 0.042969 1.5625 0.066406 0.84766 0.039063 1.6914 0.085938 2.5312 0.13281 3.6016 0.19141 7.2422 0.42188 11.016 0.70703h0.03125c0.085938 0.003906 0.16797 0.011719 0.25391 0.011719 0.039062 0 0.074218-0.007813 0.11328-0.007813 0.082031-0.003906 0.16797-0.007812 0.25-0.015624 0.082031-0.007813 0.16406-0.019532 0.24609-0.03125 0.082032-0.011719 0.16016-0.027344 0.23828-0.046876 0.082031-0.019531 0.16406-0.042968 0.24609-0.066406 0.074218-0.023437 0.15234-0.046875 0.22656-0.074218 0.078125-0.03125 0.15625-0.066407 0.23438-0.097657 0.074219-0.03125 0.14453-0.066406 0.21484-0.10156 0.070312-0.039063 0.14062-0.082031 0.21094-0.125 0.070313-0.042969 0.14453-0.085938 0.21094-0.13281 0.058594-0.042968 0.11328-0.089844 0.16797-0.13281 0.074219-0.058594 0.14844-0.11719 0.21875-0.18359 0.035157-0.03125 0.066407-0.066406 0.097657-0.10156 0.19531-0.19531 0.37891-0.41016 0.53125-0.65234 0.10938-0.17578 0.20703-0.35156 0.31641-0.52734 0.19531-0.32422 0.39453-0.64844 0.58203-0.98047 0.16016-0.27734 0.30859-0.55469 0.46094-0.83203 0.125-0.23047 0.25-0.46094 0.37109-0.69531 0.17578-0.33984 0.35156-0.67969 0.51953-1.0195 0.035156-0.074218 0.070312-0.14844 0.10547-0.22266 1.6992-3.5 2.9297-7.1719 3.6562-10.984 30.84 2.8242 45.66 7.9492 48.723 11.047-0.042969 0.37109-0.085938 0.74219-0.13281 1.1172-5.9531 5.5742-39.984 12.844-92.48 12.844-52.445 0-86.469-7.25-92.492-12.82-0.050781-0.40234-0.09375-0.78906-0.13672-1.1797zm129.48-15.043c-0.019531 0.17578-0.046875 0.35547-0.070313 0.53125-0.49609 3.6953-1.5391 7.2852-3.1016 10.656-0.015625 0.035156-0.03125 0.066406-0.046875 0.10156-0.13672 0.28906-0.27344 0.57422-0.41797 0.85938-0.11719 0.23047-0.23438 0.46094-0.35547 0.69141-0.085938 0.16797-0.17188 0.33203-0.26172 0.5-2.1484-0.15234-4.3242-0.28906-6.5117-0.41406-0.26562-0.015625-0.53125-0.03125-0.79297-0.046875 1.8828-3.1484 2.918-6.7891 2.918-10.578 0-11.426-9.2773-20.719-20.68-20.719-5.5273 0-10.723 2.1523-14.625 6.0664-3.9062 3.9102-6.0547 9.1133-6.0547 14.652 0 3.4766 0.89844 6.8555 2.5273 9.8438-7.3555 0.10156-14.801 0.35547-22.23 0.76172-1.7578-3.3242-2.9961-6.8906-3.6797-10.574-0.007812-0.039062-0.015624-0.078125-0.019531-0.11719-0.12891-0.70703-0.23828-1.418-0.32812-2.1367 0-0.015625-0.003906-0.03125-0.007812-0.046875-0.18359-1.4922-0.27344-3-0.27344-4.5117 0-9.9375 3.8633-19.273 10.879-26.289 7.0156-7.0156 16.352-10.879 26.285-10.879 20.473 0 37.125 16.672 37.125 37.168-0.007813 1.5039-0.10156 3-0.27734 4.4805zm-21.016 12.438c-0.054688 0-0.11328-0.003907-0.17188-0.003907-0.13672-0.015624-0.27344-0.027343-0.41016-0.027343h-0.40234c-0.13281-0.003907-0.26953-0.007813-0.40234-0.011719-0.12109-0.011719-0.24609-0.023438-0.37109-0.023438h-0.42578c-0.10938-0.003906-0.22266-0.007812-0.33203-0.011718h-0.019531c-0.14453-0.015625-0.29297-0.027344-0.44141-0.027344h-0.45703c-0.24609-0.007812-0.49219-0.015625-0.74219-0.023438-0.097657-0.007812-0.19531-0.023437-0.29297-0.023437h-0.45312c-0.27344-0.007813-0.54297-0.015625-0.81641-0.023437-0.085938-0.007813-0.17188-0.015626-0.25781-0.015626h-0.45703c-0.26562-0.007812-0.53516-0.011718-0.80078-0.015624-0.09375-0.007813-0.18359-0.019532-0.27734-0.019532h-0.61719c-0.24219-0.003906-0.48437-0.011718-0.73047-0.015625-0.125-0.011719-0.25-0.03125-0.37891-0.03125l-2.6445-0.03125c-0.074218-0.003906-0.14844-0.007812-0.22266-0.007812h-1.1562c-1.0664-0.011719-2.1328-0.019531-3.2031-0.023438-0.17188 0-0.33594-0.003906-0.50781-0.003906-2.8047-2.457-4.4492-6.043-4.4492-9.8008 0-3.5234 1.3672-6.832 3.8438-9.3125 2.4766-2.4805 5.7734-3.8477 9.2773-3.8477 7.2383 0 13.125 5.9023 13.125 13.16 0.007812 3.9609-1.7695 7.668-4.8047 10.141zm-15.84 85.426c-44.148 0-81.227-30.855-90.805-72.137 5.9453 2.5312 14.609 4.6992 25.934 6.4844 17.918 2.8242 40.953 4.3789 64.871 4.3789 23.898 0 46.926-1.5547 64.836-4.3789 11.348-1.7891 20.027-3.9648 25.973-6.5-9.5703 41.285-46.652 72.152-90.809 72.152z" fill="#00bac2"/>
  <path d="m263.75 298.19c-5.1992 0-9.4297 4.2461-9.4297 9.4609 0 5.1992 4.2305 9.4258 9.4297 9.4258 5.2188 0 9.4609-4.2266 9.4609-9.4258 0-5.2148-4.2461-9.4609-9.4609-9.4609zm0 11.332c-1.0156 0-1.8711-0.85547-1.8711-1.8672 0-1.0508 0.83984-1.9062 1.8711-1.9062 1.0508 0 1.9062 0.85547 1.9062 1.9062-0.003906 1.0117-0.875 1.8672-1.9062 1.8672z" fill="#00bac2"/>
  <path d="m234.11 350.86c-5.6289 0-10.211 4.5781-10.211 10.207s4.582 10.211 10.211 10.211c5.6289 0 10.207-4.5781 10.207-10.211 0-5.6289-4.5781-10.207-10.207-10.207zm0 12.859c-1.4883 0-2.6562-1.1641-2.6562-2.6523 0-1.4883 1.168-2.6523 2.6562-2.6523s2.6523 1.1641 2.6523 2.6523c-0.003906 1.4883-1.168 2.6523-2.6523 2.6523z" fill="#00bac2"/>
  <path d="m207.48 350.82c-6.5586 0-11.898 5.3203-11.898 11.855 0 6.5391 5.3359 11.855 11.898 11.855 6.5391 0 11.855-5.3203 11.855-11.855 0-6.5391-5.3203-11.855-11.855-11.855zm0 16.156c-2.3945 0-4.3398-1.9297-4.3398-4.3008 0-2.3711 1.9453-4.3008 4.3398-4.3008 2.3711 0 4.3008 1.9297 4.3008 4.3008-0.003906 2.3711-1.9336 4.3008-4.3008 4.3008z" fill="#00bac2"/>
  <path d="m299.48 340.7c-5.6289 0-10.211 4.6016-10.211 10.254 0 5.6289 4.582 10.207 10.211 10.207 5.6289 0 10.207-4.5781 10.207-10.207 0-5.6562-4.5781-10.254-10.207-10.254zm0 12.902c-1.4648 0-2.6562-1.1875-2.6562-2.6523 0-1.4844 1.1914-2.6953 2.6562-2.6953 1.4609 0 2.6523 1.2109 2.6523 2.6953 0 1.4648-1.1914 2.6523-2.6523 2.6523z" fill="#00bac2"/>
  <path d="m254.93 370.98c-2.7344 0-5.3008 1.0547-7.2344 2.9727-1.9453 1.9258-3.0156 4.5-3.0156 7.2383 0 5.6289 4.5977 10.207 10.25 10.207 5.6289 0 10.207-4.5781 10.207-10.207s-4.5781-10.211-10.207-10.211zm0 12.863c-1.4844 0-2.6914-1.1914-2.6914-2.6523 0-0.70703 0.27734-1.3711 0.77734-1.8711 0.50781-0.50391 1.1875-0.78125 1.9141-0.78125 1.4609 0 2.6523 1.1914 2.6523 2.6523-0.003906 1.4609-1.1914 2.6523-2.6523 2.6523z" fill="#00bac2"/>
  <path d="m285.95 368.35c-6.5391 0-11.855 5.3203-11.855 11.855 0 6.543 5.3164 11.867 11.855 11.867 6.5391 0 11.855-5.3242 11.855-11.867 0-6.5352-5.3203-11.855-11.855-11.855zm0 16.164c-2.3711 0-4.2969-1.9336-4.2969-4.3086 0-2.3711 1.9297-4.3008 4.2969-4.3008 2.3711 0 4.3008 1.9297 4.3008 4.3008-0.003906 2.375-1.9336 4.3086-4.3008 4.3086z" fill="#00bac2"/>
 </g>
</svg>
