<?xml version="1.0" encoding="UTF-8"?>
<svg width="512pt" height="512pt" version="1.1" viewBox="0 0 512 512" xmlns="http://www.w3.org/2000/svg">
 <g>
  <rect width="512" height="512"/>
  <path d="m307.54 275.93 53.629 25.074c1.6133 0.75391 2.3086 2.6758 1.5547 4.2852-0.75391 1.6133-2.6758 2.3125-4.2891 1.5547l-53.629-25.074c-1.6133-0.75391-2.3086-2.6719-1.5547-4.2852s2.6758-2.3086 4.2891-1.5547zm-50.23-73.211c0.85547 0 1.6758-0.33984 2.2812-0.94531 0.60156-0.60547 0.94141-1.4258 0.94141-2.2812v-46.84c0-1.7812-1.4414-3.2227-3.2227-3.2227s-3.2266 1.4414-3.2266 3.2227v46.84c0 0.85547 0.33984 1.6758 0.94531 2.2812 0.60547 0.60547 1.4258 0.94531 2.2812 0.94531zm29.32-51.668c0.82422 0.23047 1.707 0.125 2.4492-0.29297 0.74609-0.42188 1.293-1.1211 1.5234-1.9453l6.4453-23.078c0.47656-1.7148-0.52344-3.4922-2.2383-3.9727-1.7148-0.47656-3.4922 0.52344-3.9727 2.2383l-6.4453 23.078c-0.47656 1.7148 0.52344 3.4922 2.2383 3.9727zm-14.797 52.977c0.28125 0.078124 0.57422 0.12109 0.86719 0.12109 1.4453-0.003906 2.7148-0.96484 3.1016-2.3594l8.3477-29.887c0.47266-1.7109-0.52734-3.4844-2.2383-3.9609-1.7109-0.48047-3.4883 0.51953-3.9727 2.2266l-8.3477 29.887c-0.22656 0.82422-0.12109 1.7031 0.29687 2.4492 0.42188 0.74609 1.1211 1.293 1.9453 1.5234zm10.922 22.617c1.3477 1.168 3.3828 1.0234 4.5508-0.32422l37.527-43.297c1.1641-1.3438 1.0195-3.3828-0.32812-4.5469-1.3438-1.168-3.3828-1.0195-4.5469 0.32422l-37.527 43.297c-1.1641 1.3477-1.0195 3.3828 0.32422 4.5469zm72.414-11.383c-0.6875-1.6445-2.5742-2.4219-4.2188-1.7383l-30.527 12.711c-1.6445 0.68359-2.4219 2.5742-1.7344 4.2188 0.68359 1.6445 2.5703 2.4219 4.2148 1.7344l30.527-12.711c0.79297-0.32812 1.418-0.95703 1.7422-1.7461 0.32812-0.79297 0.32422-1.6797-0.003907-2.4688zm-13.477 37.52h-26.566c-1.7812 0-3.2266 1.4414-3.2266 3.2227s1.4453 3.2266 3.2266 3.2266h26.566c1.7773 0 3.2227-1.4453 3.2227-3.2266s-1.4453-3.2227-3.2227-3.2227zm-23.594 64.867c-1.2031-1.3125-3.2422-1.4023-4.5547-0.19922-1.3125 1.2031-1.4023 3.2422-0.19922 4.5547l28.148 30.762h0.003907c1.1992 1.3125 3.2383 1.4023 4.5547 0.19922 1.3125-1.2031 1.4023-3.2422 0.19922-4.5547zm-60.789 44.082c-0.85547-0.003906-1.6758 0.33594-2.2812 0.94141-0.60547 0.60547-0.94531 1.4258-0.94531 2.2812v27.078c0 1.7812 1.4453 3.2227 3.2266 3.2227s3.2227-1.4414 3.2227-3.2227v-27.078c0-0.85547-0.33984-1.6758-0.94141-2.2812-0.60547-0.60547-1.4258-0.94531-2.2812-0.94141zm0-45.125v-0.003906c-0.85547 0-1.6758 0.33984-2.2812 0.94531-0.60547 0.60547-0.94531 1.4258-0.94531 2.2812v21.156c0 1.7812 1.4453 3.2227 3.2266 3.2227s3.2227-1.4414 3.2227-3.2227v-21.156c0-0.85547-0.33984-1.6758-0.94141-2.2812-0.60547-0.60547-1.4258-0.94531-2.2812-0.94531zm38.34 20.77v-0.003906c-0.70312-1.6367-2.5977-2.3945-4.2344-1.6953-1.6367 0.70312-2.3945 2.5977-1.6914 4.2344l19.742 46.109v-0.003906c0.69922 1.6367 2.5938 2.3945 4.2305 1.6953 1.6367-0.69922 2.3945-2.5938 1.6953-4.2305zm-59.031-27.148c-1.6641-0.63281-3.5234 0.19922-4.1641 1.8594l-18.91 49.551c-0.63672 1.6641 0.19922 3.5273 1.8633 4.1641 1.6641 0.63281 3.5273-0.19922 4.1641-1.8633l18.91-49.551c0.63672-1.6641-0.19922-3.5273-1.8633-4.1602zm-58.793 32.984-19.688 22.82c-1.1641 1.3477-1.0156 3.3828 0.33203 4.5469 1.3477 1.1641 3.3828 1.0117 4.5469-0.33594l19.688-22.82c1.1641-1.3477 1.0156-3.3828-0.33203-4.5469-1.3477-1.1602-3.3867-1.0117-4.5469 0.33594zm27.672-32.078-12.41 14.383c-1.1602 1.3477-1.0117 3.3828 0.33594 4.5469 1.3477 1.1602 3.3828 1.0117 4.5469-0.33594l12.406-14.383c0.5625-0.64844 0.84375-1.4922 0.78125-2.3438-0.0625-0.85547-0.46094-1.6523-1.1094-2.2109-0.64844-0.55859-1.4922-0.83984-2.3477-0.77344-0.85156 0.0625-1.6484 0.46484-2.2031 1.1133zm14.891-35.77-0.003906-0.003906c-0.82422-1.5742-2.7734-2.1836-4.3516-1.3594l-74.238 38.918c-0.75781 0.39453-1.332 1.0781-1.5859 1.8945-0.25781 0.81641-0.17969 1.7031 0.21875 2.4609 0.39453 0.76172 1.0781 1.332 1.8984 1.5859 0.81641 0.25391 1.7031 0.17188 2.4609-0.22656l74.238-38.918c0.75781-0.39844 1.3281-1.0781 1.582-1.8945 0.25781-0.82031 0.17578-1.7031-0.21875-2.4609zm-46.914-16.133h28.945c1.7812 0 3.2227-1.4453 3.2227-3.2266s-1.4414-3.2227-3.2227-3.2227h-28.945c-1.7812 0-3.2227 1.4414-3.2227 3.2227s1.4414 3.2266 3.2227 3.2266zm37.867-41.359c1.3047 1.2109 3.3438 1.1289 4.5547-0.17578 1.207-1.3086 1.1289-3.3477-0.17969-4.5547l-32.465-30.031c-0.625-0.58203-1.4609-0.89062-2.3164-0.85938-0.85547 0.03125-1.6602 0.40234-2.2422 1.0312s-0.89062 1.4648-0.85547 2.3203c0.035157 0.85547 0.41016 1.6602 1.0391 2.2422zm-60.645-4.668c1.5312 0 2.8516-1.0742 3.1602-2.5703 0.30859-1.5-0.47266-3.0078-1.8789-3.6172l-24.285-10.484c-1.6367-0.70312-3.5352 0.046875-4.2383 1.6836-0.70703 1.6328 0.046875 3.5312 1.6797 4.2383l24.285 10.484h0.003907c0.40234 0.17188 0.83594 0.26562 1.2734 0.26562zm48.059 21.035c1.6367 0.70312 3.5352-0.046875 4.2383-1.6836 0.70703-1.6328-0.042969-3.5312-1.6797-4.2383l-27.449-11.848c-1.6328-0.70703-3.5312 0.046875-4.2383 1.6797-0.70312 1.6367 0.046875 3.5312 1.6836 4.2383zm21.012-61.586h0.003906c0.67578 1.6406 2.5547 2.4258 4.1992 1.7539 1.6445-0.67188 2.4375-2.5508 1.7695-4.1953l-13.812-33.801v-0.003906c-0.67578-1.6406-2.5547-2.4258-4.1992-1.7539-1.6445 0.67187-2.4375 2.5469-1.7695 4.1953zm15.777 30.078c-0.79297 0.32031-1.4219 0.94531-1.7539 1.7344-0.33203 0.78906-0.33594 1.6758-0.011718 2.4688l4.4062 10.785c0.32031 0.79297 0.94531 1.4258 1.7344 1.7578 0.78906 0.33203 1.6758 0.33984 2.4688 0.015625 0.79297-0.32422 1.4258-0.94922 1.7578-1.7383 0.32812-0.78906 0.33203-1.6797 0.007813-2.4727l-4.4062-10.785c-0.67188-1.6484-2.5547-2.4375-4.2031-1.7656zm145.91 5.6406c-0.019531 5.3281-4.3398 9.6406-9.668 9.6484h-0.03125c-5.3398-0.003906-9.668-4.3398-9.6602-9.6836 0.003906-5.3438 4.3398-9.668 9.6836-9.6641h0.027344c5.3398 0.023437 9.6562 4.3594 9.6484 9.6992zm-6.4492-0.015626c0.003906-1.7812-1.4375-3.2266-3.2188-3.2344h-0.007813 0.003907c-1.7812 0-3.2266 1.4414-3.2266 3.2227-0.003906 1.7812 1.4375 3.2266 3.2188 3.2266h0.007813c1.7773 0 3.2188-1.4375 3.2227-3.2148zm-227.7 40.789c1.8086-1.8047 4.2617-2.8203 6.8203-2.8125h0.027344c5.3438 0.003906 9.668 4.3398 9.6641 9.6836-0.007812 5.3438-4.3438 9.668-9.6875 9.6602h-0.027344c-3.9102-0.007813-7.4336-2.375-8.9219-5.9922-1.4883-3.6211-0.64844-7.7773 2.125-10.539zm3.5977 6.8516c0 1.7812 1.4375 3.2266 3.2188 3.2344h0.007812c1.7773-0.003906 3.2188-1.4414 3.2227-3.2188 0.003906-1.7812-1.4375-3.2266-3.2188-3.2305h-0.007812c-1.7773 0-3.2188 1.4375-3.2227 3.2148zm106.39-116.24h0.019532c3.5625 0.007812 6.4531-2.875 6.457-6.4375 0.003906-3.5625-2.8789-6.4531-6.4375-6.4609h-0.019531c-3.5625-0.003906-6.4531 2.8789-6.457 6.4414-0.007812 3.5625 2.875 6.4531 6.4375 6.457zm-25.352 60.652h0.019531c3.5625 0.003906 6.4531-2.8789 6.457-6.4414 0.007813-3.5586-2.875-6.4531-6.4375-6.457h-0.019531c-3.5625-0.003906-6.4531 2.8789-6.457 6.4414-0.007813 3.5586 2.875 6.4531 6.4375 6.457zm132.44 162.62c1.8359 1.8477 2.3828 4.6172 1.3828 7.0234s-3.3477 3.9727-5.9531 3.9766h-0.019531c-3.5625-0.003907-6.4453-2.8945-6.4414-6.457s2.8945-6.4453 6.457-6.4414h0.019531c1.7109 0 3.3516 0.68359 4.5547 1.8984zm-1.3477 4.5547-3.2227-0.015625 0.003907 0.007812zm-201.9-194.6c0.011719-3.5508 2.8945-6.4258 6.4492-6.4336h0.019531-0.003906c3.5625 0.003906 6.4453 2.8945 6.4414 6.457s-2.8945 6.4453-6.457 6.4414h-0.019531c-3.5547-0.015624-6.4336-2.9062-6.4297-6.4648zm6.4492 0.007812 0.003906 0.007813 3.2227 0.003906zm133.75 73.395-19.672 19.176 4.6445 27.074h-0.003906c0.21094 1.207-0.28906 2.4297-1.2812 3.1523s-2.3086 0.81641-3.3945 0.24609l-24.316-12.781-24.32 12.781c-1.0859 0.57031-2.4023 0.47656-3.3945-0.24609-0.99219-0.72266-1.4883-1.9453-1.2812-3.1523l4.6445-27.074-19.672-19.176c-0.87891-0.85937-1.1953-2.1406-0.81641-3.3086 0.37891-1.1641 1.3906-2.0156 2.6055-2.1914l27.188-3.9492 12.156-24.633v-0.003906c0.60156-1.0234 1.7031-1.6523 2.8906-1.6523s2.2852 0.62891 2.8906 1.6523l12.156 24.633 27.188 3.9492v0.003906c1.2148 0.17578 2.2227 1.0273 2.6055 2.1914 0.37891 1.168 0.0625 2.4492-0.81641 3.3086zm-9.1836-0.058593-22.398-3.2539h0.003906c-1.0508-0.15234-1.9609-0.8125-2.4297-1.7656l-10.016-20.297-10.016 20.297c-0.46875 0.95312-1.3789 1.6133-2.4297 1.7656l-22.398 3.2539 16.207 15.797c0.76172 0.74219 1.1055 1.8086 0.92578 2.8555l-3.8242 22.305 20.035-10.531c0.9375-0.49219 2.0586-0.49219 3 0l20.035 10.531-3.8242-22.305h-0.003906c-0.17969-1.0469 0.16797-2.1133 0.92578-2.8555zm39.629-87.348h8.0625v8.0625c0 1.7812 1.4414 3.2227 3.2227 3.2227s3.2227-1.4414 3.2227-3.2227v-8.0625h8.0625c1.7812 0 3.2227-1.4414 3.2227-3.2227s-1.4414-3.2266-3.2227-3.2266h-8.0625v-8.0625 0.003906c0-1.7812-1.4414-3.2266-3.2227-3.2266s-3.2227 1.4453-3.2227 3.2266v8.0625l-8.0625-0.003906c-1.7812 0-3.2227 1.4453-3.2227 3.2266s1.4414 3.2227 3.2227 3.2227zm43.445 93.801h-8.0625v-8.0625c0-1.7812-1.4453-3.2227-3.2227-3.2227-1.7812 0-3.2266 1.4414-3.2266 3.2227v8.0625h-8.0625 0.003907c-1.7812 0-3.2266 1.4414-3.2266 3.2227s1.4453 3.2266 3.2266 3.2266h8.0625v8.0625l-0.003907-0.003906c0 1.7812 1.4453 3.2266 3.2266 3.2266 1.7773 0 3.2227-1.4453 3.2227-3.2266v-8.0586h8.0625c1.7812 0 3.2227-1.4453 3.2227-3.2266s-1.4414-3.2227-3.2227-3.2227zm-157.7 130.7h-8.0625v-8.0625h0.003906c0-1.7812-1.4453-3.2227-3.2266-3.2227s-3.2227 1.4414-3.2227 3.2227v8.0625h-8.0625c-1.7812 0-3.2227 1.4414-3.2227 3.2227s1.4414 3.2266 3.2227 3.2266h8.0625v8.0625-0.003906c0 1.7812 1.4414 3.2266 3.2227 3.2266s3.2266-1.4453 3.2266-3.2266v-8.0625h8.0625l-0.003906 0.003906c1.7812 0 3.2266-1.4453 3.2266-3.2266s-1.4453-3.2227-3.2266-3.2227zm75.156-62.344-12.664 5.4219c-0.78516 0.33984-1.6719 0.34766-2.4688 0.03125-0.79297-0.31641-1.4258-0.9375-1.7617-1.7266l-5.4219-12.664c-0.33984-0.78516-0.34766-1.6719-0.03125-2.4688 0.31641-0.79297 0.9375-1.4297 1.7227-1.7656l12.664-5.4219c1.6406-0.69531 3.5312 0.0625 4.2344 1.6953l5.4219 12.664c0.33594 0.78906 0.34766 1.6758 0.03125 2.4688-0.32031 0.79297-0.9375 1.4297-1.7266 1.7656zm-5.5-4.6602-2.8828-6.7344-6.7383 2.8828 2.8828 6.7344z" fill="#00bac2"/>
 </g>
</svg>
