<?xml version="1.0" encoding="UTF-8"?>
<svg width="512pt" height="512pt" version="1.1" viewBox="0 0 512 512" xmlns="http://www.w3.org/2000/svg">
 <g>
  <rect width="512" height="512"/>
  <path d="m236.07 300.7c2.0078 0 3.6406-1.6289 3.6406-3.6406v-2.2422c0-6.4609-5.2383-11.699-11.699-11.699l-8.8945 0.003906c-2.0078 0-3.6406 1.6289-3.6406 3.6367v2.2422c0 6.4609 5.2383 11.699 11.699 11.699l8.8945-0.003906z" fill="#00bac2"/>
  <path d="m290.33 318.02c-2.3672-1.2578-5.2891-0.35547-6.5391 2.0078-2.3086 4.3516-6.3164 6.9492-10.73 6.9492-5.9023 0-10.836-4.7266-12.164-11.055 0.027343-0.21875 0.070312-0.43359 0.09375-0.65625 2.4219-0.26562 4.3125-2.293 4.3125-4.7852 0-2.668-2.1641-4.8359-4.8359-4.8359h-8.9531c-2.6719 0-4.8359 2.168-4.8359 4.8359 0 2.4883 1.8906 4.5156 4.3125 4.7852 0.023437 0.22266 0.066406 0.43359 0.09375 0.65625-1.3281 6.3281-6.2617 11.055-12.164 11.055-4.4102 0-8.4219-2.5977-10.727-6.9492-1.25-2.3633-4.1836-3.2656-6.5391-2.0078-2.3594 1.25-3.2617 4.1797-2.0117 6.5352 3.9531 7.457 11.34 12.094 19.273 12.094 0.23828 0 0.46875-0.03125 0.70312-0.039063 2.9492 6.2344 9.2188 10.445 16.375 10.445s13.422-4.2148 16.375-10.445c0.23047 0.007813 0.45703 0.039063 0.69141 0.039063 7.9336 0 15.32-4.6367 19.273-12.094 1.2578-2.3555 0.35937-5.2812-2.0039-6.5352zm-34.332 19.367c-2.7734 0-5.2539-1.3594-6.8203-3.4766 2.6172-1.4883 4.9375-3.5117 6.8125-5.9531 1.8789 2.4453 4.1992 4.4688 6.8203 5.957-1.5586 2.1172-4.043 3.4727-6.8125 3.4727z" fill="#00bac2"/>
  <path d="m292.88 283.12h-8.8945c-6.4609 0-11.699 5.2383-11.699 11.699v2.2422c0 2.0078 1.6289 3.6406 3.6367 3.6406h8.8945c6.4609 0 11.699-5.2383 11.699-11.699v-2.2461c0-2.0078-1.6289-3.6367-3.6367-3.6367z" fill="#00bac2"/>
  <path d="m325.78 213.47c-5.8125 0-13.184 3.0391-19.594 5.875-5.1758 2.2266-10.078 5.125-14.703 8.5781l-21.699-52.953c0.45703 0.089844 0.92188 0.14062 1.3906 0.14062 1.9727-0.003906 3.8906-0.82422 5.2617-2.2617 1.3828-1.4492 2.0938-3.3516 2-5.3555l-0.65234-13.793 8.6367-10.777c1.5352-1.918 2-4.457 1.2383-6.7891-0.75781-2.3359-2.625-4.1133-4.9961-4.7695l-13.32-3.6445-7.582-11.547c-1.3516-2.0469-3.625-3.2734-6.0781-3.2734s-4.7266 1.2266-6.0781 3.2773l-7.582 11.543-13.32 3.6484c-2.3672 0.64844-4.2344 2.4297-4.9961 4.7656-0.75781 2.3359-0.29688 4.875 1.2383 6.7891l8.6328 10.777-0.64844 13.793c-0.09375 2.0039 0.61719 3.9062 2 5.3594 1.9766 2.0703 5.125 2.8008 7.8359 1.7852l0.23438-0.089844-22.004 53.719c-4.7266-3.6055-9.793-6.6211-15.172-8.9688-5.3438-2.3242-13.418-5.8398-19.605-5.8398-3.4062 0-6.0781 1.0273-7.9219 3.0312-1.957 2.0938-3.7969 6.0664-2.5547 19.641 0.75781 8.4297 2.8398 17.02 6.3828 26.277 1.125 2.8984 1.75 5.5 1.6758 6.9062-1.0938 16.836-2.1992 25.16-2.9297 30.672-0.71484 5.3906-1.0742 8.1016-0.47656 12.73 2.6094 19.695 17.148 33.289 24.039 38.73-1.7852 2.5352-2.8164 5.582-2.8164 8.8164v25.469c0 5.3516 2.7148 10.234 7.2656 13.051 2.4805 1.5391 5.2695 2.3125 8.0703 2.3125 2.3359 0 4.6719-0.53906 6.8516-1.6211 0.17969-0.085937 0.35156-0.19141 0.51953-0.30078l15.938-10.57c3.7969 3.5156 8.8633 5.6797 14.438 5.6797h2.6094c5.3945 0 10.473-2.0234 14.422-5.6758l15.957 10.566c0.16406 0.10547 0.33594 0.20703 0.51562 0.29688 2.1758 1.0859 4.5156 1.625 6.8477 1.625 2.7969 0 5.5859-0.77344 8.0664-2.3125 4.5508-2.8164 7.2656-7.6953 7.2656-13.051v-25.469c0-3.2383-1.0312-6.2852-2.8203-8.8203 6.9023-5.4453 21.43-19.031 23.996-38.676 0.625-4.6836 0.26562-7.4375-0.45703-12.922-0.72656-5.5156-1.8203-13.848-2.9023-30.469-0.078125-1.4609 0.54297-4.0625 1.6836-6.9961 1.1367-2.9922 2.0508-5.707 2.7812-8.25 1.8555-6.168 3.0234-12.051 3.582-17.984 1.2422-13.574-0.59375-17.547-2.5273-19.617-1.8633-2.0352-4.5391-3.0586-7.9375-3.0586zm-83.016-49.172 0.5625-11.969c0.054687-1.1719-0.32422-2.332-1.0586-3.25l-7.4922-9.3516 11.555-3.1641c1.1367-0.30859 2.1172-1.0234 2.7617-2.0039l6.582-10.012 6.582 10.008c0.64453 0.98828 1.6289 1.6992 2.7617 2.0117l11.555 3.1602-7.4922 9.3516c-0.73438 0.91797-1.1133 2.0781-1.0586 3.25l0.5625 11.969-11.207-4.2344c-0.55078-0.20703-1.1328-0.3125-1.707-0.3125-0.57812 0-1.1562 0.10156-1.707 0.3125zm10.859 9.8438c0.66406-1.6133 2.0977-1.7852 2.6875-1.7852 0.58594 0 2.0234 0.17578 2.6836 1.7812l23.719 57.875c-2.8398-0.875-6.3438-1.8242-10.473-2.7188-5.3945-1.1562-10.941-1.7109-16.488-1.6836-0.019531 0-0.039062-0.007812-0.0625-0.007812-0.035156 0-0.066406 0.007812-0.10156 0.007812-5.2383 0.035157-10.473 0.58594-15.582 1.6758-3.4531 0.73438-6.8594 1.5977-10.004 2.5273zm-18.797 206.46-15.566 10.324c-1.7461 0.76953-3.6562 0.64453-5.2891-0.36328-1.707-1.0547-2.6836-2.8164-2.6836-4.8242v-25.469c0-1.3203 0.46875-2.5 1.2344-3.4688 6.6094 3.7383 13.348 6.2812 21.602 8.1289l0.71484 0.47656c-0.93359 2.4023-1.4297 4.9766-1.4297 7.6289 0 2.668 0.51562 5.2109 1.418 7.5664zm65.883 5.1367c0 2.0117-0.97656 3.7695-2.6836 4.8242-1.6367 1.0117-3.5547 1.1367-5.2852 0.36328l-15.629-10.352c0.39062-1.1602 0.65234-2.3906 0.65234-3.6641 0-2.668-2.1641-4.8359-4.8359-4.8359-2.6719 0-4.8359 2.168-4.8359 4.8359 0 0.84766-1.3047 3.0195-2.5781 4.293-2.1992 2.1992-5.1094 3.4062-8.207 3.4062h-2.6094c-6.4023 0-11.613-5.1953-11.613-11.586 0-2.2773 0.66406-4.4531 1.8945-6.3086 2.4492 0.23047 4.9492 0.34766 7.7578 0.34766 1.0742 0 2.2031-0.015625 3.1328-0.050781 1.1914 0.035156 2.3203 0.050781 3.3906 0.050781 2.7891 0 5.2734-0.11719 7.7109-0.34375 0.12109 0.18359 0.28516 0.32422 0.39844 0.51953 0.90234 1.5273 2.5156 2.375 4.168 2.375 0.83594 0 1.6836-0.21484 2.4531-0.67188 1.1367-0.67188 1.8984-1.7422 2.2109-2.9297l1.6836-1.1055c8.2461-1.8516 14.977-4.3906 21.586-8.1289 0.76562 0.96875 1.2344 2.1523 1.2344 3.4727zm25.902-150.49c-0.49219 5.2812-1.543 10.547-3.2266 16.145-0.67578 2.3398-1.5078 4.8125-2.5352 7.5156-1.6914 4.3633-2.4688 8.0547-2.3125 11.035 1.1055 16.996 2.2734 25.863 2.9688 31.16 0.68359 5.2109 0.91406 6.9688 0.46094 10.395-2.7422 20.996-22.453 33.941-23.301 34.488-8.2773 5.3828-16.266 8.4062-27.551 10.438-3.8867 0.67969-7.4336 0.96875-11.852 0.96875-0.98828 0-2.0273-0.015625-3.3906-0.046875-6.0117 0.16016-10.227-0.089844-14.961-0.92188-1.3398-0.24219-2.6172-0.49609-3.8711-0.76562-0.066407-0.015625-0.13672-0.027344-0.20703-0.042968-9.2266-2.0156-16.254-4.9219-23.512-9.6367-0.83984-0.54297-20.551-13.488-23.332-34.52-0.43359-3.3594-0.20313-5.0859 0.47656-10.207 0.70312-5.293 1.8789-14.156 3-31.371 0.15625-2.9258-0.62109-6.6211-2.3047-10.953-3.207-8.3945-5.0938-16.137-5.7734-23.676-0.73047-8-0.19922-11.086 0.078125-12.07 0.16797-0.027344 0.41406-0.054688 0.76172-0.054688 4.168 0 11.699 3.2773 15.746 5.0352 7.3672 3.2031 14.105 7.8359 20.031 13.758 1.5742 1.5742 4.0117 1.8672 5.9102 0.73047 0.28516-0.10156 0.61719-0.20312 0.91406-0.30469v9.0508c0 2.668 2.1641 4.8359 4.8359 4.8359s4.8359-2.168 4.8359-4.8359l-0.007812-11.844c1.1562-0.28125 2.332-0.55078 3.5195-0.80469 2.9102-0.61719 5.8633-1.0234 8.832-1.2539v23.969c0 2.668 2.1641 4.8359 4.8359 4.8359s4.8359-2.168 4.8359-4.8359v-24.035c3.2617 0.21094 6.5039 0.64062 9.6836 1.3242 0.93359 0.19922 1.8555 0.42578 2.7812 0.64453v12.004c0 2.668 2.1641 4.8359 4.8359 4.8359 2.6719 0 4.8359-2.168 4.8359-4.8359v-9.2266c0.52344 0.17969 1.082 0.35938 1.5664 0.53906l0.40625 0.17969c1.8164 0.79688 3.9375 0.41016 5.3477-0.98828 6.0039-5.9375 12.742-10.539 20.074-13.691 3.7227-1.6484 11.469-5.0703 15.727-5.0703 0.35156 0 0.60156 0.027344 0.75 0.039063 0.28125 0.96484 0.82031 4.0469 0.085937 12.066z" fill="#00bac2"/>
  <path d="m203.1 239.04c-1.8203-0.79297-5.0156-2.1797-6.0312-1.0781-0.53125 0.57031-0.51953 2.4492-0.34375 4.3477 0.16406 1.8242 2.7227 7.6328 4.418 11.727 0.53906 1.3008 2.1523 1.7422 3.2773 0.90234l7.8438-5.8281c1.0703-0.79688 1.1836-2.3555 0.21875-3.2812-2.7617-2.6484-7.2852-5.8789-9.3828-6.7891z" fill="#00bac2"/>
  <path d="m308.86 239.04c-2.0977 0.91406-6.6211 4.1406-9.3867 6.7891-0.96484 0.92188-0.85547 2.4844 0.21875 3.2812l7.8438 5.8281c1.1289 0.83984 2.7422 0.39844 3.2773-0.90234 1.6953-4.0938 4.2578-9.9062 4.418-11.727 0.17578-1.8945 0.1875-3.7773-0.34375-4.3477-1.0117-1.1016-4.207 0.28516-6.0273 1.0781z" fill="#00bac2"/>
 </g>
</svg>
