<?xml version="1.0" encoding="UTF-8"?>
<svg width="512pt" height="512pt" version="1.1" viewBox="0 0 512 512" xmlns="http://www.w3.org/2000/svg">
 <g>
  <rect width="512" height="512"/>
  <path d="m250.96 336.61c0 5.5664-4.5117 10.078-10.074 10.078-5.5664 0-10.078-4.5117-10.078-10.078s4.5117-10.074 10.078-10.074c5.5625 0 10.074 4.5078 10.074 10.074" fill="#00bac2"/>
  <path d="m281.19 336.61c0 5.5664-4.5117 10.078-10.078 10.078-5.5625 0-10.074-4.5117-10.074-10.078s4.5117-10.074 10.074-10.074c5.5664 0 10.078 4.5078 10.078 10.074" fill="#00bac2"/>
  <path d="m230.81 119.97h10.078v10.078h-10.078z" fill="#00bac2"/>
  <path d="m271.11 125.01h10.078v10.078h-10.078z" fill="#00bac2"/>
  <path d="m250.96 130.05h10.078v10.078h-10.078z" fill="#00bac2"/>
  <path d="m319.31 270.77c-4.5781-3.8398-10.629-5.4453-16.508-4.3867-5.8828 1.0586-10.992 4.6719-13.945 9.8672-2.957 5.1914-3.457 11.43-1.3594 17.027 0.85547 1.8203 0.55469 3.9766-0.76562 5.4922l-2.4453 2.4453c-8.0156-6.4414-17.988-9.9531-28.27-9.9531s-20.254 3.5117-28.27 9.9531l-2.4805-2.4453c-1.332-1.5156-1.6406-3.6758-0.78125-5.5 1.2891-3.5 1.5977-7.2812 0.89453-10.945-1.1953-6.082-5.125-11.277-10.652-14.082-5.5273-2.8086-12.043-2.9141-17.656-0.28516-5.6172 2.625-9.7109 7.6914-11.102 13.734-6.0508 1.3828-11.125 5.4766-13.758 11.098-2.6328 5.6211-2.5273 12.141 0.28125 17.672 2.8125 5.5312 8.0156 9.4609 14.105 10.652 3.6602 0.70312 7.4453 0.39062 10.941-0.90234 1.8242-0.85156 3.9844-0.54297 5.4961 0.78516l8.2578 8.2578c-0.41406 2.4297-0.625 4.8867-0.64062 7.3516v20.152c0.003906 3.125 0.97656 6.1719 2.7812 8.7227 1.8008 2.5547 4.3516 4.4844 7.2969 5.5312v5.8984c0 4.0078 1.5898 7.8516 4.4258 10.688 2.8359 2.8359 6.6797 4.4258 10.688 4.4258h40.305c4.0078 0 7.8516-1.5898 10.688-4.4258 2.8359-2.8359 4.4258-6.6797 4.4258-10.688v-5.8984c2.9453-1.0469 5.4961-2.9766 7.3008-5.5312 1.8008-2.5508 2.7734-5.5977 2.7773-8.7227v-20.152c-0.015625-2.4609-0.23438-4.9141-0.65234-7.3398l8.2578-8.2773c1.5117-1.3398 3.6797-1.6484 5.5039-0.78125 3.5 1.2812 7.2812 1.5938 10.941 0.89844 6.0859-1.1992 11.277-5.125 14.086-10.656 2.8047-5.5273 2.9102-12.039 0.28516-17.656-2.6289-5.6172-7.6953-9.7109-13.734-11.102-0.98828-4.2773-3.3477-8.1133-6.7188-10.922zm-109.16 43.113c-2.0977-2.0234-4.7383-3.3945-7.5977-3.9453-2.8633-0.54688-5.8242-0.25391-8.5234 0.84766-1.7734 0.64844-3.6875 0.80078-5.543 0.4375-5.0977-1.0078-8.5898-5.7266-8.0703-10.895 0.52344-5.1719 4.8906-9.0977 10.086-9.0664 1.3359 0 2.6172-0.53125 3.5625-1.4727 0.94531-0.94531 1.4766-2.2266 1.4766-3.5625-0.03125-5.1992 3.8945-9.5664 9.0625-10.09 5.1719-0.51953 9.8906 2.9766 10.898 8.0742 0.36719 1.8516 0.21484 3.7695-0.4375 5.5391-1.1016 2.6992-1.3906 5.6602-0.84375 8.5234 0.55078 2.8594 1.9219 5.5 3.9414 7.6016l2.4453 2.4453v-0.003907c-2.4336 3.0391-4.4648 6.3789-6.0469 9.9375zm81.113 42.875c0 1.3359-0.53125 2.6172-1.4727 3.5625-0.94531 0.94531-2.2266 1.4766-3.5625 1.4766-2.7852 0-5.0391 2.2539-5.0391 5.0391v10.078-0.003907c0 1.3359-0.53125 2.6172-1.4766 3.5625-0.94531 0.94531-2.2266 1.4766-3.5625 1.4766h-5.0391v-15.113h-10.074v15.113h-10.078v-15.113h-10.074v15.113h-5.0391c-2.7812 0-5.0391-2.2578-5.0391-5.0391v-10.074c0-1.3359-0.53125-2.6172-1.4727-3.5625-0.94531-0.94531-2.2266-1.4766-3.5625-1.4766-2.7852 0-5.0391-2.2578-5.0391-5.0391v-20.152c0-12.598 6.7227-24.242 17.633-30.543 10.91-6.2969 24.355-6.2969 35.266 0 10.914 6.3008 17.633 17.945 17.633 30.543zm40.133-53.516h0.003906c-0.76953 4.0156-3.8867 7.168-7.8906 7.9805-1.8555 0.36328-3.7695 0.21484-5.543-0.4375-2.7031-1.1016-5.668-1.3984-8.5352-0.84766-2.8633 0.55078-5.5117 1.9219-7.6133 3.9453l-4.3867 4.3867v0.003906c-1.582-3.5586-3.6133-6.8984-6.0469-9.9375l2.4453-2.4453v0.003907c2.0195-2.0977 3.3906-4.7383 3.9414-7.6016 0.55078-2.8633 0.25781-5.8242-0.84375-8.5195-0.65234-1.7734-0.80469-3.6914-0.4375-5.543 0.99609-5.1055 5.7148-8.6172 10.891-8.0977 5.1758 0.51562 9.1094 4.8906 9.0742 10.094 0 1.3359 0.53125 2.6172 1.4766 3.5625 0.94531 0.94141 2.2266 1.4727 3.5625 1.4727 3.0078 0 5.8594 1.3398 7.7773 3.6562 1.9141 2.3203 2.6953 5.3711 2.1289 8.3242z" fill="#00bac2"/>
  <path d="m375.44 173.91c1.4414-1.4414 1.8711-3.6055 1.0938-5.4883-0.78125-1.8828-2.6172-3.1094-4.6562-3.1094h-20.152v-20.152c0-2.0391-1.2266-3.875-3.1094-4.6562-1.8828-0.77734-4.0469-0.34766-5.4883 1.0938l-5.8984 5.8984h-0.003906c-7.6328 7.6602-17.859 12.18-28.664 12.672-2.4609-4.168-6.3438-7.3086-10.934-8.8438l8.0625-28.215v0.003907c1.5625-5.5195 0.44922-11.449-3.0078-16.027-3.4531-4.5742-8.8555-7.2656-14.59-7.2695h-64.176c-5.7422 0-11.148 2.6953-14.605 7.2773-3.457 4.582-4.5625 10.523-2.9844 16.043l8.0625 28.215c-5.5234 1.8203-9.9805 5.9531-12.215 11.32-2.2344 5.3711-2.0273 11.445 0.56641 16.648 2.5977 5.2031 7.3242 9.0234 12.957 10.465v5.8789c-0.058593 6.3086-1.7812 12.484-4.9922 17.914-3.2109 5.4258-7.7969 9.9102-13.297 12.996-35.402 20.867-57.176 58.859-57.281 99.957 0 56.035 40.066 85.648 115.88 85.648s115.88-29.613 115.88-85.648c-0.10547-41.098-21.879-79.09-57.281-99.957-9.6445-5.4609-16.25-15.043-17.926-25.996h14.395c24.16 0.066407 47.34-9.5391 64.375-26.668zm-64.02-3.5625c0-0.082031-0.023438-0.15625-0.023438-0.23828v0.003907c11.203-1.0156 21.793-5.5547 30.254-12.969v13.203c0 1.3359 0.53125 2.6172 1.4766 3.5625 0.94531 0.94531 2.2266 1.4766 3.5625 1.4766h11.516c-13.73 9.8711-30.23 15.164-47.141 15.113h-14.758v-0.71484c4.3125-1.1133 8.1367-3.625 10.871-7.1406 2.7344-3.5156 4.2266-7.8398 4.2422-12.297zm-85.645 20.152h60.457v5.1641c0.019531 1.6445 0.12891 3.2812 0.32422 4.9141h-61.109c0.19531-1.6328 0.30469-3.2695 0.32813-4.9141zm-1.8594-80.609h64.176c4.5352 0.007813 8.2109 3.6836 8.2148 8.2188 0 0.76562-0.10547 1.5234-0.3125 2.2617l-8.5234 29.824h-62.938l-8.5195-29.82c-0.70703-2.4805-0.21484-5.1484 1.3398-7.2109 1.5508-2.0586 3.9805-3.2695 6.5625-3.2734zm-13.258 60.457c0-5.5625 4.5117-10.074 10.078-10.074h70.531c5.5664 0 10.078 4.5117 10.078 10.074 0 5.5664-4.5117 10.078-10.078 10.078h-70.531c-5.5664 0-10.078-4.5117-10.078-10.078zm151.14 156.18c0 50.145-35.594 75.57-105.8 75.57s-105.8-25.426-105.8-75.57c0.070312-28.137 11.305-55.098 31.238-74.957l6.8789 2.293h-0.003906c24.262 8.0938 49.668 12.215 75.246 12.207 9.2617-0.023437 18.27-3.0234 25.691-8.5664 5.6758-4.2383 12.566-6.5352 19.648-6.5508h21.004c20.328 19.902 31.816 47.125 31.898 75.574zm-52.312-91.266c2.9492 1.7266 5.75 3.6328 8.4844 5.6172h-9.0742c-9.2617 0.019531-18.27 3.0234-25.691 8.5625-5.6758 4.2383-12.566 6.5352-19.648 6.5508-24.488 0.007812-48.816-3.9414-72.047-11.688l-1.4102-0.47266c3.9258-3.1484 8.0703-6.0117 12.402-8.5664 9.5547-5.5195 16.848-14.238 20.586-24.617h65.82c3.7383 10.375 11.031 19.094 20.578 24.613z" fill="#00bac2"/>
 </g>
</svg>
