<?xml version="1.0" encoding="UTF-8"?>
<svg width="512pt" height="512pt" version="1.1" viewBox="0 0 512 512" xmlns="http://www.w3.org/2000/svg">
 <g>
  <rect width="512" height="512"/>
  <path d="m304.14 302.19-36.777-24.52-0.003906-0.003906c2.7891-1.9453 5.043-4.5625 6.5508-7.6133 38.129-4.2305 73.348-22.414 98.875-51.051 25.523-28.641 39.559-65.707 39.395-104.07 0-4.0078-1.5898-7.8516-4.4258-10.688-2.8359-2.8359-6.6797-4.4258-10.688-4.4258h-282.13c-4.0078 0-7.8516 1.5898-10.688 4.4258-2.8359 2.8359-4.4258 6.6797-4.4258 10.688-0.16406 38.359 13.867 75.426 39.391 104.06 25.523 28.641 60.738 46.824 98.863 51.059 1.5117 3.0508 3.7617 5.668 6.5508 7.6133l-36.777 24.52v0.003906c-1.3984 0.9375-2.2305 2.5078-2.2266 4.1914v70.531c-0.003906 1.6836 0.83984 3.2578 2.2383 4.1914l45.344 30.23c1.6953 1.1289 3.8984 1.1289 5.5938 0l45.344-30.23c1.3984-0.93359 2.2422-2.5078 2.2422-4.1914v-70.531c0-1.6875-0.84375-3.2578-2.2422-4.1914zm-58.215-41.152c0-4.0742 2.4531-7.75 6.2188-9.3086 3.7656-1.5625 8.0977-0.69922 10.98 2.1836 2.8828 2.8828 3.7422 7.2148 2.1836 10.98s-5.2344 6.2188-9.3086 6.2188c-5.5664 0-10.074-4.5117-10.074-10.074zm10.078 115.04-20.152-12.09-0.003906-17.301h40.305v17.301zm0-68.859 20.152 12.09-0.003906 17.301h-40.305v-17.301zm25.414 3.4961-20.379-12.223v-12.93l30.285 20.191zm-30.457-12.223-20.371 12.223-9.9102-4.957 30.281-20.195zm-25.191 21.078v44.152l-10.078 5.0391 0.003906-54.23zm4.8164 53.012 20.375 12.223v12.93l-30.285-20.191zm30.453 12.223 20.375-12.223 9.9102 4.957-30.285 20.191zm25.191-21.078v-44.156l10.078-5.0391-0.003906 54.23zm-176.34-248.79c0-2.7812 2.2578-5.0391 5.0391-5.0391h282.13c1.3359 0 2.6172 0.53125 3.5625 1.4766 0.94531 0.94531 1.4766 2.2266 1.4766 3.5625 0.15234 35.324-12.559 69.5-35.766 96.133-23.203 26.637-55.316 43.91-90.328 48.598-0.43359-6.8477-4.3398-13-10.355-16.305-6.0117-3.3047-13.301-3.3047-19.312 0s-9.9219 9.457-10.355 16.305c-35.012-4.6875-67.121-21.961-90.328-48.598-23.207-26.633-35.918-60.809-35.766-96.133z" fill="#00bac2"/>
  <path d="m180.43 376.91c-5.3438 0-10.473-2.1211-14.25-5.9023-3.7812-3.7773-5.9023-8.9062-5.9023-14.25 0-2.7812-2.2578-5.0391-5.0391-5.0391s-5.0391 2.2578-5.0391 5.0391c0 5.3438-2.1211 10.473-5.9023 14.25-3.7773 3.7812-8.9023 5.9023-14.25 5.9023-2.7812 0-5.0352 2.2578-5.0352 5.0391s2.2539 5.0391 5.0352 5.0391c5.3477 0 10.473 2.1211 14.25 5.9023 3.7812 3.7773 5.9023 8.9023 5.9023 14.25 0 2.7812 2.2578 5.0352 5.0391 5.0352s5.0391-2.2539 5.0391-5.0352c0-5.3477 2.1211-10.473 5.9023-14.25 3.7773-3.7812 8.9062-5.9023 14.25-5.9023 2.7812 0 5.0391-2.2578 5.0391-5.0391s-2.2578-5.0391-5.0391-5.0391zm-25.191 13.539c-2.2422-3.3711-5.1289-6.2578-8.5-8.5 3.3711-2.2422 6.2578-5.1289 8.5-8.5 2.2422 3.3711 5.1289 6.2578 8.5 8.5-3.3711 2.2422-6.2578 5.1289-8.5 8.5z" fill="#00bac2"/>
  <path d="m381.95 376.91c-5.3438 0-10.473-2.1211-14.25-5.9023-3.7812-3.7773-5.9023-8.9062-5.9023-14.25 0-2.7812-2.2578-5.0391-5.0391-5.0391s-5.0391 2.2578-5.0391 5.0391c0 5.3438-2.1211 10.473-5.9023 14.25-3.7773 3.7812-8.9023 5.9023-14.25 5.9023-2.7812 0-5.0352 2.2578-5.0352 5.0391s2.2539 5.0391 5.0352 5.0391c5.3477 0 10.473 2.1211 14.25 5.9023 3.7812 3.7773 5.9023 8.9023 5.9023 14.25 0 2.7812 2.2578 5.0352 5.0391 5.0352s5.0391-2.2539 5.0391-5.0352c0-5.3477 2.1211-10.473 5.9023-14.25 3.7773-3.7812 8.9062-5.9023 14.25-5.9023 2.7812 0 5.0391-2.2578 5.0391-5.0391s-2.2578-5.0391-5.0391-5.0391zm-25.191 13.539c-2.2422-3.3711-5.1289-6.2578-8.5-8.5 3.3711-2.2422 6.2578-5.1289 8.5-8.5 2.2422 3.3711 5.1289 6.2578 8.5 8.5-3.3711 2.2422-6.2578 5.1289-8.5 8.5z" fill="#00bac2"/>
 </g>
</svg>
