<?xml version="1.0" encoding="UTF-8"?>
<svg width="512pt" height="512pt" version="1.1" viewBox="0 0 512 512" xmlns="http://www.w3.org/2000/svg">
 <g>
  <rect width="512" height="512"/>
  <path d="m326.21 231.85c1.1797 0 2.2656-0.64062 2.8281-1.6797l4.2891-7.8438c3.9844-7.2852 9.9453-13.242 17.23-17.23l7.8438-4.293c1.0352-0.5625 1.6758-1.6484 1.6758-2.8281 0-1.1758-0.64062-2.2656-1.6758-2.8281l-7.8438-4.293c-4.4336-2.4258-8.3672-5.5898-11.672-9.3281 9.5078-15.395 14.559-33.078 14.559-51.273 0-1.7812-1.4453-3.2227-3.2227-3.2227h-189.03c-1.7812 0-3.2227 1.4414-3.2227 3.2227 0 48.516 35.535 88.863 81.934 96.441-6.7734 4.9102-11.203 12.863-11.203 21.852 0 10.66 6.2227 19.871 15.215 24.258-5.3945 3.7461-8.9414 9.9805-8.9414 17.031 0 7.832 4.3672 14.66 10.789 18.188-0.25 6.207-3.418 52.363-42.406 70.816-1.3633 0.64453-2.0977 2.1523-1.7656 3.6211 0.33203 1.4727 1.6367 2.5195 3.1445 2.5195l101.94 0.003907c1.5078 0 2.8164-1.0469 3.1445-2.5195 0.33203-1.4688-0.40234-2.9766-1.7656-3.6211-38.902-18.414-42.145-64.598-42.402-70.816 6.4219-3.5273 10.789-10.355 10.789-18.184 0-7.0508-3.5469-13.285-8.9414-17.031 8.9922-4.3906 15.215-13.602 15.215-24.258 0-8.9883-4.4297-16.941-11.203-21.852 13.891-2.2539 27.082-7.5 38.859-15.469 3.4688 3.1875 6.4297 6.9141 8.7188 11.102l4.2891 7.8438c0.5625 1.0312 1.6484 1.6719 2.8281 1.6719zm-31.559 146.68h-77.887c30.219-20.926 34.691-57.691 35.352-68.289 1.168 0.20703 2.3633 0.33203 3.5898 0.33203s2.4219-0.12891 3.5938-0.33203c0.66406 10.594 5.1367 47.363 35.352 68.289zm-24.656-88.695c0 7.8789-6.4102 14.285-14.285 14.285s-14.285-6.4062-14.285-14.285c0-7.875 6.4062-14.281 14.285-14.281 7.875 0 14.285 6.4062 14.285 14.281zm6.2734-41.289c0 11.336-9.2227 20.559-20.559 20.559-11.336 0-20.559-9.2227-20.559-20.559s9.2227-20.555 20.559-20.555c11.336 0 20.559 9.2188 20.559 20.555zm-20.559-27.004c-49.258 0-89.531-39.215-91.23-88.066h182.46c-0.52344 15.004-4.7461 29.543-12.238 42.465-0.47656-0.75781-0.94531-1.5234-1.375-2.3164l-4.2891-7.8438c-1.1289-2.0703-4.5273-2.0703-5.6602 0l-4.2891 7.8438c-3.9844 7.2852-9.9453 13.242-17.23 17.23l-7.8438 4.293c-1.0352 0.5625-1.6758 1.6484-1.6758 2.8281 0 1.1758 0.64062 2.2656 1.6758 2.8281l7.8438 4.293c1.0859 0.59375 2.1289 1.2422 3.1523 1.9219-14.719 9.4766-31.664 14.523-49.305 14.523zm49.246-22.102-2.6758-1.4648 2.6758-1.4648c8.3711-4.5742 15.215-11.422 19.793-19.793l1.4609-2.6719 1.4609 2.6719c4.5781 8.3711 11.426 15.219 19.793 19.793l2.6758 1.4648-2.6758 1.4648c-8.3711 4.5742-15.215 11.422-19.793 19.793l-1.4609 2.6719-1.4609-2.6719c-4.582-8.3711-11.426-15.219-19.793-19.793z" fill="#00bac2"/>
  <path d="m383.34 259.66-6.4023-3.5c-5.8477-3.1992-10.625-7.9805-13.824-13.824l-3.5-6.4023c-0.56641-1.0352-1.6484-1.6797-2.8281-1.6797s-2.2656 0.64062-2.8281 1.6797l-3.5 6.3984c-3.1992 5.8477-7.9766 10.629-13.824 13.828l-6.4023 3.5c-1.0352 0.5625-1.6758 1.6484-1.6758 2.8281 0 1.1797 0.64453 2.2656 1.6797 2.832l6.3984 3.4961c5.8477 3.1992 10.625 7.9805 13.824 13.824l3.5 6.4023c0.56641 1.0352 1.6523 1.6797 2.8281 1.6797 1.1797 0 2.2656-0.64062 2.8281-1.6797l3.5-6.3984c3.1992-5.8477 7.9766-10.629 13.82-13.824l6.4023-3.5c1.0352-0.56641 1.6797-1.6484 1.6797-2.832 0-1.1797-0.64062-2.2656-1.6758-2.8281zm-9.4961 3.4961c-6.9297 3.793-12.594 9.457-16.387 16.387l-0.67188 1.2266-0.67188-1.2305c-3.793-6.9258-9.457-12.594-16.387-16.387l-1.2266-0.66797 1.2266-0.67578c6.9297-3.793 12.594-9.457 16.387-16.387l0.67188-1.2266 0.67188 1.2305c3.793 6.9258 9.457 12.594 16.387 16.383l1.2266 0.67578z" fill="#00bac2"/>
  <path d="m159.23 278.89c0.56641 1.0352 1.6484 1.6797 2.8281 1.6797 1.1797 0 2.2617-0.64062 2.8281-1.6797l4.4492-8.1328c4.1445-7.5742 10.336-13.77 17.91-17.906l8.1328-4.4453c1.0352-0.56641 1.6797-1.6523 1.6797-2.832 0-1.1758-0.64062-2.2656-1.6758-2.8281l-8.1328-4.4492c-7.5742-4.1445-13.77-10.336-17.91-17.91l-4.4492-8.1328c-1.1367-2.0742-4.5312-2.0703-5.6602 0l-4.4492 8.1289c-4.1406 7.5742-10.336 13.766-17.91 17.91l-8.1328 4.4492c-1.0352 0.5625-1.6758 1.6484-1.6758 2.8281 0 1.1758 0.64453 2.2656 1.6797 2.832l8.1328 4.4414c7.5742 4.1445 13.766 10.336 17.91 17.91zm-19.266-31.703-2.957-1.6172 2.9609-1.6211c8.6602-4.7344 15.738-11.812 20.473-20.473l1.6172-2.9609 1.6211 2.9609c4.7344 8.6602 11.812 15.742 20.473 20.473l2.9609 1.6211-2.9609 1.6172c-8.6562 4.7344-15.734 11.812-20.473 20.473l-1.6211 2.9609-1.6172-2.9609c-4.7383-8.6562-11.82-15.738-20.477-20.473z" fill="#00bac2"/>
  <path d="m198.34 301.54c1.7812 0 3.2227-1.4414 3.2227-3.2227v-7.4844h7.4844c1.7812 0 3.2227-1.4414 3.2227-3.2227s-1.4453-3.2227-3.2227-3.2227h-7.4844v-7.4883c0-1.7812-1.4453-3.2227-3.2227-3.2227-1.7812 0-3.2227 1.4414-3.2227 3.2227v7.4883h-7.4844c-1.7812 0-3.2227 1.4414-3.2227 3.2227s1.4453 3.2227 3.2227 3.2227h7.4844l-0.003906 7.4844c0 1.7812 1.4453 3.2227 3.2266 3.2227z" fill="#00bac2"/>
  <path d="m306.68 321.28c1.7812 0 3.2227-1.4414 3.2227-3.2227l0.003906-7.4844h7.4844c1.7812 0 3.2227-1.4414 3.2227-3.2227s-1.4453-3.2227-3.2227-3.2227l-7.4844-0.003906v-7.4883c0-1.7812-1.4453-3.2227-3.2227-3.2227-1.7812 0-3.2227 1.4414-3.2227 3.2227v7.4883h-7.4844c-1.7812 0-3.2227 1.4414-3.2227 3.2227s1.4453 3.2227 3.2227 3.2227h7.4844v7.4844c-0.003906 1.7852 1.4414 3.2266 3.2188 3.2266z" fill="#00bac2"/>
 </g>
</svg>
