<?xml version="1.0" encoding="UTF-8"?>
<svg width="512pt" height="512pt" version="1.1" viewBox="0 0 512 512" xmlns="http://www.w3.org/2000/svg">
 <g>
  <rect width="512" height="512"/>
  <path d="m138.05 170.93c6.582 1.082 13.043-0.56641 16.621-6.6836 2.5195-4.2812 3.6641-10.887 3.4453-15.742-0.52734-11.625-9.3906-20.719-21.266-20.305-5.5625 0.19531-11.586 1.793-15.742 5.668-0.09375 0.089844-0.18359 0.18359-0.26953 0.26953-7.5078 5.1719-10.594 15.43-5.457 23.824 4.5352 7.4258 14.422 11.605 22.668 12.969z" fill="#00bac2"/>
  <path d="m291.99 124.78c0.28516 1.0391 0.83203 1.9844 1.5938 2.7461 0.13672 0.23438 0.28906 0.45703 0.45703 0.66797 0.70703 1.0859 1.6328 2.0117 2.7227 2.7148 1.1875 1.0938 2.6406 1.8594 4.2109 2.2188 2.1562 0.58984 4.4336 0.58984 6.5898 0l0.125-0.03125 2.9609-1.2578 0.22656-0.125c1.9531-1.0508 2.5586-1.8906 3.7422-3.4492l-0.003906-0.007813c0.80469-0.87891 1.4102-1.9219 1.7773-3.0586 0.27344-0.55469 0.50391-1.1289 0.69141-1.7188 0.14453-1.0977 0.28906-2.1836 0.44141-3.2734v-0.125-0.25781l-0.44141-3.2578v-0.125l-0.042969-0.125-1.2578-2.9297-0.16406-0.27734v-0.003906c-0.61719-0.89453-1.2812-1.7578-1.9922-2.582-0.43359-0.39063-0.89453-0.75391-1.3789-1.0859-1.6484-1.2578-2.1016-1.6797-4.4844-2.375l-0.24609-0.074219h-0.125l-3.2383-0.43359h-0.25l-3.2305 0.43359h-0.125l-2.8984 1.2227v-0.003907c-1.3867 0.74219-2.5586 1.8242-3.4062 3.1484-0.57422 0.57422-1.0234 1.2539-1.3281 2.0039l-0.30078 0.39062-1.2578 2.9609h-0.003906c-0.51562 1.5977-0.58984 3.3047-0.22266 4.9414 0 1.1016 0.29688 2.1836 0.85938 3.1289z" fill="#00bac2"/>
  <path d="m375.41 218.44c6.7969 1.75 14.219 0.79297 19.203-4.4961 5.2148-5.5352 6.2227-13.777 4.9766-20.984-2.6445-15.367-19.789-28.824-35.09-20.551h-0.003906c-4.7617 2.5156-8.1211 7.0664-9.1211 12.359-0.20703 0.58203-0.39062 1.1797-0.53906 1.7812-3.3711 13.906 7.2227 28.457 20.574 31.891z" fill="#00bac2"/>
  <path d="m112.13 366.5c-0.25 5.2266 2.2734 10.227 6.3672 13.57 1.0078 1.2852 2.1758 2.4336 3.4727 3.4219 6.0508 4.4805 13.934 5.6406 21.016 3.0898 3.4688-1.1992 6.6367-3.1328 9.2891-5.668 2.9844-2.6992 5.2539-6.0977 6.6055-9.8906 1.3516-3.7383 1.6641-7.7695 0.90234-11.668-0.76562-3.8984-2.5742-7.5195-5.2344-10.469-8.4062-11.102-25.191-12.172-35.098-2.0391-4.5273 4.6211-7.7891 11.336-7.5078 17.855l0.003907-0.003906c0.027343 0.60547 0.085937 1.2031 0.18359 1.8008z" fill="#00bac2"/>
  <path d="m251.41 298.91c2.8281 0.38281 5.6992 0.37109 8.5273-0.035156 1.5859-0.25 2.9766-1.1953 3.793-2.582 0.8125-1.3867 0.96094-3.0625 0.40625-4.5703-1.0742-2.9297-2.8086-5.5703-5.0703-7.7227-1.0469-1.0234-2.4648-1.582-3.9297-1.5391-1.4648 0.039062-2.8477 0.67578-3.8359 1.7617-1.9922 2.2344-3.457 4.8867-4.2812 7.7656-0.46484 1.5039-0.24609 3.1406 0.59766 4.4727 0.84375 1.332 2.2305 2.2266 3.793 2.4492z" fill="#00bac2"/>
  <path d="m222.69 284.01 0.23438 0.13672-0.003906 0.003906c2.5469 1.4141 5.5547 1.7578 8.3555 0.94922 2.7969-0.80859 5.1602-2.7031 6.5586-5.2578 3.9102-6.8828 5.6641-14.781 5.0391-22.672-0.29297-3.6094-2.3594-6.8398-5.5156-8.6211-3.1523-1.7812-6.9883-1.8789-10.23-0.26562-9.0039 4.5234-13.27 11.078-15.113 14.988-1.0352 2.1719-1.3008 4.6289-0.76172 6.9727 2.2617 9.8359 11.438 13.766 11.438 13.766z" fill="#00bac2"/>
  <path d="m257.26 263.63c4.3281 4.2227 8.3867 8.7109 12.145 13.445 1.4375 1.8633 3.5938 3.0352 5.9375 3.2266 2.3477 0.19141 4.6641-0.61719 6.3828-2.2266 3.0156-2.9102 6.0195-7.7578 7.4258-15.844 0 0 1.7617-12.129-4.125-21.941-3.6836-6.0195-11.488-8.0117-17.602-4.4883-5.0703 2.8242-9.3164 6.9219-12.32 11.891-3.0078 5.1797-2.1211 11.742 2.1562 15.938z" fill="#00bac2"/>
  <path d="m141.8 325.05c4.4219 2.0352 9 3.7227 13.691 5.0352 13.078 3.7188 23.402 13.781 27.457 26.762 5.9766 19.309 20.859 44.645 57.887 48.492 0 0 38.277 2.7969 61.887-17.59 5.8867-5.1523 13.617-7.6914 21.41-7.0273 5.5508 0.56641 11.152 0.26172 16.609-0.90234 6.4297-1.5078 12.219-5.0039 16.547-9.9961 4.3281-4.9883 6.9688-11.215 7.5547-17.797 0.62891-6.7891 0.125-15.184-3.8086-23.395h-0.003906c-1.5352-3.2695-2.1094-6.9062-1.6445-10.488 0.46484-3.582 1.9414-6.957 4.2578-9.7266 5.0742-6.1289 10.418-15.504 11.859-28.723v-0.29688c2.0391-19.625-13.516-36.871-33.227-36.938-3.668 0.003906-7.332 0.30078-10.953 0.89453-1.7422 0.28125-3.5234-0.22266-4.8672-1.3711-1.3438-1.1484-2.1133-2.8281-2.1094-4.5977v-0.12109c-0.019531-1.8281 0.84375-3.5508 2.3164-4.6328 0.32031-0.22656 0.62891-0.46094 0.93359-0.69141 6.0469-4.8398 9.1484-12.469 8.1875-20.156-2.1797-19.07-11.555-47.863-45.633-68.254-28.051-16.77-63.211-17.387-91.059-0.26172-13.547 8.3398-26.621 21.531-35.77 42.289-2.6445 5.9453-3.2539 12.598-1.7344 18.922 1.5234 6.3281 5.0938 11.977 10.156 16.066l0.52734 0.41406c1.8281 1.3711 2.7852 3.6094 2.5195 5.8789-0.21875 1.6797-1.1055 3.2031-2.4609 4.2227-1.3555 1.0195-3.0664 1.4492-4.7422 1.1914l-0.67578-0.10156c-11.922-1.7383-24.059 1.1445-33.926 8.0625-9.8672 6.9141-16.719 17.34-19.152 29.141-0.042969 0.23828-0.09375 0.48047-0.13672 0.71875v-0.003906c-2.0938 10.984-0.46875 22.352 4.6211 32.309 5.0898 9.957 13.352 17.934 23.48 22.672zm191.34-42.379c3.7656 0 7.1562 2.2656 8.5938 5.7422 1.4414 3.4766 0.64453 7.4766-2.0156 10.137-2.6602 2.6602-6.6602 3.457-10.137 2.0156-3.4766-1.4375-5.7422-4.8281-5.7422-8.5898 0-2.4688 0.98047-4.8359 2.7227-6.582 1.7461-1.7422 4.1133-2.7227 6.5781-2.7227zm-123.12-109.84c3.9414 0 7.4922 2.375 9 6.0156 1.5078 3.6406 0.67578 7.832-2.1094 10.617-2.7891 2.7852-6.9766 3.6211-10.617 2.1133s-6.0156-5.0625-6.0156-9c0-5.3828 4.3633-9.7461 9.7422-9.7461zm-14.176 72.16c7.0352-15.02 17.633-23.855 27.664-29.043 16.43-8.4766 35.828-8.9922 52.68-1.3984 19.586 8.8164 26.645 25.43 28.906 39.355v-0.003906c1.5117 9.6797 1.0078 19.562-1.4727 29.039-3.8359 15.02-4.0312 26.918-3.6641 33.59 0.074218 1.5508-0.48828 3.0664-1.5586 4.1914-1.0742 1.1211-2.5586 1.7578-4.1094 1.7539h-0.29688c-2.2266-0.027343-4.1914-1.4609-4.8984-3.5703-0.074218-0.21875-0.15625-0.42188-0.24609-0.62891-2.2148-5.1328-9.3594-5.668-12.496-1.0391-4.1875 6.1797-4.832 16.82-4.7812 23.359h0.003906c0.011719 1.5039-0.58203 2.9531-1.6484 4.0195-1.0664 1.0664-2.5156 1.6602-4.0195 1.6484h-2.5898c-1.5312 0-3-0.625-4.0625-1.7305-1.0625-1.1055-1.6289-2.5977-1.5664-4.1289 0.62891-17.496-7.0352-21.168-10.297-21.941-0.66016-0.16406-1.3438-0.22266-2.0234-0.17578-4.7969 0.44531-6.9258 6.2969-7.8398 10.512-0.57031 2.582-2.8594 4.4141-5.5039 4.4102h-0.49609c-2.9492 0-5.3984-2.2773-5.6133-5.2148-1.2578-16.719-18.586-31.223-18.586-31.223-24.141-17.641-11.484-51.781-11.484-51.781z" fill="#00bac2"/>
 </g>
</svg>
