<?xml version="1.0" encoding="UTF-8"?>
<svg width="512pt" height="512pt" version="1.1" viewBox="0 0 512 512" xmlns="http://www.w3.org/2000/svg">
 <g>
  <rect width="512" height="512"/>
  <path d="m128.1 261.23c30.652-2.8477 51.988-14.16 71.871-24.703 5.1758-2.7461 10.254-5.4375 15.406-7.9375 15.867-7.6914 27.562-11.617 39.406-11.746 11.832-0.12891 23.594 3.543 39.602 11.039 5.8711 2.75 11.457 5.6562 17.164 8.625 20.285 10.551 42.133 21.91 72.355 24.723h0.03125c1.1836 0.066406 2.0898 1.0781 2.0234 2.2578-0.066406 1.1836-1.0781 2.0898-2.2578 2.0234-1.2148-0.070313-2.4219-0.16016-3.6289-0.26953-8.1445 1.0664-15.898 2.9883-23.391 5.4375l36.574 65.895c0.57422 1.0352 0.20312 2.3398-0.83203 2.9141-1.0352 0.57422-2.3398 0.20312-2.9141-0.83203l-36.75-66.207c-0.066406-0.12109-0.12109-0.25-0.16406-0.37891-3.3008 1.1719-6.5547 2.4375-9.7734 3.7656 0.015626 0.023437 0.027344 0.046875 0.042969 0.074218l23.617 44.812c0.34375 0.65625 0.09375 1.4648-0.5625 1.8086s-1.4648 0.09375-1.8086-0.5625l-23.617-44.812c-0.050782-0.097656-0.089844-0.19922-0.11328-0.30078-2.6523 1.125-5.2812 2.2891-7.8906 3.4727l33.375 71.938c0.49609 1.0742 0.027344 2.3516-1.0508 2.8477-1.0742 0.49609-2.3516 0.027343-2.8477-1.0508l-33.379-71.945c-2.5508 1.1797-5.0859 2.3711-7.6133 3.5625l-1.2227 0.57422 23.211 66.785c0.24219 0.69922-0.125 1.4609-0.82422 1.707-0.69922 0.24219-1.4609-0.125-1.707-0.82422l-23.121-66.52c-3.0938 1.4492-6.1836 2.8828-9.2773 4.2734 4.1719 13.543 9.8125 32.156 15.453 50.77 5.582 18.426 11.168 36.848 15.664 51.434 0.34766 1.1328-0.28906 2.332-1.418 2.6797-1.1328 0.34766-2.332-0.28906-2.6797-1.418-4.1914-13.598-9.9258-32.523-15.664-51.453-5.4375-17.938-10.871-35.871-15.305-50.266-3.1797 1.3828-6.375 2.7031-9.5938 3.9375l12.961 53.535c0.17578 0.71875-0.26953 1.4414-0.98828 1.6172s-1.4414-0.26953-1.6172-0.98828l-12.883-53.219c-3.0312 1.1133-6.0898 2.1367-9.1836 3.0547l15.609 89.652c0.19922 1.168-0.58594 2.2773-1.7539 2.4766-1.168 0.19922-2.2773-0.58594-2.4766-1.7539l-15.535-89.219c-3.1602 0.82422-6.3594 1.5234-9.6133 2.0742l7.4766 72.781c0.074219 0.73438-0.46094 1.3945-1.1953 1.4688-0.73437 0.074219-1.3945-0.46094-1.4688-1.1953l-7.4609-72.641c-2.9961 0.42969-6.043 0.73047-9.1406 0.87891v104.82c0 1.1875-0.96094 2.1484-2.1484 2.1484s-2.1484-0.96094-2.1484-2.1484v-104.87c-3.0898-0.21484-6.1289-0.57812-9.1211-1.0664l-7.4844 72.867c-0.074218 0.73438-0.73438 1.2734-1.4688 1.1953-0.73438-0.074219-1.2734-0.73438-1.1953-1.4688l7.5039-73.059c-3.2344-0.61328-6.4219-1.3672-9.5664-2.2383l-15.613 89.656c-0.19922 1.168-1.3086 1.9531-2.4766 1.7539s-1.9531-1.3086-1.7539-2.4766l15.699-90.156c-3.0703-0.96094-6.1094-2.0234-9.125-3.1641l-13.031 53.832c-0.17578 0.71875-0.89844 1.1602-1.6172 0.98828-0.71875-0.17578-1.1602-0.89844-0.98828-1.6172l13.082-54.031c0.011719-0.050781 0.027344-0.097656 0.042969-0.14453-3.1992-1.2617-6.375-2.6055-9.543-4.0039-4.4727 14.512-9.9961 32.742-15.52 50.969-5.7383 18.93-11.473 37.855-15.664 51.453-0.34766 1.1328-1.5469 1.7656-2.6797 1.418-1.1328-0.34766-1.7656-1.5469-1.418-2.6797 4.4961-14.586 10.078-33.012 15.664-51.434 5.7383-18.93 11.473-37.855 15.664-51.453 0.003906-0.015625 0.007812-0.027344 0.011719-0.042969-3.082-1.4023-6.1602-2.8398-9.2422-4.2891l-23.379 67.266c-0.24219 0.69922-1.0078 1.0664-1.707 0.82422-0.69922-0.24219-1.0664-1.0078-0.82422-1.707l23.473-67.531c-2.9102-1.3711-5.832-2.7422-8.7695-4.0938l-33.707 72.652c-0.49609 1.0742-1.7695 1.5469-2.8477 1.0508-1.0742-0.49609-1.5469-1.7695-1.0508-2.8477l33.699-72.629c-2.7305-1.2266-5.4844-2.4258-8.2617-3.582 0.13281 0.34766 0.11719 0.74609-0.066406 1.0977l-23.617 44.812c-0.34375 0.65625-1.1562 0.90625-1.8086 0.5625-0.65625-0.34375-0.90625-1.1562-0.5625-1.8086l23.617-44.812c0.14453-0.27344 0.36719-0.47656 0.62891-0.59375-3.3711-1.3711-6.7852-2.668-10.254-3.8555-0.007812 0.33594-0.09375 0.67578-0.26953 0.99219l-36.75 66.207c-0.57422 1.0352-1.8789 1.4062-2.9141 0.83203-1.0352-0.57422-1.4062-1.8789-0.83203-2.9141l36.75-66.207c0.035156-0.066407 0.078125-0.12891 0.12109-0.19141-7.0078-2.207-14.25-3.9414-21.828-4.9336-1.2031 0.10937-2.4102 0.19922-3.6172 0.26953-1.1836 0.066406-2.1953-0.83984-2.2578-2.0234-0.066406-1.1836 0.83984-2.1953 2.0234-2.2578l0.03125-0.003907zm132.27-24.898c-1.2734-0.49609-2.5547-0.5-3.543 0.10937-0.98438 0.60156-1.5586 1.7422-1.6953 3.0938-0.15625 1.5664 0.26172 3.3789 1.293 5.0664 1.0312 1.6797 2.4492 2.875 3.9102 3.4414 1.2734 0.49609 2.5547 0.5 3.543-0.10938 0.98438-0.60156 1.5586-1.7422 1.6953-3.0938 0.15625-1.5664-0.26172-3.3789-1.293-5.0664-1.0312-1.6797-2.4492-2.875-3.9102-3.4414zm-5.3398 65.348h0.042968c0.039063 0 0.074219 0 0.11328 0.003906 23.098-0.66016 43.312-10.16 63.98-19.879 15.203-7.1484 30.648-14.406 47.789-18.48-2.5-0.5-4.9805-1.0703-7.4414-1.7031-0.18359 0.12891-0.38672 0.22656-0.61328 0.29688-13.805 4.1289-26.648 10.164-39.332 16.121-20.555 9.6562-40.688 19.117-64 20.238-0.11328 0.011719-0.23047 0.015625-0.34766 0.007812-22.766-1.4258-42.535-10.723-62.707-20.211-12.703-5.9727-25.566-12.023-39.398-16.156-0.25391-0.074219-0.48438-0.19531-0.6875-0.34766-2.4688 0.64453-4.957 1.2266-7.457 1.7344 17.195 4.0742 32.688 11.359 47.934 18.535 20.109 9.4648 39.793 18.727 62.129 19.84zm-0.10156-202.55c2.8633 0 5.4531 1.1602 7.3281 3.0352s3.0352 4.4688 3.0352 7.3281c0 2.8633-1.1602 5.4531-3.0352 7.3281s-4.4688 3.0352-7.3281 3.0352c-2.8633 0-5.4531-1.1602-7.3281-3.0352s-3.0352-4.4688-3.0352-7.3281c0-2.8633 1.1602-5.4531 3.0352-7.3281s4.4688-3.0352 7.3281-3.0352zm4.2891 6.0742c-1.0977-1.0977-2.6133-1.7773-4.2891-1.7773s-3.1914 0.67969-4.2891 1.7773c-1.0977 1.0977-1.7773 2.6133-1.7773 4.2891 0 1.6758 0.67969 3.1914 1.7773 4.2891 1.0977 1.0977 2.6133 1.7773 4.2891 1.7773s3.1914-0.67969 4.2891-1.7773 1.7773-2.6133 1.7773-4.2891c0-1.6758-0.67969-3.1914-1.7773-4.2891zm15.387 24.816c1.1445 0.30078 1.8281 1.4727 1.5273 2.6211-0.30078 1.1445-1.4727 1.8281-2.6211 1.5273-6.6406-1.7461-12.004-2.6328-17.324-2.6523-5.332-0.023437-10.695 0.82031-17.332 2.5312-1.1445 0.29297-2.3125-0.39844-2.6016-1.5469-0.29297-1.1445 0.39844-2.3125 1.5469-2.6016 6.9883-1.8047 12.68-2.6914 18.406-2.668 5.7344 0.023437 11.426 0.95703 18.398 2.7891zm22.23 27.453c1.1562 0.25391 1.8828 1.3984 1.6289 2.5508-0.25391 1.1562-1.3984 1.8828-2.5508 1.6289-5.5156-1.2266-10.938-3.3516-16.398-5.4922-7.7812-3.0508-15.641-6.1328-23.375-6.4141-7.75 0.26172-15.613 3.3281-23.398 6.3594-5.4883 2.1406-10.938 4.2617-16.379 5.4609-1.1602 0.25391-2.3047-0.47656-2.5625-1.6367-0.25391-1.1602 0.47656-2.3047 1.6367-2.5625 5.1992-1.1445 10.461-3.1953 15.758-5.2617 8.1289-3.168 16.344-6.3711 24.844-6.6484h0.035156 0.13281c8.5195 0.29297 16.734 3.5117 24.867 6.7031 5.332 2.0898 10.629 4.168 15.762 5.3086zm22.289 27.461c1.1602 0.24219 1.9023 1.375 1.6641 2.5352-0.24219 1.1602-1.375 1.9023-2.5352 1.6641-8.5117-1.7695-17.188-5.707-26.078-9.7422-11.797-5.3516-23.98-10.879-36.09-11.41-12.113 0.51953-24.301 6.0352-36.098 11.375-8.8867 4.0234-17.559 7.9492-26.082 9.7148-1.1602 0.23828-2.2891-0.51172-2.5273-1.6719-0.23828-1.1602 0.51172-2.2891 1.6719-2.5273 8.0156-1.6602 16.492-5.4961 25.176-9.4297 12.18-5.5117 24.762-11.207 37.75-11.746 0.066406-0.003906 0.12891-0.003906 0.19531 0 12.996 0.54297 25.586 6.2539 37.77 11.781 8.6836 3.9414 17.16 7.7852 25.188 9.4531zm22.297 27.469c1.1602 0.23047 1.9102 1.3594 1.6797 2.5195-0.23047 1.1602-1.3594 1.9102-2.5195 1.6797-11.383-2.2852-23.188-7.9883-35.387-13.883-15.93-7.6953-32.551-15.723-49.172-16.504-16.621 0.77344-33.242 8.7969-49.172 16.488-12.215 5.8945-24.031 11.602-35.387 13.879-1.1641 0.23047-2.2969-0.52344-2.5273-1.6875-0.23047-1.1641 0.52344-2.2969 1.6875-2.5273 10.852-2.1758 22.414-7.7578 34.363-13.523 16.332-7.8828 33.371-16.109 50.902-16.91l0.042969-0.003906c0.0625-0.003907 0.12109-0.003907 0.18359 0 17.547 0.79687 34.602 9.0352 50.941 16.93 11.965 5.7812 23.543 11.371 34.363 13.547zm22.305 27.461c1.1641 0.22656 1.9219 1.3555 1.6953 2.5195-0.22656 1.1641-1.3555 1.9219-2.5195 1.6953-14.172-2.7852-29.086-10.246-44.582-17.996-20.094-10.051-41.18-20.602-62.355-21.633-21.176 1.0352-42.262 11.582-62.355 21.633-15.496 7.75-30.41 15.215-44.582 17.996-1.1641 0.22656-2.293-0.53125-2.5195-1.6953-0.22656-1.1641 0.53125-2.293 1.6953-2.5195 13.645-2.6797 28.285-10.004 43.492-17.609 20.516-10.262 42.047-21.035 64.137-22.09h0.035156c0.066407-0.003906 0.13281-0.003906 0.20312 0 22.102 1.0469 43.645 11.824 64.172 22.094 15.207 7.6055 29.844 14.93 43.492 17.609zm-257.22 19.863c-1.2852 0-2.4453 0.51953-3.2852 1.3594-0.83984 0.83984-1.3594 2.0039-1.3594 3.2852 0 1.2852 0.51953 2.4453 1.3594 3.2852s2.0039 1.3594 3.2852 1.3594c1.2852 0 2.4453-0.51953 3.2852-1.3594s1.3594-2.0039 1.3594-3.2852c0-1.2852-0.51953-2.4453-1.3594-3.2852-0.83984-0.83984-2.0039-1.3594-3.2852-1.3594zm-6.3242-1.6797c1.6172-1.6172 3.8555-2.6211 6.3242-2.6211s4.707 1 6.3242 2.6211c1.6172 1.6172 2.6211 3.8555 2.6211 6.3242s-1 4.707-2.6211 6.3242c-1.6172 1.6172-3.8555 2.6211-6.3242 2.6211s-4.707-1-6.3242-2.6211c-1.6172-1.6172-2.6211-3.8555-2.6211-6.3242s1-4.707 2.6211-6.3242zm195.91-21.906c0.41016 1.0898 0.78125 2.1992 1.1055 3.3281 1.1133 3.8711 1.7109 7.957 1.7109 12.176 0 12.137-4.918 23.125-12.875 31.078-3.4727 3.4727-7.5234 6.3672-11.996 8.5273 15.121-3.6523 29.316-10.32 43.723-17.09 11.16-5.2461 22.449-10.547 34.422-14.602-15.328-4.6914-29.902-11.414-43.66-17.758-4.2266-1.9492-8.3711-3.8594-12.434-5.6641zm-62.246 54.062c-3.6719-2.0156-7.0273-4.5391-9.9648-7.4805-7.9531-7.9531-12.875-18.941-12.875-31.078 0-4.0625 0.55859-8.0117 1.6016-11.773 0.28906-1.043 0.61328-2.0664 0.97656-3.0742-3.2969 1.5-6.6602 3.0703-10.082 4.6641-13.758 6.418-28.445 13.266-43.824 18.039 12.062 4.0703 23.422 9.4102 34.656 14.695 13.059 6.1406 25.945 12.199 39.512 16.008zm-9.8359-57.973 12.801 7.3906c0.80469-1.2148 1.7305-2.3438 2.7578-3.3711s2.1523-1.9492 3.3672-2.7578l-3.8594-6.6836c-4.8047 1.3789-9.8359 3.2461-15.066 5.418zm17.742-6.1406 3.5 6.0625c2.543-1.2695 5.3711-2.0547 8.3633-2.2383v-5.625c-3.7617 0.11328-7.7227 0.75781-11.863 1.8008zm14.551-1.793v5.6172c2.9922 0.18359 5.8203 0.96875 8.3633 2.2383l3.5547-6.1562c-4.1055-0.96875-8.082-1.5703-11.918-1.6953zm14.617 2.3789-3.9336 6.8164c1.2148 0.80469 2.3398 1.7305 3.3672 2.7578s1.9531 2.1562 2.7578 3.3711l13.227-7.6367c-5.3086-2.1367-10.453-3.9688-15.414-5.3047zm19.375 6.9414c-0.27734-0.11719-0.55469-0.23438-0.83203-0.35156l-15.012 8.668c1.2695 2.5469 2.0547 5.375 2.2383 8.3672h17.902c-0.10938-3.3438-0.63281-6.5781-1.5195-9.6562-0.70703-2.4492-1.6367-4.7969-2.7734-7.0234zm-69.375-0.082032c-0.53125 0.23047-1.0664 0.46094-1.6016 0.69531-1.0586 2.1602-1.9258 4.4297-2.5781 6.7773-0.82031 2.957-1.3047 6.0703-1.4141 9.2891h17.902c0.18359-2.9922 0.96875-5.8203 2.2383-8.3672l-14.547-8.3984zm184.6 21.887c2.4688 0 4.707 1 6.3242 2.6211 1.6172 1.6172 2.6211 3.8555 2.6211 6.3242s-1 4.707-2.6211 6.3242c-1.6172 1.6172-3.8555 2.6211-6.3242 2.6211s-4.707-1-6.3242-2.6211c-1.6172-1.6172-2.6211-3.8555-2.6211-6.3242s1-4.707 2.6211-6.3242c1.6172-1.6172 3.8555-2.6211 6.3242-2.6211zm3.2852 5.6602c-0.83984-0.83984-2.0039-1.3594-3.2852-1.3594-1.2852 0-2.4453 0.51953-3.2852 1.3594-0.83984 0.83984-1.3594 2.0039-1.3594 3.2852 0 1.2852 0.51953 2.4453 1.3594 3.2852s2.0039 1.3594 3.2852 1.3594c1.2852 0 2.4453-0.51953 3.2852-1.3594 0.83984-0.83984 1.3594-2.0039 1.3594-3.2852 0-1.2852-0.51953-2.4453-1.3594-3.2852zm-132.11-8.0977c-0.18359 2.9922-0.96875 5.8203-2.2383 8.3672l15.504 8.9531c2.7734-5.1914 4.4258-11.07 4.6328-17.316h-17.898zm-3.5781 10.68c-0.80469 1.2148-1.7305 2.3438-2.7578 3.3711s-2.1562 1.9531-3.3711 2.7578l8.9531 15.504c2.5664-1.6016 4.9336-3.4883 7.0625-5.6172 2.1289-2.1289 4.0156-4.4961 5.6172-7.0625zm-8.4414 7.4688c-2.5469 1.2695-5.375 2.0547-8.3672 2.2383v17.898c6.2461-0.20703 12.125-1.8594 17.316-4.6328l-8.9531-15.504zm-11.051 2.2383c-2.9922-0.18359-5.8203-0.96875-8.3672-2.2383l-8.9531 15.504c5.1914 2.7734 11.07 4.4258 17.316 4.6328v-17.898zm-10.68-3.5781c-1.2148-0.80469-2.3438-1.7305-3.3711-2.7578s-1.9531-2.1562-2.7578-3.3711l-15.504 8.9531c1.6016 2.5664 3.4883 4.9336 5.6172 7.0625 2.1289 2.1289 4.4961 4.0156 7.0625 5.6172zm-7.4688-8.4414c-1.2695-2.5469-2.0547-5.375-2.2383-8.3672h-17.898c0.20703 6.2461 1.8594 12.125 4.6328 17.316l15.504-8.9531z" fill="#00bac2"/>
 </g>
</svg>
