<?xml version="1.0" encoding="UTF-8"?>
<svg width="512pt" height="512pt" version="1.1" viewBox="0 0 512 512" xmlns="http://www.w3.org/2000/svg">
 <g>
  <rect width="512" height="512"/>
  <path d="m258.86 160.97c-0.57031-1.0391-0.19141-2.3438 0.84766-2.9141 1.0391-0.57031 2.3438-0.19141 2.9141 0.84766 0.42187 0.76953 1.4414 1.6797 2.7148 2.5273 1.3672 0.91406 2.9414 1.6836 4.3672 2.0977 1.082 0.31641 1.9805 0.44141 2.4297 0.25-0.0625-0.097656-0.48047-0.47656-0.78906-0.76172-0.046875-0.042969 0.10156 0.09375-0.30078-0.28906-5.5117-5.2148-7.8477-10.676-10.188-16.141-1.0234-2.3945-2.0508-4.7891-3.2891-7.0312-1.0664-1.9258-0.58203-2.8906-1.0898-2.8906-0.50781 0-0.023437 0.96484-1.0898 2.8906-1.2383 2.2383-2.2656 4.6328-3.2891 7.0312-2.3359 5.4609-4.6719 10.926-10.188 16.141-0.39453 0.37109-0.25391 0.24609-0.30078 0.28906-0.3125 0.28516-0.72656 0.66406-0.78906 0.76172 0.44922 0.19141 1.3477 0.066406 2.4297-0.25 1.4219-0.41406 2.9961-1.1836 4.3672-2.0977 0.046875-0.03125 0.09375-0.058594 0.14062-0.085938 1.2031-0.82031 2.1641-1.6953 2.5742-2.4453 0.57031-1.0391 1.875-1.418 2.9141-0.84766 1.0391 0.57031 1.418 1.875 0.84766 2.9141-0.74609 1.3555-2.207 2.75-3.9453 3.9336-0.046875 0.039062-0.097656 0.074218-0.14844 0.10938-0.5 0.33203-1.0273 0.65234-1.5703 0.94922-0.71094 1.5664-1.375 3.2617-2.0547 5-2.207 5.6523-4.582 11.727-9.8047 16.668-0.40234 0.38281-0.25 0.24219-0.30078 0.28906-0.3125 0.28516-0.72656 0.66406-0.78906 0.76172 0.44922 0.19141 1.3477 0.066406 2.4297-0.25 1.4219-0.41406 2.9961-1.1836 4.3672-2.0977 0.039062-0.023437 0.074218-0.046875 0.11328-0.070312 1.2188-0.82422 2.1875-1.707 2.6016-2.4609 0.57031-1.0391 1.875-1.418 2.9141-0.84766 1.0391 0.57031 1.418 1.875 0.84766 2.9141-0.75 1.3633-2.2227 2.7656-3.9688 3.9531-0.039062 0.03125-0.082031 0.058594-0.125 0.089844l-0.12109 0.078125c-0.019531 0.19922-0.066406 0.39844-0.14453 0.59375-0.27344 0.67188-0.61719 1.5586-0.96875 2.457-2.207 5.6523-4.582 11.727-9.8047 16.668-0.85938 0.8125-2.2109 0.77344-3.0234-0.082031-0.8125-0.85938-0.77344-2.2109 0.082031-3.0234 2.0664-1.9531 3.6445-4.1953 4.9492-6.5547-1.3281-2.3789-2.1719-4.6055-3.0352-6.8672-0.33203-0.87109-0.66797-1.75-0.92969-2.4062-0.019531-0.042969-0.035156-0.089844-0.046875-0.13281-1.5898-2.8359 0.33594-4.5938 1.7617-5.8945 0.24609-0.22266 0.019531-0.003906 0.25-0.22266 0.26953-0.25781 0.53125-0.51563 0.78516-0.78125-1.9492-3.0469-3.207-6.2617-4.4023-9.3281-0.54687-1.4062-1.0859-2.7773-1.6562-4.043-0.42578-0.23828-0.83984-0.48828-1.2305-0.75-1.543-1.0273-2.8555-2.2734-3.5273-3.4922-0.57031-1.0391-0.19141-2.3438 0.84766-2.9141 1.0391-0.57031 2.3438-0.19141 2.9141 0.84766 0.32422 0.58594 1.1328 1.3047 2.1484 1.9844 1.1133 0.74219 2.3906 1.3672 3.5391 1.7031 0.71094 0.20703 1.3008 0.31641 1.6328 0.26562-0.11328-0.039063-0.46094 0.046875-0.60547-0.085937-0.066406-0.058594 0.12891 0.11719-0.25391-0.24609-4.6484-4.3984-6.6133-8.9844-8.5742-13.57-0.85156-1.9922-1.7031-3.9844-2.7266-5.8281-0.82031-1.4805 0.03125-2.2227-0.59766-2.2227-0.62891 0 0.22266 0.74219-0.59766 2.2227-1.0195 1.8438-1.8711 3.8359-2.7266 5.8281-1.9609 4.5859-3.9258 9.1719-8.5742 13.57-0.37109 0.35156-0.19141 0.1875-0.25391 0.24609-0.14062 0.12891-0.48438 0.050781-0.59766 0.085937 0.33203 0.046875 0.91797-0.0625 1.625-0.26562 0.64062-0.1875 1.3164-0.46094 1.9844-0.80078 0.054687-0.03125 0.11328-0.0625 0.17188-0.085938 0.47266-0.24609 0.94141-0.52344 1.3828-0.81641l0.003907 0.003906c1.0117-0.67578 1.8164-1.3906 2.1445-1.9883 0.57031-1.0391 1.875-1.418 2.9141-0.84766 1.0391 0.57031 1.418 1.875 0.84766 2.9141-0.66797 1.2109-1.9805 2.4531-3.5273 3.4844l-0.003906 0.003907 0.003906 0.003906c-0.39062 0.26172-0.80078 0.51172-1.2266 0.74609-0.58594 1.293-1.1172 2.6523-1.6602 4.0469-1.8555 4.7461-3.8477 9.8477-8.2617 14.023-0.375 0.35156-0.19141 0.1875-0.25391 0.24609-0.14062 0.12891-0.48438 0.050781-0.59766 0.085937 0.33203 0.046875 0.91797-0.0625 1.625-0.26562 1.1484-0.33594 2.4258-0.96094 3.5391-1.7031 1.0195-0.67969 1.8242-1.3945 2.1484-1.9844 0.57031-1.0391 1.875-1.418 2.9141-0.84766 1.0391 0.57031 1.418 1.875 0.84766 2.9141-0.66797 1.2148-1.9648 2.4492-3.4922 3.4727-0.027344 0.14062-0.066406 0.28125-0.12109 0.41797-0.21875 0.53906-0.51172 1.2891-0.80469 2.043-1.8438 4.7188-3.8281 9.793-8.1914 13.957 1.0039 2.125 2.2461 4.168 4.0273 5.8516 0.26953 0.25391-0.050781-0.054688 0.16406 0.14062 1.1992 1.0938 2.8438 2.5938 1.1172 5.1914h0.003907c-0.32422 0.48828-0.74219 0.85938-1.2305 1.1289-0.85938 0.47266-1.9219 0.58984-3.0547 0.44141 1.1836 2.8984 2.6016 5.8242 5.0078 8.1016 0.85938 0.8125 0.89453 2.1641 0.082031 3.0234s-2.1641 0.89453-3.0234 0.082031c-3.6641-3.4648-5.3047-7.668-6.832-11.574-0.24609-0.62891-0.48828-1.2461-0.65625-1.6641-0.03125-0.082032-0.058594-0.16406-0.082031-0.24609-1.2383-0.85156-2.2891-1.8711-2.8438-2.8828-0.57031-1.0391-0.19141-2.3438 0.84766-2.9141 1.0391-0.57031 2.3438-0.19141 2.9141 0.84766 0.23047 0.42188 0.84375 0.95703 1.625 1.4766 0.70312 0.46875 1.4883 0.87891 2.2305 1.1562-3.1172-3.3008-4.6289-7.168-6.0391-10.781-0.42969-1.1016-0.85156-2.1758-1.293-3.168-0.25781-0.14453-0.50781-0.30078-0.75-0.45703-0.054687-0.03125-0.10938-0.0625-0.16016-0.097656-1.3047-0.87109-2.4219-1.9336-3-2.9883-0.57031-1.0391-0.19141-2.3438 0.84766-2.9141 1.0391-0.57031 2.3438-0.19141 2.9141 0.84766 0.23047 0.42188 0.84375 0.95703 1.625 1.4766 0.042968 0.03125 0.085937 0.0625 0.12891 0.09375 0.29688 0.19141 0.60547 0.37109 0.92188 0.53516 0.070313 0.03125 0.13672 0.066406 0.20312 0.10156 0.32031 0.16016 0.64453 0.30078 0.96484 0.42188-3.2812-3.3984-4.7773-6.8984-6.2773-10.398-0.69141-1.6211-1.3867-3.2383-2.2031-4.7148-0.070313-0.125-0.11328-0.24609-0.14062-0.35938-0.027344 0.11328-0.070312 0.23047-0.14062 0.35938-0.81641 1.4766-1.5117 3.0938-2.2031 4.7148-1.4961 3.5-2.9961 7-6.2773 10.398 0.32812-0.12109 0.66016-0.26953 0.99219-0.4375 0.046875-0.023437 0.089844-0.046875 0.13672-0.070312 0.375-0.19531 0.74219-0.41016 1.0859-0.64062l-0.003906-0.003907c0.78125-0.51953 1.3945-1.0547 1.625-1.4766 0.57031-1.0391 1.875-1.418 2.9141-0.84766 1.0391 0.57031 1.418 1.875 0.84766 2.9141-0.57812 1.0547-1.6953 2.1172-3.0039 2.9883l-0.003906-0.003907-0.003906 0.003907c-0.28906 0.19141-0.59375 0.37891-0.90625 0.55859-0.44141 0.99219-0.86328 2.0664-1.2891 3.1641-0.94922 2.4258-1.9414 4.9688-3.457 7.4062 0.13281 0.13672 0.27344 0.26953 0.41016 0.40234 0.24609 0.23047-0.027344-0.03125 0.19922 0.17578 1.2617 1.1523 2.9688 2.707 1.5273 5.2695-0.011719 0.027344-0.019531 0.054688-0.03125 0.082031-0.16797 0.41406-0.41016 1.0352-0.65625 1.6641-0.73047 1.875-1.4922 3.8164-2.5 5.7344 1.0273 1.832 2.2656 3.5625 3.8594 5.0742 0.85938 0.8125 0.89453 2.1641 0.082031 3.0234s-2.1641 0.89453-3.0234 0.082031c-2.1055-1.9922-3.6484-4.1992-4.8867-6.4727-0.38672-0.35156-0.625-0.82812-0.6875-1.3281-0.97266-1.9766-1.7578-3.9844-2.5156-5.9297-0.28906-0.74219-0.57812-1.4766-0.78906-2-0.050781-0.12891-0.089843-0.26172-0.11719-0.39844-1.4922-1.0039-2.7617-2.2148-3.418-3.4023-0.57031-1.0391-0.19141-2.3438 0.84766-2.9141 1.0391-0.57031 2.3438-0.19141 2.9141 0.84766 0.3125 0.56641 1.0977 1.2617 2.0859 1.9219 1.0859 0.72656 2.332 1.3359 3.4492 1.6602 0.34375 0.10156 0.66016 0.17578 0.92969 0.22266-0.03125-0.03125-0.09375-0.089844-0.21875-0.21094-4.3242-4.0898-6.2773-9.0859-8.0898-13.73-0.53516-1.3672-1.0547-2.7031-1.6133-3.9375-0.41406-0.23047-0.8125-0.47266-1.1953-0.72656-1.5156-1.0117-2.8047-2.2305-3.4648-3.4336-0.57031-1.0391-0.19141-2.3438 0.84766-2.9141 1.0391-0.57031 2.3438-0.19141 2.9141 0.84766 0.3125 0.56641 1.0977 1.2617 2.0859 1.9219 1.0859 0.72656 2.332 1.3359 3.4492 1.6602 0.34375 0.10156 0.66016 0.17578 0.92969 0.22266-0.03125-0.03125-0.09375-0.089844-0.21875-0.21094-4.5547-4.3086-6.4766-8.8008-8.3984-13.289-0.83203-1.9492-1.668-3.8945-2.6641-5.6953-0.79297-1.4336 0.10156-2.1484-0.54297-2.1484s0.25 0.71484-0.54297 2.1484c-0.99609 1.8008-1.8281 3.7461-2.6641 5.6953-1.9219 4.4883-3.8438 8.9805-8.3984 13.289-0.125 0.11719-0.1875 0.17969-0.21875 0.21094 0.26953-0.046875 0.58203-0.12109 0.92969-0.22266 1.1172-0.32422 2.3633-0.9375 3.4492-1.6602 0.98828-0.66016 1.7734-1.3555 2.0859-1.9219 0.57031-1.0391 1.875-1.418 2.9141-0.84766 1.0391 0.57031 1.418 1.875 0.84766 2.9141-0.66016 1.2031-1.9492 2.4258-3.4648 3.4336-0.37891 0.25391-0.78125 0.49609-1.1953 0.72656-0.55469 1.2344-1.0781 2.5703-1.6133 3.9375-1.8164 4.6445-3.7656 9.6406-8.0898 13.73-0.125 0.12109-0.1875 0.17969-0.21875 0.21094 0.26953-0.046876 0.58203-0.12109 0.92969-0.22266 1.1172-0.32422 2.3633-0.9375 3.4492-1.6602 0.035156-0.023437 0.074219-0.046875 0.11328-0.070313 0.93359-0.63281 1.6719-1.3008 1.9766-1.8516 0.57031-1.0391 1.875-1.418 2.9141-0.84766 1.0391 0.57031 1.418 1.875 0.84766 2.9141-0.63672 1.1602-1.875 2.3477-3.3398 3.3438-0.023438 0.019532-0.050782 0.039063-0.074219 0.054688-0.027344 0.13281-0.0625 0.26562-0.11719 0.39844-0.21094 0.52734-0.5 1.2578-0.78906 2-0.8125 2.0781-1.6484 4.2227-2.7148 6.3281-0.074219 0.22656-0.18359 0.44141-0.32812 0.63672-1.2656 2.3789-2.8477 4.6914-5.0469 6.7695-0.85938 0.8125-2.2109 0.77344-3.0234-0.082031-0.8125-0.85938-0.77344-2.2109 0.082031-3.0234 1.5664-1.4805 2.7891-3.1797 3.8047-4.9727-1.0352-1.9492-1.8086-3.9258-2.5547-5.832-0.24609-0.62891-0.48828-1.25-0.65625-1.6641-0.070313-0.17578-0.11719-0.35547-0.13672-0.53516-1.0156-2.3008 0.5625-3.7383 1.7461-4.8203 0.22656-0.20703-0.046875 0.058593 0.19922-0.17578 0.11719-0.10938 0.23047-0.22266 0.34375-0.33594-1.5391-2.457-2.543-5.0273-3.5-7.4766-0.42578-1.0898-0.83984-2.1562-1.2969-3.1719-0.30859-0.17578-0.60938-0.36328-0.89844-0.55469-1.3125-0.875-2.4336-1.9414-3.0117-2.9883-0.57031-1.0391-0.19141-2.3438 0.84766-2.9141 1.0391-0.57031 2.3438-0.19141 2.9141 0.84766 0.23438 0.42578 0.84375 0.96094 1.6172 1.4766v0.003906l0.011718 0.007813c0.32031 0.21484 0.66016 0.41797 1.0078 0.59766 0.097656 0.042969 0.19531 0.089844 0.28516 0.14453 0.30859 0.15234 0.61719 0.28516 0.92188 0.39844-3.2812-3.3984-4.7773-6.8984-6.2773-10.398-0.69141-1.6211-1.3867-3.2383-2.2031-4.7148-0.070312-0.125-0.11328-0.24609-0.14062-0.35937-0.027344 0.11328-0.070312 0.23047-0.14062 0.35937-0.81641 1.4766-1.5117 3.0938-2.2031 4.7148-1.4961 3.5-2.9961 7-6.2734 10.395 0.73828-0.27734 1.5156-0.68359 2.2148-1.1523l0.003907 0.003906 0.003906-0.003906c0.77344-0.51562 1.3828-1.0508 1.6172-1.4766 0.57031-1.0391 1.875-1.418 2.9141-0.84766s1.418 1.875 0.84766 2.9141c-0.57422 1.0469-1.6914 2.1094-3.0039 2.9844l0.003906 0.003907c-0.29297 0.19531-0.60156 0.38281-0.91406 0.5625-0.44141 0.98828-0.85938 2.0625-1.2891 3.1562-1.4102 3.6133-2.9219 7.4766-6.0391 10.781 0.75-0.28125 1.5352-0.6875 2.2383-1.1562 0.023437-0.015625 0.046875-0.027344 0.066406-0.042969 0.74219-0.50391 1.3203-1.0195 1.5469-1.4336 0.57031-1.0391 1.875-1.418 2.9141-0.84766 1.0391 0.57031 1.418 1.875 0.84766 2.9141-0.55078 1.0039-1.6016 2.0195-2.8438 2.8711-0.023437 0.085938-0.050781 0.17188-0.085937 0.25781-1.1875 2.9414-2.4219 5.0977-3.5117 7.0117-1.8828 3.3008-3.2969 5.7773-2.918 10.5 3.4805 43.52 21.781 82.348 44.992 112.42 9.0039 11.664 18.73 22.004 28.605 30.781l1.6602-31.16c0-0.03125 0.003907-0.0625 0.007813-0.09375 0.49609-5.2852 1.4688-6.0547 5.1328-8.9531 0.38281-0.30469-0.80859 0.64062 0.65234-0.52344 13.125-10.457 24.453-21.355 33.422-32.691 8.918-11.27 15.516-22.98 19.242-35.133 0.19922-0.66406 0.71484-1.2188 1.4258-1.4336 1.1328-0.34766 2.332 0.28906 2.6797 1.418 3.7266 12.156 10.328 23.875 19.25 35.148 8.9688 11.336 20.297 22.234 33.422 32.691 1.3672 1.0898 0.24609 0.20312 0.65234 0.52344 3.6445 2.8828 4.625 3.6602 5.125 8.8633 0.007813 0.058594 0.015625 0.12109 0.015625 0.18359l1.6094 30.223c9.5156-8.5742 18.875-18.594 27.559-29.848 23.211-30.07 41.512-68.898 44.992-112.42 0.37891-4.7227-1.0352-7.1992-2.918-10.5-1.0938-1.9141-2.3242-4.0703-3.5117-7.0117-0.03125-0.082031-0.058594-0.16406-0.082031-0.24609-1.2383-0.85156-2.2891-1.8711-2.8438-2.8828-0.57031-1.0391-0.19141-2.3438 0.84766-2.9141 1.0391-0.57031 2.3438-0.19141 2.9141 0.84766 0.23047 0.42188 0.84375 0.95703 1.625 1.4766l-0.003906 0.003907c0.70312 0.46875 1.4844 0.875 2.2344 1.1523-3.1172-3.3008-4.6289-7.168-6.0391-10.781-0.42969-1.0977-0.84766-2.168-1.2891-3.1562-0.31641-0.17969-0.625-0.36719-0.91406-0.5625-1.3047-0.87109-2.4219-1.9336-3.0039-2.9883-0.57031-1.0391-0.19141-2.3438 0.84766-2.9141 1.0391-0.57031 2.3438-0.19141 2.9141 0.84766 0.23047 0.42188 0.84375 0.95703 1.625 1.4766 0.69922 0.46484 1.4766 0.87109 2.2148 1.1523-3.2812-3.3945-4.7773-6.8945-6.2734-10.398-0.69141-1.6211-1.3867-3.2383-2.2031-4.7148-0.070313-0.125-0.11328-0.24609-0.14063-0.35938-0.027343 0.11328-0.070312 0.23047-0.14062 0.35938-0.81641 1.4766-1.5117 3.0977-2.2031 4.7148-1.4961 3.5-2.9961 7-6.2734 10.395 0.32031-0.12109 0.64844-0.26562 0.97266-0.42969 0.054688-0.03125 0.11328-0.0625 0.17188-0.085938 0.36719-0.19141 0.73047-0.40625 1.0742-0.63672 0.78125-0.51953 1.3945-1.0547 1.625-1.4766 0.57031-1.0391 1.875-1.418 2.9141-0.84766 1.0391 0.57031 1.418 1.875 0.84766 2.9141-0.57812 1.0547-1.6953 2.1172-3 2.9883-0.29297 0.19531-0.59766 0.38281-0.91016 0.5625-0.45313 1.0117-0.86719 2.0742-1.293 3.1602-0.95703 2.4492-1.9609 5.0156-3.5 7.4766 0.11328 0.11328 0.22656 0.22656 0.34375 0.33594 0.22656 0.21484-0.023438-0.027343 0.19922 0.17578 1.1914 1.0898 2.7812 2.5352 1.7383 4.8516-0.023438 0.16797-0.066407 0.33594-0.13281 0.5-0.16797 0.41406-0.41016 1.0352-0.65625 1.6641-0.74609 1.9062-1.5195 3.8867-2.5508 5.832 1.0156 1.793 2.2383 3.4922 3.8047 4.9727 0.85938 0.8125 0.89453 2.1641 0.082032 3.0234s-2.1641 0.89453-3.0234 0.082031c-2.1914-2.0742-3.7773-4.3828-5.0391-6.7578-0.15234-0.19922-0.26562-0.42187-0.33984-0.66016-1.0625-2.1016-1.8984-4.2422-2.707-6.3125-0.28906-0.74219-0.57812-1.4766-0.78906-2-0.050781-0.12891-0.089844-0.26172-0.11719-0.39844-1.4922-1.0039-2.7617-2.2109-3.418-3.4023-0.57031-1.0391-0.19141-2.3438 0.84766-2.9141 1.0391-0.57031 2.3438-0.19141 2.9141 0.84766 0.3125 0.56641 1.0977 1.2617 2.0859 1.9219 1.0859 0.72266 2.332 1.3359 3.4492 1.6602 0.34375 0.10156 0.66016 0.17578 0.92969 0.22266-0.027343-0.027344-0.089843-0.085937-0.21875-0.21094-4.3242-4.0898-6.2773-9.0859-8.0898-13.73-0.53516-1.3672-1.0547-2.7031-1.6133-3.9375-0.41406-0.23047-0.8125-0.47266-1.1953-0.72656l0.003906-0.003907c-1.5195-1.0156-2.8086-2.2344-3.4648-3.4297-0.57031-1.0391-0.19141-2.3438 0.84766-2.9141 1.0391-0.57031 2.3438-0.19141 2.9141 0.84766 0.31641 0.57422 1.0977 1.2695 2.0781 1.9219l0.003907 0.003907 0.003906-0.003907c1.0859 0.72266 2.332 1.3359 3.4492 1.6602 0.34375 0.10156 0.66016 0.17578 0.92969 0.22266-0.027344-0.027344-0.089844-0.085937-0.21875-0.21094-4.5547-4.3086-6.4766-8.8008-8.3984-13.289-0.83203-1.9492-1.668-3.8945-2.6641-5.6953-0.79297-1.4336 0.10156-2.1484-0.54297-2.1484s0.25 0.71875-0.54297 2.1484c-0.99609 1.8008-1.8281 3.7461-2.6641 5.6953-1.9219 4.4883-3.8438 8.9805-8.3984 13.289-0.125 0.11719-0.1875 0.17969-0.21875 0.21094 0.26953-0.046875 0.58203-0.12109 0.92969-0.22266 1.1172-0.32422 2.3633-0.9375 3.4492-1.6602 0.046875-0.03125 0.089843-0.058593 0.13672-0.085937 0.92187-0.62891 1.6484-1.2891 1.9492-1.8398 0.57031-1.0391 1.875-1.418 2.9141-0.84766 1.0391 0.57031 1.418 1.875 0.84766 2.9141-0.63281 1.1523-1.8594 2.332-3.3125 3.3242-0.046875 0.039063-0.097656 0.074219-0.14844 0.10938-0.37891 0.25391-0.78125 0.49609-1.1953 0.72656-0.55469 1.2344-1.0781 2.5703-1.6133 3.9375-1.8164 4.6445-3.7656 9.6406-8.0898 13.73-0.13281 0.125-0.19141 0.18359-0.21875 0.21094 0.26953-0.046875 0.58203-0.12109 0.92969-0.22266 1.1172-0.32422 2.3633-0.9375 3.4492-1.6602 0.98828-0.66016 1.7734-1.3555 2.0859-1.9219 0.57031-1.0391 1.875-1.418 2.9141-0.84766 1.0391 0.57031 1.418 1.875 0.84766 2.9141-0.65234 1.1875-1.9219 2.3984-3.418 3.4023-0.027344 0.13281-0.0625 0.26563-0.11719 0.39844-0.21094 0.52344-0.5 1.2578-0.78906 2-0.76172 1.9453-1.543 3.9531-2.5156 5.9297-0.0625 0.5-0.30078 0.97656-0.6875 1.3281-1.2383 2.2773-2.7812 4.4805-4.8867 6.4727-0.85938 0.8125-2.2109 0.77344-3.0234-0.082031-0.8125-0.85938-0.77344-2.2109 0.082032-3.0234 1.5977-1.5117 2.832-3.2422 3.8594-5.0742-1.0078-1.9141-1.7656-3.8594-2.5-5.7305-0.24609-0.62891-0.48828-1.25-0.65625-1.6641-0.011719-0.027344-0.019531-0.054688-0.03125-0.082031-1.4414-2.5625 0.26562-4.1211 1.5273-5.2695 0.22656-0.20703-0.027343 0.039062 0.19922-0.17578 0.14062-0.13281 0.27734-0.26562 0.41016-0.40234-1.5156-2.4375-2.5078-4.9805-3.457-7.4062-0.42578-1.0898-0.83984-2.1523-1.2969-3.168-0.30859-0.17578-0.61328-0.36328-0.90234-0.55469l-0.003907-0.003906-0.003906 0.003906c-1.3047-0.87109-2.4219-1.9336-3.0039-2.9883-0.57031-1.0391-0.19141-2.3438 0.84766-2.9141 1.0391-0.57031 2.3438-0.19141 2.9141 0.84766 0.23047 0.42188 0.84375 0.95703 1.625 1.4766l-0.003907 0.003907c0.33203 0.21875 0.67969 0.42578 1.0352 0.61328 0.085937 0.035156 0.16797 0.078125 0.24609 0.125 0.3125 0.15625 0.62891 0.29297 0.9375 0.41016-3.2812-3.3945-4.7773-6.8984-6.2773-10.398-0.69141-1.6211-1.3867-3.2383-2.2031-4.7148-0.070312-0.125-0.11328-0.24609-0.14062-0.35938-0.027344 0.11328-0.070313 0.23047-0.14063 0.35938-0.81641 1.4766-1.5117 3.0977-2.2031 4.7148-1.4961 3.5-2.9961 7-6.2773 10.398 0.32031-0.12109 0.64453-0.26172 0.96484-0.42188 0.066406-0.039062 0.13281-0.074219 0.20312-0.10156 0.31641-0.16406 0.625-0.34375 0.92188-0.53516 0.042968-0.03125 0.085937-0.0625 0.12891-0.09375 0.78125-0.51953 1.3945-1.0547 1.625-1.4766 0.57031-1.0391 1.875-1.418 2.9141-0.84766 1.0391 0.57031 1.418 1.875 0.84766 2.9141-0.57812 1.0547-1.6953 2.1172-3 2.9883-0.050781 0.035156-0.10547 0.066406-0.16016 0.097656-0.24219 0.15625-0.49609 0.30859-0.75 0.45703-0.44141 0.99219-0.86328 2.0664-1.293 3.168-1.4102 3.6133-2.9219 7.4805-6.0391 10.781 0.75391-0.28125 1.5352-0.6875 2.2305-1.1484l0.003906-0.003906-0.003906-0.003907c0.78125-0.51953 1.3945-1.0547 1.625-1.4766 0.57031-1.0391 1.875-1.418 2.9141-0.84766 1.0391 0.57031 1.418 1.875 0.84766 2.9141-0.55469 1.0117-1.6055 2.0312-2.8438 2.8828-0.023437 0.082031-0.050781 0.16406-0.082031 0.24609-0.16797 0.41797-0.41016 1.0352-0.65625 1.6641-1.5273 3.9062-3.168 8.1094-6.832 11.574-0.85938 0.8125-2.2109 0.77344-3.0234-0.082032-0.8125-0.85937-0.77344-2.2109 0.082032-3.0234 2.4062-2.2773 3.8242-5.2031 5.0078-8.1016-1.1328 0.14844-2.1992 0.03125-3.0547-0.44141-0.49609-0.27344-0.91406-0.64453-1.2305-1.1211-1.7305-2.5977-0.082031-4.1016 1.1211-5.1992 0.09375-0.082032 0.12891-0.11328 0.15625-0.14062l0.003906 0.003906 0.003906-0.003906c1.9883-1.8789 3.3008-4.2031 4.3672-6.5859-3.8594-4.0156-5.7188-8.7773-7.457-13.223-0.29687-0.75781-0.58594-1.5039-0.80469-2.043-0.054687-0.13672-0.09375-0.27734-0.12109-0.41797-1.5273-1.0234-2.8281-2.2578-3.4922-3.4727-0.57031-1.0391-0.19141-2.3438 0.84766-2.9141 1.0391-0.57031 2.3438-0.19141 2.9141 0.84766 0.32422 0.58594 1.1328 1.3047 2.1484 1.9844 1.1133 0.74219 2.3906 1.3672 3.5391 1.7031 0.70313 0.20703 1.2891 0.3125 1.625 0.26562-0.11328-0.039062-0.45312 0.042969-0.59766-0.085938-0.066406-0.058593 0.12891 0.11719-0.25391-0.24609-4.4141-4.1758-6.4062-9.2773-8.2617-14.023-0.54688-1.4062-1.0859-2.7773-1.6562-4.043-0.42578-0.23828-0.83984-0.48828-1.2305-0.75l0.003907-0.003906c-1.5469-1.0312-2.8594-2.2773-3.5273-3.4883-0.57031-1.0391-0.19141-2.3438 0.84766-2.9141 1.0391-0.57031 2.3438-0.19141 2.9141 0.84766 0.32812 0.59375 1.1289 1.3086 2.1406 1.9844l0.003906 0.003906 0.003906-0.003906c1.1133 0.74219 2.3906 1.3672 3.5391 1.7031 0.71094 0.20703 1.3008 0.31641 1.6328 0.26562-0.11328-0.039063-0.46094 0.046875-0.60547-0.085938-0.066407-0.058594 0.12891 0.11719-0.25391-0.24609-4.6484-4.3984-6.6133-8.9844-8.5742-13.57-0.85156-1.9922-1.7031-3.9844-2.7266-5.8281-0.82031-1.4805 0.03125-2.2227-0.59766-2.2227s0.22266 0.74219-0.59766 2.2227c-1.0195 1.8438-1.8711 3.8359-2.7266 5.8281-1.9609 4.5859-3.9258 9.1719-8.5742 13.57l-0.003906 0.003907 0.003906 0.003906c-0.13281 0.125-0.19531 0.18359-0.25391 0.23828-0.042969 0.039063-0.10547 0.058594-0.17188 0.070313l-0.03125 0.015625c0.32812-0.03125 0.75391-0.125 1.2344-0.26562 0.64844-0.1875 1.332-0.46875 2.0039-0.80469 0.046875-0.027343 0.09375-0.050781 0.14062-0.070312 0.48047-0.24609 0.94922-0.52734 1.3945-0.82031l-0.003906-0.003906c1.0195-0.67969 1.8242-1.3945 2.1484-1.9844 0.57031-1.0391 1.875-1.418 2.9141-0.84766 1.0391 0.57031 1.418 1.875 0.84766 2.9141-0.67187 1.2227-1.9844 2.4648-3.5273 3.4961l-0.003907-0.003906-0.003906 0.003906c-0.39062 0.25781-0.79688 0.50781-1.2188 0.74609-0.57031 1.2695-1.1094 2.6406-1.6562 4.0469-1.207 3.0898-2.4766 6.3359-4.457 9.4102 0.23047 0.23828 0.46484 0.46875 0.70703 0.69922 0.23047 0.21875 0.007813-0.003907 0.25 0.22266 1.3477 1.2305 3.1445 2.8672 1.9922 5.4414-0.019532 0.19531-0.066406 0.39453-0.14453 0.58594-0.21875 0.53906-0.51172 1.2891-0.80469 2.043-0.9375 2.4023-1.9141 4.8945-3.2305 7.3359 1.293 2.3203 2.8555 4.5234 4.8867 6.4492 0.85938 0.8125 0.89453 2.1641 0.082031 3.0234s-2.1641 0.89453-3.0234 0.082031c-2.6523-2.5078-4.5703-5.3125-6.1055-8.2031-0.17188-0.21875-0.30078-0.46484-0.37891-0.73047-1.3047-2.5703-2.3281-5.1953-3.3203-7.7383-0.35156-0.89453-0.69531-1.7812-0.96875-2.457-0.078125-0.19531-0.125-0.39453-0.14453-0.59375l-0.12109-0.078125c-0.042968-0.027343-0.082031-0.058593-0.125-0.089843-1.75-1.1875-3.2188-2.5898-3.9688-3.9531-0.57031-1.0391-0.19141-2.3438 0.84766-2.9141 1.0391-0.57031 2.3438-0.19141 2.9141 0.84766 0.41406 0.75391 1.3867 1.6367 2.6016 2.4609 0.039062 0.023437 0.074218 0.046875 0.11328 0.070312 1.3672 0.91406 2.9414 1.6836 4.3672 2.0977 1.082 0.31641 1.9805 0.44141 2.4297 0.25-0.0625-0.097656-0.48047-0.47656-0.78906-0.76172-0.050781-0.046875 0.10156 0.09375-0.30078-0.28906-5.2227-4.9414-7.5977-11.016-9.8047-16.668-0.67969-1.7383-1.3438-3.4336-2.0547-5-0.54297-0.29687-1.0703-0.61719-1.5703-0.94922-1.7969-1.1992-3.3203-2.6367-4.0938-4.0391zm59.66-14.32c-1.1875 0-2.1484-0.96094-2.1484-2.1484s0.96094-2.1484 2.1484-2.1484h6.5469v-6.5469c0-1.1875 0.96094-2.1484 2.1484-2.1484s2.1484 0.96094 2.1484 2.1484v6.5469h6.5469c1.1875 0 2.1484 0.96094 2.1484 2.1484s-0.96094 2.1484-2.1484 2.1484h-6.5469v6.5469c0 1.1875-0.96094 2.1484-2.1484 2.1484s-2.1484-0.96094-2.1484-2.1484v-6.5469zm27.156 126.61c1.1875 0 2.1484 0.96094 2.1484 2.1484s-0.96094 2.1484-2.1484 2.1484h-6.5469v6.5469c0 1.1875-0.96094 2.1484-2.1484 2.1484s-2.1484-0.96094-2.1484-2.1484v-6.5469h-6.5469c-1.1875 0-2.1484-0.96094-2.1484-2.1484s0.96094-2.1484 2.1484-2.1484h6.5469v-6.5469c0-1.1875 0.96094-2.1484 2.1484-2.1484s2.1484 0.96094 2.1484 2.1484v6.5469zm-4.0312 32.258c1.1875 0 2.1484 0.96094 2.1484 2.1484s-0.96094 2.1484-2.1484 2.1484h-6.5469v6.5469c0 1.1875-0.96094 2.1484-2.1484 2.1484s-2.1484-0.96094-2.1484-2.1484v-6.5469h-6.5469c-1.1875 0-2.1484-0.96094-2.1484-2.1484s0.96094-2.1484 2.1484-2.1484h6.5469v-6.5469c0-1.1875 0.96094-2.1484 2.1484-2.1484s2.1484 0.96094 2.1484 2.1484v6.5469zm-34.527-27.723c1.1875 0 2.1484 0.96094 2.1484 2.1484s-0.96094 2.1484-2.1484 2.1484h-6.5469v6.5469c0 1.1875-0.96094 2.1484-2.1484 2.1484s-2.1484-0.96094-2.1484-2.1484v-6.5469h-6.5469c-1.1875 0-2.1484-0.96094-2.1484-2.1484s0.96094-2.1484 2.1484-2.1484h6.5469v-6.5469c0-1.1875 0.96094-2.1484 2.1484-2.1484s2.1484 0.96094 2.1484 2.1484v6.5469zm-115.03-135.44c1.1875 0 2.1484 0.96094 2.1484 2.1484s-0.96094 2.1484-2.1484 2.1484h-6.5469v6.5469c0 1.1875-0.96094 2.1484-2.1484 2.1484s-2.1484-0.96094-2.1484-2.1484v-6.5469h-6.5469c-1.1875 0-2.1484-0.96094-2.1484-2.1484s0.96094-2.1484 2.1484-2.1484h6.5469v-6.5469c0-1.1875 0.96094-2.1484 2.1484-2.1484s2.1484 0.96094 2.1484 2.1484v6.5469zm71.91-36.965c1.1875 0 2.1484 0.96094 2.1484 2.1484s-0.96094 2.1484-2.1484 2.1484h-6.5469v6.5469c0 1.1875-0.96094 2.1484-2.1484 2.1484s-2.1484-0.96094-2.1484-2.1484v-6.5469h-6.5469c-1.1875 0-2.1484-0.96094-2.1484-2.1484s0.96094-2.1484 2.1484-2.1484h6.5469v-6.5469c0-1.1875 0.96094-2.1484 2.1484-2.1484s2.1484 0.96094 2.1484 2.1484v6.5469zm-7.4453 234.38-0.035156 1.2031c-0.71094 23.02-1.7383 46.133-3.2734 69.699 0.9375 0.13672 1.8594 0.24609 2.7617 0.32422 1.2539-0.10938 2.5352-0.27344 3.8477-0.49609-1.5273-23.508-2.5547-46.566-3.2617-69.531l-0.035157-1.2031zm-5.9688 70.445c1.5273-23.52 2.5508-46.496 3.2539-69.316 0.125-4.0859 0.24219-8.168 0.34766-12.246-0.36719 3.8633-0.76563 7.7266-1.1953 11.594-2.4766 22.281-6.0469 44.676-11.332 67.535 3.082 1.0547 6.0625 1.8672 8.9219 2.4336zm8.332-81.562c0.10547 4.0781 0.22266 8.1602 0.34766 12.246 0.70313 22.746 1.7227 45.648 3.2422 69.09 2.8438-0.61719 5.8008-1.4727 8.8555-2.5625-5.2422-22.734-8.7852-45.016-11.25-67.18-0.42969-3.8672-0.82812-7.7344-1.1953-11.598zm-19.801 78.215c5.2266-22.66 8.7578-44.848 11.211-66.91 0.26953-2.418 0.52344-4.832 0.76953-7.2461-0.26562 1.3945-0.53516 2.793-0.81641 4.1914-4.3711 21.781-10.719 43.672-20.199 66.02 3.0781 1.5195 6.0977 2.8359 9.0391 3.9492zm22.891-74.156c0.24219 2.4141 0.5 4.8281 0.76953 7.2461 2.4375 21.938 5.9453 44 11.121 66.527 2.9102-1.1406 5.8945-2.4805 8.9375-4.0117-9.375-22.191-15.668-43.934-20.012-65.57-0.28125-1.3984-0.55078-2.793-0.81641-4.1914zm-97.078-55.152c-1.1875 0-2.1484-0.96094-2.1484-2.1484s0.96094-2.1484 2.1484-2.1484h6.5469v-6.5469c0-1.1875 0.96094-2.1484 2.1484-2.1484s2.1484 0.96094 2.1484 2.1484v6.5469h6.5469c1.1875 0 2.1484 0.96094 2.1484 2.1484s-0.96094 2.1484-2.1484 2.1484h-6.5469v6.5469c0 1.1875-0.96094 2.1484-2.1484 2.1484s-2.1484-0.96094-2.1484-2.1484v-6.5469zm4.0312 32.258c-1.1875 0-2.1484-0.96094-2.1484-2.1484s0.96094-2.1484 2.1484-2.1484h6.5469v-6.5469c0-1.1875 0.96094-2.1484 2.1484-2.1484s2.1484 0.96094 2.1484 2.1484v6.5469h6.5469c1.1875 0 2.1484 0.96094 2.1484 2.1484s-0.96094 2.1484-2.1484 2.1484h-6.5469v6.5469c0 1.1875-0.96094 2.1484-2.1484 2.1484s-2.1484-0.96094-2.1484-2.1484v-6.5469zm34.527-27.723c-1.1875 0-2.1484-0.96094-2.1484-2.1484s0.96094-2.1484 2.1484-2.1484h6.5469v-6.5469c0-1.1875 0.96094-2.1484 2.1484-2.1484s2.1484 0.96094 2.1484 2.1484v6.5469h6.5469c1.1875 0 2.1484 0.96094 2.1484 2.1484s-0.96094 2.1484-2.1484 2.1484h-6.5469v6.5469c0 1.1875-0.96094 2.1484-2.1484 2.1484s-2.1484-0.96094-2.1484-2.1484v-6.5469zm21.02 117.9c0.4375-3.9727-0.30469-8.3281-1.9883-12.699-1.8125-4.7148-4.7188-9.4492-8.4219-13.762-1.6992-1.9805-2.5352-4.1484-2.5781-6.4414-0.039063-2.2734 0.71875-4.5898 2.2188-6.8906 9.9414-15.277 17.902-29.145 24.449-42.973 3.543-7.4805 6.6719-14.949 9.4727-22.625-2.6875 4.3477-5.7148 8.6289-9.0508 12.852-9.1992 11.629-20.758 22.758-34.113 33.395-1 0.79688 0.13281-0.10938-0.66797 0.52344-2.5039 1.9844-3.1836 2.5195-3.5156 5.918l-1.7812 33.434c-0.015626 0.32031-0.10156 0.62109-0.24219 0.88672 8.8164 7.4453 17.691 13.629 26.211 18.383zm27.805-105.62c-3.0039 8.3945-6.3789 16.535-10.242 24.688-6.6289 13.992-14.684 28.023-24.734 43.477-1.0273 1.582-1.5547 3.0938-1.5273 4.4883 0.023438 1.2773 0.52734 2.5273 1.5547 3.7227 4.0039 4.6641 7.1641 9.832 9.1602 15.023 1.168 3.0391 1.9414 6.0859 2.25 9.0508 7.9336-19.871 13.422-39.367 17.312-58.758 2.7891-13.898 4.7617-27.766 6.2305-41.691zm32.023 100.45c0.3125-2.9648 1.082-6.0156 2.25-9.0508 1.9961-5.1914 5.1562-10.359 9.1602-15.023 1.0273-1.1953 1.5312-2.4453 1.5547-3.7227 0.023437-1.3945-0.5-2.9062-1.5273-4.4883-10.055-15.449-18.109-29.48-24.734-43.477-3.8594-8.1523-7.2383-16.293-10.242-24.688 1.4688 13.926 3.4414 27.793 6.2305 41.691 3.8906 19.387 9.3789 38.883 17.312 58.758zm-18.895-100.22c2.8047 7.6758 5.9336 15.145 9.4727 22.625 6.5469 13.828 14.512 27.695 24.449 42.973 1.4961 2.3008 2.2578 4.6172 2.2188 6.8906-0.039063 2.293-0.87891 4.4648-2.5781 6.4414-3.7031 4.3125-6.6055 9.0469-8.4219 13.762-1.5977 4.1602-2.3477 8.3008-2.043 12.113 8.4805-4.832 17.293-11.062 26.039-18.531-0.007812-0.050782-0.011718-0.10156-0.011718-0.15625l-1.7812-33.434c-0.32812-3.3984-1.0078-3.9375-3.5117-5.918-0.82422-0.65234 0.23438 0.19531-0.66797-0.52344-13.352-10.637-24.91-21.766-34.113-33.395-3.3398-4.2188-6.3633-8.5039-9.0508-12.852zm-123.35-16.727-0.035156 0.1875-0.0625 0.33984-0.058594 0.33984-0.050781 0.34375-0.046875 0.34375-0.042969 0.34375-0.039062 0.34375-0.03125 0.34375-0.027344 0.34766-0.023438 0.34766-0.019531 0.34766-0.011719 0.34766-0.007812 0.34766-0.003906 0.34766h4.3008l0.003906-0.28516 0.007813-0.28516 0.011718-0.28516 0.015626-0.28516 0.019531-0.28516 0.023437-0.28516 0.027344-0.28516 0.03125-0.28516 0.035156-0.28125 0.039063-0.28125 0.042969-0.28125 0.046874-0.28125 0.050782-0.28125 0.035156-0.1875-4.2227-0.80078zm229.07 2.7656-0.015625-0.17969-0.03125-0.34375-0.039063-0.34375-0.042968-0.34375-0.046875-0.34375-0.050781-0.34375-0.058594-0.33984-0.0625-0.33984-0.066406-0.33984-0.070313-0.33984-0.078125-0.33984-0.082031-0.33594-0.085938-0.33594-0.10156-0.36719-4.125 1.2031-0.007813-0.023437 0.074219 0.28125 0.070313 0.28125 0.066406 0.28125 0.0625 0.28125 0.058594 0.28125 0.054687 0.28125 0.050781 0.28125 0.046875 0.28125 0.042969 0.28125 0.039062 0.28125 0.035157 0.28125 0.03125 0.28516 0.027343 0.28516 0.015626 0.17969 4.2812-0.375zm-7.4922-16.613-0.28125-0.32422-0.25781-0.29297-0.26172-0.29297-0.26562-0.29297-0.26953-0.28906-0.27344-0.28906-0.27734-0.28906-0.28125-0.28906-0.28516-0.28516-0.28906-0.28516-0.29297-0.28516-0.066406-0.0625-2.957 3.1211 0.30859 0.30078 0.26563 0.26172 0.26172 0.26172 0.25781 0.26172 0.25391 0.26172 0.25 0.26172 0.24609 0.26172 0.24219 0.26562 0.23828 0.26562 0.23437 0.26562 0.25391 0.29297 3.2656-2.7969zm-13.684-11.367-0.15625-0.097656-0.40234-0.24609-0.8125-0.49219-0.41016-0.24219-0.41406-0.24219-0.41797-0.24219-0.84375-0.47656-0.33984-0.1875-2.082 3.7617 0.32031 0.17969 0.40234 0.22656 0.79688 0.46094 0.39453 0.23047 0.39062 0.23047 0.38672 0.23438 0.38281 0.23438 0.37891 0.23438 0.15625 0.097656 2.2656-3.6523zm-15.668-7.8828-0.33203-0.13672-0.50391-0.20312-0.50781-0.20312-0.50781-0.19922-0.51172-0.19922-0.51562-0.19922-0.51953-0.19531-0.67187-0.25-1.4844 4.0352 0.64063 0.23828 1 0.38281 0.49609 0.19141 0.98438 0.39062 0.48828 0.19531 0.33203 0.13672zm-16.504-5.6055-0.66016-0.18359-0.58203-0.16016-1.1719-0.3125-0.58984-0.15625-0.58984-0.15234-0.61719-0.15625-1.043 4.1719 0.58984 0.15234 0.57812 0.14844 1.1484 0.30469 0.57031 0.15234 0.56641 0.15625 0.64453 0.17969 1.1562-4.1406zm-16.941-3.9023-0.83594-0.15234-0.64062-0.11328-1.2891-0.22656-0.64844-0.10938-0.86719-0.14453-0.6875 4.2422 0.83984 0.14062 1.2656 0.21875 0.62891 0.10938 0.62891 0.11328 0.82422 0.15234 0.77734-4.2266zm-17.176-2.4922-0.91797-0.097657-0.6875-0.070312-0.6875-0.066407-1.3828-0.13281-0.64062-0.058594-0.38281 4.2812 0.62891 0.058594 0.67969 0.0625 1.3516 0.13281 0.67578 0.070313 0.90625 0.09375 0.45312-4.2734zm-17.297-1.2461-0.50391-0.019532-0.71875-0.023437-0.72266-0.023437-1.4453-0.039063-0.94141-0.023437-0.082031 4.2969 0.91797 0.019532 1.4219 0.039062 0.71094 0.023438 0.70703 0.023437 0.50391 0.019531 0.15234-4.2969zm-17.336-0.085938-0.64453 0.019532-0.72266 0.023437-0.71875 0.023437-1.4375 0.054688-0.80859 0.035156 0.20313 4.293 0.78516-0.035156 1.4141-0.054688 0.70703-0.023437 0.71094-0.023438 0.64453-0.019531-0.12891-4.2969zm-17.305 1.0664-0.29297 0.027344-0.6875 0.066406-0.6875 0.070313-0.68359 0.070313-1.3672 0.14844-0.59375 0.066406 0.49219 4.2695 0.58203-0.066406 0.66797-0.074218 0.67188-0.074219 0.67188-0.070313 0.67578-0.070312 0.67578-0.066406 0.29297-0.027344-0.41797-4.2773zm-17.203 2.2969-0.4375 0.074218-0.64453 0.11328-0.64062 0.11328-0.64062 0.11719-0.63672 0.11719-0.63672 0.12109-0.64062 0.125 0.83203 4.2188h-0.003907l0.62109-0.12109 0.62109-0.11719 0.625-0.11719 0.625-0.11328 0.62891-0.11328 0.62891-0.10938 0.4375-0.074219zm-16.98 3.6758-0.69141 0.18359-0.58594 0.15625-0.58203 0.16016-0.57813 0.16016-0.57812 0.16406-0.57422 0.16406-0.60938 0.17578 1.2148 4.125 0.58203-0.16797 1.125-0.32031 1.1328-0.3125 0.57031-0.15234 0.67578-0.17969-1.0977-4.1562zm-16.59 5.3242-0.57422 0.22266-0.50781 0.19922-0.50781 0.20313-0.50391 0.20312-0.5 0.20313-0.5 0.20703-0.49609 0.20703-0.45703 0.19141 1.6836 3.957 0.44141-0.1875 0.96094-0.39844 0.48438-0.19922 0.48828-0.19531 0.98437-0.39062 0.55859-0.21875-1.5508-4.0117zm-15.84 7.4883-0.48047 0.28125-0.41016 0.24219-0.8125 0.49219-0.40234 0.24609-0.39844 0.25-0.39453 0.25-0.39063 0.25-0.47266 0.30859 2.3711 3.5859 0.42969-0.28125 0.37109-0.23828 0.375-0.23828 0.75781-0.46875 0.38281-0.23438 0.38672-0.23438 0.39062-0.23047 0.46094-0.26953-2.1641-3.7148zm-14.133 10.734-0.19922 0.20703-0.27344 0.28906-0.26953 0.28906-0.26562 0.29297-0.26172 0.29297-0.25781 0.29297-0.25391 0.29688-0.25 0.29688-0.24609 0.29688-0.24609 0.30078-0.24219 0.30078-0.19141 0.24609 3.3945 2.6367 0.16797-0.21094 0.21484-0.26562 0.21875-0.26562 0.22266-0.26562 0.22656-0.26562 0.23047-0.26562 0.23438-0.26562 0.23828-0.26562 0.24219-0.26562 0.24609-0.26172 0.25-0.26172 0.19922-0.20703-3.1094-2.9688zm53.91-64.984c0.69141-1.3945 1.2891-2.8203 1.8516-4.2344-1.6094 0.35156-3.1289 0.30078-4.293-0.33984-0.53906-0.29688-0.99609-0.69922-1.3398-1.2188-1.8945-2.8398-0.050781-4.5195 1.2969-5.75 0.22656-0.20703-0.023438 0.039062 0.20703-0.17969 3.6914-3.4922 5.5117-8.1484 7.2031-12.477l0.23828-0.61328c-1.1797 0.11328-2.2695-0.035157-3.1523-0.51953-0.53906-0.29688-0.99609-0.69922-1.3398-1.2188-1.8945-2.8398-0.050782-4.5195 1.2969-5.75 0.22656-0.20703-0.023438 0.039062 0.20703-0.17969 3.9844-3.7695 5.7734-7.957 7.5664-12.145 0.875-2.043 1.7461-4.082 2.9258-6.2148 1.6445-2.9727 2.4727-4.457 4.3438-4.457 1.8672 0 2.6992 1.4844 4.3438 4.457 1.1797 2.1328 2.0547 4.1719 2.9258 6.2148 1.7383 4.0586 3.4727 8.1172 7.2031 11.793-0.31641-1.9766 1.1641-3.3281 2.3164-4.3789 0.24219-0.21875 0.03125-0.011719 0.25-0.22266 4.8438-4.5859 7.0117-9.6484 9.1797-14.711 1.0469-2.4453 2.0898-4.8867 3.4883-7.4141 1.8906-3.4141 2.8438-5.125 4.8359-5.125 1.9922 0 2.9453 1.707 4.8359 5.125 1.3984 2.5273 2.4453 4.9727 3.4922 7.4141 2.168 5.0625 4.332 10.129 9.1797 14.711 0.23047 0.21875 0.011719 0 0.25 0.22266 1.1836 1.0781 2.7109 2.4727 2.2891 4.5391 3.8438-3.7188 5.6055-7.8359 7.3672-11.953 0.875-2.043 1.7461-4.082 2.9258-6.2148 1.6445-2.9727 2.4727-4.457 4.3438-4.457 1.8672 0 2.6992 1.4844 4.3438 4.457 1.1797 2.1328 2.0547 4.1719 2.9258 6.2148 1.793 4.1875 3.582 8.375 7.5664 12.145 0.23828 0.22656-0.019532-0.027344 0.20703 0.17969 1.3125 1.1992 3.1016 2.8281 1.4102 5.5586-0.035156 0.0625-0.070313 0.12891-0.11328 0.1875-0.34766 0.51953-0.80078 0.92188-1.3398 1.2188-0.88281 0.48438-1.9727 0.63281-3.1523 0.51953l0.23828 0.60938c1.6914 4.3281 3.5117 8.9844 7.2031 12.477 0.24219 0.22656-0.019531-0.027344 0.20703 0.17969 1.1992 1.0938 2.7969 2.5508 1.7852 4.8672 0.78906-1.4609 1.4258-2.9492 2.0625-4.4414 0.71484-1.668 1.4297-3.3359 2.4062-5.1016 1.418-2.5586 2.1328-3.8398 3.8867-3.8398 1.7539 0 2.4688 1.2812 3.8867 3.8398 0.97656 1.7656 1.6914 3.4336 2.4023 5.1016 1.2891 3.0117 2.5781 6.0234 5.1016 8.7812 0.23047-1.2305 1.2188-2.1328 2.0312-2.8711 0.22266-0.20312-0.046875 0.058594 0.19922-0.17578 3.8906-3.6797 5.6406-7.7695 7.3906-11.863 0.85547-1.9961 1.707-3.9922 2.8633-6.082 1.6172-2.9219 2.4336-4.3828 4.2891-4.3828s2.6719 1.4609 4.2891 4.3828c1.1562 2.0898 2.0117 4.0859 2.8633 6.082 1.75 4.0898 3.5 8.1836 7.3906 11.863 0.22656 0.21484-0.023438-0.027344 0.19922 0.17578 0.83203 0.75781 1.8555 1.6914 2.043 2.9766 2.5859-2.7812 3.8945-5.832 5.1992-8.8828 0.71484-1.668 1.4297-3.3359 2.4062-5.1016 1.418-2.5586 2.1328-3.8398 3.8867-3.8398s2.4688 1.2812 3.8867 3.8398c0.97656 1.7656 1.6914 3.4336 2.4023 5.1016 1.4453 3.3789 2.8906 6.7539 6.0781 9.7695 0.26953 0.25391-0.050781-0.054687 0.16406 0.14062 1.1719 1.0703 2.7656 2.5234 1.2344 5.0078-0.035156 0.066406-0.070312 0.12891-0.11328 0.19141-0.31641 0.47656-0.73438 0.84766-1.2305 1.1211-0.62891 0.34766-1.3711 0.5-2.168 0.5 1.3555 3.4727 2.8242 7.1953 5.7461 9.9609 0.26953 0.25391-0.050781-0.054687 0.16406 0.14062 1.2031 1.0977 2.8477 2.5977 1.1133 5.1953l0.003906 0.003906c-0.31641 0.47656-0.73438 0.84766-1.2305 1.1211-0.79297 0.4375-1.7617 0.57031-2.8008 0.46875 0.53906 1.0312 1.0664 1.9609 1.5664 2.8359 2.2617 3.9609 3.9531 6.9297 3.4727 12.949-3.5547 44.43-22.215 84.039-45.883 114.7-29.797 38.605-67.672 63.098-93.445 65.246-0.14844 0.011718-0.29297 0.007812-0.43359-0.007813-25.773-2.1953-63.602-26.672-93.367-65.238-23.668-30.664-42.328-70.273-45.883-114.7-0.48047-6.0234 1.2109-8.9922 3.4727-12.949 0.5-0.875 1.0312-1.8047 1.5664-2.8359-1.0391 0.097656-2.0078-0.03125-2.8008-0.46875-0.49609-0.27344-0.91406-0.64453-1.2305-1.1211l0.003907-0.003906c-1.7305-2.6016-0.085938-4.1016 1.1133-5.1953 0.21484-0.19531-0.10547 0.11328 0.16406-0.14062 2.9219-2.7656 4.3906-6.4883 5.7461-9.9609-0.79688 0-1.5391-0.15234-2.168-0.5-0.49609-0.27344-0.91406-0.64453-1.2305-1.1211-1.7305-2.5977-0.082032-4.1016 1.1211-5.1992 0.21484-0.19531-0.10547 0.11328 0.16406-0.14062 3.1875-3.0156 4.6328-6.3906 6.0781-9.7695 0.71484-1.668 1.4297-3.3359 2.4023-5.1016 1.418-2.5586 2.1328-3.8398 3.8867-3.8398 1.7539 0 2.4688 1.2812 3.8867 3.8398 0.97656 1.7656 1.6914 3.4336 2.4023 5.1016 1.3047 3.0508 2.6094 6.1016 5.1992 8.8867 0.1875-1.2852 1.2109-2.2188 2.043-2.9805 0.22266-0.20312-0.046875 0.058594 0.19922-0.17578 3.8906-3.6797 5.6406-7.7695 7.3906-11.863 0.85547-1.9961 1.707-3.9922 2.8633-6.082 1.6172-2.9219 2.4336-4.3828 4.2891-4.3828s2.6719 1.4609 4.2891 4.3828c1.1562 2.0898 2.0117 4.0859 2.8633 6.082 1.75 4.0898 3.5 8.1836 7.3906 11.863 0.24609 0.23438-0.023438-0.027344 0.19922 0.17578 0.80859 0.73828 1.8008 1.6445 2.0273 2.875 2.5273-2.7578 3.8164-5.7695 5.1055-8.7852 0.71484-1.668 1.4297-3.3359 2.4062-5.1016 1.418-2.5586 2.1328-3.8398 3.8867-3.8398 1.7539 0 2.4688 1.2812 3.8867 3.8398 0.97656 1.7656 1.6914 3.4336 2.4062 5.1016 1.4453 3.3789 2.8906 6.7539 6.0781 9.7695 0.24609 0.23047-0.050781-0.054688 0.16406 0.14062 0.38672 0.35156 0.81641 0.74609 1.168 1.2031zm-28.086 2.0508c-0.64844 0.17578-1.3672 0.21875-2.1211 0.15625l0.20703 0.52734c1.0586 2.707 2.1641 5.543 3.7695 8.1289 0.89844-1.7031 1.6055-3.5039 2.2852-5.2422-0.79688 0-1.5391-0.15234-2.168-0.5-0.49609-0.27344-0.91406-0.64453-1.2305-1.1211l0.003906-0.003907c-0.48438-0.72656-0.70312-1.3711-0.74219-1.9414zm1.4297 20.348c-0.10156-0.019531-0.20703-0.039062-0.30859-0.058594 0.054687 0.13672 0.10938 0.27344 0.16406 0.41016 0.046874-0.11719 0.097656-0.23438 0.14453-0.35156zm12.957-37.414c0.11719-0.49609 0.50781-0.74219 0-0.74219s-0.11719 0.24609 0 0.74219zm-9.6445 16.984c-0.007813 0.007812-0.003907 0.003906 0.003906 0zm22.918 16.922c0.007812 0.003906 0.007812 0.007812 0.003906 0zm-55.316-16.871c-0.03125 0.57812-0.25 1.2344-0.74609 1.9766-0.31641 0.47656-0.73438 0.84766-1.2305 1.1211-0.62891 0.34766-1.3711 0.5-2.168 0.5 0.69141 1.7734 1.4141 3.6094 2.3359 5.3398 1.6367-2.6094 2.7617-5.4844 3.832-8.2227l0.20703-0.52734c-0.79688 0.066406-1.5508 0.015625-2.2227-0.18359zm-1.2383 20.867c0.074219-0.18359 0.14844-0.36328 0.21875-0.54688-0.13672 0.027344-0.27734 0.054688-0.41406 0.078126 0.0625 0.15625 0.12891 0.3125 0.19141 0.46875zm163.93-28.582c-0.33594 0.47266-0.76562 0.84375-1.2734 1.1211-1.1641 0.64062-2.6836 0.69141-4.293 0.33984 0.46094 1.1523 0.94141 2.3164 1.4805 3.4609 0.15625-0.15234 0.31641-0.29688 0.46484-0.43359 0.21484-0.19531-0.097656 0.10547 0.16406-0.14063 1.4648-1.3867 2.5586-2.8477 3.457-4.3477zm23.297 7.7461c-0.039063 0.57031-0.25781 1.2148-0.74219 1.9414l0.003907 0.003906c-0.31641 0.47656-0.73438 0.84766-1.2305 1.1211-0.62891 0.34766-1.3711 0.5-2.168 0.5 0.67969 1.7383 1.3867 3.543 2.2852 5.2422 1.6055-2.5859 2.7148-5.4219 3.7695-8.1289l0.20703-0.52734c-0.75391 0.066406-1.4727 0.019531-2.1211-0.15625zm-24.031-0.078125m9.6445-17.727c-0.50781 0-0.11719 0.24609 0 0.74219 0.11719-0.49609 0.50781-0.74219 0-0.74219zm9.6445 17.727c0.007813 0.003906 0.007813 0.007813 0.003907 0zm3.3125 20.43c0.046875 0.11719 0.09375 0.23438 0.14453 0.35156 0.054688-0.13672 0.10938-0.27344 0.16406-0.41016-0.10156 0.023437-0.20703 0.042969-0.30859 0.058593zm30.902-11.445c0.92188-1.7305 1.6406-3.5664 2.332-5.3359-0.79688 0-1.5391-0.15234-2.168-0.5-0.49609-0.27344-0.91406-0.64453-1.2305-1.1211-0.49609-0.74219-0.71484-1.3945-0.74609-1.9727-0.67188 0.19922-1.4258 0.25391-2.2227 0.18359l0.20703 0.52734c1.0703 2.7383 2.1914 5.6133 3.8281 8.2227zm22.227-8.9844h-0.003907c0.007813 0.003906 0.007813 0.007813 0.003907 0zm-9.6445-16.984c0.11719-0.49609 0.50781-0.74219 0-0.74219-0.50781 0-0.11719 0.24609 0 0.74219zm-13.156 37.898c0.066406-0.15625 0.12891-0.3125 0.19141-0.46875-0.13672-0.023438-0.27344-0.046876-0.41016-0.078126 0.074219 0.17969 0.14453 0.36328 0.21875 0.54297zm26.426-3.9922c0.007812 0.003906 0.007812 0.007812 0.003906 0zm-265.36-16.922h-0.003907c-0.007812 0.007813-0.003906 0.003906 0.003907 0zm9.6445-17.727c-0.50781 0-0.11719 0.24609 0 0.74219 0.11719-0.49609 0.50781-0.74219 0-0.74219zm9.6445 17.727c0.007813 0.003906 0.007813 0.007813 0.003907 0zm-22.918 16.922c-0.007812 0.007812-0.003906 0.003906 0.003907 0zm116.47-20.848c0.35156-0.83984 0.6875-1.6836 1.0156-2.5195-0.64062 0.18359-1.2734 0.3125-1.8867 0.38672 0.27734 0.71094 0.5625 1.4219 0.86719 2.1328zm-0.71484-14.945c2.2383-3.3906 3.7109-7.1602 5.1133-10.746 0.18359-0.47266 0.36719-0.94141 0.55078-1.4062-1.4492 0.23828-2.8047 0.17187-3.9023-0.31641 0.14062 0.79297-0.03125 1.7188-0.76562 2.8203l0.003906 0.003906c-0.34766 0.51953-0.80078 0.92188-1.3398 1.2188-0.88281 0.48438-1.9727 0.63281-3.1523 0.51953l0.23828 0.60938c0.94531 2.4219 1.9336 4.9453 3.2539 7.2969zm36.801-12.535c-1.125 0.54688-2.5352 0.62891-4.0469 0.38281 0.18359 0.46484 0.36719 0.93359 0.55078 1.4062 1.418 3.625 2.9062 7.4375 5.1836 10.855 1.3516-2.3789 2.3516-4.9453 3.3164-7.4023l0.23828-0.60937c-1.1797 0.11328-2.2695-0.035157-3.1523-0.51953-0.53906-0.29688-0.99609-0.69922-1.3398-1.2188-0.75391-1.1328-0.91406-2.082-0.75-2.8906zm1.8711 25.359c-0.64453-0.070312-1.3086-0.20703-1.9844-0.39844 0.34375 0.87109 0.69141 1.7461 1.0586 2.6211 0.32422-0.73828 0.62891-1.4844 0.92578-2.2227z" fill="#00bac2"/>
 </g>
</svg>
