<?xml version="1.0" encoding="UTF-8"?>
<svg width="512pt" height="512pt" version="1.1" viewBox="0 0 512 512" xmlns="http://www.w3.org/2000/svg">
 <defs>
  <clipPath id="d">
   <path d="m117 360h278v57.219h-278z"/>
  </clipPath>
  <clipPath id="c">
   <path d="m361 94.781h56.219v56.219h-56.219z"/>
  </clipPath>
  <clipPath id="b">
   <path d="m94.781 94.781h56.219v56.219h-56.219z"/>
  </clipPath>
  <clipPath id="a">
   <path d="m228 94.781h56v56.219h-56z"/>
  </clipPath>
 </defs>
 <rect width="512" height="512"/>
 <g clip-path="url(#d)">
  <path d="m394.88 379.43c0-9.0938-24.762-15.113-56.324-18.516-1.6367 1.5352-3.3242 3.0234-5.0391 4.4844 37.129 3.8789 56.324 10.078 56.324 14.031 0 1.4844-2.7188 3.2734-8.0117 5.0391h0.003906c-0.21094 0.046875-0.41406 0.125-0.60547 0.22656-17.105 5.918-59.398 12.367-125.22 12.367s-108.14-6.4492-125.22-12.27v0.003906c-0.17578-0.089843-0.35938-0.15625-0.55469-0.20312-5.3398-1.8906-8.0625-3.6797-8.0625-5.1641 0-3.9805 19.195-10.078 56.324-14.031-1.7148-1.4375-3.4023-2.9492-5.0391-4.4844-31.559 3.4023-56.293 9.4453-56.293 18.516 0 2.7695 2.3438 5.2383 6.4219 7.5586-4.3086 2.2656-6.3984 4.8125-6.3984 7.5586 0 16.625 83.129 22.672 138.85 22.672s138.85-6.0469 138.85-22.672c0-2.8711-2.1172-5.4141-6.3984-7.5586 4.0508-2.3203 6.3945-4.7891 6.3945-7.5586z" fill="#00bac2"/>
 </g>
 <path d="m141.69 195.54c-0.30469-0.89453-1.082-1.5469-2.0156-1.6875l-8.5391-1.3086-3.8281-8.1875h-0.003907c-0.41406-0.88281-1.3008-1.4492-2.2773-1.4492-0.97656 0-1.8672 0.56641-2.2812 1.4492l-3.8555 8.1094-8.5391 1.3086v0.003906c-0.94531 0.13672-1.7305 0.79688-2.0273 1.7031-0.30078 0.90625-0.0625 1.9062 0.61719 2.5781l6.2461 6.3711-1.4844 9.0703c-0.11328 0.9375 0.30469 1.8594 1.082 2.3867 0.78125 0.53125 1.793 0.58203 2.6211 0.13281l7.5586-4.207 7.5586 4.207h-0.003906c0.82812 0.44922 1.8398 0.39844 2.6211-0.13281 0.77734-0.52734 1.1992-1.4492 1.082-2.3867l-1.4844-9.0703 6.3477-6.3711c0.64844-0.66406 0.88281-1.6328 0.60547-2.5195zm-11.336 6.3477c-0.55859 0.57422-0.8125 1.3789-0.67969 2.168l0.85547 5.2148-4.2812-2.3672v-0.003906c-0.78125-0.44922-1.7422-0.44922-2.5195 0l-4.2812 2.3672 0.85547-5.2148v0.003906c0.12891-0.78906-0.125-1.5938-0.68359-2.168l-3.6523-3.8281 5.0391-0.75391v-0.003906c0.82422-0.125 1.5312-0.65625 1.8906-1.4102l2.1406-4.5352 2.1406 4.5352c0.35938 0.75391 1.0664 1.2852 1.8906 1.4102l5.0391 0.75391z" fill="#00bac2"/>
 <path d="m127.53 337.04c0.83203 0.44922 1.8398 0.39844 2.6211-0.13281s1.1992-1.4492 1.082-2.3867l-1.4844-9.0703 6.2969-6.4727c0.66406-0.67578 0.89062-1.6719 0.58984-2.5703-0.30469-0.89844-1.0859-1.5508-2.0273-1.6875l-8.5391-1.3086-3.8281-8.1875c-0.41406-0.88281-1.3047-1.4492-2.2773-1.4492-0.97656 0-1.8672 0.56641-2.2812 1.4492l-3.8281 8.1602-8.5391 1.3086v0.003906c-0.94531 0.13672-1.7344 0.79688-2.0312 1.7031-0.30078 0.90625-0.058594 1.9062 0.61719 2.5781l6.25 6.375-1.4844 9.0703-0.003906-0.003906c-0.11328 0.9375 0.30469 1.8594 1.0859 2.3867 0.77734 0.53125 1.7891 0.58203 2.6172 0.13281l7.5586-4.207z" fill="#00bac2"/>
 <g clip-path="url(#c)">
  <path d="m415.08 114.05-16.07-2.5195-7.207-15.289c-0.41406-0.88281-1.3008-1.4492-2.2773-1.4492-0.97656 0-1.8672 0.56641-2.2812 1.4492l-7.2031 15.367-16.07 2.5195h-0.003906c-0.93359 0.14453-1.707 0.79688-2.0039 1.6953-0.29688 0.89844-0.070313 1.8867 0.59375 2.5586l11.715 11.992-2.7695 16.977v0.003907c-0.11719 0.93359 0.30078 1.8555 1.082 2.3867s1.7891 0.58203 2.6211 0.12891l14.359-7.9336 14.359 7.9336h-0.003906c0.84766 0.46875 1.8828 0.41016 2.6719-0.14844 0.80469-0.56641 1.2109-1.5508 1.0312-2.5195l-2.7695-16.977 11.715-11.992h-0.003906c0.66406-0.67578 0.89453-1.6641 0.59766-2.5625-0.29688-0.89453-1.0703-1.5508-2.0078-1.6953z" fill="#00bac2"/>
 </g>
 <path d="m396.11 195.54c-0.30078-0.89453-1.0781-1.5469-2.0156-1.6875l-8.5391-1.3086-3.8281-8.1875c-0.41406-0.88281-1.3047-1.4492-2.2812-1.4492-0.97656 0-1.8633 0.56641-2.2773 1.4492l-3.8281 8.1875-8.5391 1.3086h-0.003906c-0.9375 0.13672-1.7188 0.78906-2.0234 1.6875-0.30469 0.89844-0.074219 1.8906 0.58984 2.5703l6.2461 6.3984-1.4844 9.0703v-0.003906c-0.11719 0.9375 0.30078 1.8594 1.082 2.3906s1.7891 0.58203 2.6172 0.12891l7.5586-4.207 7.5586 4.207c0.82812 0.45312 1.8398 0.40234 2.6172-0.12891 0.78125-0.53125 1.1992-1.4531 1.0859-2.3906l-1.4844-9.0703 6.3438-6.4453c0.65234-0.66406 0.88281-1.6328 0.60547-2.5195zm-11.336 6.3477c-0.55859 0.57422-0.80859 1.3789-0.67969 2.168l0.85547 5.2148-4.2812-2.3672v-0.003906c-0.78125-0.44922-1.7383-0.44922-2.5195 0l-4.2812 2.3672 0.85547-5.2148v0.003906c0.12891-0.78906-0.12109-1.5938-0.67969-2.168l-3.6523-3.8281 5.0391-0.75391v-0.003906c0.82422-0.125 1.5312-0.65625 1.8867-1.4102l2.1406-4.5352 2.1406 4.5352h0.003906c0.35547 0.75391 1.0625 1.2852 1.8867 1.4102l5.0391 0.75391z" fill="#00bac2"/>
 <path d="m404.17 314.7-8.5391-1.3086-3.8281-8.1875h-0.003907c-0.41406-0.88672-1.3008-1.4492-2.2773-1.4492-0.97656 0-1.8672 0.5625-2.2812 1.4492l-3.8281 8.1875-8.5391 1.3086c-0.94141 0.13672-1.7227 0.78906-2.0273 1.6875-0.30078 0.89844-0.074218 1.8906 0.58984 2.5703l6.2461 6.3984-1.4844 9.0703v-0.003906c-0.11328 0.9375 0.30469 1.8594 1.082 2.3867 0.78125 0.53125 1.793 0.58203 2.6211 0.13281l7.5586-4.207 7.5586 4.207h-0.003906c0.82812 0.44922 1.8398 0.39844 2.6211-0.13281 0.77734-0.52734 1.1992-1.4492 1.082-2.3867l-1.4844-9.0703 6.3477-6.3711c0.66406-0.67578 0.89062-1.6719 0.58984-2.5703-0.30469-0.89844-1.0859-1.5508-2.0273-1.6875z" fill="#00bac2"/>
 <g clip-path="url(#b)">
  <path d="m104.43 147.28c-0.11328 0.9375 0.30469 1.8594 1.082 2.3906 0.78125 0.52734 1.793 0.57812 2.6211 0.12891l14.359-7.832 14.359 7.9336h-0.003906c0.84766 0.46484 1.8828 0.40625 2.6719-0.15234 0.80859-0.56641 1.2109-1.5508 1.0312-2.5195l-2.7695-16.977 11.715-11.992c0.66406-0.67187 0.89453-1.6602 0.59375-2.5586-0.29688-0.89844-1.0703-1.5547-2.0039-1.6992l-16.07-2.5195-7.2344-15.238c-0.41406-0.88281-1.3008-1.4492-2.2773-1.4492-0.97656 0-1.8633 0.56641-2.2812 1.4492l-7.2305 15.367-16.07 2.5195c-0.90625 0.15234-1.6602 0.79297-1.957 1.6641-0.30078 0.87109-0.097656 1.8359 0.52344 2.5156l11.711 11.992z" fill="#00bac2"/>
 </g>
 <g clip-path="url(#a)">
  <path d="m283.58 115.74c-0.30078-0.89453-1.0781-1.5469-2.0117-1.6875l-16.07-2.5195-7.207-15.289c-0.41406-0.88281-1.3047-1.4492-2.2812-1.4492-0.97656 0-1.8633 0.56641-2.2773 1.4492l-7.2031 15.367-16.07 2.5195h-0.003907c-0.93359 0.14453-1.7109 0.79688-2.0078 1.6953-0.29688 0.89844-0.066407 1.8867 0.59766 2.5586l11.715 11.992-2.7695 16.977-0.003907 0.003907c-0.11328 0.93359 0.30469 1.8555 1.0859 2.3867 0.77734 0.53125 1.7891 0.58203 2.6172 0.12891l14.309-7.9062 14.359 7.9336c0.84375 0.46484 1.8828 0.40625 2.668-0.15234 0.80859-0.56641 1.2109-1.5508 1.0352-2.5195l-2.7695-16.977 11.715-11.992h-0.003906c0.64453-0.66797 0.86328-1.6367 0.57812-2.5195z" fill="#00bac2"/>
 </g>
 <path d="m218.67 348.83-0.45312-0.95703-0.45312 0.95703c-0.35938 0.75391-1.0664 1.2812-1.8906 1.4102l-1.2344 0.20312 0.98438 1.0078v-0.003907c0.55859 0.57422 0.80859 1.3789 0.67969 2.168l-0.20312 1.2578 0.90625-0.50391c0.78125-0.44922 1.7422-0.44922 2.5195 0l0.90625 0.50391-0.20313-1.2578h0.003907c-0.12891-0.78906 0.12109-1.5938 0.67969-2.168l0.98438-1.0078-1.2344-0.20312-0.003906 0.003906c-0.85938-0.097656-1.6133-0.62891-1.9883-1.4102z" fill="#00bac2"/>
 <path d="m233.76 313.21c0 4.1992-6.2969 4.1992-6.2969 0s6.2969-4.1992 6.2969 0" fill="#00bac2"/>
 <path d="m256.45 353.87-0.45312-0.95703-0.45312 0.95703c-0.35547 0.75391-1.0664 1.2812-1.8906 1.4102l-1.2344 0.20312 0.98438 1.0078v-0.003906c0.55859 0.57422 0.80859 1.3789 0.67969 2.168l-0.20313 1.2578 0.90625-0.50391h0.003907c0.77734-0.44922 1.7383-0.44922 2.5156 0l0.90625 0.50391-0.20312-1.2578h0.003906c-0.12891-0.78906 0.12109-1.5938 0.67969-2.168l0.98438-1.0078-1.2344-0.20312v0.003906c-0.86328-0.097656-1.6172-0.62891-1.9922-1.4102z" fill="#00bac2"/>
 <path d="m236.28 265.35c0 4.1953-6.2969 4.1953-6.2969 0 0-4.1992 6.2969-4.1992 6.2969 0" fill="#00bac2"/>
 <path d="m289.18 300.61c0 4.1992-6.2969 4.1992-6.2969 0s6.2969-4.1992 6.2969 0" fill="#00bac2"/>
 <path d="m276.58 328.32c0 4.1992-6.2969 4.1992-6.2969 0 0-4.1953 6.2969-4.1953 6.2969 0" fill="#00bac2"/>
 <path d="m269.2 202.47-0.20312 1.2578 0.90625-0.50391 0.003906 0.003906c0.77734-0.44922 1.7383-0.44922 2.5195 0l0.90625 0.50391-0.20312-1.2578v-0.003906c-0.12891-0.78906 0.125-1.5898 0.67969-2.1641l0.98438-1.0078-1.2344-0.20312c-0.82422-0.12891-1.5312-0.65625-1.8906-1.4102l-0.55469-0.92969-0.45312 0.95703c-0.35547 0.75391-1.0625 1.2812-1.8867 1.4102l-1.2344 0.20312 0.98438 1.0078-0.003907-0.003906c0.55078 0.57031 0.80078 1.3633 0.67969 2.1406z" fill="#00bac2"/>
 <path d="m170.8 298.45-0.45313-0.92969-0.45312 0.95703c-0.35547 0.75391-1.0625 1.2812-1.8867 1.4102l-1.2344 0.20313 0.98438 1.0078-0.003907-0.003906c0.55859 0.57422 0.80859 1.3789 0.67969 2.168l-0.20312 1.2578 0.90625-0.50391h0.003906c0.77734-0.44922 1.7383-0.44922 2.5195 0l0.90625 0.50391-0.20312-1.2578c-0.12891-0.78906 0.125-1.5938 0.67969-2.168l0.98438-1.0078-1.2344-0.20312v0.003906c-0.86719-0.10156-1.6211-0.64453-1.9922-1.4375z" fill="#00bac2"/>
 <path d="m233.76 217.48c0 4.1992-6.2969 4.1992-6.2969 0s6.2969-4.1992 6.2969 0" fill="#00bac2"/>
 <path d="m266.5 265.35c0 4.1953-6.2969 4.1953-6.2969 0 0-4.1992 6.2969-4.1992 6.2969 0" fill="#00bac2"/>
 <path d="m304.32 353.87-0.45312-0.95703-0.45312 0.95703c-0.35938 0.75391-1.0664 1.2812-1.8906 1.4102l-1.2344 0.20312 0.98438 1.0078v-0.003906c0.55469 0.57422 0.80859 1.3789 0.67969 2.168l-0.20312 1.2578 0.90625-0.50391c0.78125-0.44922 1.7422-0.44922 2.5195 0l0.90625 0.50391-0.20312-1.2578h0.003906c-0.13281-0.78906 0.12109-1.5938 0.67969-2.168l0.98438-1.0078-1.2344-0.20312-0.003906 0.003906c-0.85938-0.097656-1.6133-0.62891-1.9883-1.4102z" fill="#00bac2"/>
 <path d="m216.15 283.33-0.45313-0.93359-0.45312 0.95703c-0.35547 0.75391-1.0664 1.2852-1.8906 1.4141l-1.2344 0.20312 0.98437 1.0078v-0.003907c0.55859 0.57422 0.80859 1.3789 0.67969 2.168l-0.20312 1.2578 0.90625-0.50391h0.003906c0.77734-0.44922 1.7383-0.44922 2.5156 0l0.90625 0.50391-0.20312-1.2578h0.003907c-0.12891-0.78906 0.12109-1.5938 0.67969-2.168l0.98438-1.0078-1.2344-0.20312v0.003906c-0.86719-0.10156-1.6211-0.64453-1.9922-1.4375z" fill="#00bac2"/>
 <path d="m208.57 237.64c0 4.1992-6.2969 4.1992-6.2969 0s6.2969-4.1992 6.2969 0" fill="#00bac2"/>
 <path d="m203.53 313.21c0 4.1992-6.2969 4.1992-6.2969 0s6.2969-4.1992 6.2969 0" fill="#00bac2"/>
 <path d="m190.93 277.94c0 4.1992-6.2969 4.1992-6.2969 0 0-4.1992 6.2969-4.1992 6.2969 0" fill="#00bac2"/>
 <path d="m258.95 300.61c0 4.1992-6.3008 4.1992-6.3008 0s6.3008-4.1992 6.3008 0" fill="#00bac2"/>
 <path d="m324.44 220c0 4.1992-6.2969 4.1992-6.2969 0 0-4.1992 6.2969-4.1992 6.2969 0" fill="#00bac2"/>
 <path d="m140.12 272.7c0 30.73 12.207 60.203 33.938 81.934 21.73 21.734 51.207 33.941 81.938 33.941 30.734 0 60.207-12.207 81.938-33.941 21.73-21.73 33.938-51.203 33.938-81.934 0-30.734-12.207-60.207-33.938-81.938s-51.203-33.941-81.938-33.941c-30.723 0.035156-60.176 12.254-81.898 33.977-21.727 21.723-33.945 51.18-33.977 81.902zm40.859 27.379-3.5273 3.6016 0.83203 5.0391c0.11719 0.73438-0.09375 1.4844-0.57812 2.0508-0.48828 0.5625-1.1992 0.88281-1.9414 0.87109-0.42188 0.003907-0.83984-0.10156-1.2109-0.30078l-4.207-2.2656-4.2305 2.3398c-0.82812 0.45312-1.8398 0.40234-2.6211-0.12891-0.77734-0.53125-1.1953-1.4531-1.082-2.3906l0.83203-5.0391-3.5273-3.6016v0.003907c-0.66406-0.67578-0.89453-1.6641-0.59766-2.5625 0.29688-0.89844 1.0742-1.5508 2.0078-1.6953l4.7617-0.73047 2.168-4.5859h-0.003906c0.41797-0.88281 1.3047-1.4492 2.2812-1.4492 0.97656 0 1.8633 0.56641 2.2812 1.4492l2.168 4.5859 4.7617 0.73047h-0.003906c0.93359 0.14453 1.7109 0.79688 2.0078 1.6953 0.29687 0.89844 0.066406 1.8867-0.59766 2.5625zm-1.3867-22.141c0.039063-3.3008 2.0625-6.2578 5.1211-7.4922 3.0625-1.2344 6.5703-0.51172 8.8906 1.8398 2.3203 2.3477 3 5.8633 1.7305 8.9102-1.2734 3.0469-4.2539 5.0312-7.5547 5.0312-2.1914 0-4.2891-0.87891-5.8242-2.4336-1.5391-1.5586-2.3906-3.668-2.3633-5.8555zm20.781 43.555c-3.3086 0-6.2969-1.9961-7.5625-5.0547s-0.56641-6.582 1.7734-8.9219c2.3438-2.3398 5.8633-3.043 8.9219-1.7734 3.0586 1.2656 5.0547 4.25 5.0547 7.5625 0 4.5234-3.6641 8.1875-8.1875 8.1875zm24.512-40.684c0.93359 0.14453 1.7109 0.80078 2.0078 1.6992 0.29687 0.89453 0.066406 1.8828-0.59766 2.5586l-3.5273 3.6016 0.83203 5.0391c0.11719 0.73437-0.09375 1.4844-0.57812 2.0469-0.48828 0.5625-1.1953 0.88281-1.9414 0.875-0.42188 0-0.83594-0.10156-1.207-0.30078l-4.1836-2.3711-4.2305 2.3438c-0.82812 0.44922-1.8398 0.39844-2.6211-0.12891-0.78125-0.53125-1.1992-1.4531-1.082-2.3906l0.83203-5.0391-3.5273-3.6016c-0.66406-0.67188-0.89453-1.6602-0.59766-2.5586 0.29688-0.89844 1.0742-1.5547 2.0078-1.6992l4.7617-0.73047 2.168-4.5859-0.003906 0.003907c0.41797-0.88281 1.3047-1.4492 2.2812-1.4492 0.97656 0 1.8633 0.56641 2.2773 1.4492l2.168 4.5859zm-2.5195-63.227c0-3.3086 1.9883-6.2891 5.043-7.5586 3.0508-1.2695 6.5703-0.58203 8.9141 1.75 2.3477 2.332 3.0586 5.8438 1.8086 8.9062-1.2539 3.0586-4.2227 5.0664-7.5273 5.0898-2.1914 0-4.2891-0.87891-5.8242-2.4336-1.5391-1.5586-2.3906-3.668-2.3633-5.8555zm-16.953 28.34c-3.3125 0-6.2969-1.9961-7.5625-5.0547-1.2695-3.0586-0.56641-6.582 1.7734-8.9219 2.3398-2.3438 5.8633-3.043 8.9219-1.7773 3.0586 1.2695 5.0547 4.2539 5.0547 7.5664 0 4.5195-3.668 8.1875-8.1875 8.1875zm23.426 104.64-3.5273 3.6016 0.83203 5.0391c0.12109 0.73438-0.089844 1.4844-0.57813 2.0469-0.48437 0.5625-1.1953 0.88281-1.9414 0.875-0.42188 0-0.83594-0.10156-1.207-0.30469l-4.207-2.3672-4.2305 2.3438c-0.83203 0.44922-1.8398 0.39844-2.6211-0.13281-0.78125-0.52734-1.1992-1.4492-1.082-2.3867l0.83203-5.0391-3.5273-3.6016c-0.66406-0.67188-0.89453-1.6602-0.59766-2.5586 0.29688-0.89844 1.0703-1.5547 2.0078-1.6992l4.7617-0.73047 2.168-4.5859-0.003906 0.003906c0.41406-0.88672 1.3047-1.4492 2.2812-1.4492s1.8633 0.5625 2.2773 1.4492l2.168 4.5859 4.7617 0.73047v-0.003907c0.93359 0.14453 1.707 0.80078 2.0078 1.6992 0.29688 0.89844 0.066406 1.8867-0.59766 2.5586zm1.7656-29.07c-3.3125 0-6.2969-1.9961-7.5664-5.0547-1.2656-3.0586-0.56641-6.582 1.7773-8.9219 2.3398-2.3398 5.8633-3.043 8.9219-1.7734 3.0586 1.2656 5.0547 4.25 5.0547 7.5625 0 4.5234-3.668 8.1875-8.1875 8.1875zm2.5195-47.863c-3.3125 0-6.2969-1.9922-7.5664-5.0547-1.2656-3.0586-0.56641-6.5781 1.7773-8.9219 2.3398-2.3398 5.8594-3.0391 8.9219-1.7734 3.0586 1.2656 5.0508 4.2539 5.0508 7.5625 0 4.5234-3.6641 8.1875-8.1836 8.1875zm33.504 81.969-3.5273 3.6016 0.83203 5.0391h-0.003906c0.12109 0.73437-0.089844 1.4844-0.57812 2.0508-0.48438 0.5625-1.1953 0.88281-1.9375 0.87109-0.42188 0.003907-0.83984-0.10156-1.2109-0.30078l-4.207-2.3672-4.2305 2.3438c-0.82812 0.44922-1.8398 0.39844-2.6211-0.13281s-1.1992-1.4531-1.082-2.3867l0.83203-5.0391-3.5273-3.6016c-0.66406-0.67578-0.89453-1.6641-0.59766-2.5625 0.29687-0.89453 1.0742-1.5508 2.0078-1.6953l4.7617-0.73047 2.168-4.5859h-0.003907c0.41797-0.88281 1.3047-1.4453 2.2812-1.4453 0.97656 0 1.8633 0.5625 2.2773 1.4453l2.168 4.5859 4.7617 0.73047c0.93359 0.14453 1.7109 0.80078 2.0078 1.6953 0.29688 0.89844 0.066406 1.8867-0.59766 2.5625zm-10.832-62.977-0.003906 0.003906c3.3125 0 6.2969 1.9922 7.5664 5.0508 1.2656 3.0625 0.56641 6.582-1.7773 8.9219-2.3398 2.3438-5.8594 3.043-8.9219 1.7773-3.0586-1.2695-5.0508-4.2539-5.0508-7.5664-0.054687-2.2031 0.78125-4.3398 2.3242-5.918s3.6562-2.4688 5.8594-2.4688zm-0.62891-27.078h-0.003906c-0.039063-3.3203 1.9297-6.3359 4.9844-7.6328 3.0547-1.3008 6.5938-0.625 8.957 1.707 2.3633 2.3359 3.082 5.8633 1.8203 8.9336-1.2617 3.0742-4.2539 5.0781-7.5742 5.0781-2.1875 0-4.2852-0.875-5.8242-2.4336-1.5391-1.5547-2.3906-3.6641-2.3633-5.8516zm18.262 71.062c-3.3125 0-6.2969-1.9961-7.5664-5.0547-1.2656-3.0586-0.56641-6.5781 1.7773-8.9219 2.3398-2.3398 5.8633-3.0391 8.9219-1.7734s5.0508 4.2539 5.0508 7.5625c0 4.5234-3.6641 8.1875-8.1836 8.1875zm12.594-27.711c-3.3125 0-6.2969-1.9922-7.5625-5.0508-1.2695-3.0586-0.56641-6.582 1.7734-8.9219 2.3398-2.3438 5.8633-3.043 8.9219-1.7773 3.0586 1.2695 5.0547 4.2539 5.0547 7.5664 0 4.5195-3.6641 8.1836-8.1875 8.1836zm28.465 46.703-3.5273 3.6016 0.83203 5.0391c0.12109 0.73437-0.09375 1.4844-0.57812 2.0508-0.48438 0.5625-1.1953 0.88281-1.9414 0.87109-0.42188 0.003907-0.83594-0.10156-1.207-0.30078l-4.207-2.3672-4.2305 2.3438h-0.003906c-0.82812 0.44922-1.8398 0.39844-2.6172-0.13281-0.78125-0.53125-1.1992-1.4531-1.0859-2.3867l0.83203-5.0391-3.5273-3.6016c-0.66406-0.67578-0.89062-1.6641-0.59375-2.5625 0.29688-0.89453 1.0703-1.5508 2.0039-1.6953l4.7617-0.73047 2.168-4.5859c0.41406-0.88281 1.3047-1.4453 2.2773-1.4453 0.97656 0 1.8672 0.5625 2.2812 1.4453l2.168 4.5859 4.7617 0.73047c0.93359 0.14453 1.707 0.80078 2.0039 1.6953 0.29688 0.89844 0.070312 1.8867-0.59375 2.5625zm0-35.266-3.5273 3.6016 0.83203 5.0391c0.12109 0.73438-0.09375 1.4844-0.57812 2.0469-0.48438 0.56641-1.1953 0.88672-1.9414 0.875-0.42188 0.003906-0.83594-0.10156-1.207-0.30078l-4.207-2.3672-4.2344 2.3398c-0.82812 0.45313-1.8398 0.40234-2.6172-0.12891-0.78125-0.53125-1.1992-1.4531-1.0859-2.3906l0.83203-5.0391-3.5273-3.6016v0.003906c-0.66406-0.67578-0.89062-1.6641-0.59375-2.5625 0.29688-0.89844 1.0703-1.5508 2.0039-1.6953l4.7617-0.73047 2.168-4.5859c0.41406-0.88281 1.3047-1.4492 2.2773-1.4492 0.97656 0 1.8672 0.56641 2.2812 1.4492l2.168 4.5859 4.7617 0.73047c0.93359 0.14453 1.707 0.79688 2.0039 1.6953 0.29688 0.89844 0.070312 1.8867-0.59375 2.5625zm-16.5-39.875c0.042968-3.3008 2.0625-6.2578 5.125-7.4922s6.5664-0.51172 8.8867 1.8398c2.3203 2.3477 3.0039 5.8633 1.7305 8.9102s-4.2539 5.0273-7.5547 5.0273c-2.1875 0.003906-4.2852-0.875-5.8242-2.4297-1.5391-1.5586-2.3906-3.668-2.3633-5.8555zm16.5-28.238-3.5273 3.6016 0.83203 5.0391c0.12109 0.73438-0.09375 1.4844-0.57812 2.0469s-1.1953 0.88281-1.9414 0.875c-0.42188 0-0.83594-0.10156-1.207-0.30469l-4.207-2.2656-4.2344 2.3438c-0.82812 0.44922-1.8398 0.39844-2.6172-0.13281-0.78125-0.53125-1.1992-1.4531-1.0859-2.3867l0.83203-5.0391-3.5273-3.6016c-0.66406-0.67578-0.89062-1.6641-0.59375-2.5586 0.29688-0.89844 1.0703-1.5547 2.0039-1.6992l4.7617-0.73047 2.168-4.5859c0.41406-0.88281 1.3047-1.4453 2.2773-1.4453 0.97656 0 1.8672 0.5625 2.2812 1.4453l2.168 4.5859 4.7617 0.73047c0.93359 0.14453 1.707 0.80078 2.0039 1.6992 0.29688 0.89453 0.070312 1.8828-0.59375 2.5586zm14.359 71.793c-3.3125 0-6.2969-1.9961-7.5625-5.0547-1.2695-3.0586-0.57031-6.582 1.7734-8.9219 2.3398-2.3438 5.8633-3.043 8.9219-1.7734 3.0586 1.2656 5.0547 4.25 5.0547 7.5625 0 4.5195-3.668 8.1875-8.1875 8.1875zm17.633-37.785c-3.3125 0-6.2969-1.9961-7.5625-5.0547-1.2695-3.0586-0.56641-6.582 1.7734-8.9219 2.3398-2.3438 5.8633-3.043 8.9219-1.7773 3.0586 1.2695 5.0547 4.2539 5.0547 7.5664 0 4.5195-3.6641 8.1875-8.1875 8.1875zm-8.4883-44.137c0.30078-0.89453 1.0781-1.5469 2.0156-1.6875l4.7617-0.73047 2.168-4.5859-0.003906 0.003906c0.41406-0.88672 1.3047-1.4492 2.2812-1.4492s1.8633 0.5625 2.2773 1.4492l2.168 4.5859 4.7617 0.73047v-0.003906c0.93359 0.14453 1.707 0.80078 2.0078 1.6992 0.29688 0.89844 0.066406 1.8867-0.59766 2.5586l-3.5273 3.6016 0.83203 5.0391c0.11719 0.73437-0.09375 1.4844-0.57812 2.0469-0.48828 0.56641-1.1992 0.88672-1.9414 0.875-0.42188 0.003907-0.83594-0.10156-1.2109-0.30078l-4.207-2.2695-4.2305 2.3438c-0.82812 0.44922-1.8398 0.39844-2.6172-0.12891-0.78125-0.53125-1.1992-1.4531-1.0859-2.3906l0.83203-5.0391-3.5273-3.6016c-0.73047-0.71094-0.96094-1.7969-0.57812-2.7461zm-0.95703 10.656c0 3.3125-1.9961 6.2969-5.0547 7.5625-3.0586 1.2695-6.582 0.57031-8.9219-1.7734-2.3438-2.3398-3.043-5.8633-1.7734-8.9219 1.2656-3.0586 4.25-5.0547 7.5625-5.0547 2.1719 0 4.2539 0.86328 5.7891 2.3984 1.5352 1.5352 2.3984 3.6172 2.3984 5.7891zm-15.746-40.934c3.3125 0 6.2969 1.9961 7.5664 5.0547 1.2656 3.0586 0.56641 6.5781-1.7773 8.9219-2.3398 2.3398-5.8633 3.043-8.9219 1.7734-3.0586-1.2656-5.0547-4.2539-5.0547-7.5625 0-4.5234 3.668-8.1875 8.1875-8.1875zm-28.641-22.672c0.30078-0.89453 1.0781-1.5469 2.0156-1.6875l4.7617-0.73047 2.168-4.5859h-0.003906c0.41797-0.88281 1.3047-1.4453 2.2812-1.4453s1.8633 0.5625 2.2812 1.4453l2.168 4.5859 4.7617 0.73047h-0.003907c0.93359 0.14453 1.7109 0.80078 2.0078 1.6953 0.29688 0.89844 0.066406 1.8867-0.59766 2.5625l-3.5273 3.6016 0.83203 5.0391c0.12109 0.73438-0.09375 1.4844-0.57812 2.0469s-1.1953 0.88281-1.9414 0.875c-0.42188 0-0.83594-0.10156-1.207-0.30469l-4.207-2.2148-4.2344 2.3438c-0.82812 0.44922-1.8398 0.39844-2.6172-0.13281-0.78125-0.53125-1.1992-1.4531-1.0859-2.3867l0.83203-5.0391-3.5273-3.6016c-0.73047-0.71484-0.96094-1.7969-0.57812-2.7461zm1.5625 48.441c0 3.3125-1.9961 6.2969-5.0547 7.5625-3.0586 1.2695-6.582 0.56641-8.9219-1.7734-2.3398-2.3398-3.043-5.8633-1.7734-8.9219 1.2656-3.0586 4.25-5.0547 7.5625-5.0547 2.1797 0 4.2695 0.87109 5.8086 2.418 1.5352 1.543 2.3906 3.6406 2.3789 5.8203zm-34.309-40.832c0.30078-0.89844 1.0781-1.5508 2.0156-1.6875l4.7617-0.73047 2.168-4.5859h-0.003906c0.41406-0.88281 1.3047-1.4492 2.2812-1.4492 0.97266 0 1.8633 0.56641 2.2773 1.4492l2.168 4.5859 4.7617 0.73047c0.93359 0.14062 1.707 0.79688 2.0039 1.6953 0.30078 0.89844 0.070312 1.8867-0.59375 2.5586l-3.5273 3.6016 0.83203 5.0391c0.11719 0.73437-0.09375 1.4844-0.57812 2.0508-0.48828 0.5625-1.1992 0.88281-1.9414 0.87109-0.42188 0.003907-0.83984-0.10156-1.2109-0.30078l-4.207-2.2656-4.2305 2.3398c-0.82812 0.45312-1.8398 0.40234-2.6211-0.12891-0.77734-0.53125-1.1953-1.4531-1.082-2.3906l0.83203-5.0391-3.5273-3.6016v0.003906c-0.73047-0.71484-0.96094-1.8008-0.57812-2.7461zm-4.1055 32.746h-0.003906c3.3125 0 6.2969 1.9961 7.5664 5.0547 1.2656 3.0586 0.56641 6.5781-1.7773 8.9219-2.3398 2.3398-5.8594 3.043-8.9219 1.7734-3.0586-1.2656-5.0508-4.25-5.0508-7.5625-0.015625-2.1797 0.83984-4.2773 2.3789-5.8242 1.5352-1.543 3.625-2.4141 5.8047-2.4141zm-9.875-51.262c1.3906 0 2.5156 1.125 2.5156 2.5195 0 1.3906-1.125 2.5195-2.5156 2.5195-21.039 0.023437-41.207 8.3945-56.082 23.27s-23.242 35.043-23.27 56.078c0 1.3906-1.1289 2.5195-2.5195 2.5195-1.3906 0-2.5195-1.1289-2.5195-2.5195 0.027344-22.371 8.9258-43.82 24.746-59.641s37.27-24.719 59.645-24.746z" fill="#00bac2"/>
 <path d="m347.29 247.81-0.20312 1.2578 0.90625-0.50391 0.003906 0.003906c0.77734-0.45312 1.7383-0.45312 2.5195 0l0.90625 0.50391-0.20312-1.2578v-0.003906c-0.12891-0.78906 0.125-1.5938 0.68359-2.1641l0.98438-1.0078-1.2344-0.20312h-0.003906c-0.82422-0.12891-1.5312-0.65625-1.8906-1.4102l-0.45312-0.95703-0.45313 0.95703c-0.35547 0.75391-1.0625 1.2812-1.8867 1.4102l-1.2344 0.20312 0.98438 1.0078h-0.003906c0.52344 0.58984 0.73437 1.3906 0.57812 2.1641z" fill="#00bac2"/>
 <path d="m258.95 237.64c0 4.1992-6.3008 4.1992-6.3008 0s6.3008-4.1992 6.3008 0" fill="#00bac2"/>
 <path d="m332 252.75c0 4.1992-6.2969 4.1992-6.2969 0s6.2969-4.1992 6.2969 0" fill="#00bac2"/>
 <path d="m301.95 194.91-0.20312 1.2578 0.90625-0.50391c0.78125-0.44922 1.7422-0.44922 2.5195 0l0.90625 0.50391-0.20312-1.2578h0.003906c-0.13281-0.78906 0.12109-1.5938 0.67969-2.168l0.98438-1.0078-1.2344-0.20312-0.003906 0.003906c-0.82422-0.12891-1.5312-0.65625-1.8867-1.4102l-0.55469-0.93359-0.45312 0.95703c-0.35938 0.75391-1.0664 1.2812-1.8906 1.4102l-1.2344 0.20312 0.98438 1.0078c0.54688 0.56641 0.80078 1.3594 0.67969 2.1406z" fill="#00bac2"/>
 <path d="m349.63 277.94c0 4.1992-6.2969 4.1992-6.2969 0 0-4.1992 6.2969-4.1992 6.2969 0" fill="#00bac2"/>
 <path d="m304.32 250.59-0.45312-0.93359-0.45312 0.95703c-0.35938 0.75391-1.0664 1.2812-1.8906 1.4102l-1.2344 0.20312 0.98438 1.0078c0.55469 0.57031 0.80859 1.375 0.67969 2.1641l-0.20312 1.2578 0.90625-0.50391v0.003906c0.78125-0.44922 1.7422-0.44922 2.5195 0l0.90625 0.50391-0.20312-1.2578 0.003906-0.003907c-0.13281-0.78906 0.12109-1.5938 0.67969-2.1641l0.98438-1.0078-1.2344-0.20312h-0.003906c-0.86719-0.10156-1.6211-0.64453-1.9883-1.4336z" fill="#00bac2"/>
 <path d="m332 315.73c0 4.1992-6.2969 4.1992-6.2969 0 0-4.1992 6.2969-4.1992 6.2969 0" fill="#00bac2"/>
 <path d="m289.18 237.64c0 4.1992-6.2969 4.1992-6.2969 0s6.2969-4.1992 6.2969 0" fill="#00bac2"/>
 <path d="m309.33 280.46c0 4.1992-6.2969 4.1992-6.2969 0 0-4.1992 6.2969-4.1992 6.2969 0" fill="#00bac2"/>
 <path d="m304.32 318.6-0.45312-0.92969-0.45312 0.95703c-0.35938 0.75391-1.0664 1.2812-1.8906 1.4102l-1.2344 0.20312 0.98438 1.0078v-0.003906c0.55469 0.57422 0.80859 1.3789 0.67969 2.168l-0.20312 1.2578 0.90625-0.50391c0.78125-0.44922 1.7422-0.44922 2.5195 0l0.90625 0.50391-0.20312-1.2578h0.003906c-0.13281-0.78906 0.12109-1.5938 0.67969-2.168l0.98438-1.0078-1.2344-0.20312-0.003906 0.003906c-0.86719-0.10156-1.6211-0.64453-1.9883-1.4375z" fill="#00bac2"/>
</svg>
