<?xml version="1.0" encoding="UTF-8"?>
<svg width="512pt" height="512pt" version="1.1" viewBox="0 0 512 512" xmlns="http://www.w3.org/2000/svg">
 <defs>
  <clipPath id="a">
   <path d="m100 94.781h312v322.44h-312z"/>
  </clipPath>
 </defs>
 <rect width="512" height="512"/>
 <g clip-path="url(#a)">
  <path d="m404.75 95.844c-33 5.0859-63.402 20.918-86.492 45.043l-98.652 103.41-23.977-22.812h-0.003906c-5.5156-5.2695-13.297-7.4375-20.742-5.7773-7.4453 1.6562-13.574 6.918-16.336 14.031-2.7617 7.1094-1.7891 15.129 2.5859 21.375l9.2812 13.223c4.4883 6.4062 9.2812 12.539 14.25 18.531-4.2109 3.8281-8.168 7.9258-11.852 12.266-1.9531 2.1914-3.8359 4.3164-5.582 6.1328-12.699 12.727-23.125 27.531-30.828 43.777-3.0547 6.4297-4.6992 13.434-4.832 20.551-9.0391-1.8281-18.375 1.2578-24.543 8.1133-6.1719 6.8594-8.2578 16.465-5.4883 25.262 2.7695 8.8008 9.9805 15.48 18.965 17.566 8.9844 2.0898 18.402-0.72656 24.77-7.4023 6.1914-6.5156 8.5859-15.758 6.3359-24.461 7.1094-0.46484 14.035-2.4492 20.312-5.8203 15.934-8.3867 30.312-19.438 42.512-32.68 1.7109-1.7812 3.7344-3.7695 5.8242-5.8242h-0.003906c4.1289-3.8711 8.0156-7.9883 11.648-12.332 6.6445 5.0703 13.496 9.8984 20.551 14.387l12.879 8.1172 0.003907 0.003906c6.4375 3.8867 14.375 4.3555 21.227 1.2539s11.738-9.375 13.066-16.777c1.332-7.4023-1.0664-14.984-6.4102-20.273l-23.977-22.812 100.64-105.5h-0.003906c21.926-22.781 36.094-51.898 40.488-83.207l1.1992-8.4258zm-266.81 306.2c-2.8906 3.043-6.875 4.8086-11.066 4.9062-4.1953 0.10156-8.2578-1.4727-11.293-4.3711-3.0312-2.9023-4.7852-6.8906-4.8711-11.082-0.10938-4.1953 1.4727-8.2539 4.3828-11.273 2.8867-3.0977 6.8945-4.9102 11.129-5.0312 4.2305-0.12109 8.3359 1.4609 11.395 4.3867 3.0586 2.9297 4.8164 6.9609 4.8789 11.195 0.074218 4.2188-1.5703 8.2891-4.5547 11.27zm6.5781-29.801c-3.7344-3.4258-3.1523-12.195 1.543-23.121 0.68359-1.6094 1.4727-3.4258 2.3281-4.9688l15.824 26.992c-9.1133 3.8398-16.375 4.2852-19.695 1.0977zm28.809-5.7539-19.012-32.574c4.0938-6.2656 8.6133-12.242 13.531-17.883l10.617 5.207 17.641 28.363c-7.0234 6.3555-14.652 12.012-22.777 16.887zm33.535-27.402c-1.0625 1.1289-2.1562 2.1914-3.2188 3.4258l-7.8438-12.605 13.703 6.8516zm10.277-10.277-42.27-20.551c1.7461-1.8516 3.6328-3.9375 5.582-6.1328 3.4258-4.0039 7.0859-7.8008 10.961-11.375 9.957 11.117 20.781 21.426 32.371 30.832-2.0469 2.5273-4.2344 4.9375-6.543 7.2266zm69.023-6.8516h-0.003906c4.6211 4.4805 5.125 11.727 1.1641 16.801-3.957 5.0781-11.105 6.3555-16.578 2.9648l-12.879-8.1523c-31.137-19.582-58.031-45.207-79.094-75.359l-9.25-13.188c-3.2148-5.3164-2.0664-12.18 2.6992-16.16 4.7695-3.9805 11.727-3.8828 16.383 0.23047zm-24.254-37.336-13.703-13.152 37.336-38.949c0.98438-0.97656 1.5312-2.3125 1.5156-3.6992-0.015625-1.3828-0.58594-2.707-1.5898-3.6641-1.0039-0.95312-2.3516-1.4648-3.7344-1.4141-1.3867 0.050781-2.6914 0.65625-3.6211 1.6875l-37.305 39.082-13.703-13.121 99.543-104.51-3.8008 29.457c-0.32812 2.4258 0.51562 4.8633 2.2734 6.5664 1.7578 1.7031 4.2188 2.4688 6.6328 2.0664l30.145-4.9336zm110.37-116.71-38.809 6.3711 4.9648-38.055c17.684-14.445 38.605-24.391 60.973-28.98-4.0156 22.113-13.32 42.93-27.129 60.664z" fill="#00bac2"/>
 </g>
 <path d="m310.34 199.26c-2.0508-1.957-5.3008-1.8789-7.2617 0.17188l-4.9297 5c-1.957 2.0547-1.8828 5.3047 0.16797 7.2617 2.0547 1.957 5.3047 1.8828 7.2617-0.17188l4.7617-5c2.0039-2.0078 2.0039-5.2539 0-7.2617z" fill="#00bac2"/>
 <path d="m120.57 385.46c-2.168 2.3789-2.7422 5.8125-1.4648 8.7656 1.2812 2.957 4.1719 4.8867 7.3906 4.9375 3.2852-0.058594 6.2148-2.0664 7.4609-5.1055 1.2422-3.0391 0.55859-6.5273-1.7383-8.8711-3.2969-3.1289-8.5039-3.0078-11.648 0.27344z" fill="#00bac2"/>
</svg>
