<?xml version="1.0" encoding="UTF-8"?>
<svg width="512pt" height="512pt" version="1.1" viewBox="0 0 512 512" xmlns="http://www.w3.org/2000/svg">
 <g>
  <rect width="512" height="512"/>
  <path d="m323.27 236.05-47.039 19.988v-28.332h60.207l0.003906-77.363h-60.211v-16.664h-40.465v16.664h-60.207v77.367h60.207v28.332l-47.039-19.984-13.531 31.844 36.562 15.535-36.562 15.535 13.531 31.844 47.039-19.988v60.332h-21.68v7.1641h83.824v-7.1641h-21.68v-60.332l47.039 19.984 13.531-31.844-36.562-15.535 36.562-15.535zm-80.336-95.207h26.133v9.5h-26.133zm-60.211 79.699v-63.035h146.55v63.035zm86.344 7.1641v31.375l-13.066 5.5508-13.07-5.5508v-31.375zm-76.543 93.707-7.9258-18.656 36.32-15.434 25.922 11.012zm76.543 49.742h-26.133v-63.375l13.066-5.5508 13.066 5.5508zm58.336-68.398-7.9258 18.656-134.88-57.309 7.9258-18.656zm-36.324-23.219-25.918-11.012 54.316-23.078 7.9258 18.656z" fill="#00bac2"/>
 </g>
</svg>
