<?xml version="1.0" encoding="UTF-8"?>
<svg width="512pt" height="512pt" version="1.1" viewBox="0 0 512 512" xmlns="http://www.w3.org/2000/svg">
 <g>
  <rect width="512" height="512"/>
  <path d="m353.25 235.36c5.6445-4.1602 9.1562-10.801 9.1562-18.09 0-12.445-10.125-22.57-22.57-22.57h-12.898v-41.918c0-12.445-10.125-22.57-22.57-22.57-12.445 0-22.57 10.125-22.57 22.57v41.918h-109.62c-12.445 0-22.57 10.125-22.57 22.57 0 7.2852 3.4805 13.93 9.1562 18.09-6.0938 13.609-9.1562 28.117-9.1562 43.176 0 23.117 7.418 44.496 19.957 61.973l-10.832 21.441c-2.7422 5.3828-3.1914 11.512-1.3203 17.219 1.8711 5.7383 5.8672 10.383 11.254 13.125 3.2578 1.6445 6.7383 2.418 10.156 2.418 8.2539 0 16.188-4.5156 20.184-12.383l5.4492-10.738c15.285 8.4805 32.855 13.348 51.559 13.348 18.668 0 36.273-4.8672 51.559-13.348l5.418 10.738c4 7.8672 11.93 12.383 20.184 12.383 3.418 0 6.8984-0.77344 10.156-2.418 5.3828-2.7422 9.3828-7.3828 11.254-13.125 1.8711-5.707 1.418-11.832-1.3203-17.219l-10.84-21.473c12.543-17.477 19.992-38.855 19.992-61.973 0-15.027-3.0977-29.535-9.1602-43.145zm-58.555-82.574c0-5.3203 4.3203-9.6719 9.6719-9.6719 5.3203 0 9.6719 4.3516 9.6719 9.6719v41.918h-19.348zm-107.21 223.74c-2.418 4.7383-8.2539 6.6406-12.996 4.2578-2.3203-1.1602-4.0312-3.1602-4.8359-5.6094-0.80469-2.4492-0.61328-5.0938 0.54687-7.3828l8.3203-16.41c4.5781 4.8672 9.5781 9.2852 14.992 13.219zm150.03 4.2578c-4.7734 2.3867-10.609 0.48438-13.027-4.2578l-6.0312-11.93c5.418-3.9336 10.414-8.3516 14.992-13.219l8.3203 16.41c2.3906 4.7422 0.48828 10.578-4.2539 12.996zm-81.512-8.7383c-51.559 0-93.508-41.949-93.508-93.508 0-13.543 2.8359-26.57 8.4492-38.789 0.38672 0.03125 0.80469 0.097656 1.2266 0.097656h22.57v35.469c0 12.445 10.125 22.57 22.57 22.57 12.445 0 22.57-10.125 22.57-22.57v-3.2227h9.6719c12.445 0 22.57-10.125 22.57-22.57v-9.6719h67.711c0.38672 0 0.80469-0.066406 1.2266-0.097656 5.5781 12.215 8.4492 25.242 8.4492 38.785 0 51.559-41.949 93.508-93.508 93.508zm86.77-145.64c-1.1289 0.35547-2.0625 0.51562-2.9336 0.51562h-74.164c-3.5781 0-6.4492 2.9023-6.4492 6.4492v16.121c0 5.3516-4.3516 9.6719-9.6719 9.6719h-9.6719v-6.4492c0-3.5469-2.9023-6.4492-6.4492-6.4492-3.5781 0-6.4492 2.9023-6.4492 6.4492v22.57c0 5.3516-4.3516 9.6719-9.6719 9.6719-5.3516 0-9.6719-4.3203-9.6719-9.6719v-41.918c0-3.5469-2.9023-6.4492-6.4492-6.4492h-29.02c-0.87109 0-1.8047-0.16016-2.9336-0.51562-4.0312-1.2891-6.7383-4.9648-6.7383-9.1562 0-5.3203 4.3203-9.6719 9.6719-9.6719h167.67c5.3203 0 9.6719 4.3516 9.6719 9.6719 0 4.2266-2.707 7.9023-6.7383 9.1602z" fill="#00bac2"/>
  <path d="m207.63 162.46c12.445 0 22.57-10.125 22.57-22.57s-10.125-22.57-22.57-22.57c-12.445 0-22.57 10.125-22.57 22.57s10.125 22.57 22.57 22.57zm0-32.242c5.3203 0 9.6719 4.3516 9.6719 9.6719 0 5.3516-4.3516 9.6719-9.6719 9.6719-5.3516 0-9.6719-4.3203-9.6719-9.6719s4.3203-9.6719 9.6719-9.6719z" fill="#00bac2"/>
  <path d="m262.45 168.94c0 3.5625-2.8867 6.4492-6.4492 6.4492s-6.4492-2.8867-6.4492-6.4492 2.8867-6.4492 6.4492-6.4492 6.4492 2.8867 6.4492 6.4492" fill="#00bac2"/>
 </g>
</svg>
