<?xml version="1.0" encoding="UTF-8"?>
<svg width="512pt" height="512pt" version="1.1" viewBox="0 0 512 512" xmlns="http://www.w3.org/2000/svg">
 <g>
  <rect width="512" height="512"/>
  <path d="m251.43 202.48c-1.8359-1.8477-2.3828-4.6172-1.3828-7.0234s3.3477-3.9727 5.9531-3.9727h0.015625c3.5625 0.003907 6.4453 2.8945 6.4414 6.4531-0.003906 3.5625-2.8945 6.4492-6.457 6.4453h-0.015625c-1.7109 0-3.3516-0.68359-4.5547-1.9023zm-92.242 158.26h-0.015625c-3.5625-0.003907-6.4531 2.8789-6.457 6.4375-0.003906 3.5625 2.8789 6.4531 6.4414 6.457h0.015625c3.5625 0.007812 6.4531-2.8789 6.457-6.4375 0.003906-3.5625-2.8789-6.4531-6.4414-6.457zm103.92-47.426c2.8555 2.8711 3.7031 7.1797 2.1484 10.918-1.5547 3.7422-5.207 6.1797-9.2578 6.1797h-0.023438c-5.5391-0.007812-10.023-4.5-10.016-10.039 0.007812-5.5391 4.5-10.023 10.039-10.016h0.027344c2.6602 0 5.2109 1.0625 7.082 2.957zm-3.5312 7.082c0.003906-1.9766-1.5938-3.582-3.5703-3.5898h-0.007812c-1.9766-0.003906-3.582 1.5977-3.582 3.5742-0.003907 1.9766 1.5977 3.582 3.5742 3.582h0.007812c1.9727 0 3.5742-1.5977 3.5781-3.5664zm121.75-7.3242c0.18359 1.1328-0.25 2.2734-1.1367 3-0.88672 0.73047-2.0898 0.92969-3.1641 0.53516l-15.5-5.7305c-1.0781-0.39844-1.8633-1.3398-2.0625-2.4727-0.19531-1.1289 0.22266-2.2812 1.1016-3.0195l12.852-10.812h0.003907c0.89062-0.74609 2.1094-0.95703 3.1992-0.55469 1.0898 0.40625 1.875 1.3672 2.0586 2.5117zm-7.2383-4.4258-0.875-5.4727-4.2539 3.5742zm-235.11-49.672c1.7812 0 3.2227-1.4453 3.2227-3.2266 0-1.7773-1.4414-3.2227-3.2227-3.2227h-8.0625v-8.0625c0-1.7812-1.4414-3.2227-3.2227-3.2227s-3.2266 1.4414-3.2266 3.2227v8.0625h-8.0625 0.003906c-1.7812 0-3.2266 1.4453-3.2266 3.2227 0 1.7812 1.4453 3.2266 3.2266 3.2266h8.0625v8.0625l-0.003906-0.003906c0 1.7812 1.4453 3.2266 3.2266 3.2266s3.2227-1.4453 3.2227-3.2266v-8.0625zm204.9-97.992h8.0625v8.0625-0.003906c0 1.7812 1.4453 3.2266 3.2227 3.2266 1.7812 0 3.2266-1.4453 3.2266-3.2266v-8.0625h8.0625l-0.003906 0.003906c1.7812 0 3.2266-1.4453 3.2266-3.2266s-1.4453-3.2227-3.2266-3.2227h-8.0625v-8.0625h0.003906c0-1.7812-1.4453-3.2227-3.2266-3.2227-1.7773 0-3.2227 1.4414-3.2227 3.2227v8.0625h-8.0625c-1.7812 0-3.2227 1.4414-3.2227 3.2227s1.4414 3.2266 3.2227 3.2266zm-59.965 98.117c-1.3867 1.1016-1.5391 1.3125-1.582 1.7344h0.003906c-0.95703 7.1445-4.5273 13.68-10.016 18.348-0.11328 0.082031-10.672 7.1445-19.738 7.1445h-0.19531c-1.1875 3.4258-3.7461 8.4414-8.5195 8.4609h-0.24219c-11.367 0-14.867-3.1758-15.922-4.8633-4.1133-5.5859-2.1953-12.379-0.58203-16.098l-0.003906-0.003906c-1.2812-1.1836-2.125-2.7656-2.3828-4.4883-0.19531-3.4844 1.3281-6.8398 4.0703-8.9961-0.33594-0.41406-0.73047-0.84375-1.082-1.2383-2.2969-2.0039-3.6875-4.8477-3.8516-7.8906 0.0625-2.2812 0.24219-8.7344 5.5664-11.312v-0.003907c1.3438-7.0977 5.1992-13.473 10.863-17.961 5.6602-4.4883 12.746-6.7852 19.965-6.4766 13.852 0.44922 21.223 5.9766 24.965 10.531 4.793 6.0039 6.8125 13.758 5.5547 21.336-0.50781 4.7266-3.0078 9.0078-6.8711 11.777zm-3.6719-29.02c-4.2109-5.1289-11.004-7.8828-20.188-8.1797-18.969-0.62891-23.602 16.047-24.438 20.023 2.543 1.1758 5.2852 1.8711 8.082 2.0508 1.6836 0.21875 2.9102 1.707 2.8008 3.4062-0.10547 1.6953-1.5117 3.0156-3.2109 3.0156-0.14062 0.003906-0.28125-0.007813-0.41797-0.023438-4.1406-0.20312-8.1602-1.4766-11.66-3.6914-0.66797 1.4766-0.97656 3.0898-0.89453 4.707-0.027344 0.94141 1.0469 2.1289 2.1875 3.3867v-0.003906c1.6953 1.5586 2.9023 3.582 3.4609 5.8203 0.19141 1.1484-0.25 2.3086-1.1562 3.0391-3.793 3.0586-3.7148 4.6172-3.6953 4.7852 0.13281 0.41797 0.41016 0.77734 0.78516 1.0039 2.8555-0.39062 7.6914-0.64844 10.258 1.5039 1.1484 0.94531 1.8086 2.3594 1.8008 3.8477 0 1.582-1.1484 2.9297-2.7109 3.1836-1.5625 0.25-3.0781-0.66797-3.5742-2.1719-1.4414-0.20703-2.9062-0.21875-4.3516-0.03125-1.0898 2.2695-2.8867 7.1094-0.36719 10.426 0.035157 0.046874 0.070313 0.097656 0.10547 0.14453 0.30469 0.26562 2.5742 2.0195 10.781 2.0117 1.6367-1.6953 2.7031-3.8633 3.043-6.1953 0.1875-0.83984 0.69922-1.5703 1.4258-2.0273 0.72656-0.46094 1.6094-0.60938 2.4453-0.41797 5.1797 1.1836 14.945-3.6836 17.781-5.7344h0.003906c3.957-3.6055 6.5625-8.457 7.3789-13.75 0.34766-2.5469 1.8086-4.8047 3.9922-6.1602 2.6016-1.7734 4.2617-4.6328 4.5117-7.7734 0.92188-5.7461-0.58984-11.613-4.1758-16.195zm-11.102 31.441c-0.35547 4.6445-10.812 8.5273-18.223 9.543-0.43359 0.0625-0.875 0.09375-1.3125 0.09375-1.7344 0.046875-3.418-0.56641-4.7148-1.7148-2.043-2.3008-2.9883-5.375-2.5898-8.4258l3.2305-0.34375-3.2227 0.070313h0.003907c-0.125-2.2695 0.94141-4.4414 2.8086-5.7344 2.7734-1.5977 6.1875-1.5938 8.9492 0.015625 2.3086 0.76953 4.6992 1.2852 7.1211 1.5312 4.2383 0.61719 8.2422 1.1992 7.9531 4.9648zm-11.059 1.0898h0.003906c-2.2578-0.28906-4.4688-0.85156-6.5898-1.6758-0.83594-0.47266-1.793-0.67578-2.7461-0.58203 0.019531 0.015625 0.007812 0.10938 0.007812 0.24609 0.003906 0.14844-0.003906 0.36719-0.011719 0.64453-0.10156 2.8008 0.375 3.3359 0.47266 3.4102l-0.003907 0.003906c0.27344 0.074219 0.55469 0.082032 0.82812 0.019532 2.7539-0.375 5.4492-1.0703 8.043-2.0664zm-120.73-58.531 44.238 20.684c0.77734 0.36328 1.6641 0.40234 2.4688 0.10938 0.80469-0.28906 1.4609-0.89062 1.8242-1.6641 0.35938-0.77734 0.39844-1.6641 0.10938-2.4688-0.29297-0.80469-0.89453-1.457-1.6719-1.8203l-44.238-20.684c-1.6133-0.75-3.5273-0.050781-4.2812 1.5586-0.75391 1.6133-0.058593 3.5273 1.5508 4.2852zm118.66 148.21c-1.7812 0-3.2227 1.4414-3.2227 3.2227v33.375c0 1.7812 1.4414 3.2266 3.2227 3.2266s3.2266-1.4453 3.2266-3.2266v-33.375c-0.003906-1.7812-1.4453-3.2227-3.2266-3.2227zm-23.664-31.105v-0.003906c-1.6758-0.59766-3.5195 0.26953-4.125 1.9453l-16.621 46.199c-0.29297 0.80469-0.25 1.6914 0.11328 2.4688 0.36328 0.77344 1.0195 1.375 1.8281 1.6641 0.80469 0.28906 1.6953 0.24609 2.4688-0.12109 0.77344-0.36328 1.3711-1.0234 1.6602-1.832l16.621-46.199c0.28906-0.80469 0.24609-1.6914-0.11719-2.4648-0.36719-0.77344-1.0234-1.3711-1.8281-1.6602zm-34.582-2.9062-30.445 35.125c-1.1641 1.3438-1.0195 3.3828 0.32812 4.5469 1.3438 1.168 3.3828 1.0195 4.5469-0.32422l30.445-35.125c1.168-1.3477 1.0195-3.3828-0.32422-4.5508-1.3477-1.1641-3.3828-1.0195-4.5508 0.32812zm-20.301-20h0.003906c-0.40625-0.75391-1.0938-1.3164-1.9102-1.5625-0.82031-0.25-1.7031-0.16016-2.457 0.25l-34.867 18.75c-1.5664 0.84375-2.1562 2.7969-1.3125 4.3672 0.84375 1.5664 2.7969 2.1562 4.3672 1.3125l34.867-18.75c1.5664-0.84375 2.1562-2.8008 1.3125-4.3672zm30.914-42.277c0-0.85547-0.33984-1.6758-0.94531-2.2812-0.60547-0.60156-1.4258-0.94141-2.2812-0.94141h-50.855c-1.7812 0-3.2227 1.4414-3.2227 3.2227s1.4414 3.2266 3.2227 3.2266h50.855c0.85547 0 1.6758-0.33984 2.2812-0.94531s0.94531-1.4258 0.94531-2.2812zm-35.805-86.391c0.57812 0.63281 1.3828 1.0117 2.2383 1.0508 0.85547 0.039063 1.6914-0.26172 2.3242-0.84375 0.63281-0.57812 1.0078-1.3828 1.0469-2.2383 0.035156-0.85938-0.26953-1.6914-0.85156-2.3242l-20.656-22.57c-1.2031-1.3086-3.2383-1.3945-4.5508-0.19531-1.3086 1.2031-1.4023 3.2344-0.20703 4.5508zm33.152 31.449c-1.3125 1.2031-1.4023 3.2422-0.19922 4.5547l15.727 17.18h-0.003907c0.57812 0.63281 1.3828 1.0117 2.2383 1.0508 0.85547 0.039062 1.6914-0.26562 2.3242-0.84375 0.62891-0.57812 1.0039-1.3828 1.043-2.2383 0.035156-0.85547-0.26953-1.6914-0.84766-2.3203l-15.727-17.18 0.003907-0.003907c-1.207-1.3125-3.2422-1.4023-4.5586-0.19922zm50.285-22.57c1.7812 0 3.2227-1.4414 3.2266-3.2227v-39.781c0-1.7812-1.4453-3.2266-3.2266-3.2266s-3.2227 1.4453-3.2227 3.2266v39.781c0 1.7812 1.4414 3.2227 3.2227 3.2227zm-37.145-1.0547v0.003906c0.70312 1.6367 2.5977 2.3945 4.2344 1.6953 1.6367-0.70312 2.3984-2.5977 1.6953-4.2344l-16.68-38.961c-0.33594-0.78516-0.96875-1.4062-1.7656-1.7266-0.79297-0.32031-1.6797-0.30859-2.4688 0.027343-0.78516 0.33594-1.4062 0.97266-1.7266 1.7695-0.31641 0.79297-0.30469 1.6836 0.03125 2.4688zm76.074-23.453 0.003906 0.003906c0.79688 0.30469 1.6836 0.28125 2.4648-0.066406 0.78125-0.35156 1.3906-0.99609 1.6953-1.7969l11.789-30.895c0.30859-0.80078 0.28125-1.6875-0.066406-2.4688s-0.99219-1.3945-1.793-1.6992c-0.80078-0.30469-1.6875-0.27734-2.4688 0.070312-0.78125 0.35156-1.3906 0.99609-1.6953 1.7969l-11.789 30.895v0.003907c-0.30469 0.79688-0.28125 1.6836 0.066407 2.4648 0.35156 0.78125 0.99609 1.3906 1.7969 1.6953zm-16.113 42.227v0.003907c0.80078 0.30469 1.6875 0.28125 2.4688-0.066407 0.78125-0.35156 1.3906-0.99609 1.6953-1.7969l8.0117-20.996c0.30469-0.79687 0.28125-1.6875-0.066407-2.4688-0.35156-0.78125-0.99609-1.3906-1.7969-1.6953-0.79688-0.30469-1.6875-0.28125-2.4648 0.070312-0.78125 0.34766-1.3906 0.99609-1.6953 1.7969l-8.0117 20.992c-0.30859 0.80078-0.28125 1.6875 0.066407 2.4688 0.35156 0.78125 0.99609 1.3906 1.793 1.6953zm19.984 17.246 0.003907 0.003906c0.60547 0.60547 1.4258 0.94141 2.2812 0.94141 0.85547 0 1.6719-0.34375 2.2773-0.94922l29.512-29.586c1.2461-1.2617 1.2383-3.293-0.019531-4.5469-1.2539-1.2539-3.2891-1.2578-4.5469-0.003906l-29.512 29.586c-0.60156 0.60547-0.94141 1.4258-0.94141 2.2812 0 0.85547 0.34375 1.6719 0.94922 2.2773zm101.17-16.324v0.003906c-0.32031-0.79297-0.94531-1.4258-1.7305-1.7578-0.78906-0.33203-1.6797-0.33984-2.4688-0.015625l-53.379 21.723c-0.79297 0.32422-1.4258 0.94531-1.7578 1.7344-0.33203 0.78906-0.33594 1.6758-0.015624 2.4688 0.67187 1.6484 2.5547 2.4414 4.2031 1.7695l53.379-21.723c0.79297-0.32031 1.4219-0.94531 1.7539-1.7305 0.33594-0.78906 0.33984-1.6758 0.015625-2.4688zm-72.016 29.324c-0.68359-1.6445-2.5664-2.4258-4.2148-1.7461l-21.453 8.875c-0.79297 0.32422-1.4258 0.95312-1.7539 1.7422-0.32812 0.79297-0.33203 1.6797-0.003906 2.4727s0.95703 1.4219 1.75 1.75c0.79297 0.32812 1.6836 0.32422 2.4727-0.003906l21.453-8.875c1.6484-0.67969 2.4297-2.5664 1.75-4.2148zm57.781 26.324h-62.238c-1.7812 0-3.2227 1.4414-3.2227 3.2227s1.4414 3.2266 3.2227 3.2266h62.238c1.7812 0 3.2227-1.4453 3.2227-3.2266s-1.4414-3.2227-3.2227-3.2227zm-76.711 47.879c-0.62891-0.58203-1.4609-0.89062-2.3164-0.85938-0.85547 0.035156-1.6602 0.40625-2.2422 1.0352-0.57812 0.625-0.88672 1.4609-0.85547 2.3125 0.035156 0.85547 0.40625 1.6641 1.0352 2.2422l48.324 44.703c0.625 0.58203 1.4609 0.89062 2.3125 0.85547 0.85547-0.03125 1.6641-0.40234 2.2422-1.0312 0.58203-0.62891 0.89062-1.4609 0.85547-2.3164-0.03125-0.85156-0.40234-1.6602-1.0312-2.2422zm-15.25-28.348c-0.33984 0.78516-0.35156 1.6719-0.039063 2.4688 0.31641 0.79297 0.93359 1.4297 1.7188 1.7695l51.32 22.156c1.6367 0.70703 3.5312-0.046875 4.2383-1.6836 0.70703-1.6328-0.046875-3.5312-1.6797-4.2383l-51.32-22.156c-0.78516-0.33984-1.6719-0.35547-2.4688-0.039062-0.79688 0.31641-1.4336 0.9375-1.7695 1.7227zm-2.8867 60.551c-0.32422-0.79297-0.94922-1.4258-1.7383-1.7578-0.78906-0.33594-1.6758-0.33984-2.4688-0.015624-0.79297 0.32422-1.4258 0.94922-1.7578 1.7422-0.32812 0.78906-0.33203 1.6797-0.007813 2.4688l21.406 52.387c0.67188 1.6484 2.5547 2.4414 4.2031 1.7656 1.6484-0.67188 2.4414-2.5547 1.7656-4.2031zm-116.4-149.33 16.734-15.145v-0.003906c1.3242-1.1914 3.3594-1.0898 4.5547 0.23047l11.41 12.609c1.1953 1.3203 1.0938 3.3594-0.22656 4.5547l-16.734 15.145c-1.3203 1.1914-3.3594 1.0898-4.5547-0.23047l-11.41-12.609c-1.1953-1.3203-1.0938-3.3594 0.22656-4.5547zm6.7188 2.6172 7.082 7.8242 11.953-10.816-7.082-7.8242zm3.7305 98.289v-0.003906c-0.83984-1.5703-0.24219-3.5234 1.3281-4.3633l14.457-7.7109c1.5703-0.83594 3.5234-0.24219 4.3633 1.3281l7.7109 14.457c0.83594 1.5742 0.24219 3.5234-1.3281 4.3633l-14.457 7.7109c-1.5703 0.83984-3.5234 0.24609-4.3633-1.3281zm7.207-0.19141 4.6758 8.7695 8.7695-4.6758-4.6758-8.7695z" fill="#00bac2"/>
 </g>
</svg>
