<?xml version="1.0" encoding="UTF-8"?>
<svg width="512pt" height="512pt" version="1.1" viewBox="0 0 512 512" xmlns="http://www.w3.org/2000/svg">
 <defs>
  <clipPath id="a">
   <path d="m95 94.781h213v322.44h-213z"/>
  </clipPath>
 </defs>
 <rect width="512" height="512"/>
 <g clip-path="url(#a)">
  <path d="m292.16 303.57h-2.8711c1.7773-3.0547 2.8711-6.5508 2.8711-10.332 0-0.91797-0.16016-1.793-0.38672-2.6406l12.859-12.859-15.5-15.5h-7.7812l-14.348-148.21c-0.5625-5.8789-3.1758-11.41-7.3555-15.59l-3.6523-3.6523-3.6523 3.6523c-4.1797 4.1797-6.7891 9.7109-7.3555 15.59l-14.348 148.21h-7.7812l-15.5 15.5 6.7695 6.7695c-4.1758 1.1172-8.1992 2.7852-11.938 5.0195l-14.785 8.875h-9.8516c-2.1406-5.9961-7.8203-10.332-14.547-10.332h-67.16v103.32h67.16c6.7266 0 12.41-4.3359 14.547-10.332h9.8516l14.789 8.875c7.2227 4.3359 15.5 6.6211 23.918 6.6211h9.2188v5.168c0 8.543 6.9531 15.5 15.5 15.5h10.332c8.543 0 15.5-6.9531 15.5-15.5v-5.168h15.5c8.543 0 15.5-6.9531 15.5-15.5 0-3.9844-1.5547-7.582-4.0312-10.332 2.4805-2.75 4.0312-6.3477 4.0312-10.332s-1.5547-7.582-4.0312-10.332c2.4805-2.75 4.0312-6.3477 4.0312-10.332 0-3.9844-1.5547-7.582-4.0312-10.332 2.4805-2.75 4.0312-6.3477 4.0312-10.332-0.007813-8.543-6.9609-15.496-15.504-15.496zm5.1641 15.496c0 2.8516-2.3125 5.168-5.168 5.168h-20.664c-2.8516 0-5.168-2.3125-5.168-5.168 0-2.8516 2.3125-5.168 5.168-5.168h20.664c2.8555 0.003907 5.168 2.3164 5.168 5.168zm0 20.664c0 2.8516-2.3125 5.168-5.168 5.168h-20.664c-2.8516 0-5.168-2.3125-5.168-5.168 0-2.8516 2.3125-5.168 5.168-5.168h20.664c2.8555 0.003906 5.168 2.3164 5.168 5.168zm0 20.664c0 2.8516-2.3125 5.168-5.168 5.168h-20.664c-2.8516 0-5.168-2.3125-5.168-5.168 0-2.8516 2.3125-5.168 5.168-5.168h20.664c2.8555 0.003906 5.168 2.3164 5.168 5.168zm-42.055-245.37c0.11328-1.1641 0.35937-2.2969 0.72656-3.3867 0.36719 1.0898 0.61328 2.2266 0.72656 3.3828l14.25 147.21h-29.949zm-28.133 157.54h57.711l5.168 5.168-5.168 5.168-3.0195-0.003906h-54.691l-5.168-5.168zm-58.965 103.32c0 2.8516-2.3125 5.168-5.168 5.168h-5.168v-67.16h-10.332v67.16l-10.328-0.003906v-67.16l-10.332 0.003907v67.16l-20.664-0.003906v-82.656h56.828c2.8516 0 5.168 2.3125 5.168 5.168zm57.945 10.332c-6.5508 0-12.988-1.7812-18.609-5.1523l-17.238-10.348h-11.766v-61.992h11.762l17.234-10.348c5.625-3.3672 12.062-5.1523 18.613-5.1523l55.715 0.003906c0 5.6992-4.6328 10.332-10.332 10.332h-33.762l-1.5352 2.3008c-5.5078 8.2656-14.73 13.199-24.656 13.199l-2.043-0.003906v10.332h2.0391c8.7188 0 17-2.8711 23.789-7.918v64.746zm35.047 20.664h-10.332c-2.8516 0-5.168-2.3125-5.168-5.168v-87.824h11.281c-0.57812 1.6211-0.94922 3.3477-0.94922 5.168 0 3.9844 1.5547 7.582 4.0312 10.332-2.4805 2.75-4.0312 6.3477-4.0312 10.332 0 3.9844 1.5547 7.582 4.0312 10.332-2.4805 2.75-4.0312 6.3477-4.0312 10.332s1.5547 7.582 4.0312 10.332c-2.4805 2.75-4.0312 6.3477-4.0312 10.332 0 6.7266 4.3359 12.41 10.332 14.547v6.1172c0 2.8555-2.3125 5.168-5.1641 5.168zm30.996-20.664h-20.664c-2.8516 0-5.168-2.3125-5.168-5.168 0-2.8516 2.3125-5.168 5.168-5.168h20.664c2.8516 0 5.168 2.3125 5.168 5.168-0.003906 2.8555-2.3164 5.168-5.168 5.168z" fill="#00bac2"/>
 </g>
 <path d="m163.01 241.57c0 8.543 6.9531 15.5 15.5 15.5 8.543 0 15.5-6.9531 15.5-15.5 0-8.543-6.9531-15.5-15.5-15.5-8.5469 0.003907-15.5 6.957-15.5 15.5zm20.664 0c0 2.8516-2.3125 5.168-5.168 5.168-2.8516 0-5.168-2.3125-5.168-5.168 0-2.8516 2.3125-5.168 5.168-5.168 2.8516 0.003906 5.168 2.3164 5.168 5.168z" fill="#00bac2"/>
 <path d="m111.35 210.57c8.543 0 15.5-6.9531 15.5-15.5 0-8.543-6.9531-15.5-15.5-15.5-8.543 0-15.5 6.9531-15.5 15.5 0.003906 8.5469 6.957 15.5 15.5 15.5zm0-20.664c2.8516 0 5.168 2.3125 5.168 5.168 0 2.8516-2.3125 5.168-5.168 5.168-2.8516 0-5.168-2.3125-5.168-5.168 0.003906-2.8555 2.3164-5.168 5.168-5.168z" fill="#00bac2"/>
 <path d="m209.5 164.08h-56.824c-8.543 0-15.5 6.9531-15.5 15.5 0 8.543 6.9531 15.5 15.5 15.5h51.66v-10.332l-51.66-0.003906c-2.8516 0-5.168-2.3125-5.168-5.168 0-2.8516 2.3125-5.168 5.168-5.168h56.828c8.543 0 15.5-6.9531 15.5-15.5 0-8.543-6.9531-15.5-15.5-15.5h-46.496c-2.8516 0-5.168-2.3125-5.168-5.168 0-2.8516 2.3125-5.168 5.168-5.168h72.324v-10.332l-72.324 0.011719c-8.543 0-15.5 6.9531-15.5 15.5 0 8.543 6.9531 15.5 15.5 15.5h46.496c2.8516 0 5.168 2.3125 5.168 5.168-0.003906 2.8477-2.3203 5.1602-5.1719 5.1602z" fill="#00bac2"/>
 <path d="m111.35 257.07h30.996c2.8516 0 5.168 2.3125 5.168 5.168 0 8.543 6.9531 15.5 15.5 15.5h30.996v-10.332h-30.996c-2.8516 0-5.168-2.3125-5.168-5.168 0-8.543-6.9531-15.5-15.5-15.5h-30.996c-2.8516 0-5.168-2.3125-5.168-5.168 0-2.8516 2.3125-5.168 5.168-5.168h15.5c8.543 0 15.5-6.9531 15.5-15.5 0-2.8516 2.3125-5.168 5.168-5.168h46.496v-10.332h-46.496c-8.543 0-15.5 6.9531-15.5 15.5 0 2.8516-2.3125 5.168-5.168 5.168l-15.5 0.003907c-8.543 0-15.5 6.9531-15.5 15.5 0.003906 8.543 6.957 15.496 15.5 15.496z" fill="#00bac2"/>
 <path d="m116.52 107.25h10.332v10.332h-10.332z" fill="#00bac2"/>
 <path d="m116.52 127.92h10.332v10.332h-10.332z" fill="#00bac2"/>
 <path d="m126.85 117.59h10.332v10.332h-10.332z" fill="#00bac2"/>
 <path d="m106.18 117.59h10.332v10.332h-10.332z" fill="#00bac2"/>
 <path d="m348.99 241.57c0-8.543-6.9531-15.5-15.5-15.5-8.543 0-15.5 6.9531-15.5 15.5 0 8.543 6.9531 15.5 15.5 15.5 8.543 0 15.5-6.9531 15.5-15.5zm-20.668 0c0-2.8516 2.3125-5.168 5.168-5.168 2.8516 0 5.168 2.3125 5.168 5.168 0 2.8516-2.3125 5.168-5.168 5.168-2.8516 0-5.168-2.3164-5.168-5.168z" fill="#00bac2"/>
 <path d="m385.15 195.08c0 8.543 6.9531 15.5 15.5 15.5 8.543 0 15.5-6.9531 15.5-15.5 0-8.543-6.9531-15.5-15.5-15.5s-15.5 6.9531-15.5 15.5zm20.664 0c0 2.8516-2.3125 5.168-5.168 5.168-2.8516 0-5.168-2.3125-5.168-5.168 0-2.8516 2.3125-5.168 5.168-5.168 2.8555 0 5.168 2.3125 5.168 5.168z" fill="#00bac2"/>
 <path d="m359.32 184.74h-51.664v10.332h51.66c8.543 0 15.5-6.9531 15.5-15.5 0-8.543-6.9531-15.5-15.5-15.5l-56.824 0.003906c-2.8516 0-5.168-2.3125-5.168-5.168 0-2.8516 2.3125-5.168 5.168-5.168h46.496c8.543 0 15.5-6.9531 15.5-15.5 0-8.543-6.9531-15.5-15.5-15.5l-72.328 0.007812v10.332h72.324c2.8516 0 5.168 2.3125 5.168 5.168 0 2.8516-2.3125 5.168-5.168 5.168h-46.496c-8.543 0-15.5 6.9531-15.5 15.5 0 8.543 6.9531 15.5 15.5 15.5h56.828c2.8516 0 5.168 2.3125 5.168 5.168 0 2.8438-2.3125 5.1562-5.1641 5.1562z" fill="#00bac2"/>
 <path d="m400.65 226.07h-15.5c-2.8516 0-5.168-2.3125-5.168-5.168 0-8.543-6.9531-15.5-15.5-15.5h-46.496v10.332h46.496c2.8516 0 5.168 2.3125 5.168 5.168 0 8.543 6.9531 15.5 15.5 15.5h15.5c2.8516 0 5.168 2.3125 5.168 5.168 0 2.8516-2.3125 5.168-5.168 5.168h-30.996c-8.543 0-15.5 6.9531-15.5 15.5 0 2.8516-2.3125 5.168-5.168 5.168h-30.996v10.332h30.996c8.543 0 15.5-6.9531 15.5-15.5 0-2.8516 2.3125-5.168 5.168-5.168h30.996c8.543 0 15.5-6.9531 15.5-15.5-0.003906-8.5469-6.957-15.5-15.5-15.5z" fill="#00bac2"/>
 <path d="m385.15 107.25h10.332v10.332h-10.332z" fill="#00bac2"/>
 <path d="m385.15 127.92h10.332v10.332h-10.332z" fill="#00bac2"/>
 <path d="m374.82 117.59h10.332v10.332h-10.332z" fill="#00bac2"/>
 <path d="m395.48 117.59h10.332v10.332h-10.332z" fill="#00bac2"/>
 <path d="m348.99 360.39c-8.543 0-15.5 6.9531-15.5 15.5 0 8.543 6.9531 15.5 15.5 15.5 8.543 0 15.5-6.9531 15.5-15.5-0.003907-8.5469-6.957-15.5-15.5-15.5zm0 20.664c-2.8516 0-5.168-2.3125-5.168-5.168 0-2.8516 2.3125-5.168 5.168-5.168 2.8516 0 5.168 2.3125 5.168 5.168-0.003906 2.8555-2.3164 5.168-5.168 5.168z" fill="#00bac2"/>
 <path d="m333.49 288.07h10.332v10.332h-10.332z" fill="#00bac2"/>
 <path d="m333.49 308.73h10.332v10.332h-10.332z" fill="#00bac2"/>
 <path d="m323.16 298.4h10.332v10.332h-10.332z" fill="#00bac2"/>
 <path d="m343.82 298.4h10.332v10.332h-10.332z" fill="#00bac2"/>
 <path d="m385.15 319.06h10.332v10.332h-10.332z" fill="#00bac2"/>
 <path d="m385.15 339.73h10.332v10.332h-10.332z" fill="#00bac2"/>
 <path d="m374.82 329.39h10.332v10.332h-10.332z" fill="#00bac2"/>
 <path d="m395.48 329.39h10.332v10.332h-10.332z" fill="#00bac2"/>
</svg>
